<svg width="425" height="459" viewBox="0 0 425 459" fill="none" xmlns="http://www.w3.org/2000/svg">
<g filter="url(#filter0_b_1324_3674)">
<g opacity="0.5">
<path d="M419.774 4.91577H40.6824L5.31423 161.143H384.749L419.774 4.91577Z" fill="white"/>
<path d="M419.774 4.91577H40.6824L5.31423 161.143H384.749L419.774 4.91577Z" fill="white" fill-opacity="0.3"/>
<path d="M419.774 4.91577H40.6824L5.31423 161.143H384.749L419.774 4.91577Z" fill="url(#paint0_linear_1324_3674)" fill-opacity="0.6"/>
</g>
<g opacity="0.5">
<path d="M419.09 313.513H41.7151L7.03374 454.31H388.529L419.09 313.513Z" fill="white"/>
<path d="M419.09 313.513H41.7151L7.03374 454.31H388.529L419.09 313.513Z" fill="white" fill-opacity="0.3"/>
<path d="M419.09 313.513H41.7151L7.03374 454.31H388.529L419.09 313.513Z" fill="url(#paint1_linear_1324_3674)" fill-opacity="0.6"/>
</g>
<g opacity="0.3">
<path d="M384.752 161.143H7.03374L41.7151 313.513H419.09L384.752 161.143Z" fill="white"/>
<path d="M384.752 161.143H7.03374L41.7151 313.513H419.09L384.752 161.143Z" fill="white" fill-opacity="0.3"/>
<path d="M384.752 161.143H7.03374L41.7151 313.513H419.09L384.752 161.143Z" fill="url(#paint2_linear_1324_3674)" fill-opacity="0.6"/>
</g>
<g opacity="0.5" filter="url(#filter1_bf_1324_3674)">
<path fill-rule="evenodd" clip-rule="evenodd" d="M419.774 4.91577H40.6823L5.31424 161.143L7.03366 161.143L41.715 313.513V313.513L7.03366 454.31H388.529L419.09 313.513V313.513L384.752 161.143H384.749L419.774 4.91577Z" fill="url(#paint3_linear_1324_3674)"/>
<path d="M40.6823 4.91577L40.2176 4.81056L40.3017 4.43928H40.6823V4.91577ZM419.774 4.91577V4.43928H420.369L420.239 5.02001L419.774 4.91577ZM5.31424 161.143L5.31429 161.62L4.7178 161.62L4.84951 161.038L5.31424 161.143ZM7.03366 161.143L7.03361 160.667L7.41387 160.667L7.49827 161.037L7.03366 161.143ZM41.715 313.513L42.1796 313.407L42.1915 313.459V313.513H41.715ZM41.715 313.513H42.1915V313.571L42.1777 313.627L41.715 313.513ZM7.03366 454.31V454.787H6.42556L6.571 454.196L7.03366 454.31ZM388.529 454.31L388.994 454.411L388.913 454.787H388.529V454.31ZM419.09 313.513H419.566V313.564L419.555 313.614L419.09 313.513ZM419.09 313.513L419.554 313.408L419.566 313.46V313.513H419.09ZM384.752 161.143V160.667H385.133L385.216 161.038L384.752 161.143ZM384.749 161.143V161.62H384.154L384.284 161.039L384.749 161.143ZM40.6823 4.43928H419.774V5.39226H40.6823V4.43928ZM4.84951 161.038L40.2176 4.81056L41.1471 5.02098L5.77897 161.249L4.84951 161.038ZM7.03372 161.62L5.31429 161.62L5.31418 160.667L7.03361 160.667L7.03372 161.62ZM7.49827 161.037L42.1796 313.407L41.2504 313.618L6.56905 161.249L7.49827 161.037ZM42.1915 313.513V313.513H41.2385V313.513H42.1915ZM6.571 454.196L41.2524 313.399L42.1777 313.627L7.49632 454.424L6.571 454.196ZM388.529 454.787H7.03366V453.834H388.529V454.787ZM419.555 313.614L388.994 454.411L388.063 454.209L418.624 313.412L419.555 313.614ZM418.613 313.513V313.513H419.566V313.513H418.613ZM418.625 313.617L384.287 161.248L385.216 161.038L419.554 313.408L418.625 313.617ZM384.752 161.62H384.749V160.667H384.752V161.62ZM420.239 5.02001L385.214 161.247L384.284 161.039L419.309 4.81153L420.239 5.02001Z" fill="#8CFF00"/>
</g>
</g>
<g filter="url(#filter2_f_1324_3674)">
<path d="M225.397 257.267L201.676 225.066C200.375 223.3 197.725 223.332 196.467 225.13L157.821 280.373C156.343 282.485 157.836 285.389 160.413 285.417L264.59 286.562C267.185 286.591 268.737 283.686 267.272 281.545L246.581 251.306C245.617 249.897 243.717 249.491 242.261 250.382L229.653 258.1C228.233 258.97 226.385 258.608 225.397 257.267Z" fill="url(#paint4_linear_1324_3674)"/>
</g>
<path d="M269.367 180.97L168.162 177.832C160.004 177.579 153.169 183.874 152.921 191.881L150.093 283.063C149.845 291.061 156.277 297.761 164.435 298.014L265.639 301.152C273.797 301.405 280.625 295.117 280.873 287.119L283.701 195.937C283.95 187.93 277.525 181.223 269.367 180.97ZM237.271 201.572C245.16 201.816 251.363 208.287 251.124 216.02C250.884 223.754 244.291 229.828 236.402 229.583C228.511 229.338 222.31 222.867 222.55 215.134C222.79 207.401 229.38 201.327 237.271 201.572ZM261.417 287.605L215.448 286.179L171.528 284.817C167.582 284.694 165.911 281.841 167.797 278.444L193.793 231.596C195.676 228.199 199.072 227.996 201.374 231.141L225.049 263.492C227.352 266.638 231.535 267.029 234.394 264.363L240.611 258.563C243.468 255.896 247.541 256.364 249.705 259.602L264.645 281.956C266.804 285.199 265.362 287.727 261.417 287.605Z" fill="url(#paint5_linear_1324_3674)"/>
<g filter="url(#filter3_f_1324_3674)">
<path d="M171.908 202.299C177.489 204.335 178.773 211.648 174.22 215.463L135.77 247.683C131.217 251.498 124.242 248.954 123.214 243.104L114.536 193.695C113.508 187.844 119.199 183.075 124.78 185.111L171.908 202.299Z" fill="url(#paint6_radial_1324_3674)"/>
<path d="M171.908 202.299C177.489 204.335 178.773 211.648 174.22 215.463L135.77 247.683C131.217 251.498 124.242 248.954 123.214 243.104L114.536 193.695C113.508 187.844 119.199 183.075 124.78 185.111L171.908 202.299Z" stroke="#8CFF00" stroke-width="1.92914"/>
</g>
<path d="M174.475 203.236C178.915 204.855 179.937 210.673 176.314 213.709L133.676 249.438C130.054 252.473 124.504 250.449 123.687 245.794L114.063 191.004C113.246 186.35 117.774 182.555 122.213 184.175L174.475 203.236Z" fill="url(#paint7_radial_1324_3674)" stroke="#F4FBFF" stroke-width="0.385827"/>
<defs>
<filter id="filter0_b_1324_3674" x="-7.67986" y="-7.95842" width="440.446" height="475.143" filterUnits="userSpaceOnUse" color-interpolation-filters="sRGB">
<feFlood flood-opacity="0" result="BackgroundImageFix"/>
<feGaussianBlur in="BackgroundImage" stdDeviation="6.19882"/>
<feComposite in2="SourceAlpha" operator="in" result="effect1_backgroundBlur_1324_3674"/>
<feBlend mode="normal" in="SourceGraphic" in2="effect1_backgroundBlur_1324_3674" result="shape"/>
</filter>
<filter id="filter1_bf_1324_3674" x="-54.171" y="-54.4495" width="533.429" height="568.125" filterUnits="userSpaceOnUse" color-interpolation-filters="sRGB">
<feFlood flood-opacity="0" result="BackgroundImageFix"/>
<feGaussianBlur in="BackgroundImage" stdDeviation="29.4444"/>
<feComposite in2="SourceAlpha" operator="in" result="effect1_backgroundBlur_1324_3674"/>
<feBlend mode="normal" in="SourceGraphic" in2="effect1_backgroundBlur_1324_3674" result="shape"/>
<feGaussianBlur stdDeviation="1.90596" result="effect2_foregroundBlur_1324_3674"/>
</filter>
<filter id="filter2_f_1324_3674" x="153.389" y="219.914" width="118.297" height="70.4965" filterUnits="userSpaceOnUse" color-interpolation-filters="sRGB">
<feFlood flood-opacity="0" result="BackgroundImageFix"/>
<feBlend mode="normal" in="SourceGraphic" in2="BackgroundImageFix" result="shape"/>
<feGaussianBlur stdDeviation="1.92392" result="effect1_foregroundBlur_1324_3674"/>
</filter>
<filter id="filter3_f_1324_3674" x="107.662" y="177.88" width="76.0731" height="78.3661" filterUnits="userSpaceOnUse" color-interpolation-filters="sRGB">
<feFlood flood-opacity="0" result="BackgroundImageFix"/>
<feBlend mode="normal" in="SourceGraphic" in2="BackgroundImageFix" result="shape"/>
<feGaussianBlur stdDeviation="2.8937" result="effect1_foregroundBlur_1324_3674"/>
</filter>
<linearGradient id="paint0_linear_1324_3674" x1="346.021" y1="8.55433" x2="326.366" y2="174.615" gradientUnits="userSpaceOnUse">
<stop stop-color="#F4FBFF"/>
<stop offset="1" stop-color="#093954" stop-opacity="0"/>
</linearGradient>
<linearGradient id="paint1_linear_1324_3674" x1="345.764" y1="316.792" x2="329.668" y2="466.821" gradientUnits="userSpaceOnUse">
<stop stop-color="#F4FBFF"/>
<stop offset="1" stop-color="#093954" stop-opacity="0"/>
</linearGradient>
<linearGradient id="paint2_linear_1324_3674" x1="345.764" y1="164.692" x2="326.949" y2="326.737" gradientUnits="userSpaceOnUse">
<stop stop-color="#F4FBFF"/>
<stop offset="1" stop-color="#093954" stop-opacity="0"/>
</linearGradient>
<linearGradient id="paint3_linear_1324_3674" x1="101.36" y1="4.91577" x2="212.544" y2="454.31" gradientUnits="userSpaceOnUse">
<stop stop-color="#093954"/>
<stop offset="1" stop-color="#C4C4C4" stop-opacity="0"/>
</linearGradient>
<linearGradient id="paint4_linear_1324_3674" x1="233.359" y1="285.036" x2="167.516" y2="230.053" gradientUnits="userSpaceOnUse">
<stop stop-color="#F4FBFF"/>
<stop offset="1" stop-color="#83DDDD" stop-opacity="0.92"/>
</linearGradient>
<linearGradient id="paint5_linear_1324_3674" x1="263.848" y1="220.068" x2="193.225" y2="298.907" gradientUnits="userSpaceOnUse">
<stop stop-color="#141F45"/>
<stop offset="1" stop-color="#054F77"/>
</linearGradient>
<radialGradient id="paint6_radial_1324_3674" cx="0" cy="0" r="1" gradientUnits="userSpaceOnUse" gradientTransform="translate(181.78 246.678) rotate(-163.318) scale(104.024)">
<stop stop-color="#054F77"/>
<stop offset="1" stop-color="#141F45"/>
</radialGradient>
<radialGradient id="paint7_radial_1324_3674" cx="0" cy="0" r="1" gradientUnits="userSpaceOnUse" gradientTransform="translate(181.78 246.678) rotate(-163.318) scale(104.024)">
<stop stop-color="#054F77"/>
<stop offset="1" stop-color="#8CFF00"/>
</radialGradient>
</defs>
</svg>
