<svg width="485" height="485" viewBox="0 0 485 485" fill="none" xmlns="http://www.w3.org/2000/svg">
<g filter="url(#filter0_b_1324_3671)">
<rect x="100.518" y="0.940918" width="383.635" height="383.635" rx="18.5964" fill="white" fill-opacity="0.2"/>
<rect x="100.518" y="0.940918" width="383.635" height="383.635" rx="18.5964" fill="url(#paint0_linear_1324_3671)" fill-opacity="0.6"/>
</g>
<g filter="url(#filter1_b_1324_3671)">
<rect x="48.0464" y="46.8352" width="383.635" height="383.635" rx="18.5964" fill="white" fill-opacity="0.3"/>
<rect x="48.0464" y="46.8352" width="383.635" height="383.635" rx="18.5964" fill="url(#paint1_linear_1324_3671)" fill-opacity="0.6"/>
</g>
<g filter="url(#filter2_b_1324_3671)">
<rect x="0.532227" y="101.308" width="383.635" height="383.635" rx="18.5964" fill="white" fill-opacity="0.3"/>
<rect x="0.532227" y="101.308" width="383.635" height="383.635" rx="18.5964" fill="url(#paint2_linear_1324_3671)" fill-opacity="0.6"/>
</g>
<path d="M97.9946 299.99V296.448C97.9946 294.632 98.9208 293.18 100.773 292.09L136.84 270.788C137.821 270.134 138.801 269.807 139.782 269.807C140.944 269.807 141.98 270.261 142.888 271.169C143.832 272.077 144.304 273.185 144.304 274.492C144.304 276.199 143.632 277.452 142.288 278.252L108.564 298.192L142.288 318.078C143.632 318.949 144.304 320.239 144.304 321.946C144.304 323.254 143.832 324.361 142.888 325.269C141.98 326.177 140.944 326.631 139.782 326.631C138.874 326.631 137.893 326.304 136.84 325.651L100.773 304.348C98.9208 303.331 97.9946 301.878 97.9946 299.99Z" fill="#F4FBFF"/>
<path d="M289.271 296.448V299.99C289.271 301.842 288.382 303.295 286.602 304.348L250.535 325.651C249.482 326.304 248.483 326.631 247.538 326.631C246.376 326.631 245.323 326.196 244.378 325.324C243.47 324.452 243.016 323.344 243.016 322C243.016 320.257 243.707 318.986 245.087 318.187L278.756 298.192L245.087 278.361C243.707 277.489 243.016 276.181 243.016 274.438C243.016 273.094 243.47 271.986 244.378 271.114C245.323 270.243 246.376 269.807 247.538 269.807C248.446 269.807 249.445 270.134 250.535 270.788L286.602 292.09C288.382 293.143 289.271 294.596 289.271 296.448Z" fill="#F4FBFF"/>
<defs>
<filter id="filter0_b_1324_3671" x="88.1204" y="-11.4567" width="408.43" height="408.43" filterUnits="userSpaceOnUse" color-interpolation-filters="sRGB">
<feFlood flood-opacity="0" result="BackgroundImageFix"/>
<feGaussianBlur in="BackgroundImage" stdDeviation="6.19882"/>
<feComposite in2="SourceAlpha" operator="in" result="effect1_backgroundBlur_1324_3671"/>
<feBlend mode="normal" in="SourceGraphic" in2="effect1_backgroundBlur_1324_3671" result="shape"/>
</filter>
<filter id="filter1_b_1324_3671" x="35.6488" y="34.4376" width="408.43" height="408.43" filterUnits="userSpaceOnUse" color-interpolation-filters="sRGB">
<feFlood flood-opacity="0" result="BackgroundImageFix"/>
<feGaussianBlur in="BackgroundImage" stdDeviation="6.19882"/>
<feComposite in2="SourceAlpha" operator="in" result="effect1_backgroundBlur_1324_3671"/>
<feBlend mode="normal" in="SourceGraphic" in2="effect1_backgroundBlur_1324_3671" result="shape"/>
</filter>
<filter id="filter2_b_1324_3671" x="-11.8654" y="88.9107" width="408.43" height="408.43" filterUnits="userSpaceOnUse" color-interpolation-filters="sRGB">
<feFlood flood-opacity="0" result="BackgroundImageFix"/>
<feGaussianBlur in="BackgroundImage" stdDeviation="6.19882"/>
<feComposite in2="SourceAlpha" operator="in" result="effect1_backgroundBlur_1324_3671"/>
<feBlend mode="normal" in="SourceGraphic" in2="effect1_backgroundBlur_1324_3671" result="shape"/>
</filter>
<linearGradient id="paint0_linear_1324_3671" x1="100.518" y1="-109.621" x2="285.252" y2="387.209" gradientUnits="userSpaceOnUse">
<stop stop-color="#8CFF00"/>
<stop offset="1" stop-color="#093954" stop-opacity="0"/>
</linearGradient>
<linearGradient id="paint1_linear_1324_3671" x1="48.0464" y1="-62.8641" x2="232.793" y2="433.104" gradientUnits="userSpaceOnUse">
<stop stop-color="#8CFF00"/>
<stop offset="1" stop-color="#093954" stop-opacity="0"/>
</linearGradient>
<linearGradient id="paint2_linear_1324_3671" x1="68.7998" y1="110.243" x2="186.984" y2="486.628" gradientUnits="userSpaceOnUse">
<stop stop-color="#8CFF00"/>
<stop offset="1" stop-color="#093954" stop-opacity="0"/>
</linearGradient>
</defs>
</svg>
