<svg width="134" height="146" viewBox="0 0 134 146" fill="none" xmlns="http://www.w3.org/2000/svg">
<path d="M11.9131 1.12256L0.615723 50.7954L11.9133 99.7514L0.795161 145.479H123.274L132.958 100.469L121.84 51.8716L133.496 1.12256H11.9131Z" fill="#054F77"/>
<path opacity="0.5" d="M133.917 0.804199H11.6061L0.194839 51.2098H122.617L133.917 0.804199Z" fill="url(#paint0_linear_2442_4159)"/>
<path opacity="0.5" d="M133.696 100.371H11.9393L0.749631 145.798H123.836L133.696 100.371Z" fill="url(#paint1_linear_2442_4159)"/>
<path opacity="0.5" d="M122.617 51.21H0.195312L11.9393 100.371H133.696L122.617 51.21Z" fill="url(#paint2_linear_2442_4159)"/>
<path d="M11.9131 1.12256L0.615723 50.7954L11.9133 99.7514L0.795161 145.479H123.274L132.958 100.469L121.84 51.8716L133.496 1.12256H11.9131Z" stroke="#8CFF00" stroke-width="0.5"/>
<g filter="url(#filter0_f_2442_4159)">
<path d="M71.4747 82.2462L63.8213 71.8567C63.4015 71.2868 62.5463 71.2973 62.1406 71.8772L49.6717 89.7009C49.195 90.3824 49.6765 91.3193 50.5081 91.3284L84.1199 91.6979C84.957 91.7071 85.4579 90.77 84.9851 90.0791L78.3095 80.3228C77.9983 79.8681 77.3854 79.737 76.9155 80.0247L72.8478 82.5149C72.3897 82.7953 71.7932 82.6786 71.4747 82.2462Z" fill="url(#paint3_linear_2442_4159)"/>
</g>
<path d="M85.6612 57.6295L53.0082 56.6168C50.3762 56.5351 48.1708 58.5663 48.0907 61.1496L47.1783 90.569C47.0982 93.1493 49.1736 95.311 51.8056 95.3926L84.4585 96.4053C87.0905 96.4869 89.2936 94.4579 89.3736 91.8777L90.286 62.4582C90.3663 59.8749 88.2932 57.7111 85.6612 57.6295ZM75.3057 64.2763C77.851 64.3552 79.8525 66.443 79.7751 68.9381C79.6977 71.4332 77.5706 73.3929 75.0254 73.3139C72.4794 73.235 70.4786 71.1472 70.556 68.6521C70.6334 66.1571 72.7597 64.1973 75.3057 64.2763ZM83.096 92.0342L68.2647 91.5742L54.0941 91.1347C52.821 91.0952 52.2821 90.1747 52.8905 89.0785L61.2777 73.9634C61.8855 72.8673 62.981 72.8018 63.7239 73.8168L71.3624 84.2543C72.1053 85.2695 73.4549 85.3958 74.3774 84.5355L76.3833 82.6641C77.3051 81.8038 78.6192 81.9546 79.3174 82.9993L84.1376 90.2118C84.8343 91.258 84.3691 92.0737 83.096 92.0342Z" fill="url(#paint4_linear_2442_4159)"/>
<g filter="url(#filter1_f_2442_4159)">
<path d="M54.2163 64.5108C56.0168 65.1675 56.4313 67.5271 54.9623 68.7581L42.5567 79.1535C41.0877 80.3845 38.837 79.5636 38.5054 77.6759L35.7055 61.7346C35.374 59.847 37.2102 58.3083 39.0107 58.965L54.2163 64.5108Z" fill="url(#paint5_radial_2442_4159)"/>
<path d="M54.2163 64.5108C56.0168 65.1675 56.4313 67.5271 54.9623 68.7581L42.5567 79.1535C41.0877 80.3845 38.837 79.5636 38.5054 77.6759L35.7055 61.7346C35.374 59.847 37.2102 58.3083 39.0107 58.965L54.2163 64.5108Z" stroke="#8CFF00" stroke-width="0.622421"/>
</g>
<path d="M55.0443 64.8128C56.4769 65.3353 56.8066 67.2126 55.6378 68.1919L41.8811 79.7196C40.7123 80.699 38.9217 80.0459 38.6579 78.5441L35.553 60.8665C35.2892 59.3647 36.7502 58.1405 38.1827 58.663L55.0443 64.8128Z" fill="url(#paint6_radial_2442_4159)" stroke="#F4FBFF" stroke-width="0.124484"/>
<defs>
<filter id="filter0_f_2442_4159" x="48.2419" y="70.1941" width="38.167" height="22.7452" filterUnits="userSpaceOnUse" color-interpolation-filters="sRGB">
<feFlood flood-opacity="0" result="BackgroundImageFix"/>
<feBlend mode="normal" in="SourceGraphic" in2="BackgroundImageFix" result="shape"/>
<feGaussianBlur stdDeviation="0.620738" result="effect1_foregroundBlur_2442_4159"/>
</filter>
<filter id="filter1_f_2442_4159" x="33.4877" y="56.6318" width="24.5446" height="25.2843" filterUnits="userSpaceOnUse" color-interpolation-filters="sRGB">
<feFlood flood-opacity="0" result="BackgroundImageFix"/>
<feBlend mode="normal" in="SourceGraphic" in2="BackgroundImageFix" result="shape"/>
<feGaussianBlur stdDeviation="0.933632" result="effect1_foregroundBlur_2442_4159"/>
</filter>
<linearGradient id="paint0_linear_2442_4159" x1="19.9348" y1="53.8685" x2="147.393" y2="-3.73725" gradientUnits="userSpaceOnUse">
<stop stop-color="white"/>
<stop offset="1" stop-color="white" stop-opacity="0"/>
</linearGradient>
<linearGradient id="paint1_linear_2442_4159" x1="20.3751" y1="148.194" x2="142.597" y2="87.2569" gradientUnits="userSpaceOnUse">
<stop stop-color="white"/>
<stop offset="1" stop-color="white" stop-opacity="0"/>
</linearGradient>
<linearGradient id="paint2_linear_2442_4159" x1="20.3751" y1="102.964" x2="146.259" y2="44.9678" gradientUnits="userSpaceOnUse">
<stop stop-color="white"/>
<stop offset="1" stop-color="white" stop-opacity="0"/>
</linearGradient>
<linearGradient id="paint3_linear_2442_4159" x1="74.0434" y1="91.2056" x2="52.7998" y2="73.4656" gradientUnits="userSpaceOnUse">
<stop stop-color="#F4FBFF"/>
<stop offset="1" stop-color="#83DDDD" stop-opacity="0.92"/>
</linearGradient>
<linearGradient id="paint4_linear_2442_4159" x1="83.8806" y1="70.2439" x2="61.0945" y2="95.6807" gradientUnits="userSpaceOnUse">
<stop stop-color="#141F45"/>
<stop offset="1" stop-color="#054F77"/>
</linearGradient>
<radialGradient id="paint5_radial_2442_4159" cx="0" cy="0" r="1" gradientUnits="userSpaceOnUse" gradientTransform="translate(57.4015 78.8291) rotate(-163.318) scale(33.5625)">
<stop stop-color="#054F77"/>
<stop offset="1" stop-color="#141F45"/>
</radialGradient>
<radialGradient id="paint6_radial_2442_4159" cx="0" cy="0" r="1" gradientUnits="userSpaceOnUse" gradientTransform="translate(57.4015 78.8291) rotate(-163.318) scale(33.5625)">
<stop stop-color="#054F77"/>
<stop offset="1" stop-color="#8CFF00"/>
</radialGradient>
</defs>
</svg>
