<svg width="517" height="477" viewBox="0 0 517 477" fill="none" xmlns="http://www.w3.org/2000/svg">
<g opacity="0.8">
<line x1="61.7534" y1="270.527" x2="61.7534" y2="171.384" stroke="#F4FBFF" stroke-width="1.76655"/>
<line x1="460.902" y1="270.527" x2="460.902" y2="171.384" stroke="#F4FBFF" stroke-width="1.76655"/>
<line x1="260.491" y1="365.255" x2="260.491" y2="58.6753" stroke="#F4FBFF" stroke-width="1.76655"/>
<path d="M200.928 408.785L95.5903 347.553" stroke="#F4FBFF" stroke-width="1.76655"/>
<path d="M431.747 346.883L317.667 408.783" stroke="#F4FBFF" stroke-width="1.76655"/>
<path d="M200.906 51.7342L77.7469 108.435" stroke="#F4FBFF" stroke-width="1.76655"/>
<path d="M438.301 110.043L317.694 51.5208" stroke="#F4FBFF" stroke-width="1.76655"/>
<path d="M118.628 360.403L118.628 297.732C118.628 296.098 117.647 294.627 116.152 293.974L61.4318 270.523L61.4318 335.89L118.628 360.403ZM61.4318 335.89L0.150488 360.403L0.150493 297.732C0.149782 296.932 0.384021 296.149 0.82414 295.481C1.26426 294.813 1.89089 294.289 2.62626 293.974L61.4318 270.523L61.4318 335.89Z" fill="white"/>
<path d="M118.628 360.403L118.628 297.732C118.628 296.098 117.647 294.627 116.152 293.974L61.4318 270.523L61.4318 335.89L118.628 360.403ZM61.4318 335.89L0.150488 360.403L0.150493 297.732C0.149782 296.932 0.384021 296.149 0.82414 295.481C1.26426 294.813 1.89089 294.289 2.62626 293.974L61.4318 270.523L61.4318 335.89Z" fill="url(#paint0_linear_1324_3672)" fill-opacity="0.6"/>
<path d="M118.628 296.55V359.22C118.628 360.854 117.647 362.325 116.152 362.979L61.4318 386.429V321.062L118.628 296.55ZM61.4318 321.062L0.150488 296.55V359.22C0.149776 360.02 0.384015 360.803 0.824134 361.471C1.26425 362.139 1.89088 362.664 2.62626 362.979L61.4318 386.429V321.062Z" fill="white" fill-opacity="0.2"/>
<path d="M118.628 296.55V359.22C118.628 360.854 117.647 362.325 116.152 362.979L61.4318 386.429V321.062L118.628 296.55ZM61.4318 321.062L0.150488 296.55V359.22C0.149776 360.02 0.384015 360.803 0.824134 361.471C1.26425 362.139 1.89088 362.664 2.62626 362.979L61.4318 386.429V321.062Z" fill="url(#paint1_linear_1324_3672)" fill-opacity="0.5"/>
<path d="M118.628 181.001L118.628 118.331C118.628 116.697 117.647 115.226 116.152 114.573L61.4318 91.1222L61.4318 156.489L118.628 181.001ZM61.4318 156.489L0.150488 181.001L0.150493 118.331C0.149782 117.531 0.384021 116.748 0.82414 116.08C1.26426 115.412 1.89089 114.888 2.62626 114.572L61.4318 91.1222L61.4318 156.489Z" fill="white"/>
<path d="M118.628 181.001L118.628 118.331C118.628 116.697 117.647 115.226 116.152 114.573L61.4318 91.1222L61.4318 156.489L118.628 181.001ZM61.4318 156.489L0.150488 181.001L0.150493 118.331C0.149782 117.531 0.384021 116.748 0.82414 116.08C1.26426 115.412 1.89089 114.888 2.62626 114.572L61.4318 91.1222L61.4318 156.489Z" fill="url(#paint2_linear_1324_3672)" fill-opacity="0.6"/>
<path d="M118.628 117.149V179.819C118.628 181.453 117.647 182.924 116.152 183.578L61.4318 207.028V141.661L118.628 117.149ZM61.4318 141.661L0.150488 117.149V179.819C0.149776 180.619 0.384015 181.402 0.824134 182.07C1.26425 182.738 1.89088 183.262 2.62626 183.578L61.4318 207.028V141.661Z" fill="white" fill-opacity="0.2"/>
<path d="M118.628 117.149V179.819C118.628 181.453 117.647 182.924 116.152 183.578L61.4318 207.028V141.661L118.628 117.149ZM61.4318 141.661L0.150488 117.149V179.819C0.149776 180.619 0.384015 181.402 0.824134 182.07C1.26425 182.738 1.89088 183.262 2.62626 183.578L61.4318 207.028V141.661Z" fill="url(#paint3_linear_1324_3672)" fill-opacity="0.5"/>
<path d="M516.738 360.403L516.738 297.732C516.738 296.098 515.758 294.627 514.263 293.974L459.542 270.523L459.542 335.89L516.738 360.403ZM459.542 335.89L398.261 360.403L398.261 297.732C398.26 296.932 398.495 296.149 398.935 295.481C399.375 294.813 400.001 294.289 400.737 293.974L459.542 270.523L459.542 335.89Z" fill="white"/>
<path d="M516.738 360.403L516.738 297.732C516.738 296.098 515.758 294.627 514.263 293.974L459.542 270.523L459.542 335.89L516.738 360.403ZM459.542 335.89L398.261 360.403L398.261 297.732C398.26 296.932 398.495 296.149 398.935 295.481C399.375 294.813 400.001 294.289 400.737 293.974L459.542 270.523L459.542 335.89Z" fill="url(#paint4_linear_1324_3672)" fill-opacity="0.6"/>
<path d="M516.738 296.55V359.22C516.738 360.854 515.758 362.325 514.263 362.979L459.542 386.429V321.062L516.738 296.55ZM459.542 321.062L398.261 296.55V359.22C398.26 360.02 398.495 360.803 398.935 361.471C399.375 362.139 400.001 362.664 400.737 362.979L459.542 386.429V321.062Z" fill="white" fill-opacity="0.2"/>
<path d="M516.738 296.55V359.22C516.738 360.854 515.758 362.325 514.263 362.979L459.542 386.429V321.062L516.738 296.55ZM459.542 321.062L398.261 296.55V359.22C398.26 360.02 398.495 360.803 398.935 361.471C399.375 362.139 400.001 362.664 400.737 362.979L459.542 386.429V321.062Z" fill="url(#paint5_linear_1324_3672)" fill-opacity="0.5"/>
<path d="M516.738 181.001L516.738 118.331C516.738 116.697 515.758 115.226 514.263 114.573L459.542 91.1222L459.542 156.489L516.738 181.001ZM459.542 156.489L398.261 181.001L398.261 118.331C398.26 117.531 398.495 116.748 398.935 116.08C399.375 115.412 400.001 114.888 400.737 114.572L459.542 91.1222L459.542 156.489Z" fill="white"/>
<path d="M516.738 181.001L516.738 118.331C516.738 116.697 515.758 115.226 514.263 114.573L459.542 91.1222L459.542 156.489L516.738 181.001ZM459.542 156.489L398.261 181.001L398.261 118.331C398.26 117.531 398.495 116.748 398.935 116.08C399.375 115.412 400.001 114.888 400.737 114.572L459.542 91.1222L459.542 156.489Z" fill="url(#paint6_linear_1324_3672)" fill-opacity="0.6"/>
<path d="M516.738 117.149V179.819C516.738 181.453 515.758 182.924 514.263 183.578L459.542 207.028V141.661L516.738 117.149ZM459.542 141.661L398.261 117.149V179.819C398.26 180.619 398.495 181.402 398.935 182.07C399.375 182.738 400.001 183.262 400.737 183.578L459.542 207.028V141.661Z" fill="white" fill-opacity="0.2"/>
<path d="M516.738 117.149V179.819C516.738 181.453 515.758 182.924 514.263 183.578L459.542 207.028V141.661L516.738 117.149ZM459.542 141.661L398.261 117.149V179.819C398.26 180.619 398.495 181.402 398.935 182.07C399.375 182.738 400.001 183.262 400.737 183.578L459.542 207.028V141.661Z" fill="url(#paint7_linear_1324_3672)" fill-opacity="0.5"/>
<path d="M317.68 270.525L317.68 207.855C317.68 206.221 316.699 204.75 315.204 204.096L260.484 180.646L260.484 246.013L317.68 270.525ZM260.484 246.013L199.202 270.525L199.202 207.855C199.202 207.055 199.436 206.272 199.876 205.604C200.316 204.936 200.943 204.412 201.678 204.096L260.484 180.646L260.484 246.013Z" fill="white"/>
<path d="M317.68 270.525L317.68 207.855C317.68 206.221 316.699 204.75 315.204 204.096L260.484 180.646L260.484 246.013L317.68 270.525ZM260.484 246.013L199.202 270.525L199.202 207.855C199.202 207.055 199.436 206.272 199.876 205.604C200.316 204.936 200.943 204.412 201.678 204.096L260.484 180.646L260.484 246.013Z" fill="url(#paint8_linear_1324_3672)" fill-opacity="0.6"/>
<path d="M317.68 206.673V269.343C317.68 270.977 316.699 272.448 315.204 273.102L260.484 296.552V231.185L317.68 206.673ZM260.484 231.185L199.202 206.673V269.343C199.202 270.143 199.436 270.926 199.876 271.594C200.316 272.262 200.943 272.786 201.678 273.102L260.484 296.552V231.185Z" fill="white" fill-opacity="0.2"/>
<path d="M317.68 206.673V269.343C317.68 270.977 316.699 272.448 315.204 273.102L260.484 296.552V231.185L317.68 206.673ZM260.484 231.185L199.202 206.673V269.343C199.202 270.143 199.436 270.926 199.876 271.594C200.316 272.262 200.943 272.786 201.678 273.102L260.484 296.552V231.185Z" fill="url(#paint9_linear_1324_3672)" fill-opacity="0.5"/>
<path d="M317.68 450.283L317.68 387.612C317.68 385.978 316.699 384.507 315.204 383.854L260.484 360.403L260.484 425.77L317.68 450.283ZM260.484 425.77L199.202 450.283L199.202 387.612C199.202 386.812 199.436 386.03 199.876 385.361C200.316 384.693 200.943 384.169 201.678 383.854L260.484 360.403L260.484 425.77Z" fill="white"/>
<path d="M317.68 450.283L317.68 387.612C317.68 385.978 316.699 384.507 315.204 383.854L260.484 360.403L260.484 425.77L317.68 450.283ZM260.484 425.77L199.202 450.283L199.202 387.612C199.202 386.812 199.436 386.03 199.876 385.361C200.316 384.693 200.943 384.169 201.678 383.854L260.484 360.403L260.484 425.77Z" fill="url(#paint10_linear_1324_3672)" fill-opacity="0.6"/>
<path d="M317.68 386.431V449.101C317.68 450.735 316.699 452.206 315.204 452.86L260.484 476.31V410.943L317.68 386.431ZM260.484 410.943L199.202 386.431V449.101C199.202 449.901 199.436 450.684 199.876 451.352C200.316 452.02 200.943 452.544 201.678 452.86L260.484 476.31V410.943Z" fill="white" fill-opacity="0.2"/>
<path d="M317.68 386.431V449.101C317.68 450.735 316.699 452.206 315.204 452.86L260.484 476.31V410.943L317.68 386.431ZM260.484 410.943L199.202 386.431V449.101C199.202 449.901 199.436 450.684 199.876 451.352C200.316 452.02 200.943 452.544 201.678 452.86L260.484 476.31V410.943Z" fill="url(#paint11_linear_1324_3672)" fill-opacity="0.5"/>
<path d="M317.68 90.7664L317.68 28.096C317.68 26.4618 316.699 24.9911 315.204 24.3374L260.484 0.887068L260.484 66.2538L317.68 90.7664ZM260.484 66.2538L199.202 90.7663L199.202 28.096C199.202 27.2959 199.436 26.5132 199.876 25.845C200.316 25.1769 200.943 24.6526 201.678 24.3374L260.484 0.887068L260.484 66.2538Z" fill="white"/>
<path d="M317.68 90.7664L317.68 28.096C317.68 26.4618 316.699 24.9911 315.204 24.3374L260.484 0.887068L260.484 66.2538L317.68 90.7664ZM260.484 66.2538L199.202 90.7663L199.202 28.096C199.202 27.2959 199.436 26.5132 199.876 25.845C200.316 25.1769 200.943 24.6526 201.678 24.3374L260.484 0.887068L260.484 66.2538Z" fill="url(#paint12_linear_1324_3672)" fill-opacity="0.6"/>
<path d="M317.68 26.9143V89.5847C317.68 91.2188 316.699 92.6896 315.204 93.3433L260.484 116.794V51.4268L317.68 26.9143ZM260.484 51.4268L199.202 26.9143V89.5847C199.202 90.3848 199.436 91.1675 199.876 91.8356C200.316 92.5038 200.943 93.028 201.678 93.3433L260.484 116.794V51.4268Z" fill="white" fill-opacity="0.2"/>
<path d="M317.68 26.9143V89.5847C317.68 91.2188 316.699 92.6896 315.204 93.3433L260.484 116.794V51.4268L317.68 26.9143ZM260.484 51.4268L199.202 26.9143V89.5847C199.202 90.3848 199.436 91.1675 199.876 91.8356C200.316 92.5038 200.943 93.028 201.678 93.3433L260.484 116.794V51.4268Z" fill="url(#paint13_linear_1324_3672)" fill-opacity="0.5"/>
</g>
<defs>
<linearGradient id="paint0_linear_1324_3672" x1="59.3891" y1="265.881" x2="59.3891" y2="315.463" gradientUnits="userSpaceOnUse">
<stop stop-color="#054F77"/>
<stop offset="1" stop-color="#8CFF00"/>
</linearGradient>
<linearGradient id="paint1_linear_1324_3672" x1="-20.4896" y1="341.489" x2="63.1876" y2="341.489" gradientUnits="userSpaceOnUse">
<stop stop-color="#8CFF00"/>
<stop offset="1" stop-color="#E7FFC9"/>
</linearGradient>
<linearGradient id="paint2_linear_1324_3672" x1="59.3891" y1="86.4798" x2="59.3891" y2="136.062" gradientUnits="userSpaceOnUse">
<stop stop-color="#054F77"/>
<stop offset="1" stop-color="#8CFF00"/>
</linearGradient>
<linearGradient id="paint3_linear_1324_3672" x1="-20.4896" y1="162.088" x2="63.1876" y2="162.088" gradientUnits="userSpaceOnUse">
<stop stop-color="#8CFF00"/>
<stop offset="1" stop-color="#E7FFC9"/>
</linearGradient>
<linearGradient id="paint4_linear_1324_3672" x1="457.5" y1="265.881" x2="457.5" y2="315.463" gradientUnits="userSpaceOnUse">
<stop stop-color="#054F77"/>
<stop offset="1" stop-color="#8CFF00"/>
</linearGradient>
<linearGradient id="paint5_linear_1324_3672" x1="377.621" y1="341.489" x2="461.298" y2="341.489" gradientUnits="userSpaceOnUse">
<stop stop-color="#8CFF00"/>
<stop offset="1" stop-color="#E7FFC9"/>
</linearGradient>
<linearGradient id="paint6_linear_1324_3672" x1="457.5" y1="86.4798" x2="457.5" y2="136.062" gradientUnits="userSpaceOnUse">
<stop stop-color="#054F77"/>
<stop offset="1" stop-color="#8CFF00"/>
</linearGradient>
<linearGradient id="paint7_linear_1324_3672" x1="377.621" y1="162.088" x2="461.298" y2="162.088" gradientUnits="userSpaceOnUse">
<stop stop-color="#8CFF00"/>
<stop offset="1" stop-color="#E7FFC9"/>
</linearGradient>
<linearGradient id="paint8_linear_1324_3672" x1="258.441" y1="176.004" x2="258.441" y2="225.586" gradientUnits="userSpaceOnUse">
<stop stop-color="#054F77"/>
<stop offset="1" stop-color="#8CFF00"/>
</linearGradient>
<linearGradient id="paint9_linear_1324_3672" x1="178.562" y1="251.612" x2="262.24" y2="251.612" gradientUnits="userSpaceOnUse">
<stop stop-color="#8CFF00"/>
<stop offset="1" stop-color="#E7FFC9"/>
</linearGradient>
<linearGradient id="paint10_linear_1324_3672" x1="258.441" y1="355.761" x2="258.441" y2="405.343" gradientUnits="userSpaceOnUse">
<stop stop-color="#054F77"/>
<stop offset="1" stop-color="#8CFF00"/>
</linearGradient>
<linearGradient id="paint11_linear_1324_3672" x1="178.562" y1="431.37" x2="262.24" y2="431.37" gradientUnits="userSpaceOnUse">
<stop stop-color="#8CFF00"/>
<stop offset="1" stop-color="#E7FFC9"/>
</linearGradient>
<linearGradient id="paint12_linear_1324_3672" x1="258.441" y1="-3.75532" x2="258.441" y2="45.8267" gradientUnits="userSpaceOnUse">
<stop stop-color="#054F77"/>
<stop offset="1" stop-color="#8CFF00"/>
</linearGradient>
<linearGradient id="paint13_linear_1324_3672" x1="178.562" y1="71.8539" x2="262.24" y2="71.8539" gradientUnits="userSpaceOnUse">
<stop stop-color="#8CFF00"/>
<stop offset="1" stop-color="#E7FFC9"/>
</linearGradient>
</defs>
</svg>
