<svg width="23" height="17" viewBox="0 0 23 17" fill="none" xmlns="http://www.w3.org/2000/svg">
<path d="M19.1852 1.42885C17.7549 0.78382 16.2218 0.30706 14.6185 0.035961C14.6043 0.03322 14.5895 0.0349864 14.5762 0.0410159C14.563 0.0470454 14.552 0.0570397 14.5447 0.0696147C14.3484 0.414565 14.1296 0.864215 13.9763 1.21945C12.276 0.965397 10.5473 0.965397 8.84694 1.21945C8.67618 0.825757 8.48362 0.441884 8.27015 0.0696147C8.26292 0.0568849 8.25197 0.0466645 8.23878 0.0403174C8.22558 0.0339703 8.21076 0.0317983 8.1963 0.0340913C6.59401 0.30519 5.0609 0.78195 3.62969 1.42791C3.61738 1.43308 3.60694 1.44189 3.59978 1.45315C0.690605 5.72997 -0.1068 9.90115 0.284891 14.02C0.285981 14.0301 0.289113 14.0398 0.294095 14.0487C0.299077 14.0575 0.305805 14.0652 0.313871 14.0714C2.01188 15.3076 3.90578 16.2494 5.91627 16.8572C5.93028 16.8615 5.94527 16.8615 5.95928 16.8571C5.97329 16.8528 5.98567 16.8443 5.99479 16.8329C6.42742 16.2543 6.8108 15.6404 7.14089 14.9978C7.14547 14.989 7.14811 14.9794 7.14863 14.9695C7.14915 14.9596 7.14754 14.9497 7.1439 14.9405C7.14027 14.9312 7.1347 14.9229 7.12756 14.916C7.12043 14.9092 7.1119 14.9039 7.10256 14.9006C6.49867 14.6732 5.91354 14.3987 5.35257 14.0798C5.34249 14.0741 5.334 14.0659 5.32785 14.056C5.3217 14.0462 5.3181 14.035 5.31736 14.0234C5.31662 14.0118 5.31876 14.0002 5.3236 13.9897C5.32844 13.9791 5.33583 13.97 5.34509 13.963C5.46288 13.876 5.58067 13.7853 5.69284 13.6947C5.70294 13.6865 5.71511 13.6813 5.72798 13.6797C5.74085 13.678 5.75393 13.68 5.76576 13.6853C9.43681 15.3343 13.4126 15.3343 17.0407 13.6853C17.0525 13.6797 17.0657 13.6774 17.0788 13.6789C17.0919 13.6804 17.1042 13.6855 17.1145 13.6937C17.2267 13.7853 17.3435 13.876 17.4623 13.963C17.4716 13.9698 17.4791 13.9789 17.4841 13.9893C17.4891 13.9998 17.4914 14.0113 17.4909 14.0229C17.4903 14.0345 17.4869 14.0457 17.4809 14.0557C17.475 14.0656 17.4666 14.0739 17.4567 14.0798C16.8976 14.4014 16.3162 14.6734 15.7057 14.8997C15.6964 14.9031 15.6878 14.9084 15.6807 14.9154C15.6735 14.9224 15.668 14.9308 15.6644 14.9401C15.6607 14.9493 15.6591 14.9593 15.6596 14.9693C15.6602 14.9792 15.6628 14.989 15.6674 14.9978C16.0039 15.64 16.3891 16.2514 16.8126 16.8319C16.8214 16.8438 16.8336 16.8528 16.8477 16.8574C16.8617 16.8621 16.8769 16.8624 16.8911 16.8581C18.905 16.252 20.802 15.3098 22.5019 14.0714C22.5102 14.0656 22.5172 14.0581 22.5223 14.0494C22.5275 14.0407 22.5307 14.031 22.5318 14.0209C22.9992 9.25893 21.7484 5.1214 19.2141 1.45502C19.2079 1.44311 19.1976 1.43382 19.1852 1.42885ZM7.68963 11.5119C6.58467 11.5119 5.67321 10.5125 5.67321 9.28697C5.67321 8.06049 6.56691 7.06209 7.68963 7.06209C8.82076 7.06209 9.7238 8.0689 9.70604 9.28697C9.70604 10.5135 8.81235 11.5119 7.68963 11.5119V11.5119ZM15.1448 11.5119C14.0389 11.5119 13.1284 10.5125 13.1284 9.28697C13.1284 8.06049 14.0212 7.06209 15.1448 7.06209C16.276 7.06209 17.179 8.0689 17.1613 9.28697C17.1613 10.5135 16.2769 11.5119 15.1448 11.5119V11.5119Z" fill="#F4FBFF"/>
</svg>
