<svg width="248" height="254" viewBox="0 0 248 254" fill="none" xmlns="http://www.w3.org/2000/svg">
<g filter="url(#filter0_i_1511_4833)">
<rect x="20.1263" y="0.119385" width="225.448" height="225.448" rx="112.724" transform="rotate(5.17242 20.1263 0.119385)" fill="#C4C4C4"/>
<rect x="20.1263" y="0.119385" width="225.448" height="225.448" rx="112.724" transform="rotate(5.17242 20.1263 0.119385)" fill="url(#paint0_radial_1511_4833)"/>
<rect x="20.1263" y="0.119385" width="225.448" height="225.448" rx="112.724" transform="rotate(5.17242 20.1263 0.119385)" fill="url(#paint1_radial_1511_4833)"/>
<rect x="20.1263" y="0.119385" width="225.448" height="225.448" rx="112.724" transform="rotate(5.17242 20.1263 0.119385)" fill="url(#paint2_radial_1511_4833)" fill-opacity="0.4"/>
<rect x="20.1263" y="0.119385" width="225.448" height="225.448" rx="112.724" transform="rotate(5.17242 20.1263 0.119385)" fill="url(#paint3_radial_1511_4833)" fill-opacity="0.5"/>
</g>
<g style="mix-blend-mode:multiply" opacity="0.8" filter="url(#filter1_if_1511_4833)">
<path d="M214.185 89.8466L205.389 85.6541L198.766 80.5779C195.566 78.107 188.845 72.7892 187.558 71.2857C186.271 69.7821 185.218 66.7763 184.853 65.4613L191.742 40.0318L195.396 40.3899L211.208 58.531L223.792 80.0462L214.185 89.8466Z" fill="#093954"/>
</g>
<g style="mix-blend-mode:multiply" opacity="0.6" filter="url(#filter2_if_1511_4833)">
<path d="M97.1365 101.769L91.134 109.446L84.7409 114.809C81.6342 117.396 74.9839 122.802 73.2369 123.732C71.4899 124.661 68.3272 125.036 66.9642 125.108L43.637 112.862L42.2511 101.831L57.9049 91.4549L71.0882 85.7062L87.4986 92.6073L97.1365 101.769Z" fill="#093954"/>
</g>
<g opacity="0.5" filter="url(#filter3_if_1511_4833)">
<path d="M207.356 188.057L182.415 211.732L160.462 223.078C153.011 224.337 128 229.622 123.509 229.714C119.018 229.805 78.9827 221.043 75.1043 220.346L45.0956 195.739L29.8211 174.372L69.9154 180.264L104.531 181.061L156.082 194.065L207.356 188.057Z" fill="#093954"/>
</g>
<defs>
<filter id="filter0_i_1511_4833" x="9.49768" y="9.81567" width="227.866" height="229.468" filterUnits="userSpaceOnUse" color-interpolation-filters="sRGB">
<feFlood flood-opacity="0" result="BackgroundImageFix"/>
<feBlend mode="normal" in="SourceGraphic" in2="BackgroundImageFix" result="shape"/>
<feColorMatrix in="SourceAlpha" type="matrix" values="0 0 0 0 0 0 0 0 0 0 0 0 0 0 0 0 0 0 127 0" result="hardAlpha"/>
<feOffset dx="2.40324" dy="4.00539"/>
<feGaussianBlur stdDeviation="6.80917"/>
<feComposite in2="hardAlpha" operator="arithmetic" k2="-1" k3="1"/>
<feColorMatrix type="matrix" values="0 0 0 0 0.956863 0 0 0 0 0.984314 0 0 0 0 1 0 0 0 0.5 0"/>
<feBlend mode="normal" in2="shape" result="effect1_innerShadow_1511_4833"/>
</filter>
<filter id="filter1_if_1511_4833" x="160.823" y="16.0015" width="86.9992" height="97.8754" filterUnits="userSpaceOnUse" color-interpolation-filters="sRGB">
<feFlood flood-opacity="0" result="BackgroundImageFix"/>
<feBlend mode="normal" in="SourceGraphic" in2="BackgroundImageFix" result="shape"/>
<feColorMatrix in="SourceAlpha" type="matrix" values="0 0 0 0 0 0 0 0 0 0 0 0 0 0 0 0 0 0 127 0" result="hardAlpha"/>
<feOffset dx="-30.0378" dy="-18.0227"/>
<feComposite in2="hardAlpha" operator="arithmetic" k2="-1" k3="1"/>
<feColorMatrix type="matrix" values="0 0 0 0 0 0 0 0 0 0 0 0 0 0 0 0 0 0 0.5 0"/>
<feBlend mode="normal" in2="shape" result="effect1_innerShadow_1511_4833"/>
<feGaussianBlur stdDeviation="12.0151" result="effect2_foregroundBlur_1511_4833"/>
</filter>
<filter id="filter2_if_1511_4833" x="18.2209" y="61.6758" width="102.946" height="87.4621" filterUnits="userSpaceOnUse" color-interpolation-filters="sRGB">
<feFlood flood-opacity="0" result="BackgroundImageFix"/>
<feBlend mode="normal" in="SourceGraphic" in2="BackgroundImageFix" result="shape"/>
<feColorMatrix in="SourceAlpha" type="matrix" values="0 0 0 0 0 0 0 0 0 0 0 0 0 0 0 0 0 0 127 0" result="hardAlpha"/>
<feOffset dx="-30.0378" dy="-18.0227"/>
<feComposite in2="hardAlpha" operator="arithmetic" k2="-1" k3="1"/>
<feColorMatrix type="matrix" values="0 0 0 0 0 0 0 0 0 0 0 0 0 0 0 0 0 0 0.5 0"/>
<feBlend mode="normal" in2="shape" result="effect1_innerShadow_1511_4833"/>
<feGaussianBlur stdDeviation="12.0151" result="effect2_foregroundBlur_1511_4833"/>
</filter>
<filter id="filter3_if_1511_4833" x="5.7908" y="150.342" width="225.595" height="103.403" filterUnits="userSpaceOnUse" color-interpolation-filters="sRGB">
<feFlood flood-opacity="0" result="BackgroundImageFix"/>
<feBlend mode="normal" in="SourceGraphic" in2="BackgroundImageFix" result="shape"/>
<feColorMatrix in="SourceAlpha" type="matrix" values="0 0 0 0 0 0 0 0 0 0 0 0 0 0 0 0 0 0 127 0" result="hardAlpha"/>
<feOffset dx="-30.0378" dy="-18.0227"/>
<feComposite in2="hardAlpha" operator="arithmetic" k2="-1" k3="1"/>
<feColorMatrix type="matrix" values="0 0 0 0 0 0 0 0 0 0 0 0 0 0 0 0 0 0 0.5 0"/>
<feBlend mode="normal" in2="shape" result="effect1_innerShadow_1511_4833"/>
<feGaussianBlur stdDeviation="12.0151" result="effect2_foregroundBlur_1511_4833"/>
</filter>
<radialGradient id="paint0_radial_1511_4833" cx="0" cy="0" r="1" gradientUnits="userSpaceOnUse" gradientTransform="translate(115.677 43.406) rotate(83.0538) scale(137.684)">
<stop stop-color="#054F77"/>
<stop offset="1" stop-color="#83DDDD" stop-opacity="0.92"/>
</radialGradient>
<radialGradient id="paint1_radial_1511_4833" cx="0" cy="0" r="1" gradientUnits="userSpaceOnUse" gradientTransform="translate(103.943 21.84) rotate(65.4517) scale(96.5691 161.789)">
<stop stop-color="#83DDDD" stop-opacity="0.92"/>
<stop offset="0.555208" stop-color="#054F77"/>
<stop offset="1" stop-color="#093954"/>
</radialGradient>
<radialGradient id="paint2_radial_1511_4833" cx="0" cy="0" r="1" gradientUnits="userSpaceOnUse" gradientTransform="translate(190.255 123.689) rotate(117.455) scale(79.455 58.8551)">
<stop stop-color="#052233"/>
<stop offset="1" stop-color="#052233" stop-opacity="0"/>
</radialGradient>
<radialGradient id="paint3_radial_1511_4833" cx="0" cy="0" r="1" gradientUnits="userSpaceOnUse" gradientTransform="translate(115.477 1.20315) rotate(75.303) scale(43.7407 85.6213)">
<stop stop-color="#8CFF00"/>
<stop offset="1" stop-color="#83DDDD" stop-opacity="0"/>
</radialGradient>
</defs>
</svg>
