<svg width="60" height="69" viewBox="0 0 60 69" fill="none" xmlns="http://www.w3.org/2000/svg">
<path opacity="1" d="M56.3889 13.0504C56.1248 12.6999 55.8426 12.3635 55.5435 12.0424C55.8444 11.2407 56.0729 10.4137 56.2263 9.57121C56.6793 6.48935 56.2859 3.34232 55.0882 0.466792C55.0882 0.466792 51.4465 -0.671259 43.0899 4.95397C39.5422 3.97439 35.8776 3.48214 32.1971 3.49076C28.5061 3.48429 24.8311 3.97647 21.2718 4.95397C12.9153 -0.736291 9.27352 0.466792 9.27352 0.466792C8.09021 3.31187 7.69702 6.42367 8.13547 9.47366C8.28976 10.3511 8.52935 11.2115 8.85082 12.0424C8.55818 12.3676 8.26554 12.7252 8.00541 13.0504C5.57903 16.0939 4.29104 19.8889 4.36364 23.7806C4.35593 24.7036 4.39935 25.6263 4.49371 26.5444C5.53421 40.9489 15.1264 44.298 24.2633 45.3386C22.9701 46.5411 22.0932 48.1241 21.7596 49.8582C21.4574 51.0148 21.3151 52.2073 21.3369 53.4025V57.662C17.6984 57.9872 13.9655 57.4572 12.808 54.2121C11.5654 51.1061 9.50462 48.3947 6.8446 46.366C6.65019 46.2608 6.46524 46.139 6.29183 46.0019C6.05825 45.388 5.64441 44.8592 5.1047 44.4848C4.56499 44.1105 3.92466 43.9083 3.26786 43.9046H3.2516C2.39204 43.9046 1.56744 44.2449 0.958121 44.8512C0.348797 45.4575 0.00432474 46.2804 2.69235e-05 47.1399C-0.00972781 49.7802 2.6338 51.4873 3.71658 52.0661C4.98162 53.3408 5.99923 54.8391 6.71779 56.485C7.90136 59.8113 11.3643 64.8675 21.2393 64.2107L21.2458 64.5294L21.2588 65.4008C21.2588 66.2632 21.6014 67.0902 22.2112 67.7C22.821 68.3098 23.648 68.6524 24.5104 68.6524H39.8383C40.7007 68.6524 41.5278 68.3098 42.1376 67.7C42.7473 67.0902 43.0899 66.2632 43.0899 65.4008C43.0899 65.4008 43.1159 55.1258 43.1159 53.4025C43.1376 52.2073 42.9954 51.0148 42.6932 49.8582L42.6867 49.8387L42.6997 49.8582C42.6705 49.7444 42.6282 49.6534 42.5957 49.5428C42.2334 47.9318 41.395 46.467 40.1895 45.3386L40.2285 45.4068L40.1635 45.3418C49.3004 44.3013 58.8276 40.8871 59.8681 26.5477C59.9624 25.6295 60.0058 24.7068 59.9981 23.7838C60.0558 19.8999 58.7821 16.1132 56.3889 13.0536V13.0504Z" fill="#F4FBFF"/>
</svg>
