<svg width="202" height="41" viewBox="0 0 202 41" fill="none" xmlns="http://www.w3.org/2000/svg">
<path d="M94.6752 17.6076C95.2732 17.6076 95.8148 17.807 96.2707 18.2344C96.6982 18.6903 96.8972 19.2031 96.8972 19.8299C96.8972 22.9069 95.8148 25.4995 93.6206 27.6649C91.4557 29.8301 88.8626 30.9413 85.7858 30.9413C82.7089 30.9413 80.1166 29.8586 77.951 27.6649C75.7853 25.4995 74.6743 22.9069 74.6743 19.8299C74.6743 16.7528 75.7575 14.1602 77.951 11.9949C80.1166 9.82958 82.7089 8.71851 85.7858 8.71851C88.4923 8.71851 90.857 9.5732 92.9085 11.3111C93.3644 11.71 93.6491 12.2228 93.7062 12.8212C93.7348 13.4479 93.5921 13.9608 93.1932 14.4451C92.7943 14.901 92.282 15.1574 91.6833 15.2143C91.0568 15.2714 90.5438 15.1004 90.0593 14.7015C88.8341 13.6758 87.4098 13.1345 85.7858 13.1345C83.9341 13.1345 82.3957 13.7898 81.0849 15.1004C79.7741 16.3825 79.119 17.9495 79.119 19.8014C79.119 21.6533 79.7741 23.1918 81.0849 24.5024C82.3672 25.813 83.9341 26.4682 85.7858 26.4682C87.2108 26.4682 88.5208 26.0694 89.6604 25.2431C90.8006 24.4169 91.5984 23.3627 92.0822 22.0522H87.6945C87.068 22.0522 86.555 21.8242 86.099 21.3969C85.6716 20.9695 85.4725 20.4567 85.4725 19.8299C85.4725 19.2031 85.6716 18.6903 86.099 18.2344C86.555 17.807 87.068 17.6076 87.6945 17.6076H94.6752Z" fill="white"/>
<path d="M111.171 30.9128C108.094 30.9128 105.501 29.8301 103.336 27.6364C101.171 25.471 100.06 22.8784 100.06 19.8014C100.06 16.7243 101.142 14.1317 103.336 11.9664C105.501 9.80109 108.094 8.68994 111.171 8.68994C114.248 8.68994 116.84 9.77262 119.006 11.9664C121.171 14.1317 122.282 16.7243 122.282 19.8014C122.282 22.8784 121.199 25.471 119.006 27.6364C116.84 29.8301 114.248 30.9128 111.171 30.9128ZM111.171 13.163C109.319 13.163 107.78 13.8183 106.47 15.1289C105.159 16.411 104.504 17.978 104.504 19.8299C104.504 21.6818 105.159 23.2203 106.47 24.5308C107.752 25.8414 109.319 26.4967 111.171 26.4967C113.023 26.4967 114.561 25.8414 115.872 24.5308C117.183 23.2487 117.838 21.6818 117.838 19.8299C117.838 17.978 117.183 16.4395 115.872 15.1289C114.561 13.8183 113.023 13.163 111.171 13.163Z" fill="white"/>
<path d="M125.587 13.163C124.96 13.163 124.447 12.9636 123.992 12.5362C123.565 12.0804 123.365 11.5676 123.365 10.9407C123.365 10.3139 123.565 9.80111 123.992 9.34529C124.447 8.91787 124.96 8.71851 125.587 8.71851H140.801C141.428 8.71851 141.941 8.91787 142.397 9.34529C142.824 9.80111 143.023 10.3139 143.023 10.9407C143.023 11.5676 142.824 12.0804 142.397 12.5362C141.941 12.9636 141.428 13.163 140.801 13.163H135.417V28.719C135.417 29.3458 135.217 29.8586 134.789 30.286C134.333 30.7418 133.821 30.9413 133.194 30.9413C132.567 30.9413 132.054 30.7134 131.627 30.286C131.171 29.8586 130.972 29.3458 130.972 28.719V13.163H125.587Z" fill="white"/>
<path d="M159.833 8.71851C161.685 8.71851 163.224 9.37376 164.534 10.6843C165.845 11.9664 166.5 13.5334 166.5 15.3853C166.5 16.7528 166.101 18.0065 165.332 19.1461C166.956 20.4852 167.782 22.1661 167.782 24.2459C167.782 26.0978 167.127 27.6363 165.817 28.9469C164.534 30.2575 162.967 30.9128 161.116 30.9128H149.691C149.064 30.9128 148.551 30.6848 148.124 30.2575C147.668 29.8301 147.468 29.3173 147.468 28.6905V10.9407C147.468 10.3139 147.697 9.80111 148.124 9.34529C148.551 8.91787 149.064 8.71851 149.691 8.71851H159.833ZM151.913 17.6076H159.833C160.46 17.6076 160.973 17.3797 161.4 16.9523C161.856 16.5249 162.055 16.0121 162.055 15.3853C162.055 14.7585 161.828 14.2457 161.4 13.8183C160.973 13.3625 160.46 13.163 159.833 13.163H151.913V17.6076ZM161.116 26.4967C161.742 26.4967 162.255 26.2688 162.683 25.8414C163.139 25.4141 163.338 24.9013 163.338 24.2744C163.338 23.6476 163.11 23.1348 162.683 22.7074C162.255 22.2516 161.742 22.0522 161.116 22.0522H151.913V26.4967H161.116Z" fill="white"/>
<path d="M176.33 30.9128C175.703 30.9128 175.19 30.7134 174.734 30.286C174.307 29.8301 174.108 29.3173 174.108 28.6905V10.9407C174.108 10.3139 174.307 9.80111 174.734 9.34529C175.19 8.91787 175.703 8.71851 176.33 8.71851C176.929 8.71851 177.469 8.91787 177.925 9.34529C178.353 9.80111 178.552 10.3139 178.552 10.9407V28.719C178.552 29.3458 178.353 29.8586 177.925 30.3145C177.469 30.7134 176.929 30.9128 176.33 30.9128Z" fill="white"/>
<path d="M184.564 13.163C183.936 13.163 183.423 12.9636 182.968 12.5362C182.541 12.0804 182.341 11.5676 182.341 10.9407C182.341 10.3139 182.541 9.80111 182.968 9.34529C183.423 8.91787 183.936 8.71851 184.564 8.71851H199.777C200.404 8.71851 200.917 8.91787 201.373 9.34529C201.8 9.80111 201.999 10.3139 201.999 10.9407C201.999 11.5676 201.8 12.0804 201.373 12.5362C200.917 12.9636 200.404 13.163 199.777 13.163H194.393V28.719C194.393 29.3458 194.193 29.8586 193.766 30.286C193.31 30.7418 192.797 30.9413 192.17 30.9413C191.544 30.9413 191.03 30.7134 190.603 30.286C190.147 29.8586 189.948 29.3458 189.948 28.719V13.163H184.564Z" fill="white"/>
<path d="M2.84908 22.7072C4.42258 22.7072 5.69816 21.4316 5.69816 19.8581C5.69816 18.2846 4.42258 17.009 2.84908 17.009C1.27558 17.009 0 18.2846 0 19.8581C0 21.4316 1.27558 22.7072 2.84908 22.7072Z" fill="white"/>
<path d="M22.622 34.2748C24.1955 34.2748 25.4711 32.9992 25.4711 31.4257C25.4711 29.8522 24.1955 28.5767 22.622 28.5767C21.0486 28.5767 19.7729 29.8522 19.7729 31.4257C19.7729 32.9992 21.0486 34.2748 22.622 34.2748Z" fill="white"/>
<path d="M63.563 17.7213C62.8508 17.066 62.2239 16.9805 61.6542 17.0375C61.5402 17.0375 61.4547 17.009 61.3408 17.009H31.0551C32.3656 10.5416 38.1207 5.66966 44.9586 5.66966C48.7194 5.66966 52.2807 7.1227 54.9588 9.77234C56.0414 10.855 57.8079 10.9405 58.9191 9.91476C60.1157 8.80369 60.1442 6.95175 59.0045 5.81212C55.2438 2.05134 50.2579 0 44.9586 0C40.2575 0 35.8985 1.65246 32.5081 4.41607C30.9411 5.61269 29.7729 5.66966 27.2943 5.66966H22.5363C20.9409 5.66966 19.6587 6.98024 19.6872 8.60425C19.7158 10.1427 21.0833 11.3393 22.6218 11.3393H26.9809H27.0093H30.1718L27.2943 11.8521C26.9524 11.9091 26.639 12.1371 26.525 12.479C26.1262 13.5047 25.8413 14.5873 25.5563 15.6699C25.2999 16.6101 23.8753 17.0375 21.824 17.0375H11.4819C9.91488 17.0375 8.57582 18.2341 8.51888 19.8011C8.46187 21.3966 9.77245 22.7356 11.368 22.7356H25.2999H29.2316L26.2971 23.22C25.7842 23.3055 25.4709 23.7898 25.5848 24.3026C27.6077 33.1348 35.4996 39.7731 44.9586 39.7731C55.5856 39.7731 64.3038 31.3683 64.8166 20.8553C64.8451 19.6586 64.4178 18.519 63.563 17.7213ZM44.9586 34.0465C38.0923 34.0465 32.3656 29.1746 31.0551 22.7071H58.862C57.523 29.1746 51.7964 34.0465 44.9586 34.0465Z" fill="white"/>
</svg>
