<svg width="152" height="152" viewBox="0 0 152 152" fill="none" xmlns="http://www.w3.org/2000/svg">
<path fill-rule="evenodd" clip-rule="evenodd" d="M68.1815 39.7585C68.3346 38.8228 69.2184 38.1881 70.1556 38.341C71.6709 38.5881 73.4333 39.2972 75.0651 40.2926C76.705 41.293 78.3348 42.6564 79.5111 44.3091C80.6931 45.97 81.4747 48.0135 81.1942 50.2761C80.9128 52.5457 79.6002 54.733 77.1965 56.7492C73.3297 59.9924 68.8255 62.9968 64.7114 65.7411C64.1036 66.1465 63.5043 66.5463 62.9168 66.9403C58.2369 70.079 54.462 72.7607 52.5947 75.1361C51.0571 77.0921 50.8374 80.8326 52.8353 83.8737C54.7126 86.7312 58.7174 89.1059 65.8377 87.7877C69.1748 87.1699 71.8629 85.2827 74.3205 82.6239C76.4578 80.3117 78.318 77.5365 80.2526 74.6503C80.5719 74.174 80.8932 73.6947 81.2181 73.214C85.6311 66.6837 90.8332 59.6125 100.292 60.6169C104.74 61.0892 107.717 62.6207 109.416 64.9905C111.094 67.3303 111.264 70.1281 110.908 72.5798C110.551 75.0433 109.632 77.3884 108.834 79.0781C108.432 79.9321 108.05 80.6396 107.767 81.1368C107.625 81.3858 107.507 81.583 107.424 81.7206C107.382 81.7894 107.348 81.8433 107.324 81.8815C107.312 81.9005 107.303 81.9157 107.296 81.9267L107.287 81.9402L107.283 81.9463C107.283 81.9469 107.282 81.9475 105.836 81.0194L107.282 81.9475C106.769 82.7451 105.705 82.9762 104.906 82.4636C104.108 81.9513 103.876 80.8901 104.389 80.0926C104.389 80.0926 104.389 80.0926 104.389 80.0926C104.389 80.0927 104.389 80.0928 104.389 80.0926C104.389 80.0925 104.389 80.0924 104.389 80.0923C104.389 80.0923 104.389 80.0923 104.389 80.0923M104.389 80.0913L104.392 80.0876C104.395 80.0824 104.401 80.0732 104.409 80.0601C104.419 80.0441 104.433 80.0224 104.45 79.9951C104.46 79.9779 104.472 79.9586 104.485 79.9372C104.553 79.8259 104.653 79.6576 104.777 79.4402C105.025 79.0046 105.365 78.3757 105.723 77.6149C106.45 76.0749 107.216 74.0771 107.505 72.0873C107.796 70.0858 107.574 68.32 106.62 66.989C105.687 65.6879 103.792 64.4412 99.9288 64.031C92.7652 63.2704 88.649 68.3567 84.0688 75.1343C83.7595 75.592 83.4482 76.0567 83.1342 76.5257C81.2113 79.3971 79.1828 82.4262 76.8477 84.9525C74.0987 87.9264 70.789 90.363 66.4646 91.1636C58.262 92.6821 52.7416 89.9912 49.9598 85.7568C47.2986 81.7061 47.2858 76.3285 49.8895 73.0163C52.1636 70.1234 56.4644 67.1316 60.9992 64.0902C61.5984 63.6884 62.2046 63.2839 62.8152 62.8765C66.9442 60.1214 71.2743 57.2322 74.9845 54.1203C76.9293 52.4891 77.6357 51.0292 77.7813 49.8543C77.9279 48.6722 77.5447 47.4737 76.7078 46.2979C75.8652 45.1139 74.6218 44.0457 73.2722 43.2225C71.9144 42.3943 70.5707 41.8876 69.6012 41.7295C68.664 41.5767 68.0284 40.6942 68.1815 39.7585" fill="#8CFF00"/>
<path fill-rule="evenodd" clip-rule="evenodd" d="M56.4191 47.9013C56.5076 46.9573 57.3458 46.2637 58.2912 46.352C63.5713 46.8451 66.9824 47.9462 69.219 50.0891C71.0655 51.8583 71.9069 54.1612 72.5484 56.6778L94.0026 53.3007C94.9406 53.153 95.8209 53.7925 95.9688 54.7291C96.1167 55.6656 95.4762 56.5445 94.5381 56.6922L71.5136 60.3165C70.6207 60.4571 69.7712 59.8834 69.5697 59.0036C68.8323 55.785 68.2206 53.8911 66.8379 52.5664C65.4696 51.2553 63.0492 50.2447 57.971 49.7705C57.0255 49.6822 56.3307 48.8453 56.4191 47.9013ZM58.5173 58.8298C60.6357 60.7075 61.1988 63.6648 61.5336 66.8915C61.6315 67.8346 60.9451 68.6783 60.0005 68.776C59.056 68.8737 58.2109 68.1884 58.113 67.2454C57.7683 63.923 57.241 62.2898 56.2343 61.3974C55.2486 60.5237 53.3316 59.9684 48.9667 60.3316C48.0203 60.4103 47.1893 59.7082 47.1104 58.7633C47.0315 57.8185 47.7348 56.9887 48.6811 56.91C53.135 56.5395 56.3779 56.9335 58.5173 58.8298Z" fill="#8CFF00"/>
<path d="M108.004 84.3844C108.004 86.7989 106.043 88.7563 103.625 88.7563C101.207 88.7563 99.2461 86.7989 99.2461 84.3844C99.2461 81.9698 101.207 80.0124 103.625 80.0124C106.043 80.0124 108.004 81.9698 108.004 84.3844Z" fill="#8CFF00"/>
<path d="M59.4003 47.9615C59.4003 49.5393 58.1192 50.8184 56.5389 50.8184C54.9586 50.8184 53.6775 49.5393 53.6775 47.9615C53.6775 46.3837 54.9586 45.1046 56.5389 45.1046C58.1192 45.1046 59.4003 46.3837 59.4003 47.9615Z" fill="#8CFF00"/>
<path d="M49.6005 58.9401C49.6005 60.518 48.3194 61.797 46.7391 61.797C45.1588 61.797 43.8777 60.518 43.8777 58.9401C43.8777 57.3623 45.1588 56.0833 46.7391 56.0833C48.3194 56.0833 49.6005 57.3623 49.6005 58.9401Z" fill="#8CFF00"/>
<path d="M70.6721 39.6221C70.6721 41.1999 69.391 42.4789 67.8106 42.4789C66.2303 42.4789 64.9492 41.1999 64.9492 39.6221C64.9492 38.0442 66.2303 36.7652 67.8106 36.7652C69.391 36.7652 70.6721 38.0442 70.6721 39.6221Z" fill="#8CFF00"/>
<path d="M98.5615 54.7072C98.5615 56.285 97.2804 57.564 95.7 57.564C94.1197 57.564 92.8386 56.285 92.8386 54.7072C92.8386 53.1293 94.1197 51.8503 95.7 51.8503C97.2804 51.8503 98.5615 53.1293 98.5615 54.7072Z" fill="#8CFF00"/>
<path d="M25.8265 114.885C25.3793 114.885 25.0598 114.735 24.8681 114.436C24.6765 114.137 24.6818 113.768 24.8841 113.33L28.9733 104.335C29.1437 103.972 29.346 103.71 29.5803 103.549C29.8145 103.378 30.0861 103.293 30.3949 103.293C30.7037 103.293 30.9753 103.378 31.2095 103.549C31.4438 103.71 31.6408 103.972 31.8005 104.335L35.9216 113.33C36.124 113.779 36.1293 114.153 35.9376 114.452C35.7566 114.741 35.4584 114.885 35.0431 114.885C34.6811 114.885 34.3989 114.799 34.1965 114.628C34.0048 114.457 33.8345 114.19 33.6854 113.827L33.0145 112.288H27.7593L27.1044 113.827C26.9447 114.201 26.7743 114.473 26.5933 114.644C26.4122 114.805 26.1567 114.885 25.8265 114.885ZM30.3629 106.083L28.5899 110.348H32.1999L30.3949 106.083H30.3629Z" fill="#8CFF00"/>
<path d="M40.6007 114.885C39.834 114.885 39.4506 114.484 39.4506 113.682V104.543C39.4506 104.137 39.5464 103.827 39.7381 103.613C39.9405 103.4 40.2067 103.293 40.5368 103.293C40.8137 103.293 41.032 103.352 41.1917 103.469C41.3514 103.576 41.5325 103.758 41.7348 104.014L46.9101 110.636V104.479C46.9101 103.688 47.2935 103.293 48.0602 103.293C48.8269 103.293 49.2103 103.688 49.2103 104.479V113.731C49.2103 114.083 49.1198 114.367 48.9387 114.58C48.7577 114.783 48.5128 114.885 48.204 114.885C47.9058 114.885 47.6662 114.826 47.4852 114.709C47.3148 114.591 47.1284 114.404 46.9261 114.147L41.7508 107.526V113.682C41.7508 114.484 41.3674 114.885 40.6007 114.885Z" fill="#8CFF00"/>
<path d="M53.7136 114.885C53.2664 114.885 52.9469 114.735 52.7552 114.436C52.5635 114.137 52.5689 113.768 52.7712 113.33L56.8603 104.335C57.0307 103.972 57.233 103.71 57.4673 103.549C57.7016 103.378 57.9731 103.293 58.282 103.293C58.5908 103.293 58.8623 103.378 59.0966 103.549C59.3309 103.71 59.5279 103.972 59.6876 104.335L63.8087 113.33C64.011 113.779 64.0164 114.153 63.8247 114.452C63.6436 114.741 63.3455 114.885 62.9302 114.885C62.5681 114.885 62.2859 114.799 62.0836 114.628C61.8919 114.457 61.7215 114.19 61.5724 113.827L60.9016 112.288H55.6464L54.9915 113.827C54.8317 114.201 54.6614 114.473 54.4803 114.644C54.2993 114.805 54.0437 114.885 53.7136 114.885ZM58.25 106.083L56.477 110.348H60.0869L58.282 106.083H58.25Z" fill="#8CFF00"/>
<path d="M72.6472 114.917C71.3799 114.917 70.3044 114.677 69.4206 114.196C68.5473 113.715 67.8818 113.041 67.4239 112.175C66.966 111.31 66.737 110.294 66.737 109.129C66.737 107.932 66.9713 106.895 67.4399 106.018C67.9191 105.142 68.6059 104.463 69.5004 103.982C70.3949 103.501 71.4705 103.261 72.727 103.261C73.3021 103.261 73.8771 103.325 74.4521 103.453C75.0272 103.581 75.5809 103.795 76.1134 104.094C76.4009 104.255 76.5713 104.469 76.6245 104.736C76.6884 105.003 76.6618 105.265 76.5446 105.521C76.4275 105.767 76.2465 105.949 76.0015 106.067C75.7673 106.173 75.4851 106.147 75.155 105.986C74.4415 105.612 73.6375 105.425 72.743 105.425C71.6036 105.425 70.7463 105.746 70.1713 106.387C69.6069 107.018 69.3247 107.932 69.3247 109.129C69.3247 110.337 69.6122 111.251 70.1873 111.871C70.773 112.491 71.6355 112.801 72.7749 112.801C73.3819 112.801 74.0209 112.704 74.6917 112.512V110.299H73.2541C72.5939 110.299 72.2638 110 72.2638 109.402C72.2638 108.803 72.5939 108.504 73.2541 108.504H75.7619C76.4115 108.504 76.7363 108.835 76.7363 109.498V113.218C76.7363 113.495 76.6777 113.731 76.5606 113.923C76.4541 114.115 76.2784 114.254 76.0335 114.34C75.5543 114.511 75.0165 114.65 74.4202 114.757C73.8239 114.864 73.2328 114.917 72.6472 114.917Z" fill="#8CFF00"/>
<path d="M86.0677 114.917C84.9602 114.917 83.9858 114.677 83.1446 114.196C82.314 113.704 81.6644 113.025 81.1958 112.159C80.7379 111.283 80.509 110.257 80.509 109.081C80.509 107.905 80.7379 106.884 81.1958 106.018C81.6644 105.142 82.314 104.463 83.1446 103.982C83.9752 103.501 84.9496 103.261 86.0677 103.261C87.1858 103.261 88.1602 103.501 88.9908 103.982C89.832 104.463 90.4816 105.142 90.9395 106.018C91.4081 106.884 91.6424 107.9 91.6424 109.065C91.6424 110.241 91.4081 111.267 90.9395 112.143C90.4816 113.02 89.832 113.704 88.9908 114.196C88.1602 114.677 87.1858 114.917 86.0677 114.917ZM86.0677 112.801C87.0048 112.801 87.7342 112.475 88.256 111.823C88.7885 111.16 89.0547 110.246 89.0547 109.081C89.0547 107.905 88.7938 106.997 88.272 106.355C87.7502 105.703 87.0154 105.377 86.0677 105.377C85.1412 105.377 84.4118 105.703 83.8793 106.355C83.3576 106.997 83.0967 107.905 83.0967 109.081C83.0967 110.246 83.3576 111.16 83.8793 111.823C84.4118 112.475 85.1412 112.801 86.0677 112.801Z" fill="#8CFF00"/>
<path d="M96.7362 114.741C96.3209 114.741 96.0068 114.634 95.7938 114.42C95.5808 114.196 95.4743 113.88 95.4743 113.474V104.672C95.4743 104.266 95.5808 103.956 95.7938 103.742C96.0068 103.517 96.3156 103.405 96.7202 103.405C97.5402 103.405 97.9502 103.827 97.9502 104.672V112.64H102.231C102.944 112.64 103.301 112.988 103.301 113.682C103.301 114.388 102.944 114.741 102.231 114.741H96.7362Z" fill="#8CFF00"/>
<path d="M106.68 114.885C106.233 114.885 105.913 114.735 105.722 114.436C105.53 114.137 105.535 113.768 105.738 113.33L109.827 104.335C109.997 103.972 110.199 103.71 110.434 103.549C110.668 103.378 110.939 103.293 111.248 103.293C111.557 103.293 111.829 103.378 112.063 103.549C112.297 103.71 112.494 103.972 112.654 104.335L116.775 113.33C116.977 113.779 116.983 114.153 116.791 114.452C116.61 114.741 116.312 114.885 115.896 114.885C115.534 114.885 115.252 114.799 115.05 114.628C114.858 114.457 114.688 114.19 114.539 113.827L113.868 112.288H108.613L107.958 113.827C107.798 114.201 107.628 114.473 107.447 114.644C107.266 114.805 107.01 114.885 106.68 114.885ZM111.216 106.083L109.443 110.348H113.053L111.248 106.083H111.216Z" fill="#8CFF00"/>
<path d="M123.172 114.885C122.768 114.885 122.459 114.773 122.246 114.548C122.033 114.324 121.926 114.003 121.926 113.586V109.642L118.668 104.992C118.519 104.768 118.455 104.527 118.476 104.271C118.497 104.004 118.604 103.774 118.796 103.581C118.987 103.389 119.259 103.293 119.61 103.293C120.111 103.293 120.542 103.56 120.904 104.094L123.204 107.429L125.504 104.094C125.707 103.806 125.904 103.603 126.095 103.485C126.298 103.357 126.532 103.293 126.798 103.293C127.139 103.293 127.4 103.384 127.581 103.565C127.773 103.736 127.874 103.956 127.884 104.223C127.906 104.479 127.821 104.747 127.629 105.024L124.402 109.658V113.586C124.402 114.452 123.992 114.885 123.172 114.885Z" fill="#8CFF00"/>
</svg>
