<svg width="47" height="48" viewBox="0 0 47 48" fill="none" xmlns="http://www.w3.org/2000/svg">
<path d="M26.5238 20.6267C24.9197 19.0233 22.7445 18.1226 20.4764 18.1226C18.2084 18.1226 16.0332 19.0233 14.4291 20.6267L8.3798 26.674C6.77569 28.2782 5.87451 30.4538 5.87451 32.7224C5.87451 34.9909 6.77569 37.1666 8.3798 38.7707C9.98392 40.3748 12.1596 41.276 14.4281 41.276C16.6967 41.276 18.8723 40.3748 20.4764 38.7707L23.5001 35.747" stroke="#8CFF00" stroke-width="4" stroke-linecap="round" stroke-linejoin="round"/>
<path d="M20.4766 26.6742C22.0806 28.2776 24.2558 29.1783 26.5239 29.1783C28.7919 29.1783 30.9671 28.2776 32.5712 26.6742L38.6205 20.6268C40.2246 19.0227 41.1258 16.8471 41.1258 14.5785C41.1258 12.3099 40.2246 10.1343 38.6205 8.53019C37.0164 6.92608 34.8408 6.0249 32.5722 6.0249C30.3036 6.0249 28.128 6.92608 26.5239 8.53019L23.5002 11.5539" stroke="#8CFF00" stroke-width="4" stroke-linecap="round" stroke-linejoin="round"/>
</svg>
