<svg width="50" height="61" viewBox="0 0 50 61" fill="none" xmlns="http://www.w3.org/2000/svg">
<path d="M46.8311 7.98257C44.1815 4.13282 40.1598 1.44231 35.5902 0.462519C31.0206 -0.517275 26.2493 0.287857 22.2543 2.71289L8.21685 11.6368C6.31974 12.8251 4.69396 14.3994 3.4452 16.2574C2.19643 18.1153 1.35264 20.2152 0.968684 22.4206C0.286462 26.1269 0.87698 29.955 2.64438 33.2835C1.43679 35.0986 0.625494 37.148 0.263426 39.2979C-0.133913 41.5398 -0.0813057 43.8384 0.418184 46.0598C0.917674 48.2812 1.85407 50.381 3.17285 52.237C5.82894 56.0777 9.84643 58.7644 14.4104 59.7521C18.9745 60.7397 23.7433 59.9545 27.7497 57.5556L41.7965 48.6223C43.6868 47.4293 45.306 45.8532 46.5496 43.9957C47.7932 42.1383 48.6336 40.0408 49.0165 37.8385C49.6907 34.1439 49.0969 30.3299 47.3314 27.0151C49.156 24.1547 50.0833 20.8139 49.9941 17.4223C49.905 14.0307 48.8034 10.7432 46.8311 7.98257ZM20.8532 53.0119C18.6481 53.5854 16.3201 53.4673 14.1844 52.6738C12.0486 51.8802 10.2083 50.4495 8.91271 48.5753C7.28591 46.3223 6.68974 43.5407 7.15991 40.778L7.43449 39.4465L7.68838 38.6227L8.44254 39.123C10.0943 40.3597 11.9514 41.295 13.9285 41.8857L14.4382 42.0625L14.3799 42.5628C14.331 43.2586 14.536 44.041 14.9384 44.6391C15.7622 45.8239 17.1915 46.3919 18.5719 46.0195C18.8747 45.9217 19.17 45.8239 19.4239 45.6659L33.4124 36.742C34.1177 36.2907 34.569 35.6155 34.7439 34.8125C34.8902 33.9906 34.7108 33.1441 34.2437 32.4522C33.8431 31.8896 33.2817 31.4613 32.6332 31.2237C31.9847 30.986 31.2795 30.9501 30.6102 31.1207C30.3074 31.2279 29.9839 31.3464 29.7282 31.5025L24.4378 34.8614C22.0234 36.2969 19.1545 36.7637 16.4095 36.1676C13.6646 35.5714 11.2477 33.9568 9.64618 31.6491C8.84601 30.5333 8.27764 29.2684 7.97464 27.9291C7.67165 26.5898 7.64018 25.2034 7.88209 23.8518C8.12504 22.5134 8.64653 21.2411 9.41276 20.1171C10.179 18.9932 11.1728 18.0429 12.3299 17.3277L26.2884 8.40385C27.1807 7.85813 28.143 7.43613 29.1489 7.14943C31.3521 6.57789 33.6776 6.6949 35.8123 7.48471C37.9471 8.27452 39.7887 9.69924 41.0894 11.5672C42.017 12.873 42.6288 14.3763 42.8769 15.9587C43.1249 17.5412 43.0023 19.1596 42.5187 20.6866L42.2648 21.5198L41.5408 21.0195C39.8694 19.7978 38.0057 18.8641 36.0266 18.2568L35.5263 18.1101L35.5752 17.6098C35.6218 16.8658 35.4258 16.1266 35.0167 15.5034C34.6224 14.9337 34.0616 14.4998 33.4111 14.2615C32.7605 14.0231 32.0522 13.9918 31.3832 14.1719C31.086 14.255 30.7999 14.3737 30.5312 14.5255L16.5144 23.5265C15.8092 23.9966 15.3578 24.653 15.2111 25.4748C15.0644 26.2779 15.26 27.1599 15.7114 27.8069C16.5144 28.9917 17.9739 29.492 19.3261 29.1384C19.6316 29.0604 19.9251 28.9415 20.1987 28.7849L25.5474 25.3752C26.4248 24.8034 27.3871 24.3737 28.3985 24.1019C30.6034 23.5237 32.933 23.6395 35.0698 24.4334C37.2066 25.2273 39.0466 26.6608 40.339 28.5385C41.1386 29.6494 41.7097 30.908 42.019 32.2414C42.3282 33.5747 42.3696 34.9562 42.1407 36.3057C41.909 37.6405 41.3985 38.9114 40.6425 40.0356C39.8865 41.1598 38.9019 42.1119 37.7531 42.8298L23.7645 51.733C22.8546 52.2829 21.8764 52.711 20.8551 53.0062L20.8532 53.0119Z" fill="#F4FBFF"/>
</svg>
