<svg width="49" height="50" viewBox="0 0 49 50" fill="none" xmlns="http://www.w3.org/2000/svg">
<g clip-path="url(#clip0_996_1053)">
<path d="M0 25.1113V49.6113H49V0.611328H0V25.1113ZM39.4848 23.1575C40.6595 23.434 41.7271 24.0495 42.555 24.9276C43.0021 25.4053 43.6712 26.2827 43.7279 26.4986C43.7432 26.563 41.6148 27.9901 40.3224 28.7879C40.2749 28.82 40.0835 28.621 39.8753 28.3086C39.2459 27.3914 38.5829 26.9932 37.5707 26.9213C36.087 26.8248 35.1299 27.5996 35.1376 28.8996C35.1298 29.2178 35.2008 29.5328 35.3443 29.8169C35.672 30.4952 36.286 30.901 38.1833 31.7233C41.6929 33.23 43.192 34.2269 44.1245 35.6387C45.1688 37.2174 45.4 39.7378 44.6987 41.6197C43.9178 43.6532 41.9869 45.0405 39.275 45.4953C38.4374 45.6469 36.4438 45.6224 35.5418 45.4555C33.5727 45.1049 31.7061 44.131 30.5576 42.8555C30.1028 42.3609 29.2254 41.0608 29.2821 40.9735C29.3066 40.9414 29.5057 40.8143 29.7292 40.6857L31.5483 39.6322L32.9602 38.8114L33.2557 39.2494C33.6707 39.8787 34.571 40.7408 35.1146 41.0271C36.678 41.8571 38.8233 41.7376 39.8845 40.7883C40.3148 40.43 40.5552 39.8787 40.523 39.3213C40.523 38.7548 40.451 38.5006 40.1555 38.0764C39.7727 37.5344 38.9994 37.0719 36.7898 36.1149C34.2617 35.0216 33.1684 34.3524 32.1808 33.276C31.559 32.5674 31.0992 31.7319 30.8333 30.8275C30.6495 30.1338 30.602 28.3943 30.746 27.7007C31.2651 25.2522 33.1148 23.554 35.77 23.0518C36.6321 22.8849 38.6411 22.9477 39.4863 23.1559L39.4848 23.1575ZM27.9851 25.2078L28.0004 27.2091H21.6197V45.3376H17.1056V27.2091H10.7341V25.2476C10.7341 24.1543 10.7586 23.2463 10.7892 23.2218C10.8137 23.1896 14.6893 23.1743 19.3948 23.182L27.9606 23.2065L27.9851 25.2078Z" fill="#F4FBFF"/>
</g>
<defs>
<clipPath id="clip0_996_1053">
<rect width="49" height="49" fill="white" transform="translate(0 0.611328)"/>
</clipPath>
</defs>
</svg>
