<svg width="36" height="42" viewBox="0 0 36 42" fill="none" xmlns="http://www.w3.org/2000/svg">
<path d="M18 1.91748L1.5 11.444V30.4972L18 40.0237L34.5 30.4972V11.444L18 1.91748ZM16.2963 4.21179H16.2979C16.7894 4.57462 17.3843 4.77039 17.9952 4.77039C18.6062 4.77039 19.201 4.57462 19.6926 4.21179L31.6547 11.1185C31.6307 11.3312 31.6307 11.5458 31.6547 11.7584L19.691 18.6652C19.1996 18.3027 18.605 18.1072 17.9944 18.1072C17.3838 18.1072 16.7893 18.3027 16.2979 18.6652L4.33256 11.7584C4.35646 11.5463 4.35646 11.3322 4.33256 11.1201L16.2963 4.21179ZM32.8043 13.6669C32.9773 13.7939 33.1631 13.9003 33.3584 13.986V27.7996C32.7983 28.0438 32.3312 28.4612 32.0258 28.9905C31.7203 29.5197 31.5925 30.1329 31.6611 30.7401L19.6973 37.6468C19.525 37.5206 19.3392 37.4141 19.1432 37.3293L19.1289 23.5904C19.689 23.3464 20.1562 22.9294 20.462 22.4005C20.7677 21.8716 20.8959 21.2586 20.8278 20.6515L32.8043 13.6669ZM3.19573 13.7431L15.1595 20.6499C15.0909 21.2571 15.2187 21.8703 15.5242 22.3995C15.8296 22.9287 16.2967 23.3461 16.8568 23.5904V37.4039C16.6599 37.4897 16.4757 37.5976 16.3027 37.7246L4.33891 30.8179C4.40752 30.2107 4.27971 29.5975 3.97424 29.0683C3.66876 28.539 3.2017 28.1216 2.6416 27.8774V14.0638C2.83799 13.9775 3.02434 13.87 3.19732 13.7431H3.19573Z" fill="#8CFF00" stroke="#8CFF00" stroke-width="2" stroke-linejoin="round"/>
</svg>
