<svg width="50" height="31" viewBox="0 0 50 31" fill="none" xmlns="http://www.w3.org/2000/svg">
<path d="M41.25 9.55255C39.3751 8.90682 37.7202 7.74577 36.475 6.20255C35.1026 4.48313 33.3551 3.10039 31.3663 2.1601C29.3774 1.21982 27.1997 0.74691 25 0.777546C22.0409 0.567985 19.1115 1.48066 16.795 3.33381C14.4786 5.18697 12.9451 7.84463 12.5 10.7775C13.3767 9.31066 14.6961 8.15971 16.2685 7.49034C17.8408 6.82097 19.585 6.66769 21.25 7.05255C23.1217 7.71707 24.774 8.88487 26.025 10.4275C27.4049 12.1332 29.1557 13.5017 31.1442 14.4288C33.1326 15.3559 35.3064 15.8171 37.5 15.7775C40.4591 15.9871 43.3885 15.0744 45.705 13.2213C48.0214 11.3681 49.5549 8.71046 50 5.77755C49.1392 7.26198 47.824 8.43031 46.2484 9.11005C44.6729 9.78979 42.9205 9.94493 41.25 9.55255ZM8.75 22.0025C10.6249 22.6483 12.2798 23.8093 13.525 25.3525C14.8974 27.072 16.6449 28.4547 18.6337 29.395C20.6226 30.3353 22.8003 30.8082 25 30.7775C27.9591 30.9871 30.8885 30.0744 33.205 28.2213C35.5214 26.3681 37.0549 23.7105 37.5 20.7775C36.6233 22.2444 35.3039 23.3954 33.7315 24.0648C32.1592 24.7341 30.415 24.8874 28.75 24.5025C26.8783 23.838 25.226 22.6702 23.975 21.1275C22.5914 19.4261 20.8399 18.0606 18.8523 17.1339C16.8647 16.2073 14.6928 15.7435 12.5 15.7775C9.54091 15.568 6.61146 16.4807 4.29501 18.3338C1.97857 20.187 0.445105 22.8446 0 25.7775C0.860767 24.2931 2.17602 23.1248 3.75158 22.445C5.32715 21.7653 7.07952 21.6102 8.75 22.0025Z" fill="#F4FBFF"/>
</svg>
