<svg width="217" height="54" viewBox="0 0 217 54" fill="none" xmlns="http://www.w3.org/2000/svg">
<path d="M82.6421 38.5075C82.0549 38.5075 81.6355 38.3117 81.3838 37.9203C81.1322 37.5288 81.1392 37.0465 81.4048 36.4732L86.7735 24.7083C86.9972 24.233 87.2628 23.8904 87.5704 23.6807C87.878 23.457 88.2345 23.3452 88.6399 23.3452C89.0454 23.3452 89.4019 23.457 89.7095 23.6807C90.017 23.8904 90.2757 24.233 90.4854 24.7083L95.896 36.4732C96.1617 37.0604 96.1686 37.5498 95.917 37.9412C95.6793 38.3187 95.2878 38.5075 94.7426 38.5075C94.2672 38.5075 93.8967 38.3956 93.6311 38.1719C93.3795 37.9482 93.1558 37.5987 92.96 37.1233L92.0792 35.1101H85.1797L84.3198 37.1233C84.1101 37.6127 83.8864 37.9692 83.6487 38.1929C83.4111 38.4026 83.0755 38.5075 82.6421 38.5075ZM88.598 26.9942L86.2702 32.5726H91.0097L88.6399 26.9942H88.598Z" fill="#054F77"/>
<path d="M102.039 38.5075C101.033 38.5075 100.529 37.9832 100.529 36.9346V24.9809C100.529 24.4497 100.655 24.0442 100.907 23.7646C101.172 23.485 101.522 23.3452 101.955 23.3452C102.319 23.3452 102.605 23.4221 102.815 23.5759C103.025 23.7157 103.262 23.9533 103.528 24.2889L110.323 32.95V24.897C110.323 23.8625 110.826 23.3452 111.833 23.3452C112.839 23.3452 113.343 23.8625 113.343 24.897V36.9975C113.343 37.4589 113.224 37.8294 112.986 38.109C112.749 38.3746 112.427 38.5075 112.022 38.5075C111.63 38.5075 111.315 38.4306 111.078 38.2768C110.854 38.123 110.609 37.8783 110.344 37.5428L103.549 28.8816V36.9346C103.549 37.9832 103.046 38.5075 102.039 38.5075Z" fill="#054F77"/>
<path d="M119.255 38.5075C118.668 38.5075 118.249 38.3117 117.997 37.9203C117.745 37.5288 117.752 37.0465 118.018 36.4732L123.387 24.7083C123.61 24.233 123.876 23.8904 124.183 23.6807C124.491 23.457 124.848 23.3452 125.253 23.3452C125.658 23.3452 126.015 23.457 126.322 23.6807C126.63 23.8904 126.889 24.233 127.098 24.7083L132.509 36.4732C132.775 37.0604 132.782 37.5498 132.53 37.9412C132.292 38.3187 131.901 38.5075 131.356 38.5075C130.88 38.5075 130.51 38.3956 130.244 38.1719C129.992 37.9482 129.769 37.5987 129.573 37.1233L128.692 35.1101H121.793L120.933 37.1233C120.723 37.6127 120.499 37.9692 120.262 38.1929C120.024 38.4026 119.689 38.5075 119.255 38.5075ZM125.211 26.9942L122.883 32.5726H127.623L125.253 26.9942H125.211Z" fill="#054F77"/>
<path d="M144.113 38.5494C142.449 38.5494 141.037 38.2348 139.877 37.6057C138.73 36.9765 137.857 36.0957 137.255 34.9633C136.654 33.8308 136.354 32.5027 136.354 30.9787C136.354 29.4129 136.661 28.0567 137.276 26.9103C137.906 25.7639 138.807 24.8761 139.982 24.2469C141.156 23.6178 142.568 23.3032 144.218 23.3032C144.973 23.3032 145.728 23.3871 146.483 23.5549C147.238 23.7226 147.965 24.0023 148.664 24.3937C149.041 24.6034 149.265 24.8831 149.335 25.2326C149.419 25.5821 149.384 25.9246 149.23 26.2602C149.076 26.5817 148.839 26.8194 148.517 26.9732C148.209 27.113 147.839 27.0781 147.406 26.8684C146.469 26.379 145.413 26.1344 144.239 26.1344C142.743 26.1344 141.617 26.5538 140.863 27.3926C140.122 28.2175 139.751 29.4129 139.751 30.9787C139.751 32.5586 140.129 33.7539 140.883 34.5648C141.652 35.3757 142.785 35.7812 144.281 35.7812C145.078 35.7812 145.917 35.6554 146.797 35.4037V32.5096H144.91C144.043 32.5096 143.61 32.1182 143.61 31.3353C143.61 30.5523 144.043 30.1609 144.91 30.1609H148.202C149.055 30.1609 149.482 30.5943 149.482 31.4611V36.3264C149.482 36.6899 149.405 36.9975 149.251 37.2492C149.111 37.5008 148.881 37.6826 148.559 37.7944C147.93 38.0181 147.224 38.1999 146.441 38.3397C145.658 38.4795 144.882 38.5494 144.113 38.5494Z" fill="#054F77"/>
<path d="M161.733 38.5494C160.279 38.5494 159 38.2348 157.895 37.6057C156.805 36.9626 155.952 36.0748 155.337 34.9423C154.736 33.7959 154.435 32.4537 154.435 30.9158C154.435 29.3779 154.736 28.0427 155.337 26.9103C155.952 25.7639 156.805 24.8761 157.895 24.2469C158.986 23.6178 160.265 23.3032 161.733 23.3032C163.201 23.3032 164.48 23.6178 165.571 24.2469C166.675 24.8761 167.528 25.7639 168.129 26.9103C168.744 28.0427 169.052 29.3709 169.052 30.8949C169.052 32.4328 168.744 33.7749 168.129 34.9214C167.528 36.0678 166.675 36.9626 165.571 37.6057C164.48 38.2348 163.201 38.5494 161.733 38.5494ZM161.733 35.7812C162.963 35.7812 163.921 35.3548 164.606 34.5019C165.305 33.6351 165.655 32.4397 165.655 30.9158C165.655 29.3779 165.312 28.1895 164.627 27.3507C163.942 26.4979 162.977 26.0714 161.733 26.0714C160.517 26.0714 159.559 26.4979 158.86 27.3507C158.175 28.1895 157.832 29.3779 157.832 30.9158C157.832 32.4397 158.175 33.6351 158.86 34.5019C159.559 35.3548 160.517 35.7812 161.733 35.7812Z" fill="#054F77"/>
<path d="M175.74 38.3187C175.194 38.3187 174.782 38.1789 174.502 37.8993C174.223 37.6057 174.083 37.1933 174.083 36.662V25.1487C174.083 24.6174 174.223 24.212 174.502 23.9324C174.782 23.6388 175.187 23.492 175.719 23.492C176.795 23.492 177.334 24.0442 177.334 25.1487V35.5715H182.954C183.891 35.5715 184.359 36.0258 184.359 36.9346C184.359 37.8573 183.891 38.3187 182.954 38.3187H175.74Z" fill="#054F77"/>
<path d="M188.795 38.5075C188.208 38.5075 187.788 38.3117 187.537 37.9203C187.285 37.5288 187.292 37.0465 187.558 36.4732L192.926 24.7083C193.15 24.233 193.416 23.8904 193.723 23.6807C194.031 23.457 194.387 23.3452 194.793 23.3452C195.198 23.3452 195.555 23.457 195.862 23.6807C196.17 23.8904 196.428 24.233 196.638 24.7083L202.049 36.4732C202.314 37.0604 202.321 37.5498 202.07 37.9412C201.832 38.3187 201.441 38.5075 200.895 38.5075C200.42 38.5075 200.049 38.3956 199.784 38.1719C199.532 37.9482 199.308 37.5987 199.113 37.1233L198.232 35.1101H191.332L190.473 37.1233C190.263 37.6127 190.039 37.9692 189.801 38.1929C189.564 38.4026 189.228 38.5075 188.795 38.5075ZM194.751 26.9942L192.423 32.5726H197.162L194.793 26.9942H194.751Z" fill="#054F77"/>
<path d="M210.448 38.5075C209.916 38.5075 209.511 38.3607 209.231 38.0671C208.952 37.7735 208.812 37.354 208.812 36.8088V31.6498L204.534 25.5681C204.338 25.2745 204.254 24.96 204.282 24.6244C204.31 24.2749 204.45 23.9743 204.702 23.7226C204.953 23.471 205.31 23.3452 205.771 23.3452C206.428 23.3452 206.994 23.6947 207.47 24.3937L210.49 28.7558L213.51 24.3937C213.775 24.0162 214.034 23.7506 214.286 23.5968C214.551 23.4291 214.859 23.3452 215.208 23.3452C215.656 23.3452 215.998 23.464 216.236 23.7017C216.488 23.9254 216.62 24.212 216.634 24.5615C216.662 24.897 216.55 25.2466 216.299 25.6101L212.063 31.6708V36.8088C212.063 37.9412 211.524 38.5075 210.448 38.5075Z" fill="#054F77"/>
<path fill-rule="evenodd" clip-rule="evenodd" d="M23.9639 0.458862C24.8925 0.458862 25.7141 0.916604 26.2156 1.61875C27.5515 1.92096 29.0393 2.55482 30.4291 3.40393C32.0138 4.37213 33.5886 5.69167 34.7253 7.29129C35.8676 8.89879 36.6228 10.8766 36.3517 13.0664C36.2333 14.0226 35.9262 14.9637 35.4254 15.8827L32.9647 13.1372C33.0055 12.9726 33.0347 12.8129 33.0538 12.6582C33.1955 11.5141 32.8252 10.3542 32.0165 9.21611C31.2022 8.07018 30.0007 7.0364 28.6966 6.2396C27.773 5.67532 26.8562 5.26528 26.0674 5.01856C26.006 5.09051 25.9409 5.15927 25.8725 5.22455C25.3762 5.69813 24.704 5.98894 23.9639 5.98894C22.4368 5.98894 21.1988 4.75099 21.1988 3.2239C21.1988 1.69681 22.4368 0.458862 23.9639 0.458862ZM32.9646 13.1376L25.8725 5.22455L32.9647 13.1372L32.9646 13.1376ZM35.4253 15.883L32.9646 13.1376C32.7051 14.183 31.9747 15.4232 30.3512 16.7871C29.5509 17.4594 28.7207 18.121 27.8694 18.7729C27.2637 16.5279 26.4444 14.4811 24.7799 12.8839C22.6964 10.8844 19.5579 9.822 14.7633 9.3206C14.2622 8.61578 13.4389 8.15598 12.5083 8.15598C10.9812 8.15598 9.74323 9.39393 9.74323 10.921C9.74323 12.4481 10.9812 13.6861 12.5083 13.6861C13.3801 13.6861 14.1576 13.2826 14.6644 12.6522C19.0613 13.1382 21.2264 14.0794 22.4791 15.2815C23.7257 16.4778 24.3238 18.1537 24.977 20.903C22.8727 22.4008 20.705 23.8495 18.5919 25.2617L18.5919 25.2618L18.5901 25.2629C18.0405 25.6303 17.4945 25.9951 16.9542 26.3578C16.5522 24.3592 15.8553 22.6012 14.4387 21.3436C12.3713 19.5082 9.23766 19.1269 4.93384 19.4855C4.89302 19.4889 4.85266 19.4937 4.81281 19.5C4.34576 19.1393 3.76015 18.9248 3.12441 18.9248C1.59732 18.9248 0.359375 20.1628 0.359375 21.6898C0.359375 23.2169 1.59732 24.4549 3.12441 24.4549C4.2716 24.4549 5.25562 23.7562 5.67421 22.7612C9.56524 22.4863 11.3158 23.0147 12.2326 23.8286C13.0913 24.591 13.589 25.912 13.923 28.4227C10.6779 30.683 7.80282 32.908 6.10156 35.0756C3.58552 38.2813 3.59789 43.4861 6.16945 47.4066C8.85759 51.5048 14.192 54.1093 22.1183 52.6395C26.297 51.8647 29.4953 49.5064 32.1516 46.6281C34.4081 44.1831 36.3683 41.2513 38.2264 38.4722L38.2267 38.4717L38.2309 38.4655C38.5328 38.0139 38.8321 37.5663 39.1295 37.1255C41.5828 33.4895 43.8983 30.3564 46.6539 28.4112L58.7651 41.9242L58.7649 41.9244C58.7537 41.9419 58.7428 41.9596 58.7323 41.9774C56.4911 42.0848 54.707 43.936 54.707 46.2038C54.707 48.5407 56.6015 50.4352 58.9384 50.4352C61.2753 50.4352 63.1698 48.5407 63.1698 46.2038C63.1698 45.0158 62.6802 43.9421 61.8918 43.1736L61.9161 43.1318L61.9564 43.062C61.9798 43.0214 62.0041 42.9791 62.0291 42.9351C62.3026 42.4539 62.6716 41.7691 63.061 40.9425C63.8313 39.3072 64.7196 37.0374 65.0651 34.6532C65.4091 32.2803 65.2441 29.5724 63.623 27.3078C61.9812 25.0142 59.1049 23.5319 54.8067 23.0748C50.5751 22.6248 47.2251 23.8499 44.4243 25.9226L39.8005 20.7639L48.5009 19.3922C48.9931 19.8442 49.6496 20.1201 50.3705 20.1201C51.8976 20.1201 53.1355 18.8821 53.1355 17.355C53.1355 15.8279 51.8976 14.59 50.3705 14.59C49.2858 14.59 48.3469 15.2146 47.894 16.1238L37.1586 17.8164L35.4254 15.8827L35.4253 15.883ZM35.4253 15.883L37.1581 17.8164L33.5145 18.3909C34.3225 17.5781 34.9581 16.7402 35.4253 15.883ZM46.6545 28.4108L46.6539 28.4112L44.4238 25.923L44.4243 25.9226L46.6545 28.4108ZM46.6545 28.4108C48.8701 26.847 51.3702 26.0511 54.4553 26.3792C58.1885 26.7762 60.0195 27.9828 60.9209 29.2421C61.8431 30.5303 62.0573 32.2393 61.7765 34.1765C61.4973 36.1024 60.7569 38.0359 60.0548 39.5264C59.7079 40.2627 59.3797 40.8714 59.1401 41.293C59.0205 41.5035 58.9235 41.6663 58.858 41.774L58.8238 41.83C58.8075 41.8565 58.7944 41.8775 58.7847 41.893L58.768 41.9196L58.7657 41.9232L46.6545 28.4108ZM44.4238 25.923C41.1749 28.3276 38.6649 31.8727 36.3748 35.2669C36.0618 35.7309 35.7522 36.1934 35.4446 36.653L35.4419 36.6571C33.5725 39.4505 31.7749 42.1365 29.7096 44.3744C27.3347 46.9477 24.7372 48.7742 21.5125 49.3722C14.6321 50.648 10.7621 48.3496 8.94809 45.584C7.01745 42.6406 7.22979 39.0204 8.71562 37.1273C10.1703 35.2739 12.8228 33.2279 16.1657 30.9128C16.5147 30.8115 16.8122 30.6006 17.0233 30.3231C17.5637 29.9539 18.1199 29.5779 18.69 29.195C19.2555 28.8151 19.8323 28.4297 20.4174 28.0388L20.4188 28.0379L20.4223 28.0356L20.4242 28.0343L20.4242 28.0343L20.4242 28.0343L20.4243 28.0342L20.4244 28.0342L20.4245 28.0341L20.4246 28.034C22.9957 26.3163 25.7244 24.4932 28.3422 22.5705L39.7999 20.764L44.4238 25.923Z" fill="#054F77"/>
</svg>
