<svg width="326" height="384" viewBox="0 0 326 384" fill="none" xmlns="http://www.w3.org/2000/svg">
<path d="M252.777 224.787L72.9993 124.969" stroke="url(#paint0_linear_2441_5241)" stroke-width="1.91676" stroke-dasharray="4.79 4.79"/>
<g filter="url(#filter0_f_2441_5241)">
<circle r="3.59424" transform="matrix(-0.902478 -0.430737 -0.430737 0.902478 157.477 149.164)" fill="url(#paint1_linear_2441_5241)"/>
</g>
<g filter="url(#filter1_f_2441_5241)">
<circle r="3.59424" transform="matrix(-0.902478 -0.430737 -0.430737 0.902478 113.465 129.76)" fill="url(#paint2_linear_2441_5241)"/>
</g>
<g filter="url(#filter2_f_2441_5241)">
<path d="M75.6117 88.2361C82.8434 88.8034 89.694 91.7092 95.1281 96.5144C100.562 101.32 104.285 107.763 105.733 114.871C107.181 121.979 106.276 129.365 103.155 135.913C100.034 142.461 94.866 147.816 88.4326 151.167C81.9992 154.518 74.6497 155.685 67.4949 154.489C60.3401 153.294 53.7687 149.803 48.7739 144.542C43.779 139.282 40.6321 132.539 39.8088 125.332C38.9854 118.125 40.5303 110.845 44.21 104.594L48.0699 106.866C44.8836 112.279 43.5458 118.582 44.2588 124.823C44.9718 131.064 47.6967 136.903 52.0219 141.458C56.3471 146.013 62.0374 149.037 68.2329 150.072C74.4284 151.107 80.7925 150.097 86.3633 147.195C91.9341 144.293 96.409 139.656 99.1116 133.986C101.814 128.316 102.598 121.92 101.344 115.765C100.09 109.61 96.8667 104.031 92.1611 99.8697C87.4556 95.7088 81.5235 93.1926 75.2614 92.7013L75.6117 88.2361Z" fill="url(#paint3_linear_2441_5241)"/>
</g>
<g filter="url(#filter3_f_2441_5241)">
<path d="M110.979 85.1174C119.089 94.1753 123.707 105.826 124.004 117.981C124.301 130.136 120.259 141.998 112.601 151.442C104.943 160.885 94.1708 167.291 82.2169 169.511C70.2631 171.731 57.9094 169.62 47.3716 163.555C36.8338 157.491 28.8013 147.871 24.7147 136.42C20.6282 124.969 20.755 112.437 25.0724 101.071C29.3898 89.705 37.6154 80.2492 48.2738 74.3993C58.9321 68.5495 71.326 66.6883 83.2325 69.1497L81.3985 78.0214C71.6012 75.9961 61.4029 77.5276 52.6326 82.3412C43.8624 87.1547 37.094 94.9355 33.5414 104.288C29.9888 113.64 29.8844 123.952 33.247 133.375C36.6097 142.797 43.2192 150.713 51.8903 155.703C60.5614 160.693 70.7266 162.431 80.5628 160.604C90.3991 158.778 99.2627 153.506 105.564 145.736C111.865 137.965 115.192 128.204 114.948 118.202C114.703 108.201 110.903 98.6139 104.23 91.1605L110.979 85.1174Z" fill="url(#paint4_linear_2441_5241)"/>
<path d="M110.979 85.1174C119.089 94.1753 123.707 105.826 124.004 117.981C124.301 130.136 120.259 141.998 112.601 151.442C104.943 160.885 94.1708 167.291 82.2169 169.511C70.2631 171.731 57.9094 169.62 47.3716 163.555C36.8338 157.491 28.8013 147.871 24.7147 136.42C20.6282 124.969 20.755 112.437 25.0724 101.071C29.3898 89.705 37.6154 80.2492 48.2738 74.3993C58.9321 68.5495 71.326 66.6883 83.2325 69.1497L81.3985 78.0214C71.6012 75.9961 61.4029 77.5276 52.6326 82.3412C43.8624 87.1547 37.094 94.9355 33.5414 104.288C29.9888 113.64 29.8844 123.952 33.247 133.375C36.6097 142.797 43.2192 150.713 51.8903 155.703C60.5614 160.693 70.7266 162.431 80.5628 160.604C90.3991 158.778 99.2627 153.506 105.564 145.736C111.865 137.965 115.192 128.204 114.948 118.202C114.703 108.201 110.903 98.6139 104.23 91.1605L110.979 85.1174Z" fill="white" fill-opacity="0.2"/>
</g>
<circle cx="72.9988" cy="121.54" r="22.0244" transform="rotate(-10.5143 72.9988 121.54)" fill="#054F77"/>
<circle cx="72.9988" cy="121.54" r="22.0244" transform="rotate(-10.5143 72.9988 121.54)" fill="url(#paint5_radial_2441_5241)"/>
<g filter="url(#filter4_f_2441_5241)">
<path d="M65.1883 123.114L72.8636 130.328L83.2493 110.872" stroke="#8CFF00" stroke-width="7.13516" stroke-linecap="round" stroke-linejoin="round"/>
</g>
<circle cx="295.999" cy="170.477" r="3.22406" transform="rotate(-22.7554 295.999 170.477)" fill="url(#paint6_linear_2441_5241)"/>
<circle cx="295.999" cy="170.477" r="3.22406" transform="rotate(-22.7554 295.999 170.477)" fill="url(#paint7_radial_2441_5241)"/>
<g opacity="0.5">
<circle cx="278.577" cy="128.236" r="7.82937" transform="rotate(-22.7554 278.577 128.236)" fill="url(#paint8_linear_2441_5241)"/>
<circle cx="278.577" cy="128.236" r="7.82937" transform="rotate(-22.7554 278.577 128.236)" fill="url(#paint9_radial_2441_5241)"/>
</g>
<g opacity="0.5">
<circle cx="274.747" cy="327.382" r="4.89832" transform="rotate(-22.7554 274.747 327.382)" fill="url(#paint10_linear_2441_5241)"/>
<circle cx="274.747" cy="327.382" r="4.89832" transform="rotate(-22.7554 274.747 327.382)" fill="url(#paint11_radial_2441_5241)"/>
</g>
<path d="M325.01 244.033L325.01 199.326C325.01 198.16 324.311 197.111 323.244 196.645L284.208 179.916L284.208 226.547L325.01 244.033ZM284.208 226.547L240.492 244.033L240.492 199.326C240.492 198.755 240.659 198.197 240.973 197.72C241.287 197.244 241.734 196.87 242.258 196.645L284.208 179.916L284.208 226.547Z" fill="url(#paint12_linear_2441_5241)"/>
<rect x="260.948" y="95.8662" width="42.9815" height="263.762" fill="url(#paint13_linear_2441_5241)"/>
<circle cx="277.715" cy="205.81" r="1.61292" transform="rotate(-22.7554 277.715 205.81)" fill="url(#paint14_linear_2441_5241)"/>
<circle cx="277.715" cy="205.81" r="1.61292" transform="rotate(-22.7554 277.715 205.81)" fill="url(#paint15_radial_2441_5241)"/>
<circle cx="290.911" cy="277.21" r="1.61292" transform="rotate(-22.7554 290.911 277.21)" fill="url(#paint16_linear_2441_5241)"/>
<circle cx="290.911" cy="277.21" r="1.61292" transform="rotate(-22.7554 290.911 277.21)" fill="url(#paint17_radial_2441_5241)"/>
<circle cx="267.387" cy="256.754" r="3.11067" transform="rotate(-22.7554 267.387 256.754)" fill="url(#paint18_linear_2441_5241)"/>
<circle cx="267.387" cy="256.754" r="3.11067" transform="rotate(-22.7554 267.387 256.754)" fill="url(#paint19_radial_2441_5241)"/>
<g opacity="0.5" filter="url(#filter5_f_2441_5241)">
<path d="M283.538 200.448C282.699 200.448 281.956 200.214 281.308 199.747C280.67 199.279 280.171 198.615 279.81 197.755C279.46 196.895 279.284 195.87 279.284 194.68C279.284 193.49 279.46 192.465 279.81 191.605C280.171 190.745 280.67 190.081 281.308 189.614C281.956 189.146 282.699 188.913 283.538 188.913C284.388 188.913 285.131 189.146 285.769 189.614C286.406 190.081 286.9 190.745 287.25 191.605C287.612 192.465 287.792 193.49 287.792 194.68C287.792 195.87 287.612 196.895 287.25 197.755C286.9 198.615 286.406 199.279 285.769 199.747C285.131 200.214 284.388 200.448 283.538 200.448ZM280.654 194.68C280.654 195.402 280.729 196.056 280.878 196.64C281.037 197.213 281.255 197.697 281.531 198.09L284.622 190.426C284.292 190.246 283.931 190.155 283.538 190.155C282.975 190.155 282.476 190.341 282.041 190.713C281.605 191.074 281.265 191.594 281.021 192.274C280.777 192.943 280.654 193.745 280.654 194.68ZM283.538 199.221C284.101 199.221 284.6 199.04 285.036 198.679C285.471 198.307 285.811 197.782 286.056 197.102C286.3 196.422 286.422 195.615 286.422 194.68C286.422 193.958 286.342 193.31 286.183 192.736C286.034 192.152 285.822 191.663 285.546 191.27L282.439 198.95C282.779 199.13 283.145 199.221 283.538 199.221ZM283.538 221.448C282.699 221.448 281.956 221.214 281.308 220.747C280.67 220.279 280.171 219.615 279.81 218.755C279.46 217.895 279.284 216.87 279.284 215.68C279.284 214.49 279.46 213.465 279.81 212.605C280.171 211.745 280.67 211.081 281.308 210.614C281.956 210.146 282.699 209.913 283.538 209.913C284.388 209.913 285.131 210.146 285.769 210.614C286.406 211.081 286.9 211.745 287.25 212.605C287.612 213.465 287.792 214.49 287.792 215.68C287.792 216.87 287.612 217.895 287.25 218.755C286.9 219.615 286.406 220.279 285.769 220.747C285.131 221.214 284.388 221.448 283.538 221.448ZM280.654 215.68C280.654 216.402 280.729 217.056 280.878 217.64C281.037 218.213 281.255 218.697 281.531 219.09L284.622 211.426C284.292 211.246 283.931 211.155 283.538 211.155C282.975 211.155 282.476 211.341 282.041 211.713C281.605 212.074 281.265 212.594 281.021 213.274C280.777 213.943 280.654 214.745 280.654 215.68ZM283.538 220.221C284.101 220.221 284.6 220.04 285.036 219.679C285.471 219.307 285.811 218.782 286.056 218.102C286.3 217.422 286.422 216.615 286.422 215.68C286.422 214.958 286.342 214.31 286.183 213.736C286.034 213.152 285.822 212.663 285.546 212.27L282.439 219.95C282.779 220.13 283.145 220.221 283.538 220.221ZM279.874 242.256V241.045H282.758V232.681L280.033 233.207V232.187L283.204 231.104H284.096V241.045H287.139V242.256H279.874Z" fill="white"/>
<path d="M281.308 199.747L280.915 200.282L280.919 200.285L281.308 199.747ZM279.81 197.755L279.195 198.005L279.198 198.012L279.81 197.755ZM279.81 191.605L279.198 191.348L279.195 191.355L279.81 191.605ZM281.308 189.614L280.919 189.075L280.915 189.078L281.308 189.614ZM285.769 189.614L286.161 189.078L285.769 189.614ZM287.25 191.605L286.636 191.856L286.638 191.862L287.25 191.605ZM287.25 197.755L286.638 197.498L286.636 197.504L287.25 197.755ZM285.769 199.747L286.161 200.282L285.769 199.747ZM280.878 196.64L280.234 196.803L280.236 196.81L280.238 196.817L280.878 196.64ZM281.531 198.09L280.988 198.471L281.69 199.47L282.146 198.338L281.531 198.09ZM284.622 190.426L285.237 190.674L285.458 190.128L284.941 189.844L284.622 190.426ZM282.041 190.713L282.464 191.224L282.472 191.218L282.041 190.713ZM281.021 192.274L281.645 192.502L281.646 192.499L281.021 192.274ZM285.036 198.679L285.46 199.19L285.467 199.184L285.036 198.679ZM286.183 192.736L285.54 192.9L285.541 192.907L285.543 192.914L286.183 192.736ZM285.546 191.27L286.089 190.889L285.388 189.891L284.93 191.022L285.546 191.27ZM282.439 198.95L281.824 198.701L281.599 199.255L282.127 199.536L282.439 198.95ZM283.538 199.784C282.831 199.784 282.225 199.59 281.696 199.208L280.919 200.285C281.686 200.838 282.567 201.111 283.538 201.111V199.784ZM281.7 199.211C281.176 198.827 280.745 198.268 280.422 197.498L279.198 198.012C279.597 198.963 280.164 199.731 280.915 200.282L281.7 199.211ZM280.425 197.504C280.114 196.743 279.948 195.807 279.948 194.68H278.62C278.62 195.932 278.805 197.047 279.195 198.005L280.425 197.504ZM279.948 194.68C279.948 193.553 280.114 192.617 280.425 191.856L279.195 191.355C278.805 192.313 278.62 193.428 278.62 194.68H279.948ZM280.422 191.862C280.745 191.092 281.176 190.533 281.7 190.149L280.915 189.078C280.164 189.629 279.597 190.397 279.198 191.348L280.422 191.862ZM281.696 190.152C282.225 189.77 282.831 189.576 283.538 189.576V188.249C282.567 188.249 281.686 188.522 280.919 189.075L281.696 190.152ZM283.538 189.576C284.258 189.576 284.862 189.771 285.376 190.149L286.161 189.078C285.401 188.521 284.518 188.249 283.538 188.249V189.576ZM285.376 190.149C285.898 190.532 286.323 191.089 286.636 191.856L287.865 191.355C287.477 190.401 286.914 189.63 286.161 189.078L285.376 190.149ZM286.638 191.862C286.957 192.622 287.128 193.555 287.128 194.68H288.456C288.456 193.425 288.266 192.309 287.863 191.348L286.638 191.862ZM287.128 194.68C287.128 195.805 286.957 196.738 286.638 197.498L287.863 198.012C288.266 197.051 288.456 195.935 288.456 194.68H287.128ZM286.636 197.504C286.323 198.271 285.898 198.828 285.376 199.211L286.161 200.282C286.914 199.73 287.477 198.959 287.865 198.005L286.636 197.504ZM285.376 199.211C284.862 199.589 284.258 199.784 283.538 199.784V201.111C284.518 201.111 285.401 200.839 286.161 200.282L285.376 199.211ZM279.991 194.68C279.991 195.447 280.07 196.156 280.234 196.803L281.521 196.476C281.388 195.955 281.318 195.358 281.318 194.68H279.991ZM280.238 196.817C280.413 197.447 280.659 198.003 280.988 198.471L282.074 197.708C281.85 197.39 281.661 196.979 281.517 196.462L280.238 196.817ZM282.146 198.338L285.237 190.674L284.006 190.178L280.915 197.841L282.146 198.338ZM284.941 189.844C284.509 189.607 284.037 189.491 283.538 189.491V190.819C283.825 190.819 284.076 190.884 284.302 191.008L284.941 189.844ZM283.538 189.491C282.814 189.491 282.163 189.736 281.61 190.208L282.472 191.218C282.789 190.947 283.136 190.819 283.538 190.819V189.491ZM281.617 190.202C281.068 190.657 280.67 191.289 280.396 192.05L281.646 192.499C281.861 191.9 282.142 191.491 282.464 191.224L281.617 190.202ZM280.397 192.047C280.12 192.807 279.991 193.691 279.991 194.68H281.318C281.318 193.8 281.434 193.079 281.645 192.502L280.397 192.047ZM283.538 199.885C284.257 199.885 284.906 199.649 285.46 199.19L284.612 198.168C284.295 198.431 283.946 198.557 283.538 198.557V199.885ZM285.467 199.184C286.01 198.72 286.407 198.087 286.68 197.326L285.431 196.877C285.216 197.476 284.932 197.895 284.605 198.174L285.467 199.184ZM286.68 197.326C286.957 196.557 287.086 195.67 287.086 194.68H285.758C285.758 195.56 285.643 196.287 285.431 196.877L286.68 197.326ZM287.086 194.68C287.086 193.91 287.001 193.201 286.823 192.559L285.543 192.914C285.684 193.419 285.758 194.006 285.758 194.68H287.086ZM286.826 192.573C286.663 191.929 286.422 191.362 286.089 190.889L285.003 191.652C285.222 191.965 285.406 192.375 285.54 192.9L286.826 192.573ZM284.93 191.022L281.824 198.701L283.054 199.199L286.161 191.519L284.93 191.022ZM282.127 199.536C282.565 199.769 283.039 199.885 283.538 199.885V198.557C283.251 198.557 282.992 198.492 282.75 198.364L282.127 199.536ZM281.308 220.747L280.915 221.282L280.919 221.285L281.308 220.747ZM279.81 218.755L279.195 219.005L279.198 219.012L279.81 218.755ZM279.81 212.605L279.198 212.348L279.195 212.355L279.81 212.605ZM281.308 210.614L280.919 210.075L280.915 210.078L281.308 210.614ZM285.769 210.614L286.161 210.078L285.769 210.614ZM287.25 212.605L286.636 212.856L286.638 212.862L287.25 212.605ZM287.25 218.755L286.638 218.498L286.636 218.504L287.25 218.755ZM285.769 220.747L286.161 221.282L285.769 220.747ZM280.878 217.64L280.234 217.803L280.236 217.81L280.238 217.817L280.878 217.64ZM281.531 219.09L280.988 219.471L281.69 220.47L282.146 219.338L281.531 219.09ZM284.622 211.426L285.237 211.674L285.458 211.128L284.941 210.844L284.622 211.426ZM282.041 211.713L282.464 212.224L282.472 212.218L282.041 211.713ZM281.021 213.274L281.645 213.502L281.646 213.499L281.021 213.274ZM285.036 219.679L285.46 220.19L285.467 220.184L285.036 219.679ZM286.183 213.736L285.54 213.9L285.541 213.907L285.543 213.914L286.183 213.736ZM285.546 212.27L286.089 211.889L285.388 210.891L284.93 212.022L285.546 212.27ZM282.439 219.95L281.824 219.701L281.599 220.255L282.127 220.536L282.439 219.95ZM283.538 220.784C282.831 220.784 282.225 220.59 281.696 220.208L280.919 221.285C281.686 221.838 282.567 222.111 283.538 222.111V220.784ZM281.7 220.211C281.176 219.827 280.745 219.268 280.422 218.498L279.198 219.012C279.597 219.963 280.164 220.731 280.915 221.282L281.7 220.211ZM280.425 218.504C280.114 217.743 279.948 216.807 279.948 215.68H278.62C278.62 216.932 278.805 218.047 279.195 219.005L280.425 218.504ZM279.948 215.68C279.948 214.553 280.114 213.617 280.425 212.856L279.195 212.355C278.805 213.313 278.62 214.428 278.62 215.68H279.948ZM280.422 212.862C280.745 212.092 281.176 211.533 281.7 211.149L280.915 210.078C280.164 210.629 279.597 211.397 279.198 212.348L280.422 212.862ZM281.696 211.152C282.225 210.77 282.831 210.576 283.538 210.576V209.249C282.567 209.249 281.686 209.522 280.919 210.075L281.696 211.152ZM283.538 210.576C284.258 210.576 284.862 210.771 285.376 211.149L286.161 210.078C285.401 209.521 284.518 209.249 283.538 209.249V210.576ZM285.376 211.149C285.898 211.532 286.323 212.089 286.636 212.856L287.865 212.355C287.477 211.401 286.914 210.63 286.161 210.078L285.376 211.149ZM286.638 212.862C286.957 213.622 287.128 214.555 287.128 215.68H288.456C288.456 214.425 288.266 213.309 287.863 212.348L286.638 212.862ZM287.128 215.68C287.128 216.805 286.957 217.738 286.638 218.498L287.863 219.012C288.266 218.051 288.456 216.935 288.456 215.68H287.128ZM286.636 218.504C286.323 219.271 285.898 219.828 285.376 220.211L286.161 221.282C286.914 220.73 287.477 219.959 287.865 219.005L286.636 218.504ZM285.376 220.211C284.862 220.589 284.258 220.784 283.538 220.784V222.111C284.518 222.111 285.401 221.839 286.161 221.282L285.376 220.211ZM279.991 215.68C279.991 216.447 280.07 217.156 280.234 217.803L281.521 217.476C281.388 216.955 281.318 216.358 281.318 215.68H279.991ZM280.238 217.817C280.413 218.447 280.659 219.003 280.988 219.471L282.074 218.708C281.85 218.39 281.661 217.979 281.517 217.462L280.238 217.817ZM282.146 219.338L285.237 211.674L284.006 211.178L280.915 218.841L282.146 219.338ZM284.941 210.844C284.509 210.607 284.037 210.491 283.538 210.491V211.819C283.825 211.819 284.076 211.884 284.302 212.008L284.941 210.844ZM283.538 210.491C282.814 210.491 282.163 210.736 281.61 211.208L282.472 212.218C282.789 211.947 283.136 211.819 283.538 211.819V210.491ZM281.617 211.202C281.068 211.657 280.67 212.289 280.396 213.05L281.646 213.499C281.861 212.9 282.142 212.491 282.464 212.224L281.617 211.202ZM280.397 213.047C280.12 213.807 279.991 214.691 279.991 215.68H281.318C281.318 214.8 281.434 214.079 281.645 213.502L280.397 213.047ZM283.538 220.885C284.257 220.885 284.906 220.649 285.46 220.19L284.612 219.168C284.295 219.431 283.946 219.557 283.538 219.557V220.885ZM285.467 220.184C286.01 219.72 286.407 219.087 286.68 218.326L285.431 217.877C285.216 218.476 284.932 218.895 284.605 219.174L285.467 220.184ZM286.68 218.326C286.957 217.557 287.086 216.67 287.086 215.68H285.758C285.758 216.56 285.643 217.287 285.431 217.877L286.68 218.326ZM287.086 215.68C287.086 214.91 287.001 214.201 286.823 213.559L285.543 213.914C285.684 214.419 285.758 215.006 285.758 215.68H287.086ZM286.826 213.573C286.663 212.929 286.422 212.362 286.089 211.889L285.003 212.652C285.222 212.965 285.406 213.375 285.54 213.9L286.826 213.573ZM284.93 212.022L281.824 219.701L283.054 220.199L286.161 212.519L284.93 212.022ZM282.127 220.536C282.565 220.769 283.039 220.885 283.538 220.885V219.557C283.251 219.557 282.992 219.492 282.75 219.364L282.127 220.536ZM279.874 242.256H279.21V242.92H279.874V242.256ZM279.874 241.045V240.382H279.21V241.045H279.874ZM282.758 241.045V241.709H283.421V241.045H282.758ZM282.758 232.681H283.421V231.877L282.632 232.029L282.758 232.681ZM280.033 233.207H279.369V234.011L280.159 233.859L280.033 233.207ZM280.033 232.187L279.818 231.559L279.369 231.712V232.187H280.033ZM283.204 231.104V230.44H283.093L282.989 230.476L283.204 231.104ZM284.096 231.104H284.76V230.44H284.096V231.104ZM284.096 241.045H283.432V241.709H284.096V241.045ZM287.139 241.045H287.803V240.382H287.139V241.045ZM287.139 242.256V242.92H287.803V242.256H287.139ZM280.538 242.256V241.045H279.21V242.256H280.538ZM279.874 241.709H282.758V240.382H279.874V241.709ZM283.421 241.045V232.681H282.094V241.045H283.421ZM282.632 232.029L279.907 232.555L280.159 233.859L282.883 233.333L282.632 232.029ZM280.697 233.207V232.187H279.369V233.207H280.697ZM280.248 232.815L283.418 231.732L282.989 230.476L279.818 231.559L280.248 232.815ZM283.204 231.768H284.096V230.44H283.204V231.768ZM283.432 231.104V241.045H284.76V231.104H283.432ZM284.096 241.709H287.139V240.382H284.096V241.709ZM286.475 241.045V242.256H287.803V241.045H286.475ZM287.139 241.592H279.874V242.92H287.139V241.592Z" fill="#8CFF00"/>
</g>
<g opacity="0.5" filter="url(#filter6_f_2441_5241)">
<path d="M272.701 172.749C271.862 172.749 271.119 172.516 270.471 172.048C269.833 171.581 269.334 170.917 268.973 170.057C268.622 169.196 268.447 168.171 268.447 166.982C268.447 165.792 268.622 164.767 268.973 163.907C269.334 163.046 269.833 162.383 270.471 161.915C271.119 161.448 271.862 161.214 272.701 161.214C273.551 161.214 274.294 161.448 274.932 161.915C275.569 162.383 276.063 163.046 276.413 163.907C276.775 164.767 276.955 165.792 276.955 166.982C276.955 168.171 276.775 169.196 276.413 170.057C276.063 170.917 275.569 171.581 274.932 172.048C274.294 172.516 273.551 172.749 272.701 172.749ZM269.817 166.982C269.817 167.704 269.892 168.357 270.04 168.941C270.2 169.515 270.418 169.998 270.694 170.391L273.785 162.728C273.455 162.547 273.094 162.457 272.701 162.457C272.138 162.457 271.639 162.643 271.204 163.015C270.768 163.376 270.428 163.896 270.184 164.576C269.94 165.245 269.817 166.047 269.817 166.982ZM272.701 171.523C273.264 171.523 273.763 171.342 274.199 170.981C274.634 170.609 274.974 170.083 275.218 169.403C275.463 168.724 275.585 167.916 275.585 166.982C275.585 166.26 275.505 165.612 275.346 165.038C275.197 164.454 274.985 163.965 274.709 163.572L271.602 171.252C271.942 171.432 272.308 171.523 272.701 171.523ZM269.037 193.558V192.347H271.92V183.983L269.196 184.509V183.489L272.367 182.405H273.259V192.347H276.302V193.558H269.037ZM272.701 214.749C271.862 214.749 271.119 214.516 270.471 214.048C269.833 213.581 269.334 212.917 268.973 212.057C268.622 211.196 268.447 210.171 268.447 208.982C268.447 207.792 268.622 206.767 268.973 205.907C269.334 205.046 269.833 204.383 270.471 203.915C271.119 203.448 271.862 203.214 272.701 203.214C273.551 203.214 274.294 203.448 274.932 203.915C275.569 204.383 276.063 205.046 276.413 205.907C276.775 206.767 276.955 207.792 276.955 208.982C276.955 210.171 276.775 211.196 276.413 212.057C276.063 212.917 275.569 213.581 274.932 214.048C274.294 214.516 273.551 214.749 272.701 214.749ZM269.817 208.982C269.817 209.704 269.892 210.357 270.04 210.941C270.2 211.515 270.418 211.998 270.694 212.391L273.785 204.728C273.455 204.547 273.094 204.457 272.701 204.457C272.138 204.457 271.639 204.643 271.204 205.015C270.768 205.376 270.428 205.896 270.184 206.576C269.94 207.245 269.817 208.047 269.817 208.982ZM272.701 213.523C273.264 213.523 273.763 213.342 274.199 212.981C274.634 212.609 274.974 212.083 275.218 211.403C275.463 210.724 275.585 209.916 275.585 208.982C275.585 208.26 275.505 207.612 275.346 207.038C275.197 206.454 274.985 205.965 274.709 205.572L271.602 213.252C271.942 213.432 272.308 213.523 272.701 213.523ZM269.037 235.558V234.347H271.92L271.92 225.983L269.196 226.509V225.489L272.367 224.405H273.259L273.259 234.347H276.302V235.558H269.037Z" fill="white"/>
<path d="M270.471 172.048L270.078 172.584L270.082 172.587L270.471 172.048ZM268.973 170.057L268.358 170.307L268.361 170.314L268.973 170.057ZM268.973 163.907L268.361 163.65L268.358 163.656L268.973 163.907ZM270.471 161.915L270.082 161.377L270.078 161.38L270.471 161.915ZM274.932 161.915L275.324 161.38L274.932 161.915ZM276.413 163.907L275.799 164.157L275.801 164.164L276.413 163.907ZM276.413 170.057L275.801 169.8L275.799 169.806L276.413 170.057ZM274.932 172.048L275.324 172.584L274.932 172.048ZM270.04 168.941L269.397 169.105L269.399 169.112L269.401 169.119L270.04 168.941ZM270.694 170.391L270.151 170.773L270.853 171.772L271.309 170.64L270.694 170.391ZM273.785 162.728L274.4 162.976L274.621 162.429L274.104 162.146L273.785 162.728ZM271.204 163.015L271.627 163.526L271.635 163.52L271.204 163.015ZM270.184 164.576L270.807 164.804L270.809 164.801L270.184 164.576ZM274.199 170.981L274.623 171.492L274.63 171.486L274.199 170.981ZM275.346 165.038L274.703 165.202L274.704 165.209L274.706 165.216L275.346 165.038ZM274.709 163.572L275.252 163.191L274.551 162.193L274.093 163.323L274.709 163.572ZM271.602 171.252L270.986 171.003L270.762 171.557L271.29 171.838L271.602 171.252ZM272.701 172.085C271.994 172.085 271.388 171.891 270.859 171.51L270.082 172.587C270.849 173.14 271.73 173.413 272.701 173.413V172.085ZM270.863 171.513C270.339 171.129 269.908 170.569 269.585 169.8L268.361 170.314C268.76 171.265 269.327 172.033 270.078 172.584L270.863 171.513ZM269.588 169.806C269.277 169.044 269.111 168.109 269.111 166.982H267.783C267.783 168.234 267.968 169.348 268.358 170.307L269.588 169.806ZM269.111 166.982C269.111 165.855 269.277 164.919 269.588 164.157L268.358 163.656C267.968 164.615 267.783 165.729 267.783 166.982H269.111ZM269.585 164.164C269.908 163.394 270.339 162.835 270.863 162.451L270.078 161.38C269.327 161.93 268.76 162.699 268.361 163.65L269.585 164.164ZM270.859 162.454C271.388 162.072 271.994 161.878 272.701 161.878V160.55C271.73 160.55 270.849 160.824 270.082 161.377L270.859 162.454ZM272.701 161.878C273.421 161.878 274.024 162.073 274.539 162.451L275.324 161.38C274.564 160.823 273.681 160.55 272.701 160.55V161.878ZM274.539 162.451C275.061 162.833 275.486 163.39 275.799 164.157L277.028 163.656C276.64 162.703 276.077 161.932 275.324 161.38L274.539 162.451ZM275.801 164.164C276.12 164.924 276.291 165.857 276.291 166.982H277.619C277.619 165.727 277.429 164.611 277.026 163.65L275.801 164.164ZM276.291 166.982C276.291 168.106 276.12 169.04 275.801 169.8L277.026 170.314C277.429 169.353 277.619 168.236 277.619 166.982H276.291ZM275.799 169.806C275.486 170.573 275.061 171.13 274.539 171.513L275.324 172.584C276.077 172.032 276.64 171.261 277.028 170.307L275.799 169.806ZM274.539 171.513C274.024 171.89 273.421 172.085 272.701 172.085V173.413C273.681 173.413 274.564 173.141 275.324 172.584L274.539 171.513ZM269.154 166.982C269.154 167.749 269.232 168.458 269.397 169.105L270.684 168.778C270.551 168.256 270.481 167.659 270.481 166.982H269.154ZM269.401 169.119C269.576 169.749 269.822 170.305 270.151 170.773L271.237 170.01C271.013 169.691 270.824 169.281 270.68 168.764L269.401 169.119ZM271.309 170.64L274.4 162.976L273.169 162.48L270.078 170.143L271.309 170.64ZM274.104 162.146C273.672 161.909 273.2 161.793 272.701 161.793V163.121C272.988 163.121 273.239 163.186 273.465 163.31L274.104 162.146ZM272.701 161.793C271.977 161.793 271.326 162.037 270.773 162.51L271.635 163.52C271.952 163.248 272.299 163.121 272.701 163.121V161.793ZM270.78 162.504C270.231 162.959 269.833 163.59 269.559 164.351L270.809 164.801C271.024 164.202 271.305 163.793 271.627 163.526L270.78 162.504ZM269.56 164.348C269.282 165.109 269.154 165.992 269.154 166.982H270.481C270.481 166.102 270.597 165.381 270.807 164.804L269.56 164.348ZM272.701 172.186C273.42 172.186 274.069 171.951 274.623 171.492L273.775 170.47C273.458 170.733 273.109 170.859 272.701 170.859V172.186ZM274.63 171.486C275.173 171.022 275.57 170.389 275.843 169.628L274.594 169.179C274.378 169.778 274.095 170.196 273.768 170.476L274.63 171.486ZM275.843 169.628C276.12 168.859 276.249 167.972 276.249 166.982H274.921C274.921 167.861 274.806 168.589 274.594 169.179L275.843 169.628ZM276.249 166.982C276.249 166.212 276.164 165.503 275.986 164.86L274.706 165.216C274.847 165.721 274.921 166.307 274.921 166.982H276.249ZM275.989 164.874C275.826 164.231 275.584 163.664 275.252 163.191L274.165 163.954C274.385 164.267 274.569 164.677 274.703 165.202L275.989 164.874ZM274.093 163.323L270.986 171.003L272.217 171.501L275.324 163.821L274.093 163.323ZM271.29 171.838C271.728 172.071 272.202 172.186 272.701 172.186V170.859C272.414 170.859 272.155 170.794 271.913 170.665L271.29 171.838ZM269.037 193.558H268.373V194.222H269.037V193.558ZM269.037 192.347V191.683H268.373V192.347H269.037ZM271.92 192.347V193.011H272.584V192.347H271.92ZM271.92 183.983H272.584V183.179L271.795 183.331L271.92 183.983ZM269.196 184.509H268.532V185.313L269.322 185.16L269.196 184.509ZM269.196 183.489L268.981 182.861L268.532 183.014V183.489H269.196ZM272.367 182.405V181.742H272.256L272.152 181.777L272.367 182.405ZM273.259 182.405H273.923V181.742H273.259V182.405ZM273.259 192.347H272.595V193.011H273.259V192.347ZM276.302 192.347H276.966V191.683H276.302V192.347ZM276.302 193.558V194.222H276.966V193.558H276.302ZM269.701 193.558V192.347H268.373V193.558H269.701ZM269.037 193.011H271.92V191.683H269.037V193.011ZM272.584 192.347V183.983H271.257V192.347H272.584ZM271.795 183.331L269.07 183.857L269.322 185.16L272.046 184.635L271.795 183.331ZM269.86 184.509V183.489H268.532V184.509H269.86ZM269.411 184.117L272.581 183.034L272.152 181.777L268.981 182.861L269.411 184.117ZM272.367 183.069H273.259V181.742H272.367V183.069ZM272.595 182.405V192.347H273.923V182.405H272.595ZM273.259 193.011H276.302V191.683H273.259V193.011ZM275.638 192.347V193.558H276.966V192.347H275.638ZM276.302 192.894H269.037V194.222H276.302V192.894ZM270.471 214.048L270.078 214.584L270.082 214.587L270.471 214.048ZM268.973 212.057L268.358 212.307L268.361 212.314L268.973 212.057ZM268.973 205.907L268.361 205.65L268.358 205.656L268.973 205.907ZM270.471 203.915L270.082 203.377L270.078 203.38L270.471 203.915ZM274.932 203.915L275.324 203.38L274.932 203.915ZM276.413 205.907L275.799 206.157L275.801 206.164L276.413 205.907ZM276.413 212.057L275.801 211.8L275.799 211.806L276.413 212.057ZM274.932 214.048L275.324 214.584L274.932 214.048ZM270.04 210.941L269.397 211.105L269.399 211.112L269.401 211.119L270.04 210.941ZM270.694 212.391L270.151 212.773L270.853 213.772L271.309 212.64L270.694 212.391ZM273.785 204.728L274.4 204.976L274.621 204.429L274.104 204.146L273.785 204.728ZM271.204 205.015L271.627 205.526L271.635 205.52L271.204 205.015ZM270.184 206.576L270.807 206.804L270.809 206.801L270.184 206.576ZM274.199 212.981L274.623 213.492L274.63 213.486L274.199 212.981ZM275.346 207.038L274.703 207.202L274.704 207.209L274.706 207.216L275.346 207.038ZM274.709 205.572L275.252 205.191L274.551 204.193L274.093 205.323L274.709 205.572ZM271.602 213.252L270.986 213.003L270.762 213.557L271.29 213.838L271.602 213.252ZM272.701 214.085C271.994 214.085 271.388 213.891 270.859 213.51L270.082 214.587C270.849 215.14 271.73 215.413 272.701 215.413V214.085ZM270.863 213.513C270.339 213.129 269.908 212.569 269.585 211.8L268.361 212.314C268.76 213.265 269.327 214.033 270.078 214.584L270.863 213.513ZM269.588 211.806C269.277 211.044 269.111 210.109 269.111 208.982H267.783C267.783 210.234 267.968 211.348 268.358 212.307L269.588 211.806ZM269.111 208.982C269.111 207.855 269.277 206.919 269.588 206.157L268.358 205.656C267.968 206.615 267.783 207.729 267.783 208.982H269.111ZM269.585 206.164C269.908 205.394 270.339 204.835 270.863 204.451L270.078 203.38C269.327 203.93 268.76 204.699 268.361 205.65L269.585 206.164ZM270.859 204.454C271.388 204.072 271.994 203.878 272.701 203.878V202.55C271.73 202.55 270.849 202.824 270.082 203.377L270.859 204.454ZM272.701 203.878C273.421 203.878 274.024 204.073 274.539 204.451L275.324 203.38C274.564 202.823 273.681 202.55 272.701 202.55V203.878ZM274.539 204.451C275.061 204.833 275.486 205.39 275.799 206.157L277.028 205.656C276.64 204.703 276.077 203.932 275.324 203.38L274.539 204.451ZM275.801 206.164C276.12 206.924 276.291 207.857 276.291 208.982H277.619C277.619 207.727 277.429 206.611 277.026 205.65L275.801 206.164ZM276.291 208.982C276.291 210.106 276.12 211.04 275.801 211.8L277.026 212.314C277.429 211.353 277.619 210.236 277.619 208.982H276.291ZM275.799 211.806C275.486 212.573 275.061 213.13 274.539 213.513L275.324 214.584C276.077 214.032 276.64 213.261 277.028 212.307L275.799 211.806ZM274.539 213.513C274.024 213.89 273.421 214.085 272.701 214.085V215.413C273.681 215.413 274.564 215.141 275.324 214.584L274.539 213.513ZM269.154 208.982C269.154 209.749 269.232 210.458 269.397 211.105L270.684 210.778C270.551 210.256 270.481 209.659 270.481 208.982H269.154ZM269.401 211.119C269.576 211.749 269.822 212.305 270.151 212.773L271.237 212.01C271.013 211.691 270.824 211.281 270.68 210.764L269.401 211.119ZM271.309 212.64L274.4 204.976L273.169 204.48L270.078 212.143L271.309 212.64ZM274.104 204.146C273.672 203.909 273.2 203.793 272.701 203.793V205.121C272.988 205.121 273.239 205.186 273.465 205.31L274.104 204.146ZM272.701 203.793C271.977 203.793 271.326 204.037 270.773 204.51L271.635 205.52C271.952 205.248 272.299 205.121 272.701 205.121V203.793ZM270.78 204.504C270.231 204.959 269.833 205.59 269.559 206.351L270.809 206.801C271.024 206.202 271.305 205.793 271.627 205.526L270.78 204.504ZM269.56 206.348C269.282 207.109 269.154 207.992 269.154 208.982H270.481C270.481 208.102 270.597 207.381 270.807 206.804L269.56 206.348ZM272.701 214.186C273.42 214.186 274.069 213.951 274.623 213.492L273.775 212.47C273.458 212.733 273.109 212.859 272.701 212.859V214.186ZM274.63 213.486C275.173 213.022 275.57 212.389 275.843 211.628L274.594 211.179C274.378 211.778 274.095 212.196 273.768 212.476L274.63 213.486ZM275.843 211.628C276.12 210.859 276.249 209.972 276.249 208.982H274.921C274.921 209.861 274.806 210.589 274.594 211.179L275.843 211.628ZM276.249 208.982C276.249 208.212 276.164 207.503 275.986 206.86L274.706 207.216C274.847 207.721 274.921 208.307 274.921 208.982H276.249ZM275.989 206.874C275.826 206.231 275.584 205.664 275.252 205.191L274.165 205.954C274.385 206.267 274.569 206.677 274.703 207.202L275.989 206.874ZM274.093 205.323L270.986 213.003L272.217 213.501L275.324 205.821L274.093 205.323ZM271.29 213.838C271.728 214.071 272.202 214.186 272.701 214.186V212.859C272.414 212.859 272.155 212.794 271.913 212.665L271.29 213.838ZM269.037 235.558H268.373V236.222H269.037V235.558ZM269.037 234.347V233.683H268.373V234.347H269.037ZM271.92 234.347V235.011H272.584V234.347H271.92ZM271.92 225.983H272.584V225.179L271.795 225.331L271.92 225.983ZM269.196 226.509H268.532V227.313L269.322 227.16L269.196 226.509ZM269.196 225.489L268.981 224.861L268.532 225.014V225.489H269.196ZM272.367 224.405V223.742H272.256L272.152 223.777L272.367 224.405ZM273.259 224.405H273.923V223.742H273.259V224.405ZM273.259 234.347H272.595V235.011H273.259V234.347ZM276.302 234.347H276.966V233.683H276.302V234.347ZM276.302 235.558V236.222H276.966V235.558H276.302ZM269.701 235.558V234.347H268.373V235.558H269.701ZM269.037 235.011H271.92V233.683H269.037V235.011ZM272.584 234.347V225.983H271.257V234.347H272.584ZM271.795 225.331L269.07 225.857L269.322 227.16L272.046 226.635L271.795 225.331ZM269.86 226.509V225.489H268.532V226.509H269.86ZM269.411 226.117L272.581 225.034L272.152 223.777L268.981 224.861L269.411 226.117ZM272.367 225.069H273.259V223.742H272.367V225.069ZM272.595 224.405V234.347H273.923V224.405H272.595ZM273.259 235.011H276.302V233.683H273.259V235.011ZM275.638 234.347V235.558H276.966V234.347H275.638ZM276.302 234.894H269.037V236.222H276.302V234.894Z" fill="#8CFF00"/>
</g>
<g opacity="0.5" filter="url(#filter7_f_2441_5241)">
<path d="M268.18 288.639V287.428H271.064L271.064 279.064L268.34 279.59V278.57L271.51 277.487H272.402V287.428H275.445V288.639H268.18Z" fill="white"/>
<path d="M268.18 288.639H267.516V289.303H268.18V288.639ZM268.18 287.428V286.764H267.516V287.428H268.18ZM271.064 287.428V288.092H271.728V287.428H271.064ZM271.064 279.064H271.728V278.26L270.938 278.412L271.064 279.064ZM268.34 279.59H267.676V280.394L268.465 280.241L268.34 279.59ZM268.34 278.57L268.125 277.942L267.676 278.095V278.57H268.34ZM271.51 277.487V276.823H271.4L271.295 276.858L271.51 277.487ZM272.402 277.487H273.066V276.823H272.402V277.487ZM272.402 287.428H271.739V288.092H272.402V287.428ZM275.445 287.428H276.109V286.764H275.445V287.428ZM275.445 288.639V289.303H276.109V288.639H275.445ZM268.844 288.639V287.428H267.516V288.639H268.844ZM268.18 288.092H271.064V286.764H268.18V288.092ZM271.728 287.428V279.064H270.4V287.428H271.728ZM270.938 278.412L268.214 278.938L268.465 280.241L271.19 279.716L270.938 278.412ZM269.003 279.59V278.57H267.676V279.59H269.003ZM268.554 279.198L271.725 278.115L271.295 276.858L268.125 277.942L268.554 279.198ZM271.51 278.15H272.402V276.823H271.51V278.15ZM271.739 277.487V287.428H273.066V277.487H271.739ZM272.402 288.092H275.445V286.764H272.402V288.092ZM274.782 287.428V288.639H276.109V287.428H274.782ZM275.445 287.975H268.18V289.303H275.445V287.975Z" fill="#8CFF00"/>
</g>
<g opacity="0.5" filter="url(#filter8_f_2441_5241)">
<path d="M294.917 308.008C294.078 308.008 293.334 307.774 292.686 307.307C292.049 306.84 291.55 306.176 291.189 305.316C290.838 304.455 290.663 303.43 290.663 302.241C290.663 301.051 290.838 300.026 291.189 299.166C291.55 298.305 292.049 297.641 292.686 297.174C293.334 296.707 294.078 296.473 294.917 296.473C295.767 296.473 296.51 296.707 297.148 297.174C297.785 297.641 298.279 298.305 298.629 299.166C298.99 300.026 299.171 301.051 299.171 302.241C299.171 303.43 298.99 304.455 298.629 305.316C298.279 306.176 297.785 306.84 297.148 307.307C296.51 307.774 295.767 308.008 294.917 308.008ZM292.033 302.241C292.033 302.963 292.108 303.616 292.256 304.2C292.416 304.774 292.633 305.257 292.909 305.65L296 297.987C295.671 297.806 295.31 297.716 294.917 297.716C294.354 297.716 293.855 297.902 293.419 298.273C292.984 298.635 292.644 299.155 292.4 299.835C292.155 300.504 292.033 301.306 292.033 302.241ZM294.917 306.781C295.48 306.781 295.979 306.601 296.415 306.24C296.85 305.868 297.19 305.342 297.434 304.662C297.679 303.983 297.801 303.175 297.801 302.241C297.801 301.518 297.721 300.87 297.562 300.297C297.413 299.713 297.201 299.224 296.924 298.831L293.818 306.51C294.158 306.691 294.524 306.781 294.917 306.781ZM291.253 328.817V327.606H294.136V319.242L291.412 319.767V318.748L294.582 317.664H295.475V327.606H298.518V328.817H291.253ZM294.917 350.008C294.078 350.008 293.334 349.774 292.686 349.307C292.049 348.84 291.55 348.176 291.189 347.316C290.838 346.455 290.663 345.43 290.663 344.241C290.663 343.051 290.838 342.026 291.189 341.166C291.55 340.305 292.049 339.641 292.686 339.174C293.334 338.707 294.078 338.473 294.917 338.473C295.767 338.473 296.51 338.707 297.148 339.174C297.785 339.641 298.279 340.305 298.629 341.166C298.99 342.026 299.171 343.051 299.171 344.241C299.171 345.43 298.99 346.455 298.629 347.316C298.279 348.176 297.785 348.84 297.148 349.307C296.51 349.774 295.767 350.008 294.917 350.008ZM292.033 344.241C292.033 344.963 292.108 345.616 292.256 346.2C292.416 346.774 292.633 347.257 292.909 347.65L296 339.987C295.671 339.806 295.31 339.716 294.917 339.716C294.354 339.716 293.855 339.902 293.419 340.273C292.984 340.635 292.644 341.155 292.4 341.835C292.155 342.504 292.033 343.306 292.033 344.241ZM294.917 348.781C295.48 348.781 295.979 348.601 296.415 348.24C296.85 347.868 297.19 347.342 297.434 346.662C297.679 345.983 297.801 345.175 297.801 344.241C297.801 343.518 297.721 342.87 297.562 342.297C297.413 341.713 297.201 341.224 296.924 340.831L293.818 348.51C294.158 348.691 294.524 348.781 294.917 348.781ZM291.253 370.817V369.606H294.136L294.136 361.242L291.412 361.767V360.748L294.582 359.664H295.475L295.475 369.606H298.518V370.817H291.253Z" fill="white"/>
<path d="M292.686 307.307L292.294 307.842L292.298 307.845L292.686 307.307ZM291.189 305.316L290.574 305.566L290.577 305.572L291.189 305.316ZM291.189 299.166L290.577 298.909L290.574 298.915L291.189 299.166ZM292.686 297.174L292.298 296.636L292.294 296.639L292.686 297.174ZM297.148 297.174L297.54 296.639L297.148 297.174ZM298.629 299.166L298.014 299.416L298.017 299.423L298.629 299.166ZM298.629 305.316L298.017 305.059L298.014 305.065L298.629 305.316ZM297.148 307.307L297.54 307.842L297.148 307.307ZM292.256 304.2L291.613 304.364L291.615 304.371L291.617 304.378L292.256 304.2ZM292.909 305.65L292.366 306.032L293.068 307.031L293.525 305.898L292.909 305.65ZM296 297.987L296.616 298.235L296.837 297.688L296.32 297.405L296 297.987ZM293.419 298.273L293.843 298.784L293.85 298.778L293.419 298.273ZM292.4 299.835L293.023 300.062L293.024 300.059L292.4 299.835ZM296.415 306.24L296.838 306.751L296.846 306.744L296.415 306.24ZM297.562 300.297L296.918 300.461L296.92 300.468L296.922 300.474L297.562 300.297ZM296.924 298.831L297.468 298.449L296.766 297.452L296.309 298.582L296.924 298.831ZM293.818 306.51L293.202 306.261L292.978 306.816L293.506 307.097L293.818 306.51ZM294.917 307.344C294.21 307.344 293.604 307.15 293.075 306.769L292.298 307.845C293.065 308.399 293.946 308.672 294.917 308.672V307.344ZM293.079 306.772C292.555 306.388 292.124 305.828 291.801 305.059L290.577 305.572C290.976 306.524 291.543 307.292 292.294 307.842L293.079 306.772ZM291.804 305.065C291.493 304.303 291.327 303.367 291.327 302.241H289.999C289.999 303.493 290.183 304.607 290.574 305.566L291.804 305.065ZM291.327 302.241C291.327 301.114 291.493 300.178 291.804 299.416L290.574 298.915C290.183 299.874 289.999 300.988 289.999 302.241H291.327ZM291.801 299.423C292.124 298.653 292.555 298.094 293.079 297.709L292.294 296.639C291.543 297.189 290.976 297.958 290.577 298.909L291.801 299.423ZM293.075 297.712C293.604 297.331 294.21 297.137 294.917 297.137V295.809C293.946 295.809 293.065 296.083 292.298 296.636L293.075 297.712ZM294.917 297.137C295.637 297.137 296.24 297.332 296.755 297.709L297.54 296.639C296.78 296.081 295.897 295.809 294.917 295.809V297.137ZM296.755 297.709C297.277 298.092 297.702 298.649 298.014 299.416L299.244 298.915C298.855 297.961 298.293 297.191 297.54 296.639L296.755 297.709ZM298.017 299.423C298.336 300.183 298.507 301.116 298.507 302.241H299.835C299.835 300.986 299.645 299.869 299.241 298.909L298.017 299.423ZM298.507 302.241C298.507 303.365 298.336 304.299 298.017 305.059L299.241 305.572C299.645 304.612 299.835 303.495 299.835 302.241H298.507ZM298.014 305.065C297.702 305.832 297.277 306.389 296.755 306.772L297.54 307.842C298.293 307.291 298.855 306.52 299.244 305.566L298.014 305.065ZM296.755 306.772C296.24 307.149 295.637 307.344 294.917 307.344V308.672C295.897 308.672 296.78 308.4 297.54 307.842L296.755 306.772ZM291.369 302.241C291.369 303.008 291.448 303.717 291.613 304.364L292.9 304.036C292.767 303.515 292.697 302.918 292.697 302.241H291.369ZM291.617 304.378C291.792 305.008 292.038 305.564 292.366 306.032L293.453 305.268C293.229 304.95 293.04 304.54 292.896 304.023L291.617 304.378ZM293.525 305.898L296.616 298.235L295.385 297.738L292.294 305.402L293.525 305.898ZM296.32 297.405C295.888 297.168 295.416 297.052 294.917 297.052V298.38C295.204 298.38 295.454 298.444 295.681 298.569L296.32 297.405ZM294.917 297.052C294.193 297.052 293.542 297.296 292.988 297.769L293.85 298.778C294.168 298.507 294.515 298.38 294.917 298.38V297.052ZM292.996 297.762C292.447 298.218 292.048 298.849 291.775 299.61L293.024 300.059C293.239 299.461 293.521 299.051 293.843 298.784L292.996 297.762ZM291.776 299.607C291.498 300.368 291.369 301.251 291.369 302.241H292.697C292.697 301.361 292.812 300.64 293.023 300.062L291.776 299.607ZM294.917 307.445C295.636 307.445 296.284 307.21 296.838 306.751L295.991 305.729C295.674 305.991 295.324 306.117 294.917 306.117V307.445ZM296.846 306.744C297.389 306.281 297.786 305.647 298.059 304.887L296.81 304.438C296.594 305.037 296.311 305.455 295.984 305.735L296.846 306.744ZM298.059 304.887C298.336 304.117 298.465 303.23 298.465 302.241H297.137C297.137 303.12 297.022 303.848 296.81 304.438L298.059 304.887ZM298.465 302.241C298.465 301.471 298.38 300.761 298.201 300.119L296.922 300.474C297.062 300.979 297.137 301.566 297.137 302.241H298.465ZM298.205 300.133C298.041 299.49 297.8 298.923 297.468 298.449L296.381 299.213C296.601 299.525 296.785 299.935 296.918 300.461L298.205 300.133ZM296.309 298.582L293.202 306.261L294.433 306.759L297.54 299.08L296.309 298.582ZM293.506 307.097C293.944 307.329 294.418 307.445 294.917 307.445V306.117C294.63 306.117 294.371 306.053 294.129 305.924L293.506 307.097ZM291.253 328.817H290.589V329.481H291.253V328.817ZM291.253 327.606V326.942H290.589V327.606H291.253ZM294.136 327.606V328.27H294.8V327.606H294.136ZM294.136 319.242H294.8V318.437L294.011 318.59L294.136 319.242ZM291.412 319.767H290.748V320.572L291.538 320.419L291.412 319.767ZM291.412 318.748L291.197 318.119L290.748 318.273V318.748H291.412ZM294.582 317.664V317H294.472L294.368 317.036L294.582 317.664ZM295.475 317.664H296.138V317H295.475V317.664ZM295.475 327.606H294.811V328.27H295.475V327.606ZM298.518 327.606H299.182V326.942H298.518V327.606ZM298.518 328.817V329.481H299.182V328.817H298.518ZM291.916 328.817V327.606H290.589V328.817H291.916ZM291.253 328.27H294.136V326.942H291.253V328.27ZM294.8 327.606V319.242H293.472V327.606H294.8ZM294.011 318.59L291.286 319.115L291.538 320.419L294.262 319.893L294.011 318.59ZM292.076 319.767V318.748H290.748V319.767H292.076ZM291.627 319.376L294.797 318.292L294.368 317.036L291.197 318.119L291.627 319.376ZM294.582 318.328H295.475V317H294.582V318.328ZM294.811 317.664V327.606H296.138V317.664H294.811ZM295.475 328.27H298.518V326.942H295.475V328.27ZM297.854 327.606V328.817H299.182V327.606H297.854ZM298.518 328.153H291.253V329.481H298.518V328.153ZM292.686 349.307L292.294 349.842L292.298 349.845L292.686 349.307ZM291.189 347.316L290.574 347.566L290.577 347.572L291.189 347.316ZM291.189 341.166L290.577 340.909L290.574 340.915L291.189 341.166ZM292.686 339.174L292.298 338.636L292.294 338.639L292.686 339.174ZM297.148 339.174L297.54 338.639L297.148 339.174ZM298.629 341.166L298.014 341.416L298.017 341.423L298.629 341.166ZM298.629 347.316L298.017 347.059L298.014 347.065L298.629 347.316ZM297.148 349.307L297.54 349.842L297.148 349.307ZM292.256 346.2L291.613 346.364L291.615 346.371L291.617 346.378L292.256 346.2ZM292.909 347.65L292.366 348.032L293.068 349.031L293.525 347.898L292.909 347.65ZM296 339.987L296.616 340.235L296.837 339.688L296.32 339.405L296 339.987ZM293.419 340.273L293.843 340.784L293.85 340.778L293.419 340.273ZM292.4 341.835L293.023 342.062L293.024 342.059L292.4 341.835ZM296.415 348.24L296.838 348.751L296.846 348.744L296.415 348.24ZM297.562 342.297L296.918 342.461L296.92 342.468L296.922 342.474L297.562 342.297ZM296.924 340.831L297.468 340.449L296.766 339.452L296.309 340.582L296.924 340.831ZM293.818 348.51L293.202 348.261L292.978 348.816L293.506 349.097L293.818 348.51ZM294.917 349.344C294.21 349.344 293.604 349.15 293.075 348.769L292.298 349.845C293.065 350.399 293.946 350.672 294.917 350.672V349.344ZM293.079 348.772C292.555 348.388 292.124 347.828 291.801 347.059L290.577 347.572C290.976 348.524 291.543 349.292 292.294 349.842L293.079 348.772ZM291.804 347.065C291.493 346.303 291.327 345.367 291.327 344.241H289.999C289.999 345.493 290.183 346.607 290.574 347.566L291.804 347.065ZM291.327 344.241C291.327 343.114 291.493 342.178 291.804 341.416L290.574 340.915C290.183 341.874 289.999 342.988 289.999 344.241H291.327ZM291.801 341.423C292.124 340.653 292.555 340.094 293.079 339.709L292.294 338.639C291.543 339.189 290.976 339.958 290.577 340.909L291.801 341.423ZM293.075 339.712C293.604 339.331 294.21 339.137 294.917 339.137V337.809C293.946 337.809 293.065 338.083 292.298 338.636L293.075 339.712ZM294.917 339.137C295.637 339.137 296.24 339.332 296.755 339.709L297.54 338.639C296.78 338.081 295.897 337.809 294.917 337.809V339.137ZM296.755 339.709C297.277 340.092 297.702 340.649 298.014 341.416L299.244 340.915C298.855 339.961 298.293 339.191 297.54 338.639L296.755 339.709ZM298.017 341.423C298.336 342.183 298.507 343.116 298.507 344.241H299.835C299.835 342.986 299.645 341.869 299.241 340.909L298.017 341.423ZM298.507 344.241C298.507 345.365 298.336 346.299 298.017 347.059L299.241 347.572C299.645 346.612 299.835 345.495 299.835 344.241H298.507ZM298.014 347.065C297.702 347.832 297.277 348.389 296.755 348.772L297.54 349.842C298.293 349.291 298.855 348.52 299.244 347.566L298.014 347.065ZM296.755 348.772C296.24 349.149 295.637 349.344 294.917 349.344V350.672C295.897 350.672 296.78 350.4 297.54 349.842L296.755 348.772ZM291.369 344.241C291.369 345.008 291.448 345.717 291.613 346.364L292.9 346.036C292.767 345.515 292.697 344.918 292.697 344.241H291.369ZM291.617 346.378C291.792 347.008 292.038 347.564 292.366 348.032L293.453 347.268C293.229 346.95 293.04 346.54 292.896 346.023L291.617 346.378ZM293.525 347.898L296.616 340.235L295.385 339.738L292.294 347.402L293.525 347.898ZM296.32 339.405C295.888 339.168 295.416 339.052 294.917 339.052V340.38C295.204 340.38 295.454 340.444 295.681 340.569L296.32 339.405ZM294.917 339.052C294.193 339.052 293.542 339.296 292.988 339.769L293.85 340.778C294.168 340.507 294.515 340.38 294.917 340.38V339.052ZM292.996 339.762C292.447 340.218 292.048 340.849 291.775 341.61L293.024 342.059C293.239 341.461 293.521 341.051 293.843 340.784L292.996 339.762ZM291.776 341.607C291.498 342.368 291.369 343.251 291.369 344.241H292.697C292.697 343.361 292.812 342.64 293.023 342.062L291.776 341.607ZM294.917 349.445C295.636 349.445 296.284 349.21 296.838 348.751L295.991 347.729C295.674 347.991 295.324 348.117 294.917 348.117V349.445ZM296.846 348.744C297.389 348.281 297.786 347.647 298.059 346.887L296.81 346.438C296.594 347.037 296.311 347.455 295.984 347.735L296.846 348.744ZM298.059 346.887C298.336 346.117 298.465 345.23 298.465 344.241H297.137C297.137 345.12 297.022 345.848 296.81 346.438L298.059 346.887ZM298.465 344.241C298.465 343.471 298.38 342.761 298.201 342.119L296.922 342.474C297.062 342.979 297.137 343.566 297.137 344.241H298.465ZM298.205 342.133C298.041 341.49 297.8 340.923 297.468 340.449L296.381 341.213C296.601 341.525 296.785 341.935 296.918 342.461L298.205 342.133ZM296.309 340.582L293.202 348.261L294.433 348.759L297.54 341.08L296.309 340.582ZM293.506 349.097C293.944 349.329 294.418 349.445 294.917 349.445V348.117C294.63 348.117 294.371 348.053 294.129 347.924L293.506 349.097ZM291.253 370.817H290.589V371.481H291.253V370.817ZM291.253 369.606V368.942H290.589V369.606H291.253ZM294.136 369.606V370.27H294.8V369.606H294.136ZM294.136 361.242H294.8V360.437L294.011 360.59L294.136 361.242ZM291.412 361.767H290.748V362.572L291.538 362.419L291.412 361.767ZM291.412 360.748L291.197 360.119L290.748 360.273V360.748H291.412ZM294.582 359.664V359H294.472L294.368 359.036L294.582 359.664ZM295.475 359.664H296.138V359H295.475V359.664ZM295.475 369.606H294.811V370.27H295.475V369.606ZM298.518 369.606H299.182V368.942H298.518V369.606ZM298.518 370.817V371.481H299.182V370.817H298.518ZM291.916 370.817V369.606H290.589V370.817H291.916ZM291.253 370.27H294.136V368.942H291.253V370.27ZM294.8 369.606V361.242H293.472V369.606H294.8ZM294.011 360.59L291.286 361.115L291.538 362.419L294.262 361.893L294.011 360.59ZM292.076 361.767V360.748H290.748V361.767H292.076ZM291.627 361.376L294.797 360.292L294.368 359.036L291.197 360.119L291.627 361.376ZM294.582 360.328H295.475V359H294.582V360.328ZM294.811 359.664V369.606H296.138V359.664H294.811ZM295.475 370.27H298.518V368.942H295.475V370.27ZM297.854 369.606V370.817H299.182V369.606H297.854ZM298.518 370.153H291.253V371.481H298.518V370.153Z" fill="#8CFF00"/>
</g>
<g opacity="0.5" filter="url(#filter9_f_2441_5241)">
<path d="M297.551 277.018C296.712 277.018 295.968 276.784 295.32 276.317C294.683 275.849 294.184 275.186 293.823 274.325C293.472 273.465 293.297 272.44 293.297 271.25C293.297 270.061 293.472 269.036 293.823 268.175C294.184 267.315 294.683 266.651 295.32 266.184C295.968 265.716 296.712 265.483 297.551 265.483C298.401 265.483 299.144 265.716 299.781 266.184C300.419 266.651 300.913 267.315 301.263 268.175C301.624 269.036 301.805 270.061 301.805 271.25C301.805 272.44 301.624 273.465 301.263 274.325C300.913 275.186 300.419 275.849 299.781 276.317C299.144 276.784 298.401 277.018 297.551 277.018ZM294.667 271.25C294.667 271.973 294.741 272.626 294.89 273.21C295.049 273.784 295.267 274.267 295.543 274.66L298.634 266.996C298.305 266.816 297.944 266.726 297.551 266.726C296.988 266.726 296.489 266.911 296.053 267.283C295.618 267.644 295.278 268.165 295.033 268.845C294.789 269.514 294.667 270.316 294.667 271.25ZM297.551 275.791C298.114 275.791 298.613 275.61 299.048 275.249C299.484 274.878 299.824 274.352 300.068 273.672C300.312 272.992 300.435 272.185 300.435 271.25C300.435 270.528 300.355 269.88 300.196 269.307C300.047 268.722 299.834 268.234 299.558 267.841L296.451 275.52C296.791 275.701 297.158 275.791 297.551 275.791Z" fill="white"/>
<path d="M295.32 276.317L294.928 276.852L294.932 276.855L295.32 276.317ZM293.823 274.325L293.208 274.576L293.21 274.582L293.823 274.325ZM293.823 268.175L293.21 267.918L293.208 267.925L293.823 268.175ZM295.32 266.184L294.932 265.645L294.928 265.649L295.32 266.184ZM299.781 266.184L300.174 265.649H300.174L299.781 266.184ZM301.263 268.175L300.648 268.426L300.651 268.432L301.263 268.175ZM301.263 274.325L300.651 274.068L300.648 274.075L301.263 274.325ZM299.781 276.317L300.174 276.852L299.781 276.317ZM294.89 273.21L294.247 273.374L294.249 273.381L294.25 273.388L294.89 273.21ZM295.543 274.66L295 275.042L295.702 276.041L296.159 274.908L295.543 274.66ZM298.634 266.996L299.25 267.245L299.47 266.698L298.953 266.414L298.634 266.996ZM296.053 267.283L296.477 267.794L296.484 267.788L296.053 267.283ZM295.033 268.845L295.657 269.072L295.658 269.069L295.033 268.845ZM299.048 275.249L299.472 275.76L299.479 275.754L299.048 275.249ZM300.196 269.307L299.552 269.47L299.554 269.477L299.556 269.484L300.196 269.307ZM299.558 267.841L300.101 267.459L299.4 266.461L298.943 267.592L299.558 267.841ZM296.451 275.52L295.836 275.271L295.612 275.826L296.14 276.106L296.451 275.52ZM297.551 276.354C296.844 276.354 296.238 276.16 295.709 275.778L294.932 276.855C295.699 277.408 296.58 277.682 297.551 277.682V276.354ZM295.713 275.781C295.189 275.397 294.758 274.838 294.435 274.068L293.21 274.582C293.61 275.533 294.177 276.302 294.928 276.852L295.713 275.781ZM294.437 274.075C294.127 273.313 293.961 272.377 293.961 271.25H292.633C292.633 272.503 292.817 273.617 293.208 274.576L294.437 274.075ZM293.961 271.25C293.961 270.124 294.127 269.188 294.437 268.426L293.208 267.925C292.817 268.884 292.633 269.998 292.633 271.25H293.961ZM294.435 268.432C294.758 267.663 295.189 267.103 295.713 266.719L294.928 265.649C294.177 266.199 293.61 266.967 293.21 267.918L294.435 268.432ZM295.709 266.722C296.238 266.341 296.844 266.147 297.551 266.147V264.819C296.58 264.819 295.699 265.092 294.932 265.645L295.709 266.722ZM297.551 266.147C298.271 266.147 298.874 266.342 299.389 266.719L300.174 265.649C299.414 265.091 298.53 264.819 297.551 264.819V266.147ZM299.389 266.719C299.911 267.102 300.336 267.659 300.648 268.426L301.878 267.925C301.489 266.971 300.926 266.2 300.174 265.649L299.389 266.719ZM300.651 268.432C300.97 269.192 301.141 270.126 301.141 271.25H302.469C302.469 269.996 302.278 268.879 301.875 267.918L300.651 268.432ZM301.141 271.25C301.141 272.375 300.97 273.308 300.651 274.068L301.875 274.582C302.278 273.621 302.469 272.505 302.469 271.25H301.141ZM300.648 274.075C300.336 274.842 299.911 275.399 299.389 275.781L300.174 276.852C300.926 276.3 301.489 275.53 301.878 274.576L300.648 274.075ZM299.389 275.781C298.874 276.159 298.271 276.354 297.551 276.354V277.682C298.53 277.682 299.414 277.409 300.174 276.852L299.389 275.781ZM294.003 271.25C294.003 272.017 294.082 272.727 294.247 273.374L295.533 273.046C295.401 272.525 295.331 271.928 295.331 271.25H294.003ZM294.25 273.388C294.425 274.017 294.671 274.574 295 275.042L296.086 274.278C295.863 273.96 295.673 273.55 295.53 273.032L294.25 273.388ZM296.159 274.908L299.25 267.245L298.019 266.748L294.928 274.412L296.159 274.908ZM298.953 266.414C298.522 266.178 298.05 266.062 297.551 266.062V267.389C297.838 267.389 298.088 267.454 298.315 267.578L298.953 266.414ZM297.551 266.062C296.827 266.062 296.176 266.306 295.622 266.778L296.484 267.788C296.802 267.517 297.149 267.389 297.551 267.389V266.062ZM295.629 266.772C295.08 267.227 294.682 267.859 294.409 268.62L295.658 269.069C295.873 268.471 296.155 268.061 296.477 267.794L295.629 266.772ZM294.41 268.617C294.132 269.378 294.003 270.261 294.003 271.25H295.331C295.331 270.37 295.446 269.65 295.657 269.072L294.41 268.617ZM297.551 276.455C298.269 276.455 298.918 276.22 299.472 275.76L298.625 274.738C298.308 275.001 297.958 275.127 297.551 275.127V276.455ZM299.479 275.754C300.023 275.29 300.42 274.657 300.693 273.897L299.443 273.448C299.228 274.047 298.945 274.465 298.617 274.744L299.479 275.754ZM300.693 273.897C300.969 273.127 301.098 272.24 301.098 271.25H299.771C299.771 272.13 299.655 272.857 299.443 273.448L300.693 273.897ZM301.098 271.25C301.098 270.48 301.014 269.771 300.835 269.129L299.556 269.484C299.696 269.989 299.771 270.576 299.771 271.25H301.098ZM300.839 269.143C300.675 268.5 300.434 267.933 300.101 267.459L299.015 268.222C299.235 268.535 299.419 268.945 299.552 269.47L300.839 269.143ZM298.943 267.592L295.836 275.271L297.067 275.769L300.174 268.09L298.943 267.592ZM296.14 276.106C296.578 276.339 297.052 276.455 297.551 276.455V275.127C297.264 275.127 297.005 275.062 296.763 274.934L296.14 276.106Z" fill="#8CFF00"/>
</g>
<g opacity="0.5" filter="url(#filter10_f_2441_5241)">
<path d="M295.193 219.933C294.354 219.933 293.61 219.7 292.963 219.232C292.325 218.765 291.826 218.101 291.465 217.241C291.114 216.38 290.939 215.355 290.939 214.166C290.939 212.976 291.114 211.951 291.465 211.091C291.826 210.231 292.325 209.567 292.963 209.099C293.61 208.632 294.354 208.398 295.193 208.398C296.043 208.398 296.786 208.632 297.424 209.099C298.061 209.567 298.555 210.231 298.905 211.091C299.266 211.951 299.447 212.976 299.447 214.166C299.447 215.355 299.266 216.38 298.905 217.241C298.555 218.101 298.061 218.765 297.424 219.232C296.786 219.7 296.043 219.933 295.193 219.933ZM292.309 214.166C292.309 214.888 292.384 215.541 292.532 216.126C292.692 216.699 292.909 217.182 293.186 217.575L296.276 209.912C295.947 209.731 295.586 209.641 295.193 209.641C294.63 209.641 294.131 209.827 293.695 210.199C293.26 210.56 292.92 211.08 292.676 211.76C292.431 212.429 292.309 213.231 292.309 214.166ZM295.193 218.707C295.756 218.707 296.255 218.526 296.691 218.165C297.126 217.793 297.466 217.267 297.71 216.588C297.955 215.908 298.077 215.101 298.077 214.166C298.077 213.444 297.997 212.796 297.838 212.222C297.689 211.638 297.477 211.149 297.201 210.756L294.094 218.436C294.434 218.616 294.8 218.707 295.193 218.707ZM291.529 240.742V239.531H294.412V231.167L291.688 231.693V230.673L294.858 229.59H295.751V239.531H298.794V240.742H291.529ZM295.193 261.933C294.354 261.933 293.61 261.7 292.963 261.232C292.325 260.765 291.826 260.101 291.465 259.241C291.114 258.38 290.939 257.355 290.939 256.166C290.939 254.976 291.114 253.951 291.465 253.091C291.826 252.231 292.325 251.567 292.963 251.099C293.61 250.632 294.354 250.398 295.193 250.398C296.043 250.398 296.786 250.632 297.424 251.099C298.061 251.567 298.555 252.231 298.905 253.091C299.266 253.951 299.447 254.976 299.447 256.166C299.447 257.355 299.266 258.38 298.905 259.241C298.555 260.101 298.061 260.765 297.424 261.232C296.786 261.7 296.043 261.933 295.193 261.933ZM292.309 256.166C292.309 256.888 292.384 257.541 292.532 258.126C292.692 258.699 292.909 259.182 293.186 259.575L296.276 251.912C295.947 251.731 295.586 251.641 295.193 251.641C294.63 251.641 294.131 251.827 293.695 252.199C293.26 252.56 292.92 253.08 292.676 253.76C292.431 254.429 292.309 255.231 292.309 256.166ZM295.193 260.707C295.756 260.707 296.255 260.526 296.691 260.165C297.126 259.793 297.466 259.267 297.71 258.588C297.955 257.908 298.077 257.101 298.077 256.166C298.077 255.444 297.997 254.796 297.838 254.222C297.689 253.638 297.477 253.149 297.201 252.756L294.094 260.436C294.434 260.616 294.8 260.707 295.193 260.707Z" fill="white"/>
<path d="M292.963 219.232L292.57 219.768L292.574 219.771L292.963 219.232ZM291.465 217.241L290.85 217.491L290.853 217.498L291.465 217.241ZM291.465 211.091L290.853 210.834L290.85 210.84L291.465 211.091ZM292.963 209.099L292.574 208.561L292.57 208.564L292.963 209.099ZM297.424 209.099L297.816 208.564L297.424 209.099ZM298.905 211.091L298.29 211.341L298.293 211.348L298.905 211.091ZM298.905 217.241L298.293 216.984L298.29 216.99L298.905 217.241ZM297.424 219.232L297.816 219.768L297.424 219.232ZM292.532 216.126L291.889 216.289L291.891 216.296L291.893 216.303L292.532 216.126ZM293.186 217.575L292.642 217.957L293.344 218.956L293.801 217.824L293.186 217.575ZM296.276 209.912L296.892 210.16L297.113 209.613L296.596 209.33L296.276 209.912ZM293.695 210.199L294.119 210.71L294.126 210.704L293.695 210.199ZM292.676 211.76L293.299 211.988L293.3 211.985L292.676 211.76ZM296.691 218.165L297.114 218.676L297.122 218.67L296.691 218.165ZM297.838 212.222L297.194 212.386L297.196 212.393L297.198 212.4L297.838 212.222ZM297.201 210.756L297.744 210.375L297.042 209.377L296.585 210.507L297.201 210.756ZM294.094 218.436L293.478 218.187L293.254 218.741L293.782 219.022L294.094 218.436ZM295.193 219.27C294.486 219.27 293.88 219.075 293.351 218.694L292.574 219.771C293.341 220.324 294.222 220.597 295.193 220.597V219.27ZM293.355 218.697C292.831 218.313 292.4 217.753 292.077 216.984L290.853 217.498C291.252 218.449 291.819 219.217 292.57 219.768L293.355 218.697ZM292.08 216.99C291.769 216.228 291.603 215.293 291.603 214.166H290.275C290.275 215.418 290.459 216.533 290.85 217.491L292.08 216.99ZM291.603 214.166C291.603 213.039 291.769 212.103 292.08 211.341L290.85 210.84C290.459 211.799 290.275 212.913 290.275 214.166H291.603ZM292.077 211.348C292.4 210.578 292.831 210.019 293.355 209.635L292.57 208.564C291.819 209.115 291.252 209.883 290.853 210.834L292.077 211.348ZM293.351 209.638C293.88 209.256 294.486 209.062 295.193 209.062V207.734C294.222 207.734 293.341 208.008 292.574 208.561L293.351 209.638ZM295.193 209.062C295.913 209.062 296.516 209.257 297.031 209.635L297.816 208.564C297.056 208.007 296.173 207.734 295.193 207.734V209.062ZM297.031 209.635C297.553 210.018 297.978 210.574 298.29 211.341L299.52 210.84C299.131 209.887 298.569 209.116 297.816 208.564L297.031 209.635ZM298.293 211.348C298.612 212.108 298.783 213.041 298.783 214.166H300.111C300.111 212.911 299.921 211.795 299.517 210.834L298.293 211.348ZM298.783 214.166C298.783 215.291 298.612 216.224 298.293 216.984L299.517 217.498C299.921 216.537 300.111 215.42 300.111 214.166H298.783ZM298.29 216.99C297.978 217.757 297.553 218.314 297.031 218.697L297.816 219.768C298.569 219.216 299.131 218.445 299.52 217.491L298.29 216.99ZM297.031 218.697C296.516 219.074 295.913 219.27 295.193 219.27V220.597C296.173 220.597 297.056 220.325 297.816 219.768L297.031 218.697ZM291.645 214.166C291.645 214.933 291.724 215.642 291.889 216.289L293.176 215.962C293.043 215.44 292.973 214.843 292.973 214.166H291.645ZM291.893 216.303C292.068 216.933 292.314 217.489 292.642 217.957L293.729 217.194C293.505 216.876 293.316 216.465 293.172 215.948L291.893 216.303ZM293.801 217.824L296.892 210.16L295.661 209.664L292.57 217.327L293.801 217.824ZM296.596 209.33C296.164 209.093 295.692 208.977 295.193 208.977V210.305C295.48 210.305 295.73 210.37 295.957 210.494L296.596 209.33ZM295.193 208.977C294.469 208.977 293.818 209.221 293.264 209.694L294.126 210.704C294.444 210.433 294.791 210.305 295.193 210.305V208.977ZM293.272 209.688C292.723 210.143 292.325 210.774 292.051 211.536L293.3 211.985C293.516 211.386 293.797 210.977 294.119 210.71L293.272 209.688ZM292.052 211.532C291.774 212.293 291.645 213.176 291.645 214.166H292.973C292.973 213.286 293.089 212.565 293.299 211.988L292.052 211.532ZM295.193 219.37C295.912 219.37 296.56 219.135 297.114 218.676L296.267 217.654C295.95 217.917 295.6 218.043 295.193 218.043V219.37ZM297.122 218.67C297.665 218.206 298.062 217.573 298.335 216.812L297.086 216.363C296.87 216.962 296.587 217.38 296.26 217.66L297.122 218.67ZM298.335 216.812C298.612 216.043 298.741 215.156 298.741 214.166H297.413C297.413 215.045 297.298 215.773 297.086 216.363L298.335 216.812ZM298.741 214.166C298.741 213.396 298.656 212.687 298.477 212.044L297.198 212.4C297.338 212.905 297.413 213.491 297.413 214.166H298.741ZM298.481 212.058C298.317 211.415 298.076 210.848 297.744 210.375L296.657 211.138C296.877 211.451 297.061 211.861 297.194 212.386L298.481 212.058ZM296.585 210.507L293.478 218.187L294.709 218.685L297.816 211.005L296.585 210.507ZM293.782 219.022C294.22 219.255 294.694 219.37 295.193 219.37V218.043C294.906 218.043 294.647 217.978 294.405 217.849L293.782 219.022ZM291.529 240.742H290.865V241.406H291.529V240.742ZM291.529 239.531V238.867H290.865V239.531H291.529ZM294.412 239.531V240.195H295.076V239.531H294.412ZM294.412 231.167H295.076V230.363L294.287 230.515L294.412 231.167ZM291.688 231.693H291.024V232.497L291.814 232.344L291.688 231.693ZM291.688 230.673L291.473 230.045L291.024 230.198V230.673H291.688ZM294.858 229.59V228.926H294.748L294.644 228.961L294.858 229.59ZM295.751 229.59H296.415V228.926H295.751V229.59ZM295.751 239.531H295.087V240.195H295.751V239.531ZM298.794 239.531H299.458V238.867H298.794V239.531ZM298.794 240.742V241.406H299.458V240.742H298.794ZM292.192 240.742V239.531H290.865V240.742H292.192ZM291.529 240.195H294.412V238.867H291.529V240.195ZM295.076 239.531V231.167H293.749V239.531H295.076ZM294.287 230.515L291.562 231.041L291.814 232.344L294.538 231.819L294.287 230.515ZM292.352 231.693V230.673H291.024V231.693H292.352ZM291.903 231.301L295.073 230.218L294.644 228.961L291.473 230.045L291.903 231.301ZM294.858 230.253H295.751V228.926H294.858V230.253ZM295.087 229.59V239.531H296.415V229.59H295.087ZM295.751 240.195H298.794V238.867H295.751V240.195ZM298.13 239.531V240.742H299.458V239.531H298.13ZM298.794 240.078H291.529V241.406H298.794V240.078ZM292.963 261.232L292.57 261.768L292.574 261.771L292.963 261.232ZM291.465 259.241L290.85 259.491L290.853 259.498L291.465 259.241ZM291.465 253.091L290.853 252.834L290.85 252.84L291.465 253.091ZM292.963 251.099L292.574 250.561L292.57 250.564L292.963 251.099ZM297.424 251.099L297.816 250.564L297.424 251.099ZM298.905 253.091L298.29 253.341L298.293 253.348L298.905 253.091ZM298.905 259.241L298.293 258.984L298.29 258.99L298.905 259.241ZM297.424 261.232L297.816 261.768L297.424 261.232ZM292.532 258.126L291.889 258.289L291.891 258.296L291.893 258.303L292.532 258.126ZM293.186 259.575L292.642 259.957L293.344 260.956L293.801 259.824L293.186 259.575ZM296.276 251.912L296.892 252.16L297.113 251.613L296.596 251.33L296.276 251.912ZM293.695 252.199L294.119 252.71L294.126 252.704L293.695 252.199ZM292.676 253.76L293.299 253.988L293.3 253.985L292.676 253.76ZM296.691 260.165L297.114 260.676L297.122 260.67L296.691 260.165ZM297.838 254.222L297.194 254.386L297.196 254.393L297.198 254.4L297.838 254.222ZM297.201 252.756L297.744 252.375L297.042 251.377L296.585 252.507L297.201 252.756ZM294.094 260.436L293.478 260.187L293.254 260.741L293.782 261.022L294.094 260.436ZM295.193 261.27C294.486 261.27 293.88 261.075 293.351 260.694L292.574 261.771C293.341 262.324 294.222 262.597 295.193 262.597V261.27ZM293.355 260.697C292.831 260.313 292.4 259.753 292.077 258.984L290.853 259.498C291.252 260.449 291.819 261.217 292.57 261.768L293.355 260.697ZM292.08 258.99C291.769 258.228 291.603 257.293 291.603 256.166H290.275C290.275 257.418 290.459 258.533 290.85 259.491L292.08 258.99ZM291.603 256.166C291.603 255.039 291.769 254.103 292.08 253.341L290.85 252.84C290.459 253.799 290.275 254.913 290.275 256.166H291.603ZM292.077 253.348C292.4 252.578 292.831 252.019 293.355 251.635L292.57 250.564C291.819 251.115 291.252 251.883 290.853 252.834L292.077 253.348ZM293.351 251.638C293.88 251.256 294.486 251.062 295.193 251.062V249.735C294.222 249.735 293.341 250.008 292.574 250.561L293.351 251.638ZM295.193 251.062C295.913 251.062 296.516 251.257 297.031 251.635L297.816 250.564C297.056 250.007 296.173 249.735 295.193 249.735V251.062ZM297.031 251.635C297.553 252.018 297.978 252.574 298.29 253.341L299.52 252.84C299.131 251.887 298.569 251.116 297.816 250.564L297.031 251.635ZM298.293 253.348C298.612 254.108 298.783 255.041 298.783 256.166H300.111C300.111 254.911 299.921 253.795 299.517 252.834L298.293 253.348ZM298.783 256.166C298.783 257.291 298.612 258.224 298.293 258.984L299.517 259.498C299.921 258.537 300.111 257.42 300.111 256.166H298.783ZM298.29 258.99C297.978 259.757 297.553 260.314 297.031 260.697L297.816 261.768C298.569 261.216 299.131 260.445 299.52 259.491L298.29 258.99ZM297.031 260.697C296.516 261.074 295.913 261.27 295.193 261.27V262.597C296.173 262.597 297.056 262.325 297.816 261.768L297.031 260.697ZM291.645 256.166C291.645 256.933 291.724 257.642 291.889 258.289L293.176 257.962C293.043 257.44 292.973 256.843 292.973 256.166H291.645ZM291.893 258.303C292.068 258.933 292.314 259.489 292.642 259.957L293.729 259.194C293.505 258.876 293.316 258.465 293.172 257.948L291.893 258.303ZM293.801 259.824L296.892 252.16L295.661 251.664L292.57 259.327L293.801 259.824ZM296.596 251.33C296.164 251.093 295.692 250.977 295.193 250.977V252.305C295.48 252.305 295.73 252.37 295.957 252.494L296.596 251.33ZM295.193 250.977C294.469 250.977 293.818 251.221 293.264 251.694L294.126 252.704C294.444 252.433 294.791 252.305 295.193 252.305V250.977ZM293.272 251.688C292.723 252.143 292.325 252.774 292.051 253.536L293.3 253.985C293.516 253.386 293.797 252.977 294.119 252.71L293.272 251.688ZM292.052 253.532C291.774 254.293 291.645 255.176 291.645 256.166H292.973C292.973 255.286 293.089 254.565 293.299 253.988L292.052 253.532ZM295.193 261.37C295.912 261.37 296.56 261.135 297.114 260.676L296.267 259.654C295.95 259.917 295.6 260.043 295.193 260.043V261.37ZM297.122 260.67C297.665 260.206 298.062 259.573 298.335 258.812L297.086 258.363C296.87 258.962 296.587 259.38 296.26 259.66L297.122 260.67ZM298.335 258.812C298.612 258.043 298.741 257.156 298.741 256.166H297.413C297.413 257.045 297.298 257.773 297.086 258.363L298.335 258.812ZM298.741 256.166C298.741 255.396 298.656 254.687 298.477 254.044L297.198 254.4C297.338 254.905 297.413 255.491 297.413 256.166H298.741ZM298.481 254.058C298.317 253.415 298.076 252.848 297.744 252.375L296.657 253.138C296.877 253.451 297.061 253.861 297.194 254.386L298.481 254.058ZM296.585 252.507L293.478 260.187L294.709 260.685L297.816 253.005L296.585 252.507ZM293.782 261.022C294.22 261.255 294.694 261.37 295.193 261.37V260.043C294.906 260.043 294.647 259.978 294.405 259.849L293.782 261.022Z" fill="#8CFF00"/>
</g>
<path d="M325.013 198.482V243.19C325.013 244.355 324.314 245.404 323.247 245.871L284.211 262.6V215.969L325.013 198.482ZM284.211 215.969L240.495 198.482V243.19C240.495 243.76 240.662 244.319 240.976 244.795C241.29 245.272 241.737 245.646 242.261 245.871L284.211 262.6V215.969Z" fill="#054F77"/>
<path d="M325.013 198.482V243.19C325.013 244.355 324.314 245.404 323.247 245.871L284.211 262.6V215.969L325.013 198.482ZM284.211 215.969L240.495 198.482V243.19C240.495 243.76 240.662 244.319 240.976 244.795C241.29 245.272 241.737 245.646 242.261 245.871L284.211 262.6V215.969Z" fill="url(#paint20_linear_2441_5241)"/>
<path d="M284.174 215.962L284.173 262.583" stroke="#F4FBFF" stroke-opacity="0.14" stroke-width="1.3277"/>
<defs>
<filter id="filter0_f_2441_5241" x="149.126" y="140.812" width="16.7035" height="16.7035" filterUnits="userSpaceOnUse" color-interpolation-filters="sRGB">
<feFlood flood-opacity="0" result="BackgroundImageFix"/>
<feBlend mode="normal" in="SourceGraphic" in2="BackgroundImageFix" result="shape"/>
<feGaussianBlur stdDeviation="2.37839" result="effect1_foregroundBlur_2441_5241"/>
</filter>
<filter id="filter1_f_2441_5241" x="105.113" y="121.409" width="16.7035" height="16.7035" filterUnits="userSpaceOnUse" color-interpolation-filters="sRGB">
<feFlood flood-opacity="0" result="BackgroundImageFix"/>
<feBlend mode="normal" in="SourceGraphic" in2="BackgroundImageFix" result="shape"/>
<feGaussianBlur stdDeviation="2.37839" result="effect1_foregroundBlur_2441_5241"/>
</filter>
<filter id="filter2_f_2441_5241" x="37.489" y="86.1321" width="71.02" height="70.9174" filterUnits="userSpaceOnUse" color-interpolation-filters="sRGB">
<feFlood flood-opacity="0" result="BackgroundImageFix"/>
<feBlend mode="normal" in="SourceGraphic" in2="BackgroundImageFix" result="shape"/>
<feGaussianBlur stdDeviation="1.05187" result="effect1_foregroundBlur_2441_5241"/>
</filter>
<filter id="filter3_f_2441_5241" x="7.37077" y="53.7223" width="131.017" height="131.017" filterUnits="userSpaceOnUse" color-interpolation-filters="sRGB">
<feFlood flood-opacity="0" result="BackgroundImageFix"/>
<feBlend mode="normal" in="SourceGraphic" in2="BackgroundImageFix" result="shape"/>
<feGaussianBlur stdDeviation="7.18424" result="effect1_foregroundBlur_2441_5241"/>
</filter>
<filter id="filter4_f_2441_5241" x="59.2422" y="104.926" width="29.9536" height="31.3486" filterUnits="userSpaceOnUse" color-interpolation-filters="sRGB">
<feFlood flood-opacity="0" result="BackgroundImageFix"/>
<feBlend mode="normal" in="SourceGraphic" in2="BackgroundImageFix" result="shape"/>
<feGaussianBlur stdDeviation="1.18919" result="effect1_foregroundBlur_2441_5241"/>
</filter>
<filter id="filter5_f_2441_5241" x="276.629" y="186.257" width="13.8186" height="58.6545" filterUnits="userSpaceOnUse" color-interpolation-filters="sRGB">
<feFlood flood-opacity="0" result="BackgroundImageFix"/>
<feBlend mode="normal" in="SourceGraphic" in2="BackgroundImageFix" result="shape"/>
<feGaussianBlur stdDeviation="1.3277" result="effect1_foregroundBlur_2441_5241"/>
</filter>
<filter id="filter6_f_2441_5241" x="265.792" y="158.559" width="13.8186" height="79.6545" filterUnits="userSpaceOnUse" color-interpolation-filters="sRGB">
<feFlood flood-opacity="0" result="BackgroundImageFix"/>
<feBlend mode="normal" in="SourceGraphic" in2="BackgroundImageFix" result="shape"/>
<feGaussianBlur stdDeviation="1.3277" result="effect1_foregroundBlur_2441_5241"/>
</filter>
<filter id="filter7_f_2441_5241" x="265.525" y="274.831" width="12.5759" height="16.4636" filterUnits="userSpaceOnUse" color-interpolation-filters="sRGB">
<feFlood flood-opacity="0" result="BackgroundImageFix"/>
<feBlend mode="normal" in="SourceGraphic" in2="BackgroundImageFix" result="shape"/>
<feGaussianBlur stdDeviation="1.3277" result="effect1_foregroundBlur_2441_5241"/>
</filter>
<filter id="filter8_f_2441_5241" x="288.008" y="293.818" width="13.8186" height="79.6545" filterUnits="userSpaceOnUse" color-interpolation-filters="sRGB">
<feFlood flood-opacity="0" result="BackgroundImageFix"/>
<feBlend mode="normal" in="SourceGraphic" in2="BackgroundImageFix" result="shape"/>
<feGaussianBlur stdDeviation="1.3277" result="effect1_foregroundBlur_2441_5241"/>
</filter>
<filter id="filter9_f_2441_5241" x="290.641" y="262.828" width="13.8186" height="16.8459" filterUnits="userSpaceOnUse" color-interpolation-filters="sRGB">
<feFlood flood-opacity="0" result="BackgroundImageFix"/>
<feBlend mode="normal" in="SourceGraphic" in2="BackgroundImageFix" result="shape"/>
<feGaussianBlur stdDeviation="1.3277" result="effect1_foregroundBlur_2441_5241"/>
</filter>
<filter id="filter10_f_2441_5241" x="288.284" y="205.743" width="13.8186" height="58.8459" filterUnits="userSpaceOnUse" color-interpolation-filters="sRGB">
<feFlood flood-opacity="0" result="BackgroundImageFix"/>
<feBlend mode="normal" in="SourceGraphic" in2="BackgroundImageFix" result="shape"/>
<feGaussianBlur stdDeviation="1.3277" result="effect1_foregroundBlur_2441_5241"/>
</filter>
<linearGradient id="paint0_linear_2441_5241" x1="145.902" y1="138.481" x2="200.024" y2="235.383" gradientUnits="userSpaceOnUse">
<stop stop-color="#054F77" stop-opacity="0"/>
<stop offset="1" stop-color="#8CFF00"/>
</linearGradient>
<linearGradient id="paint1_linear_2441_5241" x1="3.59424" y1="0" x2="3.59424" y2="12.679" gradientUnits="userSpaceOnUse">
<stop stop-color="#054F77"/>
<stop offset="1" stop-color="#8CFF00"/>
</linearGradient>
<linearGradient id="paint2_linear_2441_5241" x1="3.59424" y1="0" x2="3.59424" y2="12.679" gradientUnits="userSpaceOnUse">
<stop stop-color="#054F77"/>
<stop offset="1" stop-color="#8CFF00"/>
</linearGradient>
<linearGradient id="paint3_linear_2441_5241" x1="41.106" y1="132.571" x2="106.303" y2="124.153" gradientUnits="userSpaceOnUse">
<stop stop-color="#054F77"/>
<stop offset="0.971875" stop-color="#8CFF00"/>
</linearGradient>
<linearGradient id="paint4_linear_2441_5241" x1="25.9049" y1="97.7296" x2="106.993" y2="157.33" gradientUnits="userSpaceOnUse">
<stop stop-color="#054F77"/>
<stop offset="0.971875" stop-color="#8CFF00"/>
</linearGradient>
<radialGradient id="paint5_radial_2441_5241" cx="0" cy="0" r="1" gradientUnits="userSpaceOnUse" gradientTransform="translate(72.9988 90.2565) rotate(90) scale(53.3077)">
<stop stop-color="#F4FBFF"/>
<stop offset="1" stop-color="#054F77" stop-opacity="0"/>
</radialGradient>
<linearGradient id="paint6_linear_2441_5241" x1="295.999" y1="167.253" x2="295.999" y2="178.626" gradientUnits="userSpaceOnUse">
<stop stop-color="#054F77"/>
<stop offset="1" stop-color="#8CFF00"/>
</linearGradient>
<radialGradient id="paint7_radial_2441_5241" cx="0" cy="0" r="1" gradientUnits="userSpaceOnUse" gradientTransform="translate(295.508 168.491) rotate(83.0538) scale(3.93796)">
<stop stop-color="#8CFF00"/>
<stop offset="1" stop-color="#054F77"/>
</radialGradient>
<linearGradient id="paint8_linear_2441_5241" x1="278.577" y1="120.407" x2="278.577" y2="148.025" gradientUnits="userSpaceOnUse">
<stop stop-color="#054F77"/>
<stop offset="1" stop-color="#8CFF00"/>
</linearGradient>
<radialGradient id="paint9_radial_2441_5241" cx="0" cy="0" r="1" gradientUnits="userSpaceOnUse" gradientTransform="translate(277.385 123.413) rotate(83.0538) scale(9.56302)">
<stop stop-color="#8CFF00"/>
<stop offset="1" stop-color="#054F77"/>
</radialGradient>
<linearGradient id="paint10_linear_2441_5241" x1="274.747" y1="322.484" x2="274.747" y2="339.763" gradientUnits="userSpaceOnUse">
<stop stop-color="#054F77"/>
<stop offset="1" stop-color="#8CFF00"/>
</linearGradient>
<radialGradient id="paint11_radial_2441_5241" cx="0" cy="0" r="1" gradientUnits="userSpaceOnUse" gradientTransform="translate(274 324.365) rotate(83.0538) scale(5.98295)">
<stop stop-color="#8CFF00"/>
<stop offset="1" stop-color="#054F77"/>
</radialGradient>
<linearGradient id="paint12_linear_2441_5241" x1="282.751" y1="176.604" x2="282.751" y2="211.975" gradientUnits="userSpaceOnUse">
<stop stop-color="#063C5B"/>
<stop offset="1" stop-color="#052233"/>
</linearGradient>
<linearGradient id="paint13_linear_2441_5241" x1="288.435" y1="120.539" x2="271.477" y2="335.541" gradientUnits="userSpaceOnUse">
<stop stop-color="#054F77" stop-opacity="0"/>
<stop offset="0.576042" stop-color="#83DDDD" stop-opacity="0.92"/>
<stop offset="1" stop-color="#054F77" stop-opacity="0"/>
</linearGradient>
<linearGradient id="paint14_linear_2441_5241" x1="277.715" y1="204.197" x2="277.715" y2="209.887" gradientUnits="userSpaceOnUse">
<stop stop-color="#054F77"/>
<stop offset="1" stop-color="#8CFF00"/>
</linearGradient>
<radialGradient id="paint15_radial_2441_5241" cx="0" cy="0" r="1" gradientUnits="userSpaceOnUse" gradientTransform="translate(277.47 204.816) rotate(83.0538) scale(1.97007)">
<stop stop-color="#8CFF00"/>
<stop offset="1" stop-color="#054F77"/>
</radialGradient>
<linearGradient id="paint16_linear_2441_5241" x1="290.911" y1="275.597" x2="290.911" y2="281.287" gradientUnits="userSpaceOnUse">
<stop stop-color="#054F77"/>
<stop offset="1" stop-color="#8CFF00"/>
</linearGradient>
<radialGradient id="paint17_radial_2441_5241" cx="0" cy="0" r="1" gradientUnits="userSpaceOnUse" gradientTransform="translate(290.665 276.216) rotate(83.0538) scale(1.97007)">
<stop stop-color="#8CFF00"/>
<stop offset="1" stop-color="#054F77"/>
</radialGradient>
<linearGradient id="paint18_linear_2441_5241" x1="267.387" y1="253.643" x2="267.387" y2="264.616" gradientUnits="userSpaceOnUse">
<stop stop-color="#054F77"/>
<stop offset="1" stop-color="#8CFF00"/>
</linearGradient>
<radialGradient id="paint19_radial_2441_5241" cx="0" cy="0" r="1" gradientUnits="userSpaceOnUse" gradientTransform="translate(266.913 254.838) rotate(83.0538) scale(3.79947)">
<stop stop-color="#8CFF00"/>
<stop offset="1" stop-color="#054F77"/>
</radialGradient>
<linearGradient id="paint20_linear_2441_5241" x1="231.01" y1="230.541" x2="305.205" y2="230.541" gradientUnits="userSpaceOnUse">
<stop stop-color="#8CFF00"/>
<stop offset="1" stop-color="#F4FBFF" stop-opacity="0.68"/>
</linearGradient>
</defs>
</svg>
