<svg width="801" height="766" viewBox="0 0 801 766" fill="none" xmlns="http://www.w3.org/2000/svg">
<rect opacity="0.5" x="0.912109" y="0.874146" width="800" height="764.782" fill="url(#paint0_radial_1520_3580)"/>
<g opacity="0.5" filter="url(#filter0_f_1520_3580)">
<path d="M364.386 141.895C364.081 141.895 363.81 141.81 363.575 141.641C363.343 141.471 363.162 141.229 363.03 140.917C362.903 140.604 362.839 140.231 362.839 139.799C362.839 139.366 362.903 138.994 363.03 138.681C363.162 138.368 363.343 138.127 363.575 137.957C363.81 137.787 364.081 137.702 364.386 137.702C364.695 137.702 364.965 137.787 365.197 137.957C365.428 138.127 365.608 138.368 365.735 138.681C365.867 138.994 365.932 139.366 365.932 139.799C365.932 140.231 365.867 140.604 365.735 140.917C365.608 141.229 365.428 141.471 365.197 141.641C364.965 141.81 364.695 141.895 364.386 141.895ZM363.337 139.799C363.337 140.061 363.364 140.299 363.419 140.511C363.476 140.72 363.556 140.895 363.656 141.038L364.78 138.252C364.66 138.187 364.529 138.154 364.386 138.154C364.181 138.154 364 138.221 363.841 138.357C363.683 138.488 363.559 138.677 363.471 138.924C363.382 139.167 363.337 139.459 363.337 139.799ZM364.386 141.449C364.59 141.449 364.772 141.384 364.93 141.253C365.089 141.117 365.212 140.926 365.301 140.679C365.39 140.432 365.434 140.139 365.434 139.799C365.434 139.536 365.405 139.301 365.347 139.092C365.293 138.88 365.216 138.702 365.116 138.559L363.986 141.351C364.11 141.417 364.243 141.449 364.386 141.449ZM363.054 151.826V151.386H364.102V148.345L363.112 148.536V148.165L364.264 147.772H364.589V151.386H365.695V151.826H363.054ZM364.386 161.895C364.081 161.895 363.81 161.81 363.575 161.641C363.343 161.471 363.162 161.229 363.03 160.917C362.903 160.604 362.839 160.231 362.839 159.799C362.839 159.366 362.903 158.994 363.03 158.681C363.162 158.368 363.343 158.127 363.575 157.957C363.81 157.787 364.081 157.702 364.386 157.702C364.695 157.702 364.965 157.787 365.197 157.957C365.428 158.127 365.608 158.368 365.735 158.681C365.867 158.994 365.932 159.366 365.932 159.799C365.932 160.231 365.867 160.604 365.735 160.917C365.608 161.229 365.428 161.471 365.197 161.641C364.965 161.81 364.695 161.895 364.386 161.895ZM363.337 159.799C363.337 160.061 363.364 160.299 363.419 160.511C363.476 160.72 363.556 160.895 363.656 161.038L364.78 158.252C364.66 158.187 364.529 158.154 364.386 158.154C364.181 158.154 364 158.221 363.841 158.357C363.683 158.488 363.559 158.677 363.471 158.924C363.382 159.167 363.337 159.459 363.337 159.799ZM364.386 161.449C364.59 161.449 364.772 161.384 364.93 161.253C365.089 161.117 365.212 160.926 365.301 160.679C365.39 160.432 365.434 160.139 365.434 159.799C365.434 159.536 365.405 159.301 365.347 159.092C365.293 158.88 365.216 158.702 365.116 158.559L363.986 161.351C364.11 161.417 364.243 161.449 364.386 161.449ZM363.054 171.826V171.386H364.102V168.345L363.112 168.536V168.165L364.264 167.772H364.589V171.386H365.695V171.826H363.054ZM364.386 181.895C364.081 181.895 363.81 181.81 363.575 181.641C363.343 181.471 363.162 181.229 363.03 180.917C362.903 180.604 362.839 180.231 362.839 179.799C362.839 179.366 362.903 178.994 363.03 178.681C363.162 178.368 363.343 178.127 363.575 177.957C363.81 177.787 364.081 177.702 364.386 177.702C364.695 177.702 364.965 177.787 365.197 177.957C365.428 178.127 365.608 178.368 365.735 178.681C365.867 178.994 365.932 179.366 365.932 179.799C365.932 180.231 365.867 180.604 365.735 180.917C365.608 181.229 365.428 181.471 365.197 181.641C364.965 181.81 364.695 181.895 364.386 181.895ZM363.337 179.799C363.337 180.061 363.364 180.299 363.419 180.511C363.476 180.72 363.556 180.895 363.656 181.038L364.78 178.252C364.66 178.187 364.529 178.154 364.386 178.154C364.181 178.154 364 178.221 363.841 178.357C363.683 178.488 363.559 178.677 363.471 178.924C363.382 179.167 363.337 179.459 363.337 179.799ZM364.386 181.449C364.59 181.449 364.772 181.384 364.93 181.253C365.089 181.117 365.212 180.926 365.301 180.679C365.39 180.432 365.434 180.139 365.434 179.799C365.434 179.536 365.405 179.301 365.347 179.092C365.293 178.88 365.216 178.702 365.116 178.559L363.986 181.351C364.11 181.417 364.243 181.449 364.386 181.449ZM363.054 191.826V191.386H364.102V188.345L363.112 188.536V188.165L364.264 187.772H364.589V191.386H365.695V191.826H363.054ZM364.386 201.895C364.081 201.895 363.81 201.81 363.575 201.641C363.343 201.471 363.162 201.229 363.03 200.917C362.903 200.604 362.839 200.231 362.839 199.799C362.839 199.366 362.903 198.994 363.03 198.681C363.162 198.368 363.343 198.127 363.575 197.957C363.81 197.787 364.081 197.702 364.386 197.702C364.695 197.702 364.965 197.787 365.197 197.957C365.428 198.127 365.608 198.368 365.735 198.681C365.867 198.994 365.932 199.366 365.932 199.799C365.932 200.231 365.867 200.604 365.735 200.917C365.608 201.229 365.428 201.471 365.197 201.641C364.965 201.81 364.695 201.895 364.386 201.895ZM363.337 199.799C363.337 200.061 363.364 200.299 363.419 200.511C363.476 200.72 363.556 200.895 363.656 201.038L364.78 198.252C364.66 198.187 364.529 198.154 364.386 198.154C364.181 198.154 364 198.221 363.841 198.357C363.683 198.488 363.559 198.677 363.471 198.924C363.382 199.167 363.337 199.459 363.337 199.799ZM364.386 201.449C364.59 201.449 364.772 201.384 364.93 201.253C365.089 201.117 365.212 200.926 365.301 200.679C365.39 200.432 365.434 200.139 365.434 199.799C365.434 199.536 365.405 199.301 365.347 199.092C365.293 198.88 365.216 198.702 365.116 198.559L363.986 201.351C364.11 201.417 364.243 201.449 364.386 201.449ZM363.054 210.826V210.386H364.102V207.345L363.112 207.536V207.165L364.264 206.772H364.589V210.386H365.695V210.826H363.054Z" fill="#054F77"/>
<path d="M363.575 141.641L363.432 141.835L363.434 141.836L363.575 141.641ZM363.03 140.917L362.807 141.008L362.808 141.01L363.03 140.917ZM363.03 138.681L362.808 138.587L362.807 138.59L363.03 138.681ZM363.575 137.957L363.434 137.761L363.432 137.762L363.575 137.957ZM365.197 137.957L365.339 137.762L365.339 137.762L365.197 137.957ZM365.735 138.681L365.512 138.772L365.513 138.774L365.735 138.681ZM365.735 140.917L365.513 140.823L365.512 140.826L365.735 140.917ZM365.197 141.641L365.339 141.835L365.339 141.835L365.197 141.641ZM363.419 140.511L363.185 140.571L363.186 140.576L363.419 140.511ZM363.656 141.038L363.459 141.177L363.714 141.54L363.88 141.128L363.656 141.038ZM364.78 138.252L365.003 138.343L365.084 138.144L364.896 138.041L364.78 138.252ZM363.841 138.357L363.995 138.542L363.998 138.54L363.841 138.357ZM363.471 138.924L363.697 139.007L363.698 139.006L363.471 138.924ZM364.93 141.253L365.084 141.438L365.087 141.436L364.93 141.253ZM365.347 139.092L365.113 139.152L365.115 139.157L365.347 139.092ZM365.116 138.559L365.313 138.421L365.058 138.058L364.892 138.469L365.116 138.559ZM363.986 141.351L363.762 141.26L363.681 141.462L363.873 141.564L363.986 141.351ZM364.386 141.654C364.129 141.654 363.908 141.584 363.716 141.445L363.434 141.836C363.713 142.037 364.033 142.137 364.386 142.137V141.654ZM363.718 141.446C363.527 141.306 363.37 141.103 363.253 140.823L362.808 141.01C362.953 141.356 363.159 141.635 363.432 141.835L363.718 141.446ZM363.254 140.826C363.141 140.549 363.081 140.208 363.081 139.799H362.598C362.598 140.254 362.665 140.659 362.807 141.008L363.254 140.826ZM363.081 139.799C363.081 139.389 363.141 139.049 363.254 138.772L362.807 138.59C362.665 138.938 362.598 139.343 362.598 139.799H363.081ZM363.253 138.774C363.37 138.495 363.527 138.291 363.718 138.152L363.432 137.762C363.159 137.962 362.953 138.242 362.808 138.587L363.253 138.774ZM363.716 138.153C363.908 138.014 364.129 137.943 364.386 137.943V137.461C364.033 137.461 363.713 137.56 363.434 137.761L363.716 138.153ZM364.386 137.943C364.647 137.943 364.867 138.014 365.054 138.152L365.339 137.762C365.063 137.56 364.742 137.461 364.386 137.461V137.943ZM365.054 138.152C365.244 138.291 365.398 138.493 365.512 138.772L365.959 138.59C365.818 138.243 365.613 137.963 365.339 137.762L365.054 138.152ZM365.513 138.774C365.629 139.051 365.691 139.39 365.691 139.799H366.174C366.174 139.343 366.104 138.937 365.958 138.587L365.513 138.774ZM365.691 139.799C365.691 140.208 365.629 140.547 365.513 140.823L365.958 141.01C366.104 140.661 366.174 140.255 366.174 139.799H365.691ZM365.512 140.826C365.398 141.104 365.244 141.307 365.054 141.446L365.339 141.835C365.613 141.635 365.818 141.354 365.959 141.008L365.512 140.826ZM365.054 141.446C364.867 141.583 364.647 141.654 364.386 141.654V142.137C364.742 142.137 365.063 142.038 365.339 141.835L365.054 141.446ZM363.096 139.799C363.096 140.078 363.125 140.335 363.185 140.571L363.652 140.452C363.604 140.262 363.579 140.045 363.579 139.799H363.096ZM363.186 140.576C363.25 140.805 363.339 141.007 363.459 141.177L363.853 140.899C363.772 140.784 363.703 140.635 363.651 140.447L363.186 140.576ZM363.88 141.128L365.003 138.343L364.556 138.162L363.432 140.948L363.88 141.128ZM364.896 138.041C364.739 137.955 364.567 137.913 364.386 137.913V138.395C364.49 138.395 364.581 138.419 364.664 138.464L364.896 138.041ZM364.386 137.913C364.123 137.913 363.886 138.001 363.685 138.173L363.998 138.54C364.113 138.442 364.24 138.395 364.386 138.395V137.913ZM363.687 138.171C363.488 138.336 363.343 138.566 363.244 138.843L363.698 139.006C363.776 138.788 363.878 138.639 363.995 138.542L363.687 138.171ZM363.244 138.841C363.143 139.118 363.096 139.439 363.096 139.799H363.579C363.579 139.479 363.621 139.217 363.697 139.007L363.244 138.841ZM364.386 141.691C364.647 141.691 364.883 141.605 365.084 141.438L364.776 141.067C364.661 141.162 364.534 141.208 364.386 141.208V141.691ZM365.087 141.436C365.285 141.267 365.429 141.037 365.528 140.761L365.074 140.598C364.996 140.815 364.893 140.967 364.774 141.069L365.087 141.436ZM365.528 140.761C365.629 140.481 365.675 140.159 365.675 139.799H365.193C365.193 140.118 365.151 140.383 365.074 140.598L365.528 140.761ZM365.675 139.799C365.675 139.519 365.645 139.261 365.58 139.028L365.115 139.157C365.166 139.34 365.193 139.554 365.193 139.799H365.675ZM365.581 139.033C365.522 138.799 365.434 138.593 365.313 138.421L364.918 138.698C364.998 138.812 365.065 138.961 365.113 139.152L365.581 139.033ZM364.892 138.469L363.762 141.26L364.21 141.441L365.339 138.65L364.892 138.469ZM363.873 141.564C364.032 141.649 364.204 141.691 364.386 141.691V141.208C364.282 141.208 364.187 141.185 364.099 141.138L363.873 141.564ZM363.054 151.826H362.812V152.067H363.054V151.826ZM363.054 151.386V151.144H362.812V151.386H363.054ZM364.102 151.386V151.627H364.343V151.386H364.102ZM364.102 148.345H364.343V148.053L364.056 148.108L364.102 148.345ZM363.112 148.536H362.87V148.828L363.157 148.773L363.112 148.536ZM363.112 148.165L363.034 147.937L362.87 147.993V148.165H363.112ZM364.264 147.772V147.53H364.224L364.186 147.543L364.264 147.772ZM364.589 147.772H364.83V147.53H364.589V147.772ZM364.589 151.386H364.347V151.627H364.589V151.386ZM365.695 151.386H365.936V151.144H365.695V151.386ZM365.695 151.826V152.067H365.936V151.826H365.695ZM363.295 151.826V151.386H362.812V151.826H363.295ZM363.054 151.627H364.102V151.144H363.054V151.627ZM364.343 151.386V148.345H363.861V151.386H364.343ZM364.056 148.108L363.066 148.299L363.157 148.773L364.148 148.582L364.056 148.108ZM363.353 148.536V148.165H362.87V148.536H363.353ZM363.19 148.394L364.342 148L364.186 147.543L363.034 147.937L363.19 148.394ZM364.264 148.013H364.589V147.53H364.264V148.013ZM364.347 147.772V151.386H364.83V147.772H364.347ZM364.589 151.627H365.695V151.144H364.589V151.627ZM365.453 151.386V151.826H365.936V151.386H365.453ZM365.695 151.585H363.054V152.067H365.695V151.585ZM363.575 161.641L363.432 161.835L363.434 161.836L363.575 161.641ZM363.03 160.917L362.807 161.008L362.808 161.01L363.03 160.917ZM363.03 158.681L362.808 158.587L362.807 158.59L363.03 158.681ZM363.575 157.957L363.434 157.761L363.432 157.762L363.575 157.957ZM365.197 157.957L365.339 157.762L365.339 157.762L365.197 157.957ZM365.735 158.681L365.512 158.772L365.513 158.774L365.735 158.681ZM365.735 160.917L365.513 160.823L365.512 160.826L365.735 160.917ZM365.197 161.641L365.339 161.835L365.339 161.835L365.197 161.641ZM363.419 160.511L363.185 160.571L363.186 160.576L363.419 160.511ZM363.656 161.038L363.459 161.177L363.714 161.54L363.88 161.128L363.656 161.038ZM364.78 158.252L365.003 158.343L365.084 158.144L364.896 158.041L364.78 158.252ZM363.841 158.357L363.995 158.542L363.998 158.54L363.841 158.357ZM363.471 158.924L363.697 159.007L363.698 159.006L363.471 158.924ZM364.93 161.253L365.084 161.438L365.087 161.436L364.93 161.253ZM365.347 159.092L365.113 159.152L365.115 159.157L365.347 159.092ZM365.116 158.559L365.313 158.421L365.058 158.058L364.892 158.469L365.116 158.559ZM363.986 161.351L363.762 161.26L363.681 161.462L363.873 161.564L363.986 161.351ZM364.386 161.654C364.129 161.654 363.908 161.584 363.716 161.445L363.434 161.836C363.713 162.037 364.033 162.137 364.386 162.137V161.654ZM363.718 161.446C363.527 161.306 363.37 161.103 363.253 160.823L362.808 161.01C362.953 161.356 363.159 161.635 363.432 161.835L363.718 161.446ZM363.254 160.826C363.141 160.549 363.081 160.208 363.081 159.799H362.598C362.598 160.254 362.665 160.659 362.807 161.008L363.254 160.826ZM363.081 159.799C363.081 159.389 363.141 159.049 363.254 158.772L362.807 158.59C362.665 158.938 362.598 159.343 362.598 159.799H363.081ZM363.253 158.774C363.37 158.495 363.527 158.291 363.718 158.152L363.432 157.762C363.159 157.962 362.953 158.242 362.808 158.587L363.253 158.774ZM363.716 158.153C363.908 158.014 364.129 157.943 364.386 157.943V157.461C364.033 157.461 363.713 157.56 363.434 157.761L363.716 158.153ZM364.386 157.943C364.647 157.943 364.867 158.014 365.054 158.152L365.339 157.762C365.063 157.56 364.742 157.461 364.386 157.461V157.943ZM365.054 158.152C365.244 158.291 365.398 158.493 365.512 158.772L365.959 158.59C365.818 158.243 365.613 157.963 365.339 157.762L365.054 158.152ZM365.513 158.774C365.629 159.051 365.691 159.39 365.691 159.799H366.174C366.174 159.343 366.104 158.937 365.958 158.587L365.513 158.774ZM365.691 159.799C365.691 160.208 365.629 160.547 365.513 160.823L365.958 161.01C366.104 160.661 366.174 160.255 366.174 159.799H365.691ZM365.512 160.826C365.398 161.104 365.244 161.307 365.054 161.446L365.339 161.835C365.613 161.635 365.818 161.354 365.959 161.008L365.512 160.826ZM365.054 161.446C364.867 161.583 364.647 161.654 364.386 161.654V162.137C364.742 162.137 365.063 162.038 365.339 161.835L365.054 161.446ZM363.096 159.799C363.096 160.078 363.125 160.335 363.185 160.571L363.652 160.452C363.604 160.262 363.579 160.045 363.579 159.799H363.096ZM363.186 160.576C363.25 160.805 363.339 161.007 363.459 161.177L363.853 160.899C363.772 160.784 363.703 160.635 363.651 160.447L363.186 160.576ZM363.88 161.128L365.003 158.343L364.556 158.162L363.432 160.948L363.88 161.128ZM364.896 158.041C364.739 157.955 364.567 157.913 364.386 157.913V158.395C364.49 158.395 364.581 158.419 364.664 158.464L364.896 158.041ZM364.386 157.913C364.123 157.913 363.886 158.001 363.685 158.173L363.998 158.54C364.113 158.442 364.24 158.395 364.386 158.395V157.913ZM363.687 158.171C363.488 158.336 363.343 158.566 363.244 158.843L363.698 159.006C363.776 158.788 363.878 158.639 363.995 158.542L363.687 158.171ZM363.244 158.841C363.143 159.118 363.096 159.439 363.096 159.799H363.579C363.579 159.479 363.621 159.217 363.697 159.007L363.244 158.841ZM364.386 161.691C364.647 161.691 364.883 161.605 365.084 161.438L364.776 161.067C364.661 161.162 364.534 161.208 364.386 161.208V161.691ZM365.087 161.436C365.285 161.267 365.429 161.037 365.528 160.761L365.074 160.598C364.996 160.815 364.893 160.967 364.774 161.069L365.087 161.436ZM365.528 160.761C365.629 160.481 365.675 160.159 365.675 159.799H365.193C365.193 160.118 365.151 160.383 365.074 160.598L365.528 160.761ZM365.675 159.799C365.675 159.519 365.645 159.261 365.58 159.028L365.115 159.157C365.166 159.34 365.193 159.554 365.193 159.799H365.675ZM365.581 159.033C365.522 158.799 365.434 158.593 365.313 158.421L364.918 158.698C364.998 158.812 365.065 158.961 365.113 159.152L365.581 159.033ZM364.892 158.469L363.762 161.26L364.21 161.441L365.339 158.65L364.892 158.469ZM363.873 161.564C364.032 161.649 364.204 161.691 364.386 161.691V161.208C364.282 161.208 364.187 161.185 364.099 161.138L363.873 161.564ZM363.054 171.826H362.812V172.067H363.054V171.826ZM363.054 171.386V171.144H362.812V171.386H363.054ZM364.102 171.386V171.627H364.343V171.386H364.102ZM364.102 168.345H364.343V168.053L364.056 168.108L364.102 168.345ZM363.112 168.536H362.87V168.828L363.157 168.773L363.112 168.536ZM363.112 168.165L363.034 167.937L362.87 167.993V168.165H363.112ZM364.264 167.772V167.53H364.224L364.186 167.543L364.264 167.772ZM364.589 167.772H364.83V167.53H364.589V167.772ZM364.589 171.386H364.347V171.627H364.589V171.386ZM365.695 171.386H365.936V171.144H365.695V171.386ZM365.695 171.826V172.067H365.936V171.826H365.695ZM363.295 171.826V171.386H362.812V171.826H363.295ZM363.054 171.627H364.102V171.144H363.054V171.627ZM364.343 171.386V168.345H363.861V171.386H364.343ZM364.056 168.108L363.066 168.299L363.157 168.773L364.148 168.582L364.056 168.108ZM363.353 168.536V168.165H362.87V168.536H363.353ZM363.19 168.394L364.342 168L364.186 167.543L363.034 167.937L363.19 168.394ZM364.264 168.013H364.589V167.53H364.264V168.013ZM364.347 167.772V171.386H364.83V167.772H364.347ZM364.589 171.627H365.695V171.144H364.589V171.627ZM365.453 171.386V171.826H365.936V171.386H365.453ZM365.695 171.585H363.054V172.067H365.695V171.585ZM363.575 181.641L363.432 181.835L363.434 181.836L363.575 181.641ZM363.03 180.917L362.807 181.008L362.808 181.01L363.03 180.917ZM363.03 178.681L362.808 178.587L362.807 178.59L363.03 178.681ZM363.575 177.957L363.434 177.761L363.432 177.762L363.575 177.957ZM365.197 177.957L365.339 177.762L365.339 177.762L365.197 177.957ZM365.735 178.681L365.512 178.772L365.513 178.774L365.735 178.681ZM365.735 180.917L365.513 180.823L365.512 180.826L365.735 180.917ZM365.197 181.641L365.339 181.835L365.339 181.835L365.197 181.641ZM363.419 180.511L363.185 180.571L363.186 180.576L363.419 180.511ZM363.656 181.038L363.459 181.177L363.714 181.54L363.88 181.128L363.656 181.038ZM364.78 178.252L365.003 178.343L365.084 178.144L364.896 178.041L364.78 178.252ZM363.841 178.357L363.995 178.542L363.998 178.54L363.841 178.357ZM363.471 178.924L363.697 179.007L363.698 179.006L363.471 178.924ZM364.93 181.253L365.084 181.438L365.087 181.436L364.93 181.253ZM365.347 179.092L365.113 179.152L365.115 179.157L365.347 179.092ZM365.116 178.559L365.313 178.421L365.058 178.058L364.892 178.469L365.116 178.559ZM363.986 181.351L363.762 181.26L363.681 181.462L363.873 181.564L363.986 181.351ZM364.386 181.654C364.129 181.654 363.908 181.584 363.716 181.445L363.434 181.836C363.713 182.037 364.033 182.137 364.386 182.137V181.654ZM363.718 181.446C363.527 181.306 363.37 181.103 363.253 180.823L362.808 181.01C362.953 181.356 363.159 181.635 363.432 181.835L363.718 181.446ZM363.254 180.826C363.141 180.549 363.081 180.208 363.081 179.799H362.598C362.598 180.254 362.665 180.659 362.807 181.008L363.254 180.826ZM363.081 179.799C363.081 179.389 363.141 179.049 363.254 178.772L362.807 178.59C362.665 178.938 362.598 179.343 362.598 179.799H363.081ZM363.253 178.774C363.37 178.495 363.527 178.291 363.718 178.152L363.432 177.762C363.159 177.962 362.953 178.242 362.808 178.587L363.253 178.774ZM363.716 178.153C363.908 178.014 364.129 177.943 364.386 177.943V177.461C364.033 177.461 363.713 177.56 363.434 177.761L363.716 178.153ZM364.386 177.943C364.647 177.943 364.867 178.014 365.054 178.152L365.339 177.762C365.063 177.56 364.742 177.461 364.386 177.461V177.943ZM365.054 178.152C365.244 178.291 365.398 178.493 365.512 178.772L365.959 178.59C365.818 178.243 365.613 177.963 365.339 177.762L365.054 178.152ZM365.513 178.774C365.629 179.051 365.691 179.39 365.691 179.799H366.174C366.174 179.343 366.104 178.937 365.958 178.587L365.513 178.774ZM365.691 179.799C365.691 180.208 365.629 180.547 365.513 180.823L365.958 181.01C366.104 180.661 366.174 180.255 366.174 179.799H365.691ZM365.512 180.826C365.398 181.104 365.244 181.307 365.054 181.446L365.339 181.835C365.613 181.635 365.818 181.354 365.959 181.008L365.512 180.826ZM365.054 181.446C364.867 181.583 364.647 181.654 364.386 181.654V182.137C364.742 182.137 365.063 182.038 365.339 181.835L365.054 181.446ZM363.096 179.799C363.096 180.078 363.125 180.335 363.185 180.571L363.652 180.452C363.604 180.262 363.579 180.045 363.579 179.799H363.096ZM363.186 180.576C363.25 180.805 363.339 181.007 363.459 181.177L363.853 180.899C363.772 180.784 363.703 180.635 363.651 180.447L363.186 180.576ZM363.88 181.128L365.003 178.343L364.556 178.162L363.432 180.948L363.88 181.128ZM364.896 178.041C364.739 177.955 364.567 177.913 364.386 177.913V178.395C364.49 178.395 364.581 178.419 364.664 178.464L364.896 178.041ZM364.386 177.913C364.123 177.913 363.886 178.001 363.685 178.173L363.998 178.54C364.113 178.442 364.24 178.395 364.386 178.395V177.913ZM363.687 178.171C363.488 178.336 363.343 178.566 363.244 178.843L363.698 179.006C363.776 178.788 363.878 178.639 363.995 178.542L363.687 178.171ZM363.244 178.841C363.143 179.118 363.096 179.439 363.096 179.799H363.579C363.579 179.479 363.621 179.217 363.697 179.007L363.244 178.841ZM364.386 181.691C364.647 181.691 364.883 181.605 365.084 181.438L364.776 181.067C364.661 181.162 364.534 181.208 364.386 181.208V181.691ZM365.087 181.436C365.285 181.267 365.429 181.037 365.528 180.761L365.074 180.598C364.996 180.815 364.893 180.967 364.774 181.069L365.087 181.436ZM365.528 180.761C365.629 180.481 365.675 180.159 365.675 179.799H365.193C365.193 180.118 365.151 180.383 365.074 180.598L365.528 180.761ZM365.675 179.799C365.675 179.519 365.645 179.261 365.58 179.028L365.115 179.157C365.166 179.34 365.193 179.554 365.193 179.799H365.675ZM365.581 179.033C365.522 178.799 365.434 178.593 365.313 178.421L364.918 178.698C364.998 178.812 365.065 178.961 365.113 179.152L365.581 179.033ZM364.892 178.469L363.762 181.26L364.21 181.441L365.339 178.65L364.892 178.469ZM363.873 181.564C364.032 181.649 364.204 181.691 364.386 181.691V181.208C364.282 181.208 364.187 181.185 364.099 181.138L363.873 181.564ZM363.054 191.826H362.812V192.067H363.054V191.826ZM363.054 191.386V191.144H362.812V191.386H363.054ZM364.102 191.386V191.627H364.343V191.386H364.102ZM364.102 188.345H364.343V188.053L364.056 188.108L364.102 188.345ZM363.112 188.536H362.87V188.828L363.157 188.773L363.112 188.536ZM363.112 188.165L363.034 187.937L362.87 187.993V188.165H363.112ZM364.264 187.772V187.53H364.224L364.186 187.543L364.264 187.772ZM364.589 187.772H364.83V187.53H364.589V187.772ZM364.589 191.386H364.347V191.627H364.589V191.386ZM365.695 191.386H365.936V191.144H365.695V191.386ZM365.695 191.826V192.067H365.936V191.826H365.695ZM363.295 191.826V191.386H362.812V191.826H363.295ZM363.054 191.627H364.102V191.144H363.054V191.627ZM364.343 191.386V188.345H363.861V191.386H364.343ZM364.056 188.108L363.066 188.299L363.157 188.773L364.148 188.582L364.056 188.108ZM363.353 188.536V188.165H362.87V188.536H363.353ZM363.19 188.394L364.342 188L364.186 187.543L363.034 187.937L363.19 188.394ZM364.264 188.013H364.589V187.53H364.264V188.013ZM364.347 187.772V191.386H364.83V187.772H364.347ZM364.589 191.627H365.695V191.144H364.589V191.627ZM365.453 191.386V191.826H365.936V191.386H365.453ZM365.695 191.585H363.054V192.067H365.695V191.585ZM363.575 201.641L363.432 201.835L363.434 201.836L363.575 201.641ZM363.03 200.917L362.807 201.008L362.808 201.01L363.03 200.917ZM363.03 198.681L362.808 198.587L362.807 198.59L363.03 198.681ZM363.575 197.957L363.434 197.761L363.432 197.762L363.575 197.957ZM365.197 197.957L365.339 197.762L365.339 197.762L365.197 197.957ZM365.735 198.681L365.512 198.772L365.513 198.774L365.735 198.681ZM365.735 200.917L365.513 200.823L365.512 200.826L365.735 200.917ZM365.197 201.641L365.339 201.835L365.339 201.835L365.197 201.641ZM363.419 200.511L363.185 200.571L363.186 200.576L363.419 200.511ZM363.656 201.038L363.459 201.177L363.714 201.54L363.88 201.128L363.656 201.038ZM364.78 198.252L365.003 198.343L365.084 198.144L364.896 198.041L364.78 198.252ZM363.841 198.357L363.995 198.542L363.998 198.54L363.841 198.357ZM363.471 198.924L363.697 199.007L363.698 199.006L363.471 198.924ZM364.93 201.253L365.084 201.438L365.087 201.436L364.93 201.253ZM365.347 199.092L365.113 199.152L365.115 199.157L365.347 199.092ZM365.116 198.559L365.313 198.421L365.058 198.058L364.892 198.469L365.116 198.559ZM363.986 201.351L363.762 201.26L363.681 201.462L363.873 201.564L363.986 201.351ZM364.386 201.654C364.129 201.654 363.908 201.584 363.716 201.445L363.434 201.836C363.713 202.037 364.033 202.137 364.386 202.137V201.654ZM363.718 201.446C363.527 201.306 363.37 201.103 363.253 200.823L362.808 201.01C362.953 201.356 363.159 201.635 363.432 201.835L363.718 201.446ZM363.254 200.826C363.141 200.549 363.081 200.208 363.081 199.799H362.598C362.598 200.254 362.665 200.659 362.807 201.008L363.254 200.826ZM363.081 199.799C363.081 199.389 363.141 199.049 363.254 198.772L362.807 198.59C362.665 198.938 362.598 199.343 362.598 199.799H363.081ZM363.253 198.774C363.37 198.495 363.527 198.291 363.718 198.152L363.432 197.762C363.159 197.962 362.953 198.242 362.808 198.587L363.253 198.774ZM363.716 198.153C363.908 198.014 364.129 197.943 364.386 197.943V197.461C364.033 197.461 363.713 197.56 363.434 197.761L363.716 198.153ZM364.386 197.943C364.647 197.943 364.867 198.014 365.054 198.152L365.339 197.762C365.063 197.56 364.742 197.461 364.386 197.461V197.943ZM365.054 198.152C365.244 198.291 365.398 198.493 365.512 198.772L365.959 198.59C365.818 198.243 365.613 197.963 365.339 197.762L365.054 198.152ZM365.513 198.774C365.629 199.051 365.691 199.39 365.691 199.799H366.174C366.174 199.343 366.104 198.937 365.958 198.587L365.513 198.774ZM365.691 199.799C365.691 200.208 365.629 200.547 365.513 200.823L365.958 201.01C366.104 200.661 366.174 200.255 366.174 199.799H365.691ZM365.512 200.826C365.398 201.104 365.244 201.307 365.054 201.446L365.339 201.835C365.613 201.635 365.818 201.354 365.959 201.008L365.512 200.826ZM365.054 201.446C364.867 201.583 364.647 201.654 364.386 201.654V202.137C364.742 202.137 365.063 202.038 365.339 201.835L365.054 201.446ZM363.096 199.799C363.096 200.078 363.125 200.335 363.185 200.571L363.652 200.452C363.604 200.262 363.579 200.045 363.579 199.799H363.096ZM363.186 200.576C363.25 200.805 363.339 201.007 363.459 201.177L363.853 200.899C363.772 200.784 363.703 200.635 363.651 200.447L363.186 200.576ZM363.88 201.128L365.003 198.343L364.556 198.162L363.432 200.948L363.88 201.128ZM364.896 198.041C364.739 197.955 364.567 197.913 364.386 197.913V198.395C364.49 198.395 364.581 198.419 364.664 198.464L364.896 198.041ZM364.386 197.913C364.123 197.913 363.886 198.001 363.685 198.173L363.998 198.54C364.113 198.442 364.24 198.395 364.386 198.395V197.913ZM363.687 198.171C363.488 198.336 363.343 198.566 363.244 198.843L363.698 199.006C363.776 198.788 363.878 198.639 363.995 198.542L363.687 198.171ZM363.244 198.841C363.143 199.118 363.096 199.439 363.096 199.799H363.579C363.579 199.479 363.621 199.217 363.697 199.007L363.244 198.841ZM364.386 201.691C364.647 201.691 364.883 201.605 365.084 201.438L364.776 201.067C364.661 201.162 364.534 201.208 364.386 201.208V201.691ZM365.087 201.436C365.285 201.267 365.429 201.037 365.528 200.761L365.074 200.598C364.996 200.815 364.893 200.967 364.774 201.069L365.087 201.436ZM365.528 200.761C365.629 200.481 365.675 200.159 365.675 199.799H365.193C365.193 200.118 365.151 200.383 365.074 200.598L365.528 200.761ZM365.675 199.799C365.675 199.519 365.645 199.261 365.58 199.028L365.115 199.157C365.166 199.34 365.193 199.554 365.193 199.799H365.675ZM365.581 199.033C365.522 198.799 365.434 198.593 365.313 198.421L364.918 198.698C364.998 198.812 365.065 198.961 365.113 199.152L365.581 199.033ZM364.892 198.469L363.762 201.26L364.21 201.441L365.339 198.65L364.892 198.469ZM363.873 201.564C364.032 201.649 364.204 201.691 364.386 201.691V201.208C364.282 201.208 364.187 201.185 364.099 201.138L363.873 201.564ZM363.054 210.826H362.812V211.067H363.054V210.826ZM363.054 210.386V210.144H362.812V210.386H363.054ZM364.102 210.386V210.627H364.343V210.386H364.102ZM364.102 207.345H364.343V207.053L364.056 207.108L364.102 207.345ZM363.112 207.536H362.87V207.828L363.157 207.773L363.112 207.536ZM363.112 207.165L363.034 206.937L362.87 206.993V207.165H363.112ZM364.264 206.772V206.53H364.224L364.186 206.543L364.264 206.772ZM364.589 206.772H364.83V206.53H364.589V206.772ZM364.589 210.386H364.347V210.627H364.589V210.386ZM365.695 210.386H365.936V210.144H365.695V210.386ZM365.695 210.826V211.067H365.936V210.826H365.695ZM363.295 210.826V210.386H362.812V210.826H363.295ZM363.054 210.627H364.102V210.144H363.054V210.627ZM364.343 210.386V207.345H363.861V210.386H364.343ZM364.056 207.108L363.066 207.299L363.157 207.773L364.148 207.582L364.056 207.108ZM363.353 207.536V207.165H362.87V207.536H363.353ZM363.19 207.394L364.342 207L364.186 206.543L363.034 206.937L363.19 207.394ZM364.264 207.013H364.589V206.53H364.264V207.013ZM364.347 206.772V210.386H364.83V206.772H364.347ZM364.589 210.627H365.695V210.144H364.589V210.627ZM365.453 210.386V210.826H365.936V210.386H365.453ZM365.695 210.585H363.054V211.067H365.695V210.585Z" fill="#8CFF00"/>
</g>
<g opacity="0.5" filter="url(#filter1_f_1520_3580)">
<path d="M513.809 400.282C513.504 400.282 513.234 400.197 512.999 400.027C512.767 399.857 512.585 399.616 512.454 399.303C512.327 398.991 512.263 398.618 512.263 398.186C512.263 397.753 512.327 397.38 512.454 397.068C512.585 396.755 512.767 396.514 512.999 396.344C513.234 396.174 513.504 396.089 513.809 396.089C514.118 396.089 514.389 396.174 514.62 396.344C514.852 396.514 515.031 396.755 515.159 397.068C515.29 397.38 515.356 397.753 515.356 398.186C515.356 398.618 515.29 398.991 515.159 399.303C515.031 399.616 514.852 399.857 514.62 400.027C514.389 400.197 514.118 400.282 513.809 400.282ZM512.761 398.186C512.761 398.448 512.788 398.686 512.842 398.898C512.9 399.106 512.979 399.282 513.08 399.425L514.203 396.639C514.084 396.573 513.952 396.541 513.809 396.541C513.605 396.541 513.423 396.608 513.265 396.743C513.107 396.875 512.983 397.064 512.894 397.311C512.805 397.554 512.761 397.846 512.761 398.186ZM513.809 399.836C514.014 399.836 514.196 399.771 514.354 399.639C514.512 399.504 514.636 399.313 514.725 399.066C514.813 398.819 514.858 398.525 514.858 398.186C514.858 397.923 514.829 397.687 514.771 397.479C514.717 397.267 514.64 397.089 514.539 396.946L513.41 399.738C513.533 399.803 513.667 399.836 513.809 399.836ZM512.477 410.213V409.773H513.526V406.732L512.535 406.923V406.552L513.688 406.158H514.012V409.773H515.118V410.213H512.477ZM513.809 420.282C513.504 420.282 513.234 420.197 512.999 420.027C512.767 419.857 512.585 419.616 512.454 419.303C512.327 418.991 512.263 418.618 512.263 418.186C512.263 417.753 512.327 417.38 512.454 417.068C512.585 416.755 512.767 416.514 512.999 416.344C513.234 416.174 513.504 416.089 513.809 416.089C514.118 416.089 514.389 416.174 514.62 416.344C514.852 416.514 515.031 416.755 515.159 417.068C515.29 417.38 515.356 417.753 515.356 418.186C515.356 418.618 515.29 418.991 515.159 419.303C515.031 419.616 514.852 419.857 514.62 420.027C514.389 420.197 514.118 420.282 513.809 420.282ZM512.761 418.186C512.761 418.448 512.788 418.686 512.842 418.898C512.9 419.106 512.979 419.282 513.08 419.425L514.203 416.639C514.084 416.573 513.952 416.541 513.809 416.541C513.605 416.541 513.423 416.608 513.265 416.743C513.107 416.875 512.983 417.064 512.894 417.311C512.805 417.554 512.761 417.846 512.761 418.186ZM513.809 419.836C514.014 419.836 514.196 419.771 514.354 419.639C514.512 419.504 514.636 419.313 514.725 419.066C514.813 418.819 514.858 418.525 514.858 418.186C514.858 417.923 514.829 417.687 514.771 417.479C514.717 417.267 514.64 417.089 514.539 416.946L513.41 419.738C513.533 419.803 513.667 419.836 513.809 419.836ZM512.477 430.213V429.773H513.526V426.732L512.535 426.923V426.552L513.688 426.158H514.012V429.773H515.118V430.213H512.477ZM513.809 440.282C513.504 440.282 513.234 440.197 512.999 440.027C512.767 439.857 512.585 439.616 512.454 439.303C512.327 438.991 512.263 438.618 512.263 438.186C512.263 437.753 512.327 437.38 512.454 437.068C512.585 436.755 512.767 436.514 512.999 436.344C513.234 436.174 513.504 436.089 513.809 436.089C514.118 436.089 514.389 436.174 514.62 436.344C514.852 436.514 515.031 436.755 515.159 437.068C515.29 437.38 515.356 437.753 515.356 438.186C515.356 438.618 515.29 438.991 515.159 439.303C515.031 439.616 514.852 439.857 514.62 440.027C514.389 440.197 514.118 440.282 513.809 440.282ZM512.761 438.186C512.761 438.448 512.788 438.686 512.842 438.898C512.9 439.106 512.979 439.282 513.08 439.425L514.203 436.639C514.084 436.573 513.952 436.541 513.809 436.541C513.605 436.541 513.423 436.608 513.265 436.743C513.107 436.875 512.983 437.064 512.894 437.311C512.805 437.554 512.761 437.846 512.761 438.186ZM513.809 439.836C514.014 439.836 514.196 439.771 514.354 439.639C514.512 439.504 514.636 439.313 514.725 439.066C514.813 438.819 514.858 438.525 514.858 438.186C514.858 437.923 514.829 437.687 514.771 437.479C514.717 437.267 514.64 437.089 514.539 436.946L513.41 439.738C513.533 439.803 513.667 439.836 513.809 439.836ZM512.477 450.213V449.773H513.526V446.732L512.535 446.923V446.552L513.688 446.158H514.012V449.773H515.118V450.213H512.477ZM513.809 460.282C513.504 460.282 513.234 460.197 512.999 460.027C512.767 459.857 512.585 459.616 512.454 459.303C512.327 458.991 512.263 458.618 512.263 458.186C512.263 457.753 512.327 457.38 512.454 457.068C512.585 456.755 512.767 456.514 512.999 456.344C513.234 456.174 513.504 456.089 513.809 456.089C514.118 456.089 514.389 456.174 514.62 456.344C514.852 456.514 515.031 456.755 515.159 457.068C515.29 457.38 515.356 457.753 515.356 458.186C515.356 458.618 515.29 458.991 515.159 459.303C515.031 459.616 514.852 459.857 514.62 460.027C514.389 460.197 514.118 460.282 513.809 460.282ZM512.761 458.186C512.761 458.448 512.788 458.686 512.842 458.898C512.9 459.106 512.979 459.282 513.08 459.425L514.203 456.639C514.084 456.573 513.952 456.541 513.809 456.541C513.605 456.541 513.423 456.608 513.265 456.743C513.107 456.875 512.983 457.064 512.894 457.311C512.805 457.554 512.761 457.846 512.761 458.186ZM513.809 459.836C514.014 459.836 514.196 459.771 514.354 459.639C514.512 459.504 514.636 459.313 514.725 459.066C514.813 458.819 514.858 458.525 514.858 458.186C514.858 457.923 514.829 457.687 514.771 457.479C514.717 457.267 514.64 457.089 514.539 456.946L513.41 459.738C513.533 459.803 513.667 459.836 513.809 459.836ZM512.477 469.213V468.773H513.526V465.732L512.535 465.923V465.552L513.688 465.158H514.012V468.773H515.118V469.213H512.477Z" fill="#054F77"/>
<path d="M512.999 400.027L512.856 400.222L512.857 400.223L512.999 400.027ZM512.454 399.303L512.231 399.394L512.232 399.397L512.454 399.303ZM512.454 397.068L512.232 396.974L512.231 396.977L512.454 397.068ZM512.999 396.344L512.857 396.148L512.856 396.149L512.999 396.344ZM514.62 396.344L514.763 396.149L514.763 396.149L514.62 396.344ZM515.159 397.068L514.935 397.159L514.936 397.161L515.159 397.068ZM515.159 399.303L514.936 399.21L514.935 399.212L515.159 399.303ZM514.62 400.027L514.763 400.222L514.763 400.222L514.62 400.027ZM512.842 398.898L512.608 398.957L512.61 398.963L512.842 398.898ZM513.08 399.425L512.882 399.564L513.137 399.927L513.303 399.515L513.08 399.425ZM514.203 396.639L514.427 396.729L514.507 396.531L514.319 396.427L514.203 396.639ZM513.265 396.743L513.419 396.929L513.422 396.927L513.265 396.743ZM512.894 397.311L513.121 397.394L513.121 397.393L512.894 397.311ZM514.354 399.639L514.508 399.825L514.511 399.823L514.354 399.639ZM514.771 397.479L514.537 397.538L514.538 397.543L514.771 397.479ZM514.539 396.946L514.737 396.807L514.482 396.445L514.315 396.856L514.539 396.946ZM513.41 399.738L513.186 399.647L513.104 399.849L513.297 399.951L513.41 399.738ZM513.809 400.041C513.552 400.041 513.332 399.97 513.14 399.832L512.857 400.223C513.136 400.424 513.456 400.524 513.809 400.524V400.041ZM513.141 399.833C512.951 399.693 512.794 399.49 512.677 399.21L512.232 399.397C512.377 399.743 512.583 400.022 512.856 400.222L513.141 399.833ZM512.678 399.212C512.565 398.935 512.504 398.595 512.504 398.186H512.022C512.022 398.641 512.089 399.046 512.231 399.394L512.678 399.212ZM512.504 398.186C512.504 397.776 512.565 397.436 512.678 397.159L512.231 396.977C512.089 397.325 512.022 397.73 512.022 398.186H512.504ZM512.677 397.161C512.794 396.881 512.951 396.678 513.141 396.538L512.856 396.149C512.583 396.349 512.377 396.629 512.232 396.974L512.677 397.161ZM513.14 396.539C513.332 396.401 513.552 396.33 513.809 396.33V395.848C513.456 395.848 513.136 395.947 512.857 396.148L513.14 396.539ZM513.809 396.33C514.071 396.33 514.29 396.401 514.478 396.538L514.763 396.149C514.487 395.946 514.166 395.848 513.809 395.848V396.33ZM514.478 396.538C514.667 396.677 514.822 396.88 514.935 397.159L515.382 396.977C515.241 396.63 515.037 396.35 514.763 396.149L514.478 396.538ZM514.936 397.161C515.052 397.437 515.114 397.777 515.114 398.186H515.597C515.597 397.729 515.528 397.324 515.381 396.974L514.936 397.161ZM515.114 398.186C515.114 398.594 515.052 398.934 514.936 399.21L515.381 399.397C515.528 399.048 515.597 398.642 515.597 398.186H515.114ZM514.935 399.212C514.822 399.491 514.667 399.694 514.478 399.833L514.763 400.222C515.037 400.021 515.241 399.741 515.382 399.394L514.935 399.212ZM514.478 399.833C514.29 399.97 514.071 400.041 513.809 400.041V400.524C514.166 400.524 514.487 400.425 514.763 400.222L514.478 399.833ZM512.52 398.186C512.52 398.464 512.548 398.722 512.608 398.957L513.076 398.838C513.028 398.649 513.002 398.432 513.002 398.186H512.52ZM512.61 398.963C512.673 399.191 512.763 399.394 512.882 399.564L513.277 399.286C513.196 399.171 513.127 399.021 513.075 398.833L512.61 398.963ZM513.303 399.515L514.427 396.729L513.979 396.549L512.856 399.335L513.303 399.515ZM514.319 396.427C514.162 396.341 513.991 396.299 513.809 396.299V396.782C513.914 396.782 514.005 396.805 514.087 396.851L514.319 396.427ZM513.809 396.299C513.546 396.299 513.309 396.388 513.108 396.56L513.422 396.927C513.537 396.828 513.663 396.782 513.809 396.782V396.299ZM513.111 396.558C512.911 396.723 512.767 396.953 512.667 397.229L513.121 397.393C513.2 397.175 513.302 397.026 513.419 396.929L513.111 396.558ZM512.668 397.228C512.567 397.505 512.52 397.826 512.52 398.186H513.002C513.002 397.866 513.044 397.604 513.121 397.394L512.668 397.228ZM513.809 400.078C514.071 400.078 514.306 399.992 514.508 399.825L514.2 399.454C514.085 399.549 513.957 399.595 513.809 399.595V400.078ZM514.511 399.823C514.708 399.654 514.852 399.424 514.952 399.148L514.497 398.984C514.419 399.202 514.316 399.354 514.197 399.456L514.511 399.823ZM514.952 399.148C515.052 398.868 515.099 398.545 515.099 398.186H514.616C514.616 398.505 514.574 398.77 514.497 398.984L514.952 399.148ZM515.099 398.186C515.099 397.906 515.068 397.648 515.003 397.414L514.538 397.543C514.589 397.727 514.616 397.94 514.616 398.186H515.099ZM515.005 397.419C514.945 397.186 514.858 396.979 514.737 396.807L514.342 397.085C514.422 397.198 514.488 397.348 514.537 397.538L515.005 397.419ZM514.315 396.856L513.186 399.647L513.633 399.828L514.763 397.037L514.315 396.856ZM513.297 399.951C513.456 400.035 513.628 400.078 513.809 400.078V399.595C513.705 399.595 513.611 399.571 513.523 399.525L513.297 399.951ZM512.477 410.213H512.236V410.454H512.477V410.213ZM512.477 409.773V409.531H512.236V409.773H512.477ZM513.526 409.773V410.014H513.767V409.773H513.526ZM513.526 406.732H513.767V406.439L513.48 406.495L513.526 406.732ZM512.535 406.923H512.294V407.215L512.581 407.16L512.535 406.923ZM512.535 406.552L512.457 406.324L512.294 406.38V406.552H512.535ZM513.688 406.158V405.917H513.648L513.61 405.93L513.688 406.158ZM514.012 406.158H514.253V405.917H514.012V406.158ZM514.012 409.773H513.771V410.014H514.012V409.773ZM515.118 409.773H515.36V409.531H515.118V409.773ZM515.118 410.213V410.454H515.36V410.213H515.118ZM512.719 410.213V409.773H512.236V410.213H512.719ZM512.477 410.014H513.526V409.531H512.477V410.014ZM513.767 409.773V406.732H513.284V409.773H513.767ZM513.48 406.495L512.489 406.686L512.581 407.16L513.571 406.969L513.48 406.495ZM512.776 406.923V406.552H512.294V406.923H512.776ZM512.613 406.781L513.766 406.387L513.61 405.93L512.457 406.324L512.613 406.781ZM513.688 406.4H514.012V405.917H513.688V406.4ZM513.771 406.158V409.773H514.253V406.158H513.771ZM514.012 410.014H515.118V409.531H514.012V410.014ZM514.877 409.773V410.213H515.36V409.773H514.877ZM515.118 409.971H512.477V410.454H515.118V409.971ZM512.999 420.027L512.856 420.222L512.857 420.223L512.999 420.027ZM512.454 419.303L512.231 419.394L512.232 419.397L512.454 419.303ZM512.454 417.068L512.232 416.974L512.231 416.977L512.454 417.068ZM512.999 416.344L512.857 416.148L512.856 416.149L512.999 416.344ZM514.62 416.344L514.763 416.149L514.763 416.149L514.62 416.344ZM515.159 417.068L514.935 417.159L514.936 417.161L515.159 417.068ZM515.159 419.303L514.936 419.21L514.935 419.212L515.159 419.303ZM514.62 420.027L514.763 420.222L514.763 420.222L514.62 420.027ZM512.842 418.898L512.608 418.957L512.61 418.963L512.842 418.898ZM513.08 419.425L512.882 419.564L513.137 419.927L513.303 419.515L513.08 419.425ZM514.203 416.639L514.427 416.729L514.507 416.531L514.319 416.427L514.203 416.639ZM513.265 416.743L513.419 416.929L513.422 416.927L513.265 416.743ZM512.894 417.311L513.121 417.394L513.121 417.393L512.894 417.311ZM514.354 419.639L514.508 419.825L514.511 419.823L514.354 419.639ZM514.771 417.479L514.537 417.538L514.538 417.543L514.771 417.479ZM514.539 416.946L514.737 416.807L514.482 416.445L514.315 416.856L514.539 416.946ZM513.41 419.738L513.186 419.647L513.104 419.849L513.297 419.951L513.41 419.738ZM513.809 420.041C513.552 420.041 513.332 419.97 513.14 419.832L512.857 420.223C513.136 420.424 513.456 420.524 513.809 420.524V420.041ZM513.141 419.833C512.951 419.693 512.794 419.49 512.677 419.21L512.232 419.397C512.377 419.743 512.583 420.022 512.856 420.222L513.141 419.833ZM512.678 419.212C512.565 418.935 512.504 418.595 512.504 418.186H512.022C512.022 418.641 512.089 419.046 512.231 419.394L512.678 419.212ZM512.504 418.186C512.504 417.776 512.565 417.436 512.678 417.159L512.231 416.977C512.089 417.325 512.022 417.73 512.022 418.186H512.504ZM512.677 417.161C512.794 416.881 512.951 416.678 513.141 416.538L512.856 416.149C512.583 416.349 512.377 416.629 512.232 416.974L512.677 417.161ZM513.14 416.539C513.332 416.401 513.552 416.33 513.809 416.33V415.848C513.456 415.848 513.136 415.947 512.857 416.148L513.14 416.539ZM513.809 416.33C514.071 416.33 514.29 416.401 514.478 416.538L514.763 416.149C514.487 415.946 514.166 415.848 513.809 415.848V416.33ZM514.478 416.538C514.667 416.677 514.822 416.88 514.935 417.159L515.382 416.977C515.241 416.63 515.037 416.35 514.763 416.149L514.478 416.538ZM514.936 417.161C515.052 417.437 515.114 417.777 515.114 418.186H515.597C515.597 417.729 515.528 417.324 515.381 416.974L514.936 417.161ZM515.114 418.186C515.114 418.594 515.052 418.934 514.936 419.21L515.381 419.397C515.528 419.048 515.597 418.642 515.597 418.186H515.114ZM514.935 419.212C514.822 419.491 514.667 419.694 514.478 419.833L514.763 420.222C515.037 420.021 515.241 419.741 515.382 419.394L514.935 419.212ZM514.478 419.833C514.29 419.97 514.071 420.041 513.809 420.041V420.524C514.166 420.524 514.487 420.425 514.763 420.222L514.478 419.833ZM512.52 418.186C512.52 418.464 512.548 418.722 512.608 418.957L513.076 418.838C513.028 418.649 513.002 418.432 513.002 418.186H512.52ZM512.61 418.963C512.673 419.191 512.763 419.394 512.882 419.564L513.277 419.286C513.196 419.171 513.127 419.021 513.075 418.833L512.61 418.963ZM513.303 419.515L514.427 416.729L513.979 416.549L512.856 419.335L513.303 419.515ZM514.319 416.427C514.162 416.341 513.991 416.299 513.809 416.299V416.782C513.914 416.782 514.005 416.805 514.087 416.851L514.319 416.427ZM513.809 416.299C513.546 416.299 513.309 416.388 513.108 416.56L513.422 416.927C513.537 416.828 513.663 416.782 513.809 416.782V416.299ZM513.111 416.558C512.911 416.723 512.767 416.953 512.667 417.229L513.121 417.393C513.2 417.175 513.302 417.026 513.419 416.929L513.111 416.558ZM512.668 417.228C512.567 417.505 512.52 417.826 512.52 418.186H513.002C513.002 417.866 513.044 417.604 513.121 417.394L512.668 417.228ZM513.809 420.078C514.071 420.078 514.306 419.992 514.508 419.825L514.2 419.454C514.085 419.549 513.957 419.595 513.809 419.595V420.078ZM514.511 419.823C514.708 419.654 514.852 419.424 514.952 419.148L514.497 418.984C514.419 419.202 514.316 419.354 514.197 419.456L514.511 419.823ZM514.952 419.148C515.052 418.868 515.099 418.545 515.099 418.186H514.616C514.616 418.505 514.574 418.77 514.497 418.984L514.952 419.148ZM515.099 418.186C515.099 417.906 515.068 417.648 515.003 417.414L514.538 417.543C514.589 417.727 514.616 417.94 514.616 418.186H515.099ZM515.005 417.419C514.945 417.186 514.858 416.979 514.737 416.807L514.342 417.085C514.422 417.198 514.488 417.348 514.537 417.538L515.005 417.419ZM514.315 416.856L513.186 419.647L513.633 419.828L514.763 417.037L514.315 416.856ZM513.297 419.951C513.456 420.035 513.628 420.078 513.809 420.078V419.595C513.705 419.595 513.611 419.571 513.523 419.525L513.297 419.951ZM512.477 430.213H512.236V430.454H512.477V430.213ZM512.477 429.773V429.531H512.236V429.773H512.477ZM513.526 429.773V430.014H513.767V429.773H513.526ZM513.526 426.732H513.767V426.439L513.48 426.495L513.526 426.732ZM512.535 426.923H512.294V427.215L512.581 427.16L512.535 426.923ZM512.535 426.552L512.457 426.324L512.294 426.38V426.552H512.535ZM513.688 426.158V425.917H513.648L513.61 425.93L513.688 426.158ZM514.012 426.158H514.253V425.917H514.012V426.158ZM514.012 429.773H513.771V430.014H514.012V429.773ZM515.118 429.773H515.36V429.531H515.118V429.773ZM515.118 430.213V430.454H515.36V430.213H515.118ZM512.719 430.213V429.773H512.236V430.213H512.719ZM512.477 430.014H513.526V429.531H512.477V430.014ZM513.767 429.773V426.732H513.284V429.773H513.767ZM513.48 426.495L512.489 426.686L512.581 427.16L513.571 426.969L513.48 426.495ZM512.776 426.923V426.552H512.294V426.923H512.776ZM512.613 426.781L513.766 426.387L513.61 425.93L512.457 426.324L512.613 426.781ZM513.688 426.4H514.012V425.917H513.688V426.4ZM513.771 426.158V429.773H514.253V426.158H513.771ZM514.012 430.014H515.118V429.531H514.012V430.014ZM514.877 429.773V430.213H515.36V429.773H514.877ZM515.118 429.971H512.477V430.454H515.118V429.971ZM512.999 440.027L512.856 440.222L512.857 440.223L512.999 440.027ZM512.454 439.303L512.231 439.394L512.232 439.397L512.454 439.303ZM512.454 437.068L512.232 436.974L512.231 436.977L512.454 437.068ZM512.999 436.344L512.857 436.148L512.856 436.149L512.999 436.344ZM514.62 436.344L514.763 436.149L514.763 436.149L514.62 436.344ZM515.159 437.068L514.935 437.159L514.936 437.161L515.159 437.068ZM515.159 439.303L514.936 439.21L514.935 439.212L515.159 439.303ZM514.62 440.027L514.763 440.222L514.763 440.222L514.62 440.027ZM512.842 438.898L512.608 438.957L512.61 438.963L512.842 438.898ZM513.08 439.425L512.882 439.564L513.137 439.927L513.303 439.515L513.08 439.425ZM514.203 436.639L514.427 436.729L514.507 436.531L514.319 436.427L514.203 436.639ZM513.265 436.743L513.419 436.929L513.422 436.927L513.265 436.743ZM512.894 437.311L513.121 437.394L513.121 437.393L512.894 437.311ZM514.354 439.639L514.508 439.825L514.511 439.823L514.354 439.639ZM514.771 437.479L514.537 437.538L514.538 437.543L514.771 437.479ZM514.539 436.946L514.737 436.807L514.482 436.445L514.315 436.856L514.539 436.946ZM513.41 439.738L513.186 439.647L513.104 439.849L513.297 439.951L513.41 439.738ZM513.809 440.041C513.552 440.041 513.332 439.97 513.14 439.832L512.857 440.223C513.136 440.424 513.456 440.524 513.809 440.524V440.041ZM513.141 439.833C512.951 439.693 512.794 439.49 512.677 439.21L512.232 439.397C512.377 439.743 512.583 440.022 512.856 440.222L513.141 439.833ZM512.678 439.212C512.565 438.935 512.504 438.595 512.504 438.186H512.022C512.022 438.641 512.089 439.046 512.231 439.394L512.678 439.212ZM512.504 438.186C512.504 437.776 512.565 437.436 512.678 437.159L512.231 436.977C512.089 437.325 512.022 437.73 512.022 438.186H512.504ZM512.677 437.161C512.794 436.881 512.951 436.678 513.141 436.538L512.856 436.149C512.583 436.349 512.377 436.629 512.232 436.974L512.677 437.161ZM513.14 436.539C513.332 436.401 513.552 436.33 513.809 436.33V435.848C513.456 435.848 513.136 435.947 512.857 436.148L513.14 436.539ZM513.809 436.33C514.071 436.33 514.29 436.401 514.478 436.538L514.763 436.149C514.487 435.946 514.166 435.848 513.809 435.848V436.33ZM514.478 436.538C514.667 436.677 514.822 436.88 514.935 437.159L515.382 436.977C515.241 436.63 515.037 436.35 514.763 436.149L514.478 436.538ZM514.936 437.161C515.052 437.437 515.114 437.777 515.114 438.186H515.597C515.597 437.729 515.528 437.324 515.381 436.974L514.936 437.161ZM515.114 438.186C515.114 438.594 515.052 438.934 514.936 439.21L515.381 439.397C515.528 439.048 515.597 438.642 515.597 438.186H515.114ZM514.935 439.212C514.822 439.491 514.667 439.694 514.478 439.833L514.763 440.222C515.037 440.021 515.241 439.741 515.382 439.394L514.935 439.212ZM514.478 439.833C514.29 439.97 514.071 440.041 513.809 440.041V440.524C514.166 440.524 514.487 440.425 514.763 440.222L514.478 439.833ZM512.52 438.186C512.52 438.464 512.548 438.722 512.608 438.957L513.076 438.838C513.028 438.649 513.002 438.432 513.002 438.186H512.52ZM512.61 438.963C512.673 439.191 512.763 439.394 512.882 439.564L513.277 439.286C513.196 439.171 513.127 439.021 513.075 438.833L512.61 438.963ZM513.303 439.515L514.427 436.729L513.979 436.549L512.856 439.335L513.303 439.515ZM514.319 436.427C514.162 436.341 513.991 436.299 513.809 436.299V436.782C513.914 436.782 514.005 436.805 514.087 436.851L514.319 436.427ZM513.809 436.299C513.546 436.299 513.309 436.388 513.108 436.56L513.422 436.927C513.537 436.828 513.663 436.782 513.809 436.782V436.299ZM513.111 436.558C512.911 436.723 512.767 436.953 512.667 437.229L513.121 437.393C513.2 437.175 513.302 437.026 513.419 436.929L513.111 436.558ZM512.668 437.228C512.567 437.505 512.52 437.826 512.52 438.186H513.002C513.002 437.866 513.044 437.604 513.121 437.394L512.668 437.228ZM513.809 440.078C514.071 440.078 514.306 439.992 514.508 439.825L514.2 439.454C514.085 439.549 513.957 439.595 513.809 439.595V440.078ZM514.511 439.823C514.708 439.654 514.852 439.424 514.952 439.148L514.497 438.984C514.419 439.202 514.316 439.354 514.197 439.456L514.511 439.823ZM514.952 439.148C515.052 438.868 515.099 438.545 515.099 438.186H514.616C514.616 438.505 514.574 438.77 514.497 438.984L514.952 439.148ZM515.099 438.186C515.099 437.906 515.068 437.648 515.003 437.414L514.538 437.543C514.589 437.727 514.616 437.94 514.616 438.186H515.099ZM515.005 437.419C514.945 437.186 514.858 436.979 514.737 436.807L514.342 437.085C514.422 437.198 514.488 437.348 514.537 437.538L515.005 437.419ZM514.315 436.856L513.186 439.647L513.633 439.828L514.763 437.037L514.315 436.856ZM513.297 439.951C513.456 440.035 513.628 440.078 513.809 440.078V439.595C513.705 439.595 513.611 439.571 513.523 439.525L513.297 439.951ZM512.477 450.213H512.236V450.454H512.477V450.213ZM512.477 449.773V449.531H512.236V449.773H512.477ZM513.526 449.773V450.014H513.767V449.773H513.526ZM513.526 446.732H513.767V446.439L513.48 446.495L513.526 446.732ZM512.535 446.923H512.294V447.215L512.581 447.16L512.535 446.923ZM512.535 446.552L512.457 446.324L512.294 446.38V446.552H512.535ZM513.688 446.158V445.917H513.648L513.61 445.93L513.688 446.158ZM514.012 446.158H514.253V445.917H514.012V446.158ZM514.012 449.773H513.771V450.014H514.012V449.773ZM515.118 449.773H515.36V449.531H515.118V449.773ZM515.118 450.213V450.454H515.36V450.213H515.118ZM512.719 450.213V449.773H512.236V450.213H512.719ZM512.477 450.014H513.526V449.531H512.477V450.014ZM513.767 449.773V446.732H513.284V449.773H513.767ZM513.48 446.495L512.489 446.686L512.581 447.16L513.571 446.969L513.48 446.495ZM512.776 446.923V446.552H512.294V446.923H512.776ZM512.613 446.781L513.766 446.387L513.61 445.93L512.457 446.324L512.613 446.781ZM513.688 446.4H514.012V445.917H513.688V446.4ZM513.771 446.158V449.773H514.253V446.158H513.771ZM514.012 450.014H515.118V449.531H514.012V450.014ZM514.877 449.773V450.213H515.36V449.773H514.877ZM515.118 449.971H512.477V450.454H515.118V449.971ZM512.999 460.027L512.856 460.222L512.857 460.223L512.999 460.027ZM512.454 459.303L512.231 459.394L512.232 459.397L512.454 459.303ZM512.454 457.068L512.232 456.974L512.231 456.977L512.454 457.068ZM512.999 456.344L512.857 456.148L512.856 456.149L512.999 456.344ZM514.62 456.344L514.763 456.149L514.763 456.149L514.62 456.344ZM515.159 457.068L514.935 457.159L514.936 457.161L515.159 457.068ZM515.159 459.303L514.936 459.21L514.935 459.212L515.159 459.303ZM514.62 460.027L514.763 460.222L514.763 460.222L514.62 460.027ZM512.842 458.898L512.608 458.957L512.61 458.963L512.842 458.898ZM513.08 459.425L512.882 459.564L513.137 459.927L513.303 459.515L513.08 459.425ZM514.203 456.639L514.427 456.729L514.507 456.531L514.319 456.427L514.203 456.639ZM513.265 456.743L513.419 456.929L513.422 456.927L513.265 456.743ZM512.894 457.311L513.121 457.394L513.121 457.393L512.894 457.311ZM514.354 459.639L514.508 459.825L514.511 459.823L514.354 459.639ZM514.771 457.479L514.537 457.538L514.538 457.543L514.771 457.479ZM514.539 456.946L514.737 456.807L514.482 456.445L514.315 456.856L514.539 456.946ZM513.41 459.738L513.186 459.647L513.104 459.849L513.297 459.951L513.41 459.738ZM513.809 460.041C513.552 460.041 513.332 459.97 513.14 459.832L512.857 460.223C513.136 460.424 513.456 460.524 513.809 460.524V460.041ZM513.141 459.833C512.951 459.693 512.794 459.49 512.677 459.21L512.232 459.397C512.377 459.743 512.583 460.022 512.856 460.222L513.141 459.833ZM512.678 459.212C512.565 458.935 512.504 458.595 512.504 458.186H512.022C512.022 458.641 512.089 459.046 512.231 459.394L512.678 459.212ZM512.504 458.186C512.504 457.776 512.565 457.436 512.678 457.159L512.231 456.977C512.089 457.325 512.022 457.73 512.022 458.186H512.504ZM512.677 457.161C512.794 456.881 512.951 456.678 513.141 456.538L512.856 456.149C512.583 456.349 512.377 456.629 512.232 456.974L512.677 457.161ZM513.14 456.539C513.332 456.401 513.552 456.33 513.809 456.33V455.848C513.456 455.848 513.136 455.947 512.857 456.148L513.14 456.539ZM513.809 456.33C514.071 456.33 514.29 456.401 514.478 456.538L514.763 456.149C514.487 455.946 514.166 455.848 513.809 455.848V456.33ZM514.478 456.538C514.667 456.677 514.822 456.88 514.935 457.159L515.382 456.977C515.241 456.63 515.037 456.35 514.763 456.149L514.478 456.538ZM514.936 457.161C515.052 457.437 515.114 457.777 515.114 458.186H515.597C515.597 457.729 515.528 457.324 515.381 456.974L514.936 457.161ZM515.114 458.186C515.114 458.594 515.052 458.934 514.936 459.21L515.381 459.397C515.528 459.048 515.597 458.642 515.597 458.186H515.114ZM514.935 459.212C514.822 459.491 514.667 459.694 514.478 459.833L514.763 460.222C515.037 460.021 515.241 459.741 515.382 459.394L514.935 459.212ZM514.478 459.833C514.29 459.97 514.071 460.041 513.809 460.041V460.524C514.166 460.524 514.487 460.425 514.763 460.222L514.478 459.833ZM512.52 458.186C512.52 458.464 512.548 458.722 512.608 458.957L513.076 458.838C513.028 458.649 513.002 458.432 513.002 458.186H512.52ZM512.61 458.963C512.673 459.191 512.763 459.394 512.882 459.564L513.277 459.286C513.196 459.171 513.127 459.021 513.075 458.833L512.61 458.963ZM513.303 459.515L514.427 456.729L513.979 456.549L512.856 459.335L513.303 459.515ZM514.319 456.427C514.162 456.341 513.991 456.299 513.809 456.299V456.782C513.914 456.782 514.005 456.805 514.087 456.851L514.319 456.427ZM513.809 456.299C513.546 456.299 513.309 456.388 513.108 456.56L513.422 456.927C513.537 456.828 513.663 456.782 513.809 456.782V456.299ZM513.111 456.558C512.911 456.723 512.767 456.953 512.667 457.229L513.121 457.393C513.2 457.175 513.302 457.026 513.419 456.929L513.111 456.558ZM512.668 457.228C512.567 457.505 512.52 457.826 512.52 458.186H513.002C513.002 457.866 513.044 457.604 513.121 457.394L512.668 457.228ZM513.809 460.078C514.071 460.078 514.306 459.992 514.508 459.825L514.2 459.454C514.085 459.549 513.957 459.595 513.809 459.595V460.078ZM514.511 459.823C514.708 459.654 514.852 459.424 514.952 459.148L514.497 458.984C514.419 459.202 514.316 459.354 514.197 459.456L514.511 459.823ZM514.952 459.148C515.052 458.868 515.099 458.545 515.099 458.186H514.616C514.616 458.505 514.574 458.77 514.497 458.984L514.952 459.148ZM515.099 458.186C515.099 457.906 515.068 457.648 515.003 457.414L514.538 457.543C514.589 457.727 514.616 457.94 514.616 458.186H515.099ZM515.005 457.419C514.945 457.186 514.858 456.979 514.737 456.807L514.342 457.085C514.422 457.198 514.488 457.348 514.537 457.538L515.005 457.419ZM514.315 456.856L513.186 459.647L513.633 459.828L514.763 457.037L514.315 456.856ZM513.297 459.951C513.456 460.035 513.628 460.078 513.809 460.078V459.595C513.705 459.595 513.611 459.571 513.523 459.525L513.297 459.951ZM512.477 469.213H512.236V469.454H512.477V469.213ZM512.477 468.773V468.531H512.236V468.773H512.477ZM513.526 468.773V469.014H513.767V468.773H513.526ZM513.526 465.732H513.767V465.439L513.48 465.495L513.526 465.732ZM512.535 465.923H512.294V466.215L512.581 466.16L512.535 465.923ZM512.535 465.552L512.457 465.324L512.294 465.38V465.552H512.535ZM513.688 465.158V464.917H513.648L513.61 464.93L513.688 465.158ZM514.012 465.158H514.253V464.917H514.012V465.158ZM514.012 468.773H513.771V469.014H514.012V468.773ZM515.118 468.773H515.36V468.531H515.118V468.773ZM515.118 469.213V469.454H515.36V469.213H515.118ZM512.719 469.213V468.773H512.236V469.213H512.719ZM512.477 469.014H513.526V468.531H512.477V469.014ZM513.767 468.773V465.732H513.284V468.773H513.767ZM513.48 465.495L512.489 465.686L512.581 466.16L513.571 465.969L513.48 465.495ZM512.776 465.923V465.552H512.294V465.923H512.776ZM512.613 465.781L513.766 465.387L513.61 464.93L512.457 465.324L512.613 465.781ZM513.688 465.4H514.012V464.917H513.688V465.4ZM513.771 465.158V468.773H514.253V465.158H513.771ZM514.012 469.014H515.118V468.531H514.012V469.014ZM514.877 468.773V469.213H515.36V468.773H514.877ZM515.118 468.971H512.477V469.454H515.118V468.971Z" fill="#8CFF00"/>
</g>
<path opacity="0.5" d="M572.821 169.758H342.94L321.493 270.956H551.582L572.821 169.758Z" fill="white"/>
<path opacity="0.5" d="M572.406 369.654H343.567L322.536 460.856H553.874L572.406 369.654Z" fill="white"/>
<path opacity="0.3" d="M551.584 270.954H322.536L343.567 369.652H572.406L551.584 270.954Z" fill="white"/>
<g opacity="0.5" filter="url(#filter2_bf_1520_3580)">
<path fill-rule="evenodd" clip-rule="evenodd" d="M572.821 169.758H342.94L321.493 270.956H322.536L343.567 369.652H572.406L551.584 270.954H551.583L572.821 169.758ZM572.406 369.654H343.567L322.536 460.856H553.874L572.406 369.654Z" fill="url(#paint1_linear_1520_3580)"/>
<path d="M342.94 169.758L342.704 169.708L342.745 169.517H342.94V169.758ZM572.821 169.758V169.517H573.118L573.057 169.808L572.821 169.758ZM321.493 270.956V271.197H321.195L321.257 270.906L321.493 270.956ZM322.536 270.956V270.714H322.732L322.772 270.905L322.536 270.956ZM343.567 369.652V369.894H343.371L343.331 369.703L343.567 369.652ZM572.406 369.652L572.642 369.603L572.704 369.894H572.406V369.652ZM551.584 270.954V270.712H551.78L551.82 270.904L551.584 270.954ZM551.583 270.954V271.195H551.285L551.346 270.904L551.583 270.954ZM343.567 369.654L343.332 369.6L343.375 369.412H343.567V369.654ZM572.406 369.654V369.412H572.702L572.643 369.702L572.406 369.654ZM322.536 460.856V461.098H322.233L322.301 460.802L322.536 460.856ZM553.874 460.856L554.111 460.905L554.072 461.098H553.874V460.856ZM342.94 169.517H572.821V170H342.94V169.517ZM321.257 270.906L342.704 169.708L343.177 169.808L321.729 271.006L321.257 270.906ZM322.536 271.197H321.493V270.714H322.536V271.197ZM322.772 270.905L343.803 369.602L343.331 369.703L322.3 271.006L322.772 270.905ZM343.567 369.411H572.406V369.894H343.567V369.411ZM572.17 369.702L551.348 271.003L551.82 270.904L572.642 369.603L572.17 369.702ZM551.584 271.195H551.583V270.712H551.584V271.195ZM573.057 169.808L551.819 271.003L551.346 270.904L572.585 169.709L573.057 169.808ZM343.567 369.412H572.406V369.895H343.567V369.412ZM322.301 460.802L343.332 369.6L343.802 369.708L322.771 460.911L322.301 460.802ZM553.874 461.098H322.536V460.615H553.874V461.098ZM572.643 369.702L554.111 460.905L553.638 460.808L572.17 369.606L572.643 369.702Z" fill="#8CFF00"/>
</g>
<g filter="url(#filter3_f_1520_3580)">
<path d="M543.886 197.597C541.883 201.63 538.622 204.901 534.596 206.917C530.569 208.932 525.996 209.582 521.567 208.768C517.139 207.955 513.095 205.722 510.048 202.407C507.001 199.092 505.115 194.875 504.677 190.394C504.238 185.912 505.27 181.41 507.616 177.567C509.963 173.724 513.497 170.749 517.684 169.092C521.87 167.435 526.483 167.186 530.824 168.382C535.165 169.579 538.998 172.156 541.745 175.723L538.117 178.517C535.977 175.737 532.99 173.729 529.607 172.797C526.225 171.864 522.631 172.058 519.368 173.35C516.106 174.641 513.353 176.959 511.524 179.953C509.696 182.947 508.892 186.456 509.233 189.948C509.575 193.439 511.044 196.725 513.419 199.308C515.793 201.891 518.944 203.631 522.395 204.265C525.845 204.899 529.409 204.393 532.546 202.822C535.684 201.252 538.225 198.703 539.786 195.561L543.886 197.597Z" fill="url(#paint2_linear_1520_3580)"/>
</g>
<g filter="url(#filter4_f_1520_3580)">
<path d="M549.518 157.258C556.938 163.032 562.049 171.268 563.931 180.479C565.813 189.69 564.341 199.271 559.78 207.492C555.22 215.714 547.872 222.035 539.061 225.315C530.25 228.595 520.557 228.619 511.731 225.382C502.904 222.144 495.525 215.859 490.925 207.66C486.324 199.461 484.806 189.887 486.643 180.667C488.48 171.446 493.551 163.186 500.943 157.376C508.334 151.566 517.558 148.588 526.952 148.981L526.621 156.887C519.113 156.574 511.741 158.953 505.833 163.597C499.925 168.241 495.872 174.843 494.404 182.213C492.935 189.583 494.149 197.234 497.826 203.788C501.503 210.341 507.401 215.365 514.456 217.952C521.51 220.54 529.258 220.521 536.3 217.899C543.342 215.277 549.215 210.225 552.86 203.654C556.505 197.083 557.682 189.425 556.178 182.063C554.674 174.7 550.588 168.118 544.658 163.503L549.518 157.258Z" fill="url(#paint3_linear_1520_3580)"/>
<path d="M549.518 157.258C556.938 163.032 562.049 171.268 563.931 180.479C565.813 189.69 564.341 199.271 559.78 207.492C555.22 215.714 547.872 222.035 539.061 225.315C530.25 228.595 520.557 228.619 511.731 225.382C502.904 222.144 495.525 215.859 490.925 207.66C486.324 199.461 484.806 189.887 486.643 180.667C488.48 171.446 493.551 163.186 500.943 157.376C508.334 151.566 517.558 148.588 526.952 148.981L526.621 156.887C519.113 156.574 511.741 158.953 505.833 163.597C499.925 168.241 495.872 174.843 494.404 182.213C492.935 189.583 494.149 197.234 497.826 203.788C501.503 210.341 507.401 215.365 514.456 217.952C521.51 220.54 529.258 220.521 536.3 217.899C543.342 215.277 549.215 210.225 552.86 203.654C556.505 197.083 557.682 189.425 556.178 182.063C554.674 174.7 550.588 168.118 544.658 163.503L549.518 157.258Z" fill="white" fill-opacity="0.2"/>
</g>
<g filter="url(#filter5_f_1520_3580)">
<path d="M506.922 136.904C518.098 132.911 530.27 132.665 541.598 136.202C552.926 139.739 562.795 146.867 569.714 156.509C576.633 166.152 580.225 177.784 579.947 189.648C579.67 201.513 575.538 212.964 568.177 222.273C560.815 231.581 550.624 238.24 539.143 241.244C527.662 244.248 515.515 243.433 504.538 238.923C493.561 234.412 484.35 226.451 478.298 216.243C472.246 206.035 469.681 194.134 470.99 182.339L480.957 183.446C479.887 193.077 481.982 202.794 486.923 211.129C491.865 219.465 499.386 225.965 508.349 229.648C517.312 233.33 527.23 233.996 536.605 231.543C545.979 229.09 554.301 223.653 560.312 216.052C566.322 208.452 569.696 199.101 569.922 189.414C570.149 179.726 567.216 170.228 561.567 162.355C555.917 154.482 547.859 148.662 538.609 145.774C529.36 142.886 519.421 143.087 510.296 146.347L506.922 136.904Z" fill="url(#paint4_linear_1520_3580)"/>
<path d="M506.922 136.904C518.098 132.911 530.27 132.665 541.598 136.202C552.926 139.739 562.795 146.867 569.714 156.509C576.633 166.152 580.225 177.784 579.947 189.648C579.67 201.513 575.538 212.964 568.177 222.273C560.815 231.581 550.624 238.24 539.143 241.244C527.662 244.248 515.515 243.433 504.538 238.923C493.561 234.412 484.35 226.451 478.298 216.243C472.246 206.035 469.681 194.134 470.99 182.339L480.957 183.446C479.887 193.077 481.982 202.794 486.923 211.129C491.865 219.465 499.386 225.965 508.349 229.648C517.312 233.33 527.23 233.996 536.605 231.543C545.979 229.09 554.301 223.653 560.312 216.052C566.322 208.452 569.696 199.101 569.922 189.414C570.149 179.726 567.216 170.228 561.567 162.355C555.917 154.482 547.859 148.662 538.609 145.774C529.36 142.886 519.421 143.087 510.296 146.347L506.922 136.904Z" fill="white" fill-opacity="0.2"/>
</g>
<g filter="url(#filter6_f_1520_3580)">
<circle cx="575.635" cy="128.132" r="5.49723" transform="rotate(-22.7554 575.635 128.132)" fill="url(#paint5_linear_1520_3580)"/>
</g>
<g filter="url(#filter7_f_1520_3580)">
<circle cx="483.594" cy="248.88" r="4.78184" transform="rotate(-22.7554 483.594 248.88)" fill="url(#paint6_linear_1520_3580)"/>
</g>
<g filter="url(#filter8_f_1520_3580)">
<circle cx="286.404" cy="367.092" r="4.78184" transform="rotate(-22.7554 286.404 367.092)" fill="url(#paint7_linear_1520_3580)"/>
</g>
<g opacity="0.5" filter="url(#filter9_f_1520_3580)">
<circle cx="375.735" cy="507.675" r="13.2803" transform="rotate(-22.7554 375.735 507.675)" fill="url(#paint8_linear_1520_3580)"/>
</g>
<g filter="url(#filter10_f_1520_3580)">
<circle cx="536.36" cy="155.957" r="2.76929" transform="rotate(-22.7554 536.36 155.957)" fill="url(#paint9_linear_1520_3580)"/>
</g>
<g filter="url(#filter11_f_1520_3580)">
<path d="M451.035 331.018L439.53 315.4C439.018 314.705 437.976 314.718 437.482 315.425L418.825 342.094C418.244 342.925 418.831 344.066 419.844 344.077L469.823 344.627C470.843 344.638 471.453 343.496 470.877 342.654L460.736 327.833C460.357 327.279 459.61 327.119 459.038 327.47L452.708 331.345C452.15 331.687 451.423 331.544 451.035 331.018Z" fill="url(#paint10_linear_1520_3580)"/>
</g>
<path d="M471.592 294.924L423.96 293.447C420.121 293.328 416.904 296.29 416.787 300.059L415.456 342.974C415.339 346.738 418.367 349.891 422.206 350.01L469.838 351.487C473.677 351.606 476.891 348.647 477.008 344.883L478.339 301.968C478.456 298.199 475.432 295.043 471.592 294.924ZM456.486 304.62C460.199 304.735 463.119 307.78 463.006 311.42C462.893 315.06 459.79 317.918 456.077 317.803C452.363 317.688 449.445 314.643 449.558 311.003C449.671 307.363 452.772 304.505 456.486 304.62ZM467.85 345.111L446.215 344.44L425.544 343.799C423.687 343.741 422.901 342.399 423.789 340.799L436.023 318.751C436.91 317.152 438.508 317.056 439.592 318.537L450.734 333.762C451.818 335.243 453.786 335.427 455.132 334.172L458.058 331.443C459.403 330.188 461.32 330.408 462.338 331.932L469.37 342.453C470.386 343.979 469.707 345.169 467.85 345.111Z" fill="url(#paint11_linear_1520_3580)"/>
<g filter="url(#filter12_f_1520_3580)">
<path d="M426.705 305.311C428.899 306.111 429.404 308.986 427.614 310.486L407.928 326.982C406.139 328.481 403.397 327.481 402.993 325.181L398.55 299.886C398.146 297.586 400.383 295.711 402.577 296.511L426.705 305.311Z" fill="url(#paint12_radial_1520_3580)"/>
<path d="M426.705 305.311C428.899 306.111 429.404 308.986 427.614 310.486L407.928 326.982C406.139 328.481 403.397 327.481 402.993 325.181L398.55 299.886C398.146 297.586 400.383 295.711 402.577 296.511L426.705 305.311Z" stroke="#8CFF00" stroke-width="0.75833"/>
</g>
<path d="M427.306 305.531C429.233 306.233 429.676 308.758 428.104 310.075L407.438 327.393C405.866 328.71 403.458 327.831 403.103 325.812L398.439 299.255C398.084 297.236 400.049 295.589 401.975 296.292L427.306 305.531Z" fill="url(#paint13_radial_1520_3580)"/>
<path d="M427.306 305.531C429.233 306.233 429.676 308.758 428.104 310.075L407.438 327.393C405.866 328.71 403.458 327.831 403.103 325.812L398.439 299.255C398.084 297.236 400.049 295.589 401.975 296.292L427.306 305.531Z" fill="url(#paint14_radial_1520_3580)"/>
<path d="M427.306 305.531C429.233 306.233 429.676 308.758 428.104 310.075L407.438 327.393C405.866 328.71 403.458 327.831 403.103 325.812L398.439 299.255C398.084 297.236 400.049 295.589 401.975 296.292L427.306 305.531Z" stroke="#F4FBFF" stroke-width="0.151666"/>
<path d="M262.925 217.387L284.038 200.422H453.779" stroke="url(#paint15_linear_1520_3580)" stroke-width="0.482662"/>
<path d="M268.16 228.836L289.273 211.871H462.421" stroke="url(#paint16_linear_1520_3580)" stroke-width="0.482662"/>
<path d="M235.758 266.076L256.871 249.111H426.612" stroke="url(#paint17_linear_1520_3580)" stroke-width="0.482662"/>
<path d="M240.92 277.523L262.033 260.559H468.55" stroke="url(#paint18_linear_1520_3580)" stroke-width="0.482662"/>
<path d="M583.278 400.717L562.165 383.752H392.424" stroke="url(#paint19_linear_1520_3580)" stroke-width="0.482662"/>
<path d="M578.035 412.168L556.922 395.203H383.774" stroke="url(#paint20_linear_1520_3580)" stroke-width="0.482662"/>
<path d="M610.442 449.404L589.328 432.439H419.588" stroke="url(#paint21_linear_1520_3580)" stroke-width="0.482662"/>
<path d="M605.279 460.854L584.166 443.889H377.649" stroke="url(#paint22_linear_1520_3580)" stroke-width="0.482662"/>
<defs>
<filter id="filter0_f_1520_3580" x="361.874" y="136.737" width="5.02354" height="75.0545" filterUnits="userSpaceOnUse" color-interpolation-filters="sRGB">
<feFlood flood-opacity="0" result="BackgroundImageFix"/>
<feBlend mode="normal" in="SourceGraphic" in2="BackgroundImageFix" result="shape"/>
<feGaussianBlur stdDeviation="0.482662" result="effect1_foregroundBlur_1520_3580"/>
</filter>
<filter id="filter1_f_1520_3580" x="511.298" y="395.124" width="5.02354" height="75.0545" filterUnits="userSpaceOnUse" color-interpolation-filters="sRGB">
<feFlood flood-opacity="0" result="BackgroundImageFix"/>
<feBlend mode="normal" in="SourceGraphic" in2="BackgroundImageFix" result="shape"/>
<feGaussianBlur stdDeviation="0.482662" result="effect1_foregroundBlur_1520_3580"/>
</filter>
<filter id="filter2_bf_1520_3580" x="312.316" y="160.637" width="269.682" height="309.34" filterUnits="userSpaceOnUse" color-interpolation-filters="sRGB">
<feFlood flood-opacity="0" result="BackgroundImageFix"/>
<feGaussianBlur in="BackgroundImage" stdDeviation="4.43986"/>
<feComposite in2="SourceAlpha" operator="in" result="effect1_backgroundBlur_1520_3580"/>
<feBlend mode="normal" in="SourceGraphic" in2="effect1_backgroundBlur_1520_3580" result="shape"/>
<feGaussianBlur stdDeviation="0.965324" result="effect2_foregroundBlur_1520_3580"/>
</filter>
<filter id="filter3_f_1520_3580" x="503.991" y="167.051" width="40.4814" height="42.6458" filterUnits="userSpaceOnUse" color-interpolation-filters="sRGB">
<feFlood flood-opacity="0" result="BackgroundImageFix"/>
<feBlend mode="normal" in="SourceGraphic" in2="BackgroundImageFix" result="shape"/>
<feGaussianBlur stdDeviation="0.293267" result="effect1_foregroundBlur_1520_3580"/>
</filter>
<filter id="filter4_f_1520_3580" x="484.365" y="147.429" width="81.882" height="81.8819" filterUnits="userSpaceOnUse" color-interpolation-filters="sRGB">
<feFlood flood-opacity="0" result="BackgroundImageFix"/>
<feBlend mode="normal" in="SourceGraphic" in2="BackgroundImageFix" result="shape"/>
<feGaussianBlur stdDeviation="0.758957" result="effect1_foregroundBlur_1520_3580"/>
</filter>
<filter id="filter5_f_1520_3580" x="467.621" y="130.682" width="115.377" height="115.377" filterUnits="userSpaceOnUse" color-interpolation-filters="sRGB">
<feFlood flood-opacity="0" result="BackgroundImageFix"/>
<feBlend mode="normal" in="SourceGraphic" in2="BackgroundImageFix" result="shape"/>
<feGaussianBlur stdDeviation="1.51791" result="effect1_foregroundBlur_1520_3580"/>
</filter>
<filter id="filter6_f_1520_3580" x="568.618" y="121.115" width="14.0331" height="14.0331" filterUnits="userSpaceOnUse" color-interpolation-filters="sRGB">
<feFlood flood-opacity="0" result="BackgroundImageFix"/>
<feBlend mode="normal" in="SourceGraphic" in2="BackgroundImageFix" result="shape"/>
<feGaussianBlur stdDeviation="0.758957" result="effect1_foregroundBlur_1520_3580"/>
</filter>
<filter id="filter7_f_1520_3580" x="477.293" y="242.579" width="12.602" height="12.602" filterUnits="userSpaceOnUse" color-interpolation-filters="sRGB">
<feFlood flood-opacity="0" result="BackgroundImageFix"/>
<feBlend mode="normal" in="SourceGraphic" in2="BackgroundImageFix" result="shape"/>
<feGaussianBlur stdDeviation="0.758957" result="effect1_foregroundBlur_1520_3580"/>
</filter>
<filter id="filter8_f_1520_3580" x="280.103" y="360.792" width="12.602" height="12.602" filterUnits="userSpaceOnUse" color-interpolation-filters="sRGB">
<feFlood flood-opacity="0" result="BackgroundImageFix"/>
<feBlend mode="normal" in="SourceGraphic" in2="BackgroundImageFix" result="shape"/>
<feGaussianBlur stdDeviation="0.758957" result="effect1_foregroundBlur_1520_3580"/>
</filter>
<filter id="filter9_f_1520_3580" x="360.934" y="492.874" width="29.6033" height="29.6033" filterUnits="userSpaceOnUse" color-interpolation-filters="sRGB">
<feFlood flood-opacity="0" result="BackgroundImageFix"/>
<feBlend mode="normal" in="SourceGraphic" in2="BackgroundImageFix" result="shape"/>
<feGaussianBlur stdDeviation="0.758957" result="effect1_foregroundBlur_1520_3580"/>
</filter>
<filter id="filter10_f_1520_3580" x="532.072" y="151.669" width="8.57585" height="8.57586" filterUnits="userSpaceOnUse" color-interpolation-filters="sRGB">
<feFlood flood-opacity="0" result="BackgroundImageFix"/>
<feBlend mode="normal" in="SourceGraphic" in2="BackgroundImageFix" result="shape"/>
<feGaussianBlur stdDeviation="0.758957" result="effect1_foregroundBlur_1520_3580"/>
</filter>
<filter id="filter11_f_1520_3580" x="417.083" y="313.374" width="55.5299" height="32.7651" filterUnits="userSpaceOnUse" color-interpolation-filters="sRGB">
<feFlood flood-opacity="0" result="BackgroundImageFix"/>
<feBlend mode="normal" in="SourceGraphic" in2="BackgroundImageFix" result="shape"/>
<feGaussianBlur stdDeviation="0.75628" result="effect1_foregroundBlur_1520_3580"/>
</filter>
<filter id="filter12_f_1520_3580" x="395.848" y="293.669" width="35.5065" height="36.6789" filterUnits="userSpaceOnUse" color-interpolation-filters="sRGB">
<feFlood flood-opacity="0" result="BackgroundImageFix"/>
<feBlend mode="normal" in="SourceGraphic" in2="BackgroundImageFix" result="shape"/>
<feGaussianBlur stdDeviation="1.13749" result="effect1_foregroundBlur_1520_3580"/>
</filter>
<radialGradient id="paint0_radial_1520_3580" cx="0" cy="0" r="1" gradientUnits="userSpaceOnUse" gradientTransform="translate(400.912 383.265) rotate(90) scale(382.391 400)">
<stop stop-color="#8CFF00"/>
<stop offset="1" stop-color="#054F77" stop-opacity="0"/>
</radialGradient>
<linearGradient id="paint1_linear_1520_3580" x1="363.778" y1="163.032" x2="447.157" y2="460.856" gradientUnits="userSpaceOnUse">
<stop stop-color="#093954"/>
<stop offset="1" stop-color="#C4C4C4" stop-opacity="0"/>
</linearGradient>
<linearGradient id="paint2_linear_1520_3580" x1="526.354" y1="167.451" x2="516.091" y2="206.945" gradientUnits="userSpaceOnUse">
<stop stop-color="#054F77"/>
<stop offset="0.971875" stop-color="#8CFF00"/>
</linearGradient>
<linearGradient id="paint3_linear_1520_3580" x1="489.934" y1="170.071" x2="550.159" y2="218.972" gradientUnits="userSpaceOnUse">
<stop stop-color="#054F77"/>
<stop offset="0.971875" stop-color="#8CFF00"/>
</linearGradient>
<linearGradient id="paint4_linear_1520_3580" x1="485.079" y1="226.182" x2="576.776" y2="169.984" gradientUnits="userSpaceOnUse">
<stop stop-color="#054F77"/>
<stop offset="0.971875" stop-color="#8CFF00"/>
</linearGradient>
<linearGradient id="paint5_linear_1520_3580" x1="575.635" y1="122.635" x2="575.635" y2="142.027" gradientUnits="userSpaceOnUse">
<stop stop-color="#054F77"/>
<stop offset="1" stop-color="#8CFF00"/>
</linearGradient>
<linearGradient id="paint6_linear_1520_3580" x1="483.594" y1="244.098" x2="483.594" y2="260.967" gradientUnits="userSpaceOnUse">
<stop stop-color="#054F77"/>
<stop offset="1" stop-color="#8CFF00"/>
</linearGradient>
<linearGradient id="paint7_linear_1520_3580" x1="286.404" y1="362.311" x2="286.404" y2="379.179" gradientUnits="userSpaceOnUse">
<stop stop-color="#054F77"/>
<stop offset="1" stop-color="#8CFF00"/>
</linearGradient>
<linearGradient id="paint8_linear_1520_3580" x1="375.735" y1="494.395" x2="375.735" y2="541.243" gradientUnits="userSpaceOnUse">
<stop stop-color="#054F77"/>
<stop offset="1" stop-color="#8CFF00"/>
</linearGradient>
<linearGradient id="paint9_linear_1520_3580" x1="536.36" y1="153.188" x2="536.36" y2="162.957" gradientUnits="userSpaceOnUse">
<stop stop-color="#054F77"/>
<stop offset="1" stop-color="#8CFF00"/>
</linearGradient>
<linearGradient id="paint10_linear_1520_3580" x1="454.647" y1="343.903" x2="423.658" y2="318.025" gradientUnits="userSpaceOnUse">
<stop stop-color="#F4FBFF"/>
<stop offset="1" stop-color="#83DDDD" stop-opacity="0.92"/>
</linearGradient>
<linearGradient id="paint11_linear_1520_3580" x1="468.995" y1="313.325" x2="435.756" y2="350.43" gradientUnits="userSpaceOnUse">
<stop stop-color="#141F45"/>
<stop offset="1" stop-color="#054F77"/>
</linearGradient>
<radialGradient id="paint12_radial_1520_3580" cx="0" cy="0" r="1" gradientUnits="userSpaceOnUse" gradientTransform="translate(430.377 325.843) rotate(-163.318) scale(48.9586)">
<stop stop-color="#054F77"/>
<stop offset="1" stop-color="#141F45"/>
</radialGradient>
<radialGradient id="paint13_radial_1520_3580" cx="0" cy="0" r="1" gradientUnits="userSpaceOnUse" gradientTransform="translate(430.377 325.843) rotate(-163.318) scale(48.9586)">
<stop stop-color="#054F77"/>
<stop offset="1" stop-color="#141F45"/>
</radialGradient>
<radialGradient id="paint14_radial_1520_3580" cx="0" cy="0" r="1" gradientUnits="userSpaceOnUse" gradientTransform="translate(430.377 325.843) rotate(-163.318) scale(48.9586)">
<stop stop-color="#054F77"/>
<stop offset="1" stop-color="#8CFF00"/>
</radialGradient>
<linearGradient id="paint15_linear_1520_3580" x1="404.798" y1="200.422" x2="296.75" y2="224.795" gradientUnits="userSpaceOnUse">
<stop stop-color="#054F77"/>
<stop offset="1" stop-color="#8CFF00"/>
</linearGradient>
<linearGradient id="paint16_linear_1520_3580" x1="413.438" y1="211.871" x2="305.39" y2="236.243" gradientUnits="userSpaceOnUse">
<stop stop-color="#054F77"/>
<stop offset="1" stop-color="#8CFF00"/>
</linearGradient>
<linearGradient id="paint17_linear_1520_3580" x1="377.631" y1="249.111" x2="269.583" y2="273.483" gradientUnits="userSpaceOnUse">
<stop stop-color="#054F77"/>
<stop offset="1" stop-color="#8CFF00"/>
</linearGradient>
<linearGradient id="paint18_linear_1520_3580" x1="419.57" y1="260.558" x2="311.522" y2="284.931" gradientUnits="userSpaceOnUse">
<stop stop-color="#054F77"/>
<stop offset="1" stop-color="#8CFF00"/>
</linearGradient>
<linearGradient id="paint19_linear_1520_3580" x1="441.405" y1="383.752" x2="549.453" y2="408.124" gradientUnits="userSpaceOnUse">
<stop stop-color="#054F77"/>
<stop offset="1" stop-color="#8CFF00"/>
</linearGradient>
<linearGradient id="paint20_linear_1520_3580" x1="432.757" y1="395.203" x2="540.805" y2="419.575" gradientUnits="userSpaceOnUse">
<stop stop-color="#054F77"/>
<stop offset="1" stop-color="#8CFF00"/>
</linearGradient>
<linearGradient id="paint21_linear_1520_3580" x1="468.568" y1="432.439" x2="576.616" y2="456.811" gradientUnits="userSpaceOnUse">
<stop stop-color="#054F77"/>
<stop offset="1" stop-color="#8CFF00"/>
</linearGradient>
<linearGradient id="paint22_linear_1520_3580" x1="426.629" y1="443.889" x2="534.678" y2="468.261" gradientUnits="userSpaceOnUse">
<stop stop-color="#054F77"/>
<stop offset="1" stop-color="#8CFF00"/>
</linearGradient>
</defs>
</svg>
