<svg width="320" height="230" viewBox="0 0 320 230" fill="none" xmlns="http://www.w3.org/2000/svg">
<path d="M127.195 203.522L126.773 203.739L127.178 203.985L168.832 229.29L168.961 229.368L169.094 229.297L213.592 205.669L214.039 205.432L213.59 205.199L169.092 182.103L168.97 182.04L168.848 182.103L127.195 203.522Z" stroke="url(#paint0_linear_2441_5243)" stroke-width="0.531282"/>
<path d="M127.336 190.641V171.788L168.901 196.926L213.469 173.482V190.576L168.901 214.271L127.336 190.641Z" fill="url(#paint1_linear_2441_5243)"/>
<path d="M127.318 171.828L168.971 150.409L213.469 173.504L168.971 197.132L127.318 171.828Z" fill="url(#paint2_linear_2441_5243)"/>
<g filter="url(#filter0_f_2441_5243)">
<path d="M127.678 171.862L169.049 197.224L212.957 173.289" stroke="#F4FBFF" stroke-width="2.12513"/>
</g>
<path d="M127.652 171.849L127.561 171.793L127.451 171.975L127.541 172.03L127.652 171.849ZM169.049 197.224L168.994 197.315L169.1 197.317L169.049 197.224ZM213.008 173.382C213.059 173.354 213.078 173.289 213.05 173.238C213.022 173.186 212.958 173.167 212.906 173.196L213.008 173.382ZM127.541 172.03L168.994 197.315L169.105 197.133L127.652 171.849L127.541 172.03ZM169.1 197.317L213.008 173.382L212.906 173.196L168.998 197.131L169.1 197.317Z" fill="#F4FBFF"/>
<path d="M127.336 158.71V139.856L168.901 164.994L213.469 141.55V158.644L168.901 182.34L127.336 158.71Z" fill="url(#paint3_linear_2441_5243)"/>
<path d="M127.318 139.896L168.971 118.477L213.469 141.573L168.971 165.201L127.318 139.896Z" fill="url(#paint4_linear_2441_5243)"/>
<g filter="url(#filter1_f_2441_5243)">
<path d="M127.678 139.931L169.049 165.293L212.957 141.357" stroke="#F4FBFF" stroke-width="2.12513"/>
</g>
<path d="M127.652 139.917L127.561 139.862L127.451 140.043L127.541 140.099L127.652 139.917ZM169.049 165.292L168.994 165.383L169.1 165.386L169.049 165.292ZM213.008 141.45C213.059 141.422 213.078 141.358 213.05 141.306C213.022 141.255 212.958 141.236 212.906 141.264L213.008 141.45ZM127.541 140.099L168.994 165.383L169.105 165.202L127.652 139.917L127.541 140.099ZM169.1 165.386L213.008 141.45L212.906 141.264L168.998 165.199L169.1 165.386Z" fill="#F4FBFF"/>
<path d="M230.389 203.522L229.967 203.739L230.372 203.985L272.026 229.29L272.155 229.368L272.288 229.297L316.786 205.669L317.233 205.432L316.784 205.199L272.286 182.103L272.164 182.04L272.042 182.103L230.389 203.522Z" stroke="url(#paint5_linear_2441_5243)" stroke-width="0.531282"/>
<path d="M230.528 193.465V174.611L272.093 199.749L316.661 176.305V193.399L272.093 217.095L230.528 193.465Z" fill="url(#paint6_linear_2441_5243)"/>
<path d="M230.51 174.651L272.164 153.232L316.661 176.327L272.164 199.956L230.51 174.651Z" fill="url(#paint7_linear_2441_5243)"/>
<g filter="url(#filter2_f_2441_5243)">
<path d="M230.871 174.686L272.242 200.047L316.15 176.112" stroke="#F4FBFF" stroke-width="2.12513"/>
</g>
<path d="M230.844 174.672L230.754 174.617L230.643 174.798L230.734 174.853L230.844 174.672ZM272.242 200.047L272.186 200.138L272.293 200.141L272.242 200.047ZM316.2 176.205C316.252 176.177 316.271 176.113 316.243 176.061C316.214 176.01 316.15 175.991 316.098 176.019L316.2 176.205ZM230.734 174.853L272.186 200.138L272.297 199.957L230.844 174.672L230.734 174.853ZM272.293 200.141L316.2 176.205L316.098 176.019L272.191 199.954L272.293 200.141Z" fill="#F4FBFF"/>
<path d="M230.528 161.533V142.68L272.093 167.818L316.661 144.374V161.468L272.093 185.164L230.528 161.533Z" fill="url(#paint8_linear_2441_5243)"/>
<path d="M230.51 142.719L272.164 121.3L316.661 144.396L272.164 168.024L230.51 142.719Z" fill="url(#paint9_linear_2441_5243)"/>
<g filter="url(#filter3_f_2441_5243)">
<path d="M230.871 142.754L272.242 168.116L316.15 144.181" stroke="#F4FBFF" stroke-width="2.12513"/>
</g>
<path d="M230.844 142.741L230.754 142.685L230.643 142.867L230.734 142.922L230.844 142.741ZM272.242 168.116L272.186 168.207L272.293 168.209L272.242 168.116ZM316.2 144.274C316.252 144.246 316.271 144.182 316.243 144.13C316.214 144.079 316.15 144.06 316.098 144.088L316.2 144.274ZM230.734 142.922L272.186 168.207L272.297 168.025L230.844 142.741L230.734 142.922ZM272.293 168.209L316.2 144.274L316.098 144.088L272.191 168.023L272.293 168.209Z" fill="#F4FBFF"/>
<path d="M230.528 129.602V110.748L272.093 135.886L316.661 112.443V129.537L272.093 153.232L230.528 129.602Z" fill="url(#paint10_linear_2441_5243)"/>
<path d="M230.51 110.788L272.164 89.3687L316.661 112.464L272.164 136.092L230.51 110.788Z" fill="url(#paint11_linear_2441_5243)"/>
<g filter="url(#filter4_f_2441_5243)">
<path d="M230.871 110.822L272.242 136.184L316.15 112.249" stroke="#F4FBFF" stroke-width="2.12513"/>
</g>
<path d="M230.844 110.809L230.754 110.753L230.643 110.935L230.734 110.99L230.844 110.809ZM272.242 136.184L272.186 136.275L272.293 136.277L272.242 136.184ZM316.2 112.342C316.252 112.314 316.271 112.249 316.243 112.198C316.214 112.146 316.15 112.127 316.098 112.155L316.2 112.342ZM230.734 110.99L272.186 136.275L272.297 136.093L230.844 110.809L230.734 110.99ZM272.293 136.277L316.2 112.342L316.098 112.155L272.191 136.091L272.293 136.277Z" fill="#F4FBFF"/>
<path d="M127.336 126.778V107.924L168.901 133.063L213.469 109.619V126.713L168.901 150.408L127.336 126.778Z" fill="url(#paint12_linear_2441_5243)"/>
<path d="M127.318 107.964L168.972 86.5454L213.47 109.641L168.972 133.269L127.318 107.964Z" fill="url(#paint13_linear_2441_5243)"/>
<g filter="url(#filter5_f_2441_5243)">
<path d="M127.678 107.999L169.05 133.36L212.957 109.425" stroke="#F4FBFF" stroke-width="2.12513"/>
</g>
<path d="M127.652 107.985L127.561 107.93L127.451 108.112L127.541 108.167L127.652 107.985ZM169.049 133.361L168.994 133.451L169.1 133.454L169.049 133.361ZM213.008 109.519C213.059 109.491 213.078 109.426 213.05 109.375C213.022 109.323 212.958 109.304 212.906 109.332L213.008 109.519ZM127.541 108.167L168.994 133.451L169.105 133.27L127.652 107.985L127.541 108.167ZM169.1 133.454L213.008 109.519L212.906 109.332L168.998 133.267L169.1 133.454Z" fill="#F4FBFF"/>
<path d="M127.336 94.8474V75.9937L168.901 101.132L213.469 77.6881V94.7822L168.901 118.477L127.336 94.8474Z" fill="url(#paint14_linear_2441_5243)"/>
<path d="M127.318 76.0337L168.972 54.6148L213.47 77.7103L168.972 101.339L127.318 76.0337Z" fill="url(#paint15_linear_2441_5243)"/>
<g filter="url(#filter6_f_2441_5243)">
<path d="M127.678 76.0684L169.05 101.43L212.957 77.495" stroke="#F4FBFF" stroke-width="2.12513"/>
</g>
<path d="M127.652 76.0548L127.561 75.9995L127.451 76.1809L127.541 76.2362L127.652 76.0548ZM169.049 101.43L168.994 101.521L169.1 101.523L169.049 101.43ZM213.008 77.5881C213.059 77.5601 213.078 77.4955 213.05 77.444C213.022 77.3925 212.958 77.3735 212.906 77.4016L213.008 77.5881ZM127.541 76.2362L168.994 101.521L169.105 101.339L127.652 76.0548L127.541 76.2362ZM169.1 101.523L213.008 77.5881L212.906 77.4016L168.998 101.337L169.1 101.523Z" fill="#F4FBFF"/>
<path d="M24.0025 203.522L23.5806 203.739L23.9861 203.985L65.6395 229.29L65.7686 229.368L65.902 229.297L110.4 205.669L110.847 205.432L110.398 205.199L65.8998 182.103L65.778 182.04L65.6559 182.103L24.0025 203.522Z" stroke="url(#paint16_linear_2441_5243)" stroke-width="0.531282"/>
<path d="M24.1436 190.641V171.788L65.7079 196.926L110.276 173.482V190.576L65.7079 214.271L24.1436 190.641Z" fill="url(#paint17_linear_2441_5243)"/>
<path d="M24.1255 171.828L65.7789 150.409L110.277 173.504L65.7789 197.132L24.1255 171.828Z" fill="url(#paint18_linear_2441_5243)"/>
<g filter="url(#filter7_f_2441_5243)">
<path d="M24.4858 171.862L65.8575 197.224L109.765 173.289" stroke="#F4FBFF" stroke-width="2.12513"/>
</g>
<path d="M24.4596 171.849L24.3689 171.793L24.2583 171.975L24.349 172.03L24.4596 171.849ZM65.857 197.224L65.8016 197.315L65.9078 197.317L65.857 197.224ZM109.815 173.382C109.867 173.354 109.886 173.289 109.858 173.238C109.83 173.186 109.765 173.167 109.714 173.196L109.815 173.382ZM24.349 172.03L65.8016 197.315L65.9123 197.133L24.4596 171.849L24.349 172.03ZM65.9078 197.317L109.815 173.382L109.714 173.196L65.8061 197.131L65.9078 197.317Z" fill="#F4FBFF"/>
<path d="M24.1436 158.71V139.856L65.7079 164.994L110.276 141.55V158.644L65.7079 182.34L24.1436 158.71Z" fill="url(#paint19_linear_2441_5243)"/>
<path d="M24.1255 139.896L65.7789 118.477L110.277 141.573L65.7789 165.201L24.1255 139.896Z" fill="url(#paint20_linear_2441_5243)"/>
<g filter="url(#filter8_f_2441_5243)">
<path d="M24.4858 139.931L65.8575 165.293L109.765 141.357" stroke="#F4FBFF" stroke-width="2.12513"/>
</g>
<path d="M24.4596 139.917L24.3689 139.862L24.2583 140.043L24.349 140.099L24.4596 139.917ZM65.857 165.292L65.8016 165.383L65.9078 165.386L65.857 165.292ZM109.815 141.45C109.867 141.422 109.886 141.358 109.858 141.306C109.83 141.255 109.765 141.236 109.714 141.264L109.815 141.45ZM24.349 140.099L65.8016 165.383L65.9123 165.202L24.4596 139.917L24.349 140.099ZM65.9078 165.386L109.815 141.45L109.714 141.264L65.8061 165.199L65.9078 165.386Z" fill="#F4FBFF"/>
<path d="M24.1436 126.778V107.924L65.7079 133.063L110.276 109.619V126.713L65.7079 150.408L24.1436 126.778Z" fill="url(#paint21_linear_2441_5243)"/>
<path d="M24.1255 107.964L65.7789 86.5454L110.277 109.641L65.7789 133.269L24.1255 107.964Z" fill="url(#paint22_linear_2441_5243)"/>
<g filter="url(#filter9_f_2441_5243)">
<path d="M24.4858 107.999L65.8575 133.36L109.765 109.425" stroke="#F4FBFF" stroke-width="2.12513"/>
</g>
<path d="M24.4596 107.985L24.3689 107.93L24.2583 108.112L24.349 108.167L24.4596 107.985ZM65.857 133.361L65.8016 133.451L65.9078 133.454L65.857 133.361ZM109.815 109.519C109.867 109.491 109.886 109.426 109.858 109.375C109.83 109.323 109.765 109.304 109.714 109.332L109.815 109.519ZM24.349 108.167L65.8016 133.451L65.9123 133.27L24.4596 107.985L24.349 108.167ZM65.9078 133.454L109.815 109.519L109.714 109.332L65.8061 133.267L65.9078 133.454Z" fill="#F4FBFF"/>
<path d="M24.1436 94.8474V75.9937L65.7079 101.132L110.276 77.6881V94.7822L65.7079 118.477L24.1436 94.8474Z" fill="url(#paint23_linear_2441_5243)"/>
<path d="M24.1255 76.0337L65.7789 54.6148L110.277 77.7103L65.7789 101.339L24.1255 76.0337Z" fill="url(#paint24_linear_2441_5243)"/>
<g filter="url(#filter10_f_2441_5243)">
<path d="M24.4858 76.0684L65.8575 101.43L109.765 77.495" stroke="#F4FBFF" stroke-width="2.12513"/>
</g>
<path d="M24.4596 76.0548L24.3689 75.9995L24.2583 76.1809L24.349 76.2362L24.4596 76.0548ZM65.857 101.43L65.8016 101.521L65.9078 101.523L65.857 101.43ZM109.815 77.5881C109.867 77.5601 109.886 77.4955 109.858 77.444C109.83 77.3925 109.765 77.3735 109.714 77.4016L109.815 77.5881ZM24.349 76.2362L65.8016 101.521L65.9123 101.339L24.4596 76.0548L24.349 76.2362ZM65.9078 101.523L109.815 77.5881L109.714 77.4016L65.8061 101.337L65.9078 101.523Z" fill="#F4FBFF"/>
<path d="M127.336 62.9148V44.061L168.901 69.1994L213.469 45.7555V62.8496L168.901 86.5448L127.336 62.9148Z" fill="url(#paint25_linear_2441_5243)"/>
<path d="M127.318 44.1011L168.972 22.6822L213.47 45.7777L168.972 69.4059L127.318 44.1011Z" fill="url(#paint26_linear_2441_5243)"/>
<g filter="url(#filter11_i_2441_5243)">
<path d="M146.902 43.1588L169.505 31.5357L193.652 44.0685L169.505 56.8906L146.902 43.1588Z" fill="url(#paint27_linear_2441_5243)"/>
</g>
<g filter="url(#filter12_f_2441_5243)">
<path d="M127.678 44.1357L169.05 69.4976L212.957 45.5623" stroke="#F4FBFF" stroke-width="2.12513"/>
</g>
<path d="M127.652 44.1222L127.561 44.0668L127.451 44.2483L127.541 44.3036L127.652 44.1222ZM169.049 69.4975L168.994 69.5882L169.1 69.5908L169.049 69.4975ZM213.008 45.6555C213.059 45.6274 213.078 45.5629 213.05 45.5114C213.022 45.4599 212.958 45.4409 212.906 45.4689L213.008 45.6555ZM127.541 44.3036L168.994 69.5882L169.105 69.4068L127.652 44.1222L127.541 44.3036ZM169.1 69.5908L213.008 45.6555L212.906 45.4689L168.998 69.4042L169.1 69.5908Z" fill="#F4FBFF"/>
<rect x="193.166" y="44.2129" width="46.2643" height="31.6099" transform="rotate(-180 193.166 44.2129)" fill="url(#paint28_linear_2441_5243)"/>
<g filter="url(#filter13_d_2441_5243)">
<path d="M146.542 12.384L169.505 0.0537109L193.651 12.5866L169.505 25.4086L146.542 12.384Z" fill="url(#paint29_linear_2441_5243)"/>
</g>
<path d="M250.22 109.693L272.823 98.0698L296.97 110.603L272.823 123.425L250.22 109.693Z" fill="url(#paint30_linear_2441_5243)"/>
<path d="M43.7075 74.9386L66.3109 63.3154L90.4579 75.8483L66.3109 88.6703L43.7075 74.9386Z" fill="url(#paint31_linear_2441_5243)"/>
<g filter="url(#filter14_f_2441_5243)">
<circle cx="5.67597" cy="98.0715" r="3.72521" transform="rotate(-22.7554 5.67597 98.0715)" fill="url(#paint32_linear_2441_5243)"/>
</g>
<g filter="url(#filter15_f_2441_5243)">
<circle cx="265.604" cy="16.3757" r="3.72521" transform="rotate(-22.7554 265.604 16.3757)" fill="url(#paint33_linear_2441_5243)"/>
</g>
<g filter="url(#filter16_f_2441_5243)">
<circle cx="230.51" cy="89.3693" r="3.72521" transform="rotate(-22.7554 230.51 89.3693)" fill="url(#paint34_linear_2441_5243)"/>
</g>
<g filter="url(#filter17_f_2441_5243)">
<circle cx="110.275" cy="49.5091" r="7.12925" transform="rotate(-22.7554 110.275 49.5091)" fill="url(#paint35_linear_2441_5243)"/>
</g>
<g filter="url(#filter18_f_2441_5243)">
<circle cx="47.7896" cy="45.4269" r="3.11853" transform="rotate(-22.7554 47.7896 45.4269)" fill="url(#paint36_linear_2441_5243)"/>
</g>
<g filter="url(#filter19_f_2441_5243)">
<circle cx="222.896" cy="221.194" r="2.68388" transform="rotate(-22.7554 222.896 221.194)" fill="url(#paint37_linear_2441_5243)"/>
</g>
<g opacity="0.5" filter="url(#filter20_f_2441_5243)">
<path d="M151.801 30.0898V29.2336H153.84V23.3185L151.914 23.6903V22.9693L154.156 22.2031H154.787V29.2336H156.939V30.0898H151.801Z" fill="white"/>
<path d="M151.801 30.0898H151.332V30.5593H151.801V30.0898ZM151.801 29.2336V28.7641H151.332V29.2336H151.801ZM153.84 29.2336V29.703H154.31V29.2336H153.84ZM153.84 23.3185H154.31V22.7498L153.751 22.8576L153.84 23.3185ZM151.914 23.6903H151.444V24.2591L152.003 24.1513L151.914 23.6903ZM151.914 22.9693L151.762 22.5251L151.444 22.6336V22.9693H151.914ZM154.156 22.2031V21.7337H154.078L154.004 21.7589L154.156 22.2031ZM154.787 22.2031H155.256V21.7337H154.787V22.2031ZM154.787 29.2336H154.317V29.703H154.787V29.2336ZM156.939 29.2336H157.408V28.7641H156.939V29.2336ZM156.939 30.0898V30.5593H157.408V30.0898H156.939ZM152.27 30.0898V29.2336H151.332V30.0898H152.27ZM151.801 29.703H153.84V28.7641H151.801V29.703ZM154.31 29.2336V23.3185H153.371V29.2336H154.31ZM153.751 22.8576L151.825 23.2294L152.003 24.1513L153.929 23.7795L153.751 22.8576ZM152.383 23.6903V22.9693H151.444V23.6903H152.383ZM152.065 23.4135L154.308 22.6474L154.004 21.7589L151.762 22.5251L152.065 23.4135ZM154.156 22.6726H154.787V21.7337H154.156V22.6726ZM154.317 22.2031V29.2336H155.256V22.2031H154.317ZM154.787 29.703H156.939V28.7641H154.787V29.703ZM156.469 29.2336V30.0898H157.408V29.2336H156.469ZM156.939 29.6204H151.801V30.5593H156.939V29.6204Z" fill="#8CFF00"/>
</g>
<g opacity="0.5" filter="url(#filter21_f_2441_5243)">
<path d="M176.369 42.5063V41.6501H178.409V35.7351L176.482 36.1069V35.3858L178.724 34.6196H179.355V41.6501H181.507V42.5063H176.369Z" fill="white"/>
<path d="M176.369 42.5063H175.9V42.9758H176.369V42.5063ZM176.369 41.6501V41.1806H175.9V41.6501H176.369ZM178.409 41.6501V42.1195H178.878V41.6501H178.409ZM178.409 35.7351H178.878V35.1663L178.32 35.2741L178.409 35.7351ZM176.482 36.1069H176.013V36.6756L176.571 36.5678L176.482 36.1069ZM176.482 35.3858L176.33 34.9416L176.013 35.0501V35.3858H176.482ZM178.724 34.6196V34.1502H178.646L178.572 34.1754L178.724 34.6196ZM179.355 34.6196H179.824V34.1502H179.355V34.6196ZM179.355 41.6501H178.886V42.1195H179.355V41.6501ZM181.507 41.6501H181.976V41.1806H181.507V41.6501ZM181.507 42.5063V42.9758H181.976V42.5063H181.507ZM176.839 42.5063V41.6501H175.9V42.5063H176.839ZM176.369 42.1195H178.409V41.1806H176.369V42.1195ZM178.878 41.6501V35.7351H177.939V41.6501H178.878ZM178.32 35.2741L176.393 35.6459L176.571 36.5678L178.498 36.196L178.32 35.2741ZM176.951 36.1069V35.3858H176.013V36.1069H176.951ZM176.634 35.83L178.876 35.0639L178.572 34.1754L176.33 34.9416L176.634 35.83ZM178.724 35.0891H179.355V34.1502H178.724V35.0891ZM178.886 34.6196V41.6501H179.824V34.6196H178.886ZM179.355 42.1195H181.507V41.1806H179.355V42.1195ZM181.038 41.6501V42.5063H181.976V41.6501H181.038ZM181.507 42.0369H176.369V42.9758H181.507V42.0369Z" fill="#8CFF00"/>
</g>
<g opacity="0.5" filter="url(#filter22_f_2441_5243)">
<path d="M186.763 29.8574C186.17 29.8574 185.644 29.6921 185.186 29.3616C184.735 29.0311 184.382 28.5617 184.127 27.9533C183.879 27.3449 183.755 26.6201 183.755 25.7788C183.755 24.9376 183.879 24.2127 184.127 23.6043C184.382 22.9959 184.735 22.5265 185.186 22.196C185.644 21.8655 186.17 21.7003 186.763 21.7003C187.364 21.7003 187.89 21.8655 188.34 22.196C188.791 22.5265 189.14 22.9959 189.388 23.6043C189.643 24.2127 189.771 24.9376 189.771 25.7788C189.771 26.6201 189.643 27.3449 189.388 27.9533C189.14 28.5617 188.791 29.0311 188.34 29.3616C187.89 29.6921 187.364 29.8574 186.763 29.8574ZM184.724 25.7788C184.724 26.2896 184.776 26.7515 184.881 27.1646C184.994 27.5702 185.148 27.912 185.343 28.1899L187.529 22.7706C187.296 22.6429 187.041 22.5791 186.763 22.5791C186.365 22.5791 186.012 22.7105 185.704 22.9734C185.396 23.2288 185.156 23.5968 184.983 24.0775C184.81 24.5507 184.724 25.1178 184.724 25.7788ZM186.763 28.9898C187.161 28.9898 187.514 28.8621 187.822 28.6068C188.13 28.3439 188.37 27.9721 188.543 27.4914C188.716 27.0106 188.802 26.4398 188.802 25.7788C188.802 25.2681 188.746 24.8099 188.633 24.4043C188.528 23.9912 188.378 23.6457 188.183 23.3677L185.986 28.7983C186.226 28.926 186.485 28.9898 186.763 28.9898Z" fill="white"/>
<path d="M185.186 29.3616L184.908 29.7402L184.911 29.7424L185.186 29.3616ZM184.127 27.9533L183.692 28.1304L183.694 28.135L184.127 27.9533ZM184.127 23.6043L183.694 23.4226L183.692 23.4272L184.127 23.6043ZM185.186 22.196L184.911 21.8153L184.908 21.8174L185.186 22.196ZM188.34 22.196L188.618 21.8174L188.618 21.8174L188.34 22.196ZM189.388 23.6043L188.953 23.7815L188.955 23.786L189.388 23.6043ZM189.388 27.9533L188.955 27.7716L188.953 27.7762L189.388 27.9533ZM188.34 29.3616L188.618 29.7402L188.34 29.3616ZM184.881 27.1646L184.426 27.2805L184.429 27.2903L184.881 27.1646ZM185.343 28.1899L184.959 28.4598L185.456 29.1663L185.779 28.3655L185.343 28.1899ZM187.529 22.7706L187.964 22.9462L188.12 22.5595L187.755 22.359L187.529 22.7706ZM185.704 22.9734L186.004 23.3348L186.009 23.3304L185.704 22.9734ZM184.983 24.0775L185.424 24.2385L185.425 24.2363L184.983 24.0775ZM187.822 28.6068L188.122 28.9682L188.127 28.9638L187.822 28.6068ZM188.633 24.4043L188.178 24.5201L188.181 24.5299L188.633 24.4043ZM188.183 23.3677L188.567 23.0978L188.071 22.3922L187.747 23.1917L188.183 23.3677ZM185.986 28.7983L185.55 28.6222L185.392 29.0144L185.765 29.2129L185.986 28.7983ZM186.763 29.3879C186.263 29.3879 185.834 29.2507 185.46 28.9809L184.911 29.7424C185.453 30.1335 186.076 30.3268 186.763 30.3268V29.3879ZM185.463 28.9831C185.093 28.7114 184.788 28.3158 184.559 27.7716L183.694 28.135C183.976 28.8076 184.377 29.3509 184.908 29.7402L185.463 28.9831ZM184.561 27.7762C184.342 27.2374 184.224 26.5756 184.224 25.7788H183.285C183.285 26.6645 183.416 27.4524 183.692 28.1304L184.561 27.7762ZM184.224 25.7788C184.224 24.982 184.342 24.3203 184.561 23.7815L183.692 23.4272C183.416 24.1052 183.285 24.8931 183.285 25.7788H184.224ZM184.559 23.786C184.788 23.2418 185.093 22.8463 185.463 22.5746L184.908 21.8174C184.377 22.2067 183.976 22.7501 183.694 23.4226L184.559 23.786ZM185.46 22.5767C185.834 22.3069 186.263 22.1697 186.763 22.1697V21.2308C186.076 21.2308 185.453 21.4241 184.911 21.8153L185.46 22.5767ZM186.763 22.1697C187.272 22.1697 187.699 22.3077 188.063 22.5746L188.618 21.8174C188.081 21.4234 187.456 21.2308 186.763 21.2308V22.1697ZM188.063 22.5746C188.432 22.8453 188.732 23.2391 188.953 23.7815L189.823 23.4272C189.548 22.7527 189.15 22.2077 188.618 21.8174L188.063 22.5746ZM188.955 23.786C189.181 24.3234 189.302 24.9835 189.302 25.7788H190.241C190.241 24.8916 190.106 24.102 189.821 23.4226L188.955 23.786ZM189.302 25.7788C189.302 26.5741 189.181 27.2342 188.955 27.7716L189.821 28.135C190.106 27.4556 190.241 26.666 190.241 25.7788H189.302ZM188.953 27.7762C188.732 28.3185 188.432 28.7123 188.063 28.9831L188.618 29.7402C189.15 29.35 189.548 28.8049 189.823 28.1304L188.953 27.7762ZM188.063 28.9831C187.699 29.25 187.272 29.3879 186.763 29.3879V30.3268C187.456 30.3268 188.081 30.1343 188.618 29.7402L188.063 28.9831ZM184.254 25.7788C184.254 26.3212 184.31 26.8229 184.426 27.2804L185.336 27.0488C185.242 26.6801 185.193 26.258 185.193 25.7788H184.254ZM184.429 27.2903C184.553 27.7356 184.727 28.129 184.959 28.4598L185.727 27.92C185.569 27.695 185.435 27.4048 185.334 27.039L184.429 27.2903ZM185.779 28.3655L187.964 22.9462L187.094 22.595L184.908 28.0143L185.779 28.3655ZM187.755 22.359C187.449 22.1916 187.116 22.1096 186.763 22.1096V23.0485C186.966 23.0485 187.143 23.0943 187.303 23.1822L187.755 22.359ZM186.763 22.1096C186.251 22.1096 185.79 22.2823 185.399 22.6164L186.009 23.3304C186.233 23.1387 186.479 23.0485 186.763 23.0485V22.1096ZM185.404 22.612C185.016 22.9339 184.734 23.3805 184.541 23.9188L185.425 24.2363C185.577 23.8131 185.776 23.5236 186.004 23.3348L185.404 22.612ZM184.542 23.9165C184.345 24.4546 184.254 25.0791 184.254 25.7788H185.193C185.193 25.1566 185.275 24.6469 185.424 24.2385L184.542 23.9165ZM186.763 29.4593C187.271 29.4593 187.73 29.293 188.122 28.9681L187.522 28.2454C187.298 28.4313 187.051 28.5204 186.763 28.5204V29.4593ZM188.127 28.9638C188.511 28.6357 188.792 28.1879 188.985 27.6501L188.101 27.3326C187.949 27.7562 187.749 28.052 187.517 28.2497L188.127 28.9638ZM188.985 27.6501C189.18 27.106 189.272 26.4788 189.272 25.7788H188.333C188.333 26.4008 188.251 26.9153 188.101 27.3326L188.985 27.6501ZM189.272 25.7788C189.272 25.2343 189.212 24.7328 189.086 24.2786L188.181 24.5299C188.28 24.887 188.333 25.3018 188.333 25.7788H189.272ZM189.088 24.2885C188.972 23.8336 188.802 23.4326 188.567 23.0978L187.798 23.6376C187.954 23.8587 188.084 24.1487 188.178 24.5201L189.088 24.2885ZM187.747 23.1917L185.55 28.6222L186.421 28.9744L188.618 23.5438L187.747 23.1917ZM185.765 29.2129C186.075 29.3774 186.41 29.4593 186.763 29.4593V28.5204C186.56 28.5204 186.377 28.4746 186.206 28.3837L185.765 29.2129Z" fill="#8CFF00"/>
</g>
<g opacity="0.5" filter="url(#filter23_f_2441_5243)">
<path d="M167.394 39.9072C166.8 39.9072 166.275 39.7419 165.816 39.4114C165.366 39.0809 165.013 38.6115 164.757 38.0031C164.51 37.3947 164.386 36.6699 164.386 35.8286C164.386 34.9874 164.51 34.2625 164.757 33.6541C165.013 33.0457 165.366 32.5763 165.816 32.2458C166.275 31.9153 166.8 31.7501 167.394 31.7501C167.995 31.7501 168.52 31.9153 168.971 32.2458C169.422 32.5763 169.771 33.0457 170.019 33.6541C170.274 34.2625 170.402 34.9874 170.402 35.8286C170.402 36.6699 170.274 37.3947 170.019 38.0031C169.771 38.6115 169.422 39.0809 168.971 39.4114C168.52 39.7419 167.995 39.9072 167.394 39.9072ZM165.355 35.8286C165.355 36.3394 165.407 36.8013 165.512 37.2144C165.625 37.62 165.779 37.9618 165.974 38.2397L168.16 32.8204C167.927 32.6927 167.672 32.6289 167.394 32.6289C166.996 32.6289 166.643 32.7603 166.335 33.0232C166.027 33.2786 165.786 33.6466 165.614 34.1273C165.441 34.6005 165.355 35.1676 165.355 35.8286ZM167.394 39.0396C167.792 39.0396 168.145 38.9119 168.453 38.6566C168.761 38.3937 169.001 38.0219 169.174 37.5412C169.347 37.0604 169.433 36.4896 169.433 35.8286C169.433 35.3179 169.377 34.8597 169.264 34.4541C169.159 34.041 169.009 33.6955 168.813 33.4175L166.616 38.8481C166.857 38.9758 167.116 39.0396 167.394 39.0396Z" fill="white"/>
<path d="M165.816 39.4114L165.539 39.79L165.542 39.7922L165.816 39.4114ZM164.757 38.0031L164.323 38.1802L164.325 38.1848L164.757 38.0031ZM164.757 33.6541L164.324 33.4724L164.323 33.477L164.757 33.6541ZM165.816 32.2458L165.542 31.8651L165.539 31.8672L165.816 32.2458ZM168.971 32.2458L169.249 31.8672L169.249 31.8672L168.971 32.2458ZM170.019 33.6541L169.584 33.8313L169.586 33.8358L170.019 33.6541ZM170.019 38.0031L169.586 37.8214L169.584 37.826L170.019 38.0031ZM168.971 39.4114L169.249 39.79L168.971 39.4114ZM165.512 37.2144L165.057 37.3303L165.06 37.3401L165.512 37.2144ZM165.974 38.2397L165.59 38.5096L166.087 39.2161L166.41 38.4153L165.974 38.2397ZM168.16 32.8204L168.595 32.996L168.751 32.6093L168.386 32.4088L168.16 32.8204ZM166.335 33.0232L166.634 33.3846L166.64 33.3803L166.335 33.0232ZM165.614 34.1273L166.055 34.2883L166.055 34.2861L165.614 34.1273ZM168.453 38.6566L168.753 39.018L168.758 39.0136L168.453 38.6566ZM169.264 34.4541L168.809 34.5699L168.812 34.5797L169.264 34.4541ZM168.813 33.4175L169.197 33.1476L168.702 32.442L168.378 33.2415L168.813 33.4175ZM166.616 38.8481L166.181 38.672L166.023 39.0642L166.396 39.2627L166.616 38.8481ZM167.394 39.4377C166.894 39.4377 166.465 39.3005 166.091 39.0307L165.542 39.7922C166.084 40.1834 166.707 40.3766 167.394 40.3766V39.4377ZM166.094 39.0329C165.724 38.7612 165.419 38.3656 165.19 37.8214L164.325 38.1848C164.607 38.8574 165.008 39.4007 165.539 39.79L166.094 39.0329ZM165.192 37.826C164.973 37.2872 164.855 36.6255 164.855 35.8286H163.916C163.916 36.7143 164.046 37.5022 164.323 38.1802L165.192 37.826ZM164.855 35.8286C164.855 35.0318 164.973 34.3701 165.192 33.8313L164.323 33.477C164.046 34.155 163.916 34.943 163.916 35.8286H164.855ZM165.19 33.8358C165.419 33.2916 165.724 32.8961 166.094 32.6244L165.539 31.8672C165.008 32.2565 164.607 32.7999 164.325 33.4725L165.19 33.8358ZM166.091 32.6265C166.465 32.3567 166.894 32.2195 167.394 32.2195V31.2806C166.707 31.2806 166.084 31.4739 165.542 31.8651L166.091 32.6265ZM167.394 32.2195C167.903 32.2195 168.33 32.3575 168.694 32.6244L169.249 31.8672C168.711 31.4732 168.087 31.2806 167.394 31.2806V32.2195ZM168.694 32.6244C169.063 32.8951 169.363 33.289 169.584 33.8313L170.454 33.477C170.179 32.8025 169.781 32.2575 169.249 31.8672L168.694 32.6244ZM169.586 33.8358C169.812 34.3733 169.933 35.0333 169.933 35.8286H170.871C170.871 34.9415 170.737 34.1518 170.452 33.4725L169.586 33.8358ZM169.933 35.8286C169.933 36.6239 169.812 37.284 169.586 37.8214L170.452 38.1848C170.737 37.5054 170.871 36.7158 170.871 35.8286H169.933ZM169.584 37.826C169.363 38.3683 169.063 38.7621 168.694 39.0329L169.249 39.79C169.781 39.3998 170.179 38.8547 170.454 38.1802L169.584 37.826ZM168.694 39.0329C168.33 39.2998 167.903 39.4377 167.394 39.4377V40.3766C168.087 40.3766 168.711 40.1841 169.249 39.79L168.694 39.0329ZM164.885 35.8286C164.885 36.371 164.941 36.8727 165.057 37.3302L165.967 37.0986C165.873 36.73 165.824 36.3078 165.824 35.8286H164.885ZM165.06 37.3401C165.184 37.7854 165.358 38.1788 165.59 38.5096L166.358 37.9698C166.2 37.7448 166.066 37.4546 165.965 37.0888L165.06 37.3401ZM166.41 38.4153L168.595 32.996L167.725 32.6448L165.539 38.0641L166.41 38.4153ZM168.386 32.4088C168.08 32.2414 167.747 32.1594 167.394 32.1594V33.0983C167.597 33.0983 167.774 33.1441 167.934 33.232L168.386 32.4088ZM167.394 32.1594C166.882 32.1594 166.421 32.3321 166.03 32.6662L166.64 33.3803C166.864 33.1885 167.11 33.0983 167.394 33.0983V32.1594ZM166.035 32.6618C165.647 32.9837 165.365 33.4303 165.172 33.9686L166.055 34.2861C166.208 33.8629 166.407 33.5734 166.634 33.3846L166.035 32.6618ZM165.173 33.9664C164.976 34.5044 164.885 35.1289 164.885 35.8286H165.824C165.824 35.2064 165.906 34.6967 166.055 34.2883L165.173 33.9664ZM167.394 39.5091C167.902 39.5091 168.361 39.3428 168.753 39.0179L168.153 38.2952C167.929 38.4811 167.682 38.5702 167.394 38.5702V39.5091ZM168.758 39.0136C169.142 38.6855 169.422 38.2377 169.616 37.6999L168.732 37.3824C168.58 37.806 168.38 38.1018 168.148 38.2995L168.758 39.0136ZM169.616 37.6999C169.811 37.1558 169.903 36.5286 169.903 35.8286H168.964C168.964 36.4506 168.882 36.9651 168.732 37.3824L169.616 37.6999ZM169.903 35.8286C169.903 35.2841 169.843 34.7826 169.716 34.3284L168.812 34.5797C168.911 34.9368 168.964 35.3516 168.964 35.8286H169.903ZM169.719 34.3383C169.603 33.8835 169.433 33.4824 169.197 33.1476L168.429 33.6874C168.585 33.9085 168.715 34.1985 168.809 34.5699L169.719 34.3383ZM168.378 33.2415L166.181 38.672L167.052 39.0242L169.249 33.5936L168.378 33.2415ZM166.396 39.2627C166.706 39.4272 167.041 39.5091 167.394 39.5091V38.5702C167.191 38.5702 167.008 38.5244 166.837 38.4335L166.396 39.2627Z" fill="#8CFF00"/>
</g>
<defs>
<filter id="filter0_f_2441_5243" x="123.935" y="167.769" width="92.7182" height="33.87" filterUnits="userSpaceOnUse" color-interpolation-filters="sRGB">
<feFlood flood-opacity="0" result="BackgroundImageFix"/>
<feBlend mode="normal" in="SourceGraphic" in2="BackgroundImageFix" result="shape"/>
<feGaussianBlur stdDeviation="1.59385" result="effect1_foregroundBlur_2441_5243"/>
</filter>
<filter id="filter1_f_2441_5243" x="123.935" y="135.837" width="92.7182" height="33.87" filterUnits="userSpaceOnUse" color-interpolation-filters="sRGB">
<feFlood flood-opacity="0" result="BackgroundImageFix"/>
<feBlend mode="normal" in="SourceGraphic" in2="BackgroundImageFix" result="shape"/>
<feGaussianBlur stdDeviation="1.59385" result="effect1_foregroundBlur_2441_5243"/>
</filter>
<filter id="filter2_f_2441_5243" x="227.128" y="170.592" width="92.7182" height="33.87" filterUnits="userSpaceOnUse" color-interpolation-filters="sRGB">
<feFlood flood-opacity="0" result="BackgroundImageFix"/>
<feBlend mode="normal" in="SourceGraphic" in2="BackgroundImageFix" result="shape"/>
<feGaussianBlur stdDeviation="1.59385" result="effect1_foregroundBlur_2441_5243"/>
</filter>
<filter id="filter3_f_2441_5243" x="227.128" y="138.661" width="92.7182" height="33.87" filterUnits="userSpaceOnUse" color-interpolation-filters="sRGB">
<feFlood flood-opacity="0" result="BackgroundImageFix"/>
<feBlend mode="normal" in="SourceGraphic" in2="BackgroundImageFix" result="shape"/>
<feGaussianBlur stdDeviation="1.59385" result="effect1_foregroundBlur_2441_5243"/>
</filter>
<filter id="filter4_f_2441_5243" x="227.128" y="106.729" width="92.7182" height="33.87" filterUnits="userSpaceOnUse" color-interpolation-filters="sRGB">
<feFlood flood-opacity="0" result="BackgroundImageFix"/>
<feBlend mode="normal" in="SourceGraphic" in2="BackgroundImageFix" result="shape"/>
<feGaussianBlur stdDeviation="1.59385" result="effect1_foregroundBlur_2441_5243"/>
</filter>
<filter id="filter5_f_2441_5243" x="123.935" y="103.905" width="92.7182" height="33.87" filterUnits="userSpaceOnUse" color-interpolation-filters="sRGB">
<feFlood flood-opacity="0" result="BackgroundImageFix"/>
<feBlend mode="normal" in="SourceGraphic" in2="BackgroundImageFix" result="shape"/>
<feGaussianBlur stdDeviation="1.59385" result="effect1_foregroundBlur_2441_5243"/>
</filter>
<filter id="filter6_f_2441_5243" x="123.935" y="71.9749" width="92.7182" height="33.87" filterUnits="userSpaceOnUse" color-interpolation-filters="sRGB">
<feFlood flood-opacity="0" result="BackgroundImageFix"/>
<feBlend mode="normal" in="SourceGraphic" in2="BackgroundImageFix" result="shape"/>
<feGaussianBlur stdDeviation="1.59385" result="effect1_foregroundBlur_2441_5243"/>
</filter>
<filter id="filter7_f_2441_5243" x="20.743" y="167.769" width="92.7182" height="33.87" filterUnits="userSpaceOnUse" color-interpolation-filters="sRGB">
<feFlood flood-opacity="0" result="BackgroundImageFix"/>
<feBlend mode="normal" in="SourceGraphic" in2="BackgroundImageFix" result="shape"/>
<feGaussianBlur stdDeviation="1.59385" result="effect1_foregroundBlur_2441_5243"/>
</filter>
<filter id="filter8_f_2441_5243" x="20.743" y="135.837" width="92.7182" height="33.87" filterUnits="userSpaceOnUse" color-interpolation-filters="sRGB">
<feFlood flood-opacity="0" result="BackgroundImageFix"/>
<feBlend mode="normal" in="SourceGraphic" in2="BackgroundImageFix" result="shape"/>
<feGaussianBlur stdDeviation="1.59385" result="effect1_foregroundBlur_2441_5243"/>
</filter>
<filter id="filter9_f_2441_5243" x="20.743" y="103.905" width="92.7182" height="33.87" filterUnits="userSpaceOnUse" color-interpolation-filters="sRGB">
<feFlood flood-opacity="0" result="BackgroundImageFix"/>
<feBlend mode="normal" in="SourceGraphic" in2="BackgroundImageFix" result="shape"/>
<feGaussianBlur stdDeviation="1.59385" result="effect1_foregroundBlur_2441_5243"/>
</filter>
<filter id="filter10_f_2441_5243" x="20.743" y="71.9749" width="92.7182" height="33.87" filterUnits="userSpaceOnUse" color-interpolation-filters="sRGB">
<feFlood flood-opacity="0" result="BackgroundImageFix"/>
<feBlend mode="normal" in="SourceGraphic" in2="BackgroundImageFix" result="shape"/>
<feGaussianBlur stdDeviation="1.59385" result="effect1_foregroundBlur_2441_5243"/>
</filter>
<filter id="filter11_i_2441_5243" x="146.902" y="31.5356" width="46.7505" height="28.5427" filterUnits="userSpaceOnUse" color-interpolation-filters="sRGB">
<feFlood flood-opacity="0" result="BackgroundImageFix"/>
<feBlend mode="normal" in="SourceGraphic" in2="BackgroundImageFix" result="shape"/>
<feColorMatrix in="SourceAlpha" type="matrix" values="0 0 0 0 0 0 0 0 0 0 0 0 0 0 0 0 0 0 127 0" result="hardAlpha"/>
<feOffset dy="3.18769"/>
<feGaussianBlur stdDeviation="2.12513"/>
<feComposite in2="hardAlpha" operator="arithmetic" k2="-1" k3="1"/>
<feColorMatrix type="matrix" values="0 0 0 0 0.0196078 0 0 0 0 0.133333 0 0 0 0 0.2 0 0 0 0.6 0"/>
<feBlend mode="normal" in2="shape" result="effect1_innerShadow_2441_5243"/>
</filter>
<filter id="filter12_f_2441_5243" x="123.935" y="40.0423" width="92.7182" height="33.87" filterUnits="userSpaceOnUse" color-interpolation-filters="sRGB">
<feFlood flood-opacity="0" result="BackgroundImageFix"/>
<feBlend mode="normal" in="SourceGraphic" in2="BackgroundImageFix" result="shape"/>
<feGaussianBlur stdDeviation="1.59385" result="effect1_foregroundBlur_2441_5243"/>
</filter>
<filter id="filter13_d_2441_5243" x="142.292" y="0.0537109" width="55.6099" height="33.8555" filterUnits="userSpaceOnUse" color-interpolation-filters="sRGB">
<feFlood flood-opacity="0" result="BackgroundImageFix"/>
<feColorMatrix in="SourceAlpha" type="matrix" values="0 0 0 0 0 0 0 0 0 0 0 0 0 0 0 0 0 0 127 0" result="hardAlpha"/>
<feOffset dy="4.25026"/>
<feGaussianBlur stdDeviation="2.12513"/>
<feComposite in2="hardAlpha" operator="out"/>
<feColorMatrix type="matrix" values="0 0 0 0 0 0 0 0 0 0 0 0 0 0 0 0 0 0 0.25 0"/>
<feBlend mode="normal" in2="BackgroundImageFix" result="effect1_dropShadow_2441_5243"/>
<feBlend mode="normal" in="SourceGraphic" in2="effect1_dropShadow_2441_5243" result="shape"/>
</filter>
<filter id="filter14_f_2441_5243" x="0.133341" y="92.5288" width="11.0854" height="11.0854" filterUnits="userSpaceOnUse" color-interpolation-filters="sRGB">
<feFlood flood-opacity="0" result="BackgroundImageFix"/>
<feBlend mode="normal" in="SourceGraphic" in2="BackgroundImageFix" result="shape"/>
<feGaussianBlur stdDeviation="0.908183" result="effect1_foregroundBlur_2441_5243"/>
</filter>
<filter id="filter15_f_2441_5243" x="260.062" y="10.833" width="11.0854" height="11.0854" filterUnits="userSpaceOnUse" color-interpolation-filters="sRGB">
<feFlood flood-opacity="0" result="BackgroundImageFix"/>
<feBlend mode="normal" in="SourceGraphic" in2="BackgroundImageFix" result="shape"/>
<feGaussianBlur stdDeviation="0.908183" result="effect1_foregroundBlur_2441_5243"/>
</filter>
<filter id="filter16_f_2441_5243" x="224.967" y="83.8267" width="11.0854" height="11.0854" filterUnits="userSpaceOnUse" color-interpolation-filters="sRGB">
<feFlood flood-opacity="0" result="BackgroundImageFix"/>
<feBlend mode="normal" in="SourceGraphic" in2="BackgroundImageFix" result="shape"/>
<feGaussianBlur stdDeviation="0.908183" result="effect1_foregroundBlur_2441_5243"/>
</filter>
<filter id="filter17_f_2441_5243" x="101.328" y="40.5616" width="17.8949" height="17.8949" filterUnits="userSpaceOnUse" color-interpolation-filters="sRGB">
<feFlood flood-opacity="0" result="BackgroundImageFix"/>
<feBlend mode="normal" in="SourceGraphic" in2="BackgroundImageFix" result="shape"/>
<feGaussianBlur stdDeviation="0.908183" result="effect1_foregroundBlur_2441_5243"/>
</filter>
<filter id="filter18_f_2441_5243" x="42.854" y="40.4913" width="9.87101" height="9.8715" filterUnits="userSpaceOnUse" color-interpolation-filters="sRGB">
<feFlood flood-opacity="0" result="BackgroundImageFix"/>
<feBlend mode="normal" in="SourceGraphic" in2="BackgroundImageFix" result="shape"/>
<feGaussianBlur stdDeviation="0.908183" result="effect1_foregroundBlur_2441_5243"/>
</filter>
<filter id="filter19_f_2441_5243" x="218.396" y="216.693" width="9.00187" height="9.00187" filterUnits="userSpaceOnUse" color-interpolation-filters="sRGB">
<feFlood flood-opacity="0" result="BackgroundImageFix"/>
<feBlend mode="normal" in="SourceGraphic" in2="BackgroundImageFix" result="shape"/>
<feGaussianBlur stdDeviation="0.908183" result="effect1_foregroundBlur_2441_5243"/>
</filter>
<filter id="filter20_f_2441_5243" x="149.923" y="20.3253" width="8.89327" height="11.6423" filterUnits="userSpaceOnUse" color-interpolation-filters="sRGB">
<feFlood flood-opacity="0" result="BackgroundImageFix"/>
<feBlend mode="normal" in="SourceGraphic" in2="BackgroundImageFix" result="shape"/>
<feGaussianBlur stdDeviation="0.938893" result="effect1_foregroundBlur_2441_5243"/>
</filter>
<filter id="filter21_f_2441_5243" x="174.491" y="32.7418" width="8.89327" height="11.6423" filterUnits="userSpaceOnUse" color-interpolation-filters="sRGB">
<feFlood flood-opacity="0" result="BackgroundImageFix"/>
<feBlend mode="normal" in="SourceGraphic" in2="BackgroundImageFix" result="shape"/>
<feGaussianBlur stdDeviation="0.938893" result="effect1_foregroundBlur_2441_5243"/>
</filter>
<filter id="filter22_f_2441_5243" x="181.877" y="19.8224" width="9.77169" height="11.9128" filterUnits="userSpaceOnUse" color-interpolation-filters="sRGB">
<feFlood flood-opacity="0" result="BackgroundImageFix"/>
<feBlend mode="normal" in="SourceGraphic" in2="BackgroundImageFix" result="shape"/>
<feGaussianBlur stdDeviation="0.938893" result="effect1_foregroundBlur_2441_5243"/>
</filter>
<filter id="filter23_f_2441_5243" x="162.508" y="29.8722" width="9.77169" height="11.9128" filterUnits="userSpaceOnUse" color-interpolation-filters="sRGB">
<feFlood flood-opacity="0" result="BackgroundImageFix"/>
<feBlend mode="normal" in="SourceGraphic" in2="BackgroundImageFix" result="shape"/>
<feGaussianBlur stdDeviation="0.938893" result="effect1_foregroundBlur_2441_5243"/>
</filter>
<linearGradient id="paint0_linear_2441_5243" x1="194.93" y1="182.338" x2="151.998" y2="183.669" gradientUnits="userSpaceOnUse">
<stop stop-color="#054F77"/>
<stop offset="1" stop-color="#8CFF00"/>
</linearGradient>
<linearGradient id="paint1_linear_2441_5243" x1="125.772" y1="185.539" x2="213.395" y2="184.714" gradientUnits="userSpaceOnUse">
<stop stop-color="#054F77"/>
<stop offset="0.610263" stop-color="#052436"/>
<stop offset="1" stop-color="#052233"/>
</linearGradient>
<linearGradient id="paint2_linear_2441_5243" x1="170.393" y1="150.409" x2="168.836" y2="205.164" gradientUnits="userSpaceOnUse">
<stop stop-color="#054F77"/>
<stop offset="1" stop-color="#8CFF00"/>
</linearGradient>
<linearGradient id="paint3_linear_2441_5243" x1="125.772" y1="153.608" x2="213.395" y2="152.783" gradientUnits="userSpaceOnUse">
<stop stop-color="#054F77"/>
<stop offset="0.610263" stop-color="#052436"/>
<stop offset="1" stop-color="#052233"/>
</linearGradient>
<linearGradient id="paint4_linear_2441_5243" x1="170.393" y1="118.477" x2="168.836" y2="173.232" gradientUnits="userSpaceOnUse">
<stop stop-color="#054F77"/>
<stop offset="1" stop-color="#8CFF00"/>
</linearGradient>
<linearGradient id="paint5_linear_2441_5243" x1="298.124" y1="182.338" x2="255.191" y2="183.669" gradientUnits="userSpaceOnUse">
<stop stop-color="#054F77"/>
<stop offset="1" stop-color="#8CFF00"/>
</linearGradient>
<linearGradient id="paint6_linear_2441_5243" x1="228.964" y1="188.362" x2="316.587" y2="187.537" gradientUnits="userSpaceOnUse">
<stop stop-color="#054F77"/>
<stop offset="0.610263" stop-color="#052436"/>
<stop offset="1" stop-color="#052233"/>
</linearGradient>
<linearGradient id="paint7_linear_2441_5243" x1="273.586" y1="153.232" x2="272.028" y2="207.987" gradientUnits="userSpaceOnUse">
<stop stop-color="#054F77"/>
<stop offset="1" stop-color="#8CFF00"/>
</linearGradient>
<linearGradient id="paint8_linear_2441_5243" x1="228.964" y1="156.431" x2="316.587" y2="155.606" gradientUnits="userSpaceOnUse">
<stop stop-color="#054F77"/>
<stop offset="0.610263" stop-color="#052436"/>
<stop offset="1" stop-color="#052233"/>
</linearGradient>
<linearGradient id="paint9_linear_2441_5243" x1="273.586" y1="121.3" x2="272.028" y2="176.055" gradientUnits="userSpaceOnUse">
<stop stop-color="#054F77"/>
<stop offset="1" stop-color="#8CFF00"/>
</linearGradient>
<linearGradient id="paint10_linear_2441_5243" x1="228.964" y1="124.5" x2="316.587" y2="123.675" gradientUnits="userSpaceOnUse">
<stop stop-color="#054F77"/>
<stop offset="0.610263" stop-color="#052436"/>
<stop offset="1" stop-color="#052233"/>
</linearGradient>
<linearGradient id="paint11_linear_2441_5243" x1="273.586" y1="89.3687" x2="272.028" y2="144.124" gradientUnits="userSpaceOnUse">
<stop stop-color="#054F77"/>
<stop offset="1" stop-color="#8CFF00"/>
</linearGradient>
<linearGradient id="paint12_linear_2441_5243" x1="125.772" y1="121.676" x2="213.395" y2="120.851" gradientUnits="userSpaceOnUse">
<stop stop-color="#054F77"/>
<stop offset="0.610263" stop-color="#052436"/>
<stop offset="1" stop-color="#052233"/>
</linearGradient>
<linearGradient id="paint13_linear_2441_5243" x1="170.394" y1="86.5454" x2="168.836" y2="141.3" gradientUnits="userSpaceOnUse">
<stop stop-color="#054F77"/>
<stop offset="1" stop-color="#8CFF00"/>
</linearGradient>
<linearGradient id="paint14_linear_2441_5243" x1="125.772" y1="89.7453" x2="213.395" y2="88.9203" gradientUnits="userSpaceOnUse">
<stop stop-color="#054F77"/>
<stop offset="0.610263" stop-color="#052436"/>
<stop offset="1" stop-color="#052233"/>
</linearGradient>
<linearGradient id="paint15_linear_2441_5243" x1="170.394" y1="54.6147" x2="168.836" y2="109.37" gradientUnits="userSpaceOnUse">
<stop stop-color="#054F77"/>
<stop offset="1" stop-color="#8CFF00"/>
</linearGradient>
<linearGradient id="paint16_linear_2441_5243" x1="91.7376" y1="182.338" x2="48.8052" y2="183.669" gradientUnits="userSpaceOnUse">
<stop stop-color="#054F77"/>
<stop offset="1" stop-color="#8CFF00"/>
</linearGradient>
<linearGradient id="paint17_linear_2441_5243" x1="22.5791" y1="185.539" x2="110.202" y2="184.714" gradientUnits="userSpaceOnUse">
<stop stop-color="#054F77"/>
<stop offset="0.610263" stop-color="#052436"/>
<stop offset="1" stop-color="#052233"/>
</linearGradient>
<linearGradient id="paint18_linear_2441_5243" x1="67.2011" y1="150.409" x2="65.6434" y2="205.164" gradientUnits="userSpaceOnUse">
<stop stop-color="#054F77"/>
<stop offset="1" stop-color="#8CFF00"/>
</linearGradient>
<linearGradient id="paint19_linear_2441_5243" x1="22.5791" y1="153.608" x2="110.202" y2="152.783" gradientUnits="userSpaceOnUse">
<stop stop-color="#054F77"/>
<stop offset="0.610263" stop-color="#052436"/>
<stop offset="1" stop-color="#052233"/>
</linearGradient>
<linearGradient id="paint20_linear_2441_5243" x1="67.2011" y1="118.477" x2="65.6434" y2="173.232" gradientUnits="userSpaceOnUse">
<stop stop-color="#054F77"/>
<stop offset="1" stop-color="#8CFF00"/>
</linearGradient>
<linearGradient id="paint21_linear_2441_5243" x1="22.5791" y1="121.676" x2="110.202" y2="120.851" gradientUnits="userSpaceOnUse">
<stop stop-color="#054F77"/>
<stop offset="0.610263" stop-color="#052436"/>
<stop offset="1" stop-color="#052233"/>
</linearGradient>
<linearGradient id="paint22_linear_2441_5243" x1="67.2011" y1="86.5454" x2="65.6434" y2="141.3" gradientUnits="userSpaceOnUse">
<stop stop-color="#054F77"/>
<stop offset="1" stop-color="#8CFF00"/>
</linearGradient>
<linearGradient id="paint23_linear_2441_5243" x1="22.5791" y1="89.7453" x2="110.202" y2="88.9203" gradientUnits="userSpaceOnUse">
<stop stop-color="#054F77"/>
<stop offset="0.610263" stop-color="#052436"/>
<stop offset="1" stop-color="#052233"/>
</linearGradient>
<linearGradient id="paint24_linear_2441_5243" x1="67.2011" y1="54.6147" x2="65.6434" y2="109.37" gradientUnits="userSpaceOnUse">
<stop stop-color="#054F77"/>
<stop offset="1" stop-color="#8CFF00"/>
</linearGradient>
<linearGradient id="paint25_linear_2441_5243" x1="125.772" y1="57.8126" x2="213.395" y2="56.9877" gradientUnits="userSpaceOnUse">
<stop stop-color="#054F77"/>
<stop offset="0.610263" stop-color="#052436"/>
<stop offset="1" stop-color="#052233"/>
</linearGradient>
<linearGradient id="paint26_linear_2441_5243" x1="170.394" y1="22.6821" x2="168.836" y2="77.4371" gradientUnits="userSpaceOnUse">
<stop stop-color="#054F77"/>
<stop offset="1" stop-color="#8CFF00"/>
</linearGradient>
<linearGradient id="paint27_linear_2441_5243" x1="170.277" y1="31.5356" x2="169.432" y2="61.2487" gradientUnits="userSpaceOnUse">
<stop stop-color="#F4FBFF"/>
<stop offset="1" stop-color="#CFEAAF"/>
</linearGradient>
<linearGradient id="paint28_linear_2441_5243" x1="216.298" y1="44.2129" x2="216.298" y2="75.8228" gradientUnits="userSpaceOnUse">
<stop stop-color="#F4FBFF" stop-opacity="0"/>
<stop offset="0.935417" stop-color="#83DDDD" stop-opacity="0.92"/>
</linearGradient>
<linearGradient id="paint29_linear_2441_5243" x1="170.277" y1="0.053711" x2="169.431" y2="29.7668" gradientUnits="userSpaceOnUse">
<stop stop-color="#054F77"/>
<stop offset="1" stop-color="#8CFF00"/>
</linearGradient>
<linearGradient id="paint30_linear_2441_5243" x1="273.595" y1="98.0698" x2="272.75" y2="127.783" gradientUnits="userSpaceOnUse">
<stop stop-color="#054F77"/>
<stop offset="1" stop-color="#8CFF00"/>
</linearGradient>
<linearGradient id="paint31_linear_2441_5243" x1="67.0827" y1="63.3154" x2="66.2374" y2="93.0285" gradientUnits="userSpaceOnUse">
<stop stop-color="#054F77"/>
<stop offset="1" stop-color="#8CFF00"/>
</linearGradient>
<linearGradient id="paint32_linear_2441_5243" x1="5.67597" y1="94.3463" x2="5.67597" y2="107.487" gradientUnits="userSpaceOnUse">
<stop stop-color="#054F77"/>
<stop offset="1" stop-color="#8CFF00"/>
</linearGradient>
<linearGradient id="paint33_linear_2441_5243" x1="265.604" y1="12.6505" x2="265.604" y2="25.7915" gradientUnits="userSpaceOnUse">
<stop stop-color="#054F77"/>
<stop offset="1" stop-color="#8CFF00"/>
</linearGradient>
<linearGradient id="paint34_linear_2441_5243" x1="230.51" y1="85.6441" x2="230.51" y2="98.7852" gradientUnits="userSpaceOnUse">
<stop stop-color="#054F77"/>
<stop offset="1" stop-color="#8CFF00"/>
</linearGradient>
<linearGradient id="paint35_linear_2441_5243" x1="110.275" y1="42.3799" x2="110.275" y2="67.529" gradientUnits="userSpaceOnUse">
<stop stop-color="#054F77"/>
<stop offset="1" stop-color="#8CFF00"/>
</linearGradient>
<linearGradient id="paint36_linear_2441_5243" x1="47.7896" y1="42.3083" x2="47.7896" y2="53.3093" gradientUnits="userSpaceOnUse">
<stop stop-color="#054F77"/>
<stop offset="1" stop-color="#8CFF00"/>
</linearGradient>
<linearGradient id="paint37_linear_2441_5243" x1="222.896" y1="218.51" x2="222.896" y2="227.977" gradientUnits="userSpaceOnUse">
<stop stop-color="#054F77"/>
<stop offset="1" stop-color="#8CFF00"/>
</linearGradient>
</defs>
</svg>
