<svg width="698" height="667" viewBox="0 0 698 667" fill="none" xmlns="http://www.w3.org/2000/svg">
<rect opacity="0.5" x="0.426758" y="0.210938" width="697.146" height="666.456" fill="url(#paint0_radial_1709_5320)"/>
<g opacity="0.5" filter="url(#filter0_f_1709_5320)">
<path d="M332.938 119.207C332.595 119.207 332.29 119.112 332.025 118.92C331.764 118.729 331.56 118.457 331.412 118.105C331.268 117.753 331.197 117.333 331.197 116.846C331.197 116.359 331.268 115.939 331.412 115.587C331.56 115.235 331.764 114.963 332.025 114.772C332.29 114.58 332.595 114.485 332.938 114.485C333.286 114.485 333.591 114.58 333.851 114.772C334.112 114.963 334.315 115.235 334.458 115.587C334.606 115.939 334.68 116.359 334.68 116.846C334.68 117.333 334.606 117.753 334.458 118.105C334.315 118.457 334.112 118.729 333.851 118.92C333.591 119.112 333.286 119.207 332.938 119.207ZM331.758 116.846C331.758 117.142 331.788 117.409 331.849 117.648C331.914 117.883 332.003 118.081 332.116 118.242L333.382 115.104C333.247 115.03 333.099 114.994 332.938 114.994C332.708 114.994 332.503 115.07 332.325 115.222C332.147 115.37 332.008 115.583 331.908 115.861C331.808 116.135 331.758 116.463 331.758 116.846ZM332.938 118.705C333.169 118.705 333.373 118.631 333.551 118.483C333.73 118.331 333.869 118.116 333.969 117.837C334.069 117.559 334.119 117.229 334.119 116.846C334.119 116.55 334.086 116.285 334.021 116.05C333.96 115.811 333.873 115.611 333.76 115.45L332.488 118.594C332.627 118.668 332.777 118.705 332.938 118.705ZM331.438 129.129V128.633H332.619V125.209L331.503 125.424V125.007L332.801 124.563H333.167V128.633H334.412V129.129H331.438ZM332.938 140.207C332.595 140.207 332.29 140.112 332.025 139.92C331.764 139.729 331.56 139.457 331.412 139.105C331.268 138.753 331.197 138.333 331.197 137.846C331.197 137.359 331.268 136.939 331.412 136.587C331.56 136.235 331.764 135.963 332.025 135.772C332.29 135.58 332.595 135.485 332.938 135.485C333.286 135.485 333.591 135.58 333.851 135.772C334.112 135.963 334.315 136.235 334.458 136.587C334.606 136.939 334.68 137.359 334.68 137.846C334.68 138.333 334.606 138.753 334.458 139.105C334.315 139.457 334.112 139.729 333.851 139.92C333.591 140.112 333.286 140.207 332.938 140.207ZM331.758 137.846C331.758 138.142 331.788 138.409 331.849 138.648C331.914 138.883 332.003 139.081 332.116 139.242L333.382 136.104C333.247 136.03 333.099 135.994 332.938 135.994C332.708 135.994 332.503 136.07 332.325 136.222C332.147 136.37 332.008 136.583 331.908 136.861C331.808 137.135 331.758 137.463 331.758 137.846ZM332.938 139.705C333.169 139.705 333.373 139.631 333.551 139.483C333.73 139.331 333.869 139.116 333.969 138.837C334.069 138.559 334.119 138.229 334.119 137.846C334.119 137.55 334.086 137.285 334.021 137.05C333.96 136.811 333.873 136.611 333.76 136.45L332.488 139.594C332.627 139.668 332.777 139.705 332.938 139.705ZM331.438 150.129V149.633H332.619V146.209L331.503 146.424V146.007L332.801 145.563H333.167V149.633H334.412V150.129H331.438ZM332.938 160.207C332.595 160.207 332.29 160.112 332.025 159.92C331.764 159.729 331.56 159.457 331.412 159.105C331.268 158.753 331.197 158.333 331.197 157.846C331.197 157.359 331.268 156.939 331.412 156.587C331.56 156.235 331.764 155.963 332.025 155.772C332.29 155.58 332.595 155.485 332.938 155.485C333.286 155.485 333.591 155.58 333.851 155.772C334.112 155.963 334.315 156.235 334.458 156.587C334.606 156.939 334.68 157.359 334.68 157.846C334.68 158.333 334.606 158.753 334.458 159.105C334.315 159.457 334.112 159.729 333.851 159.92C333.591 160.112 333.286 160.207 332.938 160.207ZM331.758 157.846C331.758 158.142 331.788 158.409 331.849 158.648C331.914 158.883 332.003 159.081 332.116 159.242L333.382 156.104C333.247 156.03 333.099 155.994 332.938 155.994C332.708 155.994 332.503 156.07 332.325 156.222C332.147 156.37 332.008 156.583 331.908 156.861C331.808 157.135 331.758 157.463 331.758 157.846ZM332.938 159.705C333.169 159.705 333.373 159.631 333.551 159.483C333.73 159.331 333.869 159.116 333.969 158.837C334.069 158.559 334.119 158.229 334.119 157.846C334.119 157.55 334.086 157.285 334.021 157.05C333.96 156.811 333.873 156.611 333.76 156.45L332.488 159.594C332.627 159.668 332.777 159.705 332.938 159.705ZM331.438 170.129V169.633H332.619V166.209L331.503 166.424V166.007L332.801 165.563H333.167V169.633H334.412V170.129H331.438ZM332.938 180.207C332.595 180.207 332.29 180.112 332.025 179.92C331.764 179.729 331.56 179.457 331.412 179.105C331.268 178.753 331.197 178.333 331.197 177.846C331.197 177.359 331.268 176.939 331.412 176.587C331.56 176.235 331.764 175.963 332.025 175.772C332.29 175.58 332.595 175.485 332.938 175.485C333.286 175.485 333.591 175.58 333.851 175.772C334.112 175.963 334.315 176.235 334.458 176.587C334.606 176.939 334.68 177.359 334.68 177.846C334.68 178.333 334.606 178.753 334.458 179.105C334.315 179.457 334.112 179.729 333.851 179.92C333.591 180.112 333.286 180.207 332.938 180.207ZM331.758 177.846C331.758 178.142 331.788 178.409 331.849 178.648C331.914 178.883 332.003 179.081 332.116 179.242L333.382 176.104C333.247 176.03 333.099 175.994 332.938 175.994C332.708 175.994 332.503 176.07 332.325 176.222C332.147 176.37 332.008 176.583 331.908 176.861C331.808 177.135 331.758 177.463 331.758 177.846ZM332.938 179.705C333.169 179.705 333.373 179.631 333.551 179.483C333.73 179.331 333.869 179.116 333.969 178.837C334.069 178.559 334.119 178.229 334.119 177.846C334.119 177.55 334.086 177.285 334.021 177.05C333.96 176.811 333.873 176.611 333.76 176.45L332.488 179.594C332.627 179.668 332.777 179.705 332.938 179.705ZM331.438 190.129V189.633H332.619V186.209L331.503 186.424V186.007L332.801 185.563H333.167V189.633H334.412V190.129H331.438Z" fill="#054F77"/>
<path d="M332.025 118.92L331.864 119.139L331.866 119.141L332.025 118.92ZM331.412 118.105L331.16 118.207L331.161 118.21L331.412 118.105ZM331.412 115.587L331.161 115.482L331.16 115.485L331.412 115.587ZM332.025 114.772L331.866 114.551L331.864 114.553L332.025 114.772ZM333.851 114.772L334.012 114.553L334.012 114.553L333.851 114.772ZM334.458 115.587L334.206 115.69L334.207 115.692L334.458 115.587ZM334.458 118.105L334.207 118L334.206 118.002L334.458 118.105ZM333.851 118.92L334.012 119.139L334.012 119.139L333.851 118.92ZM331.849 117.648L331.586 117.715L331.587 117.721L331.849 117.648ZM332.116 118.242L331.894 118.398L332.181 118.807L332.368 118.343L332.116 118.242ZM333.382 115.104L333.634 115.206L333.724 114.982L333.513 114.866L333.382 115.104ZM332.325 115.222L332.499 115.431L332.502 115.429L332.325 115.222ZM331.908 115.861L332.163 115.954L332.163 115.953L331.908 115.861ZM333.551 118.483L333.725 118.692L333.728 118.69L333.551 118.483ZM334.021 116.05L333.758 116.117L333.759 116.123L334.021 116.05ZM333.76 115.45L333.983 115.294L333.695 114.885L333.508 115.348L333.76 115.45ZM332.488 118.594L332.236 118.492L332.144 118.719L332.361 118.834L332.488 118.594ZM332.938 118.935C332.649 118.935 332.401 118.856 332.184 118.7L331.866 119.141C332.18 119.367 332.541 119.479 332.938 119.479V118.935ZM332.186 118.701C331.971 118.544 331.795 118.315 331.663 118L331.161 118.21C331.325 118.599 331.557 118.914 331.864 119.139L332.186 118.701ZM331.664 118.002C331.537 117.69 331.469 117.307 331.469 116.846H330.925C330.925 117.359 331 117.815 331.16 118.207L331.664 118.002ZM331.469 116.846C331.469 116.385 331.537 116.002 331.664 115.69L331.16 115.485C331 115.877 330.925 116.333 330.925 116.846H331.469ZM331.663 115.692C331.795 115.377 331.971 115.148 332.186 114.991L331.864 114.553C331.557 114.778 331.325 115.093 331.161 115.482L331.663 115.692ZM332.184 114.992C332.401 114.836 332.649 114.757 332.938 114.757V114.213C332.541 114.213 332.18 114.325 331.866 114.551L332.184 114.992ZM332.938 114.757C333.233 114.757 333.48 114.836 333.691 114.991L334.012 114.553C333.701 114.324 333.339 114.213 332.938 114.213V114.757ZM333.691 114.991C333.904 115.148 334.078 115.376 334.206 115.69L334.71 115.485C334.551 115.094 334.32 114.779 334.012 114.553L333.691 114.991ZM334.207 115.692C334.338 116.003 334.408 116.386 334.408 116.846H334.952C334.952 116.332 334.874 115.875 334.709 115.482L334.207 115.692ZM334.408 116.846C334.408 117.306 334.338 117.689 334.207 118L334.709 118.21C334.874 117.817 334.952 117.36 334.952 116.846H334.408ZM334.206 118.002C334.078 118.316 333.904 118.544 333.691 118.701L334.012 119.139C334.32 118.913 334.551 118.598 334.71 118.207L334.206 118.002ZM333.691 118.701C333.48 118.856 333.233 118.935 332.938 118.935V119.479C333.339 119.479 333.701 119.367 334.012 119.139L333.691 118.701ZM331.486 116.846C331.486 117.16 331.518 117.45 331.586 117.715L332.112 117.581C332.058 117.368 332.029 117.123 332.029 116.846H331.486ZM331.587 117.721C331.659 117.979 331.759 118.207 331.894 118.398L332.339 118.086C332.247 117.955 332.17 117.787 332.111 117.576L331.587 117.721ZM332.368 118.343L333.634 115.206L333.13 115.003L331.864 118.14L332.368 118.343ZM333.513 114.866C333.336 114.769 333.143 114.722 332.938 114.722V115.265C333.056 115.265 333.158 115.292 333.251 115.343L333.513 114.866ZM332.938 114.722C332.642 114.722 332.375 114.822 332.149 115.015L332.502 115.429C332.632 115.318 332.774 115.265 332.938 115.265V114.722ZM332.152 115.013C331.927 115.199 331.764 115.458 331.652 115.769L332.163 115.953C332.252 115.708 332.367 115.54 332.499 115.431L332.152 115.013ZM331.652 115.768C331.539 116.079 331.486 116.441 331.486 116.846H332.029C332.029 116.486 332.077 116.191 332.163 115.954L331.652 115.768ZM332.938 118.977C333.232 118.977 333.498 118.88 333.725 118.692L333.378 118.274C333.248 118.382 333.105 118.433 332.938 118.433V118.977ZM333.728 118.69C333.95 118.5 334.113 118.241 334.225 117.929L333.713 117.746C333.625 117.991 333.509 118.162 333.375 118.276L333.728 118.69ZM334.225 117.929C334.338 117.614 334.391 117.251 334.391 116.846H333.847C333.847 117.206 333.8 117.504 333.713 117.746L334.225 117.929ZM334.391 116.846C334.391 116.531 334.356 116.24 334.283 115.977L333.759 116.123C333.817 116.33 333.847 116.57 333.847 116.846H334.391ZM334.284 115.983C334.217 115.72 334.119 115.488 333.983 115.294L333.538 115.606C333.628 115.734 333.703 115.902 333.758 116.117L334.284 115.983ZM333.508 115.348L332.236 118.492L332.74 118.696L334.012 115.552L333.508 115.348ZM332.361 118.834C332.54 118.929 332.734 118.977 332.938 118.977V118.433C332.821 118.433 332.715 118.407 332.616 118.354L332.361 118.834ZM331.438 129.129H331.166V129.401H331.438V129.129ZM331.438 128.633V128.361H331.166V128.633H331.438ZM332.619 128.633V128.905H332.89V128.633H332.619ZM332.619 125.209H332.89V124.88L332.567 124.942L332.619 125.209ZM331.503 125.424H331.232V125.753L331.555 125.691L331.503 125.424ZM331.503 125.007L331.415 124.749L331.232 124.812V125.007H331.503ZM332.801 124.563V124.291H332.756L332.713 124.306L332.801 124.563ZM333.167 124.563H333.438V124.291H333.167V124.563ZM333.167 128.633H332.895V128.905H333.167V128.633ZM334.412 128.633H334.684V128.361H334.412V128.633ZM334.412 129.129V129.401H334.684V129.129H334.412ZM331.71 129.129V128.633H331.166V129.129H331.71ZM331.438 128.905H332.619V128.361H331.438V128.905ZM332.89 128.633V125.209H332.347V128.633H332.89ZM332.567 124.942L331.452 125.157L331.555 125.691L332.67 125.476L332.567 124.942ZM331.775 125.424V125.007H331.232V125.424H331.775ZM331.591 125.264L332.889 124.82L332.713 124.306L331.415 124.749L331.591 125.264ZM332.801 124.835H333.167V124.291H332.801V124.835ZM332.895 124.563V128.633H333.438V124.563H332.895ZM333.167 128.905H334.412V128.361H333.167V128.905ZM334.141 128.633V129.129H334.684V128.633H334.141ZM334.412 128.857H331.438V129.401H334.412V128.857ZM332.025 139.92L331.864 140.139L331.866 140.141L332.025 139.92ZM331.412 139.105L331.16 139.207L331.161 139.21L331.412 139.105ZM331.412 136.587L331.161 136.482L331.16 136.485L331.412 136.587ZM332.025 135.772L331.866 135.551L331.864 135.553L332.025 135.772ZM333.851 135.772L334.012 135.553L334.012 135.553L333.851 135.772ZM334.458 136.587L334.206 136.69L334.207 136.692L334.458 136.587ZM334.458 139.105L334.207 139L334.206 139.002L334.458 139.105ZM333.851 139.92L334.012 140.139L334.012 140.139L333.851 139.92ZM331.849 138.648L331.586 138.715L331.587 138.721L331.849 138.648ZM332.116 139.242L331.894 139.398L332.181 139.807L332.368 139.343L332.116 139.242ZM333.382 136.104L333.634 136.206L333.724 135.982L333.513 135.866L333.382 136.104ZM332.325 136.222L332.499 136.431L332.502 136.429L332.325 136.222ZM331.908 136.861L332.163 136.954L332.163 136.953L331.908 136.861ZM333.551 139.483L333.725 139.692L333.728 139.69L333.551 139.483ZM334.021 137.05L333.758 137.117L333.759 137.123L334.021 137.05ZM333.76 136.45L333.983 136.294L333.695 135.885L333.508 136.348L333.76 136.45ZM332.488 139.594L332.236 139.492L332.144 139.719L332.361 139.834L332.488 139.594ZM332.938 139.935C332.649 139.935 332.401 139.856 332.184 139.7L331.866 140.141C332.18 140.367 332.541 140.479 332.938 140.479V139.935ZM332.186 139.701C331.971 139.544 331.795 139.315 331.663 139L331.161 139.21C331.325 139.599 331.557 139.914 331.864 140.139L332.186 139.701ZM331.664 139.002C331.537 138.69 331.469 138.307 331.469 137.846H330.925C330.925 138.359 331 138.815 331.16 139.207L331.664 139.002ZM331.469 137.846C331.469 137.385 331.537 137.002 331.664 136.69L331.16 136.485C331 136.877 330.925 137.333 330.925 137.846H331.469ZM331.663 136.692C331.795 136.377 331.971 136.148 332.186 135.991L331.864 135.553C331.557 135.778 331.325 136.093 331.161 136.482L331.663 136.692ZM332.184 135.992C332.401 135.836 332.649 135.757 332.938 135.757V135.213C332.541 135.213 332.18 135.325 331.866 135.551L332.184 135.992ZM332.938 135.757C333.233 135.757 333.48 135.836 333.691 135.991L334.012 135.553C333.701 135.324 333.339 135.213 332.938 135.213V135.757ZM333.691 135.991C333.904 136.148 334.078 136.376 334.206 136.69L334.71 136.485C334.551 136.094 334.32 135.779 334.012 135.553L333.691 135.991ZM334.207 136.692C334.338 137.003 334.408 137.386 334.408 137.846H334.952C334.952 137.332 334.874 136.875 334.709 136.482L334.207 136.692ZM334.408 137.846C334.408 138.306 334.338 138.689 334.207 139L334.709 139.21C334.874 138.817 334.952 138.36 334.952 137.846H334.408ZM334.206 139.002C334.078 139.316 333.904 139.544 333.691 139.701L334.012 140.139C334.32 139.913 334.551 139.598 334.71 139.207L334.206 139.002ZM333.691 139.701C333.48 139.856 333.233 139.935 332.938 139.935V140.479C333.339 140.479 333.701 140.367 334.012 140.139L333.691 139.701ZM331.486 137.846C331.486 138.16 331.518 138.45 331.586 138.715L332.112 138.581C332.058 138.368 332.029 138.123 332.029 137.846H331.486ZM331.587 138.721C331.659 138.979 331.759 139.207 331.894 139.398L332.339 139.086C332.247 138.955 332.17 138.787 332.111 138.576L331.587 138.721ZM332.368 139.343L333.634 136.206L333.13 136.003L331.864 139.14L332.368 139.343ZM333.513 135.866C333.336 135.769 333.143 135.722 332.938 135.722V136.265C333.056 136.265 333.158 136.292 333.251 136.343L333.513 135.866ZM332.938 135.722C332.642 135.722 332.375 135.822 332.149 136.015L332.502 136.429C332.632 136.318 332.774 136.265 332.938 136.265V135.722ZM332.152 136.013C331.927 136.199 331.764 136.458 331.652 136.769L332.163 136.953C332.252 136.708 332.367 136.54 332.499 136.431L332.152 136.013ZM331.652 136.768C331.539 137.079 331.486 137.441 331.486 137.846H332.029C332.029 137.486 332.077 137.191 332.163 136.954L331.652 136.768ZM332.938 139.977C333.232 139.977 333.498 139.88 333.725 139.692L333.378 139.274C333.248 139.382 333.105 139.433 332.938 139.433V139.977ZM333.728 139.69C333.95 139.5 334.113 139.241 334.225 138.929L333.713 138.746C333.625 138.991 333.509 139.162 333.375 139.276L333.728 139.69ZM334.225 138.929C334.338 138.614 334.391 138.251 334.391 137.846H333.847C333.847 138.206 333.8 138.504 333.713 138.746L334.225 138.929ZM334.391 137.846C334.391 137.531 334.356 137.24 334.283 136.977L333.759 137.123C333.817 137.33 333.847 137.57 333.847 137.846H334.391ZM334.284 136.983C334.217 136.72 334.119 136.488 333.983 136.294L333.538 136.606C333.628 136.734 333.703 136.902 333.758 137.117L334.284 136.983ZM333.508 136.348L332.236 139.492L332.74 139.696L334.012 136.552L333.508 136.348ZM332.361 139.834C332.54 139.929 332.734 139.977 332.938 139.977V139.433C332.821 139.433 332.715 139.407 332.616 139.354L332.361 139.834ZM331.438 150.129H331.166V150.401H331.438V150.129ZM331.438 149.633V149.361H331.166V149.633H331.438ZM332.619 149.633V149.905H332.89V149.633H332.619ZM332.619 146.209H332.89V145.88L332.567 145.942L332.619 146.209ZM331.503 146.424H331.232V146.753L331.555 146.691L331.503 146.424ZM331.503 146.007L331.415 145.749L331.232 145.812V146.007H331.503ZM332.801 145.563V145.291H332.756L332.713 145.306L332.801 145.563ZM333.167 145.563H333.438V145.291H333.167V145.563ZM333.167 149.633H332.895V149.905H333.167V149.633ZM334.412 149.633H334.684V149.361H334.412V149.633ZM334.412 150.129V150.401H334.684V150.129H334.412ZM331.71 150.129V149.633H331.166V150.129H331.71ZM331.438 149.905H332.619V149.361H331.438V149.905ZM332.89 149.633V146.209H332.347V149.633H332.89ZM332.567 145.942L331.452 146.157L331.555 146.691L332.67 146.476L332.567 145.942ZM331.775 146.424V146.007H331.232V146.424H331.775ZM331.591 146.264L332.889 145.82L332.713 145.306L331.415 145.749L331.591 146.264ZM332.801 145.835H333.167V145.291H332.801V145.835ZM332.895 145.563V149.633H333.438V145.563H332.895ZM333.167 149.905H334.412V149.361H333.167V149.905ZM334.141 149.633V150.129H334.684V149.633H334.141ZM334.412 149.857H331.438V150.401H334.412V149.857ZM332.025 159.92L331.864 160.139L331.866 160.141L332.025 159.92ZM331.412 159.105L331.16 159.207L331.161 159.21L331.412 159.105ZM331.412 156.587L331.161 156.482L331.16 156.485L331.412 156.587ZM332.025 155.772L331.866 155.551L331.864 155.553L332.025 155.772ZM333.851 155.772L334.012 155.553L334.012 155.553L333.851 155.772ZM334.458 156.587L334.206 156.69L334.207 156.692L334.458 156.587ZM334.458 159.105L334.207 159L334.206 159.002L334.458 159.105ZM333.851 159.92L334.012 160.139L334.012 160.139L333.851 159.92ZM331.849 158.648L331.586 158.715L331.587 158.721L331.849 158.648ZM332.116 159.242L331.894 159.398L332.181 159.807L332.368 159.343L332.116 159.242ZM333.382 156.104L333.634 156.206L333.724 155.982L333.513 155.866L333.382 156.104ZM332.325 156.222L332.499 156.431L332.502 156.429L332.325 156.222ZM331.908 156.861L332.163 156.954L332.163 156.953L331.908 156.861ZM333.551 159.483L333.725 159.692L333.728 159.69L333.551 159.483ZM334.021 157.05L333.758 157.117L333.759 157.123L334.021 157.05ZM333.76 156.45L333.983 156.294L333.695 155.885L333.508 156.348L333.76 156.45ZM332.488 159.594L332.236 159.492L332.144 159.719L332.361 159.834L332.488 159.594ZM332.938 159.935C332.649 159.935 332.401 159.856 332.184 159.7L331.866 160.141C332.18 160.367 332.541 160.479 332.938 160.479V159.935ZM332.186 159.701C331.971 159.544 331.795 159.315 331.663 159L331.161 159.21C331.325 159.599 331.557 159.914 331.864 160.139L332.186 159.701ZM331.664 159.002C331.537 158.69 331.469 158.307 331.469 157.846H330.925C330.925 158.359 331 158.815 331.16 159.207L331.664 159.002ZM331.469 157.846C331.469 157.385 331.537 157.002 331.664 156.69L331.16 156.485C331 156.877 330.925 157.333 330.925 157.846H331.469ZM331.663 156.692C331.795 156.377 331.971 156.148 332.186 155.991L331.864 155.553C331.557 155.778 331.325 156.093 331.161 156.482L331.663 156.692ZM332.184 155.992C332.401 155.836 332.649 155.757 332.938 155.757V155.213C332.541 155.213 332.18 155.325 331.866 155.551L332.184 155.992ZM332.938 155.757C333.233 155.757 333.48 155.836 333.691 155.991L334.012 155.553C333.701 155.324 333.339 155.213 332.938 155.213V155.757ZM333.691 155.991C333.904 156.148 334.078 156.376 334.206 156.69L334.71 156.485C334.551 156.094 334.32 155.779 334.012 155.553L333.691 155.991ZM334.207 156.692C334.338 157.003 334.408 157.386 334.408 157.846H334.952C334.952 157.332 334.874 156.875 334.709 156.482L334.207 156.692ZM334.408 157.846C334.408 158.306 334.338 158.689 334.207 159L334.709 159.21C334.874 158.817 334.952 158.36 334.952 157.846H334.408ZM334.206 159.002C334.078 159.316 333.904 159.544 333.691 159.701L334.012 160.139C334.32 159.913 334.551 159.598 334.71 159.207L334.206 159.002ZM333.691 159.701C333.48 159.856 333.233 159.935 332.938 159.935V160.479C333.339 160.479 333.701 160.367 334.012 160.139L333.691 159.701ZM331.486 157.846C331.486 158.16 331.518 158.45 331.586 158.715L332.112 158.581C332.058 158.368 332.029 158.123 332.029 157.846H331.486ZM331.587 158.721C331.659 158.979 331.759 159.207 331.894 159.398L332.339 159.086C332.247 158.955 332.17 158.787 332.111 158.576L331.587 158.721ZM332.368 159.343L333.634 156.206L333.13 156.003L331.864 159.14L332.368 159.343ZM333.513 155.866C333.336 155.769 333.143 155.722 332.938 155.722V156.265C333.056 156.265 333.158 156.292 333.251 156.343L333.513 155.866ZM332.938 155.722C332.642 155.722 332.375 155.822 332.149 156.015L332.502 156.429C332.632 156.318 332.774 156.265 332.938 156.265V155.722ZM332.152 156.013C331.927 156.199 331.764 156.458 331.652 156.769L332.163 156.953C332.252 156.708 332.367 156.54 332.499 156.431L332.152 156.013ZM331.652 156.768C331.539 157.079 331.486 157.441 331.486 157.846H332.029C332.029 157.486 332.077 157.191 332.163 156.954L331.652 156.768ZM332.938 159.977C333.232 159.977 333.498 159.88 333.725 159.692L333.378 159.274C333.248 159.382 333.105 159.433 332.938 159.433V159.977ZM333.728 159.69C333.95 159.5 334.113 159.241 334.225 158.929L333.713 158.746C333.625 158.991 333.509 159.162 333.375 159.276L333.728 159.69ZM334.225 158.929C334.338 158.614 334.391 158.251 334.391 157.846H333.847C333.847 158.206 333.8 158.504 333.713 158.746L334.225 158.929ZM334.391 157.846C334.391 157.531 334.356 157.24 334.283 156.977L333.759 157.123C333.817 157.33 333.847 157.57 333.847 157.846H334.391ZM334.284 156.983C334.217 156.72 334.119 156.488 333.983 156.294L333.538 156.606C333.628 156.734 333.703 156.902 333.758 157.117L334.284 156.983ZM333.508 156.348L332.236 159.492L332.74 159.696L334.012 156.552L333.508 156.348ZM332.361 159.834C332.54 159.929 332.734 159.977 332.938 159.977V159.433C332.821 159.433 332.715 159.407 332.616 159.354L332.361 159.834ZM331.438 170.129H331.166V170.401H331.438V170.129ZM331.438 169.633V169.361H331.166V169.633H331.438ZM332.619 169.633V169.905H332.89V169.633H332.619ZM332.619 166.209H332.89V165.88L332.567 165.942L332.619 166.209ZM331.503 166.424H331.232V166.753L331.555 166.691L331.503 166.424ZM331.503 166.007L331.415 165.749L331.232 165.812V166.007H331.503ZM332.801 165.563V165.291H332.756L332.713 165.306L332.801 165.563ZM333.167 165.563H333.438V165.291H333.167V165.563ZM333.167 169.633H332.895V169.905H333.167V169.633ZM334.412 169.633H334.684V169.361H334.412V169.633ZM334.412 170.129V170.401H334.684V170.129H334.412ZM331.71 170.129V169.633H331.166V170.129H331.71ZM331.438 169.905H332.619V169.361H331.438V169.905ZM332.89 169.633V166.209H332.347V169.633H332.89ZM332.567 165.942L331.452 166.157L331.555 166.691L332.67 166.476L332.567 165.942ZM331.775 166.424V166.007H331.232V166.424H331.775ZM331.591 166.264L332.889 165.82L332.713 165.306L331.415 165.749L331.591 166.264ZM332.801 165.835H333.167V165.291H332.801V165.835ZM332.895 165.563V169.633H333.438V165.563H332.895ZM333.167 169.905H334.412V169.361H333.167V169.905ZM334.141 169.633V170.129H334.684V169.633H334.141ZM334.412 169.857H331.438V170.401H334.412V169.857ZM332.025 179.92L331.864 180.139L331.866 180.141L332.025 179.92ZM331.412 179.105L331.16 179.207L331.161 179.21L331.412 179.105ZM331.412 176.587L331.161 176.482L331.16 176.485L331.412 176.587ZM332.025 175.772L331.866 175.551L331.864 175.553L332.025 175.772ZM333.851 175.772L334.012 175.553L334.012 175.553L333.851 175.772ZM334.458 176.587L334.206 176.69L334.207 176.692L334.458 176.587ZM334.458 179.105L334.207 179L334.206 179.002L334.458 179.105ZM333.851 179.92L334.012 180.139L334.012 180.139L333.851 179.92ZM331.849 178.648L331.586 178.715L331.587 178.721L331.849 178.648ZM332.116 179.242L331.894 179.398L332.181 179.807L332.368 179.343L332.116 179.242ZM333.382 176.104L333.634 176.206L333.724 175.982L333.513 175.866L333.382 176.104ZM332.325 176.222L332.499 176.431L332.502 176.429L332.325 176.222ZM331.908 176.861L332.163 176.954L332.163 176.953L331.908 176.861ZM333.551 179.483L333.725 179.692L333.728 179.69L333.551 179.483ZM334.021 177.05L333.758 177.117L333.759 177.123L334.021 177.05ZM333.76 176.45L333.983 176.294L333.695 175.885L333.508 176.348L333.76 176.45ZM332.488 179.594L332.236 179.492L332.144 179.719L332.361 179.834L332.488 179.594ZM332.938 179.935C332.649 179.935 332.401 179.856 332.184 179.7L331.866 180.141C332.18 180.367 332.541 180.479 332.938 180.479V179.935ZM332.186 179.701C331.971 179.544 331.795 179.315 331.663 179L331.161 179.21C331.325 179.599 331.557 179.914 331.864 180.139L332.186 179.701ZM331.664 179.002C331.537 178.69 331.469 178.307 331.469 177.846H330.925C330.925 178.359 331 178.815 331.16 179.207L331.664 179.002ZM331.469 177.846C331.469 177.385 331.537 177.002 331.664 176.69L331.16 176.485C331 176.877 330.925 177.333 330.925 177.846H331.469ZM331.663 176.692C331.795 176.377 331.971 176.148 332.186 175.991L331.864 175.553C331.557 175.778 331.325 176.093 331.161 176.482L331.663 176.692ZM332.184 175.992C332.401 175.836 332.649 175.757 332.938 175.757V175.213C332.541 175.213 332.18 175.325 331.866 175.551L332.184 175.992ZM332.938 175.757C333.233 175.757 333.48 175.836 333.691 175.991L334.012 175.553C333.701 175.324 333.339 175.213 332.938 175.213V175.757ZM333.691 175.991C333.904 176.148 334.078 176.376 334.206 176.69L334.71 176.485C334.551 176.094 334.32 175.779 334.012 175.553L333.691 175.991ZM334.207 176.692C334.338 177.003 334.408 177.386 334.408 177.846H334.952C334.952 177.332 334.874 176.875 334.709 176.482L334.207 176.692ZM334.408 177.846C334.408 178.306 334.338 178.689 334.207 179L334.709 179.21C334.874 178.817 334.952 178.36 334.952 177.846H334.408ZM334.206 179.002C334.078 179.316 333.904 179.544 333.691 179.701L334.012 180.139C334.32 179.913 334.551 179.598 334.71 179.207L334.206 179.002ZM333.691 179.701C333.48 179.856 333.233 179.935 332.938 179.935V180.479C333.339 180.479 333.701 180.367 334.012 180.139L333.691 179.701ZM331.486 177.846C331.486 178.16 331.518 178.45 331.586 178.715L332.112 178.581C332.058 178.368 332.029 178.123 332.029 177.846H331.486ZM331.587 178.721C331.659 178.979 331.759 179.207 331.894 179.398L332.339 179.086C332.247 178.955 332.17 178.787 332.111 178.576L331.587 178.721ZM332.368 179.343L333.634 176.206L333.13 176.003L331.864 179.14L332.368 179.343ZM333.513 175.866C333.336 175.769 333.143 175.722 332.938 175.722V176.265C333.056 176.265 333.158 176.292 333.251 176.343L333.513 175.866ZM332.938 175.722C332.642 175.722 332.375 175.822 332.149 176.015L332.502 176.429C332.632 176.318 332.774 176.265 332.938 176.265V175.722ZM332.152 176.013C331.927 176.199 331.764 176.458 331.652 176.769L332.163 176.953C332.252 176.708 332.367 176.54 332.499 176.431L332.152 176.013ZM331.652 176.768C331.539 177.079 331.486 177.441 331.486 177.846H332.029C332.029 177.486 332.077 177.191 332.163 176.954L331.652 176.768ZM332.938 179.977C333.232 179.977 333.498 179.88 333.725 179.692L333.378 179.274C333.248 179.382 333.105 179.433 332.938 179.433V179.977ZM333.728 179.69C333.95 179.5 334.113 179.241 334.225 178.929L333.713 178.746C333.625 178.991 333.509 179.162 333.375 179.276L333.728 179.69ZM334.225 178.929C334.338 178.614 334.391 178.251 334.391 177.846H333.847C333.847 178.206 333.8 178.504 333.713 178.746L334.225 178.929ZM334.391 177.846C334.391 177.531 334.356 177.24 334.283 176.977L333.759 177.123C333.817 177.33 333.847 177.57 333.847 177.846H334.391ZM334.284 176.983C334.217 176.72 334.119 176.488 333.983 176.294L333.538 176.606C333.628 176.734 333.703 176.902 333.758 177.117L334.284 176.983ZM333.508 176.348L332.236 179.492L332.74 179.696L334.012 176.552L333.508 176.348ZM332.361 179.834C332.54 179.929 332.734 179.977 332.938 179.977V179.433C332.821 179.433 332.715 179.407 332.616 179.354L332.361 179.834ZM331.438 190.129H331.166V190.401H331.438V190.129ZM331.438 189.633V189.361H331.166V189.633H331.438ZM332.619 189.633V189.905H332.89V189.633H332.619ZM332.619 186.209H332.89V185.88L332.567 185.942L332.619 186.209ZM331.503 186.424H331.232V186.753L331.555 186.691L331.503 186.424ZM331.503 186.007L331.415 185.749L331.232 185.812V186.007H331.503ZM332.801 185.563V185.291H332.756L332.713 185.306L332.801 185.563ZM333.167 185.563H333.438V185.291H333.167V185.563ZM333.167 189.633H332.895V189.905H333.167V189.633ZM334.412 189.633H334.684V189.361H334.412V189.633ZM334.412 190.129V190.401H334.684V190.129H334.412ZM331.71 190.129V189.633H331.166V190.129H331.71ZM331.438 189.905H332.619V189.361H331.438V189.905ZM332.89 189.633V186.209H332.347V189.633H332.89ZM332.567 185.942L331.452 186.157L331.555 186.691L332.67 186.476L332.567 185.942ZM331.775 186.424V186.007H331.232V186.424H331.775ZM331.591 186.264L332.889 185.82L332.713 185.306L331.415 185.749L331.591 186.264ZM332.801 185.835H333.167V185.291H332.801V185.835ZM332.895 185.563V189.633H333.438V185.563H332.895ZM333.167 189.905H334.412V189.361H333.167V189.905ZM334.141 189.633V190.129H334.684V189.633H334.141ZM334.412 189.857H331.438V190.401H334.412V189.857Z" fill="#8CFF00"/>
</g>
<g opacity="0.5" filter="url(#filter1_f_1709_5320)">
<path d="M463.15 344.374C462.806 344.374 462.502 344.278 462.237 344.087C461.976 343.895 461.771 343.624 461.623 343.271C461.48 342.919 461.408 342.5 461.408 342.012C461.408 341.525 461.48 341.106 461.623 340.754C461.771 340.401 461.976 340.13 462.237 339.938C462.502 339.747 462.806 339.651 463.15 339.651C463.498 339.651 463.802 339.747 464.063 339.938C464.324 340.13 464.526 340.401 464.669 340.754C464.817 341.106 464.891 341.525 464.891 342.012C464.891 342.5 464.817 342.919 464.669 343.271C464.526 343.624 464.324 343.895 464.063 344.087C463.802 344.278 463.498 344.374 463.15 344.374ZM461.969 342.012C461.969 342.308 462 342.576 462.06 342.815C462.126 343.05 462.215 343.247 462.328 343.408L463.593 340.271C463.458 340.197 463.311 340.16 463.15 340.16C462.919 340.16 462.715 340.236 462.537 340.388C462.358 340.536 462.219 340.749 462.119 341.028C462.019 341.302 461.969 341.63 461.969 342.012ZM463.15 343.871C463.38 343.871 463.585 343.798 463.763 343.65C463.941 343.497 464.08 343.282 464.18 343.004C464.28 342.726 464.33 342.395 464.33 342.012C464.33 341.717 464.298 341.452 464.232 341.217C464.172 340.978 464.085 340.778 463.972 340.617L462.7 343.761C462.839 343.834 462.989 343.871 463.15 343.871ZM461.649 354.295V353.8H462.83V350.375L461.715 350.591V350.173L463.013 349.73H463.378V353.8H464.624V354.295H461.649ZM463.15 365.374C462.806 365.374 462.502 365.278 462.237 365.087C461.976 364.895 461.771 364.624 461.623 364.271C461.48 363.919 461.408 363.5 461.408 363.012C461.408 362.525 461.48 362.106 461.623 361.754C461.771 361.401 461.976 361.13 462.237 360.938C462.502 360.747 462.806 360.651 463.15 360.651C463.498 360.651 463.802 360.747 464.063 360.938C464.324 361.13 464.526 361.401 464.669 361.754C464.817 362.106 464.891 362.525 464.891 363.012C464.891 363.5 464.817 363.919 464.669 364.271C464.526 364.624 464.324 364.895 464.063 365.087C463.802 365.278 463.498 365.374 463.15 365.374ZM461.969 363.012C461.969 363.308 462 363.576 462.06 363.815C462.126 364.05 462.215 364.247 462.328 364.408L463.593 361.271C463.458 361.197 463.311 361.16 463.15 361.16C462.919 361.16 462.715 361.236 462.537 361.388C462.358 361.536 462.219 361.749 462.119 362.028C462.019 362.302 461.969 362.63 461.969 363.012ZM463.15 364.871C463.38 364.871 463.585 364.798 463.763 364.65C463.941 364.497 464.08 364.282 464.18 364.004C464.28 363.726 464.33 363.395 464.33 363.012C464.33 362.717 464.298 362.452 464.232 362.217C464.172 361.978 464.085 361.778 463.972 361.617L462.7 364.761C462.839 364.834 462.989 364.871 463.15 364.871ZM461.649 375.295V374.8H462.83V371.375L461.715 371.591V371.173L463.013 370.73H463.378V374.8H464.624V375.295H461.649ZM463.15 385.374C462.806 385.374 462.502 385.278 462.237 385.087C461.976 384.895 461.771 384.624 461.623 384.271C461.48 383.919 461.408 383.5 461.408 383.012C461.408 382.525 461.48 382.106 461.623 381.754C461.771 381.401 461.976 381.13 462.237 380.938C462.502 380.747 462.806 380.651 463.15 380.651C463.498 380.651 463.802 380.747 464.063 380.938C464.324 381.13 464.526 381.401 464.669 381.754C464.817 382.106 464.891 382.525 464.891 383.012C464.891 383.5 464.817 383.919 464.669 384.271C464.526 384.624 464.324 384.895 464.063 385.087C463.802 385.278 463.498 385.374 463.15 385.374ZM461.969 383.012C461.969 383.308 462 383.576 462.06 383.815C462.126 384.05 462.215 384.247 462.328 384.408L463.593 381.271C463.458 381.197 463.311 381.16 463.15 381.16C462.919 381.16 462.715 381.236 462.537 381.388C462.358 381.536 462.219 381.749 462.119 382.028C462.019 382.302 461.969 382.63 461.969 383.012ZM463.15 384.871C463.38 384.871 463.585 384.798 463.763 384.65C463.941 384.497 464.08 384.282 464.18 384.004C464.28 383.726 464.33 383.395 464.33 383.012C464.33 382.717 464.298 382.452 464.232 382.217C464.172 381.978 464.085 381.778 463.972 381.617L462.7 384.761C462.839 384.834 462.989 384.871 463.15 384.871ZM461.649 395.295V394.8H462.83V391.375L461.715 391.591V391.173L463.013 390.73H463.378V394.8H464.624V395.295H461.649ZM463.15 405.374C462.806 405.374 462.502 405.278 462.237 405.087C461.976 404.895 461.771 404.624 461.623 404.271C461.48 403.919 461.408 403.5 461.408 403.012C461.408 402.525 461.48 402.106 461.623 401.754C461.771 401.401 461.976 401.13 462.237 400.938C462.502 400.747 462.806 400.651 463.15 400.651C463.498 400.651 463.802 400.747 464.063 400.938C464.324 401.13 464.526 401.401 464.669 401.754C464.817 402.106 464.891 402.525 464.891 403.012C464.891 403.5 464.817 403.919 464.669 404.271C464.526 404.624 464.324 404.895 464.063 405.087C463.802 405.278 463.498 405.374 463.15 405.374ZM461.969 403.012C461.969 403.308 462 403.576 462.06 403.815C462.126 404.05 462.215 404.247 462.328 404.408L463.593 401.271C463.458 401.197 463.311 401.16 463.15 401.16C462.919 401.16 462.715 401.236 462.537 401.388C462.358 401.536 462.219 401.749 462.119 402.028C462.019 402.302 461.969 402.63 461.969 403.012ZM463.15 404.871C463.38 404.871 463.585 404.798 463.763 404.65C463.941 404.497 464.08 404.282 464.18 404.004C464.28 403.726 464.33 403.395 464.33 403.012C464.33 402.717 464.298 402.452 464.232 402.217C464.172 401.978 464.085 401.778 463.972 401.617L462.7 404.761C462.839 404.834 462.989 404.871 463.15 404.871ZM461.649 415.295V414.8H462.83V411.375L461.715 411.591V411.173L463.013 410.73H463.378V414.8H464.624V415.295H461.649Z" fill="#054F77"/>
<path d="M462.237 344.087L462.076 344.306L462.078 344.307L462.237 344.087ZM461.623 343.271L461.372 343.374L461.373 343.377L461.623 343.271ZM461.623 340.754L461.373 340.648L461.372 340.651L461.623 340.754ZM462.237 339.938L462.078 339.718L462.076 339.719L462.237 339.938ZM464.063 339.938L464.224 339.719L464.224 339.719L464.063 339.938ZM464.669 340.754L464.418 340.856L464.419 340.859L464.669 340.754ZM464.669 343.271L464.419 343.166L464.418 343.169L464.669 343.271ZM464.063 344.087L464.224 344.306L464.224 344.306L464.063 344.087ZM462.06 342.815L461.797 342.882L461.799 342.888L462.06 342.815ZM462.328 343.408L462.105 343.565L462.393 343.974L462.58 343.51L462.328 343.408ZM463.593 340.271L463.845 340.373L463.936 340.149L463.724 340.033L463.593 340.271ZM462.537 340.388L462.71 340.598L462.713 340.595L462.537 340.388ZM462.119 341.028L462.374 341.121L462.375 341.119L462.119 341.028ZM463.763 343.65L463.936 343.859L463.939 343.856L463.763 343.65ZM464.232 341.217L463.969 341.284L463.971 341.289L464.232 341.217ZM463.972 340.617L464.194 340.46L463.907 340.052L463.72 340.515L463.972 340.617ZM462.7 343.761L462.448 343.659L462.356 343.886L462.572 344.001L462.7 343.761ZM463.15 344.102C462.86 344.102 462.612 344.022 462.396 343.866L462.078 344.307C462.392 344.534 462.752 344.645 463.15 344.645V344.102ZM462.397 343.868C462.183 343.71 462.006 343.481 461.874 343.166L461.373 343.377C461.536 343.766 461.769 344.08 462.076 344.306L462.397 343.868ZM461.875 343.169C461.748 342.857 461.68 342.474 461.68 342.012H461.136C461.136 342.525 461.212 342.981 461.372 343.374L461.875 343.169ZM461.68 342.012C461.68 341.551 461.748 341.168 461.875 340.856L461.372 340.651C461.212 341.044 461.136 341.5 461.136 342.012H461.68ZM461.874 340.859C462.006 340.544 462.183 340.315 462.397 340.157L462.076 339.719C461.769 339.944 461.536 340.259 461.373 340.648L461.874 340.859ZM462.396 340.159C462.612 340.002 462.86 339.923 463.15 339.923V339.379C462.752 339.379 462.392 339.491 462.078 339.718L462.396 340.159ZM463.15 339.923C463.444 339.923 463.691 340.003 463.902 340.157L464.224 339.719C463.912 339.491 463.551 339.379 463.15 339.379V339.923ZM463.902 340.157C464.116 340.314 464.29 340.542 464.418 340.856L464.921 340.651C464.762 340.261 464.532 339.945 464.224 339.719L463.902 340.157ZM464.419 340.859C464.549 341.17 464.619 341.552 464.619 342.012H465.163C465.163 341.499 465.085 341.042 464.92 340.648L464.419 340.859ZM464.619 342.012C464.619 342.473 464.549 342.855 464.419 343.166L464.92 343.377C465.085 342.983 465.163 342.526 465.163 342.012H464.619ZM464.418 343.169C464.29 343.483 464.116 343.711 463.902 343.868L464.224 344.306C464.532 344.08 464.762 343.764 464.921 343.374L464.418 343.169ZM463.902 343.868C463.691 344.022 463.444 344.102 463.15 344.102V344.645C463.551 344.645 463.912 344.534 464.224 344.306L463.902 343.868ZM461.697 342.012C461.697 342.326 461.73 342.617 461.797 342.882L462.324 342.748C462.269 342.534 462.241 342.29 462.241 342.012H461.697ZM461.799 342.888C461.87 343.145 461.971 343.373 462.105 343.565L462.55 343.252C462.459 343.122 462.381 342.954 462.322 342.742L461.799 342.888ZM462.58 343.51L463.845 340.373L463.341 340.169L462.076 343.307L462.58 343.51ZM463.724 340.033C463.547 339.936 463.354 339.888 463.15 339.888V340.432C463.267 340.432 463.37 340.458 463.463 340.509L463.724 340.033ZM463.15 339.888C462.853 339.888 462.587 339.988 462.36 340.182L462.713 340.595C462.843 340.484 462.985 340.432 463.15 340.432V339.888ZM462.363 340.179C462.138 340.365 461.975 340.624 461.863 340.936L462.375 341.119C462.463 340.874 462.578 340.707 462.71 340.598L462.363 340.179ZM461.864 340.934C461.75 341.246 461.697 341.607 461.697 342.012H462.241C462.241 341.652 462.288 341.357 462.374 341.121L461.864 340.934ZM463.15 344.143C463.444 344.143 463.71 344.047 463.936 343.859L463.589 343.44C463.46 343.548 463.316 343.6 463.15 343.6V344.143ZM463.939 343.856C464.162 343.666 464.324 343.407 464.436 343.096L463.925 342.912C463.836 343.157 463.72 343.329 463.586 343.443L463.939 343.856ZM464.436 343.096C464.549 342.781 464.602 342.418 464.602 342.012H464.059C464.059 342.373 464.011 342.67 463.925 342.912L464.436 343.096ZM464.602 342.012C464.602 341.697 464.567 341.407 464.494 341.144L463.971 341.289C464.028 341.496 464.059 341.736 464.059 342.012H464.602ZM464.496 341.15C464.429 340.886 464.33 340.654 464.194 340.46L463.749 340.773C463.839 340.901 463.914 341.069 463.969 341.284L464.496 341.15ZM463.72 340.515L462.448 343.659L462.952 343.862L464.224 340.719L463.72 340.515ZM462.572 344.001C462.751 344.096 462.945 344.143 463.15 344.143V343.6C463.032 343.6 462.926 343.573 462.827 343.521L462.572 344.001ZM461.649 354.295H461.378V354.567H461.649V354.295ZM461.649 353.8V353.528H461.378V353.8H461.649ZM462.83 353.8V354.071H463.102V353.8H462.83ZM462.83 350.375H463.102V350.046L462.779 350.108L462.83 350.375ZM461.715 350.591H461.443V350.92L461.766 350.857L461.715 350.591ZM461.715 350.173L461.627 349.916L461.443 349.979V350.173H461.715ZM463.013 349.73V349.458H462.968L462.925 349.472L463.013 349.73ZM463.378 349.73H463.65V349.458H463.378V349.73ZM463.378 353.8H463.106V354.071H463.378V353.8ZM464.624 353.8H464.896V353.528H464.624V353.8ZM464.624 354.295V354.567H464.896V354.295H464.624ZM461.921 354.295V353.8H461.378V354.295H461.921ZM461.649 354.071H462.83V353.528H461.649V354.071ZM463.102 353.8V350.375H462.558V353.8H463.102ZM462.779 350.108L461.663 350.324L461.766 350.857L462.882 350.642L462.779 350.108ZM461.987 350.591V350.173H461.443V350.591H461.987ZM461.803 350.43L463.101 349.987L462.925 349.472L461.627 349.916L461.803 350.43ZM463.013 350.001H463.378V349.458H463.013V350.001ZM463.106 349.73V353.8H463.65V349.73H463.106ZM463.378 354.071H464.624V353.528H463.378V354.071ZM464.352 353.8V354.295H464.896V353.8H464.352ZM464.624 354.024H461.649V354.567H464.624V354.024ZM462.237 365.087L462.076 365.306L462.078 365.307L462.237 365.087ZM461.623 364.271L461.372 364.374L461.373 364.377L461.623 364.271ZM461.623 361.754L461.373 361.648L461.372 361.651L461.623 361.754ZM462.237 360.938L462.078 360.718L462.076 360.719L462.237 360.938ZM464.063 360.938L464.224 360.719L464.224 360.719L464.063 360.938ZM464.669 361.754L464.418 361.856L464.419 361.859L464.669 361.754ZM464.669 364.271L464.419 364.166L464.418 364.169L464.669 364.271ZM464.063 365.087L464.224 365.306L464.224 365.306L464.063 365.087ZM462.06 363.815L461.797 363.882L461.799 363.888L462.06 363.815ZM462.328 364.408L462.105 364.565L462.393 364.974L462.58 364.51L462.328 364.408ZM463.593 361.271L463.845 361.373L463.936 361.149L463.724 361.033L463.593 361.271ZM462.537 361.388L462.71 361.598L462.713 361.595L462.537 361.388ZM462.119 362.028L462.374 362.121L462.375 362.119L462.119 362.028ZM463.763 364.65L463.936 364.859L463.939 364.856L463.763 364.65ZM464.232 362.217L463.969 362.284L463.971 362.289L464.232 362.217ZM463.972 361.617L464.194 361.46L463.907 361.052L463.72 361.515L463.972 361.617ZM462.7 364.761L462.448 364.659L462.356 364.886L462.572 365.001L462.7 364.761ZM463.15 365.102C462.86 365.102 462.612 365.022 462.396 364.866L462.078 365.307C462.392 365.534 462.752 365.645 463.15 365.645V365.102ZM462.397 364.868C462.183 364.71 462.006 364.481 461.874 364.166L461.373 364.377C461.536 364.766 461.769 365.08 462.076 365.306L462.397 364.868ZM461.875 364.169C461.748 363.857 461.68 363.474 461.68 363.012H461.136C461.136 363.525 461.212 363.981 461.372 364.374L461.875 364.169ZM461.68 363.012C461.68 362.551 461.748 362.168 461.875 361.856L461.372 361.651C461.212 362.044 461.136 362.5 461.136 363.012H461.68ZM461.874 361.859C462.006 361.544 462.183 361.315 462.397 361.157L462.076 360.719C461.769 360.944 461.536 361.259 461.373 361.648L461.874 361.859ZM462.396 361.159C462.612 361.002 462.86 360.923 463.15 360.923V360.379C462.752 360.379 462.392 360.491 462.078 360.718L462.396 361.159ZM463.15 360.923C463.444 360.923 463.691 361.003 463.902 361.157L464.224 360.719C463.912 360.491 463.551 360.379 463.15 360.379V360.923ZM463.902 361.157C464.116 361.314 464.29 361.542 464.418 361.856L464.921 361.651C464.762 361.261 464.532 360.945 464.224 360.719L463.902 361.157ZM464.419 361.859C464.549 362.17 464.619 362.552 464.619 363.012H465.163C465.163 362.499 465.085 362.042 464.92 361.648L464.419 361.859ZM464.619 363.012C464.619 363.473 464.549 363.855 464.419 364.166L464.92 364.377C465.085 363.983 465.163 363.526 465.163 363.012H464.619ZM464.418 364.169C464.29 364.483 464.116 364.711 463.902 364.868L464.224 365.306C464.532 365.08 464.762 364.764 464.921 364.374L464.418 364.169ZM463.902 364.868C463.691 365.022 463.444 365.102 463.15 365.102V365.645C463.551 365.645 463.912 365.534 464.224 365.306L463.902 364.868ZM461.697 363.012C461.697 363.326 461.73 363.617 461.797 363.882L462.324 363.748C462.269 363.534 462.241 363.29 462.241 363.012H461.697ZM461.799 363.888C461.87 364.145 461.971 364.373 462.105 364.565L462.55 364.252C462.459 364.122 462.381 363.954 462.322 363.742L461.799 363.888ZM462.58 364.51L463.845 361.373L463.341 361.169L462.076 364.307L462.58 364.51ZM463.724 361.033C463.547 360.936 463.354 360.888 463.15 360.888V361.432C463.267 361.432 463.37 361.458 463.463 361.509L463.724 361.033ZM463.15 360.888C462.853 360.888 462.587 360.988 462.36 361.182L462.713 361.595C462.843 361.484 462.985 361.432 463.15 361.432V360.888ZM462.363 361.179C462.138 361.365 461.975 361.624 461.863 361.936L462.375 362.119C462.463 361.874 462.578 361.707 462.71 361.598L462.363 361.179ZM461.864 361.934C461.75 362.246 461.697 362.607 461.697 363.012H462.241C462.241 362.652 462.288 362.357 462.374 362.121L461.864 361.934ZM463.15 365.143C463.444 365.143 463.71 365.047 463.936 364.859L463.589 364.44C463.46 364.548 463.316 364.6 463.15 364.6V365.143ZM463.939 364.856C464.162 364.666 464.324 364.407 464.436 364.096L463.925 363.912C463.836 364.157 463.72 364.329 463.586 364.443L463.939 364.856ZM464.436 364.096C464.549 363.781 464.602 363.418 464.602 363.012H464.059C464.059 363.373 464.011 363.67 463.925 363.912L464.436 364.096ZM464.602 363.012C464.602 362.697 464.567 362.407 464.494 362.144L463.971 362.289C464.028 362.496 464.059 362.736 464.059 363.012H464.602ZM464.496 362.15C464.429 361.886 464.33 361.654 464.194 361.46L463.749 361.773C463.839 361.901 463.914 362.069 463.969 362.284L464.496 362.15ZM463.72 361.515L462.448 364.659L462.952 364.862L464.224 361.719L463.72 361.515ZM462.572 365.001C462.751 365.096 462.945 365.143 463.15 365.143V364.6C463.032 364.6 462.926 364.573 462.827 364.521L462.572 365.001ZM461.649 375.295H461.378V375.567H461.649V375.295ZM461.649 374.8V374.528H461.378V374.8H461.649ZM462.83 374.8V375.071H463.102V374.8H462.83ZM462.83 371.375H463.102V371.046L462.779 371.108L462.83 371.375ZM461.715 371.591H461.443V371.92L461.766 371.857L461.715 371.591ZM461.715 371.173L461.627 370.916L461.443 370.979V371.173H461.715ZM463.013 370.73V370.458H462.968L462.925 370.472L463.013 370.73ZM463.378 370.73H463.65V370.458H463.378V370.73ZM463.378 374.8H463.106V375.071H463.378V374.8ZM464.624 374.8H464.896V374.528H464.624V374.8ZM464.624 375.295V375.567H464.896V375.295H464.624ZM461.921 375.295V374.8H461.378V375.295H461.921ZM461.649 375.071H462.83V374.528H461.649V375.071ZM463.102 374.8V371.375H462.558V374.8H463.102ZM462.779 371.108L461.663 371.324L461.766 371.857L462.882 371.642L462.779 371.108ZM461.987 371.591V371.173H461.443V371.591H461.987ZM461.803 371.43L463.101 370.987L462.925 370.472L461.627 370.916L461.803 371.43ZM463.013 371.001H463.378V370.458H463.013V371.001ZM463.106 370.73V374.8H463.65V370.73H463.106ZM463.378 375.071H464.624V374.528H463.378V375.071ZM464.352 374.8V375.295H464.896V374.8H464.352ZM464.624 375.024H461.649V375.567H464.624V375.024ZM462.237 385.087L462.076 385.306L462.078 385.307L462.237 385.087ZM461.623 384.271L461.372 384.374L461.373 384.377L461.623 384.271ZM461.623 381.754L461.373 381.648L461.372 381.651L461.623 381.754ZM462.237 380.938L462.078 380.718L462.076 380.719L462.237 380.938ZM464.063 380.938L464.224 380.719L464.224 380.719L464.063 380.938ZM464.669 381.754L464.418 381.856L464.419 381.859L464.669 381.754ZM464.669 384.271L464.419 384.166L464.418 384.169L464.669 384.271ZM464.063 385.087L464.224 385.306L464.224 385.306L464.063 385.087ZM462.06 383.815L461.797 383.882L461.799 383.888L462.06 383.815ZM462.328 384.408L462.105 384.565L462.393 384.974L462.58 384.51L462.328 384.408ZM463.593 381.271L463.845 381.373L463.936 381.149L463.724 381.033L463.593 381.271ZM462.537 381.388L462.71 381.598L462.713 381.595L462.537 381.388ZM462.119 382.028L462.374 382.121L462.375 382.119L462.119 382.028ZM463.763 384.65L463.936 384.859L463.939 384.856L463.763 384.65ZM464.232 382.217L463.969 382.284L463.971 382.289L464.232 382.217ZM463.972 381.617L464.194 381.46L463.907 381.052L463.72 381.515L463.972 381.617ZM462.7 384.761L462.448 384.659L462.356 384.886L462.572 385.001L462.7 384.761ZM463.15 385.102C462.86 385.102 462.612 385.022 462.396 384.866L462.078 385.307C462.392 385.534 462.752 385.645 463.15 385.645V385.102ZM462.397 384.868C462.183 384.71 462.006 384.481 461.874 384.166L461.373 384.377C461.536 384.766 461.769 385.08 462.076 385.306L462.397 384.868ZM461.875 384.169C461.748 383.857 461.68 383.474 461.68 383.012H461.136C461.136 383.525 461.212 383.981 461.372 384.374L461.875 384.169ZM461.68 383.012C461.68 382.551 461.748 382.168 461.875 381.856L461.372 381.651C461.212 382.044 461.136 382.5 461.136 383.012H461.68ZM461.874 381.859C462.006 381.544 462.183 381.315 462.397 381.157L462.076 380.719C461.769 380.944 461.536 381.259 461.373 381.648L461.874 381.859ZM462.396 381.159C462.612 381.002 462.86 380.923 463.15 380.923V380.379C462.752 380.379 462.392 380.491 462.078 380.718L462.396 381.159ZM463.15 380.923C463.444 380.923 463.691 381.003 463.902 381.157L464.224 380.719C463.912 380.491 463.551 380.379 463.15 380.379V380.923ZM463.902 381.157C464.116 381.314 464.29 381.542 464.418 381.856L464.921 381.651C464.762 381.261 464.532 380.945 464.224 380.719L463.902 381.157ZM464.419 381.859C464.549 382.17 464.619 382.552 464.619 383.012H465.163C465.163 382.499 465.085 382.042 464.92 381.648L464.419 381.859ZM464.619 383.012C464.619 383.473 464.549 383.855 464.419 384.166L464.92 384.377C465.085 383.983 465.163 383.526 465.163 383.012H464.619ZM464.418 384.169C464.29 384.483 464.116 384.711 463.902 384.868L464.224 385.306C464.532 385.08 464.762 384.764 464.921 384.374L464.418 384.169ZM463.902 384.868C463.691 385.022 463.444 385.102 463.15 385.102V385.645C463.551 385.645 463.912 385.534 464.224 385.306L463.902 384.868ZM461.697 383.012C461.697 383.326 461.73 383.617 461.797 383.882L462.324 383.748C462.269 383.534 462.241 383.29 462.241 383.012H461.697ZM461.799 383.888C461.87 384.145 461.971 384.373 462.105 384.565L462.55 384.252C462.459 384.122 462.381 383.954 462.322 383.742L461.799 383.888ZM462.58 384.51L463.845 381.373L463.341 381.169L462.076 384.307L462.58 384.51ZM463.724 381.033C463.547 380.936 463.354 380.888 463.15 380.888V381.432C463.267 381.432 463.37 381.458 463.463 381.509L463.724 381.033ZM463.15 380.888C462.853 380.888 462.587 380.988 462.36 381.182L462.713 381.595C462.843 381.484 462.985 381.432 463.15 381.432V380.888ZM462.363 381.179C462.138 381.365 461.975 381.624 461.863 381.936L462.375 382.119C462.463 381.874 462.578 381.707 462.71 381.598L462.363 381.179ZM461.864 381.934C461.75 382.246 461.697 382.607 461.697 383.012H462.241C462.241 382.652 462.288 382.357 462.374 382.121L461.864 381.934ZM463.15 385.143C463.444 385.143 463.71 385.047 463.936 384.859L463.589 384.44C463.46 384.548 463.316 384.6 463.15 384.6V385.143ZM463.939 384.856C464.162 384.666 464.324 384.407 464.436 384.096L463.925 383.912C463.836 384.157 463.72 384.329 463.586 384.443L463.939 384.856ZM464.436 384.096C464.549 383.781 464.602 383.418 464.602 383.012H464.059C464.059 383.373 464.011 383.67 463.925 383.912L464.436 384.096ZM464.602 383.012C464.602 382.697 464.567 382.407 464.494 382.144L463.971 382.289C464.028 382.496 464.059 382.736 464.059 383.012H464.602ZM464.496 382.15C464.429 381.886 464.33 381.654 464.194 381.46L463.749 381.773C463.839 381.901 463.914 382.069 463.969 382.284L464.496 382.15ZM463.72 381.515L462.448 384.659L462.952 384.862L464.224 381.719L463.72 381.515ZM462.572 385.001C462.751 385.096 462.945 385.143 463.15 385.143V384.6C463.032 384.6 462.926 384.573 462.827 384.521L462.572 385.001ZM461.649 395.295H461.378V395.567H461.649V395.295ZM461.649 394.8V394.528H461.378V394.8H461.649ZM462.83 394.8V395.071H463.102V394.8H462.83ZM462.83 391.375H463.102V391.046L462.779 391.108L462.83 391.375ZM461.715 391.591H461.443V391.92L461.766 391.857L461.715 391.591ZM461.715 391.173L461.627 390.916L461.443 390.979V391.173H461.715ZM463.013 390.73V390.458H462.968L462.925 390.472L463.013 390.73ZM463.378 390.73H463.65V390.458H463.378V390.73ZM463.378 394.8H463.106V395.071H463.378V394.8ZM464.624 394.8H464.896V394.528H464.624V394.8ZM464.624 395.295V395.567H464.896V395.295H464.624ZM461.921 395.295V394.8H461.378V395.295H461.921ZM461.649 395.071H462.83V394.528H461.649V395.071ZM463.102 394.8V391.375H462.558V394.8H463.102ZM462.779 391.108L461.663 391.324L461.766 391.857L462.882 391.642L462.779 391.108ZM461.987 391.591V391.173H461.443V391.591H461.987ZM461.803 391.43L463.101 390.987L462.925 390.472L461.627 390.916L461.803 391.43ZM463.013 391.001H463.378V390.458H463.013V391.001ZM463.106 390.73V394.8H463.65V390.73H463.106ZM463.378 395.071H464.624V394.528H463.378V395.071ZM464.352 394.8V395.295H464.896V394.8H464.352ZM464.624 395.024H461.649V395.567H464.624V395.024ZM462.237 405.087L462.076 405.306L462.078 405.307L462.237 405.087ZM461.623 404.271L461.372 404.374L461.373 404.377L461.623 404.271ZM461.623 401.754L461.373 401.648L461.372 401.651L461.623 401.754ZM462.237 400.938L462.078 400.718L462.076 400.719L462.237 400.938ZM464.063 400.938L464.224 400.719L464.224 400.719L464.063 400.938ZM464.669 401.754L464.418 401.856L464.419 401.859L464.669 401.754ZM464.669 404.271L464.419 404.166L464.418 404.169L464.669 404.271ZM464.063 405.087L464.224 405.306L464.224 405.306L464.063 405.087ZM462.06 403.815L461.797 403.882L461.799 403.888L462.06 403.815ZM462.328 404.408L462.105 404.565L462.393 404.974L462.58 404.51L462.328 404.408ZM463.593 401.271L463.845 401.373L463.936 401.149L463.724 401.033L463.593 401.271ZM462.537 401.388L462.71 401.598L462.713 401.595L462.537 401.388ZM462.119 402.028L462.374 402.121L462.375 402.119L462.119 402.028ZM463.763 404.65L463.936 404.859L463.939 404.856L463.763 404.65ZM464.232 402.217L463.969 402.284L463.971 402.289L464.232 402.217ZM463.972 401.617L464.194 401.46L463.907 401.052L463.72 401.515L463.972 401.617ZM462.7 404.761L462.448 404.659L462.356 404.886L462.572 405.001L462.7 404.761ZM463.15 405.102C462.86 405.102 462.612 405.022 462.396 404.866L462.078 405.307C462.392 405.534 462.752 405.645 463.15 405.645V405.102ZM462.397 404.868C462.183 404.71 462.006 404.481 461.874 404.166L461.373 404.377C461.536 404.766 461.769 405.08 462.076 405.306L462.397 404.868ZM461.875 404.169C461.748 403.857 461.68 403.474 461.68 403.012H461.136C461.136 403.525 461.212 403.981 461.372 404.374L461.875 404.169ZM461.68 403.012C461.68 402.551 461.748 402.168 461.875 401.856L461.372 401.651C461.212 402.044 461.136 402.5 461.136 403.012H461.68ZM461.874 401.859C462.006 401.544 462.183 401.315 462.397 401.157L462.076 400.719C461.769 400.944 461.536 401.259 461.373 401.648L461.874 401.859ZM462.396 401.159C462.612 401.002 462.86 400.923 463.15 400.923V400.379C462.752 400.379 462.392 400.491 462.078 400.718L462.396 401.159ZM463.15 400.923C463.444 400.923 463.691 401.003 463.902 401.157L464.224 400.719C463.912 400.491 463.551 400.379 463.15 400.379V400.923ZM463.902 401.157C464.116 401.314 464.29 401.542 464.418 401.856L464.921 401.651C464.762 401.261 464.532 400.945 464.224 400.719L463.902 401.157ZM464.419 401.859C464.549 402.17 464.619 402.552 464.619 403.012H465.163C465.163 402.499 465.085 402.042 464.92 401.648L464.419 401.859ZM464.619 403.012C464.619 403.473 464.549 403.855 464.419 404.166L464.92 404.377C465.085 403.983 465.163 403.526 465.163 403.012H464.619ZM464.418 404.169C464.29 404.483 464.116 404.711 463.902 404.868L464.224 405.306C464.532 405.08 464.762 404.764 464.921 404.374L464.418 404.169ZM463.902 404.868C463.691 405.022 463.444 405.102 463.15 405.102V405.645C463.551 405.645 463.912 405.534 464.224 405.306L463.902 404.868ZM461.697 403.012C461.697 403.326 461.73 403.617 461.797 403.882L462.324 403.748C462.269 403.534 462.241 403.29 462.241 403.012H461.697ZM461.799 403.888C461.87 404.145 461.971 404.373 462.105 404.565L462.55 404.252C462.459 404.122 462.381 403.954 462.322 403.742L461.799 403.888ZM462.58 404.51L463.845 401.373L463.341 401.169L462.076 404.307L462.58 404.51ZM463.724 401.033C463.547 400.936 463.354 400.888 463.15 400.888V401.432C463.267 401.432 463.37 401.458 463.463 401.509L463.724 401.033ZM463.15 400.888C462.853 400.888 462.587 400.988 462.36 401.182L462.713 401.595C462.843 401.484 462.985 401.432 463.15 401.432V400.888ZM462.363 401.179C462.138 401.365 461.975 401.624 461.863 401.936L462.375 402.119C462.463 401.874 462.578 401.707 462.71 401.598L462.363 401.179ZM461.864 401.934C461.75 402.246 461.697 402.607 461.697 403.012H462.241C462.241 402.652 462.288 402.357 462.374 402.121L461.864 401.934ZM463.15 405.143C463.444 405.143 463.71 405.047 463.936 404.859L463.589 404.44C463.46 404.548 463.316 404.6 463.15 404.6V405.143ZM463.939 404.856C464.162 404.666 464.324 404.407 464.436 404.096L463.925 403.912C463.836 404.157 463.72 404.329 463.586 404.443L463.939 404.856ZM464.436 404.096C464.549 403.781 464.602 403.418 464.602 403.012H464.059C464.059 403.373 464.011 403.67 463.925 403.912L464.436 404.096ZM464.602 403.012C464.602 402.697 464.567 402.407 464.494 402.144L463.971 402.289C464.028 402.496 464.059 402.736 464.059 403.012H464.602ZM464.496 402.15C464.429 401.886 464.33 401.654 464.194 401.46L463.749 401.773C463.839 401.901 463.914 402.069 463.969 402.284L464.496 402.15ZM463.72 401.515L462.448 404.659L462.952 404.862L464.224 401.719L463.72 401.515ZM462.572 405.001C462.751 405.096 462.945 405.143 463.15 405.143V404.6C463.032 404.6 462.926 404.573 462.827 404.521L462.572 405.001ZM461.649 415.295H461.378V415.567H461.649V415.295ZM461.649 414.8V414.528H461.378V414.8H461.649ZM462.83 414.8V415.071H463.102V414.8H462.83ZM462.83 411.375H463.102V411.046L462.779 411.108L462.83 411.375ZM461.715 411.591H461.443V411.92L461.766 411.857L461.715 411.591ZM461.715 411.173L461.627 410.916L461.443 410.979V411.173H461.715ZM463.013 410.73V410.458H462.968L462.925 410.472L463.013 410.73ZM463.378 410.73H463.65V410.458H463.378V410.73ZM463.378 414.8H463.106V415.071H463.378V414.8ZM464.624 414.8H464.896V414.528H464.624V414.8ZM464.624 415.295V415.567H464.896V415.295H464.624ZM461.921 415.295V414.8H461.378V415.295H461.921ZM461.649 415.071H462.83V414.528H461.649V415.071ZM463.102 414.8V411.375H462.558V414.8H463.102ZM462.779 411.108L461.663 411.324L461.766 411.857L462.882 411.642L462.779 411.108ZM461.987 411.591V411.173H461.443V411.591H461.987ZM461.803 411.43L463.101 410.987L462.925 410.472L461.627 410.916L461.803 411.43ZM463.013 411.001H463.378V410.458H463.013V411.001ZM463.106 410.73V414.8H463.65V410.73H463.106ZM463.378 415.071H464.624V414.528H463.378V415.071ZM464.352 414.8V415.295H464.896V414.8H464.352ZM464.624 415.024H461.649V415.567H464.624V415.024Z" fill="#8CFF00"/>
</g>
<path opacity="0.5" d="M514.576 142.699H314.251L295.561 230.886H496.068L514.576 142.699Z" fill="white"/>
<path opacity="0.5" d="M514.216 316.894H314.797L296.47 396.371H498.066L514.216 316.894Z" fill="white"/>
<path opacity="0.3" d="M496.07 230.884H296.47L314.797 316.893H514.216L496.07 230.884Z" fill="white"/>
<g opacity="0.5" filter="url(#filter2_bf_1709_5320)">
<path fill-rule="evenodd" clip-rule="evenodd" d="M514.576 142.699H314.251L295.561 230.886H296.471L314.797 316.893H514.216L496.07 230.884H496.068L514.576 142.699ZM514.216 316.894H314.797L296.47 396.371H498.066L514.216 316.894Z" fill="url(#paint1_linear_1709_5320)"/>
<path d="M314.251 142.699L313.985 142.642L314.03 142.427H314.251V142.699ZM514.576 142.699V142.427H514.911L514.842 142.755L514.576 142.699ZM295.561 230.886V231.157H295.225L295.295 230.829L295.561 230.886ZM296.471 230.886V230.614H296.691L296.737 230.829L296.471 230.886ZM314.797 316.893V317.165H314.577L314.531 316.95L314.797 316.893ZM514.216 316.893L514.481 316.837L514.551 317.165H514.216V316.893ZM496.07 230.884V230.612H496.291L496.336 230.827L496.07 230.884ZM496.068 230.884V231.155H495.733L495.802 230.828L496.068 230.884ZM314.797 316.894L314.532 316.833L314.581 316.622H314.797V316.894ZM514.216 316.894V316.622H514.548L514.482 316.948L514.216 316.894ZM296.47 396.371V396.643H296.129L296.206 396.31L296.47 396.371ZM498.066 396.371L498.332 396.425L498.288 396.643H498.066V396.371ZM314.251 142.427H514.576V142.971H314.251V142.427ZM295.295 230.829L313.985 142.642L314.516 142.755L295.827 230.942L295.295 230.829ZM296.471 231.157H295.561V230.614H296.471V231.157ZM296.737 230.829L315.063 316.836L314.531 316.95L296.205 230.942L296.737 230.829ZM314.797 316.621H514.216V317.165H314.797V316.621ZM513.95 316.949L495.804 230.94L496.336 230.827L514.481 316.837L513.95 316.949ZM496.07 231.155H496.068V230.612H496.07V231.155ZM514.842 142.755L496.334 230.939L495.802 230.828L514.31 142.643L514.842 142.755ZM314.797 316.622H514.216V317.166H314.797V316.622ZM296.206 396.31L314.532 316.833L315.062 316.955L296.735 396.432L296.206 396.31ZM498.066 396.643H296.47V396.099H498.066V396.643ZM514.482 316.948L498.332 396.425L497.8 396.317L513.949 316.84L514.482 316.948Z" fill="#8CFF00"/>
</g>
<g filter="url(#filter3_f_1709_5320)">
<path d="M489.362 166.958C487.617 170.472 484.775 173.323 481.266 175.079C477.757 176.836 473.772 177.402 469.912 176.693C466.053 175.984 462.53 174.038 459.874 171.149C457.219 168.261 455.576 164.586 455.193 160.681C454.811 156.776 455.71 152.852 457.755 149.503C459.8 146.154 462.879 143.562 466.528 142.118C470.177 140.674 474.196 140.457 477.979 141.499C481.762 142.542 485.102 144.788 487.496 147.897L484.334 150.331C482.469 147.908 479.866 146.158 476.919 145.346C473.971 144.534 470.839 144.703 467.996 145.828C465.153 146.953 462.754 148.973 461.161 151.582C459.567 154.192 458.866 157.249 459.164 160.292C459.462 163.335 460.742 166.198 462.812 168.449C464.881 170.7 467.626 172.216 470.633 172.769C473.641 173.321 476.746 172.88 479.48 171.511C482.214 170.143 484.428 167.922 485.788 165.183L489.362 166.958Z" fill="url(#paint2_linear_1709_5320)"/>
</g>
<g filter="url(#filter4_f_1709_5320)">
<path d="M494.269 131.805C500.735 136.837 505.189 144.014 506.829 152.041C508.469 160.068 507.186 168.417 503.212 175.581C499.238 182.746 492.834 188.254 485.157 191.112C477.479 193.971 469.032 193.992 461.34 191.17C453.648 188.349 447.218 182.872 443.209 175.727C439.2 168.582 437.877 160.239 439.478 152.205C441.078 144.17 445.498 136.971 451.939 131.908C458.38 126.845 466.418 124.25 474.604 124.592L474.316 131.482C467.774 131.209 461.349 133.283 456.201 137.33C451.052 141.376 447.52 147.13 446.241 153.552C444.961 159.974 446.019 166.642 449.223 172.353C452.427 178.064 457.567 182.441 463.715 184.696C469.862 186.951 476.614 186.935 482.75 184.65C488.887 182.365 494.005 177.962 497.182 172.236C500.358 166.51 501.383 159.837 500.073 153.421C498.762 147.005 495.202 141.269 490.034 137.247L494.269 131.805Z" fill="url(#paint3_linear_1709_5320)"/>
<path d="M494.269 131.805C500.735 136.837 505.189 144.014 506.829 152.041C508.469 160.068 507.186 168.417 503.212 175.581C499.238 182.746 492.834 188.254 485.157 191.112C477.479 193.971 469.032 193.992 461.34 191.17C453.648 188.349 447.218 182.872 443.209 175.727C439.2 168.582 437.877 160.239 439.478 152.205C441.078 144.17 445.498 136.971 451.939 131.908C458.38 126.845 466.418 124.25 474.604 124.592L474.316 131.482C467.774 131.209 461.349 133.283 456.201 137.33C451.052 141.376 447.52 147.13 446.241 153.552C444.961 159.974 446.019 166.642 449.223 172.353C452.427 178.064 457.567 182.441 463.715 184.696C469.862 186.951 476.614 186.935 482.75 184.65C488.887 182.365 494.005 177.962 497.182 172.236C500.358 166.51 501.383 159.837 500.073 153.421C498.762 147.005 495.202 141.269 490.034 137.247L494.269 131.805Z" fill="white" fill-opacity="0.2"/>
</g>
<g filter="url(#filter5_f_1709_5320)">
<path d="M457.15 114.068C466.889 110.589 477.495 110.374 487.367 113.457C497.239 116.539 505.839 122.751 511.868 131.153C517.897 139.556 521.028 149.692 520.786 160.031C520.544 170.37 516.944 180.35 510.529 188.461C504.114 196.573 495.233 202.376 485.228 204.994C475.223 207.612 464.637 206.901 455.072 202.971C445.506 199.04 437.48 192.103 432.205 183.207C426.931 174.311 424.696 163.94 425.837 153.662L434.522 154.626C433.59 163.019 435.416 171.487 439.722 178.751C444.028 186.014 450.582 191.679 458.393 194.888C466.203 198.098 474.846 198.677 483.016 196.54C491.185 194.403 498.437 189.664 503.675 183.041C508.913 176.418 511.853 168.269 512.05 159.827C512.247 151.385 509.691 143.108 504.768 136.248C499.846 129.387 492.823 124.315 484.763 121.798C476.702 119.281 468.042 119.457 460.09 122.297L457.15 114.068Z" fill="url(#paint4_linear_1709_5320)"/>
<path d="M457.15 114.068C466.889 110.589 477.495 110.374 487.367 113.457C497.239 116.539 505.839 122.751 511.868 131.153C517.897 139.556 521.028 149.692 520.786 160.031C520.544 170.37 516.944 180.35 510.529 188.461C504.114 196.573 495.233 202.376 485.228 204.994C475.223 207.612 464.637 206.901 455.072 202.971C445.506 199.04 437.48 192.103 432.205 183.207C426.931 174.311 424.696 163.94 425.837 153.662L434.522 154.626C433.59 163.019 435.416 171.487 439.722 178.751C444.028 186.014 450.582 191.679 458.393 194.888C466.203 198.098 474.846 198.677 483.016 196.54C491.185 194.403 498.437 189.664 503.675 183.041C508.913 176.418 511.853 168.269 512.05 159.827C512.247 151.385 509.691 143.108 504.768 136.248C499.846 129.387 492.823 124.315 484.763 121.798C476.702 119.281 468.042 119.457 460.09 122.297L457.15 114.068Z" fill="white" fill-opacity="0.2"/>
</g>
<g filter="url(#filter6_f_1709_5320)">
<circle cx="517.027" cy="106.424" r="4.79046" transform="rotate(-22.7554 517.027 106.424)" fill="url(#paint5_linear_1709_5320)"/>
</g>
<g filter="url(#filter7_f_1709_5320)">
<circle cx="436.822" cy="211.648" r="4.16705" transform="rotate(-22.7554 436.822 211.648)" fill="url(#paint6_linear_1709_5320)"/>
</g>
<g filter="url(#filter8_f_1709_5320)">
<circle cx="264.983" cy="314.662" r="4.16705" transform="rotate(-22.7554 264.983 314.662)" fill="url(#paint7_linear_1709_5320)"/>
</g>
<g opacity="0.5" filter="url(#filter9_f_1709_5320)">
<circle cx="342.829" cy="437.171" r="11.5729" transform="rotate(-22.7554 342.829 437.171)" fill="url(#paint8_linear_1709_5320)"/>
</g>
<g filter="url(#filter10_f_1709_5320)">
<circle cx="482.801" cy="130.672" r="2.41325" transform="rotate(-22.7554 482.801 130.672)" fill="url(#paint9_linear_1709_5320)"/>
</g>
<g filter="url(#filter11_f_1709_5320)">
<path d="M408.269 282.988L398.683 269.975C398.107 269.193 396.934 269.207 396.377 270.003L380.723 292.379C380.069 293.314 380.73 294.6 381.871 294.612L424.199 295.077C425.348 295.09 426.035 293.804 425.387 292.856L417.07 280.702C416.643 280.078 415.802 279.898 415.157 280.293L410.153 283.356C409.524 283.741 408.706 283.581 408.269 282.988Z" fill="url(#paint10_linear_1709_5320)"/>
</g>
<path d="M426.358 251.772L384.85 250.485C381.504 250.381 378.701 252.963 378.599 256.247L377.439 293.644C377.337 296.924 379.975 299.672 383.321 299.776L424.829 301.063C428.175 301.167 430.975 298.588 431.077 295.308L432.237 257.91C432.339 254.626 429.704 251.876 426.358 251.772ZM413.194 260.221C416.43 260.322 418.974 262.975 418.875 266.147C418.777 269.319 416.073 271.81 412.838 271.71C409.601 271.609 407.058 268.955 407.156 265.784C407.255 262.612 409.957 260.121 413.194 260.221ZM423.097 295.507L404.244 294.922L386.23 294.363C384.612 294.313 383.927 293.143 384.7 291.749L395.362 272.535C396.134 271.142 397.527 271.059 398.471 272.349L408.181 285.617C409.126 286.907 410.841 287.068 412.014 285.974L414.564 283.595C415.736 282.502 417.406 282.694 418.294 284.022L424.421 293.19C425.307 294.52 424.715 295.557 423.097 295.507Z" fill="url(#paint11_linear_1709_5320)"/>
<g filter="url(#filter12_f_1709_5320)">
<path d="M385.984 260.365C388.455 261.266 389.024 264.504 387.008 266.193L371.905 278.848C369.89 280.537 366.801 279.411 366.347 276.821L362.938 257.414C362.483 254.824 365.002 252.712 367.473 253.613L385.984 260.365Z" fill="url(#paint12_radial_1709_5320)"/>
<path d="M385.984 260.365C388.455 261.266 389.024 264.504 387.008 266.193L371.905 278.848C369.89 280.537 366.801 279.411 366.347 276.821L362.938 257.414C362.483 254.824 365.002 252.712 367.473 253.613L385.984 260.365Z" stroke="#8CFF00" stroke-width="0.854002"/>
</g>
<path d="M386.661 260.612C388.831 261.403 389.33 264.246 387.56 265.73L371.353 279.311C369.583 280.794 366.871 279.805 366.471 277.531L362.813 256.704C362.414 254.429 364.626 252.575 366.796 253.366L386.661 260.612Z" fill="url(#paint13_radial_1709_5320)"/>
<path d="M386.661 260.612C388.831 261.403 389.33 264.246 387.56 265.73L371.353 279.311C369.583 280.794 366.871 279.805 366.471 277.531L362.813 256.704C362.414 254.429 364.626 252.575 366.796 253.366L386.661 260.612Z" fill="url(#paint14_radial_1709_5320)"/>
<path d="M386.661 260.612C388.831 261.403 389.33 264.246 387.56 265.73L371.353 279.311C369.583 280.794 366.871 279.805 366.471 277.531L362.813 256.704C362.414 254.429 364.626 252.575 366.796 253.366L386.661 260.612Z" stroke="#F4FBFF" stroke-width="0.1708"/>
<path d="M244.521 184.204L262.92 169.42H410.837" stroke="url(#paint15_linear_1709_5320)" stroke-width="0.543555"/>
<path d="M249.082 194.18L267.481 179.396H418.367" stroke="url(#paint16_linear_1709_5320)" stroke-width="0.543555"/>
<path d="M220.847 226.633L239.246 211.85H387.164" stroke="url(#paint17_linear_1709_5320)" stroke-width="0.543555"/>
<path d="M225.344 236.608L243.743 221.825H423.709" stroke="url(#paint18_linear_1709_5320)" stroke-width="0.543555"/>
<path d="M523.687 343.963L505.288 329.18H357.37" stroke="url(#paint19_linear_1709_5320)" stroke-width="0.543555"/>
<path d="M519.118 353.942L500.72 339.159H349.833" stroke="url(#paint20_linear_1709_5320)" stroke-width="0.543555"/>
<path d="M547.358 386.391L528.96 371.607H381.042" stroke="url(#paint21_linear_1709_5320)" stroke-width="0.543555"/>
<path d="M542.86 396.369L524.461 381.585H344.495" stroke="url(#paint22_linear_1709_5320)" stroke-width="0.543555"/>
<defs>
<filter id="filter0_f_1709_5320" x="330.11" y="113.398" width="5.65713" height="77.8183" filterUnits="userSpaceOnUse" color-interpolation-filters="sRGB">
<feFlood flood-opacity="0" result="BackgroundImageFix"/>
<feBlend mode="normal" in="SourceGraphic" in2="BackgroundImageFix" result="shape"/>
<feGaussianBlur stdDeviation="0.543555" result="effect1_foregroundBlur_1709_5320"/>
</filter>
<filter id="filter1_f_1709_5320" x="460.321" y="338.564" width="5.65713" height="77.8183" filterUnits="userSpaceOnUse" color-interpolation-filters="sRGB">
<feFlood flood-opacity="0" result="BackgroundImageFix"/>
<feBlend mode="normal" in="SourceGraphic" in2="BackgroundImageFix" result="shape"/>
<feGaussianBlur stdDeviation="0.543555" result="effect1_foregroundBlur_1709_5320"/>
</filter>
<filter id="filter2_bf_1709_5320" x="285.226" y="132.427" width="239.685" height="274.216" filterUnits="userSpaceOnUse" color-interpolation-filters="sRGB">
<feFlood flood-opacity="0" result="BackgroundImageFix"/>
<feGaussianBlur in="BackgroundImage" stdDeviation="5"/>
<feComposite in2="SourceAlpha" operator="in" result="effect1_backgroundBlur_1709_5320"/>
<feBlend mode="normal" in="SourceGraphic" in2="effect1_backgroundBlur_1709_5320" result="shape"/>
<feGaussianBlur stdDeviation="1.08711" result="effect2_foregroundBlur_1709_5320"/>
</filter>
<filter id="filter3_f_1709_5320" x="454.447" y="140.19" width="35.5755" height="37.4617" filterUnits="userSpaceOnUse" color-interpolation-filters="sRGB">
<feFlood flood-opacity="0" result="BackgroundImageFix"/>
<feBlend mode="normal" in="SourceGraphic" in2="BackgroundImageFix" result="shape"/>
<feGaussianBlur stdDeviation="0.330266" result="effect1_foregroundBlur_1709_5320"/>
</filter>
<filter id="filter4_f_1709_5320" x="437.106" y="122.853" width="72.1278" height="72.1278" filterUnits="userSpaceOnUse" color-interpolation-filters="sRGB">
<feFlood flood-opacity="0" result="BackgroundImageFix"/>
<feBlend mode="normal" in="SourceGraphic" in2="BackgroundImageFix" result="shape"/>
<feGaussianBlur stdDeviation="0.854708" result="effect1_foregroundBlur_1709_5320"/>
</filter>
<filter id="filter5_f_1709_5320" x="422.128" y="107.873" width="102.09" height="102.091" filterUnits="userSpaceOnUse" color-interpolation-filters="sRGB">
<feFlood flood-opacity="0" result="BackgroundImageFix"/>
<feBlend mode="normal" in="SourceGraphic" in2="BackgroundImageFix" result="shape"/>
<feGaussianBlur stdDeviation="1.70942" result="effect1_foregroundBlur_1709_5320"/>
</filter>
<filter id="filter6_f_1709_5320" x="510.526" y="99.9229" width="13.0023" height="13.0023" filterUnits="userSpaceOnUse" color-interpolation-filters="sRGB">
<feFlood flood-opacity="0" result="BackgroundImageFix"/>
<feBlend mode="normal" in="SourceGraphic" in2="BackgroundImageFix" result="shape"/>
<feGaussianBlur stdDeviation="0.854708" result="effect1_foregroundBlur_1709_5320"/>
</filter>
<filter id="filter7_f_1709_5320" x="430.944" y="205.771" width="11.7548" height="11.7548" filterUnits="userSpaceOnUse" color-interpolation-filters="sRGB">
<feFlood flood-opacity="0" result="BackgroundImageFix"/>
<feBlend mode="normal" in="SourceGraphic" in2="BackgroundImageFix" result="shape"/>
<feGaussianBlur stdDeviation="0.854708" result="effect1_foregroundBlur_1709_5320"/>
</filter>
<filter id="filter8_f_1709_5320" x="259.106" y="308.785" width="11.7548" height="11.7548" filterUnits="userSpaceOnUse" color-interpolation-filters="sRGB">
<feFlood flood-opacity="0" result="BackgroundImageFix"/>
<feBlend mode="normal" in="SourceGraphic" in2="BackgroundImageFix" result="shape"/>
<feGaussianBlur stdDeviation="0.854708" result="effect1_foregroundBlur_1709_5320"/>
</filter>
<filter id="filter9_f_1709_5320" x="329.544" y="423.885" width="26.5702" height="26.5707" filterUnits="userSpaceOnUse" color-interpolation-filters="sRGB">
<feFlood flood-opacity="0" result="BackgroundImageFix"/>
<feBlend mode="normal" in="SourceGraphic" in2="BackgroundImageFix" result="shape"/>
<feGaussianBlur stdDeviation="0.854708" result="effect1_foregroundBlur_1709_5320"/>
</filter>
<filter id="filter10_f_1709_5320" x="478.678" y="126.548" width="8.24671" height="8.24696" filterUnits="userSpaceOnUse" color-interpolation-filters="sRGB">
<feFlood flood-opacity="0" result="BackgroundImageFix"/>
<feBlend mode="normal" in="SourceGraphic" in2="BackgroundImageFix" result="shape"/>
<feGaussianBlur stdDeviation="0.854708" result="effect1_foregroundBlur_1709_5320"/>
</filter>
<filter id="filter11_f_1709_5320" x="378.761" y="267.694" width="48.5791" height="29.0869" filterUnits="userSpaceOnUse" color-interpolation-filters="sRGB">
<feFlood flood-opacity="0" result="BackgroundImageFix"/>
<feBlend mode="normal" in="SourceGraphic" in2="BackgroundImageFix" result="shape"/>
<feGaussianBlur stdDeviation="0.851693" result="effect1_foregroundBlur_1709_5320"/>
</filter>
<filter id="filter12_f_1709_5320" x="359.895" y="250.412" width="31.3252" height="32.2265" filterUnits="userSpaceOnUse" color-interpolation-filters="sRGB">
<feFlood flood-opacity="0" result="BackgroundImageFix"/>
<feBlend mode="normal" in="SourceGraphic" in2="BackgroundImageFix" result="shape"/>
<feGaussianBlur stdDeviation="1.281" result="effect1_foregroundBlur_1709_5320"/>
</filter>
<radialGradient id="paint0_radial_1709_5320" cx="0" cy="0" r="1" gradientUnits="userSpaceOnUse" gradientTransform="translate(349 333.439) rotate(90) scale(333.228 348.573)">
<stop stop-color="#8CFF00"/>
<stop offset="1" stop-color="#054F77" stop-opacity="0"/>
</radialGradient>
<linearGradient id="paint1_linear_1709_5320" x1="332.409" y1="136.838" x2="405.068" y2="396.371" gradientUnits="userSpaceOnUse">
<stop stop-color="#093954"/>
<stop offset="1" stop-color="#C4C4C4" stop-opacity="0"/>
</linearGradient>
<linearGradient id="paint2_linear_1709_5320" x1="474.084" y1="140.688" x2="465.14" y2="175.105" gradientUnits="userSpaceOnUse">
<stop stop-color="#054F77"/>
<stop offset="0.971875" stop-color="#8CFF00"/>
</linearGradient>
<linearGradient id="paint3_linear_1709_5320" x1="442.345" y1="142.971" x2="494.828" y2="185.585" gradientUnits="userSpaceOnUse">
<stop stop-color="#054F77"/>
<stop offset="0.971875" stop-color="#8CFF00"/>
</linearGradient>
<linearGradient id="paint4_linear_1709_5320" x1="438.115" y1="191.869" x2="518.023" y2="142.895" gradientUnits="userSpaceOnUse">
<stop stop-color="#054F77"/>
<stop offset="0.971875" stop-color="#8CFF00"/>
</linearGradient>
<linearGradient id="paint5_linear_1709_5320" x1="517.027" y1="101.634" x2="517.027" y2="118.532" gradientUnits="userSpaceOnUse">
<stop stop-color="#054F77"/>
<stop offset="1" stop-color="#8CFF00"/>
</linearGradient>
<linearGradient id="paint6_linear_1709_5320" x1="436.822" y1="207.481" x2="436.822" y2="222.18" gradientUnits="userSpaceOnUse">
<stop stop-color="#054F77"/>
<stop offset="1" stop-color="#8CFF00"/>
</linearGradient>
<linearGradient id="paint7_linear_1709_5320" x1="264.983" y1="310.495" x2="264.983" y2="325.195" gradientUnits="userSpaceOnUse">
<stop stop-color="#054F77"/>
<stop offset="1" stop-color="#8CFF00"/>
</linearGradient>
<linearGradient id="paint8_linear_1709_5320" x1="342.829" y1="425.598" x2="342.829" y2="466.422" gradientUnits="userSpaceOnUse">
<stop stop-color="#054F77"/>
<stop offset="1" stop-color="#8CFF00"/>
</linearGradient>
<linearGradient id="paint9_linear_1709_5320" x1="482.801" y1="128.259" x2="482.801" y2="136.772" gradientUnits="userSpaceOnUse">
<stop stop-color="#054F77"/>
<stop offset="1" stop-color="#8CFF00"/>
</linearGradient>
<linearGradient id="paint10_linear_1709_5320" x1="411.591" y1="294.454" x2="384.586" y2="271.903" gradientUnits="userSpaceOnUse">
<stop stop-color="#F4FBFF"/>
<stop offset="1" stop-color="#83DDDD" stop-opacity="0.92"/>
</linearGradient>
<linearGradient id="paint11_linear_1709_5320" x1="424.094" y1="267.807" x2="395.129" y2="300.142" gradientUnits="userSpaceOnUse">
<stop stop-color="#141F45"/>
<stop offset="1" stop-color="#054F77"/>
</linearGradient>
<radialGradient id="paint12_radial_1709_5320" cx="0" cy="0" r="1" gradientUnits="userSpaceOnUse" gradientTransform="translate(390.442 278.715) rotate(-163.318) scale(42.6641)">
<stop stop-color="#054F77"/>
<stop offset="1" stop-color="#141F45"/>
</radialGradient>
<radialGradient id="paint13_radial_1709_5320" cx="0" cy="0" r="1" gradientUnits="userSpaceOnUse" gradientTransform="translate(390.442 278.715) rotate(-163.318) scale(42.6641)">
<stop stop-color="#054F77"/>
<stop offset="1" stop-color="#141F45"/>
</radialGradient>
<radialGradient id="paint14_radial_1709_5320" cx="0" cy="0" r="1" gradientUnits="userSpaceOnUse" gradientTransform="translate(390.442 278.715) rotate(-163.318) scale(42.6641)">
<stop stop-color="#054F77"/>
<stop offset="1" stop-color="#8CFF00"/>
</radialGradient>
<linearGradient id="paint15_linear_1709_5320" x1="368.154" y1="169.42" x2="273.997" y2="190.659" gradientUnits="userSpaceOnUse">
<stop stop-color="#054F77"/>
<stop offset="1" stop-color="#8CFF00"/>
</linearGradient>
<linearGradient id="paint16_linear_1709_5320" x1="375.683" y1="179.396" x2="281.526" y2="200.635" gradientUnits="userSpaceOnUse">
<stop stop-color="#054F77"/>
<stop offset="1" stop-color="#8CFF00"/>
</linearGradient>
<linearGradient id="paint17_linear_1709_5320" x1="344.48" y1="211.85" x2="250.324" y2="233.088" gradientUnits="userSpaceOnUse">
<stop stop-color="#054F77"/>
<stop offset="1" stop-color="#8CFF00"/>
</linearGradient>
<linearGradient id="paint18_linear_1709_5320" x1="381.026" y1="221.825" x2="286.869" y2="243.063" gradientUnits="userSpaceOnUse">
<stop stop-color="#054F77"/>
<stop offset="1" stop-color="#8CFF00"/>
</linearGradient>
<linearGradient id="paint19_linear_1709_5320" x1="400.053" y1="329.18" x2="494.21" y2="350.418" gradientUnits="userSpaceOnUse">
<stop stop-color="#054F77"/>
<stop offset="1" stop-color="#8CFF00"/>
</linearGradient>
<linearGradient id="paint20_linear_1709_5320" x1="392.518" y1="339.159" x2="486.675" y2="360.397" gradientUnits="userSpaceOnUse">
<stop stop-color="#054F77"/>
<stop offset="1" stop-color="#8CFF00"/>
</linearGradient>
<linearGradient id="paint21_linear_1709_5320" x1="423.725" y1="371.607" x2="517.882" y2="392.846" gradientUnits="userSpaceOnUse">
<stop stop-color="#054F77"/>
<stop offset="1" stop-color="#8CFF00"/>
</linearGradient>
<linearGradient id="paint22_linear_1709_5320" x1="387.178" y1="381.585" x2="481.335" y2="402.824" gradientUnits="userSpaceOnUse">
<stop stop-color="#054F77"/>
<stop offset="1" stop-color="#8CFF00"/>
</linearGradient>
</defs>
</svg>
