<svg width="264" height="292" viewBox="0 0 264 292" fill="none" xmlns="http://www.w3.org/2000/svg">
<path d="M76.4043 180.08L61.5386 242.848L220.259 242.697L232.872 179.63L218.607 113.108L236.476 43.2837H75.8038L61.6887 112.057L76.4043 180.08Z" fill="white" fill-opacity="0.4"/>
<path opacity="0.5" d="M236.464 43.2837H75.8047L61.6933 112.027L218.609 113.098L236.464 43.2837Z" fill="url(#paint0_linear_2441_5240)"/>
<path opacity="0.5" d="M232.877 179.623L76.408 180.069L61.3074 243.268L220.054 242.657L232.877 179.623Z" fill="url(#paint1_linear_2441_5240)"/>
<path opacity="0.5" d="M218.6 113.094L61.6637 112.027L76.398 180.074L232.877 179.631L218.6 113.094Z" fill="url(#paint2_linear_2441_5240)"/>
<path d="M76.0077 43.5337H236.154L218.365 113.046L218.35 113.103L218.363 113.161L232.617 179.632L220.054 242.448L61.8548 242.597L76.6476 180.138L76.6606 180.083L76.6486 180.027L61.9442 112.056L76.0077 43.5337Z" stroke="#8CFF00" stroke-width="0.5"/>
<g opacity="0.5" filter="url(#filter0_f_2441_5240)">
<path d="M90.6688 26.5133C90.3253 26.5133 90.0209 26.4177 89.7556 26.2263C89.4947 26.035 89.2904 25.7632 89.1425 25.411C88.999 25.0588 88.9273 24.6392 88.9273 24.1521C88.9273 23.6651 88.999 23.2455 89.1425 22.8933C89.2904 22.541 89.4947 22.2692 89.7556 22.0779C90.0209 21.8866 90.3253 21.7909 90.6688 21.7909C91.0167 21.7909 91.3211 21.8866 91.582 22.0779C91.8429 22.2692 92.0451 22.541 92.1886 22.8933C92.3364 23.2455 92.4104 23.6651 92.4104 24.1521C92.4104 24.6392 92.3364 25.0588 92.1886 25.411C92.0451 25.7632 91.8429 26.035 91.582 26.2263C91.3211 26.4177 91.0167 26.5133 90.6688 26.5133ZM89.4882 24.1521C89.4882 24.4478 89.5187 24.7152 89.5795 24.9544C89.6448 25.1892 89.7339 25.3871 89.847 25.548L91.1124 22.4106C90.9776 22.3367 90.8297 22.2997 90.6688 22.2997C90.4383 22.2997 90.234 22.3758 90.0557 22.528C89.8774 22.6758 89.7382 22.8889 89.6382 23.1672C89.5382 23.4412 89.4882 23.7695 89.4882 24.1521ZM90.6688 26.0111C90.8993 26.0111 91.1037 25.9372 91.2819 25.7893C91.4602 25.6371 91.5994 25.4219 91.6994 25.1436C91.7994 24.8653 91.8494 24.5348 91.8494 24.1521C91.8494 23.8564 91.8168 23.5912 91.7516 23.3564C91.6907 23.1172 91.6037 22.9172 91.4907 22.7563L90.2188 25.9002C90.3579 25.9741 90.5079 26.0111 90.6688 26.0111ZM89.1686 36.4351V35.9393H90.3492V32.5149L89.2338 32.7302V32.3127L90.5318 31.8692H90.8971V35.9393H92.1429V36.4351H89.1686ZM90.6688 47.5133C90.3253 47.5133 90.0209 47.4177 89.7556 47.2263C89.4947 47.035 89.2904 46.7632 89.1425 46.411C88.999 46.0588 88.9273 45.6392 88.9273 45.1521C88.9273 44.6651 88.999 44.2455 89.1425 43.8933C89.2904 43.541 89.4947 43.2692 89.7556 43.0779C90.0209 42.8866 90.3253 42.7909 90.6688 42.7909C91.0167 42.7909 91.3211 42.8866 91.582 43.0779C91.8429 43.2692 92.0451 43.541 92.1886 43.8933C92.3364 44.2455 92.4104 44.6651 92.4104 45.1521C92.4104 45.6392 92.3364 46.0588 92.1886 46.411C92.0451 46.7632 91.8429 47.035 91.582 47.2263C91.3211 47.4177 91.0167 47.5133 90.6688 47.5133ZM89.4882 45.1521C89.4882 45.4478 89.5187 45.7152 89.5795 45.9544C89.6448 46.1892 89.7339 46.3871 89.847 46.548L91.1124 43.4106C90.9776 43.3367 90.8297 43.2997 90.6688 43.2997C90.4383 43.2997 90.234 43.3758 90.0557 43.528C89.8774 43.6758 89.7382 43.8889 89.6382 44.1672C89.5382 44.4412 89.4882 44.7695 89.4882 45.1521ZM90.6688 47.0111C90.8993 47.0111 91.1037 46.9372 91.2819 46.7893C91.4602 46.6371 91.5994 46.4219 91.6994 46.1436C91.7994 45.8653 91.8494 45.5348 91.8494 45.1521C91.8494 44.8564 91.8168 44.5912 91.7516 44.3564C91.6907 44.1172 91.6037 43.9172 91.4907 43.7563L90.2188 46.9002C90.3579 46.9741 90.5079 47.0111 90.6688 47.0111ZM89.1686 57.4351V56.9393H90.3492V53.5149L89.2338 53.7302V53.3127L90.5318 52.8692H90.8971V56.9393H92.1429V57.4351H89.1686ZM90.6688 67.5133C90.3253 67.5133 90.0209 67.4177 89.7556 67.2263C89.4947 67.035 89.2904 66.7632 89.1425 66.411C88.999 66.0588 88.9273 65.6392 88.9273 65.1521C88.9273 64.6651 88.999 64.2455 89.1425 63.8933C89.2904 63.541 89.4947 63.2692 89.7556 63.0779C90.0209 62.8866 90.3253 62.7909 90.6688 62.7909C91.0167 62.7909 91.3211 62.8866 91.582 63.0779C91.8429 63.2692 92.0451 63.541 92.1886 63.8933C92.3364 64.2455 92.4104 64.6651 92.4104 65.1521C92.4104 65.6392 92.3364 66.0588 92.1886 66.411C92.0451 66.7632 91.8429 67.035 91.582 67.2263C91.3211 67.4177 91.0167 67.5133 90.6688 67.5133ZM89.4882 65.1521C89.4882 65.4478 89.5187 65.7152 89.5795 65.9544C89.6448 66.1892 89.7339 66.3871 89.847 66.548L91.1124 63.4106C90.9776 63.3367 90.8297 63.2997 90.6688 63.2997C90.4383 63.2997 90.234 63.3758 90.0557 63.528C89.8774 63.6758 89.7382 63.8889 89.6382 64.1672C89.5382 64.4412 89.4882 64.7695 89.4882 65.1521ZM90.6688 67.0111C90.8993 67.0111 91.1037 66.9372 91.2819 66.7893C91.4602 66.6371 91.5994 66.4219 91.6994 66.1436C91.7994 65.8653 91.8494 65.5348 91.8494 65.1521C91.8494 64.8564 91.8168 64.5912 91.7516 64.3564C91.6907 64.1172 91.6037 63.9172 91.4907 63.7563L90.2188 66.9002C90.3579 66.9741 90.5079 67.0111 90.6688 67.0111ZM89.1686 77.4351V76.9393H90.3492V73.5149L89.2338 73.7302V73.3127L90.5318 72.8692H90.8971V76.9393H92.1429V77.4351H89.1686ZM90.6688 87.5133C90.3253 87.5133 90.0209 87.4177 89.7556 87.2263C89.4947 87.035 89.2904 86.7632 89.1425 86.411C88.999 86.0588 88.9273 85.6392 88.9273 85.1521C88.9273 84.6651 88.999 84.2455 89.1425 83.8933C89.2904 83.541 89.4947 83.2692 89.7556 83.0779C90.0209 82.8866 90.3253 82.7909 90.6688 82.7909C91.0167 82.7909 91.3211 82.8866 91.582 83.0779C91.8429 83.2692 92.0451 83.541 92.1886 83.8933C92.3364 84.2455 92.4104 84.6651 92.4104 85.1521C92.4104 85.6392 92.3364 86.0588 92.1886 86.411C92.0451 86.7632 91.8429 87.035 91.582 87.2263C91.3211 87.4177 91.0167 87.5133 90.6688 87.5133ZM89.4882 85.1521C89.4882 85.4478 89.5187 85.7152 89.5795 85.9544C89.6448 86.1892 89.7339 86.3871 89.847 86.548L91.1124 83.4106C90.9776 83.3367 90.8297 83.2997 90.6688 83.2997C90.4383 83.2997 90.234 83.3758 90.0557 83.528C89.8774 83.6758 89.7382 83.8889 89.6382 84.1672C89.5382 84.4412 89.4882 84.7695 89.4882 85.1521ZM90.6688 87.0111C90.8993 87.0111 91.1037 86.9372 91.2819 86.7893C91.4602 86.6371 91.5994 86.4219 91.6994 86.1436C91.7994 85.8653 91.8494 85.5348 91.8494 85.1521C91.8494 84.8564 91.8168 84.5912 91.7516 84.3564C91.6907 84.1172 91.6037 83.9172 91.4907 83.7563L90.2188 86.9002C90.3579 86.9741 90.5079 87.0111 90.6688 87.0111ZM89.1686 97.4351V96.9393H90.3492V93.5149L89.2338 93.7302V93.3127L90.5318 92.8692H90.8971V96.9393H92.1429V97.4351H89.1686Z" fill="#054F77"/>
<path d="M89.7556 26.2263L89.5949 26.4455L89.5967 26.4468L89.7556 26.2263ZM89.1425 25.411L88.8908 25.5135L88.8919 25.5162L89.1425 25.411ZM89.1425 22.8933L88.8919 22.7881L88.8908 22.7907L89.1425 22.8933ZM89.7556 22.0779L89.5966 21.8575L89.5949 21.8588L89.7556 22.0779ZM91.582 22.0779L91.7427 21.8588L91.7427 21.8588L91.582 22.0779ZM92.1886 22.8933L91.9369 22.9958L91.938 22.9984L92.1886 22.8933ZM92.1886 25.411L91.938 25.3058L91.9369 25.3085L92.1886 25.411ZM91.582 26.2263L91.7427 26.4455L91.582 26.2263ZM89.5795 24.9544L89.3161 25.0215L89.3177 25.0272L89.5795 24.9544ZM89.847 25.548L89.6246 25.7042L89.912 26.1133L90.099 25.6496L89.847 25.548ZM91.1124 22.4106L91.3644 22.5122L91.4547 22.2884L91.243 22.1723L91.1124 22.4106ZM90.0557 22.528L90.2292 22.7372L90.2321 22.7347L90.0557 22.528ZM89.6382 23.1672L89.8935 23.2604L89.894 23.2591L89.6382 23.1672ZM91.2819 25.7893L91.4554 25.9985L91.4584 25.996L91.2819 25.7893ZM91.7516 23.3564L91.4881 23.4234L91.4897 23.4291L91.7516 23.3564ZM91.4907 22.7563L91.713 22.6L91.426 22.1915L91.2387 22.6543L91.4907 22.7563ZM90.2188 25.9002L89.9668 25.7983L89.875 26.0253L90.0912 26.1402L90.2188 25.9002ZM90.6688 26.2416C90.3793 26.2416 90.1312 26.1621 89.9146 26.0059L89.5967 26.4468C89.9106 26.6732 90.2713 26.7851 90.6688 26.7851V26.2416ZM89.9164 26.0072C89.7019 25.8499 89.5254 25.6209 89.3931 25.3058L88.8919 25.5162C89.0554 25.9056 89.2876 26.2201 89.5949 26.4455L89.9164 26.0072ZM89.3942 25.3085C89.2671 24.9965 89.199 24.6134 89.199 24.1521H88.6555C88.6555 24.6649 88.7309 25.121 88.8908 25.5135L89.3942 25.3085ZM89.199 24.1521C89.199 23.6908 89.2671 23.3077 89.3942 22.9958L88.8908 22.7907C88.7309 23.1832 88.6555 23.6394 88.6555 24.1521H89.199ZM89.3931 22.9984C89.5254 22.6834 89.7019 22.4544 89.9164 22.2971L89.5949 21.8588C89.2876 22.0841 89.0554 22.3987 88.8919 22.7881L89.3931 22.9984ZM89.9146 22.2983C90.1312 22.1421 90.3793 22.0627 90.6688 22.0627V21.5191C90.2713 21.5191 89.9106 21.631 89.5967 21.8575L89.9146 22.2983ZM90.6688 22.0627C90.9635 22.0627 91.2106 22.1426 91.4213 22.2971L91.7427 21.8588C91.4316 21.6306 91.0699 21.5191 90.6688 21.5191V22.0627ZM91.4213 22.2971C91.635 22.4538 91.809 22.6818 91.9369 22.9958L92.4403 22.7907C92.2812 22.4002 92.0508 22.0847 91.7427 21.8588L91.4213 22.2971ZM91.938 22.9984C92.0686 23.3096 92.1386 23.6917 92.1386 24.1521H92.6821C92.6821 23.6385 92.6043 23.1814 92.4392 22.7881L91.938 22.9984ZM92.1386 24.1521C92.1386 24.6126 92.0686 24.9947 91.938 25.3058L92.4392 25.5162C92.6043 25.1229 92.6821 24.6657 92.6821 24.1521H92.1386ZM91.9369 25.3085C91.809 25.6224 91.635 25.8504 91.4213 26.0072L91.7427 26.4455C92.0508 26.2196 92.2812 25.904 92.4403 25.5135L91.9369 25.3085ZM91.4213 26.0072C91.2106 26.1617 90.9635 26.2416 90.6688 26.2416V26.7851C91.0699 26.7851 91.4316 26.6736 91.7427 26.4455L91.4213 26.0072ZM89.2164 24.1521C89.2164 24.4661 89.2487 24.7566 89.3162 25.0215L89.8429 24.8874C89.7886 24.6739 89.76 24.4295 89.76 24.1521H89.2164ZM89.3177 25.0272C89.3893 25.285 89.49 25.5127 89.6246 25.7042L90.0693 25.3917C89.9778 25.2615 89.9002 25.0935 89.8414 24.8817L89.3177 25.0272ZM90.099 25.6496L91.3644 22.5122L90.8603 22.3089L89.5949 25.4463L90.099 25.6496ZM91.243 22.1723C91.0663 22.0754 90.8732 22.0279 90.6688 22.0279V22.5715C90.7862 22.5715 90.8888 22.5979 90.9817 22.6489L91.243 22.1723ZM90.6688 22.0279C90.3725 22.0279 90.1058 22.1279 89.8792 22.3213L90.2321 22.7347C90.3621 22.6237 90.5042 22.5715 90.6688 22.5715V22.0279ZM89.8822 22.3188C89.6575 22.5051 89.4945 22.7637 89.3825 23.0753L89.894 23.2591C89.982 23.0141 90.0973 22.8465 90.2292 22.7372L89.8822 22.3188ZM89.3829 23.074C89.2692 23.3855 89.2164 23.747 89.2164 24.1521H89.76C89.76 23.7919 89.8072 23.4968 89.8935 23.2604L89.3829 23.074ZM90.6688 26.2829C90.963 26.2829 91.2286 26.1866 91.4554 25.9985L91.1085 25.5801C90.9787 25.6877 90.8356 25.7393 90.6688 25.7393V26.2829ZM91.4584 25.996C91.6809 25.8061 91.8433 25.5468 91.9552 25.2355L91.4436 25.0517C91.3555 25.2969 91.2396 25.4682 91.1055 25.5826L91.4584 25.996ZM91.9552 25.2355C92.0684 24.9205 92.1212 24.5574 92.1212 24.1521H91.5776C91.5776 24.5122 91.5305 24.8101 91.4436 25.0517L91.9552 25.2355ZM92.1212 24.1521C92.1212 23.8369 92.0865 23.5465 92.0134 23.2836L91.4897 23.4291C91.5471 23.6358 91.5776 23.876 91.5776 24.1521H92.1212ZM92.015 23.2893C91.9479 23.026 91.8492 22.7938 91.713 22.6L91.2683 22.9125C91.3582 23.0405 91.4335 23.2084 91.4882 23.4234L92.015 23.2893ZM91.2387 22.6543L89.9668 25.7983L90.4707 26.0021L91.7426 22.8582L91.2387 22.6543ZM90.0912 26.1402C90.2705 26.2354 90.4644 26.2829 90.6688 26.2829V25.7393C90.5514 25.7393 90.4453 25.7128 90.3463 25.6602L90.0912 26.1402ZM89.1686 36.4351H88.8968V36.7068H89.1686V36.4351ZM89.1686 35.9393V35.6676H88.8968V35.9393H89.1686ZM90.3492 35.9393V36.2111H90.621V35.9393H90.3492ZM90.3492 32.5149H90.621V32.1857L90.2977 32.2481L90.3492 32.5149ZM89.2338 32.7302H88.9621V33.0594L89.2853 32.997L89.2338 32.7302ZM89.2338 32.3127L89.1459 32.0556L88.9621 32.1184V32.3127H89.2338ZM90.5318 31.8692V31.5974H90.4867L90.444 31.612L90.5318 31.8692ZM90.8971 31.8692H91.1689V31.5974H90.8971V31.8692ZM90.8971 35.9393H90.6253V36.2111H90.8971V35.9393ZM92.1429 35.9393H92.4147V35.6676H92.1429V35.9393ZM92.1429 36.4351V36.7068H92.4147V36.4351H92.1429ZM89.4404 36.4351V35.9393H88.8968V36.4351H89.4404ZM89.1686 36.2111H90.3492V35.6676H89.1686V36.2111ZM90.621 35.9393V32.5149H90.0774V35.9393H90.621ZM90.2977 32.2481L89.1823 32.4633L89.2853 32.997L90.4007 32.7818L90.2977 32.2481ZM89.5056 32.7302V32.3127H88.9621V32.7302H89.5056ZM89.3217 32.5699L90.6197 32.1264L90.444 31.612L89.1459 32.0556L89.3217 32.5699ZM90.5318 32.141H90.8971V31.5974H90.5318V32.141ZM90.6253 31.8692V35.9393H91.1689V31.8692H90.6253ZM90.8971 36.2111H92.1429V35.6676H90.8971V36.2111ZM91.8712 35.9393V36.4351H92.4147V35.9393H91.8712ZM92.1429 36.1633H89.1686V36.7068H92.1429V36.1633ZM89.7556 47.2263L89.5949 47.4455L89.5967 47.4468L89.7556 47.2263ZM89.1425 46.411L88.8908 46.5135L88.8919 46.5162L89.1425 46.411ZM89.1425 43.8933L88.8919 43.7881L88.8908 43.7907L89.1425 43.8933ZM89.7556 43.0779L89.5966 42.8575L89.5949 42.8588L89.7556 43.0779ZM91.582 43.0779L91.7427 42.8588H91.7427L91.582 43.0779ZM92.1886 43.8933L91.9369 43.9958L91.938 43.9984L92.1886 43.8933ZM92.1886 46.411L91.938 46.3058L91.9369 46.3085L92.1886 46.411ZM91.582 47.2263L91.7427 47.4455L91.582 47.2263ZM89.5795 45.9544L89.3161 46.0215L89.3177 46.0272L89.5795 45.9544ZM89.847 46.548L89.6246 46.7042L89.912 47.1133L90.099 46.6496L89.847 46.548ZM91.1124 43.4106L91.3644 43.5122L91.4547 43.2884L91.243 43.1723L91.1124 43.4106ZM90.0557 43.528L90.2292 43.7372L90.2321 43.7347L90.0557 43.528ZM89.6382 44.1672L89.8935 44.2604L89.894 44.2591L89.6382 44.1672ZM91.2819 46.7893L91.4554 46.9985L91.4584 46.996L91.2819 46.7893ZM91.7516 44.3564L91.4881 44.4234L91.4897 44.4291L91.7516 44.3564ZM91.4907 43.7563L91.713 43.6L91.426 43.1915L91.2387 43.6543L91.4907 43.7563ZM90.2188 46.9002L89.9668 46.7983L89.875 47.0253L90.0912 47.1402L90.2188 46.9002ZM90.6688 47.2416C90.3793 47.2416 90.1312 47.1621 89.9146 47.0059L89.5967 47.4468C89.9106 47.6732 90.2713 47.7851 90.6688 47.7851V47.2416ZM89.9164 47.0072C89.7019 46.8499 89.5254 46.6209 89.3931 46.3058L88.8919 46.5162C89.0554 46.9056 89.2876 47.2201 89.5949 47.4455L89.9164 47.0072ZM89.3942 46.3085C89.2671 45.9965 89.199 45.6134 89.199 45.1521H88.6555C88.6555 45.6649 88.7309 46.121 88.8908 46.5135L89.3942 46.3085ZM89.199 45.1521C89.199 44.6908 89.2671 44.3077 89.3942 43.9958L88.8908 43.7907C88.7309 44.1832 88.6555 44.6394 88.6555 45.1521H89.199ZM89.3931 43.9984C89.5254 43.6834 89.7019 43.4544 89.9164 43.2971L89.5949 42.8588C89.2876 43.0841 89.0554 43.3987 88.8919 43.7881L89.3931 43.9984ZM89.9146 43.2983C90.1312 43.1421 90.3793 43.0627 90.6688 43.0627V42.5191C90.2713 42.5191 89.9106 42.631 89.5967 42.8575L89.9146 43.2983ZM90.6688 43.0627C90.9635 43.0627 91.2106 43.1426 91.4213 43.2971L91.7427 42.8588C91.4316 42.6306 91.0699 42.5191 90.6688 42.5191V43.0627ZM91.4213 43.2971C91.635 43.4538 91.809 43.6818 91.9369 43.9958L92.4403 43.7907C92.2812 43.4002 92.0508 43.0847 91.7427 42.8588L91.4213 43.2971ZM91.938 43.9984C92.0686 44.3096 92.1386 44.6917 92.1386 45.1521H92.6821C92.6821 44.6385 92.6043 44.1814 92.4392 43.7881L91.938 43.9984ZM92.1386 45.1521C92.1386 45.6126 92.0686 45.9947 91.938 46.3058L92.4392 46.5162C92.6043 46.1229 92.6821 45.6657 92.6821 45.1521H92.1386ZM91.9369 46.3085C91.809 46.6224 91.635 46.8504 91.4213 47.0072L91.7427 47.4455C92.0508 47.2196 92.2812 46.904 92.4403 46.5135L91.9369 46.3085ZM91.4213 47.0072C91.2106 47.1617 90.9635 47.2416 90.6688 47.2416V47.7851C91.0699 47.7851 91.4316 47.6736 91.7427 47.4455L91.4213 47.0072ZM89.2164 45.1521C89.2164 45.4661 89.2487 45.7566 89.3162 46.0215L89.8429 45.8874C89.7886 45.6739 89.76 45.4295 89.76 45.1521H89.2164ZM89.3177 46.0272C89.3893 46.285 89.49 46.5127 89.6246 46.7042L90.0693 46.3917C89.9778 46.2615 89.9002 46.0935 89.8414 45.8817L89.3177 46.0272ZM90.099 46.6496L91.3644 43.5122L90.8603 43.3089L89.5949 46.4463L90.099 46.6496ZM91.243 43.1723C91.0663 43.0754 90.8732 43.0279 90.6688 43.0279V43.5715C90.7862 43.5715 90.8888 43.5979 90.9817 43.6489L91.243 43.1723ZM90.6688 43.0279C90.3725 43.0279 90.1058 43.1279 89.8792 43.3213L90.2321 43.7347C90.3621 43.6237 90.5042 43.5715 90.6688 43.5715V43.0279ZM89.8822 43.3188C89.6575 43.5051 89.4945 43.7637 89.3825 44.0753L89.894 44.2591C89.982 44.0141 90.0973 43.8465 90.2292 43.7372L89.8822 43.3188ZM89.3829 44.074C89.2692 44.3855 89.2164 44.747 89.2164 45.1521H89.76C89.76 44.7919 89.8072 44.4968 89.8935 44.2604L89.3829 44.074ZM90.6688 47.2829C90.963 47.2829 91.2286 47.1866 91.4554 46.9985L91.1085 46.5801C90.9787 46.6877 90.8356 46.7393 90.6688 46.7393V47.2829ZM91.4584 46.996C91.6809 46.8061 91.8433 46.5468 91.9552 46.2355L91.4436 46.0517C91.3555 46.2969 91.2396 46.4682 91.1055 46.5826L91.4584 46.996ZM91.9552 46.2355C92.0684 45.9205 92.1212 45.5574 92.1212 45.1521H91.5776C91.5776 45.5122 91.5305 45.8101 91.4436 46.0517L91.9552 46.2355ZM92.1212 45.1521C92.1212 44.8369 92.0865 44.5465 92.0134 44.2836L91.4897 44.4291C91.5471 44.6358 91.5776 44.876 91.5776 45.1521H92.1212ZM92.015 44.2893C91.9479 44.026 91.8492 43.7938 91.713 43.6L91.2683 43.9125C91.3582 44.0405 91.4335 44.2084 91.4882 44.4234L92.015 44.2893ZM91.2387 43.6543L89.9668 46.7983L90.4707 47.0021L91.7426 43.8582L91.2387 43.6543ZM90.0912 47.1402C90.2705 47.2354 90.4644 47.2829 90.6688 47.2829V46.7393C90.5514 46.7393 90.4453 46.7128 90.3463 46.6602L90.0912 47.1402ZM89.1686 57.4351H88.8968V57.7068H89.1686V57.4351ZM89.1686 56.9393V56.6676H88.8968V56.9393H89.1686ZM90.3492 56.9393V57.2111H90.621V56.9393H90.3492ZM90.3492 53.5149H90.621V53.1857L90.2977 53.2481L90.3492 53.5149ZM89.2338 53.7302H88.9621V54.0594L89.2853 53.997L89.2338 53.7302ZM89.2338 53.3127L89.1459 53.0556L88.9621 53.1184V53.3127H89.2338ZM90.5318 52.8692V52.5974H90.4867L90.444 52.612L90.5318 52.8692ZM90.8971 52.8692H91.1689V52.5974H90.8971V52.8692ZM90.8971 56.9393H90.6253V57.2111H90.8971V56.9393ZM92.1429 56.9393H92.4147V56.6676H92.1429V56.9393ZM92.1429 57.4351V57.7068H92.4147V57.4351H92.1429ZM89.4404 57.4351V56.9393H88.8968V57.4351H89.4404ZM89.1686 57.2111H90.3492V56.6676H89.1686V57.2111ZM90.621 56.9393V53.5149H90.0774V56.9393H90.621ZM90.2977 53.2481L89.1823 53.4633L89.2853 53.997L90.4007 53.7818L90.2977 53.2481ZM89.5056 53.7302V53.3127H88.9621V53.7302H89.5056ZM89.3217 53.5699L90.6197 53.1264L90.444 52.612L89.1459 53.0556L89.3217 53.5699ZM90.5318 53.141H90.8971V52.5974H90.5318V53.141ZM90.6253 52.8692V56.9393H91.1689V52.8692H90.6253ZM90.8971 57.2111H92.1429V56.6676H90.8971V57.2111ZM91.8712 56.9393V57.4351H92.4147V56.9393H91.8712ZM92.1429 57.1633H89.1686V57.7068H92.1429V57.1633ZM89.7556 67.2263L89.5949 67.4455L89.5967 67.4468L89.7556 67.2263ZM89.1425 66.411L88.8908 66.5135L88.8919 66.5162L89.1425 66.411ZM89.1425 63.8932L88.8919 63.7881L88.8908 63.7907L89.1425 63.8932ZM89.7556 63.0779L89.5966 62.8575L89.5949 62.8588L89.7556 63.0779ZM91.582 63.0779L91.7427 62.8588H91.7427L91.582 63.0779ZM92.1886 63.8932L91.9369 63.9958L91.938 63.9984L92.1886 63.8932ZM92.1886 66.411L91.938 66.3058L91.9369 66.3085L92.1886 66.411ZM91.582 67.2263L91.7427 67.4455L91.582 67.2263ZM89.5795 65.9544L89.3161 66.0215L89.3177 66.0272L89.5795 65.9544ZM89.847 66.548L89.6246 66.7042L89.912 67.1133L90.099 66.6496L89.847 66.548ZM91.1124 63.4106L91.3644 63.5122L91.4547 63.2883L91.243 63.1723L91.1124 63.4106ZM90.0557 63.528L90.2292 63.7372L90.2321 63.7347L90.0557 63.528ZM89.6382 64.1672L89.8935 64.2604L89.894 64.2591L89.6382 64.1672ZM91.2819 66.7893L91.4554 66.9985L91.4584 66.996L91.2819 66.7893ZM91.7516 64.3564L91.4881 64.4234L91.4897 64.4291L91.7516 64.3564ZM91.4907 63.7563L91.713 63.6L91.426 63.1915L91.2387 63.6544L91.4907 63.7563ZM90.2188 66.9002L89.9668 66.7983L89.875 67.0253L90.0912 67.1402L90.2188 66.9002ZM90.6688 67.2416C90.3793 67.2416 90.1312 67.1621 89.9146 67.0059L89.5967 67.4468C89.9106 67.6732 90.2713 67.7851 90.6688 67.7851V67.2416ZM89.9164 67.0072C89.7019 66.8499 89.5254 66.6209 89.3931 66.3058L88.8919 66.5162C89.0554 66.9056 89.2876 67.2201 89.5949 67.4455L89.9164 67.0072ZM89.3942 66.3085C89.2671 65.9965 89.199 65.6134 89.199 65.1521H88.6555C88.6555 65.6649 88.7309 66.121 88.8908 66.5135L89.3942 66.3085ZM89.199 65.1521C89.199 64.6908 89.2671 64.3077 89.3942 63.9958L88.8908 63.7907C88.7309 64.1832 88.6555 64.6394 88.6555 65.1521H89.199ZM89.3931 63.9984C89.5254 63.6834 89.7019 63.4544 89.9164 63.2971L89.5949 62.8588C89.2876 63.0841 89.0554 63.3987 88.8919 63.7881L89.3931 63.9984ZM89.9146 63.2983C90.1312 63.1421 90.3793 63.0627 90.6688 63.0627V62.5191C90.2713 62.5191 89.9106 62.631 89.5967 62.8575L89.9146 63.2983ZM90.6688 63.0627C90.9635 63.0627 91.2106 63.1426 91.4213 63.2971L91.7427 62.8588C91.4316 62.6306 91.0699 62.5191 90.6688 62.5191V63.0627ZM91.4213 63.2971C91.635 63.4538 91.809 63.6818 91.9369 63.9958L92.4403 63.7907C92.2812 63.4002 92.0508 63.0847 91.7427 62.8588L91.4213 63.2971ZM91.938 63.9984C92.0686 64.3096 92.1386 64.6917 92.1386 65.1521H92.6821C92.6821 64.6385 92.6043 64.1814 92.4392 63.7881L91.938 63.9984ZM92.1386 65.1521C92.1386 65.6126 92.0686 65.9947 91.938 66.3058L92.4392 66.5162C92.6043 66.1229 92.6821 65.6657 92.6821 65.1521H92.1386ZM91.9369 66.3085C91.809 66.6224 91.635 66.8504 91.4213 67.0072L91.7427 67.4455C92.0508 67.2196 92.2812 66.904 92.4403 66.5135L91.9369 66.3085ZM91.4213 67.0072C91.2106 67.1617 90.9635 67.2416 90.6688 67.2416V67.7851C91.0699 67.7851 91.4316 67.6736 91.7427 67.4455L91.4213 67.0072ZM89.2164 65.1521C89.2164 65.4661 89.2487 65.7566 89.3162 66.0215L89.8429 65.8874C89.7886 65.6739 89.76 65.4295 89.76 65.1521H89.2164ZM89.3177 66.0272C89.3893 66.285 89.49 66.5127 89.6246 66.7042L90.0693 66.3917C89.9778 66.2615 89.9002 66.0935 89.8414 65.8817L89.3177 66.0272ZM90.099 66.6496L91.3644 63.5122L90.8603 63.3089L89.5949 66.4463L90.099 66.6496ZM91.243 63.1723C91.0663 63.0754 90.8732 63.0279 90.6688 63.0279V63.5715C90.7862 63.5715 90.8888 63.5979 90.9817 63.6489L91.243 63.1723ZM90.6688 63.0279C90.3725 63.0279 90.1058 63.1279 89.8792 63.3213L90.2321 63.7347C90.3621 63.6237 90.5042 63.5715 90.6688 63.5715V63.0279ZM89.8822 63.3188C89.6575 63.5051 89.4945 63.7637 89.3825 64.0753L89.894 64.2591C89.982 64.0141 90.0973 63.8465 90.2292 63.7372L89.8822 63.3188ZM89.3829 64.074C89.2692 64.3855 89.2164 64.747 89.2164 65.1521H89.76C89.76 64.7919 89.8072 64.4968 89.8935 64.2604L89.3829 64.074ZM90.6688 67.2829C90.963 67.2829 91.2286 67.1866 91.4554 66.9985L91.1085 66.5801C90.9787 66.6877 90.8356 66.7393 90.6688 66.7393V67.2829ZM91.4584 66.996C91.6809 66.8061 91.8433 66.5468 91.9552 66.2355L91.4436 66.0517C91.3555 66.2969 91.2396 66.4682 91.1055 66.5826L91.4584 66.996ZM91.9552 66.2355C92.0684 65.9205 92.1212 65.5574 92.1212 65.1521H91.5776C91.5776 65.5122 91.5305 65.8101 91.4436 66.0517L91.9552 66.2355ZM92.1212 65.1521C92.1212 64.8369 92.0865 64.5465 92.0134 64.2836L91.4897 64.4291C91.5471 64.6358 91.5776 64.876 91.5776 65.1521H92.1212ZM92.015 64.2893C91.9479 64.026 91.8492 63.7938 91.713 63.6L91.2683 63.9125C91.3582 64.0405 91.4335 64.2084 91.4882 64.4234L92.015 64.2893ZM91.2387 63.6544L89.9668 66.7983L90.4707 67.0021L91.7426 63.8582L91.2387 63.6544ZM90.0912 67.1402C90.2705 67.2354 90.4644 67.2829 90.6688 67.2829V66.7393C90.5514 66.7393 90.4453 66.7128 90.3463 66.6602L90.0912 67.1402ZM89.1686 77.4351H88.8968V77.7068H89.1686V77.4351ZM89.1686 76.9393V76.6676H88.8968V76.9393H89.1686ZM90.3492 76.9393V77.2111H90.621V76.9393H90.3492ZM90.3492 73.5149H90.621V73.1857L90.2977 73.2481L90.3492 73.5149ZM89.2338 73.7302H88.9621V74.0594L89.2853 73.997L89.2338 73.7302ZM89.2338 73.3127L89.1459 73.0556L88.9621 73.1184V73.3127H89.2338ZM90.5318 72.8692V72.5974H90.4867L90.444 72.612L90.5318 72.8692ZM90.8971 72.8692H91.1689V72.5974H90.8971V72.8692ZM90.8971 76.9393H90.6253V77.2111H90.8971V76.9393ZM92.1429 76.9393H92.4147V76.6676H92.1429V76.9393ZM92.1429 77.4351V77.7068H92.4147V77.4351H92.1429ZM89.4404 77.4351V76.9393H88.8968V77.4351H89.4404ZM89.1686 77.2111H90.3492V76.6676H89.1686V77.2111ZM90.621 76.9393V73.5149H90.0774V76.9393H90.621ZM90.2977 73.2481L89.1823 73.4633L89.2853 73.997L90.4007 73.7818L90.2977 73.2481ZM89.5056 73.7302V73.3127H88.9621V73.7302H89.5056ZM89.3217 73.5699L90.6197 73.1264L90.444 72.612L89.1459 73.0556L89.3217 73.5699ZM90.5318 73.141H90.8971V72.5974H90.5318V73.141ZM90.6253 72.8692V76.9393H91.1689V72.8692H90.6253ZM90.8971 77.2111H92.1429V76.6676H90.8971V77.2111ZM91.8712 76.9393V77.4351H92.4147V76.9393H91.8712ZM92.1429 77.1633H89.1686V77.7068H92.1429V77.1633ZM89.7556 87.2263L89.5949 87.4455L89.5967 87.4468L89.7556 87.2263ZM89.1425 86.411L88.8908 86.5135L88.8919 86.5162L89.1425 86.411ZM89.1425 83.8932L88.8919 83.7881L88.8908 83.7907L89.1425 83.8932ZM89.7556 83.0779L89.5966 82.8575L89.5949 82.8588L89.7556 83.0779ZM91.582 83.0779L91.7427 82.8588H91.7427L91.582 83.0779ZM92.1886 83.8932L91.9369 83.9958L91.938 83.9984L92.1886 83.8932ZM92.1886 86.411L91.938 86.3058L91.9369 86.3085L92.1886 86.411ZM91.582 87.2263L91.7427 87.4455L91.582 87.2263ZM89.5795 85.9544L89.3161 86.0215L89.3177 86.0272L89.5795 85.9544ZM89.847 86.548L89.6246 86.7042L89.912 87.1133L90.099 86.6496L89.847 86.548ZM91.1124 83.4106L91.3644 83.5122L91.4547 83.2883L91.243 83.1723L91.1124 83.4106ZM90.0557 83.528L90.2292 83.7372L90.2321 83.7347L90.0557 83.528ZM89.6382 84.1672L89.8935 84.2604L89.894 84.2591L89.6382 84.1672ZM91.2819 86.7893L91.4554 86.9985L91.4584 86.996L91.2819 86.7893ZM91.7516 84.3564L91.4881 84.4234L91.4897 84.4291L91.7516 84.3564ZM91.4907 83.7563L91.713 83.6L91.426 83.1915L91.2387 83.6544L91.4907 83.7563ZM90.2188 86.9002L89.9668 86.7983L89.875 87.0253L90.0912 87.1402L90.2188 86.9002ZM90.6688 87.2416C90.3793 87.2416 90.1312 87.1621 89.9146 87.0059L89.5967 87.4468C89.9106 87.6732 90.2713 87.7851 90.6688 87.7851V87.2416ZM89.9164 87.0072C89.7019 86.8499 89.5254 86.6209 89.3931 86.3058L88.8919 86.5162C89.0554 86.9056 89.2876 87.2201 89.5949 87.4455L89.9164 87.0072ZM89.3942 86.3085C89.2671 85.9965 89.199 85.6134 89.199 85.1521H88.6555C88.6555 85.6649 88.7309 86.121 88.8908 86.5135L89.3942 86.3085ZM89.199 85.1521C89.199 84.6908 89.2671 84.3077 89.3942 83.9958L88.8908 83.7907C88.7309 84.1832 88.6555 84.6394 88.6555 85.1521H89.199ZM89.3931 83.9984C89.5254 83.6834 89.7019 83.4544 89.9164 83.2971L89.5949 82.8588C89.2876 83.0841 89.0554 83.3987 88.8919 83.7881L89.3931 83.9984ZM89.9146 83.2983C90.1312 83.1421 90.3793 83.0627 90.6688 83.0627V82.5191C90.2713 82.5191 89.9106 82.631 89.5967 82.8575L89.9146 83.2983ZM90.6688 83.0627C90.9635 83.0627 91.2106 83.1426 91.4213 83.2971L91.7427 82.8588C91.4316 82.6306 91.0699 82.5191 90.6688 82.5191V83.0627ZM91.4213 83.2971C91.635 83.4538 91.809 83.6818 91.9369 83.9958L92.4403 83.7907C92.2812 83.4002 92.0508 83.0847 91.7427 82.8588L91.4213 83.2971ZM91.938 83.9984C92.0686 84.3096 92.1386 84.6917 92.1386 85.1521H92.6821C92.6821 84.6385 92.6043 84.1814 92.4392 83.7881L91.938 83.9984ZM92.1386 85.1521C92.1386 85.6126 92.0686 85.9947 91.938 86.3058L92.4392 86.5162C92.6043 86.1229 92.6821 85.6657 92.6821 85.1521H92.1386ZM91.9369 86.3085C91.809 86.6224 91.635 86.8504 91.4213 87.0072L91.7427 87.4455C92.0508 87.2196 92.2812 86.904 92.4403 86.5135L91.9369 86.3085ZM91.4213 87.0072C91.2106 87.1617 90.9635 87.2416 90.6688 87.2416V87.7851C91.0699 87.7851 91.4316 87.6736 91.7427 87.4455L91.4213 87.0072ZM89.2164 85.1521C89.2164 85.4661 89.2487 85.7566 89.3162 86.0215L89.8429 85.8874C89.7886 85.6739 89.76 85.4295 89.76 85.1521H89.2164ZM89.3177 86.0272C89.3893 86.285 89.49 86.5127 89.6246 86.7042L90.0693 86.3917C89.9778 86.2615 89.9002 86.0935 89.8414 85.8817L89.3177 86.0272ZM90.099 86.6496L91.3644 83.5122L90.8603 83.3089L89.5949 86.4463L90.099 86.6496ZM91.243 83.1723C91.0663 83.0754 90.8732 83.0279 90.6688 83.0279V83.5715C90.7862 83.5715 90.8888 83.5979 90.9817 83.6489L91.243 83.1723ZM90.6688 83.0279C90.3725 83.0279 90.1058 83.1279 89.8792 83.3213L90.2321 83.7347C90.3621 83.6237 90.5042 83.5715 90.6688 83.5715V83.0279ZM89.8822 83.3188C89.6575 83.5051 89.4945 83.7637 89.3825 84.0753L89.894 84.2591C89.982 84.0141 90.0973 83.8465 90.2292 83.7372L89.8822 83.3188ZM89.3829 84.074C89.2692 84.3855 89.2164 84.747 89.2164 85.1521H89.76C89.76 84.7919 89.8072 84.4968 89.8935 84.2604L89.3829 84.074ZM90.6688 87.2829C90.963 87.2829 91.2286 87.1866 91.4554 86.9985L91.1085 86.5801C90.9787 86.6877 90.8356 86.7393 90.6688 86.7393V87.2829ZM91.4584 86.996C91.6809 86.8061 91.8433 86.5468 91.9552 86.2355L91.4436 86.0517C91.3555 86.2969 91.2396 86.4682 91.1055 86.5826L91.4584 86.996ZM91.9552 86.2355C92.0684 85.9205 92.1212 85.5574 92.1212 85.1521H91.5776C91.5776 85.5122 91.5305 85.8101 91.4436 86.0517L91.9552 86.2355ZM92.1212 85.1521C92.1212 84.8369 92.0865 84.5465 92.0134 84.2836L91.4897 84.4291C91.5471 84.6358 91.5776 84.876 91.5776 85.1521H92.1212ZM92.015 84.2893C91.9479 84.026 91.8492 83.7938 91.713 83.6L91.2683 83.9125C91.3582 84.0405 91.4335 84.2084 91.4882 84.4234L92.015 84.2893ZM91.2387 83.6544L89.9668 86.7983L90.4707 87.0021L91.7426 83.8582L91.2387 83.6544ZM90.0912 87.1402C90.2705 87.2355 90.4644 87.2829 90.6688 87.2829V86.7393C90.5514 86.7393 90.4453 86.7128 90.3463 86.6602L90.0912 87.1402ZM89.1686 97.4351H88.8968V97.7068H89.1686V97.4351ZM89.1686 96.9393V96.6676H88.8968V96.9393H89.1686ZM90.3492 96.9393V97.2111H90.621V96.9393H90.3492ZM90.3492 93.5149H90.621V93.1857L90.2977 93.2481L90.3492 93.5149ZM89.2338 93.7302H88.9621V94.0594L89.2853 93.997L89.2338 93.7302ZM89.2338 93.3127L89.1459 93.0556L88.9621 93.1184V93.3127H89.2338ZM90.5318 92.8692V92.5974H90.4867L90.444 92.612L90.5318 92.8692ZM90.8971 92.8692H91.1689V92.5974H90.8971V92.8692ZM90.8971 96.9393H90.6253V97.2111H90.8971V96.9393ZM92.1429 96.9393H92.4147V96.6676H92.1429V96.9393ZM92.1429 97.4351V97.7068H92.4147V97.4351H92.1429ZM89.4404 97.4351V96.9393H88.8968V97.4351H89.4404ZM89.1686 97.2111H90.3492V96.6676H89.1686V97.2111ZM90.621 96.9393V93.5149H90.0774V96.9393H90.621ZM90.2977 93.2481L89.1823 93.4633L89.2853 93.997L90.4007 93.7818L90.2977 93.2481ZM89.5056 93.7302V93.3127H88.9621V93.7302H89.5056ZM89.3217 93.5699L90.6197 93.1264L90.444 92.612L89.1459 93.0556L89.3217 93.5699ZM90.5318 93.141H90.8971V92.5974H90.5318V93.141ZM90.6253 92.8692V96.9393H91.1689V92.8692H90.6253ZM90.8971 97.2111H92.1429V96.6676H90.8971V97.2111ZM91.8712 96.9393V97.4351H92.4147V96.9393H91.8712ZM92.1429 97.1633H89.1686V97.7068H92.1429V97.1633Z" fill="#8CFF00"/>
</g>
<g opacity="0.5" filter="url(#filter1_f_2441_5240)">
<path d="M192.762 203.056C192.419 203.056 192.114 202.961 191.849 202.769C191.588 202.578 191.384 202.306 191.236 201.954C191.092 201.602 191.021 201.182 191.021 200.695C191.021 200.208 191.092 199.788 191.236 199.436C191.384 199.084 191.588 198.812 191.849 198.621C192.114 198.43 192.419 198.334 192.762 198.334C193.11 198.334 193.414 198.43 193.675 198.621C193.936 198.812 194.138 199.084 194.282 199.436C194.43 199.788 194.504 200.208 194.504 200.695C194.504 201.182 194.43 201.602 194.282 201.954C194.138 202.306 193.936 202.578 193.675 202.769C193.414 202.961 193.11 203.056 192.762 203.056ZM191.581 200.695C191.581 200.991 191.612 201.258 191.673 201.497C191.738 201.732 191.827 201.93 191.94 202.091L193.206 198.954C193.071 198.88 192.923 198.843 192.762 198.843C192.532 198.843 192.327 198.919 192.149 199.071C191.971 199.219 191.832 199.432 191.731 199.71C191.631 199.984 191.581 200.312 191.581 200.695ZM192.762 202.554C192.993 202.554 193.197 202.48 193.375 202.332C193.553 202.18 193.693 201.965 193.793 201.687C193.893 201.408 193.943 201.078 193.943 200.695C193.943 200.399 193.91 200.134 193.845 199.899C193.784 199.66 193.697 199.46 193.584 199.299L192.312 202.443C192.451 202.517 192.601 202.554 192.762 202.554ZM191.262 212.978V212.482H192.442V209.058L191.327 209.273V208.856L192.625 208.412H192.99V212.482H194.236V212.978H191.262ZM192.762 224.056C192.419 224.056 192.114 223.961 191.849 223.769C191.588 223.578 191.384 223.306 191.236 222.954C191.092 222.602 191.021 222.182 191.021 221.695C191.021 221.208 191.092 220.788 191.236 220.436C191.384 220.084 191.588 219.812 191.849 219.621C192.114 219.43 192.419 219.334 192.762 219.334C193.11 219.334 193.414 219.43 193.675 219.621C193.936 219.812 194.138 220.084 194.282 220.436C194.43 220.788 194.504 221.208 194.504 221.695C194.504 222.182 194.43 222.602 194.282 222.954C194.138 223.306 193.936 223.578 193.675 223.769C193.414 223.961 193.11 224.056 192.762 224.056ZM191.581 221.695C191.581 221.991 191.612 222.258 191.673 222.497C191.738 222.732 191.827 222.93 191.94 223.091L193.206 219.954C193.071 219.88 192.923 219.843 192.762 219.843C192.532 219.843 192.327 219.919 192.149 220.071C191.971 220.219 191.832 220.432 191.731 220.71C191.631 220.984 191.581 221.312 191.581 221.695ZM192.762 223.554C192.993 223.554 193.197 223.48 193.375 223.332C193.553 223.18 193.693 222.965 193.793 222.687C193.893 222.408 193.943 222.078 193.943 221.695C193.943 221.399 193.91 221.134 193.845 220.899C193.784 220.66 193.697 220.46 193.584 220.299L192.312 223.443C192.451 223.517 192.601 223.554 192.762 223.554ZM191.262 233.978V233.482H192.442V230.058L191.327 230.273V229.856L192.625 229.412H192.99V233.482H194.236V233.978H191.262ZM192.762 244.056C192.419 244.056 192.114 243.961 191.849 243.769C191.588 243.578 191.384 243.306 191.236 242.954C191.092 242.602 191.021 242.182 191.021 241.695C191.021 241.208 191.092 240.788 191.236 240.436C191.384 240.084 191.588 239.812 191.849 239.621C192.114 239.43 192.419 239.334 192.762 239.334C193.11 239.334 193.414 239.43 193.675 239.621C193.936 239.812 194.138 240.084 194.282 240.436C194.43 240.788 194.504 241.208 194.504 241.695C194.504 242.182 194.43 242.602 194.282 242.954C194.138 243.306 193.936 243.578 193.675 243.769C193.414 243.961 193.11 244.056 192.762 244.056ZM191.581 241.695C191.581 241.991 191.612 242.258 191.673 242.497C191.738 242.732 191.827 242.93 191.94 243.091L193.206 239.954C193.071 239.88 192.923 239.843 192.762 239.843C192.532 239.843 192.327 239.919 192.149 240.071C191.971 240.219 191.832 240.432 191.731 240.71C191.631 240.984 191.581 241.312 191.581 241.695ZM192.762 243.554C192.993 243.554 193.197 243.48 193.375 243.332C193.553 243.18 193.693 242.965 193.793 242.687C193.893 242.408 193.943 242.078 193.943 241.695C193.943 241.399 193.91 241.134 193.845 240.899C193.784 240.66 193.697 240.46 193.584 240.299L192.312 243.443C192.451 243.517 192.601 243.554 192.762 243.554ZM191.262 253.978V253.482H192.442V250.058L191.327 250.273V249.856L192.625 249.412H192.99V253.482H194.236V253.978H191.262ZM192.762 264.056C192.419 264.056 192.114 263.961 191.849 263.769C191.588 263.578 191.384 263.306 191.236 262.954C191.092 262.602 191.021 262.182 191.021 261.695C191.021 261.208 191.092 260.788 191.236 260.436C191.384 260.084 191.588 259.812 191.849 259.621C192.114 259.43 192.419 259.334 192.762 259.334C193.11 259.334 193.414 259.43 193.675 259.621C193.936 259.812 194.138 260.084 194.282 260.436C194.43 260.788 194.504 261.208 194.504 261.695C194.504 262.182 194.43 262.602 194.282 262.954C194.138 263.306 193.936 263.578 193.675 263.769C193.414 263.961 193.11 264.056 192.762 264.056ZM191.581 261.695C191.581 261.991 191.612 262.258 191.673 262.497C191.738 262.732 191.827 262.93 191.94 263.091L193.206 259.954C193.071 259.88 192.923 259.843 192.762 259.843C192.532 259.843 192.327 259.919 192.149 260.071C191.971 260.219 191.832 260.432 191.731 260.71C191.631 260.984 191.581 261.312 191.581 261.695ZM192.762 263.554C192.993 263.554 193.197 263.48 193.375 263.332C193.553 263.18 193.693 262.965 193.793 262.687C193.893 262.408 193.943 262.078 193.943 261.695C193.943 261.399 193.91 261.134 193.845 260.899C193.784 260.66 193.697 260.46 193.584 260.299L192.312 263.443C192.451 263.517 192.601 263.554 192.762 263.554ZM191.262 273.978V273.482H192.442V270.058L191.327 270.273V269.856L192.625 269.412H192.99V273.482H194.236V273.978H191.262Z" fill="#054F77"/>
<path d="M191.849 202.769L191.688 202.988L191.69 202.99L191.849 202.769ZM191.236 201.954L190.984 202.057L190.985 202.059L191.236 201.954ZM191.236 199.436L190.985 199.331L190.984 199.334L191.236 199.436ZM191.849 198.621L191.69 198.4L191.688 198.402L191.849 198.621ZM193.675 198.621L193.836 198.402L193.836 198.402L193.675 198.621ZM194.282 199.436L194.03 199.539L194.031 199.541L194.282 199.436ZM194.282 201.954L194.031 201.849L194.03 201.851L194.282 201.954ZM193.675 202.769L193.836 202.988L193.675 202.769ZM191.673 201.497L191.409 201.564L191.411 201.57L191.673 201.497ZM191.94 202.091L191.718 202.247L192.005 202.656L192.192 202.193L191.94 202.091ZM193.206 198.954L193.458 199.055L193.548 198.831L193.336 198.715L193.206 198.954ZM192.149 199.071L192.322 199.28L192.325 199.278L192.149 199.071ZM191.731 199.71L191.987 199.803L191.987 199.802L191.731 199.71ZM193.375 202.332L193.549 202.542L193.552 202.539L193.375 202.332ZM193.845 199.899L193.581 199.966L193.583 199.972L193.845 199.899ZM193.584 199.299L193.806 199.143L193.519 198.734L193.332 199.197L193.584 199.299ZM192.312 202.443L192.06 202.341L191.968 202.568L192.185 202.683L192.312 202.443ZM192.762 202.785C192.473 202.785 192.224 202.705 192.008 202.549L191.69 202.99C192.004 203.216 192.365 203.328 192.762 203.328V202.785ZM192.01 202.55C191.795 202.393 191.619 202.164 191.486 201.849L190.985 202.059C191.149 202.449 191.381 202.763 191.688 202.988L192.01 202.55ZM191.487 201.851C191.36 201.539 191.292 201.156 191.292 200.695H190.749C190.749 201.208 190.824 201.664 190.984 202.057L191.487 201.851ZM191.292 200.695C191.292 200.234 191.36 199.851 191.487 199.539L190.984 199.334C190.824 199.726 190.749 200.182 190.749 200.695H191.292ZM191.486 199.541C191.619 199.226 191.795 198.997 192.01 198.84L191.688 198.402C191.381 198.627 191.149 198.942 190.985 199.331L191.486 199.541ZM192.008 198.841C192.224 198.685 192.473 198.606 192.762 198.606V198.062C192.365 198.062 192.004 198.174 191.69 198.4L192.008 198.841ZM192.762 198.606C193.057 198.606 193.304 198.686 193.515 198.84L193.836 198.402C193.525 198.174 193.163 198.062 192.762 198.062V198.606ZM193.515 198.84C193.728 198.997 193.902 199.225 194.03 199.539L194.534 199.334C194.374 198.943 194.144 198.628 193.836 198.402L193.515 198.84ZM194.031 199.541C194.162 199.853 194.232 200.235 194.232 200.695H194.775C194.775 200.181 194.698 199.724 194.532 199.331L194.031 199.541ZM194.232 200.695C194.232 201.156 194.162 201.538 194.031 201.849L194.532 202.059C194.698 201.666 194.775 201.209 194.775 200.695H194.232ZM194.03 201.851C193.902 202.165 193.728 202.393 193.515 202.55L193.836 202.988C194.144 202.763 194.374 202.447 194.534 202.057L194.03 201.851ZM193.515 202.55C193.304 202.705 193.057 202.785 192.762 202.785V203.328C193.163 203.328 193.525 203.217 193.836 202.988L193.515 202.55ZM191.31 200.695C191.31 201.009 191.342 201.3 191.409 201.564L191.936 201.43C191.882 201.217 191.853 200.972 191.853 200.695H191.31ZM191.411 201.57C191.483 201.828 191.583 202.056 191.718 202.247L192.163 201.935C192.071 201.804 191.993 201.636 191.935 201.425L191.411 201.57ZM192.192 202.193L193.458 199.055L192.954 198.852L191.688 201.989L192.192 202.193ZM193.336 198.715C193.16 198.618 192.966 198.571 192.762 198.571V199.114C192.879 199.114 192.982 199.141 193.075 199.192L193.336 198.715ZM192.762 198.571C192.466 198.571 192.199 198.671 191.972 198.864L192.325 199.278C192.455 199.167 192.598 199.114 192.762 199.114V198.571ZM191.975 198.862C191.751 199.048 191.588 199.307 191.476 199.618L191.987 199.802C192.075 199.557 192.191 199.389 192.322 199.28L191.975 198.862ZM191.476 199.617C191.362 199.928 191.31 200.29 191.31 200.695H191.853C191.853 200.335 191.9 200.04 191.987 199.803L191.476 199.617ZM192.762 202.826C193.056 202.826 193.322 202.73 193.549 202.541L193.202 202.123C193.072 202.231 192.929 202.282 192.762 202.282V202.826ZM193.552 202.539C193.774 202.349 193.937 202.09 194.048 201.778L193.537 201.595C193.449 201.84 193.333 202.011 193.199 202.126L193.552 202.539ZM194.048 201.778C194.162 201.463 194.214 201.1 194.214 200.695H193.671C193.671 201.055 193.624 201.353 193.537 201.595L194.048 201.778ZM194.214 200.695C194.214 200.38 194.18 200.089 194.107 199.827L193.583 199.972C193.64 200.179 193.671 200.419 193.671 200.695H194.214ZM194.108 199.832C194.041 199.569 193.942 199.337 193.806 199.143L193.362 199.456C193.452 199.583 193.527 199.751 193.581 199.966L194.108 199.832ZM193.332 199.197L192.06 202.341L192.564 202.545L193.836 199.401L193.332 199.197ZM192.185 202.683C192.364 202.778 192.558 202.826 192.762 202.826V202.282C192.645 202.282 192.539 202.256 192.44 202.203L192.185 202.683ZM191.262 212.978H190.99V213.25H191.262V212.978ZM191.262 212.482V212.211H190.99V212.482H191.262ZM192.442 212.482V212.754H192.714V212.482H192.442ZM192.442 209.058H192.714V208.729L192.391 208.791L192.442 209.058ZM191.327 209.273H191.055V209.602L191.379 209.54L191.327 209.273ZM191.327 208.856L191.239 208.599L191.055 208.661V208.856H191.327ZM192.625 208.412V208.14H192.58L192.537 208.155L192.625 208.412ZM192.99 208.412H193.262V208.14H192.99V208.412ZM192.99 212.482H192.719V212.754H192.99V212.482ZM194.236 212.482H194.508V212.211H194.236V212.482ZM194.236 212.978V213.25H194.508V212.978H194.236ZM191.534 212.978V212.482H190.99V212.978H191.534ZM191.262 212.754H192.442V212.211H191.262V212.754ZM192.714 212.482V209.058H192.171V212.482H192.714ZM192.391 208.791L191.276 209.006L191.379 209.54L192.494 209.325L192.391 208.791ZM191.599 209.273V208.856H191.055V209.273H191.599ZM191.415 209.113L192.713 208.669L192.537 208.155L191.239 208.599L191.415 209.113ZM192.625 208.684H192.99V208.14H192.625V208.684ZM192.719 208.412V212.482H193.262V208.412H192.719ZM192.99 212.754H194.236V212.211H192.99V212.754ZM193.964 212.482V212.978H194.508V212.482H193.964ZM194.236 212.706H191.262V213.25H194.236V212.706ZM191.849 223.769L191.688 223.988L191.69 223.99L191.849 223.769ZM191.236 222.954L190.984 223.057L190.985 223.059L191.236 222.954ZM191.236 220.436L190.985 220.331L190.984 220.334L191.236 220.436ZM191.849 219.621L191.69 219.4L191.688 219.402L191.849 219.621ZM193.675 219.621L193.836 219.402H193.836L193.675 219.621ZM194.282 220.436L194.03 220.539L194.031 220.541L194.282 220.436ZM194.282 222.954L194.031 222.849L194.03 222.851L194.282 222.954ZM193.675 223.769L193.836 223.988L193.675 223.769ZM191.673 222.497L191.409 222.564L191.411 222.57L191.673 222.497ZM191.94 223.091L191.718 223.247L192.005 223.656L192.192 223.193L191.94 223.091ZM193.206 219.954L193.458 220.055L193.548 219.831L193.336 219.715L193.206 219.954ZM192.149 220.071L192.322 220.28L192.325 220.278L192.149 220.071ZM191.731 220.71L191.987 220.803L191.987 220.802L191.731 220.71ZM193.375 223.332L193.549 223.542L193.552 223.539L193.375 223.332ZM193.845 220.899L193.581 220.966L193.583 220.972L193.845 220.899ZM193.584 220.299L193.806 220.143L193.519 219.734L193.332 220.197L193.584 220.299ZM192.312 223.443L192.06 223.341L191.968 223.568L192.185 223.683L192.312 223.443ZM192.762 223.785C192.473 223.785 192.224 223.705 192.008 223.549L191.69 223.99C192.004 224.216 192.365 224.328 192.762 224.328V223.785ZM192.01 223.55C191.795 223.393 191.619 223.164 191.486 222.849L190.985 223.059C191.149 223.449 191.381 223.763 191.688 223.988L192.01 223.55ZM191.487 222.851C191.36 222.539 191.292 222.156 191.292 221.695H190.749C190.749 222.208 190.824 222.664 190.984 223.057L191.487 222.851ZM191.292 221.695C191.292 221.234 191.36 220.851 191.487 220.539L190.984 220.334C190.824 220.726 190.749 221.182 190.749 221.695H191.292ZM191.486 220.541C191.619 220.226 191.795 219.997 192.01 219.84L191.688 219.402C191.381 219.627 191.149 219.942 190.985 220.331L191.486 220.541ZM192.008 219.841C192.224 219.685 192.473 219.606 192.762 219.606V219.062C192.365 219.062 192.004 219.174 191.69 219.4L192.008 219.841ZM192.762 219.606C193.057 219.606 193.304 219.686 193.515 219.84L193.836 219.402C193.525 219.174 193.163 219.062 192.762 219.062V219.606ZM193.515 219.84C193.728 219.997 193.902 220.225 194.03 220.539L194.534 220.334C194.374 219.943 194.144 219.628 193.836 219.402L193.515 219.84ZM194.031 220.541C194.162 220.853 194.232 221.235 194.232 221.695H194.775C194.775 221.181 194.698 220.724 194.532 220.331L194.031 220.541ZM194.232 221.695C194.232 222.156 194.162 222.538 194.031 222.849L194.532 223.059C194.698 222.666 194.775 222.209 194.775 221.695H194.232ZM194.03 222.851C193.902 223.165 193.728 223.393 193.515 223.55L193.836 223.988C194.144 223.763 194.374 223.447 194.534 223.057L194.03 222.851ZM193.515 223.55C193.304 223.705 193.057 223.785 192.762 223.785V224.328C193.163 224.328 193.525 224.217 193.836 223.988L193.515 223.55ZM191.31 221.695C191.31 222.009 191.342 222.3 191.409 222.564L191.936 222.43C191.882 222.217 191.853 221.972 191.853 221.695H191.31ZM191.411 222.57C191.483 222.828 191.583 223.056 191.718 223.247L192.163 222.935C192.071 222.804 191.993 222.636 191.935 222.425L191.411 222.57ZM192.192 223.193L193.458 220.055L192.954 219.852L191.688 222.989L192.192 223.193ZM193.336 219.715C193.16 219.618 192.966 219.571 192.762 219.571V220.114C192.879 220.114 192.982 220.141 193.075 220.192L193.336 219.715ZM192.762 219.571C192.466 219.571 192.199 219.671 191.972 219.864L192.325 220.278C192.455 220.167 192.598 220.114 192.762 220.114V219.571ZM191.975 219.862C191.751 220.048 191.588 220.307 191.476 220.618L191.987 220.802C192.075 220.557 192.191 220.389 192.322 220.28L191.975 219.862ZM191.476 220.617C191.362 220.928 191.31 221.29 191.31 221.695H191.853C191.853 221.335 191.9 221.04 191.987 220.803L191.476 220.617ZM192.762 223.826C193.056 223.826 193.322 223.73 193.549 223.541L193.202 223.123C193.072 223.231 192.929 223.282 192.762 223.282V223.826ZM193.552 223.539C193.774 223.349 193.937 223.09 194.048 222.778L193.537 222.595C193.449 222.84 193.333 223.011 193.199 223.126L193.552 223.539ZM194.048 222.778C194.162 222.463 194.214 222.1 194.214 221.695H193.671C193.671 222.055 193.624 222.353 193.537 222.595L194.048 222.778ZM194.214 221.695C194.214 221.38 194.18 221.089 194.107 220.827L193.583 220.972C193.64 221.179 193.671 221.419 193.671 221.695H194.214ZM194.108 220.832C194.041 220.569 193.942 220.337 193.806 220.143L193.362 220.456C193.452 220.583 193.527 220.751 193.581 220.966L194.108 220.832ZM193.332 220.197L192.06 223.341L192.564 223.545L193.836 220.401L193.332 220.197ZM192.185 223.683C192.364 223.778 192.558 223.826 192.762 223.826V223.282C192.645 223.282 192.539 223.256 192.44 223.203L192.185 223.683ZM191.262 233.978H190.99V234.25H191.262V233.978ZM191.262 233.482V233.211H190.99V233.482H191.262ZM192.442 233.482V233.754H192.714V233.482H192.442ZM192.442 230.058H192.714V229.729L192.391 229.791L192.442 230.058ZM191.327 230.273H191.055V230.602L191.379 230.54L191.327 230.273ZM191.327 229.856L191.239 229.599L191.055 229.661V229.856H191.327ZM192.625 229.412V229.14H192.58L192.537 229.155L192.625 229.412ZM192.99 229.412H193.262V229.14H192.99V229.412ZM192.99 233.482H192.719V233.754H192.99V233.482ZM194.236 233.482H194.508V233.211H194.236V233.482ZM194.236 233.978V234.25H194.508V233.978H194.236ZM191.534 233.978V233.482H190.99V233.978H191.534ZM191.262 233.754H192.442V233.211H191.262V233.754ZM192.714 233.482V230.058H192.171V233.482H192.714ZM192.391 229.791L191.276 230.006L191.379 230.54L192.494 230.325L192.391 229.791ZM191.599 230.273V229.856H191.055V230.273H191.599ZM191.415 230.113L192.713 229.669L192.537 229.155L191.239 229.599L191.415 230.113ZM192.625 229.684H192.99V229.14H192.625V229.684ZM192.719 229.412V233.482H193.262V229.412H192.719ZM192.99 233.754H194.236V233.211H192.99V233.754ZM193.964 233.482V233.978H194.508V233.482H193.964ZM194.236 233.706H191.262V234.25H194.236V233.706ZM191.849 243.769L191.688 243.988L191.69 243.99L191.849 243.769ZM191.236 242.954L190.984 243.057L190.985 243.059L191.236 242.954ZM191.236 240.436L190.985 240.331L190.984 240.334L191.236 240.436ZM191.849 239.621L191.69 239.4L191.688 239.402L191.849 239.621ZM193.675 239.621L193.836 239.402H193.836L193.675 239.621ZM194.282 240.436L194.03 240.539L194.031 240.541L194.282 240.436ZM194.282 242.954L194.031 242.849L194.03 242.851L194.282 242.954ZM193.675 243.769L193.836 243.988L193.675 243.769ZM191.673 242.497L191.409 242.564L191.411 242.57L191.673 242.497ZM191.94 243.091L191.718 243.247L192.005 243.656L192.192 243.193L191.94 243.091ZM193.206 239.954L193.458 240.055L193.548 239.831L193.336 239.715L193.206 239.954ZM192.149 240.071L192.322 240.28L192.325 240.278L192.149 240.071ZM191.731 240.71L191.987 240.803L191.987 240.802L191.731 240.71ZM193.375 243.332L193.549 243.542L193.552 243.539L193.375 243.332ZM193.845 240.899L193.581 240.966L193.583 240.972L193.845 240.899ZM193.584 240.299L193.806 240.143L193.519 239.734L193.332 240.197L193.584 240.299ZM192.312 243.443L192.06 243.341L191.968 243.568L192.185 243.683L192.312 243.443ZM192.762 243.785C192.473 243.785 192.224 243.705 192.008 243.549L191.69 243.99C192.004 244.216 192.365 244.328 192.762 244.328V243.785ZM192.01 243.55C191.795 243.393 191.619 243.164 191.486 242.849L190.985 243.059C191.149 243.449 191.381 243.763 191.688 243.988L192.01 243.55ZM191.487 242.851C191.36 242.539 191.292 242.156 191.292 241.695H190.749C190.749 242.208 190.824 242.664 190.984 243.057L191.487 242.851ZM191.292 241.695C191.292 241.234 191.36 240.851 191.487 240.539L190.984 240.334C190.824 240.726 190.749 241.182 190.749 241.695H191.292ZM191.486 240.541C191.619 240.226 191.795 239.997 192.01 239.84L191.688 239.402C191.381 239.627 191.149 239.942 190.985 240.331L191.486 240.541ZM192.008 239.841C192.224 239.685 192.473 239.606 192.762 239.606V239.062C192.365 239.062 192.004 239.174 191.69 239.4L192.008 239.841ZM192.762 239.606C193.057 239.606 193.304 239.686 193.515 239.84L193.836 239.402C193.525 239.174 193.163 239.062 192.762 239.062V239.606ZM193.515 239.84C193.728 239.997 193.902 240.225 194.03 240.539L194.534 240.334C194.374 239.943 194.144 239.628 193.836 239.402L193.515 239.84ZM194.031 240.541C194.162 240.853 194.232 241.235 194.232 241.695H194.775C194.775 241.181 194.698 240.724 194.532 240.331L194.031 240.541ZM194.232 241.695C194.232 242.156 194.162 242.538 194.031 242.849L194.532 243.059C194.698 242.666 194.775 242.209 194.775 241.695H194.232ZM194.03 242.851C193.902 243.165 193.728 243.393 193.515 243.55L193.836 243.988C194.144 243.763 194.374 243.447 194.534 243.057L194.03 242.851ZM193.515 243.55C193.304 243.705 193.057 243.785 192.762 243.785V244.328C193.163 244.328 193.525 244.217 193.836 243.988L193.515 243.55ZM191.31 241.695C191.31 242.009 191.342 242.3 191.409 242.564L191.936 242.43C191.882 242.217 191.853 241.972 191.853 241.695H191.31ZM191.411 242.57C191.483 242.828 191.583 243.056 191.718 243.247L192.163 242.935C192.071 242.804 191.993 242.636 191.935 242.425L191.411 242.57ZM192.192 243.193L193.458 240.055L192.954 239.852L191.688 242.989L192.192 243.193ZM193.336 239.715C193.16 239.618 192.966 239.571 192.762 239.571V240.114C192.879 240.114 192.982 240.141 193.075 240.192L193.336 239.715ZM192.762 239.571C192.466 239.571 192.199 239.671 191.972 239.864L192.325 240.278C192.455 240.167 192.598 240.114 192.762 240.114V239.571ZM191.975 239.862C191.751 240.048 191.588 240.307 191.476 240.618L191.987 240.802C192.075 240.557 192.191 240.389 192.322 240.28L191.975 239.862ZM191.476 240.617C191.362 240.928 191.31 241.29 191.31 241.695H191.853C191.853 241.335 191.9 241.04 191.987 240.803L191.476 240.617ZM192.762 243.826C193.056 243.826 193.322 243.73 193.549 243.541L193.202 243.123C193.072 243.231 192.929 243.282 192.762 243.282V243.826ZM193.552 243.539C193.774 243.349 193.937 243.09 194.048 242.778L193.537 242.595C193.449 242.84 193.333 243.011 193.199 243.126L193.552 243.539ZM194.048 242.778C194.162 242.463 194.214 242.1 194.214 241.695H193.671C193.671 242.055 193.624 242.353 193.537 242.595L194.048 242.778ZM194.214 241.695C194.214 241.38 194.18 241.089 194.107 240.827L193.583 240.972C193.64 241.179 193.671 241.419 193.671 241.695H194.214ZM194.108 240.832C194.041 240.569 193.942 240.337 193.806 240.143L193.362 240.456C193.452 240.583 193.527 240.751 193.581 240.966L194.108 240.832ZM193.332 240.197L192.06 243.341L192.564 243.545L193.836 240.401L193.332 240.197ZM192.185 243.683C192.364 243.778 192.558 243.826 192.762 243.826V243.282C192.645 243.282 192.539 243.256 192.44 243.203L192.185 243.683ZM191.262 253.978H190.99V254.25H191.262V253.978ZM191.262 253.482V253.211H190.99V253.482H191.262ZM192.442 253.482V253.754H192.714V253.482H192.442ZM192.442 250.058H192.714V249.729L192.391 249.791L192.442 250.058ZM191.327 250.273H191.055V250.602L191.379 250.54L191.327 250.273ZM191.327 249.856L191.239 249.599L191.055 249.661V249.856H191.327ZM192.625 249.412V249.14H192.58L192.537 249.155L192.625 249.412ZM192.99 249.412H193.262V249.14H192.99V249.412ZM192.99 253.482H192.719V253.754H192.99V253.482ZM194.236 253.482H194.508V253.211H194.236V253.482ZM194.236 253.978V254.25H194.508V253.978H194.236ZM191.534 253.978V253.482H190.99V253.978H191.534ZM191.262 253.754H192.442V253.211H191.262V253.754ZM192.714 253.482V250.058H192.171V253.482H192.714ZM192.391 249.791L191.276 250.006L191.379 250.54L192.494 250.325L192.391 249.791ZM191.599 250.273V249.856H191.055V250.273H191.599ZM191.415 250.113L192.713 249.669L192.537 249.155L191.239 249.599L191.415 250.113ZM192.625 249.684H192.99V249.14H192.625V249.684ZM192.719 249.412V253.482H193.262V249.412H192.719ZM192.99 253.754H194.236V253.211H192.99V253.754ZM193.964 253.482V253.978H194.508V253.482H193.964ZM194.236 253.706H191.262V254.25H194.236V253.706ZM191.849 263.769L191.688 263.988L191.69 263.99L191.849 263.769ZM191.236 262.954L190.984 263.057L190.985 263.059L191.236 262.954ZM191.236 260.436L190.985 260.331L190.984 260.334L191.236 260.436ZM191.849 259.621L191.69 259.4L191.688 259.402L191.849 259.621ZM193.675 259.621L193.836 259.402H193.836L193.675 259.621ZM194.282 260.436L194.03 260.539L194.031 260.541L194.282 260.436ZM194.282 262.954L194.031 262.849L194.03 262.851L194.282 262.954ZM193.675 263.769L193.836 263.988L193.675 263.769ZM191.673 262.497L191.409 262.564L191.411 262.57L191.673 262.497ZM191.94 263.091L191.718 263.247L192.005 263.656L192.192 263.193L191.94 263.091ZM193.206 259.954L193.458 260.055L193.548 259.831L193.336 259.715L193.206 259.954ZM192.149 260.071L192.322 260.28L192.325 260.278L192.149 260.071ZM191.731 260.71L191.987 260.803L191.987 260.802L191.731 260.71ZM193.375 263.332L193.549 263.542L193.552 263.539L193.375 263.332ZM193.845 260.899L193.581 260.966L193.583 260.972L193.845 260.899ZM193.584 260.299L193.806 260.143L193.519 259.734L193.332 260.197L193.584 260.299ZM192.312 263.443L192.06 263.341L191.968 263.568L192.185 263.683L192.312 263.443ZM192.762 263.785C192.473 263.785 192.224 263.705 192.008 263.549L191.69 263.99C192.004 264.216 192.365 264.328 192.762 264.328V263.785ZM192.01 263.55C191.795 263.393 191.619 263.164 191.486 262.849L190.985 263.059C191.149 263.449 191.381 263.763 191.688 263.988L192.01 263.55ZM191.487 262.851C191.36 262.539 191.292 262.156 191.292 261.695H190.749C190.749 262.208 190.824 262.664 190.984 263.057L191.487 262.851ZM191.292 261.695C191.292 261.234 191.36 260.851 191.487 260.539L190.984 260.334C190.824 260.726 190.749 261.182 190.749 261.695H191.292ZM191.486 260.541C191.619 260.226 191.795 259.997 192.01 259.84L191.688 259.402C191.381 259.627 191.149 259.942 190.985 260.331L191.486 260.541ZM192.008 259.841C192.224 259.685 192.473 259.606 192.762 259.606V259.062C192.365 259.062 192.004 259.174 191.69 259.4L192.008 259.841ZM192.762 259.606C193.057 259.606 193.304 259.686 193.515 259.84L193.836 259.402C193.525 259.174 193.163 259.062 192.762 259.062V259.606ZM193.515 259.84C193.728 259.997 193.902 260.225 194.03 260.539L194.534 260.334C194.374 259.943 194.144 259.628 193.836 259.402L193.515 259.84ZM194.031 260.541C194.162 260.853 194.232 261.235 194.232 261.695H194.775C194.775 261.181 194.698 260.724 194.532 260.331L194.031 260.541ZM194.232 261.695C194.232 262.156 194.162 262.538 194.031 262.849L194.532 263.059C194.698 262.666 194.775 262.209 194.775 261.695H194.232ZM194.03 262.851C193.902 263.165 193.728 263.393 193.515 263.55L193.836 263.988C194.144 263.763 194.374 263.447 194.534 263.057L194.03 262.851ZM193.515 263.55C193.304 263.705 193.057 263.785 192.762 263.785V264.328C193.163 264.328 193.525 264.217 193.836 263.988L193.515 263.55ZM191.31 261.695C191.31 262.009 191.342 262.3 191.409 262.564L191.936 262.43C191.882 262.217 191.853 261.972 191.853 261.695H191.31ZM191.411 262.57C191.483 262.828 191.583 263.056 191.718 263.247L192.163 262.935C192.071 262.804 191.993 262.636 191.935 262.425L191.411 262.57ZM192.192 263.193L193.458 260.055L192.954 259.852L191.688 262.989L192.192 263.193ZM193.336 259.715C193.16 259.618 192.966 259.571 192.762 259.571V260.114C192.879 260.114 192.982 260.141 193.075 260.192L193.336 259.715ZM192.762 259.571C192.466 259.571 192.199 259.671 191.972 259.864L192.325 260.278C192.455 260.167 192.598 260.114 192.762 260.114V259.571ZM191.975 259.862C191.751 260.048 191.588 260.307 191.476 260.618L191.987 260.802C192.075 260.557 192.191 260.389 192.322 260.28L191.975 259.862ZM191.476 260.617C191.362 260.928 191.31 261.29 191.31 261.695H191.853C191.853 261.335 191.9 261.04 191.987 260.803L191.476 260.617ZM192.762 263.826C193.056 263.826 193.322 263.73 193.549 263.541L193.202 263.123C193.072 263.231 192.929 263.282 192.762 263.282V263.826ZM193.552 263.539C193.774 263.349 193.937 263.09 194.048 262.778L193.537 262.595C193.449 262.84 193.333 263.011 193.199 263.126L193.552 263.539ZM194.048 262.778C194.162 262.463 194.214 262.1 194.214 261.695H193.671C193.671 262.055 193.624 262.353 193.537 262.595L194.048 262.778ZM194.214 261.695C194.214 261.38 194.18 261.09 194.107 260.827L193.583 260.972C193.64 261.179 193.671 261.419 193.671 261.695H194.214ZM194.108 260.832C194.041 260.569 193.942 260.337 193.806 260.143L193.362 260.456C193.452 260.583 193.527 260.751 193.581 260.966L194.108 260.832ZM193.332 260.197L192.06 263.341L192.564 263.545L193.836 260.401L193.332 260.197ZM192.185 263.683C192.364 263.778 192.558 263.826 192.762 263.826V263.282C192.645 263.282 192.539 263.256 192.44 263.203L192.185 263.683ZM191.262 273.978H190.99V274.25H191.262V273.978ZM191.262 273.482V273.211H190.99V273.482H191.262ZM192.442 273.482V273.754H192.714V273.482H192.442ZM192.442 270.058H192.714V269.729L192.391 269.791L192.442 270.058ZM191.327 270.273H191.055V270.602L191.379 270.54L191.327 270.273ZM191.327 269.856L191.239 269.599L191.055 269.661V269.856H191.327ZM192.625 269.412V269.14H192.58L192.537 269.155L192.625 269.412ZM192.99 269.412H193.262V269.14H192.99V269.412ZM192.99 273.482H192.719V273.754H192.99V273.482ZM194.236 273.482H194.508V273.211H194.236V273.482ZM194.236 273.978V274.25H194.508V273.978H194.236ZM191.534 273.978V273.482H190.99V273.978H191.534ZM191.262 273.754H192.442V273.211H191.262V273.754ZM192.714 273.482V270.058H192.171V273.482H192.714ZM192.391 269.791L191.276 270.006L191.379 270.54L192.494 270.325L192.391 269.791ZM191.599 270.273V269.856H191.055V270.273H191.599ZM191.415 270.113L192.713 269.669L192.537 269.155L191.239 269.599L191.415 270.113ZM192.625 269.684H192.99V269.14H192.625V269.684ZM192.719 269.412V273.482H193.262V269.412H192.719ZM192.99 273.754H194.236V273.211H192.99V273.754ZM193.964 273.482V273.978H194.508V273.482H193.964ZM194.236 273.706H191.262V274.25H194.236V273.706Z" fill="#8CFF00"/>
</g>
<g filter="url(#filter2_f_2441_5240)">
<path d="M213.313 62.6402C211.945 65.3956 209.717 67.6308 206.966 69.0078C204.214 70.3848 201.09 70.8289 198.064 70.273C195.038 69.7171 192.275 68.1914 190.193 65.9264C188.111 63.6614 186.823 60.7803 186.523 57.7184C186.224 54.6565 186.929 51.5803 188.532 48.9545C190.135 46.3288 192.55 44.2963 195.41 43.1642C198.271 42.032 201.422 41.8618 204.388 42.6792C207.354 43.4966 209.974 45.2572 211.85 47.695L209.372 49.6034C207.909 47.7039 205.868 46.3321 203.557 45.6951C201.246 45.0582 198.791 45.1909 196.562 46.073C194.333 46.9552 192.451 48.5389 191.202 50.5848C189.953 52.6308 189.403 55.0278 189.637 57.4136C189.87 59.7995 190.874 62.0444 192.496 63.8093C194.119 65.5742 196.271 66.763 198.629 67.1962C200.987 67.6293 203.422 67.2833 205.565 66.2103C207.709 65.1373 209.445 63.3957 210.512 61.2487L213.313 62.6402Z" fill="url(#paint3_linear_2441_5240)"/>
</g>
<g filter="url(#filter3_f_2441_5240)">
<path d="M217.161 35.0789C222.23 39.0241 225.723 44.6511 227.009 50.9448C228.294 57.2384 227.289 63.7844 224.173 69.4017C221.057 75.019 216.036 79.3379 210.016 81.5792C203.996 83.8204 197.373 83.8365 191.343 81.6246C185.312 79.4126 180.27 75.1182 177.127 69.5161C173.984 63.914 172.946 57.373 174.201 51.0732C175.456 44.7733 178.922 39.1294 183.972 35.1597C189.022 31.1899 195.324 29.1556 201.743 29.4237L201.517 34.8258C196.387 34.6115 191.35 36.2375 187.313 39.4104C183.277 42.5833 180.507 47.0943 179.504 52.1296C178.501 57.1649 179.33 62.3929 181.842 66.8705C184.355 71.3481 188.384 74.7805 193.205 76.5484C198.025 78.3164 203.318 78.3035 208.13 76.5121C212.941 74.7207 216.954 71.2688 219.445 66.779C221.935 62.2893 222.739 57.0573 221.711 52.027C220.684 46.9966 217.892 42.4992 213.84 39.3459L217.161 35.0789Z" fill="url(#paint4_linear_2441_5240)"/>
<path d="M217.161 35.0789C222.23 39.0241 225.723 44.6511 227.009 50.9448C228.294 57.2384 227.289 63.7844 224.173 69.4017C221.057 75.019 216.036 79.3379 210.016 81.5792C203.996 83.8204 197.373 83.8365 191.343 81.6246C185.312 79.4126 180.27 75.1182 177.127 69.5161C173.984 63.914 172.946 57.373 174.201 51.0732C175.456 44.7733 178.922 39.1294 183.972 35.1597C189.022 31.1899 195.324 29.1556 201.743 29.4237L201.517 34.8258C196.387 34.6115 191.35 36.2375 187.313 39.4104C183.277 42.5833 180.507 47.0943 179.504 52.1296C178.501 57.1649 179.33 62.3929 181.842 66.8705C184.355 71.3481 188.384 74.7805 193.205 76.5484C198.025 78.3164 203.318 78.3035 208.13 76.5121C212.941 74.7207 216.954 71.2688 219.445 66.779C221.935 62.2893 222.739 57.0573 221.711 52.027C220.684 46.9966 217.892 42.4992 213.84 39.3459L217.161 35.0789Z" fill="white" fill-opacity="0.2"/>
</g>
<g filter="url(#filter4_f_2441_5240)">
<path d="M188.057 21.1717C195.693 18.4438 204.009 18.2754 211.749 20.692C219.489 23.1087 226.232 27.9791 230.96 34.5671C235.687 41.1552 238.141 49.1029 237.951 57.2092C237.762 65.3155 234.939 73.1399 229.909 79.4999C224.88 85.8599 217.916 90.4099 210.072 92.4623C202.227 94.5147 193.928 93.9579 186.428 90.8761C178.928 87.7944 172.635 82.3551 168.499 75.3803C164.364 68.4055 162.612 60.2742 163.507 52.2152L170.316 52.9714C169.585 59.5517 171.016 66.1911 174.393 71.8862C177.769 77.5813 182.908 82.0225 189.032 84.5389C195.156 87.0552 201.932 87.5098 208.338 85.834C214.743 84.1581 220.428 80.443 224.535 75.2499C228.642 70.0568 230.947 63.6681 231.102 57.0491C231.257 50.4301 229.253 43.9407 225.393 38.5614C221.533 33.1821 216.027 29.2053 209.707 27.2321C203.387 25.2588 196.597 25.3963 190.362 27.6238L188.057 21.1717Z" fill="url(#paint5_linear_2441_5240)"/>
<path d="M188.057 21.1717C195.693 18.4438 204.009 18.2754 211.749 20.692C219.489 23.1087 226.232 27.9791 230.96 34.5671C235.687 41.1552 238.141 49.1029 237.951 57.2092C237.762 65.3155 234.939 73.1399 229.909 79.4999C224.88 85.8599 217.916 90.4099 210.072 92.4623C202.227 94.5147 193.928 93.9579 186.428 90.8761C178.928 87.7944 172.635 82.3551 168.499 75.3803C164.364 68.4055 162.612 60.2742 163.507 52.2152L170.316 52.9714C169.585 59.5517 171.016 66.1911 174.393 71.8862C177.769 77.5813 182.908 82.0225 189.032 84.5389C195.156 87.0552 201.932 87.5098 208.338 85.834C214.743 84.1581 220.428 80.443 224.535 75.2499C228.642 70.0568 230.947 63.6681 231.102 57.0491C231.257 50.4301 229.253 43.9407 225.393 38.5614C221.533 33.1821 216.027 29.2053 209.707 27.2321C203.387 25.2588 196.597 25.3963 190.362 27.6238L188.057 21.1717Z" fill="white" fill-opacity="0.2"/>
</g>
<g filter="url(#filter5_f_2441_5240)">
<circle cx="235.005" cy="15.1783" r="3.75599" transform="rotate(-22.7554 235.005 15.1783)" fill="url(#paint6_linear_2441_5240)"/>
</g>
<g filter="url(#filter6_f_2441_5240)">
<circle cx="172.119" cy="97.6798" r="3.2672" transform="rotate(-22.7554 172.119 97.6798)" fill="url(#paint7_linear_2441_5240)"/>
</g>
<g filter="url(#filter7_f_2441_5240)">
<circle cx="37.388" cy="178.448" r="3.2672" transform="rotate(-22.7554 37.388 178.448)" fill="url(#paint8_linear_2441_5240)"/>
</g>
<g opacity="0.5" filter="url(#filter8_f_2441_5240)">
<circle cx="98.4236" cy="274.502" r="9.07376" transform="rotate(-22.7554 98.4236 274.502)" fill="url(#paint9_linear_2441_5240)"/>
</g>
<g filter="url(#filter9_f_2441_5240)">
<circle cx="208.17" cy="34.1897" r="1.89212" transform="rotate(-22.7554 208.17 34.1897)" fill="url(#paint10_linear_2441_5240)"/>
</g>
<g filter="url(#filter10_f_2441_5240)">
<path d="M149.565 153.387L142.469 143.754C141.893 142.972 140.72 142.987 140.163 143.782L128.467 160.501C127.813 161.436 128.474 162.721 129.615 162.734L161.633 163.086C162.782 163.098 163.469 161.813 162.82 160.865L156.797 152.061C156.37 151.437 155.529 151.258 154.884 151.652L151.449 153.755C150.82 154.14 150.002 153.98 149.565 153.387Z" fill="url(#paint11_linear_2441_5240)"/>
</g>
<path d="M163.914 129.138L131.37 128.129C128.747 128.048 126.548 130.072 126.469 132.647L125.559 161.968C125.479 164.54 127.548 166.695 130.171 166.776L162.716 167.785C165.339 167.867 167.535 165.844 167.614 163.273L168.524 133.951C168.604 131.376 166.538 129.22 163.914 129.138ZM153.593 135.763C156.13 135.842 158.125 137.923 158.048 140.409C157.971 142.896 155.851 144.849 153.314 144.771C150.776 144.692 148.782 142.611 148.859 140.124C148.936 137.638 151.056 135.684 153.593 135.763ZM161.358 163.429L146.576 162.97L132.452 162.532C131.183 162.493 130.646 161.575 131.252 160.483L139.612 145.418C140.218 144.326 141.309 144.26 142.05 145.272L149.663 155.675C150.403 156.687 151.749 156.812 152.668 155.955L154.667 154.09C155.586 153.232 156.896 153.383 157.592 154.424L162.396 161.612C163.09 162.655 162.627 163.468 161.358 163.429Z" fill="url(#paint12_linear_2441_5240)"/>
<g filter="url(#filter11_f_2441_5240)">
<path d="M131.059 135.439C133.529 136.34 134.098 139.577 132.082 141.266L122.199 149.548C120.184 151.237 117.096 150.11 116.641 147.52L114.41 134.821C113.955 132.231 116.475 130.119 118.945 131.021L131.059 135.439Z" fill="url(#paint13_radial_2441_5240)"/>
<path d="M131.059 135.439C133.529 136.34 134.098 139.577 132.082 141.266L122.199 149.548C120.184 151.237 117.096 150.11 116.641 147.52L114.41 134.821C113.955 132.231 116.475 130.119 118.945 131.021L131.059 135.439Z" stroke="#8CFF00" stroke-width="0.854002"/>
</g>
<path d="M131.736 135.685C133.905 136.477 134.405 139.32 132.634 140.803L121.647 150.01C119.877 151.494 117.165 150.505 116.765 148.23L114.286 134.111C113.886 131.836 116.099 129.982 118.268 130.774L131.736 135.685Z" fill="url(#paint14_radial_2441_5240)"/>
<path d="M131.736 135.685C133.905 136.477 134.405 139.32 132.634 140.803L121.647 150.01C119.877 151.494 117.165 150.505 116.765 148.23L114.286 134.111C113.886 131.836 116.099 129.982 118.268 130.774L131.736 135.685Z" fill="url(#paint15_radial_2441_5240)"/>
<path d="M131.736 135.685C133.905 136.477 134.405 139.32 132.634 140.803L121.647 150.01C119.877 151.494 117.165 150.505 116.765 148.23L114.286 134.111C113.886 131.836 116.099 129.982 118.268 130.774L131.736 135.685Z" stroke="#F4FBFF" stroke-width="0.1708"/>
<path d="M21.3447 76.1615L35.7703 64.5703H151.746" stroke="url(#paint16_linear_2441_5240)" stroke-width="0.543555"/>
<path d="M24.9204 83.9838L39.3459 72.3926H157.65" stroke="url(#paint17_linear_2441_5240)" stroke-width="0.543555"/>
<path d="M2.78271 109.429L17.2082 97.8374H133.184" stroke="url(#paint18_linear_2441_5240)" stroke-width="0.543555"/>
<path d="M6.30908 117.25L20.7346 105.659H161.838" stroke="url(#paint19_linear_2441_5240)" stroke-width="0.543555"/>
<path d="M240.226 201.422L225.8 189.831H109.824" stroke="url(#paint20_linear_2441_5240)" stroke-width="0.543555"/>
<path d="M236.644 209.246L222.218 197.655H103.914" stroke="url(#paint21_linear_2441_5240)" stroke-width="0.543555"/>
<path d="M258.786 234.687L244.36 223.096H128.384" stroke="url(#paint22_linear_2441_5240)" stroke-width="0.543555"/>
<path d="M255.259 242.511L240.833 230.919H99.7299" stroke="url(#paint23_linear_2441_5240)" stroke-width="0.543555"/>
<defs>
<filter id="filter0_f_2441_5240" x="87.8401" y="20.7039" width="5.65713" height="77.8183" filterUnits="userSpaceOnUse" color-interpolation-filters="sRGB">
<feFlood flood-opacity="0" result="BackgroundImageFix"/>
<feBlend mode="normal" in="SourceGraphic" in2="BackgroundImageFix" result="shape"/>
<feGaussianBlur stdDeviation="0.543555" result="effect1_foregroundBlur_2441_5240"/>
</filter>
<filter id="filter1_f_2441_5240" x="189.933" y="197.247" width="5.65713" height="77.8183" filterUnits="userSpaceOnUse" color-interpolation-filters="sRGB">
<feFlood flood-opacity="0" result="BackgroundImageFix"/>
<feBlend mode="normal" in="SourceGraphic" in2="BackgroundImageFix" result="shape"/>
<feGaussianBlur stdDeviation="0.543555" result="effect1_foregroundBlur_2441_5240"/>
</filter>
<filter id="filter2_f_2441_5240" x="185.796" y="41.5094" width="28.1785" height="29.6575" filterUnits="userSpaceOnUse" color-interpolation-filters="sRGB">
<feFlood flood-opacity="0" result="BackgroundImageFix"/>
<feBlend mode="normal" in="SourceGraphic" in2="BackgroundImageFix" result="shape"/>
<feGaussianBlur stdDeviation="0.330266" result="effect1_foregroundBlur_2441_5240"/>
</filter>
<filter id="filter3_f_2441_5240" x="171.973" y="27.691" width="57.2904" height="57.2904" filterUnits="userSpaceOnUse" color-interpolation-filters="sRGB">
<feFlood flood-opacity="0" result="BackgroundImageFix"/>
<feBlend mode="normal" in="SourceGraphic" in2="BackgroundImageFix" result="shape"/>
<feGaussianBlur stdDeviation="0.854708" result="effect1_foregroundBlur_2441_5240"/>
</filter>
<filter id="filter4_f_2441_5240" x="159.859" y="15.5763" width="81.5208" height="81.5208" filterUnits="userSpaceOnUse" color-interpolation-filters="sRGB">
<feFlood flood-opacity="0" result="BackgroundImageFix"/>
<feBlend mode="normal" in="SourceGraphic" in2="BackgroundImageFix" result="shape"/>
<feGaussianBlur stdDeviation="1.70942" result="effect1_foregroundBlur_2441_5240"/>
</filter>
<filter id="filter5_f_2441_5240" x="229.539" y="9.71197" width="10.9325" height="10.9325" filterUnits="userSpaceOnUse" color-interpolation-filters="sRGB">
<feFlood flood-opacity="0" result="BackgroundImageFix"/>
<feBlend mode="normal" in="SourceGraphic" in2="BackgroundImageFix" result="shape"/>
<feGaussianBlur stdDeviation="0.854708" result="effect1_foregroundBlur_2441_5240"/>
</filter>
<filter id="filter6_f_2441_5240" x="167.142" y="92.7022" width="9.95497" height="9.95497" filterUnits="userSpaceOnUse" color-interpolation-filters="sRGB">
<feFlood flood-opacity="0" result="BackgroundImageFix"/>
<feBlend mode="normal" in="SourceGraphic" in2="BackgroundImageFix" result="shape"/>
<feGaussianBlur stdDeviation="0.854708" result="effect1_foregroundBlur_2441_5240"/>
</filter>
<filter id="filter7_f_2441_5240" x="32.4107" y="173.471" width="9.95497" height="9.95497" filterUnits="userSpaceOnUse" color-interpolation-filters="sRGB">
<feFlood flood-opacity="0" result="BackgroundImageFix"/>
<feBlend mode="normal" in="SourceGraphic" in2="BackgroundImageFix" result="shape"/>
<feGaussianBlur stdDeviation="0.854708" result="effect1_foregroundBlur_2441_5240"/>
</filter>
<filter id="filter8_f_2441_5240" x="87.6382" y="263.716" width="21.5707" height="21.5712" filterUnits="userSpaceOnUse" color-interpolation-filters="sRGB">
<feFlood flood-opacity="0" result="BackgroundImageFix"/>
<feBlend mode="normal" in="SourceGraphic" in2="BackgroundImageFix" result="shape"/>
<feGaussianBlur stdDeviation="0.854708" result="effect1_foregroundBlur_2441_5240"/>
</filter>
<filter id="filter9_f_2441_5240" x="204.567" y="30.5879" width="7.20399" height="7.20399" filterUnits="userSpaceOnUse" color-interpolation-filters="sRGB">
<feFlood flood-opacity="0" result="BackgroundImageFix"/>
<feBlend mode="normal" in="SourceGraphic" in2="BackgroundImageFix" result="shape"/>
<feGaussianBlur stdDeviation="0.854708" result="effect1_foregroundBlur_2441_5240"/>
</filter>
<filter id="filter10_f_2441_5240" x="126.505" y="141.473" width="38.2691" height="23.316" filterUnits="userSpaceOnUse" color-interpolation-filters="sRGB">
<feFlood flood-opacity="0" result="BackgroundImageFix"/>
<feBlend mode="normal" in="SourceGraphic" in2="BackgroundImageFix" result="shape"/>
<feGaussianBlur stdDeviation="0.851693" result="effect1_foregroundBlur_2441_5240"/>
</filter>
<filter id="filter11_f_2441_5240" x="111.367" y="127.819" width="24.9272" height="25.5185" filterUnits="userSpaceOnUse" color-interpolation-filters="sRGB">
<feFlood flood-opacity="0" result="BackgroundImageFix"/>
<feBlend mode="normal" in="SourceGraphic" in2="BackgroundImageFix" result="shape"/>
<feGaussianBlur stdDeviation="1.281" result="effect1_foregroundBlur_2441_5240"/>
</filter>
<linearGradient id="paint0_linear_2441_5240" x1="86.8488" y1="116.733" x2="254.304" y2="46.6267" gradientUnits="userSpaceOnUse">
<stop stop-color="#054F77"/>
<stop offset="1" stop-color="white" stop-opacity="0"/>
</linearGradient>
<linearGradient id="paint1_linear_2441_5240" x1="70.1092" y1="172.652" x2="221.163" y2="241.525" gradientUnits="userSpaceOnUse">
<stop stop-color="#054F77"/>
<stop offset="1" stop-color="white" stop-opacity="0"/>
</linearGradient>
<linearGradient id="paint2_linear_2441_5240" x1="69.3918" y1="113.053" x2="238.322" y2="188.376" gradientUnits="userSpaceOnUse">
<stop stop-color="#054F77"/>
<stop offset="1" stop-color="white" stop-opacity="0"/>
</linearGradient>
<linearGradient id="paint3_linear_2441_5240" x1="201.335" y1="42.0431" x2="194.322" y2="69.0275" gradientUnits="userSpaceOnUse">
<stop stop-color="#054F77"/>
<stop offset="0.971875" stop-color="#8CFF00"/>
</linearGradient>
<linearGradient id="paint4_linear_2441_5240" x1="176.45" y1="43.8334" x2="217.599" y2="77.245" gradientUnits="userSpaceOnUse">
<stop stop-color="#054F77"/>
<stop offset="0.971875" stop-color="#8CFF00"/>
</linearGradient>
<linearGradient id="paint5_linear_2441_5240" x1="173.133" y1="82.1713" x2="235.785" y2="43.7737" gradientUnits="userSpaceOnUse">
<stop stop-color="#054F77"/>
<stop offset="0.971875" stop-color="#8CFF00"/>
</linearGradient>
<linearGradient id="paint6_linear_2441_5240" x1="235.005" y1="11.4223" x2="235.005" y2="24.6719" gradientUnits="userSpaceOnUse">
<stop stop-color="#054F77"/>
<stop offset="1" stop-color="#8CFF00"/>
</linearGradient>
<linearGradient id="paint7_linear_2441_5240" x1="172.119" y1="94.4126" x2="172.119" y2="105.938" gradientUnits="userSpaceOnUse">
<stop stop-color="#054F77"/>
<stop offset="1" stop-color="#8CFF00"/>
</linearGradient>
<linearGradient id="paint8_linear_2441_5240" x1="37.388" y1="175.181" x2="37.388" y2="186.707" gradientUnits="userSpaceOnUse">
<stop stop-color="#054F77"/>
<stop offset="1" stop-color="#8CFF00"/>
</linearGradient>
<linearGradient id="paint9_linear_2441_5240" x1="98.4236" y1="265.428" x2="98.4236" y2="297.437" gradientUnits="userSpaceOnUse">
<stop stop-color="#054F77"/>
<stop offset="1" stop-color="#8CFF00"/>
</linearGradient>
<linearGradient id="paint10_linear_2441_5240" x1="208.17" y1="32.2976" x2="208.17" y2="38.9723" gradientUnits="userSpaceOnUse">
<stop stop-color="#054F77"/>
<stop offset="1" stop-color="#8CFF00"/>
</linearGradient>
<linearGradient id="paint11_linear_2441_5240" x1="152.336" y1="162.603" x2="131.163" y2="144.922" gradientUnits="userSpaceOnUse">
<stop stop-color="#F4FBFF"/>
<stop offset="1" stop-color="#83DDDD" stop-opacity="0.92"/>
</linearGradient>
<linearGradient id="paint12_linear_2441_5240" x1="162.14" y1="141.711" x2="139.429" y2="167.063" gradientUnits="userSpaceOnUse">
<stop stop-color="#141F45"/>
<stop offset="1" stop-color="#054F77"/>
</linearGradient>
<radialGradient id="paint13_radial_2441_5240" cx="0" cy="0" r="1" gradientUnits="userSpaceOnUse" gradientTransform="translate(135.754 150.264) rotate(-163.318) scale(33.451)">
<stop stop-color="#054F77"/>
<stop offset="1" stop-color="#141F45"/>
</radialGradient>
<radialGradient id="paint14_radial_2441_5240" cx="0" cy="0" r="1" gradientUnits="userSpaceOnUse" gradientTransform="translate(135.754 150.264) rotate(-163.318) scale(33.451)">
<stop stop-color="#054F77"/>
<stop offset="1" stop-color="#141F45"/>
</radialGradient>
<radialGradient id="paint15_radial_2441_5240" cx="0" cy="0" r="1" gradientUnits="userSpaceOnUse" gradientTransform="translate(135.754 150.264) rotate(-163.318) scale(33.451)">
<stop stop-color="#054F77"/>
<stop offset="1" stop-color="#8CFF00"/>
</radialGradient>
<linearGradient id="paint16_linear_2441_5240" x1="118.28" y1="64.5703" x2="44.4558" y2="81.2226" gradientUnits="userSpaceOnUse">
<stop stop-color="#054F77"/>
<stop offset="1" stop-color="#8CFF00"/>
</linearGradient>
<linearGradient id="paint17_linear_2441_5240" x1="124.182" y1="72.3925" x2="50.3581" y2="89.0448" gradientUnits="userSpaceOnUse">
<stop stop-color="#054F77"/>
<stop offset="1" stop-color="#8CFF00"/>
</linearGradient>
<linearGradient id="paint18_linear_2441_5240" x1="99.7179" y1="97.8374" x2="25.8938" y2="114.49" gradientUnits="userSpaceOnUse">
<stop stop-color="#054F77"/>
<stop offset="1" stop-color="#8CFF00"/>
</linearGradient>
<linearGradient id="paint19_linear_2441_5240" x1="128.372" y1="105.659" x2="54.5478" y2="122.311" gradientUnits="userSpaceOnUse">
<stop stop-color="#054F77"/>
<stop offset="1" stop-color="#8CFF00"/>
</linearGradient>
<linearGradient id="paint20_linear_2441_5240" x1="143.29" y1="189.831" x2="217.115" y2="206.483" gradientUnits="userSpaceOnUse">
<stop stop-color="#054F77"/>
<stop offset="1" stop-color="#8CFF00"/>
</linearGradient>
<linearGradient id="paint21_linear_2441_5240" x1="137.382" y1="197.655" x2="211.206" y2="214.307" gradientUnits="userSpaceOnUse">
<stop stop-color="#054F77"/>
<stop offset="1" stop-color="#8CFF00"/>
</linearGradient>
<linearGradient id="paint22_linear_2441_5240" x1="161.85" y1="223.096" x2="235.675" y2="239.748" gradientUnits="userSpaceOnUse">
<stop stop-color="#054F77"/>
<stop offset="1" stop-color="#8CFF00"/>
</linearGradient>
<linearGradient id="paint23_linear_2441_5240" x1="133.196" y1="230.919" x2="207.02" y2="247.572" gradientUnits="userSpaceOnUse">
<stop stop-color="#054F77"/>
<stop offset="1" stop-color="#8CFF00"/>
</linearGradient>
</defs>
</svg>
