<svg width="634" height="606" viewBox="0 0 634 606" fill="none" xmlns="http://www.w3.org/2000/svg">
<rect opacity="0.5" x="0.4375" y="0.0239258" width="633.124" height="605.252" fill="url(#paint0_radial_1709_5321)"/>
<path d="M138.237 354.586L304.174 271.618" stroke="url(#paint1_linear_1709_5321)" stroke-width="1.91676" stroke-dasharray="4.79 4.79"/>
<g filter="url(#filter0_f_1709_5321)">
<path d="M311.294 225.35C320.011 226.034 328.269 229.536 334.819 235.328C341.369 241.121 345.856 248.887 347.602 257.455C349.347 266.023 348.256 274.926 344.494 282.82C340.732 290.713 334.503 297.167 326.748 301.206C318.993 305.246 310.134 306.652 301.51 305.211C292.886 303.77 284.965 299.562 278.944 293.221C272.923 286.88 269.13 278.752 268.137 270.065C267.145 261.377 269.007 252.603 273.443 245.067L278.095 247.806C274.254 254.331 272.642 261.929 273.501 269.452C274.361 276.974 277.645 284.013 282.859 289.503C288.072 294.994 294.931 298.638 302.4 299.886C309.868 301.133 317.539 299.916 324.254 296.418C330.969 292.92 336.363 287.331 339.621 280.497C342.878 273.662 343.823 265.952 342.311 258.533C340.8 251.114 336.915 244.388 331.242 239.373C325.57 234.357 318.42 231.324 310.872 230.732L311.294 225.35Z" fill="url(#paint2_linear_1709_5321)"/>
</g>
<g filter="url(#filter1_f_1709_5321)">
<path d="M353.925 221.59C363.701 232.508 369.268 246.553 369.626 261.204C369.984 275.855 365.111 290.154 355.88 301.537C346.649 312.92 333.665 320.642 319.255 323.318C304.846 325.994 289.955 323.449 277.253 316.139C264.551 308.829 254.869 297.232 249.943 283.43C245.017 269.627 245.17 254.521 250.374 240.82C255.578 227.12 265.493 215.722 278.341 208.671C291.188 201.619 306.128 199.376 320.48 202.343L318.269 213.037C306.459 210.595 294.166 212.441 283.595 218.244C273.023 224.046 264.865 233.425 260.582 244.698C256.3 255.971 256.174 268.402 260.227 279.759C264.281 291.117 272.248 300.659 282.7 306.674C293.152 312.689 305.405 314.783 317.262 312.581C329.118 310.38 339.802 304.026 347.398 294.659C354.994 285.292 359.004 273.526 358.709 261.471C358.414 249.415 353.834 237.859 345.79 228.874L353.925 221.59Z" fill="url(#paint3_linear_1709_5321)"/>
<path d="M353.925 221.59C363.701 232.508 369.268 246.553 369.626 261.204C369.984 275.855 365.111 290.154 355.88 301.537C346.649 312.92 333.665 320.642 319.255 323.318C304.846 325.994 289.955 323.449 277.253 316.139C264.551 308.829 254.869 297.232 249.943 283.43C245.017 269.627 245.17 254.521 250.374 240.82C255.578 227.12 265.493 215.722 278.341 208.671C291.188 201.619 306.128 199.376 320.48 202.343L318.269 213.037C306.459 210.595 294.166 212.441 283.595 218.244C273.023 224.046 264.865 233.425 260.582 244.698C256.3 255.971 256.174 268.402 260.227 279.759C264.281 291.117 272.248 300.659 282.7 306.674C293.152 312.689 305.405 314.783 317.262 312.581C329.118 310.38 339.802 304.026 347.398 294.659C354.994 285.292 359.004 273.526 358.709 261.471C358.414 249.415 353.834 237.859 345.79 228.874L353.925 221.59Z" fill="white" fill-opacity="0.2"/>
</g>
<circle cx="308.14" cy="265.494" r="26.5481" transform="rotate(-10.5143 308.14 265.494)" fill="#054F77"/>
<circle cx="308.14" cy="265.494" r="26.5481" transform="rotate(-10.5143 308.14 265.494)" fill="url(#paint4_radial_1709_5321)"/>
<g filter="url(#filter2_f_1709_5321)">
<path d="M298.729 267.392L307.981 276.087L320.5 252.635" stroke="#8CFF00" stroke-width="7.13516" stroke-linecap="round" stroke-linejoin="round"/>
</g>
<g filter="url(#filter3_f_1709_5321)">
<circle cx="282.517" cy="236.807" r="4.33247" transform="rotate(-25.5143 282.517 236.807)" fill="url(#paint5_linear_1709_5321)"/>
</g>
<g filter="url(#filter4_f_1709_5321)">
<circle cx="335.569" cy="213.418" r="4.33247" transform="rotate(-25.5143 335.569 213.418)" fill="url(#paint6_linear_1709_5321)"/>
</g>
<circle cx="121.481" cy="281.759" r="3.88626" transform="rotate(-22.7554 121.481 281.759)" fill="url(#paint7_linear_1709_5321)"/>
<circle cx="121.481" cy="281.759" r="3.88626" transform="rotate(-22.7554 121.481 281.759)" fill="url(#paint8_radial_1709_5321)"/>
<g opacity="0.5">
<circle cx="100.481" cy="230.842" r="9.43748" transform="rotate(-22.7554 100.481 230.842)" fill="url(#paint9_linear_1709_5321)"/>
<circle cx="100.481" cy="230.842" r="9.43748" transform="rotate(-22.7554 100.481 230.842)" fill="url(#paint10_radial_1709_5321)"/>
</g>
<g opacity="0.5">
<circle cx="95.8634" cy="470.891" r="5.90441" transform="rotate(-22.7554 95.8634 470.891)" fill="url(#paint11_linear_1709_5321)"/>
<circle cx="95.8634" cy="470.891" r="5.90441" transform="rotate(-22.7554 95.8634 470.891)" fill="url(#paint12_radial_1709_5321)"/>
</g>
<path d="M156.451 370.423L156.451 316.534C156.451 315.128 155.608 313.864 154.322 313.302L107.268 293.137L107.268 349.345L156.451 370.423ZM107.268 349.345L54.5733 370.423L54.5733 316.534C54.5727 315.846 54.7741 315.173 55.1525 314.598C55.531 314.024 56.0698 313.573 56.7022 313.302L107.268 293.137L107.268 349.345Z" fill="url(#paint13_linear_1709_5321)"/>
<g filter="url(#filter5_b_1709_5321)">
<path d="M79.2306 156.415L131.79 195.559L131.79 538.033L79.23 497.217L79.2306 156.415Z" fill="url(#paint14_linear_1709_5321)"/>
</g>
<circle cx="99.4419" cy="324.349" r="1.94421" transform="rotate(-22.7554 99.4419 324.349)" fill="url(#paint15_linear_1709_5321)"/>
<circle cx="99.4419" cy="324.349" r="1.94421" transform="rotate(-22.7554 99.4419 324.349)" fill="url(#paint16_radial_1709_5321)"/>
<circle cx="115.348" cy="410.414" r="1.94421" transform="rotate(-22.7554 115.348 410.414)" fill="url(#paint17_linear_1709_5321)"/>
<circle cx="115.348" cy="410.414" r="1.94421" transform="rotate(-22.7554 115.348 410.414)" fill="url(#paint18_radial_1709_5321)"/>
<circle cx="86.9916" cy="385.756" r="3.74959" transform="rotate(-22.7554 86.9916 385.756)" fill="url(#paint19_linear_1709_5321)"/>
<circle cx="86.9916" cy="385.756" r="3.74959" transform="rotate(-22.7554 86.9916 385.756)" fill="url(#paint20_radial_1709_5321)"/>
<g opacity="0.5" filter="url(#filter6_f_1709_5321)">
<path d="M106.46 314.559C105.621 314.559 104.878 314.326 104.23 313.858C103.592 313.391 103.093 312.727 102.732 311.867C102.381 311.006 102.206 309.981 102.206 308.792C102.206 307.602 102.381 306.577 102.732 305.717C103.093 304.857 103.592 304.193 104.23 303.725C104.878 303.258 105.621 303.024 106.46 303.024C107.31 303.024 108.053 303.258 108.691 303.725C109.328 304.193 109.822 304.857 110.172 305.717C110.534 306.577 110.714 307.602 110.714 308.792C110.714 309.981 110.534 311.006 110.172 311.867C109.822 312.727 109.328 313.391 108.691 313.858C108.053 314.326 107.31 314.559 106.46 314.559ZM103.576 308.792C103.576 309.514 103.651 310.167 103.799 310.752C103.959 311.325 104.177 311.808 104.453 312.201L107.544 304.538C107.214 304.357 106.853 304.267 106.46 304.267C105.897 304.267 105.398 304.453 104.962 304.825C104.527 305.186 104.187 305.706 103.943 306.386C103.699 307.055 103.576 307.857 103.576 308.792ZM106.46 313.333C107.023 313.333 107.522 313.152 107.958 312.791C108.393 312.419 108.733 311.893 108.977 311.214C109.222 310.534 109.344 309.727 109.344 308.792C109.344 308.07 109.264 307.422 109.105 306.848C108.956 306.264 108.744 305.775 108.468 305.382L105.361 313.062C105.701 313.242 106.067 313.333 106.46 313.333ZM106.46 335.559C105.621 335.559 104.878 335.326 104.23 334.858C103.592 334.391 103.093 333.727 102.732 332.867C102.381 332.006 102.206 330.981 102.206 329.792C102.206 328.602 102.381 327.577 102.732 326.717C103.093 325.857 103.592 325.193 104.23 324.725C104.878 324.258 105.621 324.024 106.46 324.024C107.31 324.024 108.053 324.258 108.691 324.725C109.328 325.193 109.822 325.857 110.172 326.717C110.534 327.577 110.714 328.602 110.714 329.792C110.714 330.981 110.534 332.006 110.172 332.867C109.822 333.727 109.328 334.391 108.691 334.858C108.053 335.326 107.31 335.559 106.46 335.559ZM103.576 329.792C103.576 330.514 103.651 331.167 103.799 331.752C103.959 332.325 104.177 332.808 104.453 333.201L107.544 325.538C107.214 325.357 106.853 325.267 106.46 325.267C105.897 325.267 105.398 325.453 104.962 325.825C104.527 326.186 104.187 326.706 103.943 327.386C103.699 328.055 103.576 328.857 103.576 329.792ZM106.46 334.333C107.023 334.333 107.522 334.152 107.958 333.791C108.393 333.419 108.733 332.893 108.977 332.214C109.222 331.534 109.344 330.727 109.344 329.792C109.344 329.07 109.264 328.422 109.105 327.848C108.956 327.264 108.744 326.775 108.468 326.382L105.361 334.062C105.701 334.242 106.067 334.333 106.46 334.333ZM102.796 356.368V355.157H105.679V346.793L102.955 347.319V346.299L106.126 345.216H107.018V355.157H110.061V356.368H102.796Z" fill="white"/>
<path d="M104.23 313.858L103.837 314.394L103.841 314.397L104.23 313.858ZM102.732 311.867L102.117 312.117L102.12 312.124L102.732 311.867ZM102.732 305.717L102.12 305.46L102.117 305.466L102.732 305.717ZM104.23 303.725L103.841 303.187L103.837 303.19L104.23 303.725ZM108.691 303.725L109.083 303.19L109.083 303.19L108.691 303.725ZM110.172 305.717L109.558 305.967L109.56 305.974L110.172 305.717ZM110.172 311.867L109.56 311.61L109.558 311.616L110.172 311.867ZM108.691 313.858L109.083 314.394L109.083 314.394L108.691 313.858ZM103.799 310.752L103.156 310.915L103.158 310.922L103.16 310.929L103.799 310.752ZM104.453 312.201L103.91 312.583L104.612 313.582L105.068 312.45L104.453 312.201ZM107.544 304.538L108.159 304.786L108.38 304.239L107.863 303.956L107.544 304.538ZM104.962 304.825L105.386 305.336L105.394 305.33L104.962 304.825ZM103.943 306.386L104.566 306.614L104.568 306.611L103.943 306.386ZM107.958 312.791L108.382 313.302L108.389 313.296L107.958 312.791ZM109.105 306.848L108.462 307.012L108.463 307.019L108.465 307.026L109.105 306.848ZM108.468 305.382L109.011 305.001L108.31 304.003L107.852 305.133L108.468 305.382ZM105.361 313.062L104.745 312.813L104.521 313.367L105.049 313.648L105.361 313.062ZM106.46 313.896C105.753 313.896 105.147 313.701 104.618 313.32L103.841 314.397C104.608 314.95 105.489 315.223 106.46 315.223V313.896ZM104.622 313.323C104.098 312.939 103.667 312.379 103.344 311.61L102.12 312.124C102.519 313.075 103.086 313.843 103.837 314.394L104.622 313.323ZM103.347 311.616C103.036 310.854 102.87 309.919 102.87 308.792H101.542C101.542 310.044 101.727 311.158 102.117 312.117L103.347 311.616ZM102.87 308.792C102.87 307.665 103.036 306.729 103.347 305.967L102.117 305.466C101.727 306.425 101.542 307.539 101.542 308.792H102.87ZM103.344 305.974C103.667 305.204 104.098 304.645 104.622 304.261L103.837 303.19C103.086 303.74 102.519 304.509 102.12 305.46L103.344 305.974ZM104.618 304.264C105.147 303.882 105.753 303.688 106.46 303.688V302.36C105.489 302.36 104.608 302.634 103.841 303.187L104.618 304.264ZM106.46 303.688C107.18 303.688 107.783 303.883 108.298 304.261L109.083 303.19C108.323 302.633 107.44 302.36 106.46 302.36V303.688ZM108.298 304.261C108.82 304.644 109.245 305.2 109.558 305.967L110.787 305.466C110.399 304.513 109.836 303.742 109.083 303.19L108.298 304.261ZM109.56 305.974C109.879 306.734 110.05 307.667 110.05 308.792H111.378C111.378 307.537 111.188 306.421 110.784 305.46L109.56 305.974ZM110.05 308.792C110.05 309.917 109.879 310.85 109.56 311.61L110.784 312.124C111.188 311.163 111.378 310.046 111.378 308.792H110.05ZM109.558 311.616C109.245 312.383 108.82 312.94 108.298 313.323L109.083 314.394C109.836 313.842 110.399 313.071 110.787 312.117L109.558 311.616ZM108.298 313.323C107.783 313.7 107.18 313.896 106.46 313.896V315.223C107.44 315.223 108.323 314.951 109.083 314.394L108.298 313.323ZM102.913 308.792C102.913 309.559 102.991 310.268 103.156 310.915L104.443 310.588C104.31 310.066 104.24 309.469 104.24 308.792H102.913ZM103.16 310.929C103.335 311.559 103.581 312.115 103.91 312.583L104.996 311.82C104.772 311.502 104.583 311.091 104.439 310.574L103.16 310.929ZM105.068 312.45L108.159 304.786L106.928 304.29L103.837 311.953L105.068 312.45ZM107.863 303.956C107.431 303.719 106.959 303.603 106.46 303.603V304.931C106.747 304.931 106.998 304.996 107.224 305.12L107.863 303.956ZM106.46 303.603C105.736 303.603 105.085 303.847 104.531 304.32L105.394 305.33C105.711 305.058 106.058 304.931 106.46 304.931V303.603ZM104.539 304.314C103.99 304.769 103.592 305.4 103.318 306.162L104.568 306.611C104.783 306.012 105.064 305.603 105.386 305.336L104.539 304.314ZM103.319 306.158C103.041 306.919 102.913 307.802 102.913 308.792H104.24C104.24 307.912 104.356 307.191 104.566 306.614L103.319 306.158ZM106.46 313.996C107.179 313.996 107.828 313.761 108.382 313.302L107.534 312.28C107.217 312.543 106.867 312.669 106.46 312.669V313.996ZM108.389 313.296C108.932 312.832 109.329 312.199 109.602 311.438L108.353 310.989C108.137 311.588 107.854 312.006 107.527 312.286L108.389 313.296ZM109.602 311.438C109.879 310.669 110.008 309.782 110.008 308.792H108.68C108.68 309.671 108.565 310.399 108.353 310.989L109.602 311.438ZM110.008 308.792C110.008 308.022 109.923 307.313 109.745 306.67L108.465 307.026C108.606 307.531 108.68 308.117 108.68 308.792H110.008ZM109.748 306.684C109.585 306.041 109.343 305.474 109.011 305.001L107.924 305.764C108.144 306.077 108.328 306.487 108.462 307.012L109.748 306.684ZM107.852 305.133L104.745 312.813L105.976 313.311L109.083 305.631L107.852 305.133ZM105.049 313.648C105.487 313.881 105.961 313.996 106.46 313.996V312.669C106.173 312.669 105.914 312.604 105.672 312.475L105.049 313.648ZM104.23 334.858L103.837 335.394L103.841 335.397L104.23 334.858ZM102.732 332.867L102.117 333.117L102.12 333.124L102.732 332.867ZM102.732 326.717L102.12 326.46L102.117 326.466L102.732 326.717ZM104.23 324.725L103.841 324.187L103.837 324.19L104.23 324.725ZM108.691 324.725L109.083 324.19L109.083 324.19L108.691 324.725ZM110.172 326.717L109.558 326.967L109.56 326.974L110.172 326.717ZM110.172 332.867L109.56 332.61L109.558 332.616L110.172 332.867ZM108.691 334.858L109.083 335.394L109.083 335.394L108.691 334.858ZM103.799 331.752L103.156 331.915L103.158 331.922L103.16 331.929L103.799 331.752ZM104.453 333.201L103.91 333.583L104.612 334.582L105.068 333.45L104.453 333.201ZM107.544 325.538L108.159 325.786L108.38 325.239L107.863 324.956L107.544 325.538ZM104.962 325.825L105.386 326.336L105.394 326.33L104.962 325.825ZM103.943 327.386L104.566 327.614L104.568 327.611L103.943 327.386ZM107.958 333.791L108.382 334.302L108.389 334.296L107.958 333.791ZM109.105 327.848L108.462 328.012L108.463 328.019L108.465 328.026L109.105 327.848ZM108.468 326.382L109.011 326.001L108.31 325.003L107.852 326.133L108.468 326.382ZM105.361 334.062L104.745 333.813L104.521 334.367L105.049 334.648L105.361 334.062ZM106.46 334.896C105.753 334.896 105.147 334.701 104.618 334.32L103.841 335.397C104.608 335.95 105.489 336.223 106.46 336.223V334.896ZM104.622 334.323C104.098 333.939 103.667 333.379 103.344 332.61L102.12 333.124C102.519 334.075 103.086 334.843 103.837 335.394L104.622 334.323ZM103.347 332.616C103.036 331.854 102.87 330.919 102.87 329.792H101.542C101.542 331.044 101.727 332.158 102.117 333.117L103.347 332.616ZM102.87 329.792C102.87 328.665 103.036 327.729 103.347 326.967L102.117 326.466C101.727 327.425 101.542 328.539 101.542 329.792H102.87ZM103.344 326.974C103.667 326.204 104.098 325.645 104.622 325.261L103.837 324.19C103.086 324.74 102.519 325.509 102.12 326.46L103.344 326.974ZM104.618 325.264C105.147 324.882 105.753 324.688 106.46 324.688V323.36C105.489 323.36 104.608 323.634 103.841 324.187L104.618 325.264ZM106.46 324.688C107.18 324.688 107.783 324.883 108.298 325.261L109.083 324.19C108.323 323.633 107.44 323.36 106.46 323.36V324.688ZM108.298 325.261C108.82 325.644 109.245 326.2 109.558 326.967L110.787 326.466C110.399 325.513 109.836 324.742 109.083 324.19L108.298 325.261ZM109.56 326.974C109.879 327.734 110.05 328.667 110.05 329.792H111.378C111.378 328.537 111.188 327.421 110.784 326.46L109.56 326.974ZM110.05 329.792C110.05 330.917 109.879 331.85 109.56 332.61L110.784 333.124C111.188 332.163 111.378 331.046 111.378 329.792H110.05ZM109.558 332.616C109.245 333.383 108.82 333.94 108.298 334.323L109.083 335.394C109.836 334.842 110.399 334.071 110.787 333.117L109.558 332.616ZM108.298 334.323C107.783 334.7 107.18 334.896 106.46 334.896V336.223C107.44 336.223 108.323 335.951 109.083 335.394L108.298 334.323ZM102.913 329.792C102.913 330.559 102.991 331.268 103.156 331.915L104.443 331.588C104.31 331.066 104.24 330.469 104.24 329.792H102.913ZM103.16 331.929C103.335 332.559 103.581 333.115 103.91 333.583L104.996 332.82C104.772 332.502 104.583 332.091 104.439 331.574L103.16 331.929ZM105.068 333.45L108.159 325.786L106.928 325.29L103.837 332.953L105.068 333.45ZM107.863 324.956C107.431 324.719 106.959 324.603 106.46 324.603V325.931C106.747 325.931 106.998 325.996 107.224 326.12L107.863 324.956ZM106.46 324.603C105.736 324.603 105.085 324.847 104.531 325.32L105.394 326.33C105.711 326.058 106.058 325.931 106.46 325.931V324.603ZM104.539 325.314C103.99 325.769 103.592 326.4 103.318 327.162L104.568 327.611C104.783 327.012 105.064 326.603 105.386 326.336L104.539 325.314ZM103.319 327.158C103.041 327.919 102.913 328.802 102.913 329.792H104.24C104.24 328.912 104.356 328.191 104.566 327.614L103.319 327.158ZM106.46 334.996C107.179 334.996 107.828 334.761 108.382 334.302L107.534 333.28C107.217 333.543 106.867 333.669 106.46 333.669V334.996ZM108.389 334.296C108.932 333.832 109.329 333.199 109.602 332.438L108.353 331.989C108.137 332.588 107.854 333.006 107.527 333.286L108.389 334.296ZM109.602 332.438C109.879 331.669 110.008 330.782 110.008 329.792H108.68C108.68 330.671 108.565 331.399 108.353 331.989L109.602 332.438ZM110.008 329.792C110.008 329.022 109.923 328.313 109.745 327.67L108.465 328.026C108.606 328.531 108.68 329.117 108.68 329.792H110.008ZM109.748 327.684C109.585 327.041 109.343 326.474 109.011 326.001L107.924 326.764C108.144 327.077 108.328 327.487 108.462 328.012L109.748 327.684ZM107.852 326.133L104.745 333.813L105.976 334.311L109.083 326.631L107.852 326.133ZM105.049 334.648C105.487 334.881 105.961 334.996 106.46 334.996V333.669C106.173 333.669 105.914 333.604 105.672 333.475L105.049 334.648ZM102.796 356.368H102.132V357.032H102.796V356.368ZM102.796 355.157V354.493H102.132V355.157H102.796ZM105.679 355.157V355.821H106.343V355.157H105.679ZM105.679 346.793H106.343V345.989L105.554 346.141L105.679 346.793ZM102.955 347.319H102.291V348.123L103.081 347.97L102.955 347.319ZM102.955 346.299L102.74 345.671L102.291 345.824V346.299H102.955ZM106.126 345.216V344.552H106.015L105.911 344.587L106.126 345.216ZM107.018 345.216H107.682V344.552H107.018V345.216ZM107.018 355.157H106.354V355.821H107.018V355.157ZM110.061 355.157H110.725V354.493H110.061V355.157ZM110.061 356.368V357.032H110.725V356.368H110.061ZM103.46 356.368V355.157H102.132V356.368H103.46ZM102.796 355.821H105.679V354.493H102.796V355.821ZM106.343 355.157V346.793H105.016V355.157H106.343ZM105.554 346.141L102.829 346.667L103.081 347.97L105.805 347.445L105.554 346.141ZM103.619 347.319V346.299H102.291V347.319H103.619ZM103.17 346.927L106.34 345.844L105.911 344.587L102.74 345.671L103.17 346.927ZM106.126 345.879H107.018V344.552H106.126V345.879ZM106.354 345.216V355.157H107.682V345.216H106.354ZM107.018 355.821H110.061V354.493H107.018V355.821ZM109.397 355.157V356.368H110.725V355.157H109.397ZM110.061 355.704H102.796V357.032H110.061V355.704Z" fill="#8CFF00"/>
</g>
<g opacity="0.5" filter="url(#filter7_f_1709_5321)">
<path d="M88.6205 281.172C87.7814 281.172 87.0379 280.938 86.39 280.471C85.7527 280.004 85.2535 279.34 84.8923 278.48C84.5418 277.619 84.3666 276.594 84.3666 275.405C84.3666 274.215 84.5418 273.19 84.8923 272.33C85.2535 271.469 85.7527 270.805 86.39 270.338C87.0379 269.871 87.7814 269.637 88.6205 269.637C89.4702 269.637 90.2137 269.871 90.851 270.338C91.4883 270.805 91.9822 271.469 92.3328 272.33C92.6939 273.19 92.8745 274.215 92.8745 275.405C92.8745 276.594 92.6939 277.619 92.3328 278.48C91.9822 279.34 91.4883 280.004 90.851 280.471C90.2137 280.938 89.4702 281.172 88.6205 281.172ZM85.7368 275.405C85.7368 276.127 85.8111 276.78 85.9598 277.364C86.1191 277.938 86.3369 278.421 86.613 278.814L89.7039 271.151C89.3746 270.97 89.0135 270.88 88.6205 270.88C88.0576 270.88 87.5584 271.066 87.1229 271.437C86.6874 271.799 86.3475 272.319 86.1032 272.999C85.8589 273.668 85.7368 274.47 85.7368 275.405ZM88.6205 279.945C89.1835 279.945 89.6827 279.765 90.1182 279.404C90.5536 279.032 90.8935 278.506 91.1378 277.826C91.3821 277.147 91.5043 276.339 91.5043 275.405C91.5043 274.682 91.4246 274.034 91.2653 273.461C91.1166 272.877 90.9042 272.388 90.628 271.995L87.5212 279.675C87.8611 279.855 88.2275 279.945 88.6205 279.945ZM94.5093 280.981V279.77H97.393V271.406L94.6686 271.931V270.912L97.8391 269.828H98.7313V279.77H101.774V280.981H94.5093ZM88.6205 302.172C87.7814 302.172 87.0379 301.938 86.39 301.471C85.7527 301.004 85.2535 300.34 84.8923 299.48C84.5418 298.619 84.3666 297.594 84.3666 296.405C84.3666 295.215 84.5418 294.19 84.8923 293.33C85.2535 292.469 85.7527 291.805 86.39 291.338C87.0379 290.871 87.7814 290.637 88.6205 290.637C89.4702 290.637 90.2137 290.871 90.851 291.338C91.4883 291.805 91.9822 292.469 92.3328 293.33C92.6939 294.19 92.8745 295.215 92.8745 296.405C92.8745 297.594 92.6939 298.619 92.3328 299.48C91.9822 300.34 91.4883 301.004 90.851 301.471C90.2137 301.938 89.4702 302.172 88.6205 302.172ZM85.7368 296.405C85.7368 297.127 85.8111 297.78 85.9598 298.364C86.1191 298.938 86.3369 299.421 86.613 299.814L89.7039 292.151C89.3746 291.97 89.0135 291.88 88.6205 291.88C88.0576 291.88 87.5584 292.066 87.1229 292.437C86.6874 292.799 86.3475 293.319 86.1032 293.999C85.8589 294.668 85.7368 295.47 85.7368 296.405ZM88.6205 300.945C89.1835 300.945 89.6827 300.765 90.1182 300.404C90.5536 300.032 90.8935 299.506 91.1378 298.826C91.3821 298.147 91.5043 297.339 91.5043 296.405C91.5043 295.682 91.4246 295.034 91.2653 294.461C91.1166 293.877 90.9042 293.388 90.628 292.995L87.5212 300.675C87.8611 300.855 88.2275 300.945 88.6205 300.945ZM94.5093 301.981V300.77H97.393V292.406L94.6686 292.931V291.912L97.8391 290.828H98.7313V300.77H101.774V301.981H94.5093Z" fill="white"/>
<path d="M86.39 280.471L85.9974 281.006L86.0016 281.01L86.39 280.471ZM84.8923 278.48L84.2775 278.73L84.2802 278.737L84.8923 278.48ZM84.8923 272.33L84.2802 272.073L84.2776 272.079L84.8923 272.33ZM86.39 270.338L86.0016 269.8L85.9974 269.803L86.39 270.338ZM90.851 270.338L91.2436 269.803L91.2436 269.803L90.851 270.338ZM92.3328 272.33L91.7179 272.58L91.7206 272.587L92.3328 272.33ZM92.3328 278.48L91.7206 278.223L91.718 278.229L92.3328 278.48ZM90.851 280.471L91.2436 281.006L91.2436 281.006L90.851 280.471ZM85.9598 277.364L85.3165 277.528L85.3183 277.535L85.3202 277.542L85.9598 277.364ZM86.613 278.814L86.0699 279.196L86.7719 280.195L87.2287 279.062L86.613 278.814ZM89.7039 271.151L90.3196 271.399L90.5401 270.852L90.0231 270.569L89.7039 271.151ZM87.1229 271.437L87.5467 271.949L87.5539 271.942L87.1229 271.437ZM86.1032 272.999L86.7268 273.227L86.7279 273.223L86.1032 272.999ZM90.1182 279.404L90.542 279.915L90.5492 279.909L90.1182 279.404ZM91.2653 273.461L90.622 273.625L90.6237 273.632L90.6257 273.639L91.2653 273.461ZM90.628 271.995L91.1711 271.613L90.47 270.616L90.0126 271.746L90.628 271.995ZM87.5212 279.675L86.9058 279.426L86.6814 279.98L87.2097 280.261L87.5212 279.675ZM88.6205 280.508C87.9134 280.508 87.3073 280.314 86.7783 279.933L86.0016 281.01C86.7685 281.563 87.6495 281.836 88.6205 281.836V280.508ZM86.7826 279.936C86.2586 279.552 85.8275 278.992 85.5045 278.223L84.2802 278.737C84.6795 279.688 85.2468 280.456 85.9974 281.006L86.7826 279.936ZM85.5071 278.229C85.1967 277.467 85.0304 276.531 85.0304 275.405H83.7027C83.7027 276.657 83.887 277.771 84.2776 278.73L85.5071 278.229ZM85.0304 275.405C85.0304 274.278 85.1967 273.342 85.5071 272.58L84.2776 272.079C83.887 273.038 83.7027 274.152 83.7027 275.405H85.0304ZM85.5045 272.587C85.8275 271.817 86.2586 271.258 86.7826 270.873L85.9974 269.803C85.2468 270.353 84.6795 271.122 84.2802 272.073L85.5045 272.587ZM86.7783 270.877C87.3073 270.495 87.9134 270.301 88.6205 270.301V268.973C87.6495 268.973 86.7685 269.247 86.0016 269.8L86.7783 270.877ZM88.6205 270.301C89.3403 270.301 89.9438 270.496 90.4585 270.873L91.2436 269.803C90.4837 269.246 89.6002 268.973 88.6205 268.973V270.301ZM90.4585 270.873C90.9805 271.256 91.4055 271.813 91.718 272.58L92.9475 272.079C92.559 271.125 91.9961 270.355 91.2436 269.803L90.4585 270.873ZM91.7206 272.587C92.0396 273.347 92.2106 274.28 92.2106 275.405H93.5383C93.5383 274.15 93.3481 273.033 92.9449 272.073L91.7206 272.587ZM92.2106 275.405C92.2106 276.529 92.0396 277.463 91.7206 278.223L92.9449 278.737C93.3481 277.776 93.5383 276.659 93.5383 275.405H92.2106ZM91.718 278.229C91.4055 278.996 90.9805 279.553 90.4585 279.936L91.2436 281.006C91.9961 280.455 92.559 279.684 92.9475 278.73L91.718 278.229ZM90.4585 279.936C89.9438 280.313 89.3403 280.508 88.6205 280.508V281.836C89.6002 281.836 90.4837 281.564 91.2436 281.006L90.4585 279.936ZM85.0729 275.405C85.0729 276.172 85.1518 276.881 85.3165 277.528L86.6031 277.201C86.4704 276.679 86.4006 276.082 86.4006 275.405H85.0729ZM85.3202 277.542C85.4951 278.172 85.7411 278.728 86.0699 279.196L87.1562 278.432C86.9326 278.114 86.7432 277.704 86.5994 277.187L85.3202 277.542ZM87.2287 279.062L90.3196 271.399L89.0883 270.902L85.9974 278.566L87.2287 279.062ZM90.0231 270.569C89.5914 270.332 89.1197 270.216 88.6205 270.216V271.544C88.9073 271.544 89.1579 271.608 89.3847 271.733L90.0231 270.569ZM88.6205 270.216C87.8966 270.216 87.2453 270.46 86.6919 270.933L87.5539 271.942C87.8714 271.671 88.2185 271.544 88.6205 271.544V270.216ZM86.6991 270.926C86.1502 271.382 85.752 272.013 85.4785 272.774L86.7279 273.223C86.943 272.625 87.2246 272.216 87.5466 271.948L86.6991 270.926ZM85.4796 272.771C85.2018 273.532 85.0729 274.415 85.0729 275.405H86.4006C86.4006 274.525 86.516 273.804 86.7268 273.227L85.4796 272.771ZM88.6205 280.609C89.339 280.609 89.988 280.374 90.5419 279.915L89.6944 278.893C89.3774 279.156 89.0279 279.282 88.6205 279.282V280.609ZM90.5492 279.909C91.0927 279.445 91.4892 278.811 91.7626 278.051L90.5131 277.602C90.2978 278.201 90.0146 278.619 89.6871 278.899L90.5492 279.909ZM91.7626 278.051C92.0391 277.281 92.1681 276.395 92.1681 275.405H90.8404C90.8404 276.284 90.7252 277.012 90.5131 277.602L91.7626 278.051ZM92.1681 275.405C92.1681 274.635 92.0833 273.925 91.9049 273.283L90.6257 273.639C90.7659 274.144 90.8404 274.73 90.8404 275.405H92.1681ZM91.9086 273.297C91.7449 272.654 91.5038 272.087 91.1711 271.613L90.0848 272.377C90.3045 272.689 90.4883 273.099 90.622 273.625L91.9086 273.297ZM90.0126 271.746L86.9058 279.426L88.1366 279.923L91.2434 272.244L90.0126 271.746ZM87.2097 280.261C87.6476 280.493 88.1213 280.609 88.6205 280.609V279.282C88.3337 279.282 88.0745 279.217 87.8326 279.088L87.2097 280.261ZM94.5093 280.981H93.8454V281.645H94.5093V280.981ZM94.5093 279.77V279.106H93.8454V279.77H94.5093ZM97.393 279.77V280.434H98.0569V279.77H97.393ZM97.393 271.406H98.0569V270.601L97.2672 270.754L97.393 271.406ZM94.6686 271.931H94.0047V272.736L94.7944 272.583L94.6686 271.931ZM94.6686 270.912L94.4539 270.284L94.0047 270.437V270.912H94.6686ZM97.8391 269.828V269.164H97.7288L97.6245 269.2L97.8391 269.828ZM98.7313 269.828H99.3952V269.164H98.7313V269.828ZM98.7313 279.77H98.0675V280.434H98.7313V279.77ZM101.774 279.77H102.438V279.106H101.774V279.77ZM101.774 280.981V281.645H102.438V280.981H101.774ZM95.1731 280.981V279.77H93.8454V280.981H95.1731ZM94.5093 280.434H97.393V279.106H94.5093V280.434ZM98.0569 279.77V271.406H96.7292V279.77H98.0569ZM97.2672 270.754L94.5428 271.28L94.7944 272.583L97.5188 272.057L97.2672 270.754ZM95.3324 271.931V270.912H94.0047V271.931H95.3324ZM94.8832 271.54L98.0538 270.456L97.6245 269.2L94.4539 270.284L94.8832 271.54ZM97.8391 270.492H98.7313V269.164H97.8391V270.492ZM98.0675 269.828V279.77H99.3952V269.828H98.0675ZM98.7313 280.434H101.774V279.106H98.7313V280.434ZM101.111 279.77V280.981H102.438V279.77H101.111ZM101.774 280.317H94.5093V281.645H101.774V280.317ZM86.39 301.471L85.9974 302.006L86.0016 302.01L86.39 301.471ZM84.8923 299.48L84.2775 299.73L84.2802 299.737L84.8923 299.48ZM84.8923 293.33L84.2802 293.073L84.2776 293.079L84.8923 293.33ZM86.39 291.338L86.0016 290.8L85.9974 290.803L86.39 291.338ZM90.851 291.338L91.2436 290.803L91.2436 290.803L90.851 291.338ZM92.3328 293.33L91.7179 293.58L91.7206 293.587L92.3328 293.33ZM92.3328 299.48L91.7206 299.223L91.718 299.229L92.3328 299.48ZM90.851 301.471L91.2436 302.006L91.2436 302.006L90.851 301.471ZM85.9598 298.364L85.3165 298.528L85.3183 298.535L85.3202 298.542L85.9598 298.364ZM86.613 299.814L86.0699 300.196L86.7719 301.195L87.2287 300.062L86.613 299.814ZM89.7039 292.151L90.3196 292.399L90.5401 291.852L90.0231 291.569L89.7039 292.151ZM87.1229 292.437L87.5467 292.949L87.5539 292.942L87.1229 292.437ZM86.1032 293.999L86.7268 294.227L86.7279 294.223L86.1032 293.999ZM90.1182 300.404L90.542 300.915L90.5492 300.909L90.1182 300.404ZM91.2653 294.461L90.622 294.625L90.6237 294.632L90.6257 294.639L91.2653 294.461ZM90.628 292.995L91.1711 292.613L90.47 291.616L90.0126 292.746L90.628 292.995ZM87.5212 300.675L86.9058 300.426L86.6814 300.98L87.2097 301.261L87.5212 300.675ZM88.6205 301.508C87.9134 301.508 87.3073 301.314 86.7783 300.933L86.0016 302.01C86.7685 302.563 87.6495 302.836 88.6205 302.836V301.508ZM86.7826 300.936C86.2586 300.552 85.8275 299.992 85.5045 299.223L84.2802 299.737C84.6795 300.688 85.2468 301.456 85.9974 302.006L86.7826 300.936ZM85.5071 299.229C85.1967 298.467 85.0304 297.531 85.0304 296.405H83.7027C83.7027 297.657 83.887 298.771 84.2776 299.73L85.5071 299.229ZM85.0304 296.405C85.0304 295.278 85.1967 294.342 85.5071 293.58L84.2776 293.079C83.887 294.038 83.7027 295.152 83.7027 296.405H85.0304ZM85.5045 293.587C85.8275 292.817 86.2586 292.258 86.7826 291.873L85.9974 290.803C85.2468 291.353 84.6795 292.122 84.2802 293.073L85.5045 293.587ZM86.7783 291.877C87.3073 291.495 87.9134 291.301 88.6205 291.301V289.973C87.6495 289.973 86.7685 290.247 86.0016 290.8L86.7783 291.877ZM88.6205 291.301C89.3403 291.301 89.9438 291.496 90.4585 291.873L91.2436 290.803C90.4837 290.246 89.6002 289.973 88.6205 289.973V291.301ZM90.4585 291.873C90.9805 292.256 91.4055 292.813 91.718 293.58L92.9475 293.079C92.559 292.125 91.9961 291.355 91.2436 290.803L90.4585 291.873ZM91.7206 293.587C92.0396 294.347 92.2106 295.28 92.2106 296.405H93.5383C93.5383 295.15 93.3481 294.033 92.9449 293.073L91.7206 293.587ZM92.2106 296.405C92.2106 297.529 92.0396 298.463 91.7206 299.223L92.9449 299.737C93.3481 298.776 93.5383 297.659 93.5383 296.405H92.2106ZM91.718 299.229C91.4055 299.996 90.9805 300.553 90.4585 300.936L91.2436 302.006C91.9961 301.455 92.559 300.684 92.9475 299.73L91.718 299.229ZM90.4585 300.936C89.9438 301.313 89.3403 301.508 88.6205 301.508V302.836C89.6002 302.836 90.4837 302.564 91.2436 302.006L90.4585 300.936ZM85.0729 296.405C85.0729 297.172 85.1518 297.881 85.3165 298.528L86.6031 298.201C86.4704 297.679 86.4006 297.082 86.4006 296.405H85.0729ZM85.3202 298.542C85.4951 299.172 85.7411 299.728 86.0699 300.196L87.1562 299.432C86.9326 299.114 86.7432 298.704 86.5994 298.187L85.3202 298.542ZM87.2287 300.062L90.3196 292.399L89.0883 291.902L85.9974 299.566L87.2287 300.062ZM90.0231 291.569C89.5914 291.332 89.1197 291.216 88.6205 291.216V292.544C88.9073 292.544 89.1579 292.608 89.3847 292.733L90.0231 291.569ZM88.6205 291.216C87.8966 291.216 87.2453 291.46 86.6919 291.933L87.5539 292.942C87.8714 292.671 88.2185 292.544 88.6205 292.544V291.216ZM86.6991 291.926C86.1502 292.382 85.752 293.013 85.4785 293.774L86.7279 294.223C86.943 293.625 87.2246 293.216 87.5466 292.948L86.6991 291.926ZM85.4796 293.771C85.2018 294.532 85.0729 295.415 85.0729 296.405H86.4006C86.4006 295.525 86.516 294.804 86.7268 294.227L85.4796 293.771ZM88.6205 301.609C89.339 301.609 89.988 301.374 90.5419 300.915L89.6944 299.893C89.3774 300.156 89.0279 300.282 88.6205 300.282V301.609ZM90.5492 300.909C91.0927 300.445 91.4892 299.811 91.7626 299.051L90.5131 298.602C90.2978 299.201 90.0146 299.619 89.6871 299.899L90.5492 300.909ZM91.7626 299.051C92.0391 298.281 92.1681 297.395 92.1681 296.405H90.8404C90.8404 297.284 90.7252 298.012 90.5131 298.602L91.7626 299.051ZM92.1681 296.405C92.1681 295.635 92.0833 294.925 91.9049 294.283L90.6257 294.639C90.7659 295.144 90.8404 295.73 90.8404 296.405H92.1681ZM91.9086 294.297C91.7449 293.654 91.5038 293.087 91.1711 292.613L90.0848 293.377C90.3045 293.689 90.4883 294.099 90.622 294.625L91.9086 294.297ZM90.0126 292.746L86.9058 300.426L88.1366 300.923L91.2434 293.244L90.0126 292.746ZM87.2097 301.261C87.6476 301.493 88.1213 301.609 88.6205 301.609V300.282C88.3337 300.282 88.0745 300.217 87.8326 300.088L87.2097 301.261ZM94.5093 301.981H93.8454V302.645H94.5093V301.981ZM94.5093 300.77V300.106H93.8454V300.77H94.5093ZM97.393 300.77V301.434H98.0569V300.77H97.393ZM97.393 292.406H98.0569V291.601L97.2672 291.754L97.393 292.406ZM94.6686 292.931H94.0047V293.736L94.7944 293.583L94.6686 292.931ZM94.6686 291.912L94.4539 291.284L94.0047 291.437V291.912H94.6686ZM97.8391 290.828V290.164H97.7288L97.6245 290.2L97.8391 290.828ZM98.7313 290.828H99.3952V290.164H98.7313V290.828ZM98.7313 300.77H98.0675V301.434H98.7313V300.77ZM101.774 300.77H102.438V300.106H101.774V300.77ZM101.774 301.981V302.645H102.438V301.981H101.774ZM95.1731 301.981V300.77H93.8454V301.981H95.1731ZM94.5093 301.434H97.393V300.106H94.5093V301.434ZM98.0569 300.77V292.406H96.7292V300.77H98.0569ZM97.2672 291.754L94.5428 292.28L94.7944 293.583L97.5188 293.057L97.2672 291.754ZM95.3324 292.931V291.912H94.0047V292.931H95.3324ZM94.8832 292.54L98.0538 291.456L97.6245 290.2L94.4539 291.284L94.8832 292.54ZM97.8391 291.492H98.7313V290.164H97.8391V291.492ZM98.0675 290.828V300.77H99.3952V290.828H98.0675ZM98.7313 301.434H101.774V300.106H98.7313V301.434ZM101.111 300.77V301.981H102.438V300.77H101.111ZM101.774 301.317H94.5093V302.645H101.774V301.317Z" fill="#8CFF00"/>
</g>
<g opacity="0.5" filter="url(#filter8_f_1709_5321)">
<path d="M88.7004 420.905V419.694H91.5842V411.329L88.8598 411.855V410.836L92.0303 409.752H92.9225V419.694H95.9656V420.905H88.7004Z" fill="white"/>
<path d="M88.7004 420.905H88.0366V421.569H88.7004V420.905ZM88.7004 419.694V419.03H88.0366V419.694H88.7004ZM91.5842 419.694V420.358H92.248V419.694H91.5842ZM91.5842 411.329H92.248V410.525L91.4584 410.678L91.5842 411.329ZM88.8598 411.855H88.1959V412.659L88.9856 412.507L88.8598 411.855ZM88.8598 410.836L88.6451 410.207L88.1959 410.361V410.836H88.8598ZM92.0303 409.752V409.088H91.92L91.8156 409.124L92.0303 409.752ZM92.9225 409.752H93.5864V409.088H92.9225V409.752ZM92.9225 419.694H92.2587V420.358H92.9225V419.694ZM95.9656 419.694H96.6294V419.03H95.9656V419.694ZM95.9656 420.905V421.569H96.6294V420.905H95.9656ZM89.3643 420.905V419.694H88.0366V420.905H89.3643ZM88.7004 420.358H91.5842V419.03H88.7004V420.358ZM92.248 419.694V411.329H90.9203V419.694H92.248ZM91.4584 410.678L88.734 411.203L88.9856 412.507L91.71 411.981L91.4584 410.678ZM89.5236 411.855V410.836H88.1959V411.855H89.5236ZM89.0744 411.464L92.245 410.38L91.8156 409.124L88.6451 410.207L89.0744 411.464ZM92.0303 410.416H92.9225V409.088H92.0303V410.416ZM92.2587 409.752V419.694H93.5864V409.752H92.2587ZM92.9225 420.358H95.9656V419.03H92.9225V420.358ZM95.3017 419.694V420.905H96.6294V419.694H95.3017ZM95.9656 420.241H88.7004V421.569H95.9656V420.241Z" fill="#8CFF00"/>
</g>
<g opacity="0.5" filter="url(#filter9_f_1709_5321)">
<path d="M115.399 444.213C114.56 444.213 113.817 443.979 113.169 443.512C112.531 443.044 112.032 442.38 111.671 441.52C111.321 440.66 111.145 439.635 111.145 438.445C111.145 437.256 111.321 436.231 111.671 435.37C112.032 434.51 112.531 433.846 113.169 433.379C113.817 432.911 114.56 432.678 115.399 432.678C116.249 432.678 116.993 432.911 117.63 433.379C118.267 433.846 118.761 434.51 119.112 435.37C119.473 436.231 119.653 437.256 119.653 438.445C119.653 439.635 119.473 440.66 119.112 441.52C118.761 442.38 118.267 443.044 117.63 443.512C116.993 443.979 116.249 444.213 115.399 444.213ZM112.516 438.445C112.516 439.167 112.59 439.821 112.739 440.405C112.898 440.978 113.116 441.462 113.392 441.855L116.483 434.191C116.153 434.011 115.792 433.92 115.399 433.92C114.836 433.92 114.337 434.106 113.902 434.478C113.466 434.839 113.126 435.36 112.882 436.039C112.638 436.709 112.516 437.51 112.516 438.445ZM115.399 442.986C115.962 442.986 116.461 442.805 116.897 442.444C117.332 442.072 117.672 441.547 117.917 440.867C118.161 440.187 118.283 439.38 118.283 438.445C118.283 437.723 118.203 437.075 118.044 436.501C117.895 435.917 117.683 435.429 117.407 435.036L114.3 442.715C114.64 442.896 115.006 442.986 115.399 442.986ZM121.288 444.021V442.811H124.172V434.446L121.447 434.972V433.952L124.618 432.869H125.51V442.811H128.553V444.021H121.288ZM115.399 465.213C114.56 465.213 113.817 464.979 113.169 464.512C112.531 464.044 112.032 463.38 111.671 462.52C111.321 461.66 111.145 460.635 111.145 459.445C111.145 458.256 111.321 457.231 111.671 456.37C112.032 455.51 112.531 454.846 113.169 454.379C113.817 453.911 114.56 453.678 115.399 453.678C116.249 453.678 116.993 453.911 117.63 454.379C118.267 454.846 118.761 455.51 119.112 456.37C119.473 457.231 119.653 458.256 119.653 459.445C119.653 460.635 119.473 461.66 119.112 462.52C118.761 463.38 118.267 464.044 117.63 464.512C116.993 464.979 116.249 465.213 115.399 465.213ZM112.516 459.445C112.516 460.167 112.59 460.821 112.739 461.405C112.898 461.978 113.116 462.462 113.392 462.855L116.483 455.191C116.153 455.011 115.792 454.92 115.399 454.92C114.836 454.92 114.337 455.106 113.902 455.478C113.466 455.839 113.126 456.36 112.882 457.039C112.638 457.709 112.516 458.51 112.516 459.445ZM115.399 463.986C115.962 463.986 116.461 463.805 116.897 463.444C117.332 463.072 117.672 462.547 117.917 461.867C118.161 461.187 118.283 460.38 118.283 459.445C118.283 458.723 118.203 458.075 118.044 457.501C117.895 456.917 117.683 456.429 117.407 456.036L114.3 463.715C114.64 463.896 115.006 463.986 115.399 463.986ZM121.288 465.021V463.811H124.172V455.446L121.447 455.972V454.952L124.618 453.869H125.51V463.811H128.553V465.021H121.288Z" fill="white"/>
<path d="M113.169 443.512L112.776 444.047L112.78 444.05L113.169 443.512ZM111.671 441.52L111.056 441.771L111.059 441.777L111.671 441.52ZM111.671 435.37L111.059 435.113L111.056 435.12L111.671 435.37ZM113.169 433.379L112.78 432.84L112.776 432.843L113.169 433.379ZM117.63 433.379L118.022 432.843L118.022 432.843L117.63 433.379ZM119.112 435.37L118.497 435.621L118.499 435.627L119.112 435.37ZM119.112 441.52L118.499 441.263L118.497 441.27L119.112 441.52ZM117.63 443.512L118.022 444.047L118.022 444.047L117.63 443.512ZM112.739 440.405L112.095 440.569L112.097 440.576L112.099 440.583L112.739 440.405ZM113.392 441.855L112.849 442.236L113.551 443.235L114.008 442.103L113.392 441.855ZM116.483 434.191L117.098 434.44L117.319 433.893L116.802 433.609L116.483 434.191ZM113.902 434.478L114.325 434.989L114.333 434.983L113.902 434.478ZM112.882 436.039L113.506 436.267L113.507 436.264L112.882 436.039ZM116.897 442.444L117.321 442.955L117.328 442.949L116.897 442.444ZM118.044 436.501L117.401 436.665L117.403 436.672L117.404 436.679L118.044 436.501ZM117.407 435.036L117.95 434.654L117.249 433.656L116.791 434.787L117.407 435.036ZM114.3 442.715L113.685 442.466L113.46 443.021L113.989 443.301L114.3 442.715ZM115.399 443.549C114.692 443.549 114.086 443.355 113.557 442.973L112.78 444.05C113.547 444.603 114.428 444.877 115.399 444.877V443.549ZM113.561 442.976C113.037 442.592 112.606 442.033 112.283 441.263L111.059 441.777C111.458 442.728 112.026 443.497 112.776 444.047L113.561 442.976ZM112.286 441.27C111.976 440.508 111.809 439.572 111.809 438.445H110.482C110.482 439.698 110.666 440.812 111.056 441.771L112.286 441.27ZM111.809 438.445C111.809 437.318 111.976 436.383 112.286 435.621L111.056 435.12C110.666 436.079 110.482 437.193 110.482 438.445H111.809ZM112.283 435.627C112.606 434.858 113.037 434.298 113.561 433.914L112.776 432.843C112.026 433.394 111.458 434.162 111.059 435.113L112.283 435.627ZM113.557 433.917C114.086 433.536 114.692 433.341 115.399 433.341V432.014C114.428 432.014 113.547 432.287 112.78 432.84L113.557 433.917ZM115.399 433.341C116.119 433.341 116.723 433.537 117.237 433.914L118.022 432.843C117.263 432.286 116.379 432.014 115.399 432.014V433.341ZM117.237 433.914C117.759 434.297 118.184 434.854 118.497 435.621L119.726 435.12C119.338 434.166 118.775 433.395 118.022 432.843L117.237 433.914ZM118.499 435.627C118.818 436.387 118.989 437.32 118.989 438.445H120.317C120.317 437.191 120.127 436.074 119.724 435.113L118.499 435.627ZM118.989 438.445C118.989 439.57 118.818 440.503 118.499 441.263L119.724 441.777C120.127 440.816 120.317 439.7 120.317 438.445H118.989ZM118.497 441.27C118.184 442.037 117.759 442.593 117.237 442.976L118.022 444.047C118.775 443.495 119.338 442.724 119.726 441.771L118.497 441.27ZM117.237 442.976C116.723 443.354 116.119 443.549 115.399 443.549V444.877C116.379 444.877 117.263 444.604 118.022 444.047L117.237 442.976ZM111.852 438.445C111.852 439.212 111.931 439.922 112.095 440.569L113.382 440.241C113.249 439.72 113.179 439.123 113.179 438.445H111.852ZM112.099 440.583C112.274 441.212 112.52 441.769 112.849 442.236L113.935 441.473C113.711 441.155 113.522 440.745 113.378 440.227L112.099 440.583ZM114.008 442.103L117.098 434.44L115.867 433.943L112.776 441.606L114.008 442.103ZM116.802 433.609C116.37 433.372 115.899 433.257 115.399 433.257V434.584C115.686 434.584 115.937 434.649 116.164 434.773L116.802 433.609ZM115.399 433.257C114.675 433.257 114.024 433.501 113.471 433.973L114.333 434.983C114.65 434.712 114.997 434.584 115.399 434.584V433.257ZM113.478 433.967C112.929 434.422 112.531 435.054 112.257 435.815L113.507 436.264C113.722 435.665 114.003 435.256 114.325 434.989L113.478 433.967ZM112.258 435.812C111.981 436.573 111.852 437.456 111.852 438.445H113.179C113.179 437.565 113.295 436.844 113.506 436.267L112.258 435.812ZM115.399 443.65C116.118 443.65 116.767 443.415 117.321 442.955L116.473 441.933C116.156 442.196 115.807 442.322 115.399 442.322V443.65ZM117.328 442.949C117.871 442.485 118.268 441.852 118.541 441.091L117.292 440.642C117.077 441.241 116.793 441.66 116.466 441.939L117.328 442.949ZM118.541 441.091C118.818 440.322 118.947 439.435 118.947 438.445H117.619C117.619 439.325 117.504 440.052 117.292 440.642L118.541 441.091ZM118.947 438.445C118.947 437.675 118.862 436.966 118.684 436.324L117.404 436.679C117.545 437.184 117.619 437.771 117.619 438.445H118.947ZM118.687 436.338C118.524 435.694 118.283 435.127 117.95 434.654L116.864 435.417C117.083 435.73 117.267 436.14 117.401 436.665L118.687 436.338ZM116.791 434.787L113.685 442.466L114.915 442.964L118.022 435.285L116.791 434.787ZM113.989 443.301C114.426 443.534 114.9 443.65 115.399 443.65V442.322C115.113 442.322 114.853 442.257 114.611 442.129L113.989 443.301ZM121.288 444.021H120.624V444.685H121.288V444.021ZM121.288 442.811V442.147H120.624V442.811H121.288ZM124.172 442.811V443.474H124.836V442.811H124.172ZM124.172 434.446H124.836V433.642L124.046 433.794L124.172 434.446ZM121.447 434.972H120.784V435.776L121.573 435.624L121.447 434.972ZM121.447 433.952L121.233 433.324L120.784 433.478V433.952H121.447ZM124.618 432.869V432.205H124.508L124.403 432.241L124.618 432.869ZM125.51 432.869H126.174V432.205H125.51V432.869ZM125.51 442.811H124.846V443.474H125.51V442.811ZM128.553 442.811H129.217V442.147H128.553V442.811ZM128.553 444.021V444.685H129.217V444.021H128.553ZM121.952 444.021V442.811H120.624V444.021H121.952ZM121.288 443.474H124.172V442.147H121.288V443.474ZM124.836 442.811V434.446H123.508V442.811H124.836ZM124.046 433.794L121.322 434.32L121.573 435.624L124.298 435.098L124.046 433.794ZM122.111 434.972V433.952H120.784V434.972H122.111ZM121.662 434.58L124.833 433.497L124.403 432.241L121.233 433.324L121.662 434.58ZM124.618 433.533H125.51V432.205H124.618V433.533ZM124.846 432.869V442.811H126.174V432.869H124.846ZM125.51 443.474H128.553V442.147H125.51V443.474ZM127.889 442.811V444.021H129.217V442.811H127.889ZM128.553 443.358H121.288V444.685H128.553V443.358ZM113.169 464.512L112.776 465.047L112.78 465.05L113.169 464.512ZM111.671 462.52L111.056 462.771L111.059 462.777L111.671 462.52ZM111.671 456.37L111.059 456.113L111.056 456.12L111.671 456.37ZM113.169 454.379L112.78 453.84L112.776 453.843L113.169 454.379ZM117.63 454.379L118.022 453.843L118.022 453.843L117.63 454.379ZM119.112 456.37L118.497 456.621L118.499 456.627L119.112 456.37ZM119.112 462.52L118.499 462.263L118.497 462.27L119.112 462.52ZM117.63 464.512L118.022 465.047L118.022 465.047L117.63 464.512ZM112.739 461.405L112.095 461.569L112.097 461.576L112.099 461.583L112.739 461.405ZM113.392 462.855L112.849 463.236L113.551 464.235L114.008 463.103L113.392 462.855ZM116.483 455.191L117.098 455.44L117.319 454.893L116.802 454.609L116.483 455.191ZM113.902 455.478L114.325 455.989L114.333 455.983L113.902 455.478ZM112.882 457.039L113.506 457.267L113.507 457.264L112.882 457.039ZM116.897 463.444L117.321 463.955L117.328 463.949L116.897 463.444ZM118.044 457.501L117.401 457.665L117.403 457.672L117.404 457.679L118.044 457.501ZM117.407 456.036L117.95 455.654L117.249 454.656L116.791 455.787L117.407 456.036ZM114.3 463.715L113.685 463.466L113.46 464.021L113.989 464.301L114.3 463.715ZM115.399 464.549C114.692 464.549 114.086 464.355 113.557 463.973L112.78 465.05C113.547 465.603 114.428 465.877 115.399 465.877V464.549ZM113.561 463.976C113.037 463.592 112.606 463.033 112.283 462.263L111.059 462.777C111.458 463.728 112.026 464.497 112.776 465.047L113.561 463.976ZM112.286 462.27C111.976 461.508 111.809 460.572 111.809 459.445H110.482C110.482 460.698 110.666 461.812 111.056 462.771L112.286 462.27ZM111.809 459.445C111.809 458.318 111.976 457.383 112.286 456.621L111.056 456.12C110.666 457.079 110.482 458.193 110.482 459.445H111.809ZM112.283 456.627C112.606 455.858 113.037 455.298 113.561 454.914L112.776 453.843C112.026 454.394 111.458 455.162 111.059 456.113L112.283 456.627ZM113.557 454.917C114.086 454.536 114.692 454.341 115.399 454.341V453.014C114.428 453.014 113.547 453.287 112.78 453.84L113.557 454.917ZM115.399 454.341C116.119 454.341 116.723 454.537 117.237 454.914L118.022 453.843C117.263 453.286 116.379 453.014 115.399 453.014V454.341ZM117.237 454.914C117.759 455.297 118.184 455.854 118.497 456.621L119.726 456.12C119.338 455.166 118.775 454.395 118.022 453.843L117.237 454.914ZM118.499 456.627C118.818 457.387 118.989 458.32 118.989 459.445H120.317C120.317 458.191 120.127 457.074 119.724 456.113L118.499 456.627ZM118.989 459.445C118.989 460.57 118.818 461.503 118.499 462.263L119.724 462.777C120.127 461.816 120.317 460.7 120.317 459.445H118.989ZM118.497 462.27C118.184 463.037 117.759 463.593 117.237 463.976L118.022 465.047C118.775 464.495 119.338 463.724 119.726 462.771L118.497 462.27ZM117.237 463.976C116.723 464.354 116.119 464.549 115.399 464.549V465.877C116.379 465.877 117.263 465.604 118.022 465.047L117.237 463.976ZM111.852 459.445C111.852 460.212 111.931 460.922 112.095 461.569L113.382 461.241C113.249 460.72 113.179 460.123 113.179 459.445H111.852ZM112.099 461.583C112.274 462.212 112.52 462.769 112.849 463.236L113.935 462.473C113.711 462.155 113.522 461.745 113.378 461.227L112.099 461.583ZM114.008 463.103L117.098 455.44L115.867 454.943L112.776 462.606L114.008 463.103ZM116.802 454.609C116.37 454.372 115.899 454.257 115.399 454.257V455.584C115.686 455.584 115.937 455.649 116.164 455.773L116.802 454.609ZM115.399 454.257C114.675 454.257 114.024 454.501 113.471 454.973L114.333 455.983C114.65 455.712 114.997 455.584 115.399 455.584V454.257ZM113.478 454.967C112.929 455.422 112.531 456.054 112.257 456.815L113.507 457.264C113.722 456.665 114.003 456.256 114.325 455.989L113.478 454.967ZM112.258 456.812C111.981 457.573 111.852 458.456 111.852 459.445H113.179C113.179 458.565 113.295 457.844 113.506 457.267L112.258 456.812ZM115.399 464.65C116.118 464.65 116.767 464.415 117.321 463.955L116.473 462.933C116.156 463.196 115.807 463.322 115.399 463.322V464.65ZM117.328 463.949C117.871 463.485 118.268 462.852 118.541 462.091L117.292 461.642C117.077 462.241 116.793 462.66 116.466 462.939L117.328 463.949ZM118.541 462.091C118.818 461.322 118.947 460.435 118.947 459.445H117.619C117.619 460.325 117.504 461.052 117.292 461.642L118.541 462.091ZM118.947 459.445C118.947 458.675 118.862 457.966 118.684 457.324L117.404 457.679C117.545 458.184 117.619 458.771 117.619 459.445H118.947ZM118.687 457.338C118.524 456.694 118.283 456.127 117.95 455.654L116.864 456.417C117.083 456.73 117.267 457.14 117.401 457.665L118.687 457.338ZM116.791 455.787L113.685 463.466L114.915 463.964L118.022 456.285L116.791 455.787ZM113.989 464.301C114.426 464.534 114.9 464.65 115.399 464.65V463.322C115.113 463.322 114.853 463.257 114.611 463.129L113.989 464.301ZM121.288 465.021H120.624V465.685H121.288V465.021ZM121.288 463.811V463.147H120.624V463.811H121.288ZM124.172 463.811V464.474H124.836V463.811H124.172ZM124.172 455.446H124.836V454.642L124.046 454.794L124.172 455.446ZM121.447 455.972H120.784V456.776L121.573 456.624L121.447 455.972ZM121.447 454.952L121.233 454.324L120.784 454.478V454.952H121.447ZM124.618 453.869V453.205H124.508L124.403 453.241L124.618 453.869ZM125.51 453.869H126.174V453.205H125.51V453.869ZM125.51 463.811H124.846V464.474H125.51V463.811ZM128.553 463.811H129.217V463.147H128.553V463.811ZM128.553 465.021V465.685H129.217V465.021H128.553ZM121.952 465.021V463.811H120.624V465.021H121.952ZM121.288 464.474H124.172V463.147H121.288V464.474ZM124.836 463.811V455.446H123.508V463.811H124.836ZM124.046 454.794L121.322 455.32L121.573 456.624L124.298 456.098L124.046 454.794ZM122.111 455.972V454.952H120.784V455.972H122.111ZM121.662 455.58L124.833 454.497L124.403 453.241L121.233 454.324L121.662 455.58ZM124.618 454.533H125.51V453.205H124.618V454.533ZM124.846 453.869V463.811H126.174V453.869H124.846ZM125.51 464.474H128.553V463.147H125.51V464.474ZM127.889 463.811V465.021H129.217V463.811H127.889ZM128.553 464.358H121.288V465.685H128.553V464.358Z" fill="#8CFF00"/>
</g>
<g opacity="0.5" filter="url(#filter10_f_1709_5321)">
<path d="M123.351 406.857C122.512 406.857 121.768 406.623 121.12 406.156C120.483 405.688 119.984 405.024 119.623 404.164C119.272 403.304 119.097 402.279 119.097 401.089C119.097 399.9 119.272 398.875 119.623 398.014C119.984 397.154 120.483 396.49 121.12 396.023C121.768 395.555 122.512 395.322 123.351 395.322C124.2 395.322 124.944 395.555 125.581 396.023C126.219 396.49 126.712 397.154 127.063 398.014C127.424 398.875 127.605 399.9 127.605 401.089C127.605 402.279 127.424 403.304 127.063 404.164C126.712 405.024 126.219 405.688 125.581 406.156C124.944 406.623 124.2 406.857 123.351 406.857ZM120.467 401.089C120.467 401.811 120.541 402.465 120.69 403.049C120.849 403.622 121.067 404.106 121.343 404.499L124.434 396.835C124.105 396.655 123.744 396.564 123.351 396.564C122.788 396.564 122.289 396.75 121.853 397.122C121.418 397.483 121.078 398.004 120.833 398.683C120.589 399.353 120.467 400.155 120.467 401.089ZM123.351 405.63C123.914 405.63 124.413 405.449 124.848 405.088C125.284 404.716 125.624 404.191 125.868 403.511C126.112 402.831 126.234 402.024 126.234 401.089C126.234 400.367 126.155 399.719 125.995 399.145C125.847 398.561 125.634 398.073 125.358 397.68L122.251 405.359C122.591 405.54 122.958 405.63 123.351 405.63Z" fill="white"/>
<path d="M121.12 406.156L120.728 406.691L120.732 406.694L121.12 406.156ZM119.623 404.164L119.008 404.415L119.01 404.421L119.623 404.164ZM119.623 398.014L119.01 397.757L119.008 397.764L119.623 398.014ZM121.12 396.023L120.732 395.484L120.728 395.487L121.12 396.023ZM125.581 396.023L125.974 395.487L125.974 395.487L125.581 396.023ZM127.063 398.014L126.448 398.265L126.451 398.271L127.063 398.014ZM127.063 404.164L126.451 403.907L126.448 403.914L127.063 404.164ZM125.581 406.156L125.974 406.691L125.974 406.691L125.581 406.156ZM120.69 403.049L120.047 403.213L120.048 403.22L120.05 403.227L120.69 403.049ZM121.343 404.499L120.8 404.88L121.502 405.879L121.959 404.747L121.343 404.499ZM124.434 396.835L125.05 397.084L125.27 396.537L124.753 396.253L124.434 396.835ZM121.853 397.122L122.277 397.633L122.284 397.627L121.853 397.122ZM120.833 398.683L121.457 398.911L121.458 398.908L120.833 398.683ZM124.848 405.088L125.272 405.599L125.279 405.593L124.848 405.088ZM125.995 399.145L125.352 399.309L125.354 399.316L125.356 399.323L125.995 399.145ZM125.358 397.68L125.901 397.298L125.2 396.3L124.743 397.431L125.358 397.68ZM122.251 405.359L121.636 405.11L121.412 405.665L121.94 405.945L122.251 405.359ZM123.351 406.193C122.644 406.193 122.037 405.999 121.509 405.617L120.732 406.694C121.499 407.247 122.38 407.521 123.351 407.521V406.193ZM121.513 405.62C120.989 405.236 120.558 404.677 120.235 403.907L119.01 404.421C119.41 405.372 119.977 406.141 120.728 406.691L121.513 405.62ZM120.237 403.914C119.927 403.152 119.761 402.216 119.761 401.089H118.433C118.433 402.342 118.617 403.456 119.008 404.415L120.237 403.914ZM119.761 401.089C119.761 399.962 119.927 399.027 120.237 398.265L119.008 397.764C118.617 398.723 118.433 399.837 118.433 401.089H119.761ZM120.235 398.271C120.558 397.502 120.989 396.942 121.513 396.558L120.728 395.487C119.977 396.038 119.41 396.806 119.01 397.757L120.235 398.271ZM121.509 396.561C122.037 396.18 122.644 395.986 123.351 395.986V394.658C122.38 394.658 121.499 394.931 120.732 395.484L121.509 396.561ZM123.351 395.986C124.071 395.986 124.674 396.181 125.189 396.558L125.974 395.487C125.214 394.93 124.33 394.658 123.351 394.658V395.986ZM125.189 396.558C125.711 396.941 126.136 397.498 126.448 398.265L127.678 397.764C127.289 396.81 126.726 396.039 125.974 395.487L125.189 396.558ZM126.451 398.271C126.77 399.031 126.941 399.965 126.941 401.089H128.269C128.269 399.835 128.078 398.718 127.675 397.757L126.451 398.271ZM126.941 401.089C126.941 402.214 126.77 403.147 126.451 403.907L127.675 404.421C128.078 403.46 128.269 402.344 128.269 401.089H126.941ZM126.448 403.914C126.136 404.681 125.711 405.238 125.189 405.62L125.974 406.691C126.726 406.139 127.289 405.368 127.678 404.415L126.448 403.914ZM125.189 405.62C124.674 405.998 124.071 406.193 123.351 406.193V407.521C124.33 407.521 125.214 407.248 125.974 406.691L125.189 405.62ZM119.803 401.089C119.803 401.856 119.882 402.566 120.047 403.213L121.333 402.885C121.201 402.364 121.131 401.767 121.131 401.089H119.803ZM120.05 403.227C120.225 403.856 120.471 404.413 120.8 404.88L121.886 404.117C121.663 403.799 121.473 403.389 121.33 402.871L120.05 403.227ZM121.959 404.747L125.05 397.084L123.818 396.587L120.728 404.25L121.959 404.747ZM124.753 396.253C124.322 396.016 123.85 395.901 123.351 395.901V397.228C123.638 397.228 123.888 397.293 124.115 397.417L124.753 396.253ZM123.351 395.901C122.627 395.901 121.975 396.145 121.422 396.617L122.284 397.627C122.602 397.356 122.949 397.228 123.351 397.228V395.901ZM121.429 396.611C120.88 397.066 120.482 397.698 120.209 398.459L121.458 398.908C121.673 398.309 121.955 397.9 122.277 397.633L121.429 396.611ZM120.21 398.456C119.932 399.217 119.803 400.1 119.803 401.089H121.131C121.131 400.209 121.246 399.488 121.457 398.911L120.21 398.456ZM123.351 406.294C124.069 406.294 124.718 406.059 125.272 405.599L124.425 404.577C124.108 404.84 123.758 404.966 123.351 404.966V406.294ZM125.279 405.593C125.823 405.129 126.219 404.496 126.493 403.735L125.243 403.286C125.028 403.885 124.745 404.304 124.417 404.583L125.279 405.593ZM126.493 403.735C126.769 402.966 126.898 402.079 126.898 401.089H125.571C125.571 401.969 125.455 402.696 125.243 403.286L126.493 403.735ZM126.898 401.089C126.898 400.319 126.814 399.61 126.635 398.968L125.356 399.323C125.496 399.828 125.571 400.415 125.571 401.089H126.898ZM126.639 398.982C126.475 398.339 126.234 397.771 125.901 397.298L124.815 398.061C125.035 398.374 125.218 398.784 125.352 399.309L126.639 398.982ZM124.743 397.431L121.636 405.11L122.867 405.608L125.974 397.929L124.743 397.431ZM121.94 405.945C122.378 406.178 122.852 406.294 123.351 406.294V404.966C123.064 404.966 122.805 404.901 122.563 404.773L121.94 405.945Z" fill="#8CFF00"/>
</g>
<g opacity="0.5" filter="url(#filter11_f_1709_5321)">
<path d="M120.509 338.048C119.67 338.048 118.926 337.814 118.278 337.347C117.641 336.88 117.142 336.216 116.781 335.356C116.43 334.495 116.255 333.47 116.255 332.281C116.255 331.091 116.43 330.066 116.781 329.206C117.142 328.345 117.641 327.681 118.278 327.214C118.926 326.747 119.67 326.513 120.509 326.513C121.359 326.513 122.102 326.747 122.739 327.214C123.377 327.681 123.871 328.345 124.221 329.206C124.582 330.066 124.763 331.091 124.763 332.281C124.763 333.47 124.582 334.495 124.221 335.356C123.871 336.216 123.377 336.88 122.739 337.347C122.102 337.814 121.359 338.048 120.509 338.048ZM117.625 332.281C117.625 333.003 117.7 333.656 117.848 334.24C118.008 334.814 118.225 335.297 118.501 335.69L121.592 328.027C121.263 327.846 120.902 327.756 120.509 327.756C119.946 327.756 119.447 327.942 119.011 328.313C118.576 328.675 118.236 329.195 117.992 329.875C117.747 330.544 117.625 331.346 117.625 332.281ZM120.509 336.821C121.072 336.821 121.571 336.641 122.007 336.28C122.442 335.908 122.782 335.382 123.026 334.702C123.271 334.023 123.393 333.215 123.393 332.281C123.393 331.558 123.313 330.91 123.154 330.337C123.005 329.753 122.793 329.264 122.516 328.871L119.41 336.55C119.75 336.731 120.116 336.821 120.509 336.821ZM116.845 358.857V357.646H119.728V349.282L117.004 349.807V348.788L120.174 347.704H121.067V357.646H124.11V358.857H116.845ZM120.509 380.048C119.67 380.048 118.926 379.814 118.278 379.347C117.641 378.88 117.142 378.216 116.781 377.356C116.43 376.495 116.255 375.47 116.255 374.281C116.255 373.091 116.43 372.066 116.781 371.206C117.142 370.345 117.641 369.681 118.278 369.214C118.926 368.747 119.67 368.513 120.509 368.513C121.359 368.513 122.102 368.747 122.739 369.214C123.377 369.681 123.871 370.345 124.221 371.206C124.582 372.066 124.763 373.091 124.763 374.281C124.763 375.47 124.582 376.495 124.221 377.356C123.871 378.216 123.377 378.88 122.739 379.347C122.102 379.814 121.359 380.048 120.509 380.048ZM117.625 374.281C117.625 375.003 117.7 375.656 117.848 376.24C118.008 376.814 118.225 377.297 118.501 377.69L121.592 370.027C121.263 369.846 120.902 369.756 120.509 369.756C119.946 369.756 119.447 369.942 119.011 370.313C118.576 370.675 118.236 371.195 117.992 371.875C117.747 372.544 117.625 373.346 117.625 374.281ZM120.509 378.821C121.072 378.821 121.571 378.641 122.007 378.28C122.442 377.908 122.782 377.382 123.026 376.702C123.271 376.023 123.393 375.215 123.393 374.281C123.393 373.558 123.313 372.91 123.154 372.337C123.005 371.753 122.793 371.264 122.516 370.871L119.41 378.55C119.75 378.731 120.116 378.821 120.509 378.821Z" fill="white"/>
<path d="M118.278 337.347L117.886 337.882L117.89 337.885L118.278 337.347ZM116.781 335.356L116.166 335.606L116.169 335.612L116.781 335.356ZM116.781 329.206L116.169 328.949L116.166 328.955L116.781 329.206ZM118.278 327.214L117.89 326.676L117.886 326.679L118.278 327.214ZM122.739 327.214L123.132 326.679L123.132 326.679L122.739 327.214ZM124.221 329.206L123.606 329.456L123.609 329.463L124.221 329.206ZM124.221 335.356L123.609 335.099L123.606 335.105L124.221 335.356ZM122.739 337.347L123.132 337.882L123.132 337.882L122.739 337.347ZM117.848 334.24L117.205 334.404L117.207 334.411L117.209 334.418L117.848 334.24ZM118.501 335.69L117.958 336.072L118.66 337.071L119.117 335.938L118.501 335.69ZM121.592 328.027L122.208 328.275L122.429 327.728L121.912 327.445L121.592 328.027ZM119.011 328.313L119.435 328.825L119.442 328.818L119.011 328.313ZM117.992 329.875L118.615 330.102L118.616 330.099L117.992 329.875ZM122.007 336.28L122.43 336.791L122.438 336.785L122.007 336.28ZM123.154 330.337L122.51 330.501L122.512 330.508L122.514 330.515L123.154 330.337ZM122.516 328.871L123.06 328.489L122.358 327.492L121.901 328.622L122.516 328.871ZM119.41 336.55L118.794 336.302L118.57 336.856L119.098 337.137L119.41 336.55ZM120.509 337.384C119.802 337.384 119.196 337.19 118.667 336.809L117.89 337.885C118.657 338.439 119.538 338.712 120.509 338.712V337.384ZM118.671 336.812C118.147 336.428 117.716 335.868 117.393 335.099L116.169 335.612C116.568 336.564 117.135 337.332 117.886 337.882L118.671 336.812ZM117.396 335.105C117.085 334.343 116.919 333.407 116.919 332.281H115.591C115.591 333.533 115.775 334.647 116.166 335.606L117.396 335.105ZM116.919 332.281C116.919 331.154 117.085 330.218 117.396 329.456L116.166 328.955C115.775 329.914 115.591 331.028 115.591 332.281H116.919ZM117.393 329.463C117.716 328.693 118.147 328.134 118.671 327.749L117.886 326.679C117.135 327.229 116.568 327.998 116.169 328.949L117.393 329.463ZM118.667 327.753C119.196 327.371 119.802 327.177 120.509 327.177V325.849C119.538 325.849 118.657 326.123 117.89 326.676L118.667 327.753ZM120.509 327.177C121.229 327.177 121.832 327.372 122.347 327.749L123.132 326.679C122.372 326.122 121.489 325.849 120.509 325.849V327.177ZM122.347 327.749C122.869 328.132 123.294 328.689 123.606 329.456L124.836 328.955C124.447 328.001 123.885 327.231 123.132 326.679L122.347 327.749ZM123.609 329.463C123.928 330.223 124.099 331.156 124.099 332.281H125.427C125.427 331.026 125.237 329.909 124.833 328.949L123.609 329.463ZM124.099 332.281C124.099 333.405 123.928 334.339 123.609 335.099L124.833 335.612C125.237 334.652 125.427 333.535 125.427 332.281H124.099ZM123.606 335.105C123.294 335.872 122.869 336.429 122.347 336.812L123.132 337.882C123.885 337.331 124.447 336.56 124.836 335.606L123.606 335.105ZM122.347 336.812C121.832 337.189 121.229 337.384 120.509 337.384V338.712C121.489 338.712 122.372 338.44 123.132 337.882L122.347 336.812ZM116.961 332.281C116.961 333.048 117.04 333.757 117.205 334.404L118.492 334.077C118.359 333.555 118.289 332.958 118.289 332.281H116.961ZM117.209 334.418C117.384 335.048 117.63 335.604 117.958 336.072L119.045 335.308C118.821 334.99 118.632 334.58 118.488 334.063L117.209 334.418ZM119.117 335.938L122.208 328.275L120.977 327.778L117.886 335.442L119.117 335.938ZM121.912 327.445C121.48 327.208 121.008 327.092 120.509 327.092V328.42C120.796 328.42 121.046 328.484 121.273 328.609L121.912 327.445ZM120.509 327.092C119.785 327.092 119.134 327.336 118.58 327.809L119.442 328.818C119.76 328.547 120.107 328.42 120.509 328.42V327.092ZM118.588 327.802C118.039 328.258 117.64 328.889 117.367 329.65L118.616 330.099C118.831 329.501 119.113 329.092 119.435 328.824L118.588 327.802ZM117.368 329.647C117.09 330.408 116.961 331.291 116.961 332.281H118.289C118.289 331.401 118.404 330.68 118.615 330.102L117.368 329.647ZM120.509 337.485C121.228 337.485 121.876 337.25 122.43 336.791L121.583 335.769C121.266 336.032 120.916 336.157 120.509 336.157V337.485ZM122.438 336.785C122.981 336.321 123.378 335.687 123.651 334.927L122.402 334.478C122.186 335.077 121.903 335.495 121.576 335.775L122.438 336.785ZM123.651 334.927C123.928 334.157 124.057 333.27 124.057 332.281H122.729C122.729 333.16 122.614 333.888 122.402 334.478L123.651 334.927ZM124.057 332.281C124.057 331.511 123.972 330.801 123.793 330.159L122.514 330.515C122.654 331.019 122.729 331.606 122.729 332.281H124.057ZM123.797 330.173C123.633 329.53 123.392 328.963 123.06 328.489L121.973 329.253C122.193 329.565 122.377 329.975 122.51 330.501L123.797 330.173ZM121.901 328.622L118.794 336.302L120.025 336.799L123.132 329.12L121.901 328.622ZM119.098 337.137C119.536 337.369 120.01 337.485 120.509 337.485V336.157C120.222 336.157 119.963 336.093 119.721 335.964L119.098 337.137ZM116.845 358.857H116.181V359.521H116.845V358.857ZM116.845 357.646V356.982H116.181V357.646H116.845ZM119.728 357.646V358.31H120.392V357.646H119.728ZM119.728 349.282H120.392V348.477L119.602 348.63L119.728 349.282ZM117.004 349.807H116.34V350.612L117.13 350.459L117.004 349.807ZM117.004 348.788L116.789 348.159L116.34 348.313V348.788H117.004ZM120.174 347.704V347.04H120.064L119.96 347.076L120.174 347.704ZM121.067 347.704H121.73V347.04H121.067V347.704ZM121.067 357.646H120.403V358.31H121.067V357.646ZM124.11 357.646H124.774V356.982H124.11V357.646ZM124.11 358.857V359.521H124.774V358.857H124.11ZM117.508 358.857V357.646H116.181V358.857H117.508ZM116.845 358.31H119.728V356.982H116.845V358.31ZM120.392 357.646V349.282H119.064V357.646H120.392ZM119.602 348.63L116.878 349.156L117.13 350.459L119.854 349.933L119.602 348.63ZM117.668 349.807V348.788H116.34V349.807H117.668ZM117.219 349.416L120.389 348.332L119.96 347.076L116.789 348.159L117.219 349.416ZM120.174 348.368H121.067V347.04H120.174V348.368ZM120.403 347.704V357.646H121.73V347.704H120.403ZM121.067 358.31H124.11V356.982H121.067V358.31ZM123.446 357.646V358.857H124.774V357.646H123.446ZM124.11 358.193H116.845V359.521H124.11V358.193ZM118.278 379.347L117.886 379.882L117.89 379.885L118.278 379.347ZM116.781 377.356L116.166 377.606L116.169 377.612L116.781 377.356ZM116.781 371.206L116.169 370.949L116.166 370.955L116.781 371.206ZM118.278 369.214L117.89 368.676L117.886 368.679L118.278 369.214ZM122.739 369.214L123.132 368.679L123.132 368.679L122.739 369.214ZM124.221 371.206L123.606 371.456L123.609 371.463L124.221 371.206ZM124.221 377.356L123.609 377.099L123.606 377.105L124.221 377.356ZM122.739 379.347L123.132 379.882L123.132 379.882L122.739 379.347ZM117.848 376.24L117.205 376.404L117.207 376.411L117.209 376.418L117.848 376.24ZM118.501 377.69L117.958 378.072L118.66 379.071L119.117 377.938L118.501 377.69ZM121.592 370.027L122.208 370.275L122.429 369.728L121.912 369.445L121.592 370.027ZM119.011 370.313L119.435 370.825L119.442 370.818L119.011 370.313ZM117.992 371.875L118.615 372.102L118.616 372.099L117.992 371.875ZM122.007 378.28L122.43 378.791L122.438 378.785L122.007 378.28ZM123.154 372.337L122.51 372.501L122.512 372.508L122.514 372.515L123.154 372.337ZM122.516 370.871L123.06 370.489L122.358 369.492L121.901 370.622L122.516 370.871ZM119.41 378.55L118.794 378.302L118.57 378.856L119.098 379.137L119.41 378.55ZM120.509 379.384C119.802 379.384 119.196 379.19 118.667 378.809L117.89 379.885C118.657 380.439 119.538 380.712 120.509 380.712V379.384ZM118.671 378.812C118.147 378.428 117.716 377.868 117.393 377.099L116.169 377.612C116.568 378.564 117.135 379.332 117.886 379.882L118.671 378.812ZM117.396 377.105C117.085 376.343 116.919 375.407 116.919 374.281H115.591C115.591 375.533 115.775 376.647 116.166 377.606L117.396 377.105ZM116.919 374.281C116.919 373.154 117.085 372.218 117.396 371.456L116.166 370.955C115.775 371.914 115.591 373.028 115.591 374.281H116.919ZM117.393 371.463C117.716 370.693 118.147 370.134 118.671 369.749L117.886 368.679C117.135 369.229 116.568 369.998 116.169 370.949L117.393 371.463ZM118.667 369.753C119.196 369.371 119.802 369.177 120.509 369.177V367.849C119.538 367.849 118.657 368.123 117.89 368.676L118.667 369.753ZM120.509 369.177C121.229 369.177 121.832 369.372 122.347 369.749L123.132 368.679C122.372 368.122 121.489 367.849 120.509 367.849V369.177ZM122.347 369.749C122.869 370.132 123.294 370.689 123.606 371.456L124.836 370.955C124.447 370.001 123.885 369.231 123.132 368.679L122.347 369.749ZM123.609 371.463C123.928 372.223 124.099 373.156 124.099 374.281H125.427C125.427 373.026 125.237 371.909 124.833 370.949L123.609 371.463ZM124.099 374.281C124.099 375.405 123.928 376.339 123.609 377.099L124.833 377.612C125.237 376.652 125.427 375.535 125.427 374.281H124.099ZM123.606 377.105C123.294 377.872 122.869 378.429 122.347 378.812L123.132 379.882C123.885 379.331 124.447 378.56 124.836 377.606L123.606 377.105ZM122.347 378.812C121.832 379.189 121.229 379.384 120.509 379.384V380.712C121.489 380.712 122.372 380.44 123.132 379.882L122.347 378.812ZM116.961 374.281C116.961 375.048 117.04 375.757 117.205 376.404L118.492 376.077C118.359 375.555 118.289 374.958 118.289 374.281H116.961ZM117.209 376.418C117.384 377.048 117.63 377.604 117.958 378.072L119.045 377.308C118.821 376.99 118.632 376.58 118.488 376.063L117.209 376.418ZM119.117 377.938L122.208 370.275L120.977 369.778L117.886 377.442L119.117 377.938ZM121.912 369.445C121.48 369.208 121.008 369.092 120.509 369.092V370.42C120.796 370.42 121.046 370.484 121.273 370.609L121.912 369.445ZM120.509 369.092C119.785 369.092 119.134 369.336 118.58 369.809L119.442 370.818C119.76 370.547 120.107 370.42 120.509 370.42V369.092ZM118.588 369.802C118.039 370.258 117.64 370.889 117.367 371.65L118.616 372.099C118.831 371.501 119.113 371.092 119.435 370.824L118.588 369.802ZM117.368 371.647C117.09 372.408 116.961 373.291 116.961 374.281H118.289C118.289 373.401 118.404 372.68 118.615 372.102L117.368 371.647ZM120.509 379.485C121.228 379.485 121.876 379.25 122.43 378.791L121.583 377.769C121.266 378.032 120.916 378.157 120.509 378.157V379.485ZM122.438 378.785C122.981 378.321 123.378 377.687 123.651 376.927L122.402 376.478C122.186 377.077 121.903 377.495 121.576 377.775L122.438 378.785ZM123.651 376.927C123.928 376.157 124.057 375.27 124.057 374.281H122.729C122.729 375.16 122.614 375.888 122.402 376.478L123.651 376.927ZM124.057 374.281C124.057 373.511 123.972 372.801 123.793 372.159L122.514 372.515C122.654 373.019 122.729 373.606 122.729 374.281H124.057ZM123.797 372.173C123.633 371.53 123.392 370.963 123.06 370.489L121.973 371.253C122.193 371.565 122.377 371.975 122.51 372.501L123.797 372.173ZM121.901 370.622L118.794 378.302L120.025 378.799L123.132 371.12L121.901 370.622ZM119.098 379.137C119.536 379.369 120.01 379.485 120.509 379.485V378.157C120.222 378.157 119.963 378.093 119.721 377.964L119.098 379.137Z" fill="#8CFF00"/>
</g>
<path d="M156.454 315.517V369.406C156.454 370.811 155.611 372.076 154.325 372.638L107.272 392.803V336.595L156.454 315.517ZM107.272 336.595L54.5767 315.517V369.406C54.5761 370.094 54.7775 370.767 55.1559 371.342C55.5344 371.916 56.0732 372.367 56.7056 372.638L107.272 392.803V336.595Z" fill="#054F77"/>
<path d="M156.454 315.517V369.406C156.454 370.811 155.611 372.076 154.325 372.638L107.272 392.803V336.595L156.454 315.517ZM107.272 336.595L54.5767 315.517V369.406C54.5761 370.094 54.7775 370.767 55.1559 371.342C55.5344 371.916 56.0732 372.367 56.7056 372.638L107.272 392.803V336.595Z" fill="url(#paint21_linear_1709_5321)"/>
<path d="M107.227 336.587L107.226 392.783" stroke="#F4FBFF" stroke-opacity="0.14" stroke-width="1.3277"/>
<defs>
<filter id="filter0_f_1709_5321" x="265.773" y="223.246" width="84.7426" height="84.6196" filterUnits="userSpaceOnUse" color-interpolation-filters="sRGB">
<feFlood flood-opacity="0" result="BackgroundImageFix"/>
<feBlend mode="normal" in="SourceGraphic" in2="BackgroundImageFix" result="shape"/>
<feGaussianBlur stdDeviation="1.05187" result="effect1_foregroundBlur_1709_5321"/>
</filter>
<filter id="filter1_f_1709_5321" x="231.988" y="186.698" width="152.025" height="152.025" filterUnits="userSpaceOnUse" color-interpolation-filters="sRGB">
<feFlood flood-opacity="0" result="BackgroundImageFix"/>
<feBlend mode="normal" in="SourceGraphic" in2="BackgroundImageFix" result="shape"/>
<feGaussianBlur stdDeviation="7.18424" result="effect1_foregroundBlur_1709_5321"/>
</filter>
<filter id="filter2_f_1709_5321" x="292.783" y="246.689" width="33.6635" height="35.3447" filterUnits="userSpaceOnUse" color-interpolation-filters="sRGB">
<feFlood flood-opacity="0" result="BackgroundImageFix"/>
<feBlend mode="normal" in="SourceGraphic" in2="BackgroundImageFix" result="shape"/>
<feGaussianBlur stdDeviation="1.18919" result="effect1_foregroundBlur_1709_5321"/>
</filter>
<filter id="filter3_f_1709_5321" x="273.427" y="227.717" width="18.1801" height="18.1805" filterUnits="userSpaceOnUse" color-interpolation-filters="sRGB">
<feFlood flood-opacity="0" result="BackgroundImageFix"/>
<feBlend mode="normal" in="SourceGraphic" in2="BackgroundImageFix" result="shape"/>
<feGaussianBlur stdDeviation="2.37839" result="effect1_foregroundBlur_1709_5321"/>
</filter>
<filter id="filter4_f_1709_5321" x="326.479" y="204.328" width="18.1801" height="18.1805" filterUnits="userSpaceOnUse" color-interpolation-filters="sRGB">
<feFlood flood-opacity="0" result="BackgroundImageFix"/>
<feBlend mode="normal" in="SourceGraphic" in2="BackgroundImageFix" result="shape"/>
<feGaussianBlur stdDeviation="2.37839" result="effect1_foregroundBlur_1709_5321"/>
</filter>
<filter id="filter5_b_1709_5321" x="73.9192" y="151.104" width="63.1821" height="392.239" filterUnits="userSpaceOnUse" color-interpolation-filters="sRGB">
<feFlood flood-opacity="0" result="BackgroundImageFix"/>
<feGaussianBlur in="BackgroundImage" stdDeviation="2.65539"/>
<feComposite in2="SourceAlpha" operator="in" result="effect1_backgroundBlur_1709_5321"/>
<feBlend mode="normal" in="SourceGraphic" in2="effect1_backgroundBlur_1709_5321" result="shape"/>
</filter>
<filter id="filter6_f_1709_5321" x="99.5507" y="300.369" width="13.8186" height="58.6545" filterUnits="userSpaceOnUse" color-interpolation-filters="sRGB">
<feFlood flood-opacity="0" result="BackgroundImageFix"/>
<feBlend mode="normal" in="SourceGraphic" in2="BackgroundImageFix" result="shape"/>
<feGaussianBlur stdDeviation="1.3277" result="effect1_foregroundBlur_1709_5321"/>
</filter>
<filter id="filter7_f_1709_5321" x="81.7113" y="266.982" width="22.7185" height="37.8459" filterUnits="userSpaceOnUse" color-interpolation-filters="sRGB">
<feFlood flood-opacity="0" result="BackgroundImageFix"/>
<feBlend mode="normal" in="SourceGraphic" in2="BackgroundImageFix" result="shape"/>
<feGaussianBlur stdDeviation="1.3277" result="effect1_foregroundBlur_1709_5321"/>
</filter>
<filter id="filter8_f_1709_5321" x="86.0453" y="407.097" width="12.5759" height="16.4636" filterUnits="userSpaceOnUse" color-interpolation-filters="sRGB">
<feFlood flood-opacity="0" result="BackgroundImageFix"/>
<feBlend mode="normal" in="SourceGraphic" in2="BackgroundImageFix" result="shape"/>
<feGaussianBlur stdDeviation="1.3277" result="effect1_foregroundBlur_1709_5321"/>
</filter>
<filter id="filter9_f_1709_5321" x="108.49" y="430.022" width="22.7185" height="37.8459" filterUnits="userSpaceOnUse" color-interpolation-filters="sRGB">
<feFlood flood-opacity="0" result="BackgroundImageFix"/>
<feBlend mode="normal" in="SourceGraphic" in2="BackgroundImageFix" result="shape"/>
<feGaussianBlur stdDeviation="1.3277" result="effect1_foregroundBlur_1709_5321"/>
</filter>
<filter id="filter10_f_1709_5321" x="116.441" y="392.666" width="13.8186" height="16.8459" filterUnits="userSpaceOnUse" color-interpolation-filters="sRGB">
<feFlood flood-opacity="0" result="BackgroundImageFix"/>
<feBlend mode="normal" in="SourceGraphic" in2="BackgroundImageFix" result="shape"/>
<feGaussianBlur stdDeviation="1.3277" result="effect1_foregroundBlur_1709_5321"/>
</filter>
<filter id="filter11_f_1709_5321" x="113.599" y="323.858" width="13.8186" height="58.8459" filterUnits="userSpaceOnUse" color-interpolation-filters="sRGB">
<feFlood flood-opacity="0" result="BackgroundImageFix"/>
<feBlend mode="normal" in="SourceGraphic" in2="BackgroundImageFix" result="shape"/>
<feGaussianBlur stdDeviation="1.3277" result="effect1_foregroundBlur_1709_5321"/>
</filter>
<radialGradient id="paint0_radial_1709_5321" cx="0" cy="0" r="1" gradientUnits="userSpaceOnUse" gradientTransform="translate(316.999 302.65) rotate(90) scale(302.626 316.562)">
<stop stop-color="#8CFF00"/>
<stop offset="1" stop-color="#054F77" stop-opacity="0"/>
</radialGradient>
<linearGradient id="paint1_linear_1709_5321" x1="296.593" y1="283.729" x2="276.765" y2="371.961" gradientUnits="userSpaceOnUse">
<stop stop-color="#054F77" stop-opacity="0"/>
<stop offset="1" stop-color="#8CFF00"/>
</linearGradient>
<linearGradient id="paint2_linear_1709_5321" x1="269.701" y1="278.791" x2="348.289" y2="268.643" gradientUnits="userSpaceOnUse">
<stop stop-color="#054F77"/>
<stop offset="0.971875" stop-color="#8CFF00"/>
</linearGradient>
<linearGradient id="paint3_linear_1709_5321" x1="251.377" y1="236.793" x2="349.12" y2="308.635" gradientUnits="userSpaceOnUse">
<stop stop-color="#054F77"/>
<stop offset="0.971875" stop-color="#8CFF00"/>
</linearGradient>
<radialGradient id="paint4_radial_1709_5321" cx="0" cy="0" r="1" gradientUnits="userSpaceOnUse" gradientTransform="translate(308.14 227.785) rotate(90) scale(64.2568)">
<stop stop-color="#F4FBFF"/>
<stop offset="1" stop-color="#054F77" stop-opacity="0"/>
</radialGradient>
<linearGradient id="paint5_linear_1709_5321" x1="282.517" y1="232.475" x2="282.517" y2="247.758" gradientUnits="userSpaceOnUse">
<stop stop-color="#054F77"/>
<stop offset="1" stop-color="#8CFF00"/>
</linearGradient>
<linearGradient id="paint6_linear_1709_5321" x1="335.569" y1="209.086" x2="335.569" y2="224.369" gradientUnits="userSpaceOnUse">
<stop stop-color="#054F77"/>
<stop offset="1" stop-color="#8CFF00"/>
</linearGradient>
<linearGradient id="paint7_linear_1709_5321" x1="121.481" y1="277.873" x2="121.481" y2="291.582" gradientUnits="userSpaceOnUse">
<stop stop-color="#054F77"/>
<stop offset="1" stop-color="#8CFF00"/>
</linearGradient>
<radialGradient id="paint8_radial_1709_5321" cx="0" cy="0" r="1" gradientUnits="userSpaceOnUse" gradientTransform="translate(120.889 279.365) rotate(83.0538) scale(4.74679)">
<stop stop-color="#8CFF00"/>
<stop offset="1" stop-color="#054F77"/>
</radialGradient>
<linearGradient id="paint9_linear_1709_5321" x1="100.481" y1="221.405" x2="100.481" y2="254.696" gradientUnits="userSpaceOnUse">
<stop stop-color="#054F77"/>
<stop offset="1" stop-color="#8CFF00"/>
</linearGradient>
<radialGradient id="paint10_radial_1709_5321" cx="0" cy="0" r="1" gradientUnits="userSpaceOnUse" gradientTransform="translate(99.0434 225.029) rotate(83.0538) scale(11.5272)">
<stop stop-color="#8CFF00"/>
<stop offset="1" stop-color="#054F77"/>
</radialGradient>
<linearGradient id="paint11_linear_1709_5321" x1="95.8634" y1="464.987" x2="95.8634" y2="485.815" gradientUnits="userSpaceOnUse">
<stop stop-color="#054F77"/>
<stop offset="1" stop-color="#8CFF00"/>
</linearGradient>
<radialGradient id="paint12_radial_1709_5321" cx="0" cy="0" r="1" gradientUnits="userSpaceOnUse" gradientTransform="translate(94.9639 467.254) rotate(83.0538) scale(7.21181)">
<stop stop-color="#8CFF00"/>
<stop offset="1" stop-color="#054F77"/>
</radialGradient>
<linearGradient id="paint13_linear_1709_5321" x1="105.512" y1="289.145" x2="105.512" y2="331.78" gradientUnits="userSpaceOnUse">
<stop stop-color="#063C5B"/>
<stop offset="1" stop-color="#052233"/>
</linearGradient>
<linearGradient id="paint14_linear_1709_5321" x1="112.843" y1="192.112" x2="83.8861" y2="502.416" gradientUnits="userSpaceOnUse">
<stop stop-color="#054F77" stop-opacity="0"/>
<stop offset="0.576042" stop-color="#83DDDD" stop-opacity="0.92"/>
<stop offset="1" stop-color="#054F77" stop-opacity="0"/>
</linearGradient>
<linearGradient id="paint15_linear_1709_5321" x1="99.4419" y1="322.405" x2="99.4419" y2="329.263" gradientUnits="userSpaceOnUse">
<stop stop-color="#054F77"/>
<stop offset="1" stop-color="#8CFF00"/>
</linearGradient>
<radialGradient id="paint16_radial_1709_5321" cx="0" cy="0" r="1" gradientUnits="userSpaceOnUse" gradientTransform="translate(99.1457 323.151) rotate(83.0538) scale(2.37471)">
<stop stop-color="#8CFF00"/>
<stop offset="1" stop-color="#054F77"/>
</radialGradient>
<linearGradient id="paint17_linear_1709_5321" x1="115.348" y1="408.47" x2="115.348" y2="415.328" gradientUnits="userSpaceOnUse">
<stop stop-color="#054F77"/>
<stop offset="1" stop-color="#8CFF00"/>
</linearGradient>
<radialGradient id="paint18_radial_1709_5321" cx="0" cy="0" r="1" gradientUnits="userSpaceOnUse" gradientTransform="translate(115.051 409.216) rotate(83.0538) scale(2.37471)">
<stop stop-color="#8CFF00"/>
<stop offset="1" stop-color="#054F77"/>
</radialGradient>
<linearGradient id="paint19_linear_1709_5321" x1="86.9916" y1="382.007" x2="86.9916" y2="395.234" gradientUnits="userSpaceOnUse">
<stop stop-color="#054F77"/>
<stop offset="1" stop-color="#8CFF00"/>
</linearGradient>
<radialGradient id="paint20_radial_1709_5321" cx="0" cy="0" r="1" gradientUnits="userSpaceOnUse" gradientTransform="translate(86.4203 383.447) rotate(83.0538) scale(4.57985)">
<stop stop-color="#8CFF00"/>
<stop offset="1" stop-color="#054F77"/>
</radialGradient>
<linearGradient id="paint21_linear_1709_5321" x1="43.143" y1="354.16" x2="132.578" y2="354.16" gradientUnits="userSpaceOnUse">
<stop stop-color="#8CFF00"/>
<stop offset="1" stop-color="#F4FBFF" stop-opacity="0.68"/>
</linearGradient>
</defs>
</svg>
