<svg width="654" height="625" viewBox="0 0 654 625" fill="none" xmlns="http://www.w3.org/2000/svg">
<rect opacity="0.5" x="0.68457" y="0.540039" width="652.63" height="623.9" fill="url(#paint0_radial_1709_5323)"/>
<path d="M281.353 402.748L280.931 402.965L281.337 403.211L328.327 431.758L328.456 431.836L328.589 431.765L378.788 405.11L379.235 404.872L378.786 404.639L328.587 378.585L328.465 378.522L328.343 378.584L281.353 402.748Z" stroke="url(#paint1_linear_1709_5323)" stroke-width="0.531282"/>
<path d="M281.497 388.187V366.917L328.387 395.277L378.665 368.829V388.113L328.387 414.844L281.497 388.187Z" fill="url(#paint2_linear_1709_5323)"/>
<path d="M281.476 366.962L328.466 342.799L378.665 368.854L328.466 395.509L281.476 366.962Z" fill="url(#paint3_linear_1709_5323)"/>
<g filter="url(#filter0_f_1709_5323)">
<path d="M281.882 367.001L328.555 395.613L378.088 368.611" stroke="#F4FBFF" stroke-width="2.12513"/>
</g>
<path d="M281.846 366.998L281.755 366.943L281.644 367.124L281.735 367.179L281.846 366.998ZM328.554 395.613L328.499 395.704L328.605 395.706L328.554 395.613ZM378.138 368.704C378.19 368.676 378.209 368.612 378.181 368.56C378.153 368.508 378.088 368.489 378.037 368.518L378.138 368.704ZM281.735 367.179L328.499 395.704L328.61 395.522L281.846 366.998L281.735 367.179ZM328.605 395.706L378.138 368.704L378.037 368.518L328.503 395.52L328.605 395.706Z" fill="#F4FBFF"/>
<path d="M281.497 352.164V330.895L328.387 359.254L378.665 332.806V352.09L328.387 378.822L281.497 352.164Z" fill="url(#paint4_linear_1709_5323)"/>
<path d="M281.476 330.94L328.466 306.776L378.665 332.831L328.466 359.487L281.476 330.94Z" fill="url(#paint5_linear_1709_5323)"/>
<g filter="url(#filter1_f_1709_5323)">
<path d="M281.882 330.979L328.555 359.59L378.088 332.588" stroke="#F4FBFF" stroke-width="2.12513"/>
</g>
<path d="M281.846 330.975L281.755 330.92L281.644 331.101L281.735 331.156L281.846 330.975ZM328.554 359.59L328.499 359.681L328.605 359.683L328.554 359.59ZM378.138 332.681C378.19 332.653 378.209 332.589 378.181 332.537C378.153 332.486 378.088 332.467 378.037 332.495L378.138 332.681ZM281.735 331.156L328.499 359.681L328.61 359.499L281.846 330.975L281.735 331.156ZM328.605 359.683L378.138 332.681L378.037 332.495L328.503 359.497L328.605 359.683Z" fill="#F4FBFF"/>
<path d="M397.769 402.748L397.347 402.965L397.752 403.211L444.742 431.758L444.871 431.837L445.005 431.766L495.204 405.11L495.651 404.873L495.202 404.64L445.003 378.585L444.881 378.522L444.759 378.585L397.769 402.748Z" stroke="url(#paint6_linear_1709_5323)" stroke-width="0.531282"/>
<path d="M397.911 391.372V370.103L444.8 398.462L495.079 372.014V391.299L444.8 418.03L397.911 391.372Z" fill="url(#paint7_linear_1709_5323)"/>
<path d="M397.89 370.148L444.88 345.984L495.079 372.039L444.88 398.695L397.89 370.148Z" fill="url(#paint8_linear_1709_5323)"/>
<g filter="url(#filter2_f_1709_5323)">
<path d="M398.296 370.187L444.969 398.798L494.502 371.796" stroke="#F4FBFF" stroke-width="2.12513"/>
</g>
<path d="M398.26 370.183L398.169 370.128L398.059 370.309L398.149 370.365L398.26 370.183ZM444.968 398.798L444.913 398.889L445.019 398.891L444.968 398.798ZM494.552 371.889C494.604 371.861 494.623 371.797 494.595 371.745C494.567 371.694 494.502 371.675 494.451 371.703L494.552 371.889ZM398.149 370.365L444.913 398.889L445.024 398.707L398.26 370.183L398.149 370.365ZM445.019 398.891L494.552 371.889L494.451 371.703L444.917 398.705L445.019 398.891Z" fill="#F4FBFF"/>
<path d="M397.911 355.349V334.08L444.8 362.439L495.079 335.991V355.276L444.8 382.007L397.911 355.349Z" fill="url(#paint9_linear_1709_5323)"/>
<path d="M397.89 334.125L444.88 309.961L495.079 336.016L444.88 362.672L397.89 334.125Z" fill="url(#paint10_linear_1709_5323)"/>
<g filter="url(#filter3_f_1709_5323)">
<path d="M398.296 334.164L444.969 362.775L494.502 335.773" stroke="#F4FBFF" stroke-width="2.12513"/>
</g>
<path d="M398.26 334.161L398.169 334.105L398.059 334.287L398.149 334.342L398.26 334.161ZM444.968 362.775L444.913 362.866L445.019 362.869L444.968 362.775ZM494.552 335.867C494.604 335.839 494.623 335.774 494.595 335.723C494.567 335.671 494.502 335.652 494.451 335.68L494.552 335.867ZM398.149 334.342L444.913 362.866L445.024 362.685L398.26 334.161L398.149 334.342ZM445.019 362.869L494.552 335.867L494.451 335.68L444.917 362.682L445.019 362.869Z" fill="#F4FBFF"/>
<path d="M397.911 319.327V298.057L444.8 326.416L495.079 299.969V319.253L444.8 345.984L397.911 319.327Z" fill="url(#paint11_linear_1709_5323)"/>
<path d="M397.89 298.102L444.88 273.939L495.079 299.993L444.88 326.649L397.89 298.102Z" fill="url(#paint12_linear_1709_5323)"/>
<g filter="url(#filter4_f_1709_5323)">
<path d="M398.296 298.141L444.969 326.753L494.502 299.751" stroke="#F4FBFF" stroke-width="2.12513"/>
</g>
<path d="M398.26 298.138L398.169 298.082L398.059 298.264L398.149 298.319L398.26 298.138ZM444.968 326.752L444.913 326.843L445.019 326.846L444.968 326.752ZM494.552 299.844C494.604 299.816 494.623 299.751 494.595 299.7C494.567 299.648 494.502 299.629 494.451 299.657L494.552 299.844ZM398.149 298.319L444.913 326.843L445.024 326.662L398.26 298.138L398.149 298.319ZM445.019 326.846L494.552 299.844L494.451 299.657L444.917 326.659L445.019 326.846Z" fill="#F4FBFF"/>
<path d="M281.497 316.141V294.872L328.387 323.231L378.665 296.783V316.068L328.387 342.799L281.497 316.141Z" fill="url(#paint13_linear_1709_5323)"/>
<path d="M281.477 294.917L328.467 270.753L378.666 296.808L328.467 323.464L281.477 294.917Z" fill="url(#paint14_linear_1709_5323)"/>
<g filter="url(#filter5_f_1709_5323)">
<path d="M281.883 294.955L328.555 323.566L378.088 296.564" stroke="#F4FBFF" stroke-width="2.12513"/>
</g>
<path d="M281.846 294.952L281.756 294.897L281.645 295.078L281.736 295.134L281.846 294.952ZM328.555 323.567L328.499 323.658L328.606 323.66L328.555 323.567ZM378.139 296.658C378.19 296.63 378.209 296.566 378.181 296.514C378.153 296.463 378.089 296.444 378.037 296.472L378.139 296.658ZM281.736 295.134L328.499 323.658L328.61 323.476L281.846 294.952L281.736 295.134ZM328.606 323.66L378.139 296.658L378.037 296.472L328.504 323.474L328.606 323.66Z" fill="#F4FBFF"/>
<path d="M281.497 280.119V258.85L328.387 287.209L378.665 260.761V280.045L328.387 306.777L281.497 280.119Z" fill="url(#paint15_linear_1709_5323)"/>
<path d="M281.477 258.895L328.467 234.731L378.666 260.786L328.467 287.442L281.477 258.895Z" fill="url(#paint16_linear_1709_5323)"/>
<g filter="url(#filter6_f_1709_5323)">
<path d="M281.883 258.934L328.555 287.545L378.088 260.543" stroke="#F4FBFF" stroke-width="2.12513"/>
</g>
<path d="M281.846 258.93L281.756 258.875L281.645 259.056L281.736 259.112L281.846 258.93ZM328.555 287.545L328.499 287.636L328.606 287.638L328.555 287.545ZM378.139 260.637C378.19 260.608 378.209 260.544 378.181 260.492C378.153 260.441 378.089 260.422 378.037 260.45L378.139 260.637ZM281.736 259.112L328.499 287.636L328.61 287.454L281.846 258.93L281.736 259.112ZM328.606 287.638L378.139 260.637L378.037 260.45L328.504 287.452L328.606 287.638Z" fill="#F4FBFF"/>
<path d="M164.939 402.748L164.517 402.965L164.923 403.211L211.913 431.758L212.042 431.837L212.175 431.766L262.374 405.11L262.821 404.873L262.372 404.64L212.173 378.585L212.051 378.522L211.929 378.585L164.939 402.748Z" stroke="url(#paint17_linear_1709_5323)" stroke-width="0.531282"/>
<path d="M165.083 388.187V366.917L211.973 395.277L262.251 368.829V388.113L211.973 414.844L165.083 388.187Z" fill="url(#paint18_linear_1709_5323)"/>
<path d="M165.062 366.962L212.053 342.799L262.252 368.854L212.053 395.509L165.062 366.962Z" fill="url(#paint19_linear_1709_5323)"/>
<g filter="url(#filter7_f_1709_5323)">
<path d="M165.469 367.002L212.141 395.613L261.674 368.611" stroke="#F4FBFF" stroke-width="2.12513"/>
</g>
<path d="M165.432 366.998L165.342 366.943L165.231 367.124L165.322 367.179L165.432 366.998ZM212.141 395.613L212.085 395.704L212.192 395.706L212.141 395.613ZM261.725 368.704C261.776 368.676 261.795 368.612 261.767 368.56C261.739 368.508 261.674 368.489 261.623 368.518L261.725 368.704ZM165.322 367.179L212.085 395.704L212.196 395.522L165.432 366.998L165.322 367.179ZM212.192 395.706L261.725 368.704L261.623 368.518L212.09 395.52L212.192 395.706Z" fill="#F4FBFF"/>
<path d="M165.083 352.164V330.895L211.973 359.254L262.251 332.806V352.09L211.973 378.822L165.083 352.164Z" fill="url(#paint20_linear_1709_5323)"/>
<path d="M165.062 330.939L212.053 306.776L262.252 332.831L212.053 359.486L165.062 330.939Z" fill="url(#paint21_linear_1709_5323)"/>
<g filter="url(#filter8_f_1709_5323)">
<path d="M165.469 330.979L212.141 359.59L261.674 332.588" stroke="#F4FBFF" stroke-width="2.12513"/>
</g>
<path d="M165.432 330.975L165.342 330.92L165.231 331.101L165.322 331.156L165.432 330.975ZM212.141 359.59L212.085 359.681L212.192 359.683L212.141 359.59ZM261.725 332.681C261.776 332.653 261.795 332.589 261.767 332.537C261.739 332.486 261.674 332.467 261.623 332.495L261.725 332.681ZM165.322 331.156L212.085 359.681L212.196 359.499L165.432 330.975L165.322 331.156ZM212.192 359.683L261.725 332.681L261.623 332.495L212.09 359.497L212.192 359.683Z" fill="#F4FBFF"/>
<path d="M165.083 316.141V294.872L211.973 323.231L262.251 296.783V316.068L211.973 342.799L165.083 316.141Z" fill="url(#paint22_linear_1709_5323)"/>
<path d="M165.062 294.917L212.053 270.753L262.252 296.808L212.053 323.464L165.062 294.917Z" fill="url(#paint23_linear_1709_5323)"/>
<g filter="url(#filter9_f_1709_5323)">
<path d="M165.469 294.955L212.141 323.566L261.674 296.564" stroke="#F4FBFF" stroke-width="2.12513"/>
</g>
<path d="M165.432 294.952L165.342 294.897L165.231 295.078L165.322 295.134L165.432 294.952ZM212.141 323.567L212.085 323.658L212.192 323.66L212.141 323.567ZM261.725 296.658C261.776 296.63 261.795 296.566 261.767 296.514C261.739 296.463 261.674 296.444 261.623 296.472L261.725 296.658ZM165.322 295.134L212.085 323.658L212.196 323.476L165.432 294.952L165.322 295.134ZM212.192 323.66L261.725 296.658L261.623 296.472L212.09 323.474L212.192 323.66Z" fill="#F4FBFF"/>
<path d="M165.083 280.119V258.85L211.973 287.209L262.251 260.761V280.045L211.973 306.777L165.083 280.119Z" fill="url(#paint24_linear_1709_5323)"/>
<path d="M165.062 258.895L212.053 234.731L262.252 260.786L212.053 287.442L165.062 258.895Z" fill="url(#paint25_linear_1709_5323)"/>
<g filter="url(#filter10_f_1709_5323)">
<path d="M165.469 258.934L212.141 287.545L261.674 260.543" stroke="#F4FBFF" stroke-width="2.12513"/>
</g>
<path d="M165.432 258.93L165.342 258.875L165.231 259.056L165.322 259.112L165.432 258.93ZM212.141 287.545L212.085 287.636L212.192 287.638L212.141 287.545ZM261.725 260.637C261.776 260.608 261.795 260.544 261.767 260.492C261.739 260.441 261.674 260.422 261.623 260.45L261.725 260.637ZM165.322 259.112L212.085 287.636L212.196 287.454L165.432 258.93L165.322 259.112ZM212.192 287.638L261.725 260.637L261.623 260.45L212.09 287.452L212.192 287.638Z" fill="#F4FBFF"/>
<path d="M281.497 244.096V222.826L328.387 251.185L378.665 224.738V244.022L328.387 270.753L281.497 244.096Z" fill="url(#paint26_linear_1709_5323)"/>
<path d="M281.477 222.871L328.467 198.708L378.666 224.763L328.467 251.418L281.477 222.871Z" fill="url(#paint27_linear_1709_5323)"/>
<g filter="url(#filter11_i_1709_5323)">
<path d="M303.569 221.809L329.069 208.696L356.31 222.835L329.069 237.3L303.569 221.809Z" fill="url(#paint28_linear_1709_5323)"/>
</g>
<g filter="url(#filter12_f_1709_5323)">
<path d="M281.883 222.911L328.555 251.522L378.088 224.52" stroke="#F4FBFF" stroke-width="2.12513"/>
</g>
<path d="M281.846 222.907L281.756 222.852L281.645 223.033L281.736 223.088L281.846 222.907ZM328.555 251.522L328.499 251.612L328.606 251.615L328.555 251.522ZM378.139 224.613C378.19 224.585 378.209 224.52 378.181 224.469C378.153 224.417 378.089 224.398 378.037 224.426L378.139 224.613ZM281.736 223.088L328.499 251.612L328.61 251.431L281.846 222.907L281.736 223.088ZM328.606 251.615L378.139 224.613L378.037 224.426L328.504 251.428L328.606 251.615Z" fill="#F4FBFF"/>
<path d="M303.569 186.093L355.761 187.333V222.883L303.569 221.919V186.093Z" fill="url(#paint29_radial_1709_5323)"/>
<g filter="url(#filter13_d_1709_5323)">
<path d="M303.569 186.293L329.068 173.18L356.309 187.319L329.068 201.784L303.569 186.293Z" fill="url(#paint30_linear_1709_5323)"/>
</g>
<path d="M420.125 296.867L445.624 283.755L472.865 297.893L445.624 312.358L420.125 296.867Z" fill="url(#paint31_linear_1709_5323)"/>
<path d="M187.153 257.659L212.653 244.547L239.894 258.686L212.653 273.15L187.153 257.659Z" fill="url(#paint32_linear_1709_5323)"/>
<g filter="url(#filter14_f_1709_5323)">
<circle cx="144.249" cy="283.756" r="4.2025" transform="rotate(-22.7554 144.249 283.756)" fill="url(#paint33_linear_1709_5323)"/>
</g>
<g filter="url(#filter15_f_1709_5323)">
<circle cx="437.48" cy="191.594" r="4.2025" transform="rotate(-22.7554 437.48 191.594)" fill="url(#paint34_linear_1709_5323)"/>
</g>
<g filter="url(#filter16_f_1709_5323)">
<circle cx="397.89" cy="273.939" r="4.2025" transform="rotate(-22.7554 397.89 273.939)" fill="url(#paint35_linear_1709_5323)"/>
</g>
<g filter="url(#filter17_f_1709_5323)">
<circle cx="262.25" cy="228.972" r="8.04268" transform="rotate(-22.7554 262.25 228.972)" fill="url(#paint36_linear_1709_5323)"/>
</g>
<g filter="url(#filter18_f_1709_5323)">
<circle cx="191.758" cy="224.367" r="3.51809" transform="rotate(-22.7554 191.758 224.367)" fill="url(#paint37_linear_1709_5323)"/>
</g>
<g filter="url(#filter19_f_1709_5323)">
<circle cx="389.301" cy="422.654" r="3.02775" transform="rotate(-22.7554 389.301 422.654)" fill="url(#paint38_linear_1709_5323)"/>
</g>
<g opacity="0.5" filter="url(#filter20_f_1709_5323)">
<path d="M309.428 205.655V204.799H311.467V198.884L309.541 199.256V198.535L311.783 197.769H312.414V204.799H314.566V205.655H309.428Z" fill="white"/>
<path d="M309.428 205.655H308.959V206.125H309.428V205.655ZM309.428 204.799V204.33H308.959V204.799H309.428ZM311.467 204.799V205.268H311.937V204.799H311.467ZM311.467 198.884H311.937V198.315L311.379 198.423L311.467 198.884ZM309.541 199.256H309.071V199.824L309.63 199.717L309.541 199.256ZM309.541 198.535L309.389 198.09L309.071 198.199V198.535H309.541ZM311.783 197.769V197.299H311.705L311.631 197.324L311.783 197.769ZM312.414 197.769H312.883V197.299H312.414V197.769ZM312.414 204.799H311.944V205.268H312.414V204.799ZM314.566 204.799H315.035V204.33H314.566V204.799ZM314.566 205.655V206.125H315.035V205.655H314.566ZM309.898 205.655V204.799H308.959V205.655H309.898ZM309.428 205.268H311.467V204.33H309.428V205.268ZM311.937 204.799V198.884H310.998V204.799H311.937ZM311.379 198.423L309.452 198.795L309.63 199.717L311.556 199.345L311.379 198.423ZM310.01 199.256V198.535H309.071V199.256H310.01ZM309.693 198.979L311.935 198.213L311.631 197.324L309.389 198.09L309.693 198.979ZM311.783 198.238H312.414V197.299H311.783V198.238ZM311.944 197.769V204.799H312.883V197.769H311.944ZM312.414 205.268H314.566V204.33H312.414V205.268ZM314.096 204.799V205.655H315.035V204.799H314.096ZM314.566 205.186H309.428V206.125H314.566V205.186Z" fill="#8CFF00"/>
</g>
<g opacity="0.5" filter="url(#filter21_f_1709_5323)">
<path d="M337.144 219.663V218.807H339.183V212.892L337.257 213.264V212.543L339.499 211.776H340.13V218.807H342.282V219.663H337.144Z" fill="white"/>
<path d="M337.144 219.663H336.675V220.133H337.144V219.663ZM337.144 218.807V218.337H336.675V218.807H337.144ZM339.183 218.807V219.276H339.653V218.807H339.183ZM339.183 212.892H339.653V212.323L339.094 212.431L339.183 212.892ZM337.257 213.264H336.787V213.832L337.346 213.725L337.257 213.264ZM337.257 212.543L337.105 212.098L336.787 212.207V212.543H337.257ZM339.499 211.776V211.307H339.421L339.347 211.332L339.499 211.776ZM340.13 211.776H340.599V211.307H340.13V211.776ZM340.13 218.807H339.66V219.276H340.13V218.807ZM342.282 218.807H342.751V218.337H342.282V218.807ZM342.282 219.663V220.133H342.751V219.663H342.282ZM337.613 219.663V218.807H336.675V219.663H337.613ZM337.144 219.276H339.183V218.337H337.144V219.276ZM339.653 218.807V212.892H338.714V218.807H339.653ZM339.094 212.431L337.168 212.803L337.346 213.725L339.272 213.353L339.094 212.431ZM337.726 213.264V212.543H336.787V213.264H337.726ZM337.408 212.987L339.651 212.221L339.347 211.332L337.105 212.098L337.408 212.987ZM339.499 212.246H340.13V211.307H339.499V212.246ZM339.66 211.776V218.807H340.599V211.776H339.66ZM340.13 219.276H342.282V218.337H340.13V219.276ZM341.812 218.807V219.663H342.751V218.807H341.812ZM342.282 219.194H337.144V220.133H342.282V219.194Z" fill="#8CFF00"/>
</g>
<g opacity="0.5" filter="url(#filter22_f_1709_5323)">
<path d="M348.538 205.376C347.944 205.376 347.418 205.211 346.96 204.88C346.51 204.55 346.157 204.08 345.901 203.472C345.653 202.863 345.529 202.139 345.529 201.297C345.529 200.456 345.653 199.731 345.901 199.123C346.157 198.514 346.51 198.045 346.96 197.715C347.418 197.384 347.944 197.219 348.538 197.219C349.138 197.219 349.664 197.384 350.115 197.715C350.566 198.045 350.915 198.514 351.163 199.123C351.418 199.731 351.546 200.456 351.546 201.297C351.546 202.139 351.418 202.863 351.163 203.472C350.915 204.08 350.566 204.55 350.115 204.88C349.664 205.211 349.138 205.376 348.538 205.376ZM346.498 201.297C346.498 201.808 346.551 202.27 346.656 202.683C346.769 203.089 346.923 203.431 347.118 203.708L349.304 198.289C349.071 198.161 348.816 198.098 348.538 198.098C348.14 198.098 347.786 198.229 347.479 198.492C347.171 198.747 346.93 199.115 346.757 199.596C346.585 200.069 346.498 200.636 346.498 201.297ZM348.538 204.508C348.936 204.508 349.289 204.381 349.597 204.125C349.905 203.862 350.145 203.491 350.318 203.01C350.49 202.529 350.577 201.958 350.577 201.297C350.577 200.787 350.521 200.328 350.408 199.923C350.303 199.51 350.152 199.164 349.957 198.886L347.76 204.317C348.001 204.445 348.26 204.508 348.538 204.508Z" fill="white"/>
<path d="M346.96 204.88L346.683 205.259L346.686 205.261L346.96 204.88ZM345.901 203.472L345.466 203.649L345.468 203.654L345.901 203.472ZM345.901 199.123L345.468 198.941L345.466 198.946L345.901 199.123ZM346.96 197.715L346.686 197.334L346.683 197.336L346.96 197.715ZM350.115 197.715L350.393 197.336L350.393 197.336L350.115 197.715ZM351.163 199.123L350.728 199.3L350.73 199.305L351.163 199.123ZM351.163 203.472L350.73 203.29L350.728 203.295L351.163 203.472ZM350.115 204.88L350.393 205.259L350.393 205.259L350.115 204.88ZM346.656 202.683L346.201 202.799L346.204 202.809L346.656 202.683ZM347.118 203.708L346.734 203.978L347.23 204.685L347.553 203.884L347.118 203.708ZM349.304 198.289L349.739 198.465L349.895 198.078L349.529 197.878L349.304 198.289ZM347.479 198.492L347.778 198.853L347.783 198.849L347.479 198.492ZM346.757 199.596L347.198 199.757L347.199 199.755L346.757 199.596ZM349.597 204.125L349.896 204.487L349.901 204.482L349.597 204.125ZM350.408 199.923L349.953 200.039L349.956 200.048L350.408 199.923ZM349.957 198.886L350.341 198.616L349.845 197.911L349.522 198.71L349.957 198.886ZM347.76 204.317L347.325 204.141L347.166 204.533L347.54 204.731L347.76 204.317ZM348.538 204.906C348.038 204.906 347.609 204.769 347.235 204.499L346.686 205.261C347.228 205.652 347.851 205.845 348.538 205.845V204.906ZM347.238 204.502C346.867 204.23 346.562 203.834 346.334 203.29L345.468 203.654C345.751 204.326 346.152 204.869 346.683 205.259L347.238 204.502ZM346.336 203.295C346.116 202.756 345.999 202.094 345.999 201.297H345.06C345.06 202.183 345.19 202.971 345.466 203.649L346.336 203.295ZM345.999 201.297C345.999 200.501 346.116 199.839 346.336 199.3L345.466 198.946C345.19 199.624 345.06 200.412 345.06 201.297H345.999ZM346.334 199.305C346.562 198.76 346.867 198.365 347.238 198.093L346.683 197.336C346.152 197.725 345.751 198.269 345.468 198.941L346.334 199.305ZM347.235 198.095C347.609 197.825 348.038 197.688 348.538 197.688V196.749C347.851 196.749 347.228 196.943 346.686 197.334L347.235 198.095ZM348.538 197.688C349.047 197.688 349.473 197.826 349.837 198.093L350.393 197.336C349.855 196.942 349.23 196.749 348.538 196.749V197.688ZM349.837 198.093C350.207 198.364 350.507 198.758 350.728 199.3L351.597 198.946C351.323 198.271 350.925 197.726 350.393 197.336L349.837 198.093ZM350.73 199.305C350.955 199.842 351.076 200.502 351.076 201.297H352.015C352.015 200.41 351.881 199.621 351.596 198.941L350.73 199.305ZM351.076 201.297C351.076 202.093 350.955 202.753 350.73 203.29L351.596 203.654C351.881 202.974 352.015 202.185 352.015 201.297H351.076ZM350.728 203.295C350.507 203.837 350.207 204.231 349.837 204.502L350.393 205.259C350.925 204.869 351.323 204.323 351.597 203.649L350.728 203.295ZM349.837 204.502C349.473 204.769 349.047 204.906 348.538 204.906V205.845C349.23 205.845 349.855 205.653 350.393 205.259L349.837 204.502ZM346.029 201.297C346.029 201.84 346.085 202.341 346.201 202.799L347.111 202.567C347.017 202.199 346.968 201.777 346.968 201.297H346.029ZM346.204 202.809C346.327 203.254 346.501 203.648 346.734 203.978L347.502 203.439C347.344 203.214 347.21 202.923 347.108 202.558L346.204 202.809ZM347.553 203.884L349.739 198.465L348.868 198.114L346.683 203.533L347.553 203.884ZM349.529 197.878C349.224 197.71 348.891 197.628 348.538 197.628V198.567C348.74 198.567 348.918 198.613 349.078 198.701L349.529 197.878ZM348.538 197.628C348.026 197.628 347.565 197.801 347.174 198.135L347.783 198.849C348.008 198.657 348.253 198.567 348.538 198.567V197.628ZM347.179 198.131C346.791 198.452 346.509 198.899 346.316 199.437L347.199 199.755C347.351 199.332 347.55 199.042 347.778 198.853L347.179 198.131ZM346.316 199.435C346.12 199.973 346.029 200.598 346.029 201.297H346.968C346.968 200.675 347.049 200.165 347.198 199.757L346.316 199.435ZM348.538 204.978C349.046 204.978 349.505 204.812 349.896 204.487L349.297 203.764C349.073 203.95 348.826 204.039 348.538 204.039V204.978ZM349.901 204.482C350.286 204.154 350.566 203.706 350.76 203.169L349.876 202.851C349.724 203.275 349.523 203.571 349.292 203.768L349.901 204.482ZM350.76 203.169C350.955 202.625 351.046 201.997 351.046 201.297H350.107C350.107 201.919 350.026 202.434 349.876 202.851L350.76 203.169ZM351.046 201.297C351.046 200.753 350.986 200.251 350.86 199.797L349.956 200.048C350.055 200.406 350.107 200.82 350.107 201.297H351.046ZM350.863 199.807C350.747 199.352 350.577 198.951 350.341 198.616L349.573 199.156C349.728 199.377 349.858 199.667 349.953 200.039L350.863 199.807ZM349.522 198.71L347.325 204.141L348.195 204.493L350.392 199.062L349.522 198.71ZM347.54 204.731C347.85 204.896 348.185 204.978 348.538 204.978V204.039C348.335 204.039 348.151 203.993 347.98 203.902L347.54 204.731Z" fill="#8CFF00"/>
</g>
<g opacity="0.5" filter="url(#filter23_f_1709_5323)">
<path d="M326.687 216.713C326.093 216.713 325.567 216.548 325.109 216.218C324.659 215.887 324.305 215.418 324.05 214.809C323.802 214.201 323.678 213.476 323.678 212.635C323.678 211.794 323.802 211.069 324.05 210.46C324.305 209.852 324.659 209.382 325.109 209.052C325.567 208.721 326.093 208.556 326.687 208.556C327.287 208.556 327.813 208.721 328.264 209.052C328.715 209.382 329.064 209.852 329.312 210.46C329.567 211.069 329.695 211.794 329.695 212.635C329.695 213.476 329.567 214.201 329.312 214.809C329.064 215.418 328.715 215.887 328.264 216.218C327.813 216.548 327.287 216.713 326.687 216.713ZM324.647 212.635C324.647 213.146 324.7 213.607 324.805 214.021C324.918 214.426 325.072 214.768 325.267 215.046L327.453 209.627C327.22 209.499 326.964 209.435 326.687 209.435C326.288 209.435 325.935 209.566 325.627 209.829C325.319 210.085 325.079 210.453 324.906 210.933C324.734 211.407 324.647 211.974 324.647 212.635ZM326.687 215.846C327.085 215.846 327.438 215.718 327.746 215.463C328.054 215.2 328.294 214.828 328.467 214.347C328.639 213.867 328.726 213.296 328.726 212.635C328.726 212.124 328.669 211.666 328.557 211.26C328.452 210.847 328.301 210.502 328.106 210.224L325.909 215.654C326.149 215.782 326.409 215.846 326.687 215.846Z" fill="white"/>
<path d="M325.109 216.218L324.832 216.596L324.835 216.598L325.109 216.218ZM324.05 214.809L323.615 214.986L323.617 214.991L324.05 214.809ZM324.05 210.46L323.617 210.279L323.615 210.283L324.05 210.46ZM325.109 209.052L324.835 208.671L324.832 208.673L325.109 209.052ZM328.264 209.052L328.541 208.673L328.541 208.673L328.264 209.052ZM329.312 210.46L328.877 210.637L328.879 210.642L329.312 210.46ZM329.312 214.809L328.879 214.628L328.877 214.632L329.312 214.809ZM328.264 216.218L328.541 216.596L328.541 216.596L328.264 216.218ZM324.805 214.021L324.35 214.136L324.353 214.146L324.805 214.021ZM325.267 215.046L324.883 215.316L325.379 216.022L325.702 215.221L325.267 215.046ZM327.453 209.627L327.888 209.802L328.044 209.415L327.678 209.215L327.453 209.627ZM325.627 209.829L325.927 210.191L325.932 210.186L325.627 209.829ZM324.906 210.933L325.347 211.094L325.348 211.092L324.906 210.933ZM327.746 215.463L328.045 215.824L328.05 215.82L327.746 215.463ZM328.557 211.26L328.102 211.376L328.104 211.386L328.557 211.26ZM328.106 210.224L328.49 209.954L327.994 209.248L327.671 210.048L328.106 210.224ZM325.909 215.654L325.474 215.478L325.315 215.87L325.689 216.069L325.909 215.654ZM326.687 216.244C326.186 216.244 325.758 216.107 325.384 215.837L324.835 216.598C325.377 216.99 326 217.183 326.687 217.183V216.244ZM325.387 215.839C325.016 215.567 324.711 215.172 324.483 214.628L323.617 214.991C323.9 215.664 324.301 216.207 324.832 216.596L325.387 215.839ZM324.485 214.632C324.265 214.093 324.148 213.432 324.148 212.635H323.209C323.209 213.52 323.339 214.308 323.615 214.986L324.485 214.632ZM324.148 212.635C324.148 211.838 324.265 211.176 324.485 210.637L323.615 210.283C323.339 210.961 323.209 211.749 323.209 212.635H324.148ZM324.483 210.642C324.711 210.098 325.016 209.702 325.387 209.431L324.832 208.673C324.301 209.063 323.9 209.606 323.617 210.279L324.483 210.642ZM325.384 209.433C325.758 209.163 326.186 209.026 326.687 209.026V208.087C326 208.087 325.377 208.28 324.835 208.671L325.384 209.433ZM326.687 209.026C327.196 209.026 327.622 209.164 327.986 209.431L328.541 208.673C328.004 208.279 327.379 208.087 326.687 208.087V209.026ZM327.986 209.431C328.355 209.701 328.656 210.095 328.877 210.637L329.746 210.283C329.472 209.609 329.074 209.064 328.541 208.673L327.986 209.431ZM328.879 210.642C329.104 211.179 329.225 211.839 329.225 212.635H330.164C330.164 211.748 330.03 210.958 329.745 210.279L328.879 210.642ZM329.225 212.635C329.225 213.43 329.104 214.09 328.879 214.628L329.745 214.991C330.03 214.312 330.164 213.522 330.164 212.635H329.225ZM328.877 214.632C328.656 215.174 328.355 215.568 327.986 215.839L328.541 216.596C329.074 216.206 329.472 215.661 329.746 214.986L328.877 214.632ZM327.986 215.839C327.622 216.106 327.196 216.244 326.687 216.244V217.183C327.379 217.183 328.004 216.99 328.541 216.596L327.986 215.839ZM324.178 212.635C324.178 213.177 324.234 213.679 324.35 214.136L325.26 213.905C325.166 213.536 325.117 213.114 325.117 212.635H324.178ZM324.353 214.146C324.476 214.592 324.65 214.985 324.883 215.316L325.651 214.776C325.493 214.551 325.359 214.261 325.257 213.895L324.353 214.146ZM325.702 215.221L327.888 209.802L327.017 209.451L324.832 214.87L325.702 215.221ZM327.678 209.215C327.373 209.048 327.04 208.966 326.687 208.966V209.904C326.889 209.904 327.067 209.95 327.227 210.038L327.678 209.215ZM326.687 208.966C326.175 208.966 325.714 209.138 325.323 209.472L325.932 210.186C326.157 209.995 326.402 209.904 326.687 209.904V208.966ZM325.328 209.468C324.94 209.79 324.658 210.236 324.465 210.775L325.348 211.092C325.5 210.669 325.699 210.38 325.927 210.191L325.328 209.468ZM324.465 210.773C324.269 211.311 324.178 211.935 324.178 212.635H325.117C325.117 212.013 325.198 211.503 325.347 211.094L324.465 210.773ZM326.687 216.315C327.195 216.315 327.654 216.149 328.045 215.824L327.446 215.101C327.222 215.287 326.975 215.376 326.687 215.376V216.315ZM328.05 215.82C328.435 215.492 328.715 215.044 328.908 214.506L328.025 214.189C327.873 214.612 327.672 214.908 327.441 215.106L328.05 215.82ZM328.908 214.506C329.104 213.962 329.195 213.335 329.195 212.635H328.256C328.256 213.257 328.175 213.771 328.025 214.189L328.908 214.506ZM329.195 212.635C329.195 212.09 329.135 211.589 329.009 211.135L328.104 211.386C328.204 211.743 328.256 212.158 328.256 212.635H329.195ZM329.012 211.144C328.896 210.69 328.725 210.289 328.49 209.954L327.722 210.494C327.877 210.715 328.007 211.005 328.102 211.376L329.012 211.144ZM327.671 210.048L325.474 215.478L326.344 215.83L328.541 210.4L327.671 210.048ZM325.689 216.069C325.999 216.233 326.333 216.315 326.687 216.315V215.376C326.484 215.376 326.3 215.331 326.129 215.24L325.689 216.069Z" fill="#8CFF00"/>
</g>
<defs>
<filter id="filter0_f_1709_5323" x="278.139" y="362.908" width="103.644" height="37.12" filterUnits="userSpaceOnUse" color-interpolation-filters="sRGB">
<feFlood flood-opacity="0" result="BackgroundImageFix"/>
<feBlend mode="normal" in="SourceGraphic" in2="BackgroundImageFix" result="shape"/>
<feGaussianBlur stdDeviation="1.59385" result="effect1_foregroundBlur_1709_5323"/>
</filter>
<filter id="filter1_f_1709_5323" x="278.139" y="326.885" width="103.644" height="37.12" filterUnits="userSpaceOnUse" color-interpolation-filters="sRGB">
<feFlood flood-opacity="0" result="BackgroundImageFix"/>
<feBlend mode="normal" in="SourceGraphic" in2="BackgroundImageFix" result="shape"/>
<feGaussianBlur stdDeviation="1.59385" result="effect1_foregroundBlur_1709_5323"/>
</filter>
<filter id="filter2_f_1709_5323" x="394.554" y="366.093" width="103.645" height="37.12" filterUnits="userSpaceOnUse" color-interpolation-filters="sRGB">
<feFlood flood-opacity="0" result="BackgroundImageFix"/>
<feBlend mode="normal" in="SourceGraphic" in2="BackgroundImageFix" result="shape"/>
<feGaussianBlur stdDeviation="1.59385" result="effect1_foregroundBlur_1709_5323"/>
</filter>
<filter id="filter3_f_1709_5323" x="394.554" y="330.07" width="103.645" height="37.12" filterUnits="userSpaceOnUse" color-interpolation-filters="sRGB">
<feFlood flood-opacity="0" result="BackgroundImageFix"/>
<feBlend mode="normal" in="SourceGraphic" in2="BackgroundImageFix" result="shape"/>
<feGaussianBlur stdDeviation="1.59385" result="effect1_foregroundBlur_1709_5323"/>
</filter>
<filter id="filter4_f_1709_5323" x="394.554" y="294.048" width="103.645" height="37.12" filterUnits="userSpaceOnUse" color-interpolation-filters="sRGB">
<feFlood flood-opacity="0" result="BackgroundImageFix"/>
<feBlend mode="normal" in="SourceGraphic" in2="BackgroundImageFix" result="shape"/>
<feGaussianBlur stdDeviation="1.59385" result="effect1_foregroundBlur_1709_5323"/>
</filter>
<filter id="filter5_f_1709_5323" x="278.14" y="290.861" width="103.644" height="37.12" filterUnits="userSpaceOnUse" color-interpolation-filters="sRGB">
<feFlood flood-opacity="0" result="BackgroundImageFix"/>
<feBlend mode="normal" in="SourceGraphic" in2="BackgroundImageFix" result="shape"/>
<feGaussianBlur stdDeviation="1.59385" result="effect1_foregroundBlur_1709_5323"/>
</filter>
<filter id="filter6_f_1709_5323" x="278.14" y="254.841" width="103.644" height="37.1198" filterUnits="userSpaceOnUse" color-interpolation-filters="sRGB">
<feFlood flood-opacity="0" result="BackgroundImageFix"/>
<feBlend mode="normal" in="SourceGraphic" in2="BackgroundImageFix" result="shape"/>
<feGaussianBlur stdDeviation="1.59385" result="effect1_foregroundBlur_1709_5323"/>
</filter>
<filter id="filter7_f_1709_5323" x="161.726" y="362.908" width="103.644" height="37.12" filterUnits="userSpaceOnUse" color-interpolation-filters="sRGB">
<feFlood flood-opacity="0" result="BackgroundImageFix"/>
<feBlend mode="normal" in="SourceGraphic" in2="BackgroundImageFix" result="shape"/>
<feGaussianBlur stdDeviation="1.59385" result="effect1_foregroundBlur_1709_5323"/>
</filter>
<filter id="filter8_f_1709_5323" x="161.726" y="326.885" width="103.644" height="37.12" filterUnits="userSpaceOnUse" color-interpolation-filters="sRGB">
<feFlood flood-opacity="0" result="BackgroundImageFix"/>
<feBlend mode="normal" in="SourceGraphic" in2="BackgroundImageFix" result="shape"/>
<feGaussianBlur stdDeviation="1.59385" result="effect1_foregroundBlur_1709_5323"/>
</filter>
<filter id="filter9_f_1709_5323" x="161.726" y="290.861" width="103.644" height="37.12" filterUnits="userSpaceOnUse" color-interpolation-filters="sRGB">
<feFlood flood-opacity="0" result="BackgroundImageFix"/>
<feBlend mode="normal" in="SourceGraphic" in2="BackgroundImageFix" result="shape"/>
<feGaussianBlur stdDeviation="1.59385" result="effect1_foregroundBlur_1709_5323"/>
</filter>
<filter id="filter10_f_1709_5323" x="161.726" y="254.841" width="103.644" height="37.1198" filterUnits="userSpaceOnUse" color-interpolation-filters="sRGB">
<feFlood flood-opacity="0" result="BackgroundImageFix"/>
<feBlend mode="normal" in="SourceGraphic" in2="BackgroundImageFix" result="shape"/>
<feGaussianBlur stdDeviation="1.59385" result="effect1_foregroundBlur_1709_5323"/>
</filter>
<filter id="filter11_i_1709_5323" x="303.569" y="208.696" width="52.7402" height="31.7912" filterUnits="userSpaceOnUse" color-interpolation-filters="sRGB">
<feFlood flood-opacity="0" result="BackgroundImageFix"/>
<feBlend mode="normal" in="SourceGraphic" in2="BackgroundImageFix" result="shape"/>
<feColorMatrix in="SourceAlpha" type="matrix" values="0 0 0 0 0 0 0 0 0 0 0 0 0 0 0 0 0 0 127 0" result="hardAlpha"/>
<feOffset dy="3.18769"/>
<feGaussianBlur stdDeviation="2.12513"/>
<feComposite in2="hardAlpha" operator="arithmetic" k2="-1" k3="1"/>
<feColorMatrix type="matrix" values="0 0 0 0 0.0196078 0 0 0 0 0.133333 0 0 0 0 0.2 0 0 0 0.6 0"/>
<feBlend mode="normal" in2="shape" result="effect1_innerShadow_1709_5323"/>
</filter>
<filter id="filter12_f_1709_5323" x="278.14" y="218.817" width="103.644" height="37.1195" filterUnits="userSpaceOnUse" color-interpolation-filters="sRGB">
<feFlood flood-opacity="0" result="BackgroundImageFix"/>
<feBlend mode="normal" in="SourceGraphic" in2="BackgroundImageFix" result="shape"/>
<feGaussianBlur stdDeviation="1.59385" result="effect1_foregroundBlur_1709_5323"/>
</filter>
<filter id="filter13_d_1709_5323" x="299.319" y="173.18" width="61.2408" height="37.104" filterUnits="userSpaceOnUse" color-interpolation-filters="sRGB">
<feFlood flood-opacity="0" result="BackgroundImageFix"/>
<feColorMatrix in="SourceAlpha" type="matrix" values="0 0 0 0 0 0 0 0 0 0 0 0 0 0 0 0 0 0 127 0" result="hardAlpha"/>
<feOffset dy="4.25026"/>
<feGaussianBlur stdDeviation="2.12513"/>
<feComposite in2="hardAlpha" operator="out"/>
<feColorMatrix type="matrix" values="0 0 0 0 0 0 0 0 0 0 0 0 0 0 0 0 0 0 0.25 0"/>
<feBlend mode="normal" in2="BackgroundImageFix" result="effect1_dropShadow_1709_5323"/>
<feBlend mode="normal" in="SourceGraphic" in2="effect1_dropShadow_1709_5323" result="shape"/>
</filter>
<filter id="filter14_f_1709_5323" x="138.229" y="277.736" width="12.04" height="12.0397" filterUnits="userSpaceOnUse" color-interpolation-filters="sRGB">
<feFlood flood-opacity="0" result="BackgroundImageFix"/>
<feBlend mode="normal" in="SourceGraphic" in2="BackgroundImageFix" result="shape"/>
<feGaussianBlur stdDeviation="0.908183" result="effect1_foregroundBlur_1709_5323"/>
</filter>
<filter id="filter15_f_1709_5323" x="431.46" y="185.574" width="12.04" height="12.04" filterUnits="userSpaceOnUse" color-interpolation-filters="sRGB">
<feFlood flood-opacity="0" result="BackgroundImageFix"/>
<feBlend mode="normal" in="SourceGraphic" in2="BackgroundImageFix" result="shape"/>
<feGaussianBlur stdDeviation="0.908183" result="effect1_foregroundBlur_1709_5323"/>
</filter>
<filter id="filter16_f_1709_5323" x="391.87" y="267.919" width="12.04" height="12.0397" filterUnits="userSpaceOnUse" color-interpolation-filters="sRGB">
<feFlood flood-opacity="0" result="BackgroundImageFix"/>
<feBlend mode="normal" in="SourceGraphic" in2="BackgroundImageFix" result="shape"/>
<feGaussianBlur stdDeviation="0.908183" result="effect1_foregroundBlur_1709_5323"/>
</filter>
<filter id="filter17_f_1709_5323" x="252.389" y="219.111" width="19.7221" height="19.7221" filterUnits="userSpaceOnUse" color-interpolation-filters="sRGB">
<feFlood flood-opacity="0" result="BackgroundImageFix"/>
<feBlend mode="normal" in="SourceGraphic" in2="BackgroundImageFix" result="shape"/>
<feGaussianBlur stdDeviation="0.908183" result="effect1_foregroundBlur_1709_5323"/>
</filter>
<filter id="filter18_f_1709_5323" x="186.423" y="219.031" width="10.6708" height="10.6708" filterUnits="userSpaceOnUse" color-interpolation-filters="sRGB">
<feFlood flood-opacity="0" result="BackgroundImageFix"/>
<feBlend mode="normal" in="SourceGraphic" in2="BackgroundImageFix" result="shape"/>
<feGaussianBlur stdDeviation="0.908183" result="effect1_foregroundBlur_1709_5323"/>
</filter>
<filter id="filter19_f_1709_5323" x="384.456" y="417.809" width="9.68986" height="9.68962" filterUnits="userSpaceOnUse" color-interpolation-filters="sRGB">
<feFlood flood-opacity="0" result="BackgroundImageFix"/>
<feBlend mode="normal" in="SourceGraphic" in2="BackgroundImageFix" result="shape"/>
<feGaussianBlur stdDeviation="0.908183" result="effect1_foregroundBlur_1709_5323"/>
</filter>
<filter id="filter20_f_1709_5323" x="307.55" y="195.891" width="8.89327" height="11.6423" filterUnits="userSpaceOnUse" color-interpolation-filters="sRGB">
<feFlood flood-opacity="0" result="BackgroundImageFix"/>
<feBlend mode="normal" in="SourceGraphic" in2="BackgroundImageFix" result="shape"/>
<feGaussianBlur stdDeviation="0.938893" result="effect1_foregroundBlur_1709_5323"/>
</filter>
<filter id="filter21_f_1709_5323" x="335.266" y="209.899" width="8.89327" height="11.6423" filterUnits="userSpaceOnUse" color-interpolation-filters="sRGB">
<feFlood flood-opacity="0" result="BackgroundImageFix"/>
<feBlend mode="normal" in="SourceGraphic" in2="BackgroundImageFix" result="shape"/>
<feGaussianBlur stdDeviation="0.938893" result="effect1_foregroundBlur_1709_5323"/>
</filter>
<filter id="filter22_f_1709_5323" x="343.652" y="195.341" width="9.77217" height="11.9128" filterUnits="userSpaceOnUse" color-interpolation-filters="sRGB">
<feFlood flood-opacity="0" result="BackgroundImageFix"/>
<feBlend mode="normal" in="SourceGraphic" in2="BackgroundImageFix" result="shape"/>
<feGaussianBlur stdDeviation="0.938893" result="effect1_foregroundBlur_1709_5323"/>
</filter>
<filter id="filter23_f_1709_5323" x="321.8" y="206.678" width="9.77217" height="11.9128" filterUnits="userSpaceOnUse" color-interpolation-filters="sRGB">
<feFlood flood-opacity="0" result="BackgroundImageFix"/>
<feBlend mode="normal" in="SourceGraphic" in2="BackgroundImageFix" result="shape"/>
<feGaussianBlur stdDeviation="0.938893" result="effect1_foregroundBlur_1709_5323"/>
</filter>
<radialGradient id="paint0_radial_1709_5323" cx="0" cy="0" r="1" gradientUnits="userSpaceOnUse" gradientTransform="translate(327 312.49) rotate(90) scale(311.95 326.315)">
<stop stop-color="#8CFF00"/>
<stop offset="1" stop-color="#054F77" stop-opacity="0"/>
</radialGradient>
<linearGradient id="paint1_linear_1709_5323" x1="357.751" y1="378.82" x2="309.318" y2="380.321" gradientUnits="userSpaceOnUse">
<stop stop-color="#054F77"/>
<stop offset="1" stop-color="#8CFF00"/>
</linearGradient>
<linearGradient id="paint2_linear_1709_5323" x1="279.732" y1="382.431" x2="378.581" y2="381.5" gradientUnits="userSpaceOnUse">
<stop stop-color="#054F77"/>
<stop offset="0.610263" stop-color="#052436"/>
<stop offset="1" stop-color="#052233"/>
</linearGradient>
<linearGradient id="paint3_linear_1709_5323" x1="330.071" y1="342.799" x2="328.313" y2="404.569" gradientUnits="userSpaceOnUse">
<stop stop-color="#054F77"/>
<stop offset="1" stop-color="#8CFF00"/>
</linearGradient>
<linearGradient id="paint4_linear_1709_5323" x1="279.732" y1="346.408" x2="378.581" y2="345.477" gradientUnits="userSpaceOnUse">
<stop stop-color="#054F77"/>
<stop offset="0.610263" stop-color="#052436"/>
<stop offset="1" stop-color="#052233"/>
</linearGradient>
<linearGradient id="paint5_linear_1709_5323" x1="330.071" y1="306.776" x2="328.313" y2="368.547" gradientUnits="userSpaceOnUse">
<stop stop-color="#054F77"/>
<stop offset="1" stop-color="#8CFF00"/>
</linearGradient>
<linearGradient id="paint6_linear_1709_5323" x1="474.167" y1="378.82" x2="425.734" y2="380.322" gradientUnits="userSpaceOnUse">
<stop stop-color="#054F77"/>
<stop offset="1" stop-color="#8CFF00"/>
</linearGradient>
<linearGradient id="paint7_linear_1709_5323" x1="396.146" y1="385.616" x2="494.995" y2="384.686" gradientUnits="userSpaceOnUse">
<stop stop-color="#054F77"/>
<stop offset="0.610263" stop-color="#052436"/>
<stop offset="1" stop-color="#052233"/>
</linearGradient>
<linearGradient id="paint8_linear_1709_5323" x1="446.485" y1="345.984" x2="444.728" y2="407.755" gradientUnits="userSpaceOnUse">
<stop stop-color="#054F77"/>
<stop offset="1" stop-color="#8CFF00"/>
</linearGradient>
<linearGradient id="paint9_linear_1709_5323" x1="396.146" y1="349.593" x2="494.995" y2="348.663" gradientUnits="userSpaceOnUse">
<stop stop-color="#054F77"/>
<stop offset="0.610263" stop-color="#052436"/>
<stop offset="1" stop-color="#052233"/>
</linearGradient>
<linearGradient id="paint10_linear_1709_5323" x1="446.485" y1="309.961" x2="444.728" y2="371.732" gradientUnits="userSpaceOnUse">
<stop stop-color="#054F77"/>
<stop offset="1" stop-color="#8CFF00"/>
</linearGradient>
<linearGradient id="paint11_linear_1709_5323" x1="396.146" y1="313.571" x2="494.995" y2="312.64" gradientUnits="userSpaceOnUse">
<stop stop-color="#054F77"/>
<stop offset="0.610263" stop-color="#052436"/>
<stop offset="1" stop-color="#052233"/>
</linearGradient>
<linearGradient id="paint12_linear_1709_5323" x1="446.485" y1="273.939" x2="444.728" y2="335.709" gradientUnits="userSpaceOnUse">
<stop stop-color="#054F77"/>
<stop offset="1" stop-color="#8CFF00"/>
</linearGradient>
<linearGradient id="paint13_linear_1709_5323" x1="279.732" y1="310.385" x2="378.581" y2="309.455" gradientUnits="userSpaceOnUse">
<stop stop-color="#054F77"/>
<stop offset="0.610263" stop-color="#052436"/>
<stop offset="1" stop-color="#052233"/>
</linearGradient>
<linearGradient id="paint14_linear_1709_5323" x1="330.071" y1="270.753" x2="328.314" y2="332.524" gradientUnits="userSpaceOnUse">
<stop stop-color="#054F77"/>
<stop offset="1" stop-color="#8CFF00"/>
</linearGradient>
<linearGradient id="paint15_linear_1709_5323" x1="279.732" y1="274.363" x2="378.581" y2="273.432" gradientUnits="userSpaceOnUse">
<stop stop-color="#054F77"/>
<stop offset="0.610263" stop-color="#052436"/>
<stop offset="1" stop-color="#052233"/>
</linearGradient>
<linearGradient id="paint16_linear_1709_5323" x1="330.071" y1="234.731" x2="328.314" y2="296.502" gradientUnits="userSpaceOnUse">
<stop stop-color="#054F77"/>
<stop offset="1" stop-color="#8CFF00"/>
</linearGradient>
<linearGradient id="paint17_linear_1709_5323" x1="241.337" y1="378.82" x2="192.904" y2="380.322" gradientUnits="userSpaceOnUse">
<stop stop-color="#054F77"/>
<stop offset="1" stop-color="#8CFF00"/>
</linearGradient>
<linearGradient id="paint18_linear_1709_5323" x1="163.318" y1="382.431" x2="262.167" y2="381.5" gradientUnits="userSpaceOnUse">
<stop stop-color="#054F77"/>
<stop offset="0.610263" stop-color="#052436"/>
<stop offset="1" stop-color="#052233"/>
</linearGradient>
<linearGradient id="paint19_linear_1709_5323" x1="213.657" y1="342.799" x2="211.9" y2="404.569" gradientUnits="userSpaceOnUse">
<stop stop-color="#054F77"/>
<stop offset="1" stop-color="#8CFF00"/>
</linearGradient>
<linearGradient id="paint20_linear_1709_5323" x1="163.318" y1="346.408" x2="262.167" y2="345.477" gradientUnits="userSpaceOnUse">
<stop stop-color="#054F77"/>
<stop offset="0.610263" stop-color="#052436"/>
<stop offset="1" stop-color="#052233"/>
</linearGradient>
<linearGradient id="paint21_linear_1709_5323" x1="213.657" y1="306.776" x2="211.9" y2="368.547" gradientUnits="userSpaceOnUse">
<stop stop-color="#054F77"/>
<stop offset="1" stop-color="#8CFF00"/>
</linearGradient>
<linearGradient id="paint22_linear_1709_5323" x1="163.318" y1="310.385" x2="262.167" y2="309.455" gradientUnits="userSpaceOnUse">
<stop stop-color="#054F77"/>
<stop offset="0.610263" stop-color="#052436"/>
<stop offset="1" stop-color="#052233"/>
</linearGradient>
<linearGradient id="paint23_linear_1709_5323" x1="213.657" y1="270.753" x2="211.9" y2="332.524" gradientUnits="userSpaceOnUse">
<stop stop-color="#054F77"/>
<stop offset="1" stop-color="#8CFF00"/>
</linearGradient>
<linearGradient id="paint24_linear_1709_5323" x1="163.318" y1="274.363" x2="262.167" y2="273.432" gradientUnits="userSpaceOnUse">
<stop stop-color="#054F77"/>
<stop offset="0.610263" stop-color="#052436"/>
<stop offset="1" stop-color="#052233"/>
</linearGradient>
<linearGradient id="paint25_linear_1709_5323" x1="213.657" y1="234.731" x2="211.9" y2="296.502" gradientUnits="userSpaceOnUse">
<stop stop-color="#054F77"/>
<stop offset="1" stop-color="#8CFF00"/>
</linearGradient>
<linearGradient id="paint26_linear_1709_5323" x1="279.732" y1="238.34" x2="378.581" y2="237.409" gradientUnits="userSpaceOnUse">
<stop stop-color="#054F77"/>
<stop offset="0.610263" stop-color="#052436"/>
<stop offset="1" stop-color="#052233"/>
</linearGradient>
<linearGradient id="paint27_linear_1709_5323" x1="330.071" y1="198.708" x2="328.314" y2="260.478" gradientUnits="userSpaceOnUse">
<stop stop-color="#054F77"/>
<stop offset="1" stop-color="#8CFF00"/>
</linearGradient>
<linearGradient id="paint28_linear_1709_5323" x1="329.939" y1="208.696" x2="328.986" y2="242.216" gradientUnits="userSpaceOnUse">
<stop stop-color="#F4FBFF"/>
<stop offset="1" stop-color="#CFEAAF"/>
</linearGradient>
<radialGradient id="paint29_radial_1709_5323" cx="0" cy="0" r="1" gradientUnits="userSpaceOnUse" gradientTransform="translate(329.665 204.488) rotate(90.0002) scale(21.7189 33.3962)">
<stop stop-color="#83DDDD" stop-opacity="0.92"/>
<stop offset="1" stop-color="#F4FBFF" stop-opacity="0"/>
</radialGradient>
<linearGradient id="paint30_linear_1709_5323" x1="329.939" y1="173.18" x2="328.985" y2="206.7" gradientUnits="userSpaceOnUse">
<stop stop-color="#054F77"/>
<stop offset="1" stop-color="#8CFF00"/>
</linearGradient>
<linearGradient id="paint31_linear_1709_5323" x1="446.495" y1="283.755" x2="445.542" y2="317.275" gradientUnits="userSpaceOnUse">
<stop stop-color="#054F77"/>
<stop offset="1" stop-color="#8CFF00"/>
</linearGradient>
<linearGradient id="paint32_linear_1709_5323" x1="213.523" y1="244.547" x2="212.57" y2="278.067" gradientUnits="userSpaceOnUse">
<stop stop-color="#054F77"/>
<stop offset="1" stop-color="#8CFF00"/>
</linearGradient>
<linearGradient id="paint33_linear_1709_5323" x1="144.249" y1="279.554" x2="144.249" y2="294.378" gradientUnits="userSpaceOnUse">
<stop stop-color="#054F77"/>
<stop offset="1" stop-color="#8CFF00"/>
</linearGradient>
<linearGradient id="paint34_linear_1709_5323" x1="437.48" y1="187.391" x2="437.48" y2="202.216" gradientUnits="userSpaceOnUse">
<stop stop-color="#054F77"/>
<stop offset="1" stop-color="#8CFF00"/>
</linearGradient>
<linearGradient id="paint35_linear_1709_5323" x1="397.89" y1="269.737" x2="397.89" y2="284.562" gradientUnits="userSpaceOnUse">
<stop stop-color="#054F77"/>
<stop offset="1" stop-color="#8CFF00"/>
</linearGradient>
<linearGradient id="paint36_linear_1709_5323" x1="262.25" y1="220.93" x2="262.25" y2="249.301" gradientUnits="userSpaceOnUse">
<stop stop-color="#054F77"/>
<stop offset="1" stop-color="#8CFF00"/>
</linearGradient>
<linearGradient id="paint37_linear_1709_5323" x1="191.758" y1="220.849" x2="191.758" y2="233.259" gradientUnits="userSpaceOnUse">
<stop stop-color="#054F77"/>
<stop offset="1" stop-color="#8CFF00"/>
</linearGradient>
<linearGradient id="paint38_linear_1709_5323" x1="389.301" y1="419.626" x2="389.301" y2="430.307" gradientUnits="userSpaceOnUse">
<stop stop-color="#054F77"/>
<stop offset="1" stop-color="#8CFF00"/>
</linearGradient>
</defs>
</svg>
