<svg width="61" height="61" viewBox="0 0 61 61" fill="none" xmlns="http://www.w3.org/2000/svg">
<path d="M30.293 0.680664C28.7657 0.682336 27.2965 1.26637 26.1849 2.31372C25.0734 3.36107 24.403 4.79291 24.3105 6.31738L9.59766 13.6768C8.61743 13.0282 7.46832 12.6818 6.29297 12.6807C4.70167 12.6807 3.17555 13.3128 2.05033 14.438C0.92511 15.5632 0.292969 17.0894 0.292969 18.6807C0.292969 20.272 0.92511 21.7981 2.05033 22.9233C3.17555 24.0485 4.70167 24.6807 6.29297 24.6807C7.46632 24.6783 8.61324 24.332 9.5918 23.6846L24.3105 31.0439C24.3716 32.0313 24.6758 32.9883 25.1962 33.8296C25.7165 34.6709 26.4368 35.3706 27.293 35.8662V49.4893C27.1896 49.5487 27.088 49.6112 26.9883 49.6768L12.2754 42.3174C12.1829 40.7929 11.5126 39.3611 10.401 38.3137C9.2894 37.2664 7.82024 36.6823 6.29297 36.6807C4.70167 36.6807 3.17555 37.3128 2.05033 38.438C0.92511 39.5632 0.292969 41.0894 0.292969 42.6807C0.292969 44.272 0.92511 45.7981 2.05033 46.9233C3.17555 48.0485 4.70167 48.6807 6.29297 48.6807C7.46632 48.6783 8.61324 48.332 9.5918 47.6846L24.3105 55.0439C24.403 56.5684 25.0734 58.0003 26.1849 59.0476C27.2965 60.095 28.7657 60.679 30.293 60.6807C31.8212 60.6789 33.2912 60.0941 34.4029 59.0455C35.5146 57.9969 36.1844 56.5636 36.2754 55.0381L50.9883 47.6846C51.9685 48.3331 53.1176 48.6795 54.293 48.6807C55.8843 48.6807 57.4104 48.0485 58.5356 46.9233C59.6608 45.7981 60.293 44.272 60.293 42.6807C60.293 41.0894 59.6608 39.5632 58.5356 38.438C57.4104 37.3128 55.8843 36.6807 54.293 36.6807C52.7657 36.6823 51.2965 37.2664 50.185 38.3137C49.0734 39.3611 48.403 40.7929 48.3105 42.3174L33.5977 49.6768C33.4979 49.6132 33.3963 49.5526 33.293 49.4951V35.8662C34.1491 35.3706 34.8694 34.6709 35.3897 33.8296C35.9101 32.9883 36.2143 32.0313 36.2754 31.0439L50.9883 23.6846C51.9685 24.3331 53.1176 24.6795 54.293 24.6807C55.8843 24.6807 57.4104 24.0485 58.5356 22.9233C59.6608 21.7981 60.293 20.272 60.293 18.6807C60.293 17.0894 59.6608 15.5632 58.5356 14.438C57.4104 13.3128 55.8843 12.6807 54.293 12.6807C52.7657 12.6823 51.2965 13.2664 50.185 14.3137C49.0734 15.3611 48.403 16.7929 48.3105 18.3174L33.5918 25.6768C32.6132 25.0293 31.4663 24.683 30.293 24.6807C29.1176 24.6818 27.9685 25.0282 26.9883 25.6768L13.002 18.6807L26.9883 11.6846C27.9685 12.3331 29.1176 12.6795 30.293 12.6807C31.8843 12.6807 33.4104 12.0485 34.5356 10.9233C35.6608 9.79809 36.293 8.27196 36.293 6.68066C36.293 5.08937 35.6608 3.56324 34.5356 2.43802C33.4104 1.3128 31.8843 0.680664 30.293 0.680664Z" fill="#000C1B"/>
</svg>
