<svg width="21" height="21" viewBox="0 0 21 21" fill="none" xmlns="http://www.w3.org/2000/svg">
<path d="M8.52572 14.033V7.36637C8.52572 6.44971 9.26738 5.69971 10.1924 5.69971H17.6924V4.86637C17.6924 3.94971 16.9424 3.19971 16.0257 3.19971H4.35905C3.43405 3.19971 2.69238 3.94971 2.69238 4.86637V16.533C2.69238 17.4497 3.43405 18.1997 4.35905 18.1997H16.0257C16.9424 18.1997 17.6924 17.4497 17.6924 16.533V15.6997H10.1924C9.26738 15.6997 8.52572 14.9497 8.52572 14.033ZM11.0257 7.36637C10.5674 7.36637 10.1924 7.74137 10.1924 8.19971V13.1997C10.1924 13.658 10.5674 14.033 11.0257 14.033H18.5257V7.36637H11.0257ZM13.5257 11.9497C12.834 11.9497 12.2757 11.3914 12.2757 10.6997C12.2757 10.008 12.834 9.44971 13.5257 9.44971C14.2174 9.44971 14.7757 10.008 14.7757 10.6997C14.7757 11.3914 14.2174 11.9497 13.5257 11.9497Z" fill="#000C1B"/>
</svg>
