<svg width="50" height="51" viewBox="0 0 50 51" fill="none" xmlns="http://www.w3.org/2000/svg">
<path d="M30.7192 0.111328V0.379963C30.7192 1.13255 30.571 1.87777 30.283 2.57307C29.995 3.26837 29.5729 3.90014 29.0407 4.43229C28.5085 4.96446 27.8768 5.38659 27.1815 5.67459C26.4862 5.96259 25.7409 6.11083 24.9884 6.11083C24.2358 6.11083 23.4906 5.96259 22.7953 5.67459C22.1 5.38659 21.4682 4.96446 20.936 4.43229C20.4039 3.90014 19.9817 3.26837 19.6937 2.57307C19.4057 1.87777 19.2575 1.13255 19.2575 0.379963V0.111328H0V50.1113H50V0.111328H30.7192Z" fill="#F4FBFF"/>
<path d="M11.6138 27.064H14.9269L17.1924 39.1042H17.2336L19.9504 27.064H23.0504L25.5057 39.26H25.5541L28.133 27.064H31.3835L27.1605 44.767H23.8707L21.435 32.7178H21.3706L18.763 44.767H15.414L11.6138 27.064ZM35.1175 27.064H40.3415L45.5351 44.767H42.1127L40.9844 40.827H35.0333L34.1629 44.767H30.8337L35.1175 27.064ZM37.1054 31.4284L35.6601 37.924H40.1588L38.5041 31.4194L37.1054 31.4284Z" fill="#054F77"/>
</svg>
