<svg width="19" height="19" viewBox="0 0 19 19" fill="none" xmlns="http://www.w3.org/2000/svg">
<path d="M9.3986 0.647461C4.3386 0.647461 0.231934 4.75413 0.231934 9.81413C0.231934 14.8741 4.3386 18.9808 9.3986 18.9808C14.4586 18.9808 18.5653 14.8741 18.5653 9.81413C18.5653 4.75413 14.4586 0.647461 9.3986 0.647461ZM9.3986 17.1475C5.3561 17.1475 2.06527 13.8566 2.06527 9.81413C2.06527 5.77163 5.3561 2.48079 9.3986 2.48079C13.4411 2.48079 16.7319 5.77163 16.7319 9.81413C16.7319 13.8566 13.4411 17.1475 9.3986 17.1475ZM12.9553 6.41329L7.56527 11.8033L5.84193 10.08C5.48443 9.72246 4.90693 9.72246 4.54943 10.08C4.19193 10.4375 4.19193 11.015 4.54943 11.3725L6.9236 13.7466C7.2811 14.1041 7.8586 14.1041 8.2161 13.7466L14.2569 7.70579C14.6144 7.34829 14.6144 6.77079 14.2569 6.41329C13.8994 6.05579 13.3128 6.05579 12.9553 6.41329Z" fill="#000C1B"/>
</svg>
