<svg width="23" height="23" viewBox="0 0 23 23" fill="none" xmlns="http://www.w3.org/2000/svg">
<path d="M11.3986 2.64746C6.3386 2.64746 2.23193 6.75413 2.23193 11.8141C2.23193 16.8741 6.3386 20.9808 11.3986 20.9808C16.4586 20.9808 20.5653 16.8741 20.5653 11.8141C20.5653 6.75413 16.4586 2.64746 11.3986 2.64746ZM11.3986 19.1475C7.3561 19.1475 4.06527 15.8566 4.06527 11.8141C4.06527 7.77163 7.3561 4.48079 11.3986 4.48079C15.4411 4.48079 18.7319 7.77163 18.7319 11.8141C18.7319 15.8566 15.4411 19.1475 11.3986 19.1475ZM14.9553 8.41329L9.56527 13.8033L7.84193 12.08C7.48443 11.7225 6.90693 11.7225 6.54943 12.08C6.19193 12.4375 6.19193 13.015 6.54943 13.3725L8.9236 15.7466C9.2811 16.1041 9.8586 16.1041 10.2161 15.7466L16.2569 9.70579C16.6144 9.34829 16.6144 8.77079 16.2569 8.41329C15.8994 8.05579 15.3128 8.05579 14.9553 8.41329Z" fill="#8CFF00"/>
</svg>
