<svg width="50" height="49" viewBox="0 0 50 49" fill="none" xmlns="http://www.w3.org/2000/svg">
<path d="M24.9982 10.2431C29.7561 10.2431 33.6131 7.99884 33.6131 5.23043C33.6131 2.46201 29.7561 0.217773 24.9982 0.217773C20.2403 0.217773 16.3833 2.46201 16.3833 5.23043C16.3833 7.99884 20.2403 10.2431 24.9982 10.2431Z" fill="#F4FBFF"/>
<path d="M24.9982 48.0047C29.7561 48.0047 33.6131 45.7604 33.6131 42.992C33.6131 40.2236 29.7561 37.9794 24.9982 37.9794C20.2403 37.9794 16.3833 40.2236 16.3833 42.992C16.3833 45.7604 20.2403 48.0047 24.9982 48.0047Z" fill="#F4FBFF"/>
<path d="M12.9894 17.1773C15.3683 13.0569 15.3533 8.59465 12.9559 7.21044C10.5584 5.82623 6.68639 8.04429 4.30745 12.1646C1.92851 16.2849 1.94351 20.7472 4.34096 22.1314C6.7384 23.5157 10.6104 21.2976 12.9894 17.1773Z" fill="#F4FBFF"/>
<path d="M45.6925 36.0601C48.0714 31.9398 48.0564 27.4775 45.659 26.0933C43.2615 24.709 39.3895 26.9271 37.0106 31.0474C34.6316 35.1678 34.6466 39.6301 37.0441 41.0143C39.4415 42.3985 43.3135 40.1804 45.6925 36.0601Z" fill="#F4FBFF"/>
<path d="M13.1577 41.2159C15.5671 39.8311 15.5919 35.3534 13.2132 31.2147C10.8345 27.0759 6.95299 24.8433 4.54365 26.228C2.13431 27.6128 2.10949 32.0905 4.48821 36.2293C6.86692 40.368 10.7484 42.6006 13.1577 41.2159Z" fill="#F4FBFF"/>
<path d="M45.6565 22.1296C48.054 20.7454 48.069 16.2831 45.6901 12.1628C43.3111 8.04249 39.4391 5.82443 37.0416 7.20864C34.6442 8.59285 34.6292 13.0551 37.0081 17.1755C39.3871 21.2958 43.2591 23.5139 45.6565 22.1296Z" fill="#F4FBFF"/>
</svg>
