<svg width="61" height="61" viewBox="0 0 61 61" fill="none" xmlns="http://www.w3.org/2000/svg">
<path opacity="1" fill-rule="evenodd" clip-rule="evenodd" d="M22.4647 21.5877H33.6067V27.1377C35.2117 23.9457 39.3277 21.0777 45.5107 21.0777C57.3637 21.0777 60.1777 27.4317 60.1777 39.0897V60.6807H48.1777V41.7447C48.1777 35.1057 46.5727 31.3617 42.4867 31.3617C36.8197 31.3617 34.4647 35.3967 34.4647 41.7417V60.6807H22.4647V21.5877V21.5877ZM1.88773 60.1707H13.8877V21.0777H1.88773V60.1707V60.1707ZM15.6067 8.33067C15.6072 9.33649 15.4077 10.3324 15.0199 11.2604C14.6321 12.1885 14.0637 13.0302 13.3477 13.7367C11.8969 15.1785 9.93316 15.9856 7.88773 15.9807C5.8459 15.9793 3.88667 15.1743 2.43373 13.7397C1.72037 13.0308 1.15389 12.1881 0.766765 11.26C0.379639 10.3318 0.179472 9.33634 0.177734 8.33067C0.177734 6.29967 0.987734 4.35566 2.43673 2.92166C3.88839 1.48514 5.84845 0.679766 7.89073 0.680665C9.93673 0.680665 11.8987 1.48766 13.3477 2.92166C14.7937 4.35566 15.6067 6.29967 15.6067 8.33067Z" fill="#F4FBFF"/>
</svg>
