<svg width="237" height="60" viewBox="0 0 237 60" fill="none" xmlns="http://www.w3.org/2000/svg">
<path d="M7.02293 20.6061C5.73501 20.6061 4.58822 20.3855 3.58258 19.9445C2.57693 19.5034 1.78301 18.9035 1.20079 18.1449C0.618577 17.3686 0.292184 16.5041 0.221613 15.5514H4.69408C4.74701 16.063 4.98518 16.4776 5.40861 16.7952C5.83204 17.1128 6.35251 17.2716 6.97001 17.2716C7.53458 17.2716 7.96683 17.1657 8.26676 16.954C8.58433 16.7246 8.74311 16.4335 8.74311 16.0807C8.74311 15.6573 8.52258 15.3485 8.08151 15.1544C7.64043 14.9427 6.9259 14.7134 5.9379 14.4664C4.87933 14.2194 3.99718 13.9635 3.29147 13.6989C2.58576 13.4166 1.97708 12.9844 1.46543 12.4021C0.953791 11.8023 0.69797 10.9995 0.69797 9.9939C0.69797 9.14704 0.927327 8.37958 1.38604 7.6915C1.8624 6.98579 2.55047 6.43004 3.45026 6.02425C4.36768 5.61847 5.45272 5.41558 6.70536 5.41558C8.55786 5.41558 10.0134 5.87429 11.072 6.79172C12.1482 7.70915 12.7657 8.9265 12.9245 10.4438H8.74311C8.67254 9.93215 8.44318 9.52636 8.05504 9.22643C7.68454 8.9265 7.19054 8.77654 6.57304 8.77654C6.04376 8.77654 5.63797 8.8824 5.35568 9.09411C5.0734 9.28818 4.93226 9.56165 4.93226 9.9145C4.93226 10.3379 5.15279 10.6555 5.59386 10.8672C6.05258 11.0789 6.75829 11.2906 7.71101 11.5024C8.80486 11.7846 9.69583 12.0669 10.3839 12.3492C11.072 12.6139 11.6718 13.0549 12.1835 13.6724C12.7128 14.2723 12.9862 15.0839 13.0039 16.1071C13.0039 16.9716 12.7569 17.7479 12.2629 18.436C11.7865 19.1064 11.0896 19.6357 10.1722 20.0239C9.2724 20.412 8.22265 20.6061 7.02293 20.6061Z" fill="white"/>
<path d="M30.3543 5.62729V20.3944H25.8289V18.3831C25.3702 19.0359 24.7439 19.5651 23.9499 19.9709C23.1737 20.3591 22.3092 20.5531 21.3564 20.5531C20.2273 20.5531 19.2305 20.3061 18.366 19.8121C17.5015 19.3005 16.8311 18.5683 16.3547 17.6156C15.8783 16.6629 15.6402 15.5426 15.6402 14.2546V5.62729H20.1391V13.646C20.1391 14.634 20.3949 15.4014 20.9066 15.9484C21.4182 16.4953 22.1063 16.7688 22.9708 16.7688C23.8529 16.7688 24.5498 16.4953 25.0614 15.9484C25.5731 15.4014 25.8289 14.634 25.8289 13.646V5.62729H30.3543Z" fill="white"/>
<path d="M38.1302 7.71797C38.5537 7.0299 39.1624 6.47415 39.9563 6.05072C40.7502 5.62729 41.6588 5.41558 42.6821 5.41558C43.8995 5.41558 45.0021 5.72433 45.9901 6.34183C46.9781 6.95933 47.7544 7.84147 48.319 8.98825C48.9012 10.135 49.1923 11.4671 49.1923 12.9844C49.1923 14.5016 48.9012 15.8425 48.319 17.0069C47.7544 18.1537 46.9781 19.0447 45.9901 19.6798C45.0021 20.2973 43.8995 20.6061 42.6821 20.6061C41.6412 20.6061 40.7326 20.4032 39.9563 19.9974C39.18 19.574 38.5713 19.0182 38.1302 18.3301V20.3944H33.6049V0.810791H38.1302V7.71797ZM44.5875 12.9844C44.5875 11.8552 44.27 10.9731 43.6348 10.3379C43.0173 9.68515 42.2499 9.35875 41.3324 9.35875C40.4326 9.35875 39.6652 9.68515 39.03 10.3379C38.4125 10.9907 38.1038 11.8817 38.1038 13.0108C38.1038 14.14 38.4125 15.0309 39.03 15.6837C39.6652 16.3365 40.4326 16.6629 41.3324 16.6629C42.2322 16.6629 42.9997 16.3365 43.6348 15.6837C44.27 15.0133 44.5875 14.1135 44.5875 12.9844Z" fill="white"/>
<path d="M57.5738 20.6061C56.2859 20.6061 55.1391 20.3855 54.1335 19.9445C53.1279 19.5034 52.3339 18.9035 51.7517 18.1449C51.1695 17.3686 50.8431 16.5041 50.7725 15.5514H55.245C55.2979 16.063 55.5361 16.4776 55.9595 16.7952C56.383 17.1128 56.9034 17.2716 57.5209 17.2716C58.0855 17.2716 58.5177 17.1657 58.8177 16.954C59.1352 16.7246 59.294 16.4335 59.294 16.0807C59.294 15.6573 59.0735 15.3485 58.6324 15.1544C58.1914 14.9427 57.4768 14.7134 56.4888 14.4664C55.4302 14.2194 54.5481 13.9635 53.8424 13.6989C53.1367 13.4166 52.528 12.9844 52.0163 12.4021C51.5047 11.8023 51.2489 10.9995 51.2489 9.9939C51.2489 9.14704 51.4782 8.37958 51.937 7.6915C52.4133 6.98579 53.1014 6.43004 54.0012 6.02425C54.9186 5.61847 56.0036 5.41558 57.2563 5.41558C59.1088 5.41558 60.5643 5.87429 61.6229 6.79172C62.6991 7.70915 63.3166 8.9265 63.4754 10.4438H59.294C59.2235 9.93215 58.9941 9.52636 58.606 9.22643C58.2355 8.9265 57.7415 8.77654 57.124 8.77654C56.5947 8.77654 56.1889 8.8824 55.9066 9.09411C55.6243 9.28818 55.4832 9.56165 55.4832 9.9145C55.4832 10.3379 55.7037 10.6555 56.1448 10.8672C56.6035 11.0789 57.3092 11.2906 58.2619 11.5024C59.3558 11.7846 60.2467 12.0669 60.9348 12.3492C61.6229 12.6139 62.2227 13.0549 62.7344 13.6724C63.2637 14.2723 63.5371 15.0839 63.5548 16.1071C63.5548 16.9716 63.3078 17.7479 62.8138 18.436C62.3374 19.1064 61.6405 19.6357 60.7231 20.0239C59.8233 20.412 58.7736 20.6061 57.5738 20.6061Z" fill="white"/>
<path d="M74.5538 16.557V20.3944H72.2514C70.6106 20.3944 69.3315 19.9974 68.4141 19.2035C67.4966 18.3919 67.0379 17.0775 67.0379 15.2603V9.38522H65.2384V5.62729H67.0379V2.02815H71.5633V5.62729H74.5273V9.38522H71.5633V15.3132C71.5633 15.7543 71.6692 16.0719 71.8809 16.2659C72.0926 16.46 72.4455 16.557 72.9395 16.557H74.5538Z" fill="white"/>
<path d="M81.5999 8.08847C82.1292 7.2769 82.7908 6.64175 83.5847 6.18304C84.3787 5.70668 85.2608 5.4685 86.2312 5.4685V10.2585H84.9873C83.8582 10.2585 83.0113 10.5055 82.4468 10.9995C81.8822 11.4759 81.5999 12.3228 81.5999 13.5401V20.3944H77.0745V5.62729H81.5999V8.08847Z" fill="white"/>
<path d="M87.4944 12.9844C87.4944 11.4671 87.7767 10.135 88.3413 8.98825C88.9235 7.84147 89.7086 6.95933 90.6966 6.34183C91.6846 5.72433 92.7873 5.41558 94.0046 5.41558C95.0455 5.41558 95.9542 5.62729 96.7304 6.05072C97.5244 6.47415 98.1331 7.0299 98.5565 7.71797V5.62729H103.082V20.3944H98.5565V18.3037C98.1154 18.9918 97.4979 19.5475 96.704 19.9709C95.9277 20.3944 95.0191 20.6061 93.9782 20.6061C92.7784 20.6061 91.6846 20.2973 90.6966 19.6798C89.7086 19.0447 88.9235 18.1537 88.3413 17.0069C87.7767 15.8425 87.4944 14.5016 87.4944 12.9844ZM98.5565 13.0108C98.5565 11.8817 98.2389 10.9907 97.6038 10.3379C96.9863 9.68515 96.2276 9.35875 95.3278 9.35875C94.4281 9.35875 93.6606 9.68515 93.0254 10.3379C92.4079 10.9731 92.0992 11.8552 92.0992 12.9844C92.0992 14.1135 92.4079 15.0133 93.0254 15.6837C93.6606 16.3365 94.4281 16.6629 95.3278 16.6629C96.2276 16.6629 96.9863 16.3365 97.6038 15.6837C98.2389 15.0309 98.5565 14.14 98.5565 13.0108Z" fill="white"/>
<path d="M114.586 16.557V20.3944H112.284C110.643 20.3944 109.364 19.9974 108.446 19.2035C107.529 18.3919 107.07 17.0775 107.07 15.2603V9.38522H105.271V5.62729H107.07V2.02815H111.596V5.62729H114.56V9.38522H111.596V15.3132C111.596 15.7543 111.702 16.0719 111.913 16.2659C112.125 16.46 112.478 16.557 112.972 16.557H114.586Z" fill="white"/>
<path d="M131.027 12.7726C131.027 13.1961 131.001 13.6371 130.948 14.0959H120.706C120.777 15.0133 121.068 15.719 121.579 16.213C122.109 16.6894 122.753 16.9275 123.511 16.9275C124.64 16.9275 125.426 16.4512 125.867 15.4985H130.683C130.436 16.4688 129.986 17.3421 129.333 18.1184C128.698 18.8947 127.896 19.5034 126.925 19.9445C125.955 20.3855 124.87 20.6061 123.67 20.6061C122.223 20.6061 120.935 20.2973 119.806 19.6798C118.677 19.0623 117.795 18.1802 117.16 17.0334C116.525 15.8866 116.207 14.5458 116.207 13.0108C116.207 11.4759 116.516 10.135 117.133 8.98825C117.769 7.84147 118.651 6.95933 119.78 6.34183C120.909 5.72433 122.206 5.41558 123.67 5.41558C125.099 5.41558 126.369 5.7155 127.481 6.31536C128.592 6.91522 129.457 7.7709 130.074 8.8824C130.71 9.9939 131.027 11.2906 131.027 12.7726ZM126.396 11.5818C126.396 10.8055 126.131 10.188 125.602 9.72925C125.073 9.27054 124.411 9.04118 123.617 9.04118C122.858 9.04118 122.215 9.26172 121.685 9.70279C121.174 10.1439 120.856 10.7702 120.733 11.5818H126.396Z" fill="white"/>
<path d="M5.54093 40.035C5.96436 39.347 6.57304 38.7912 7.36697 38.3678C8.1609 37.9443 9.06951 37.7326 10.0928 37.7326C11.3101 37.7326 12.4128 38.0414 13.4008 38.6589C14.3888 39.2764 15.1651 40.1585 15.7297 41.3053C16.3119 42.4521 16.603 43.7841 16.603 45.3014C16.603 46.8187 16.3119 48.1596 15.7297 49.324C15.1651 50.4708 14.3888 51.3617 13.4008 51.9969C12.4128 52.6144 11.3101 52.9231 10.0928 52.9231C9.05186 52.9231 8.14326 52.7202 7.36697 52.3144C6.59068 51.891 5.98201 51.3353 5.54093 50.6472V52.7114H1.01554V33.1278H5.54093V40.035ZM11.9982 45.3014C11.9982 44.1723 11.6806 43.2901 11.0455 42.655C10.428 42.0022 9.66054 41.6758 8.74311 41.6758C7.84333 41.6758 7.07586 42.0022 6.44072 42.655C5.82322 43.3078 5.51447 44.1987 5.51447 45.3279C5.51447 46.457 5.82322 47.348 6.44072 48.0008C7.07586 48.6536 7.84333 48.9799 8.74311 48.9799C9.6429 48.9799 10.4104 48.6536 11.0455 48.0008C11.6806 47.3303 11.9982 46.4306 11.9982 45.3014Z" fill="white"/>
<path d="M33.559 37.9443V52.7114H29.0336V50.7001C28.5749 51.3529 27.9485 51.8822 27.1546 52.288C26.3783 52.6761 25.5138 52.8702 24.5611 52.8702C23.432 52.8702 22.4351 52.6232 21.5706 52.1292C20.7061 51.6176 20.0357 50.8854 19.5594 49.9327C19.083 48.9799 18.8448 47.8596 18.8448 46.5717V37.9443H23.3437V45.963C23.3437 46.951 23.5996 47.7185 24.1112 48.2654C24.6229 48.8123 25.3109 49.0858 26.1754 49.0858C27.0576 49.0858 27.7545 48.8123 28.2661 48.2654C28.7777 47.7185 29.0336 46.951 29.0336 45.963V37.9443H33.559Z" fill="white"/>
<path d="M39.0854 36.4094C38.2915 36.4094 37.6387 36.1801 37.1271 35.7213C36.6331 35.245 36.3861 34.6628 36.3861 33.9747C36.3861 33.269 36.6331 32.6868 37.1271 32.2281C37.6387 31.7517 38.2915 31.5135 39.0854 31.5135C39.8617 31.5135 40.4969 31.7517 40.9909 32.2281C41.5025 32.6868 41.7583 33.269 41.7583 33.9747C41.7583 34.6628 41.5025 35.245 40.9909 35.7213C40.4969 36.1801 39.8617 36.4094 39.0854 36.4094ZM41.3349 37.9443V52.7114H36.8095V37.9443H41.3349Z" fill="white"/>
<path d="M49.1398 33.1278V52.7114H44.6144V33.1278H49.1398Z" fill="white"/>
<path d="M51.5195 45.3014C51.5195 43.7841 51.8018 42.4521 52.3664 41.3053C52.9486 40.1585 53.7337 39.2764 54.7217 38.6589C55.7097 38.0414 56.8124 37.7326 58.0297 37.7326C59.0001 37.7326 59.8822 37.9355 60.6762 38.3413C61.4877 38.7471 62.1229 39.294 62.5816 39.9821V33.1278H67.107V52.7114H62.5816V50.5943C62.1582 51.3 61.5495 51.8646 60.7556 52.288C59.9793 52.7114 59.0707 52.9231 58.0297 52.9231C56.8124 52.9231 55.7097 52.6144 54.7217 51.9969C53.7337 51.3617 52.9486 50.4708 52.3664 49.324C51.8018 48.1596 51.5195 46.8187 51.5195 45.3014ZM62.5816 45.3279C62.5816 44.1987 62.264 43.3078 61.6289 42.655C61.0114 42.0022 60.2527 41.6758 59.353 41.6758C58.4532 41.6758 57.6857 42.0022 57.0506 42.655C56.4331 43.2901 56.1243 44.1723 56.1243 45.3014C56.1243 46.4306 56.4331 47.3303 57.0506 48.0008C57.6857 48.6536 58.4532 48.9799 59.353 48.9799C60.2527 48.9799 61.0114 48.6536 61.6289 48.0008C62.264 47.348 62.5816 46.457 62.5816 45.3279Z" fill="white"/>
<path d="M84.3011 45.0897C84.3011 45.5131 84.2747 45.9542 84.2217 46.4129H73.9801C74.0506 47.3303 74.3417 48.0361 74.8534 48.5301C75.3827 49.0064 76.0266 49.2446 76.7853 49.2446C77.9144 49.2446 78.6995 48.7682 79.1406 47.8155H83.9571C83.7101 48.7859 83.2602 49.6592 82.6074 50.4355C81.9723 51.2118 81.1695 51.8204 80.1992 52.2615C79.2288 52.7026 78.1438 52.9231 76.9441 52.9231C75.4973 52.9231 74.2094 52.6144 73.0803 51.9969C71.9511 51.3794 71.069 50.4972 70.4338 49.3504C69.7987 48.2037 69.4811 46.8628 69.4811 45.3279C69.4811 43.7929 69.7899 42.4521 70.4074 41.3053C71.0425 40.1585 71.9247 39.2764 73.0538 38.6589C74.1829 38.0414 75.4797 37.7326 76.9441 37.7326C78.3731 37.7326 79.6434 38.0326 80.7549 38.6324C81.8664 39.2323 82.7309 40.0879 83.3484 41.1994C83.9835 42.3109 84.3011 43.6077 84.3011 45.0897ZM79.6699 43.8988C79.6699 43.1225 79.4052 42.505 78.8759 42.0463C78.3467 41.5876 77.6851 41.3582 76.8911 41.3582C76.1325 41.3582 75.4885 41.5788 74.9592 42.0198C74.4476 42.4609 74.13 43.0872 74.0065 43.8988H79.6699Z" fill="white"/>
<path d="M91.2139 40.4055C91.7432 39.5939 92.4048 38.9588 93.1987 38.5001C93.9926 38.0237 94.8748 37.7856 95.8451 37.7856V42.5756H94.6013C93.4722 42.5756 92.6253 42.8226 92.0607 43.3166C91.4962 43.7929 91.2139 44.6398 91.2139 45.8572V52.7114H86.6885V37.9443H91.2139V40.4055Z" fill="white"/>
<path d="M104.016 52.9231C102.728 52.9231 101.581 52.7026 100.575 52.2615C99.5696 51.8204 98.7756 51.2206 98.1934 50.4619C97.6112 49.6857 97.2848 48.8212 97.2142 47.8684H101.687C101.74 48.3801 101.978 48.7947 102.401 49.1123C102.825 49.4298 103.345 49.5886 103.963 49.5886C104.527 49.5886 104.959 49.4828 105.259 49.2711C105.577 49.0417 105.736 48.7506 105.736 48.3977C105.736 47.9743 105.515 47.6656 105.074 47.4715C104.633 47.2598 103.919 47.0304 102.931 46.7834C101.872 46.5364 100.99 46.2806 100.284 46.0159C99.5784 45.7337 98.9697 45.3014 98.4581 44.7192C97.9464 44.1193 97.6906 43.3166 97.6906 42.3109C97.6906 41.4641 97.92 40.6966 98.3787 40.0086C98.855 39.3028 99.5431 38.7471 100.443 38.3413C101.36 37.9355 102.445 37.7326 103.698 37.7326C105.55 37.7326 107.006 38.1913 108.065 39.1088C109.141 40.0262 109.758 41.2436 109.917 42.7608H105.736C105.665 42.2492 105.436 41.8434 105.048 41.5435C104.677 41.2436 104.183 41.0936 103.566 41.0936C103.036 41.0936 102.631 41.1994 102.348 41.4112C102.066 41.6052 101.925 41.8787 101.925 42.2316C101.925 42.655 102.145 42.9726 102.586 43.1843C103.045 43.396 103.751 43.6077 104.704 43.8194C105.797 44.1017 106.688 44.384 107.377 44.6663C108.065 44.9309 108.664 45.372 109.176 45.9895C109.705 46.5893 109.979 47.4009 109.996 48.4242C109.996 49.2887 109.749 50.065 109.255 50.7531C108.779 51.4235 108.082 51.9528 107.165 52.3409C106.265 52.7291 105.215 52.9231 104.016 52.9231Z" fill="white"/>
<path d="M122.899 40.035C123.34 39.347 123.948 38.7912 124.725 38.3678C125.501 37.9443 126.41 37.7326 127.451 37.7326C128.668 37.7326 129.771 38.0414 130.759 38.6589C131.747 39.2764 132.523 40.1585 133.087 41.3053C133.67 42.4521 133.961 43.7841 133.961 45.3014C133.961 46.8187 133.67 48.1596 133.087 49.324C132.523 50.4708 131.747 51.3617 130.759 51.9969C129.771 52.6144 128.668 52.9231 127.451 52.9231C126.427 52.9231 125.519 52.7114 124.725 52.288C123.948 51.8646 123.34 51.3176 122.899 50.6472V59.7509H118.373V37.9443H122.899V40.035ZM129.356 45.3014C129.356 44.1723 129.038 43.2901 128.403 42.655C127.786 42.0022 127.018 41.6758 126.101 41.6758C125.201 41.6758 124.434 42.0022 123.798 42.655C123.181 43.3078 122.872 44.1987 122.872 45.3279C122.872 46.457 123.181 47.348 123.798 48.0008C124.434 48.6536 125.201 48.9799 126.101 48.9799C127.001 48.9799 127.768 48.6536 128.403 48.0008C129.038 47.3303 129.356 46.4306 129.356 45.3014Z" fill="white"/>
<path d="M140.86 40.4055C141.39 39.5939 142.051 38.9588 142.845 38.5001C143.639 38.0237 144.521 37.7856 145.492 37.7856V42.5756H144.248C143.119 42.5756 142.272 42.8226 141.707 43.3166C141.143 43.7929 140.86 44.6398 140.86 45.8572V52.7114H136.335V37.9443H140.86V40.4055Z" fill="white"/>
<path d="M154.376 52.9231C152.93 52.9231 151.624 52.6144 150.46 51.9969C149.313 51.3794 148.404 50.4972 147.734 49.3504C147.081 48.2037 146.755 46.8628 146.755 45.3279C146.755 43.8106 147.09 42.4786 147.76 41.3318C148.431 40.1673 149.348 39.2764 150.513 38.6589C151.677 38.0414 152.983 37.7326 154.429 37.7326C155.876 37.7326 157.182 38.0414 158.346 38.6589C159.511 39.2764 160.428 40.1673 161.098 41.3318C161.769 42.4786 162.104 43.8106 162.104 45.3279C162.104 46.8452 161.76 48.186 161.072 49.3504C160.402 50.4972 159.475 51.3794 158.293 51.9969C157.129 52.6144 155.823 52.9231 154.376 52.9231ZM154.376 49.0064C155.241 49.0064 155.973 48.6888 156.573 48.0537C157.191 47.4186 157.499 46.5099 157.499 45.3279C157.499 44.1458 157.199 43.2372 156.599 42.6021C156.017 41.9669 155.294 41.6493 154.429 41.6493C153.547 41.6493 152.815 41.9669 152.233 42.6021C151.651 43.2196 151.36 44.1282 151.36 45.3279C151.36 46.5099 151.642 47.4186 152.206 48.0537C152.789 48.6888 153.512 49.0064 154.376 49.0064Z" fill="white"/>
<path d="M170.115 37.7326C171.156 37.7326 172.065 37.9443 172.841 38.3678C173.635 38.7912 174.244 39.347 174.667 40.035V37.9443H179.193V52.6849C179.193 54.0434 178.919 55.2696 178.372 56.3635C177.843 57.475 177.022 58.3571 175.911 59.0099C174.817 59.6627 173.45 59.9891 171.809 59.9891C169.621 59.9891 167.848 59.4686 166.49 58.4277C165.131 57.4044 164.355 56.0106 164.161 54.2463H168.633C168.774 54.8109 169.11 55.252 169.639 55.5696C170.168 55.9048 170.821 56.0724 171.597 56.0724C172.532 56.0724 173.273 55.7989 173.82 55.252C174.385 54.7227 174.667 53.867 174.667 52.6849V50.5943C174.226 51.2823 173.617 51.8469 172.841 52.288C172.065 52.7114 171.156 52.9231 170.115 52.9231C168.898 52.9231 167.795 52.6144 166.807 51.9969C165.819 51.3617 165.034 50.4708 164.452 49.324C163.887 48.1596 163.605 46.8187 163.605 45.3014C163.605 43.7841 163.887 42.4521 164.452 41.3053C165.034 40.1585 165.819 39.2764 166.807 38.6589C167.795 38.0414 168.898 37.7326 170.115 37.7326ZM174.667 45.3279C174.667 44.1987 174.35 43.3078 173.714 42.655C173.097 42.0022 172.338 41.6758 171.438 41.6758C170.539 41.6758 169.771 42.0022 169.136 42.655C168.519 43.2901 168.21 44.1723 168.21 45.3014C168.21 46.4306 168.519 47.3303 169.136 48.0008C169.771 48.6536 170.539 48.9799 171.438 48.9799C172.338 48.9799 173.097 48.6536 173.714 48.0008C174.35 47.348 174.667 46.457 174.667 45.3279Z" fill="white"/>
<path d="M186.992 40.4055C187.521 39.5939 188.183 38.9588 188.977 38.5001C189.771 38.0237 190.653 37.7856 191.623 37.7856V42.5756H190.379C189.25 42.5756 188.403 42.8226 187.839 43.3166C187.274 43.7929 186.992 44.6398 186.992 45.8572V52.7114H182.466V37.9443H186.992V40.4055Z" fill="white"/>
<path d="M192.886 45.3014C192.886 43.7841 193.169 42.4521 193.733 41.3053C194.315 40.1585 195.101 39.2764 196.089 38.6589C197.077 38.0414 198.179 37.7326 199.397 37.7326C200.437 37.7326 201.346 37.9443 202.122 38.3678C202.916 38.7912 203.525 39.347 203.948 40.035V37.9443H208.474V52.7114H203.948V50.6207C203.507 51.3088 202.89 51.8646 202.096 52.288C201.32 52.7114 200.411 52.9231 199.37 52.9231C198.17 52.9231 197.077 52.6144 196.089 51.9969C195.101 51.3617 194.315 50.4708 193.733 49.324C193.169 48.1596 192.886 46.8187 192.886 45.3014ZM203.948 45.3279C203.948 44.1987 203.631 43.3078 202.996 42.655C202.378 42.0022 201.62 41.6758 200.72 41.6758C199.82 41.6758 199.053 42.0022 198.417 42.655C197.8 43.2901 197.491 44.1723 197.491 45.3014C197.491 46.4306 197.8 47.3303 198.417 48.0008C199.053 48.6536 199.82 48.9799 200.72 48.9799C201.62 48.9799 202.378 48.6536 202.996 48.0008C203.631 47.348 203.948 46.457 203.948 45.3279Z" fill="white"/>
<path d="M230.59 37.7856C232.425 37.7856 233.881 38.3413 234.957 39.4528C236.051 40.5643 236.598 42.1081 236.598 44.0841V52.7114H232.099V44.6927C232.099 43.74 231.843 43.0078 231.331 42.4962C230.837 41.9669 230.149 41.7023 229.267 41.7023C228.385 41.7023 227.688 41.9669 227.176 42.4962C226.682 43.0078 226.435 43.74 226.435 44.6927V52.7114H221.936V44.6927C221.936 43.74 221.681 43.0078 221.169 42.4962C220.675 41.9669 219.987 41.7023 219.105 41.7023C218.223 41.7023 217.526 41.9669 217.014 42.4962C216.52 43.0078 216.273 43.74 216.273 44.6927V52.7114H211.748V37.9443H216.273V39.7968C216.732 39.1793 217.332 38.6942 218.073 38.3413C218.814 37.9708 219.652 37.7856 220.587 37.7856C221.698 37.7856 222.686 38.0237 223.551 38.5001C224.433 38.9764 225.121 39.6557 225.615 40.5378C226.127 39.7263 226.824 39.0647 227.706 38.553C228.588 38.0414 229.549 37.7856 230.59 37.7856Z" fill="white"/>
<rect x="134.783" y="16.8608" width="16.406" height="4.49133" fill="#24CC85"/>
</svg>
