<svg width="203" height="86" viewBox="0 0 203 86" fill="none" xmlns="http://www.w3.org/2000/svg">
<path d="M100.557 21.1599V28.6719L107.126 21.1599H111.005L105.26 27.6159L111.199 36.9999H107.369L102.836 29.7519L100.557 32.3199V36.9999H97.2122V21.1599H100.557Z" fill="#F9F9F9"/>
<path d="M113.664 36.9999V21.1599H125.663V23.8239H117.009V27.7599H123.821V30.3039H117.009V34.3359H126.002V36.9999H113.664Z" fill="#F9F9F9"/>
<path d="M132.349 34.3359H140.784V36.9999H129.003V21.1599H132.349V34.3359Z" fill="#F9F9F9"/>
<path d="M150.276 21.1599C152.102 21.1599 153.54 21.6159 154.591 22.5279C155.641 23.4239 156.166 24.6719 156.166 26.2719C156.166 27.8879 155.641 29.1439 154.591 30.0399C153.54 30.9359 152.102 31.3839 150.276 31.3839H146.907V36.9999H143.562V21.1599H150.276ZM149.767 28.7679C151.771 28.7679 152.773 27.9359 152.773 26.2719C152.773 24.6079 151.771 23.7759 149.767 23.7759H146.907V28.7679H149.767Z" fill="#F9F9F9"/>
<path d="M103.393 49.4099C105.898 49.4099 107.837 50.0979 109.211 51.4739C110.585 52.8499 111.271 54.8019 111.271 57.3299C111.271 59.8579 110.585 61.8099 109.211 63.1859C107.837 64.5619 105.898 65.2499 103.393 65.2499H97.2122V49.4099H103.393ZM103.224 62.6099C104.743 62.6099 105.882 62.1619 106.642 61.2659C107.417 60.3539 107.805 59.0419 107.805 57.3299C107.805 55.6179 107.417 54.3139 106.642 53.4179C105.882 52.5059 104.743 52.0499 103.224 52.0499H100.557V62.6099H103.224Z" fill="#F9F9F9"/>
<path d="M115.897 51.5219C114.523 51.5219 113.836 50.9379 113.836 49.7699C113.836 48.5859 114.523 47.9939 115.897 47.9939C117.27 47.9939 117.957 48.5859 117.957 49.7699C117.957 50.9379 117.27 51.5219 115.897 51.5219ZM117.545 53.2499V65.2499H114.224V53.2499H117.545Z" fill="#F9F9F9"/>
<path d="M127.974 65.4899C126.503 65.4899 125.21 65.1699 124.095 64.5299C122.997 63.8899 122.14 62.9619 121.526 61.7459C120.912 60.5299 120.605 59.0659 120.605 57.3539C120.605 55.6579 120.928 54.2019 121.574 52.9859C122.221 51.7539 123.134 50.8099 124.314 50.1539C125.493 49.4979 126.875 49.1699 128.459 49.1699C130.204 49.1699 131.602 49.4899 132.652 50.1299C133.719 50.7539 134.567 51.7299 135.197 53.0579L132.095 54.3779C131.836 53.5299 131.392 52.9059 130.761 52.5059C130.147 52.0899 129.388 51.8819 128.483 51.8819C127.125 51.8819 126.051 52.3539 125.259 53.2979C124.467 54.2419 124.071 55.5859 124.071 57.3299C124.071 59.1379 124.451 60.5059 125.21 61.4339C125.97 62.3619 127.093 62.8259 128.58 62.8259C129.663 62.8259 130.559 62.5699 131.27 62.0579C131.998 61.5299 132.361 60.7379 132.361 59.6819V59.3219H128.168V56.8979H135.246V65.2499H132.895L132.749 63.2339C132.297 63.9539 131.666 64.5139 130.858 64.9139C130.05 65.2979 129.089 65.4899 127.974 65.4899Z" fill="#F9F9F9"/>
<path d="M140.255 51.5219C138.882 51.5219 138.195 50.9379 138.195 49.7699C138.195 48.5859 138.882 47.9939 140.255 47.9939C141.629 47.9939 142.316 48.5859 142.316 49.7699C142.316 50.9379 141.629 51.5219 140.255 51.5219ZM141.904 53.2499V65.2499H138.583V53.2499H141.904Z" fill="#F9F9F9"/>
<path d="M158.18 49.4099V52.0739H152.823V65.2499H149.478V52.0739H144.096V49.4099H158.18Z" fill="#F9F9F9"/>
<path d="M157.06 65.2499L162.902 49.4099H166.901L172.743 65.2499H169.277L167.944 61.3859H161.787L160.478 65.2499H157.06ZM164.162 54.4259L162.611 58.9379H167.12L165.617 54.4739L164.889 52.0739H164.841L164.162 54.4259Z" fill="#F9F9F9"/>
<path d="M178.461 62.5859H186.897V65.2499H175.116V49.4099H178.461V62.5859Z" fill="#F9F9F9"/>
<rect x="6.75244" y="5.5" width="75.75" height="75" rx="37.5" fill="white"/>
<path d="M55.6738 67.4899C55.6738 67.4899 55.6738 67.5045 55.7011 67.4899C58.6568 59.9648 59.0486 52.2702 56.1019 44.91C52.1134 34.9372 43.5625 31.8864 41.7893 18.0037C41.7898 17.9994 41.7855 17.9989 41.785 18.0032C39.5396 37.0861 58.541 42.1094 55.6738 67.4899Z" fill="#141F45"/>
<path d="M56.4328 67.218C56.4331 67.228 56.4477 67.2203 56.4475 67.2103C62.0457 59.9294 62.8044 52.8081 61.5038 45.889C59.2973 34.1503 51.7701 29.7052 53.938 18.4605C53.9345 18.4558 53.9337 18.4558 53.9342 18.4558C48.7123 34.884 65.8789 49.0446 56.4328 67.218Z" fill="#141F45"/>
<path d="M57.6933 66.6789C57.6726 66.7067 57.7318 66.6788 57.7318 66.6788C63.7701 61.4168 67.6635 53.8933 66.8397 45.727C65.9109 36.5202 63.7915 37.1012 63.7915 23.5671C63.792 23.5628 63.7882 23.5581 63.7877 23.5623C59.0992 44.62 69.8824 50.2922 57.6933 66.6789Z" fill="#141F45"/>
<path d="M54.8601 67.7551C54.8601 67.7551 54.8601 67.7635 54.8988 67.7551C56.2769 60.2901 53.6389 51.2085 48.8671 44.8532C40.0882 33.9676 35.6984 36.0301 30.2244 23.634C30.2207 23.6293 30.2164 23.6288 30.2202 23.6335C33.3421 42.2823 53.3187 45.7739 54.8601 67.7551Z" fill="#141F45"/>
<path d="M54.0995 67.9851C54.0995 67.9851 54.1158 68.0148 54.1316 67.9851C53.5509 59.7757 50.6046 54.502 44.609 49.2646C37.1767 43.3186 31.409 44.2154 22.9427 33.7119C22.9389 33.7071 22.9346 33.7067 22.9384 33.7114C27.538 46.119 47.6671 48.0754 54.0995 67.9851Z" fill="#141F45"/>
</svg>
