<svg width="3837" height="3205" viewBox="0 0 3837 3205" fill="none" xmlns="http://www.w3.org/2000/svg">
<circle cx="2915.65" cy="2269.81" r="52.4628" transform="rotate(-22.7554 2915.65 2269.81)" fill="url(#paint0_linear_1638_646)"/>
<circle cx="2915.65" cy="2269.81" r="52.4628" transform="rotate(-22.7554 2915.65 2269.81)" fill="url(#paint1_radial_1638_646)"/>
<g filter="url(#filter0_f_1638_646)">
<circle cx="2268.99" cy="2670.01" r="82.5059" transform="rotate(-22.7554 2268.99 2670.01)" fill="url(#paint2_linear_1638_646)"/>
<circle cx="2268.99" cy="2670.01" r="82.5059" transform="rotate(-22.7554 2268.99 2670.01)" fill="url(#paint3_radial_1638_646)"/>
</g>
<g opacity="0.7" filter="url(#filter1_f_1638_646)">
<path d="M700.932 206.226L2394.23 1792.73" stroke="url(#paint4_linear_1638_646)" stroke-width="253.112"/>
</g>
<g filter="url(#filter2_d_1638_646)">
<path d="M2393.12 866.111C2770.74 899.259 2762.53 1146.79 2762.53 1146.79C2732.37 1525.49 2320.45 1621.47 1945.36 1689.98C1536.94 1814.94 1562.67 2403.55 2013.78 2438.75C2670.2 2413.48 2881.25 1876.93 3192.65 1728.06C3504.05 1579.19 3969.08 2144.06 3436.17 2422.99" stroke="url(#paint5_linear_1638_646)" stroke-width="10.2246" stroke-linecap="round" stroke-linejoin="round"/>
</g>
<circle cx="1656.59" cy="2060.44" r="27.7943" transform="rotate(-22.7554 1656.59 2060.44)" fill="url(#paint6_linear_1638_646)"/>
<circle cx="1656.59" cy="2060.44" r="27.7943" transform="rotate(-22.7554 1656.59 2060.44)" fill="url(#paint7_radial_1638_646)"/>
<circle cx="1716.53" cy="2278.1" r="27.7943" transform="rotate(-22.7554 1716.53 2278.1)" fill="url(#paint8_linear_1638_646)"/>
<circle cx="1716.53" cy="2278.1" r="27.7943" transform="rotate(-22.7554 1716.53 2278.1)" fill="url(#paint9_radial_1638_646)"/>
<circle cx="1939.63" cy="2425.76" r="43.5959" transform="rotate(-22.7554 1939.63 2425.76)" fill="url(#paint10_linear_1638_646)"/>
<circle cx="1939.63" cy="2425.76" r="43.5959" transform="rotate(-22.7554 1939.63 2425.76)" fill="url(#paint11_radial_1638_646)"/>
<g filter="url(#filter3_b_1638_646)">
<rect x="2056.52" y="936.672" width="1206.25" height="1236.1" rx="112.566" transform="rotate(17.8365 2056.52 936.672)" fill="white" fill-opacity="0.2"/>
<rect x="2056.52" y="936.672" width="1206.25" height="1236.1" rx="112.566" transform="rotate(17.8365 2056.52 936.672)" fill="url(#paint12_linear_1638_646)" fill-opacity="0.6"/>
</g>
<g filter="url(#filter4_f_1638_646)">
<g filter="url(#filter5_f_1638_646)">
<path d="M2539.8 1338.46C2625.91 1359.84 2702.71 1408.66 2758.61 1477.55C2814.51 1546.44 2846.46 1631.65 2849.65 1720.31C2852.83 1808.97 2827.07 1896.26 2776.26 1968.98C2725.44 2041.7 2652.34 2095.91 2568 2123.41C2483.65 2150.91 2392.64 2150.21 2308.73 2121.41C2224.82 2092.61 2152.56 2037.28 2102.88 1963.78C2053.19 1890.29 2028.78 1802.61 2033.34 1714.01C2037.89 1625.42 2071.15 1540.71 2128.11 1472.69L2197.27 1530.6C2152.89 1583.6 2126.97 1649.61 2123.43 1718.64C2119.88 1787.68 2138.9 1855.99 2177.61 1913.26C2216.33 1970.53 2272.63 2013.64 2338.02 2036.08C2403.4 2058.52 2474.31 2059.07 2540.03 2037.64C2605.75 2016.21 2662.72 1973.98 2702.31 1917.31C2741.9 1860.64 2761.97 1792.63 2759.49 1723.55C2757.01 1654.47 2732.11 1588.07 2688.56 1534.39C2645 1480.71 2585.16 1442.67 2518.07 1426.01L2539.8 1338.46Z" fill="url(#paint13_linear_1638_646)"/>
<path d="M2539.8 1338.46C2625.91 1359.84 2702.71 1408.66 2758.61 1477.55C2814.51 1546.44 2846.46 1631.65 2849.65 1720.31C2852.83 1808.97 2827.07 1896.26 2776.26 1968.98C2725.44 2041.7 2652.34 2095.91 2568 2123.41C2483.65 2150.91 2392.64 2150.21 2308.73 2121.41C2224.82 2092.61 2152.56 2037.28 2102.88 1963.78C2053.19 1890.29 2028.78 1802.61 2033.34 1714.01C2037.89 1625.42 2071.15 1540.71 2128.11 1472.69L2197.27 1530.6C2152.89 1583.6 2126.97 1649.61 2123.43 1718.64C2119.88 1787.68 2138.9 1855.99 2177.61 1913.26C2216.33 1970.53 2272.63 2013.64 2338.02 2036.08C2403.4 2058.52 2474.31 2059.07 2540.03 2037.64C2605.75 2016.21 2662.72 1973.98 2702.31 1917.31C2741.9 1860.64 2761.97 1792.63 2759.49 1723.55C2757.01 1654.47 2732.11 1588.07 2688.56 1534.39C2645 1480.71 2585.16 1442.67 2518.07 1426.01L2539.8 1338.46Z" fill="white" fill-opacity="0.2"/>
</g>
<circle cx="2441.35" cy="1734.98" r="126.854" transform="rotate(-7.75544 2441.35 1734.98)" fill="url(#paint14_radial_1638_646)"/>
<path d="M2396.02 1741.88L2438.17 1785.51L2503.32 1676.46" stroke="#8CFF00" stroke-width="33.7697" stroke-linecap="round" stroke-linejoin="round"/>
<path d="M2396.02 1741.88L2438.17 1785.51L2503.32 1676.46" stroke="#F4FBFF" stroke-width="6.75394" stroke-linecap="round" stroke-linejoin="round"/>
<g filter="url(#filter6_f_1638_646)">
<circle cx="1953.77" cy="2032.01" r="41.0944" transform="rotate(-22.7554 1953.77 2032.01)" fill="url(#paint15_linear_1638_646)"/>
</g>
<g filter="url(#filter7_f_1638_646)">
<path d="M2611.41 1599.35C2640.87 1636.27 2657.5 1681.78 2658.8 1729C2660.1 1776.22 2645.99 1822.58 2618.62 1861.07C2591.24 1899.56 2552.07 1928.09 2507.04 1942.36C2462.01 1956.62 2413.57 1955.84 2369.02 1940.14C2324.47 1924.43 2286.25 1894.65 2260.12 1855.3C2234 1815.94 2221.39 1769.16 2224.21 1722C2227.03 1674.85 2245.12 1629.9 2275.75 1593.94C2306.37 1557.98 2347.87 1532.97 2393.98 1522.68L2404.44 1569.56C2368.51 1577.57 2336.18 1597.06 2312.31 1625.08C2288.45 1653.1 2274.35 1688.13 2272.16 1724.87C2269.96 1761.61 2279.78 1798.07 2300.14 1828.73C2320.49 1859.4 2350.28 1882.6 2384.99 1894.84C2419.7 1907.08 2457.45 1907.69 2492.54 1896.57C2527.63 1885.46 2558.14 1863.22 2579.48 1833.23C2600.81 1803.24 2611.8 1767.11 2610.79 1730.32C2609.77 1693.53 2596.81 1658.07 2573.86 1629.29L2611.41 1599.35Z" fill="url(#paint16_linear_1638_646)"/>
</g>
<g filter="url(#filter8_f_1638_646)">
<circle cx="2505.62" cy="1560.12" r="20.7018" transform="rotate(-22.7554 2505.62 1560.12)" fill="url(#paint17_linear_1638_646)"/>
</g>
<g filter="url(#filter9_f_1638_646)">
<circle cx="3031.11" cy="1455.56" r="35.7465" transform="rotate(-22.7554 3031.11 1455.56)" fill="url(#paint18_linear_1638_646)"/>
</g>
<g filter="url(#filter10_f_1638_646)">
<path d="M2440.01 2037.38C2374.35 2037.09 2310.57 2015.44 2258.31 1975.69C2206.05 1935.94 2168.14 1880.26 2150.32 1817.07C2132.5 1753.87 2135.74 1686.59 2159.54 1625.4C2183.34 1564.2 2226.41 1512.42 2282.24 1477.87C2338.08 1443.32 2403.64 1427.88 2469.03 1433.89C2534.41 1439.9 2596.06 1467.03 2644.66 1511.18C2693.27 1555.33 2726.18 1614.1 2738.42 1678.61C2750.67 1743.11 2741.59 1809.86 2712.55 1868.74L2652.67 1839.21C2675.29 1793.33 2682.37 1741.32 2672.83 1691.06C2663.29 1640.79 2637.64 1595 2599.77 1560.6C2561.9 1526.2 2513.86 1505.06 2462.92 1500.38C2411.97 1495.7 2360.88 1507.73 2317.37 1534.65C2273.87 1561.57 2240.31 1601.92 2221.76 1649.6C2203.22 1697.28 2200.7 1749.71 2214.58 1798.95C2228.47 1848.19 2258 1891.57 2298.72 1922.54C2339.45 1953.52 2389.15 1970.39 2440.31 1970.62L2440.01 2037.38Z" fill="url(#paint19_linear_1638_646)"/>
<path d="M2440.01 2037.38C2374.35 2037.09 2310.57 2015.44 2258.31 1975.69C2206.05 1935.94 2168.14 1880.26 2150.32 1817.07C2132.5 1753.87 2135.74 1686.59 2159.54 1625.4C2183.34 1564.2 2226.41 1512.42 2282.24 1477.87C2338.08 1443.32 2403.64 1427.88 2469.03 1433.89C2534.41 1439.9 2596.06 1467.03 2644.66 1511.18C2693.27 1555.33 2726.18 1614.1 2738.42 1678.61C2750.67 1743.11 2741.59 1809.86 2712.55 1868.74L2652.67 1839.21C2675.29 1793.33 2682.37 1741.32 2672.83 1691.06C2663.29 1640.79 2637.64 1595 2599.77 1560.6C2561.9 1526.2 2513.86 1505.06 2462.92 1500.38C2411.97 1495.7 2360.88 1507.73 2317.37 1534.65C2273.87 1561.57 2240.31 1601.92 2221.76 1649.6C2203.22 1697.28 2200.7 1749.71 2214.58 1798.95C2228.47 1848.19 2258 1891.57 2298.72 1922.54C2339.45 1953.52 2389.15 1970.39 2440.31 1970.62L2440.01 2037.38Z" fill="white" fill-opacity="0.2"/>
</g>
<g filter="url(#filter11_f_1638_646)">
<circle cx="2573.08" cy="1967.13" r="20.7018" transform="rotate(-22.7554 2573.08 1967.13)" fill="url(#paint20_linear_1638_646)"/>
</g>
</g>
<circle cx="2381.46" cy="865.165" r="54.6271" transform="rotate(-22.7554 2381.46 865.165)" fill="url(#paint21_linear_1638_646)"/>
<circle cx="2381.46" cy="865.165" r="54.6271" transform="rotate(-22.7554 2381.46 865.165)" fill="url(#paint22_radial_1638_646)"/>
<circle cx="3424.37" cy="2432.7" r="28.9282" transform="rotate(-22.7554 3424.37 2432.7)" fill="url(#paint23_linear_1638_646)"/>
<circle cx="3424.37" cy="2432.7" r="28.9282" transform="rotate(-22.7554 3424.37 2432.7)" fill="url(#paint24_radial_1638_646)"/>
<path d="M2045.6 1559.91L1908.27 1416.7L1943.4 1389.84L2045.6 1559.91Z" fill="url(#paint25_diamond_1638_646)"/>
<path d="M1985.22 1346.1L1808.64 1172.32L1842.36 1143.69L1985.22 1346.1Z" fill="url(#paint26_diamond_1638_646)"/>
<path d="M1811.08 1378.14L1626.52 1173.17L1661.66 1146.3L1811.08 1378.14Z" fill="url(#paint27_diamond_1638_646)"/>
<path d="M1670.04 1054.89L1405.3 777.303L1439.02 748.671L1670.04 1054.89Z" fill="url(#paint28_diamond_1638_646)"/>
<defs>
<filter id="filter0_f_1638_646" x="2153.23" y="2554.25" width="231.514" height="231.514" filterUnits="userSpaceOnUse" color-interpolation-filters="sRGB">
<feFlood flood-opacity="0" result="BackgroundImageFix"/>
<feBlend mode="normal" in="SourceGraphic" in2="BackgroundImageFix" result="shape"/>
<feGaussianBlur stdDeviation="16.6149" result="effect1_foregroundBlur_1638_646"/>
</filter>
<filter id="filter1_f_1638_646" x="501.407" y="0.876549" width="2092.35" height="1997.2" filterUnits="userSpaceOnUse" color-interpolation-filters="sRGB">
<feFlood flood-opacity="0" result="BackgroundImageFix"/>
<feBlend mode="normal" in="SourceGraphic" in2="BackgroundImageFix" result="shape"/>
<feGaussianBlur stdDeviation="56.4982" result="effect1_foregroundBlur_1638_646"/>
</filter>
<filter id="filter2_d_1638_646" x="1640.94" y="853.33" width="2053.51" height="1603.32" filterUnits="userSpaceOnUse" color-interpolation-filters="sRGB">
<feFlood flood-opacity="0" result="BackgroundImageFix"/>
<feColorMatrix in="SourceAlpha" type="matrix" values="0 0 0 0 0 0 0 0 0 0 0 0 0 0 0 0 0 0 127 0" result="hardAlpha"/>
<feOffset dy="2.55614"/>
<feGaussianBlur stdDeviation="5.11229"/>
<feComposite in2="hardAlpha" operator="out"/>
<feColorMatrix type="matrix" values="0 0 0 0 0 0 0 0 0 0 0 0 0 0 0 0 0 0 0.05 0"/>
<feBlend mode="normal" in2="BackgroundImageFix" result="effect1_dropShadow_1638_646"/>
<feBlend mode="normal" in="SourceGraphic" in2="effect1_dropShadow_1638_646" result="shape"/>
</filter>
<filter id="filter3_b_1638_646" x="1661.91" y="920.685" width="1558.87" height="1578.14" filterUnits="userSpaceOnUse" color-interpolation-filters="sRGB">
<feFlood flood-opacity="0" result="BackgroundImageFix"/>
<feGaussianBlur in="BackgroundImage" stdDeviation="22.5131"/>
<feComposite in2="SourceAlpha" operator="in" result="effect1_backgroundBlur_1638_646"/>
<feBlend mode="normal" in="SourceGraphic" in2="effect1_backgroundBlur_1638_646" result="shape"/>
</filter>
<filter id="filter4_f_1638_646" x="1903.66" y="1329.45" width="1172.22" height="823.083" filterUnits="userSpaceOnUse" color-interpolation-filters="sRGB">
<feFlood flood-opacity="0" result="BackgroundImageFix"/>
<feBlend mode="normal" in="SourceGraphic" in2="BackgroundImageFix" result="shape"/>
<feGaussianBlur stdDeviation="4.50262" result="effect1_foregroundBlur_1638_646"/>
</filter>
<filter id="filter5_f_1638_646" x="1965.26" y="1270.92" width="952.191" height="940.151" filterUnits="userSpaceOnUse" color-interpolation-filters="sRGB">
<feFlood flood-opacity="0" result="BackgroundImageFix"/>
<feBlend mode="normal" in="SourceGraphic" in2="BackgroundImageFix" result="shape"/>
<feGaussianBlur stdDeviation="33.7697" result="effect1_foregroundBlur_1638_646"/>
</filter>
<filter id="filter6_f_1638_646" x="1890.15" y="1968.39" width="127.236" height="127.237" filterUnits="userSpaceOnUse" color-interpolation-filters="sRGB">
<feFlood flood-opacity="0" result="BackgroundImageFix"/>
<feBlend mode="normal" in="SourceGraphic" in2="BackgroundImageFix" result="shape"/>
<feGaussianBlur stdDeviation="11.2566" result="effect1_foregroundBlur_1638_646"/>
</filter>
<filter id="filter7_f_1638_646" x="2212.57" y="1511.42" width="457.573" height="452.351" filterUnits="userSpaceOnUse" color-interpolation-filters="sRGB">
<feFlood flood-opacity="0" result="BackgroundImageFix"/>
<feBlend mode="normal" in="SourceGraphic" in2="BackgroundImageFix" result="shape"/>
<feGaussianBlur stdDeviation="5.62828" result="effect1_foregroundBlur_1638_646"/>
</filter>
<filter id="filter8_f_1638_646" x="2462.4" y="1516.9" width="86.4403" height="86.4423" filterUnits="userSpaceOnUse" color-interpolation-filters="sRGB">
<feFlood flood-opacity="0" result="BackgroundImageFix"/>
<feBlend mode="normal" in="SourceGraphic" in2="BackgroundImageFix" result="shape"/>
<feGaussianBlur stdDeviation="11.2566" result="effect1_foregroundBlur_1638_646"/>
</filter>
<filter id="filter9_f_1638_646" x="2972.85" y="1397.29" width="116.538" height="116.538" filterUnits="userSpaceOnUse" color-interpolation-filters="sRGB">
<feFlood flood-opacity="0" result="BackgroundImageFix"/>
<feBlend mode="normal" in="SourceGraphic" in2="BackgroundImageFix" result="shape"/>
<feGaussianBlur stdDeviation="11.2566" result="effect1_foregroundBlur_1638_646"/>
</filter>
<filter id="filter10_f_1638_646" x="2123.21" y="1416.87" width="636.278" height="636.274" filterUnits="userSpaceOnUse" color-interpolation-filters="sRGB">
<feFlood flood-opacity="0" result="BackgroundImageFix"/>
<feBlend mode="normal" in="SourceGraphic" in2="BackgroundImageFix" result="shape"/>
<feGaussianBlur stdDeviation="7.8796" result="effect1_foregroundBlur_1638_646"/>
</filter>
<filter id="filter11_f_1638_646" x="2529.86" y="1923.91" width="86.4403" height="86.4423" filterUnits="userSpaceOnUse" color-interpolation-filters="sRGB">
<feFlood flood-opacity="0" result="BackgroundImageFix"/>
<feBlend mode="normal" in="SourceGraphic" in2="BackgroundImageFix" result="shape"/>
<feGaussianBlur stdDeviation="11.2566" result="effect1_foregroundBlur_1638_646"/>
</filter>
<linearGradient id="paint0_linear_1638_646" x1="2915.65" y1="2217.35" x2="2915.65" y2="2402.42" gradientUnits="userSpaceOnUse">
<stop stop-color="#054F77"/>
<stop offset="1" stop-color="#8CFF00"/>
</linearGradient>
<radialGradient id="paint1_radial_1638_646" cx="0" cy="0" r="1" gradientUnits="userSpaceOnUse" gradientTransform="translate(2907.65 2237.49) rotate(83.0538) scale(64.0796)">
<stop stop-color="#8CFF00"/>
<stop offset="1" stop-color="#054F77"/>
</radialGradient>
<linearGradient id="paint2_linear_1638_646" x1="2268.99" y1="2587.5" x2="2268.99" y2="2878.55" gradientUnits="userSpaceOnUse">
<stop stop-color="#054F77"/>
<stop offset="1" stop-color="#8CFF00"/>
</linearGradient>
<radialGradient id="paint3_radial_1638_646" cx="0" cy="0" r="1" gradientUnits="userSpaceOnUse" gradientTransform="translate(2256.42 2619.19) rotate(83.0538) scale(100.775)">
<stop stop-color="#8CFF00"/>
<stop offset="1" stop-color="#054F77"/>
</radialGradient>
<linearGradient id="paint4_linear_1638_646" x1="2637.69" y1="2215.12" x2="883.258" y2="453.651" gradientUnits="userSpaceOnUse">
<stop stop-color="#83DDDD" stop-opacity="0.92"/>
<stop offset="1" stop-color="#054F77"/>
</linearGradient>
<linearGradient id="paint5_linear_1638_646" x1="3049.98" y1="2349.26" x2="2710.95" y2="1060.05" gradientUnits="userSpaceOnUse">
<stop stop-color="#8CFF00"/>
<stop offset="1" stop-color="#054F77"/>
</linearGradient>
<linearGradient id="paint6_linear_1638_646" x1="1656.59" y1="2032.64" x2="1656.59" y2="2130.69" gradientUnits="userSpaceOnUse">
<stop stop-color="#054F77"/>
<stop offset="1" stop-color="#8CFF00"/>
</linearGradient>
<radialGradient id="paint7_radial_1638_646" cx="0" cy="0" r="1" gradientUnits="userSpaceOnUse" gradientTransform="translate(1652.36 2043.32) rotate(83.0538) scale(33.9487)">
<stop stop-color="#8CFF00"/>
<stop offset="1" stop-color="#054F77"/>
</radialGradient>
<linearGradient id="paint8_linear_1638_646" x1="1716.53" y1="2250.31" x2="1716.53" y2="2348.36" gradientUnits="userSpaceOnUse">
<stop stop-color="#054F77"/>
<stop offset="1" stop-color="#8CFF00"/>
</linearGradient>
<radialGradient id="paint9_radial_1638_646" cx="0" cy="0" r="1" gradientUnits="userSpaceOnUse" gradientTransform="translate(1712.29 2260.98) rotate(83.0538) scale(33.9487)">
<stop stop-color="#8CFF00"/>
<stop offset="1" stop-color="#054F77"/>
</radialGradient>
<linearGradient id="paint10_linear_1638_646" x1="1939.63" y1="2382.16" x2="1939.63" y2="2535.95" gradientUnits="userSpaceOnUse">
<stop stop-color="#054F77"/>
<stop offset="1" stop-color="#8CFF00"/>
</linearGradient>
<radialGradient id="paint11_radial_1638_646" cx="0" cy="0" r="1" gradientUnits="userSpaceOnUse" gradientTransform="translate(1932.99 2398.9) rotate(83.0538) scale(53.2493)">
<stop stop-color="#8CFF00"/>
<stop offset="1" stop-color="#054F77"/>
</radialGradient>
<linearGradient id="paint12_linear_1638_646" x1="2271.17" y1="965.461" x2="2659.65" y2="2172.77" gradientUnits="userSpaceOnUse">
<stop stop-color="#093954"/>
<stop offset="1" stop-color="#093954" stop-opacity="0"/>
</linearGradient>
<linearGradient id="paint13_linear_1638_646" x1="2034.44" y1="1803.95" x2="2837.87" y2="1833.43" gradientUnits="userSpaceOnUse">
<stop stop-color="#054F77"/>
<stop offset="0.971875" stop-color="#8CFF00"/>
</linearGradient>
<radialGradient id="paint14_radial_1638_646" cx="0" cy="0" r="1" gradientUnits="userSpaceOnUse" gradientTransform="translate(2441.35 1554.79) rotate(90) scale(307.037)">
<stop stop-color="#F4FBFF"/>
<stop offset="1" stop-color="#054F77" stop-opacity="0"/>
</radialGradient>
<linearGradient id="paint15_linear_1638_646" x1="1953.77" y1="1990.92" x2="1953.77" y2="2135.88" gradientUnits="userSpaceOnUse">
<stop stop-color="#054F77"/>
<stop offset="1" stop-color="#8CFF00"/>
</linearGradient>
<linearGradient id="paint16_linear_1638_646" x1="2247.07" y1="1632.3" x2="2576.99" y2="1905.05" gradientUnits="userSpaceOnUse">
<stop stop-color="#054F77"/>
<stop offset="0.971875" stop-color="#8CFF00"/>
</linearGradient>
<linearGradient id="paint17_linear_1638_646" x1="2505.62" y1="1539.42" x2="2505.62" y2="1612.44" gradientUnits="userSpaceOnUse">
<stop stop-color="#054F77"/>
<stop offset="1" stop-color="#8CFF00"/>
</linearGradient>
<linearGradient id="paint18_linear_1638_646" x1="3031.11" y1="1419.82" x2="3031.11" y2="1545.92" gradientUnits="userSpaceOnUse">
<stop stop-color="#054F77"/>
<stop offset="1" stop-color="#8CFF00"/>
</linearGradient>
<linearGradient id="paint19_linear_1638_646" x1="2721.88" y1="1614.12" x2="2138.97" y2="1733.67" gradientUnits="userSpaceOnUse">
<stop stop-color="#054F77"/>
<stop offset="0.971875" stop-color="#8CFF00"/>
</linearGradient>
<linearGradient id="paint20_linear_1638_646" x1="2573.08" y1="1946.43" x2="2573.08" y2="2019.46" gradientUnits="userSpaceOnUse">
<stop stop-color="#054F77"/>
<stop offset="1" stop-color="#8CFF00"/>
</linearGradient>
<linearGradient id="paint21_linear_1638_646" x1="2381.46" y1="810.538" x2="2381.46" y2="1003.24" gradientUnits="userSpaceOnUse">
<stop stop-color="#054F77"/>
<stop offset="1" stop-color="#8CFF00"/>
</linearGradient>
<radialGradient id="paint22_radial_1638_646" cx="0" cy="0" r="1" gradientUnits="userSpaceOnUse" gradientTransform="translate(2373.14 831.515) rotate(83.0538) scale(66.7231)">
<stop stop-color="#8CFF00"/>
<stop offset="1" stop-color="#054F77"/>
</radialGradient>
<linearGradient id="paint23_linear_1638_646" x1="3424.37" y1="2403.77" x2="3424.37" y2="2505.82" gradientUnits="userSpaceOnUse">
<stop stop-color="#054F77"/>
<stop offset="1" stop-color="#8CFF00"/>
</linearGradient>
<radialGradient id="paint24_radial_1638_646" cx="0" cy="0" r="1" gradientUnits="userSpaceOnUse" gradientTransform="translate(3419.96 2414.88) rotate(83.0538) scale(35.3338)">
<stop stop-color="#8CFF00"/>
<stop offset="1" stop-color="#054F77"/>
</radialGradient>
<radialGradient id="paint25_diamond_1638_646" cx="0" cy="0" r="1" gradientUnits="userSpaceOnUse" gradientTransform="translate(2050.54 1572.15) rotate(-126.063) scale(244.523 47.5045)">
<stop stop-color="#F4FBFF"/>
<stop offset="1" stop-color="#F4FBFF" stop-opacity="0"/>
</radialGradient>
<radialGradient id="paint26_diamond_1638_646" cx="0" cy="0" r="1" gradientUnits="userSpaceOnUse" gradientTransform="translate(1992.85 1360.51) rotate(-129.269) scale(305.979 47.5092)">
<stop stop-color="#F4FBFF"/>
<stop offset="1" stop-color="#F4FBFF" stop-opacity="0"/>
</radialGradient>
<radialGradient id="paint27_diamond_1638_646" cx="0" cy="0" r="1" gradientUnits="userSpaceOnUse" gradientTransform="translate(1819.06 1394.36) rotate(-126.441) scale(340.887 47.5108)">
<stop stop-color="#F4FBFF"/>
<stop offset="1" stop-color="#F4FBFF" stop-opacity="0"/>
</radialGradient>
<radialGradient id="paint28_diamond_1638_646" cx="0" cy="0" r="1" gradientUnits="userSpaceOnUse" gradientTransform="translate(1683.35 1075.99) rotate(-129.648) scale(474.793 47.514)">
<stop stop-color="#F4FBFF"/>
<stop offset="1" stop-color="#F4FBFF" stop-opacity="0"/>
</radialGradient>
</defs>
</svg>
