<svg width="24" height="24" viewBox="0 0 24 24" fill="none" xmlns="http://www.w3.org/2000/svg">
<path d="M15.9997 17.2401C18.4997 16.9401 20.6897 15.4001 20.9997 13.9901C21.2792 12.1972 21.413 10.3846 21.3997 8.57008C21.3297 4.23008 18.4797 3.00008 18.4797 3.00008C16.4012 2.26472 14.2032 1.92552 11.9997 2.00008C9.79617 1.92552 7.59821 2.26472 5.51969 3.00008C5.51969 3.00008 2.67969 4.23008 2.67969 8.57008V12.0101C2.77969 16.2501 3.45969 20.4301 7.37969 21.4701C8.88191 21.8903 10.4413 22.0692 11.9997 22.0001C13.2218 21.9677 14.4251 21.6923 15.5397 21.1901L15.4697 19.5501C14.343 19.8776 13.1726 20.0294 11.9997 20.0001C10.1997 19.9401 8.28969 19.8101 7.99969 17.6001C7.98414 17.3904 7.98414 17.1798 7.99969 16.9701C9.31432 17.2686 10.653 17.4493 11.9997 17.5101C13.3383 17.5337 14.6764 17.4434 15.9997 17.2401V17.2401ZM9.45969 7.44008C8.55969 7.44008 8.10969 7.98008 8.10969 9.06008V14.1601H5.99969V8.90008C5.95012 7.9751 6.24192 7.06411 6.81969 6.34008C7.09397 6.01846 7.43636 5.76187 7.82206 5.58891C8.20775 5.41596 8.62709 5.33096 9.04969 5.34008C9.52274 5.31468 9.99408 5.41514 10.4157 5.6312C10.8373 5.84727 11.1941 6.17123 11.4497 6.57008L11.9697 7.44008L12.4897 6.57008C12.7453 6.17123 13.1021 5.84727 13.5237 5.6312C13.9453 5.41514 14.4166 5.31468 14.8897 5.34008C15.3123 5.33096 15.7316 5.41596 16.1173 5.58891C16.503 5.76187 16.8454 6.01846 17.1197 6.34008C17.719 7.05552 18.0324 7.96737 17.9997 8.90008V14.1601H15.8897V9.06008C15.8897 7.98008 15.4397 7.44008 14.5397 7.44008C13.5397 7.44008 13.0297 8.08008 13.0297 9.36008V12.1501H10.9997V9.36008C10.9997 8.08008 10.4597 7.44008 9.45969 7.44008V7.44008Z" fill="#8CFF00"/>
</svg>
