<svg width="61" height="41" viewBox="0 0 61 41" fill="none" xmlns="http://www.w3.org/2000/svg">
<path d="M10.9998 6.9784V1.65518H0.822266V40.9794H11.6101V18.1592C11.6101 16.232 11.8893 14.6736 12.4444 13.4807C13.0029 12.2913 13.6718 11.3776 14.4578 10.7433C15.1699 10.1497 15.9976 9.71055 16.8885 9.45383C17.5422 9.2537 18.2188 9.13784 18.9019 9.10907C20.6223 9.10907 21.9255 9.40212 22.815 9.98133C23.6755 10.536 24.3391 11.3479 24.7112 12.3016C25.1012 13.311 25.3203 14.3783 25.3594 15.4597C25.4077 16.6009 25.4318 17.7559 25.4318 18.9212V40.9794H36.2162V19.0729C36.2161 17.8635 36.306 16.6558 36.4851 15.4597C36.6383 14.3378 36.9983 13.2542 37.547 12.2637C38.0779 11.3259 38.8123 10.5674 39.75 9.98133C40.6878 9.40212 41.9152 9.10907 43.4322 9.10907C44.9526 9.10907 46.1558 9.36419 47.0419 9.86755C47.8971 10.3441 48.5963 11.0577 49.0553 11.9224C49.5338 12.8701 49.8175 13.9041 49.8897 14.9632C49.9897 16.132 50.0414 17.3732 50.0414 18.6936V40.9794H60.8223V14.6633C60.8223 12.1223 60.4672 9.9572 59.7604 8.15751C59.0502 6.35782 58.0607 4.89945 56.7988 3.78584C55.5301 2.6688 54.0131 1.85859 52.241 1.34833C50.4689 0.844973 48.5451 0.589844 46.4696 0.589844C43.7321 0.589844 41.367 1.24835 39.3673 2.56881C37.3642 3.88583 35.7852 5.40626 34.6199 7.1301C33.558 4.69603 31.9996 2.99977 29.9483 2.03787C27.8969 1.07252 25.6318 0.589844 23.1494 0.589844C20.5706 0.589844 18.2779 1.14837 16.2782 2.26197C14.2311 3.42132 12.4772 5.03484 11.1515 6.9784H10.9998Z" fill="#8CFF00"/>
</svg>
