<svg width="217" height="54" viewBox="0 0 217 54" fill="none" xmlns="http://www.w3.org/2000/svg">
<path d="M82.6421 39.0308C82.0549 39.0308 81.6355 38.835 81.3838 38.4436C81.1322 38.0521 81.1392 37.5698 81.4048 36.9965L86.7735 25.2316C86.9972 24.7563 87.2628 24.4137 87.5704 24.204C87.878 23.9803 88.2345 23.8685 88.6399 23.8685C89.0454 23.8685 89.4019 23.9803 89.7095 24.204C90.017 24.4137 90.2757 24.7563 90.4854 25.2316L95.896 36.9965C96.1617 37.5837 96.1686 38.0731 95.917 38.4645C95.6793 38.842 95.2878 39.0308 94.7426 39.0308C94.2672 39.0308 93.8967 38.9189 93.6311 38.6952C93.3795 38.4715 93.1558 38.122 92.96 37.6467L92.0792 35.6334H85.1797L84.3198 37.6467C84.1101 38.136 83.8864 38.4925 83.6487 38.7162C83.4111 38.9259 83.0755 39.0308 82.6421 39.0308ZM88.598 27.5175L86.2702 33.0959H91.0097L88.6399 27.5175H88.598Z" fill="#F4FBFF"/>
<path d="M102.039 39.0308C101.033 39.0308 100.529 38.5065 100.529 37.4579V25.5042C100.529 24.973 100.655 24.5675 100.907 24.2879C101.172 24.0083 101.522 23.8685 101.955 23.8685C102.319 23.8685 102.605 23.9454 102.815 24.0992C103.025 24.239 103.262 24.4766 103.528 24.8122L110.323 33.4734V25.4204C110.323 24.3858 110.826 23.8685 111.833 23.8685C112.839 23.8685 113.343 24.3858 113.343 25.4204V37.5208C113.343 37.9822 113.224 38.3527 112.986 38.6323C112.749 38.898 112.427 39.0308 112.022 39.0308C111.63 39.0308 111.315 38.9539 111.078 38.8001C110.854 38.6463 110.609 38.4016 110.344 38.0661L103.549 29.4049V37.4579C103.549 38.5065 103.046 39.0308 102.039 39.0308Z" fill="#F4FBFF"/>
<path d="M119.255 39.0308C118.668 39.0308 118.249 38.835 117.997 38.4436C117.745 38.0521 117.752 37.5698 118.018 36.9965L123.387 25.2316C123.61 24.7563 123.876 24.4137 124.183 24.204C124.491 23.9803 124.848 23.8685 125.253 23.8685C125.658 23.8685 126.015 23.9803 126.322 24.204C126.63 24.4137 126.889 24.7563 127.098 25.2316L132.509 36.9965C132.775 37.5837 132.782 38.0731 132.53 38.4645C132.292 38.842 131.901 39.0308 131.356 39.0308C130.88 39.0308 130.51 38.9189 130.244 38.6952C129.992 38.4715 129.769 38.122 129.573 37.6467L128.692 35.6334H121.793L120.933 37.6467C120.723 38.136 120.499 38.4925 120.262 38.7162C120.024 38.9259 119.689 39.0308 119.255 39.0308ZM125.211 27.5175L122.883 33.0959H127.623L125.253 27.5175H125.211Z" fill="#F4FBFF"/>
<path d="M144.113 39.0727C142.449 39.0727 141.037 38.7581 139.877 38.129C138.73 37.4999 137.857 36.6191 137.255 35.4866C136.654 34.3542 136.354 33.026 136.354 31.5021C136.354 29.9362 136.661 28.58 137.276 27.4336C137.906 26.2872 138.807 25.3994 139.982 24.7702C141.156 24.1411 142.568 23.8265 144.218 23.8265C144.973 23.8265 145.728 23.9104 146.483 24.0782C147.238 24.246 147.965 24.5256 148.664 24.917C149.041 25.1268 149.265 25.4064 149.335 25.7559C149.419 26.1054 149.384 26.448 149.23 26.7835C149.076 27.1051 148.839 27.3427 148.517 27.4965C148.209 27.6363 147.839 27.6014 147.406 27.3917C146.469 26.9023 145.413 26.6577 144.239 26.6577C142.743 26.6577 141.617 27.0771 140.863 27.916C140.122 28.7408 139.751 29.9362 139.751 31.5021C139.751 33.0819 140.129 34.2773 140.883 35.0882C141.652 35.899 142.785 36.3045 144.281 36.3045C145.078 36.3045 145.917 36.1787 146.797 35.927V33.033H144.91C144.043 33.033 143.61 32.6415 143.61 31.8586C143.61 31.0756 144.043 30.6842 144.91 30.6842H148.202C149.055 30.6842 149.482 31.1176 149.482 31.9844V36.8498C149.482 37.2133 149.405 37.5208 149.251 37.7725C149.111 38.0241 148.881 38.2059 148.559 38.3177C147.93 38.5414 147.224 38.7232 146.441 38.863C145.658 39.0028 144.882 39.0727 144.113 39.0727Z" fill="#F4FBFF"/>
<path d="M161.733 39.0727C160.279 39.0727 159 38.7581 157.895 38.129C156.805 37.4859 155.952 36.5981 155.337 35.4656C154.736 34.3192 154.435 32.977 154.435 31.4391C154.435 29.9012 154.736 28.5661 155.337 27.4336C155.952 26.2872 156.805 25.3994 157.895 24.7702C158.986 24.1411 160.265 23.8265 161.733 23.8265C163.201 23.8265 164.48 24.1411 165.571 24.7702C166.675 25.3994 167.528 26.2872 168.129 27.4336C168.744 28.5661 169.052 29.8942 169.052 31.4182C169.052 32.9561 168.744 34.2982 168.129 35.4447C167.528 36.5911 166.675 37.4859 165.571 38.129C164.48 38.7581 163.201 39.0727 161.733 39.0727ZM161.733 36.3045C162.963 36.3045 163.921 35.8781 164.606 35.0252C165.305 34.1584 165.655 32.9631 165.655 31.4391C165.655 29.9012 165.312 28.7129 164.627 27.874C163.942 27.0212 162.977 26.5948 161.733 26.5948C160.517 26.5948 159.559 27.0212 158.86 27.874C158.175 28.7129 157.832 29.9012 157.832 31.4391C157.832 32.9631 158.175 34.1584 158.86 35.0252C159.559 35.8781 160.517 36.3045 161.733 36.3045Z" fill="#F4FBFF"/>
<path d="M175.74 38.842C175.194 38.842 174.782 38.7022 174.502 38.4226C174.223 38.129 174.083 37.7166 174.083 37.1853V25.672C174.083 25.1407 174.223 24.7353 174.502 24.4557C174.782 24.1621 175.187 24.0153 175.719 24.0153C176.795 24.0153 177.334 24.5675 177.334 25.672V36.0948H182.954C183.891 36.0948 184.359 36.5492 184.359 37.4579C184.359 38.3807 183.891 38.842 182.954 38.842H175.74Z" fill="#F4FBFF"/>
<path d="M188.795 39.0308C188.208 39.0308 187.788 38.835 187.537 38.4436C187.285 38.0521 187.292 37.5698 187.558 36.9965L192.926 25.2316C193.15 24.7563 193.416 24.4137 193.723 24.204C194.031 23.9803 194.387 23.8685 194.793 23.8685C195.198 23.8685 195.555 23.9803 195.862 24.204C196.17 24.4137 196.428 24.7563 196.638 25.2316L202.049 36.9965C202.314 37.5837 202.321 38.0731 202.07 38.4645C201.832 38.842 201.441 39.0308 200.895 39.0308C200.42 39.0308 200.049 38.9189 199.784 38.6952C199.532 38.4715 199.308 38.122 199.113 37.6467L198.232 35.6334H191.332L190.473 37.6467C190.263 38.136 190.039 38.4925 189.801 38.7162C189.564 38.9259 189.228 39.0308 188.795 39.0308ZM194.751 27.5175L192.423 33.0959H197.162L194.793 27.5175H194.751Z" fill="#F4FBFF"/>
<path d="M210.448 39.0308C209.916 39.0308 209.511 38.884 209.231 38.5904C208.952 38.2968 208.812 37.8773 208.812 37.3321V32.1731L204.534 26.0914C204.338 25.7978 204.254 25.4833 204.282 25.1477C204.31 24.7982 204.45 24.4976 204.702 24.246C204.953 23.9943 205.31 23.8685 205.771 23.8685C206.428 23.8685 206.994 24.218 207.47 24.917L210.49 29.2791L213.51 24.917C213.775 24.5396 214.034 24.2739 214.286 24.1201C214.551 23.9524 214.859 23.8685 215.208 23.8685C215.656 23.8685 215.998 23.9873 216.236 24.225C216.488 24.4487 216.62 24.7353 216.634 25.0848C216.662 25.4204 216.55 25.7699 216.299 26.1334L212.063 32.1941V37.3321C212.063 38.4645 211.524 39.0308 210.448 39.0308Z" fill="#F4FBFF"/>
<path fill-rule="evenodd" clip-rule="evenodd" d="M23.9639 0.982178C24.8925 0.982178 25.7141 1.43992 26.2156 2.14207C27.5515 2.44427 29.0393 3.07814 30.4291 3.92724C32.0138 4.89544 33.5886 6.21499 34.7253 7.81461C35.8676 9.42211 36.6228 11.3999 36.3517 13.5897C36.2333 14.546 35.9262 15.4871 35.4254 16.406L32.9647 13.6605C33.0055 13.4959 33.0347 13.3362 33.0538 13.1815C33.1955 12.0374 32.8252 10.8775 32.0165 9.73943C31.2022 8.5935 30.0007 7.55971 28.6966 6.76292C27.773 6.19864 26.8562 5.7886 26.0674 5.54188C26.006 5.61382 25.9409 5.68258 25.8725 5.74787C25.3762 6.22145 24.704 6.51225 23.9639 6.51225C22.4368 6.51225 21.1988 5.2743 21.1988 3.74722C21.1988 2.22013 22.4368 0.982178 23.9639 0.982178ZM32.9646 13.6609L25.8725 5.74787L32.9647 13.6605L32.9646 13.6609ZM35.4253 16.4063L32.9646 13.6609C32.7051 14.7064 31.9747 15.9465 30.3512 17.3104C29.5509 17.9827 28.7207 18.6443 27.8694 19.2962C27.2637 17.0513 26.4444 15.0045 24.7799 13.4072C22.6964 11.4077 19.5579 10.3453 14.7633 9.84392C14.2622 9.13909 13.4389 8.6793 12.5083 8.6793C10.9812 8.6793 9.74323 9.91724 9.74323 11.4443C9.74323 12.9714 10.9812 14.2094 12.5083 14.2094C13.3801 14.2094 14.1576 13.8059 14.6644 13.1755C19.0613 13.6615 21.2264 14.6027 22.4791 15.8048C23.7257 17.0011 24.3238 18.677 24.977 21.4263C22.8727 22.9241 20.7051 24.3728 18.5919 25.785L18.5919 25.7851L18.5885 25.7873C18.0393 26.1543 17.4939 26.5188 16.9542 26.8811C16.5522 24.8825 15.8553 23.1245 14.4387 21.8669C12.3713 20.0315 9.23766 19.6502 4.93384 20.0088C4.89302 20.0122 4.85266 20.0171 4.81281 20.0233C4.34576 19.6627 3.76015 19.4481 3.12441 19.4481C1.59732 19.4481 0.359375 20.6861 0.359375 22.2132C0.359375 23.7402 1.59732 24.9782 3.12441 24.9782C4.2716 24.9782 5.25562 24.2796 5.67421 23.2846C9.56524 23.0096 11.3158 23.5381 12.2326 24.3519C13.0913 25.1143 13.589 26.4353 13.923 28.946C10.6779 31.2063 7.80282 33.4313 6.10156 35.5989C3.58552 38.8047 3.59789 44.0094 6.16945 47.9299C8.85759 52.0281 14.192 54.6326 22.1183 53.1628C26.297 52.388 29.4953 50.0297 32.1516 47.1514C34.4081 44.7064 36.3683 41.7746 38.2264 38.9955L38.2284 38.9925L38.2321 38.9869C38.5337 38.5359 38.8325 38.089 39.1295 37.6489C41.5828 34.0128 43.8983 30.8797 46.6539 28.9345L58.7651 42.4475L58.7649 42.4477C58.7537 42.4653 58.7428 42.4829 58.7323 42.5007C56.4911 42.6081 54.707 44.4593 54.707 46.7271C54.707 49.064 56.6015 50.9585 58.9384 50.9585C61.2753 50.9585 63.1698 49.064 63.1698 46.7271C63.1698 45.5391 62.6802 44.4655 61.8918 43.6969C61.9343 43.624 61.9802 43.5444 62.0291 43.4584C62.3026 42.9772 62.6716 42.2924 63.061 41.4658C63.8313 39.8305 64.7196 37.5607 65.0651 35.1765C65.4091 32.8036 65.2441 30.0957 63.623 27.8311C61.9812 25.5376 59.1049 24.0552 54.8067 23.5981C50.5751 23.1481 47.2251 24.3732 44.4243 26.4459L39.8005 21.2872L48.5009 19.9155C48.9931 20.3675 49.6496 20.6434 50.3705 20.6434C51.8976 20.6434 53.1355 19.4054 53.1355 17.8783C53.1355 16.3512 51.8976 15.1133 50.3705 15.1133C49.2858 15.1133 48.3469 15.7379 47.894 16.6471L37.1586 18.3397L35.4254 16.406L35.4253 16.4063ZM35.4253 16.4063L37.1581 18.3397L33.5145 18.9142C34.3225 18.1014 34.9581 17.2635 35.4253 16.4063ZM46.6545 28.9341L46.6539 28.9345L44.4238 26.4463L44.4243 26.4459L46.6545 28.9341ZM46.6545 28.9341C48.8701 27.3703 51.3702 26.5744 54.4553 26.9025C58.1885 27.2995 60.0195 28.5061 60.9209 29.7654C61.8431 31.0537 62.0573 32.7626 61.7765 34.6998C61.4973 36.6257 60.7569 38.5592 60.0548 40.0497C59.7079 40.786 59.3797 41.3947 59.1401 41.8163C59.0205 42.0268 58.9235 42.1896 58.858 42.2973L58.8238 42.3534L58.8023 42.388L58.7847 42.4164L58.768 42.4429L58.7657 42.4465L46.6545 28.9341ZM44.4238 26.4463C41.1749 28.8509 38.6649 32.3961 36.3748 35.7902C36.0609 36.2555 35.7504 36.7195 35.4419 37.1804C33.5725 39.9739 31.7749 42.6598 29.7096 44.8977C27.3347 47.471 24.7372 49.2975 21.5125 49.8955C14.6321 51.1713 10.7621 48.873 8.94809 46.1073C7.01745 43.1639 7.22979 39.5437 8.71562 37.6506C10.1703 35.7972 12.8228 33.7512 16.1657 31.4361C16.5147 31.3348 16.8122 31.1239 17.0233 30.8464C17.5637 30.4772 18.1199 30.1013 18.69 29.7183C19.2574 29.3371 19.8363 28.9504 20.4233 28.5582L20.4242 28.5576L20.4242 28.5576C22.9954 26.8398 25.7242 25.0167 28.3422 23.0938L39.7999 21.2873L44.4238 26.4463Z" fill="#F4FBFF"/>
</svg>
