<svg width="371" height="320" viewBox="0 0 371 320" fill="none" xmlns="http://www.w3.org/2000/svg">
<path d="M236.631 317.549C202.86 305.316 207.516 270.509 216.359 260.504C225.842 324.692 281.599 299.522 281.599 299.522C281.599 299.522 268.423 325.608 236.631 317.549Z" fill="#093954"/>
<path d="M146.782 173.176C96.0074 152.187 103.068 99.8384 116.578 84.552C131.067 182.621 216.612 150.293 216.612 150.293C216.612 150.293 192.196 188.179 146.782 173.176Z" fill="#093954"/>
<circle cx="168.905" cy="113.402" r="60.3016" transform="rotate(-10.1789 168.905 113.402)" fill="url(#paint0_linear_3010_7321)"/>
<path d="M146.79 140.5C145.22 140.782 143.944 140.563 142.962 139.844C141.979 139.124 141.347 137.98 141.065 136.41L134.8 101.516C134.207 98.2108 135.522 96.2688 138.744 95.6901C141.926 95.1189 143.813 96.486 144.407 99.7915L150.672 134.685C151.265 137.99 149.971 139.929 146.79 140.5Z" fill="#F4FBFF"/>
<path d="M199.129 131.102C197.559 131.384 196.283 131.166 195.3 130.446C194.318 129.727 193.686 128.582 193.404 127.012L187.139 92.1188C186.546 88.8134 187.86 86.8713 191.083 86.2927C194.265 85.7214 196.152 87.0886 196.746 90.394L203.011 125.287C203.604 128.593 202.31 130.531 199.129 131.102Z" fill="#F4FBFF"/>
<path fill-rule="evenodd" clip-rule="evenodd" d="M154.549 100.734C155.413 98.805 157.676 97.9415 159.604 98.8048L182.525 109.065C183.702 109.592 184.534 110.677 184.739 111.951C184.944 113.224 184.493 114.515 183.54 115.384L165.428 131.904C163.866 133.328 161.447 133.217 160.023 131.656C158.599 130.095 158.71 127.675 160.271 126.251L174.07 113.664L156.478 105.789C154.549 104.926 153.686 102.662 154.549 100.734Z" fill="#F4FBFF"/>
<path d="M102.659 274.818C69.4992 302.73 35.2332 275.757 30.1123 260.479C102.915 289.297 110.252 215.841 110.252 215.841C110.252 215.841 130.263 246.456 102.659 274.818Z" fill="#093954"/>
<circle cx="69.4686" cy="237.186" r="46.1628" transform="rotate(-3.80558 69.4686 237.186)" fill="url(#paint1_linear_3010_7321)"/>
<path d="M52.6212 239.536L52.6212 239.536C52.7947 240.733 53.9058 241.563 55.1028 241.39C56.2995 241.216 57.129 240.106 56.9562 238.909L56.9554 238.903L56.9552 238.902L56.9497 238.861C56.9496 238.861 56.9496 238.861 56.9496 238.86C56.9444 238.821 56.9364 238.759 56.9265 238.676C56.9065 238.509 56.8787 238.256 56.8496 237.932C56.7912 237.282 56.728 236.349 56.7113 235.234C56.6777 232.986 56.8351 230.088 57.554 227.322C58.2765 224.542 59.5125 222.096 61.4831 220.488C63.376 218.943 66.2248 217.944 70.6955 218.54C76.282 219.815 79.3296 223.07 80.7553 226.67C82.2328 230.401 81.9898 234.575 80.7732 237.452C80.1272 238.98 78.8707 240.222 77.1354 241.227C75.3943 242.235 73.291 242.931 71.1881 243.401C69.098 243.868 67.0957 244.091 65.6082 244.197C65.4549 244.208 65.3073 244.217 65.1661 244.226L66.8372 231.815C66.9986 230.616 66.1577 229.514 64.9589 229.352C63.7602 229.191 62.6576 230.032 62.4962 231.231L58.9401 257.641C58.7787 258.839 59.6196 259.942 60.8183 260.103C62.017 260.265 63.1196 259.424 63.2811 258.225L64.5716 248.641C64.9561 248.626 65.4096 248.602 65.9185 248.566C67.5495 248.45 69.7791 248.204 72.1427 247.676C74.4935 247.151 77.0656 246.328 79.3301 245.017C81.6001 243.703 83.6793 241.826 84.8075 239.158C86.4629 235.243 86.7366 229.878 84.8278 225.058C82.8747 220.125 78.658 215.83 71.5619 214.245C71.5026 214.232 71.4427 214.221 71.3825 214.212C65.9029 213.459 61.7389 214.625 58.7134 217.094C55.7529 219.511 54.1654 222.947 53.3147 226.22C52.4603 229.508 52.2948 232.836 52.3317 235.3C52.3502 236.541 52.4206 237.585 52.487 238.324C52.5202 238.694 52.5526 238.989 52.5772 239.195C52.5895 239.298 52.5999 239.379 52.6075 239.437L52.6076 239.437L52.6166 239.504L52.6168 239.505L52.6195 239.525L52.6196 239.525L52.6205 239.532L52.6206 239.532L52.6209 239.534L52.6209 239.535L52.6212 239.536Z" fill="#F4FBFF" stroke="#F4FBFF" stroke-width="0.5" stroke-linecap="round"/>
<circle cx="71.1492" cy="257.216" r="2.92973" transform="rotate(-3.80558 71.1492 257.216)" fill="#F4FBFF"/>
<g clip-path="url(#clip0_3010_7321)">
<path d="M351.17 81.4274L340.715 89.25C340.017 89.7725 339.549 90.5639 339.423 91.4382L337.049 107.918C336.788 109.733 338.059 111.431 339.873 111.693L354.72 113.831C356.04 114.021 357.342 113.401 358.043 112.272L365.229 100.493C367.085 97.4266 365.216 93.4528 361.669 92.9419L352.349 91.5994L355.004 84.2698C355.288 83.4687 355.162 82.5917 354.654 81.9123C353.818 80.8153 352.267 80.592 351.17 81.4274ZM329.976 110.267C331.79 110.528 333.489 109.257 333.75 107.443L335.651 94.2457C335.912 92.4311 334.642 90.7326 332.827 90.4712C331.012 90.2098 329.314 91.4807 329.052 93.2953L327.151 106.492C326.89 108.307 328.161 110.006 329.976 110.267Z" fill="#8CFF00"/>
</g>
<g clip-path="url(#clip1_3010_7321)">
<path d="M122.018 4.72873L117.685 10.4564C117.396 10.8389 117.27 11.3284 117.336 11.8096L118.594 20.8804C118.732 21.8791 119.663 22.583 120.662 22.4446L128.833 21.3116C129.56 21.2109 130.153 20.6844 130.352 19.9813L132.354 12.6611C132.867 10.7576 131.274 8.94258 129.322 9.21323L124.192 9.9245L124.478 5.64635C124.505 5.17977 124.305 4.73558 123.933 4.45403C123.324 4.00167 122.471 4.12001 122.018 4.72873ZM115.214 23.1999C116.213 23.0614 116.916 22.1309 116.778 21.1321L115.771 13.8683C115.632 12.8695 114.702 12.1656 113.703 12.3041C112.704 12.4426 112 13.3731 112.139 14.3718L113.146 21.6357C113.285 22.6345 114.215 23.3384 115.214 23.1999Z" fill="#F4FBFF"/>
</g>
<circle cx="250.152" cy="277.782" r="38.4246" fill="url(#paint2_linear_3010_7321)"/>
<path d="M271.398 263.494C270.415 262.621 269.323 261.966 268.013 261.748C266.375 261.529 264.736 262.621 263.645 263.385C262.554 264.149 260.369 266.115 259.496 266.879C258.624 267.643 256.439 268.08 252.836 270.263C249.232 272.447 235.256 281.399 235.256 281.399H238.859L222.59 289.806H224.228L221.935 291.553C223.246 291.88 224.556 291.662 225.757 291.007V291.553C225.757 291.553 245.083 283.91 248.796 285.876L246.503 286.531C246.721 286.531 250.324 286.749 250.324 286.749C250.543 288.278 251.416 289.697 252.727 290.461C254.91 291.88 255.019 292.754 255.019 292.754C255.019 292.754 253.928 293.19 253.928 293.845C256.002 293.19 258.186 293.19 260.151 293.845C260.151 293.845 260.042 293.19 258.513 292.754C256.985 292.099 255.675 291.116 254.692 289.697C253.818 288.496 253.491 286.967 254.037 285.548C254.582 284.129 256.439 283.365 260.261 281.399C264.737 279.107 265.829 277.36 266.375 275.941C266.921 274.521 268.013 271.901 268.45 270.591C268.887 269.39 269.651 268.408 270.634 267.534C271.835 266.879 273.145 266.333 274.346 265.896C274.564 266.006 272.162 264.04 271.398 263.494Z" fill="#F4FBFF"/>
<path d="M31.1765 12.4979C26.9107 10.4203 22.3012 12.3551 20.1578 15.7601C17.1292 13.1115 12.1565 12.563 8.66642 15.7898C6.81565 17.5012 5.87074 20.0706 6.15002 22.596C6.77804 28.3271 12.5008 32.1575 21.2397 38.0381L21.406 38.1488C22.671 38.9994 24.3901 38.748 25.3563 37.5561L25.4965 37.3856C32.1876 29.2635 36.5592 23.9568 35.5344 18.2838C35.081 15.7988 33.4399 13.6076 31.1765 12.4979ZM23.197 35.5157L23.0716 35.6842L22.9032 35.5587C14.983 30.2487 9.75695 26.7359 9.13595 22.4895C8.7062 19.5509 10.5879 17.0245 13.5265 16.5948C15.7893 16.2639 18.206 17.3962 19.2791 19.2953L22.0268 18.8935C22.4964 16.7688 24.4877 14.9918 26.7505 14.6609C29.6891 14.2311 32.2154 16.1128 32.6452 19.0515C33.2662 23.2978 29.2649 28.1601 23.197 35.5157Z" fill="#F4FBFF"/>
<path d="M274.296 25.4007C269.146 21.1973 262.238 22.3554 258.221 26.3106C254.941 21.7257 248.336 19.3807 242.54 22.6603C239.466 24.3998 237.352 27.6004 236.922 31.1342C235.938 39.1519 242.512 46.2138 252.541 57.0404L252.732 57.2448C254.184 58.811 256.61 59.0203 258.31 57.7053L258.556 57.5176C270.29 48.59 277.956 42.757 278.381 34.691C278.561 31.1565 277.026 27.641 274.296 25.4007ZM256.021 54.2291L255.796 54.4185L255.606 54.1933C246.51 44.4079 240.511 37.9386 241.028 31.948C241.386 27.8023 244.764 24.9614 248.909 25.3191C252.102 25.5946 255.034 27.915 255.887 30.8496L259.764 31.1841C261.086 28.4373 264.373 26.6535 267.565 26.929C271.711 27.2867 274.552 30.6643 274.194 34.81C273.677 40.8006 266.658 46.1465 256.021 54.2291Z" fill="#F4FBFF"/>
<path d="M49.0714 124.789C48.4133 125.273 47.4869 125.178 46.9423 124.562L46.8633 124.473C43.0943 120.283 40.6324 117.541 41.0523 114.479C41.2387 113.138 42.0607 111.918 43.2556 111.273C45.493 110.064 48.0058 110.995 49.2311 112.77C50.793 111.283 53.4437 110.876 55.3863 112.525C56.4243 113.4 56.9801 114.762 56.8887 116.113C56.6826 119.196 53.7047 121.378 49.158 124.726L49.0714 124.789Z" fill="#8CFF00"/>
<path d="M268.617 158.538C267.958 159.023 267.032 158.927 266.487 158.311L266.408 158.222C262.639 154.032 260.178 151.29 260.597 148.228C260.784 146.887 261.606 145.667 262.801 145.022C265.038 143.813 267.551 144.744 268.776 146.519C270.338 145.032 272.989 144.625 274.931 146.274C275.969 147.149 276.525 148.511 276.434 149.862C276.228 152.945 273.25 155.127 268.703 158.475L268.617 158.538Z" fill="#F4FBFF"/>
<path d="M175.005 251.111C174.554 251.443 173.92 251.377 173.547 250.955L173.493 250.895C170.914 248.027 169.228 246.149 169.516 244.054C169.643 243.136 170.206 242.301 171.024 241.859C172.555 241.031 174.275 241.669 175.114 242.884C176.183 241.866 177.998 241.587 179.327 242.716C180.038 243.315 180.418 244.247 180.356 245.172C180.215 247.283 178.176 248.776 175.064 251.068L175.005 251.111Z" fill="#F4FBFF"/>
<defs>
<linearGradient id="paint0_linear_3010_7321" x1="169.838" y1="76.9623" x2="168.905" y2="173.704" gradientUnits="userSpaceOnUse">
<stop stop-color="#054D73"/>
<stop offset="1" stop-color="#30753D"/>
</linearGradient>
<linearGradient id="paint1_linear_3010_7321" x1="70.183" y1="209.29" x2="69.4686" y2="283.349" gradientUnits="userSpaceOnUse">
<stop stop-color="#054D73"/>
<stop offset="1" stop-color="#30753D"/>
</linearGradient>
<linearGradient id="paint2_linear_3010_7321" x1="250.747" y1="254.563" x2="250.152" y2="316.207" gradientUnits="userSpaceOnUse">
<stop stop-color="#054D73"/>
<stop offset="1" stop-color="#30753D"/>
</linearGradient>
<clipPath id="clip0_3010_7321">
<rect width="40" height="40" fill="white" transform="translate(330.463 73.811) rotate(8.19673)"/>
</clipPath>
<clipPath id="clip1_3010_7321">
<rect width="22" height="22" fill="white" transform="translate(109.914 3.86035) rotate(-7.89347)"/>
</clipPath>
</defs>
</svg>
