<svg width="442" height="337" viewBox="0 0 442 337" fill="none" xmlns="http://www.w3.org/2000/svg">
<path opacity="0.5" d="M298.558 56.135H126.716L110.684 131.783H282.681L298.558 56.135Z" fill="white"/>
<path opacity="0.5" d="M298.249 205.562H127.186L111.465 273.738H284.396L298.249 205.562Z" fill="white"/>
<path opacity="0.3" d="M282.684 131.781H111.465L127.186 205.561H298.249L282.684 131.781Z" fill="white"/>
<g opacity="0.5" filter="url(#filter0_bf_3010_7128)">
<path fill-rule="evenodd" clip-rule="evenodd" d="M298.558 56.135H126.716L110.684 131.783H111.465L127.186 205.561H298.249L282.684 131.781H282.681L298.558 56.135ZM298.249 205.562H127.186L111.465 273.738H284.396L298.249 205.562Z" fill="url(#paint0_linear_3010_7128)"/>
<path d="M126.716 56.135L126.577 56.1055L126.601 55.9928H126.716V56.135ZM298.558 56.135V55.9928H298.733L298.697 56.1642L298.558 56.135ZM110.684 131.783V131.925H110.508L110.545 131.753L110.684 131.783ZM111.465 131.783V131.64H111.58L111.604 131.753L111.465 131.783ZM127.186 205.561V205.703H127.071L127.047 205.59L127.186 205.561ZM298.249 205.561L298.388 205.531L298.424 205.703H298.249V205.561ZM282.684 131.781V131.639H282.799L282.823 131.752L282.684 131.781ZM282.681 131.781V131.923H282.506L282.542 131.752L282.681 131.781ZM127.186 205.562L127.047 205.53L127.073 205.419H127.186V205.562ZM298.249 205.562V205.419H298.423L298.388 205.59L298.249 205.562ZM111.465 273.738V273.88H111.286L111.326 273.706L111.465 273.738ZM284.396 273.738L284.535 273.766L284.512 273.88H284.396V273.738ZM126.716 55.9928H298.558V56.2772H126.716V55.9928ZM110.545 131.753L126.577 56.1055L126.855 56.1645L110.823 131.812L110.545 131.753ZM111.465 131.925H110.684V131.64H111.465V131.925ZM111.604 131.753L127.325 205.531L127.047 205.59L111.326 131.812L111.604 131.753ZM127.186 205.419H298.249V205.703H127.186V205.419ZM298.11 205.59L282.544 131.81L282.823 131.752L298.388 205.531L298.11 205.59ZM282.684 131.923H282.681V131.639H282.684V131.923ZM298.697 56.1642L282.82 131.81L282.542 131.752L298.418 56.1058L298.697 56.1642ZM127.186 205.419H298.249V205.704H127.186V205.419ZM111.326 273.706L127.047 205.53L127.324 205.594L111.603 273.77L111.326 273.706ZM284.396 273.88H111.465V273.596H284.396V273.88ZM298.388 205.59L284.535 273.766L284.256 273.71L298.11 205.533L298.388 205.59Z" fill="#8CFF00"/>
</g>
<g filter="url(#filter1_f_3010_7128)">
<path d="M289.122 63.2744C287.625 66.2891 285.187 68.7344 282.177 70.241C279.167 71.7476 275.749 72.2335 272.438 71.6253C269.128 71.0171 266.105 69.3478 263.827 66.8698C261.549 64.3917 260.14 61.2396 259.812 57.8896C259.484 54.5397 260.255 51.1741 262.009 48.3013C263.764 45.4286 266.405 43.2049 269.535 41.9663C272.665 40.7277 276.113 40.5414 279.357 41.4357C282.602 42.33 285.468 44.2562 287.522 46.9233L284.81 49.0113C283.21 46.9331 280.977 45.4322 278.448 44.7354C275.92 44.0385 273.233 44.1836 270.794 45.1488C268.356 46.1139 266.297 47.8466 264.931 50.085C263.564 52.3235 262.963 54.9459 263.218 57.5562C263.474 60.1664 264.572 62.6226 266.347 64.5535C268.122 66.4844 270.477 67.7851 273.057 68.259C275.636 68.7329 278.3 68.3543 280.645 67.1803C282.991 66.0064 284.89 64.101 286.057 61.752L289.122 63.2744Z" fill="url(#paint1_linear_3010_7128)"/>
</g>
<g filter="url(#filter2_f_3010_7128)">
<path d="M293.332 33.1202C298.878 37.4365 302.699 43.5928 304.106 50.4785C305.513 57.3642 304.412 64.5259 301.003 70.6716C297.594 76.8174 292.101 81.5425 285.515 83.9946C278.929 86.4467 271.683 86.4644 265.085 84.0443C258.487 81.6243 252.971 76.9259 249.532 70.7968C246.093 64.6677 244.958 57.5114 246.331 50.619C247.704 43.7265 251.495 37.5517 257.02 33.2085C262.546 28.8653 269.441 26.6396 276.463 26.933L276.216 32.8433C270.604 32.6088 265.092 34.3877 260.676 37.8591C256.26 41.3305 253.23 46.2658 252.132 51.7748C251.035 57.2837 251.942 63.0035 254.691 67.9023C257.439 72.8011 261.848 76.5564 267.122 78.4906C272.395 80.4249 278.187 80.4108 283.451 78.4509C288.715 76.491 293.106 72.7144 295.83 67.8023C298.555 62.8901 299.434 57.166 298.31 51.6625C297.186 46.159 294.132 41.2384 289.699 37.7885L293.332 33.1202Z" fill="url(#paint2_linear_3010_7128)"/>
<path d="M293.332 33.1202C298.878 37.4365 302.699 43.5928 304.106 50.4785C305.513 57.3642 304.412 64.5259 301.003 70.6716C297.594 76.8174 292.101 81.5425 285.515 83.9946C278.929 86.4467 271.683 86.4644 265.085 84.0443C258.487 81.6243 252.971 76.9259 249.532 70.7968C246.093 64.6677 244.958 57.5114 246.331 50.619C247.704 43.7265 251.495 37.5517 257.02 33.2085C262.546 28.8653 269.441 26.6396 276.463 26.933L276.216 32.8433C270.604 32.6088 265.092 34.3877 260.676 37.8591C256.26 41.3305 253.23 46.2658 252.132 51.7748C251.035 57.2837 251.942 63.0035 254.691 67.9023C257.439 72.8011 261.848 76.5564 267.122 78.4906C272.395 80.4249 278.187 80.4108 283.451 78.4509C288.715 76.491 293.106 72.7144 295.83 67.8023C298.555 62.8901 299.434 57.166 298.31 51.6625C297.186 46.159 294.132 41.2384 289.699 37.7885L293.332 33.1202Z" fill="white" fill-opacity="0.2"/>
</g>
<g filter="url(#filter3_f_3010_7128)">
<path d="M261.488 17.9051C269.842 14.9205 278.941 14.7363 287.409 17.3803C295.877 20.0243 303.255 25.3528 308.427 32.5606C313.598 39.7684 316.283 48.4637 316.076 57.3326C315.869 66.2015 312.78 74.7619 307.277 81.7201C301.775 88.6784 294.156 93.6564 285.574 95.9019C276.991 98.1473 267.911 97.5382 259.706 94.1665C251.5 90.7949 244.615 84.8439 240.091 77.213C235.567 69.5821 233.649 60.6858 234.628 51.8688L242.078 52.6961C241.279 59.8954 242.845 67.1594 246.539 73.3902C250.233 79.621 255.855 84.4801 262.555 87.2331C269.255 89.9861 276.669 90.4835 283.676 88.65C290.684 86.8166 296.905 82.7519 301.398 77.0704C305.891 71.3888 308.413 64.399 308.582 57.1574C308.752 49.9158 306.559 42.8159 302.336 36.9306C298.113 31.0453 292.09 26.6944 285.175 24.5355C278.261 22.3767 270.831 22.5271 264.01 24.9641L261.488 17.9051Z" fill="url(#paint3_linear_3010_7128)"/>
<path d="M261.488 17.9051C269.842 14.9205 278.941 14.7363 287.409 17.3803C295.877 20.0243 303.255 25.3528 308.427 32.5606C313.598 39.7684 316.283 48.4637 316.076 57.3326C315.869 66.2015 312.78 74.7619 307.277 81.7201C301.775 88.6784 294.156 93.6564 285.574 95.9019C276.991 98.1473 267.911 97.5382 259.706 94.1665C251.5 90.7949 244.615 84.8439 240.091 77.213C235.567 69.5821 233.649 60.6858 234.628 51.8688L242.078 52.6961C241.279 59.8954 242.845 67.1594 246.539 73.3902C250.233 79.621 255.855 84.4801 262.555 87.2331C269.255 89.9861 276.669 90.4835 283.676 88.65C290.684 86.8166 296.905 82.7519 301.398 77.0704C305.891 71.3888 308.413 64.399 308.582 57.1574C308.752 49.9158 306.559 42.8159 302.336 36.9306C298.113 31.0453 292.09 26.6944 285.175 24.5355C278.261 22.3767 270.831 22.5271 264.01 24.9641L261.488 17.9051Z" fill="white" fill-opacity="0.2"/>
</g>
<g filter="url(#filter4_f_3010_7128)">
<circle cx="283.491" cy="32.1476" r="2.07011" transform="rotate(-22.7554 283.491 32.1476)" fill="url(#paint4_linear_3010_7128)"/>
</g>
<g filter="url(#filter5_f_3010_7128)">
<path d="M207.627 176.828L198.753 164.782C198.452 164.373 197.838 164.38 197.547 164.796L183.224 185.271C182.882 185.76 183.227 186.432 183.824 186.439L221.947 186.858C222.548 186.864 222.907 186.192 222.568 185.696L214.663 174.143C214.44 173.817 214 173.723 213.663 173.929L208.613 177.021C208.284 177.222 207.856 177.138 207.627 176.828Z" fill="url(#paint5_linear_3010_7128)"/>
</g>
<path d="M222.887 149.7L187.281 148.595C184.411 148.506 182.006 150.721 181.919 153.538L180.924 185.618C180.837 188.432 183.1 190.789 185.97 190.878L221.576 191.982C224.446 192.071 226.848 189.859 226.935 187.045L227.93 154.965C228.018 152.148 225.757 149.789 222.887 149.7ZM211.595 156.947C214.371 157.034 216.553 159.31 216.469 162.031C216.384 164.752 214.065 166.888 211.289 166.802C208.513 166.716 206.331 164.44 206.416 161.719C206.5 158.998 208.819 156.861 211.595 156.947ZM220.09 187.216L203.917 186.714L188.465 186.235C187.077 186.192 186.489 185.188 187.153 183.993L196.298 167.511C196.961 166.315 198.156 166.244 198.966 167.351L207.295 178.732C208.105 179.839 209.577 179.977 210.583 179.039L212.77 176.998C213.775 176.06 215.208 176.225 215.97 177.364L221.226 185.228C221.985 186.369 221.478 187.259 220.09 187.216Z" fill="url(#paint6_linear_3010_7128)"/>
<g filter="url(#filter6_f_3010_7128)">
<path d="M190.113 157.75C191.406 158.221 191.703 159.915 190.649 160.798L174.658 174.198C173.604 175.082 171.988 174.493 171.75 173.138L168.141 152.589C167.903 151.234 169.221 150.13 170.513 150.601L190.113 157.75Z" fill="url(#paint7_radial_3010_7128)"/>
<path d="M190.113 157.75C191.406 158.221 191.703 159.915 190.649 160.798L174.658 174.198C173.604 175.082 171.988 174.493 171.75 173.138L168.141 152.589C167.903 151.234 169.221 150.13 170.513 150.601L190.113 157.75Z" stroke="#8CFF00" stroke-width="0.44676"/>
</g>
<path d="M190.468 157.879C191.603 158.293 191.864 159.78 190.938 160.556L174.369 174.44C173.443 175.216 172.024 174.699 171.815 173.509L168.076 152.218C167.867 151.028 169.024 150.058 170.159 150.472L190.468 157.879Z" fill="url(#paint8_radial_3010_7128)"/>
<path d="M190.468 157.879C191.603 158.293 191.864 159.78 190.938 160.556L174.369 174.44C173.443 175.216 172.024 174.699 171.815 173.509L168.076 152.218C167.867 151.028 169.024 150.058 170.159 150.472L190.468 157.879Z" fill="url(#paint9_radial_3010_7128)"/>
<path d="M190.468 157.879C191.603 158.293 191.864 159.78 190.938 160.556L174.369 174.44C173.443 175.216 172.024 174.699 171.815 173.509L168.076 152.218C167.867 151.028 169.024 150.058 170.159 150.472L190.468 157.879Z" stroke="#F4FBFF" stroke-width="0.0893521"/>
<path opacity="0.5" d="M439.994 90.9044C439.949 97.7834 433.986 104.467 422.825 110.628C411.706 116.765 395.606 122.279 375.682 126.887C335.842 136.102 280.825 141.665 220.08 141.385C159.334 141.105 104.394 135.034 64.6772 125.452C44.815 120.661 28.788 114.998 17.7503 108.759C6.67073 102.496 0.796711 95.757 0.841916 88.8781C0.88712 81.9991 6.84935 75.315 18.0105 69.1548C29.1295 63.0179 45.2301 57.5031 65.1541 52.895C104.994 43.6808 160.011 38.117 220.756 38.3973C281.502 38.6776 336.442 44.7487 376.159 54.3301C396.021 59.1217 412.048 64.7848 423.086 71.0239C434.165 77.2867 440.039 84.0254 439.994 90.9044Z" stroke="url(#paint10_linear_3010_7128)"/>
<path opacity="0.5" d="M440.678 176.072C440.632 182.951 434.67 189.635 423.509 195.796C412.39 201.932 396.289 207.447 376.365 212.055C336.525 221.27 281.509 226.833 220.763 226.553C160.018 226.273 105.077 220.202 65.3608 210.62C45.4986 205.829 29.4716 200.166 18.4339 193.927C7.35433 187.664 1.4803 180.925 1.52551 174.046C1.57071 167.167 7.53294 160.483 18.6941 154.323C29.8131 148.186 45.9137 142.671 65.8376 138.063C105.678 128.849 160.695 123.285 221.44 123.565C282.185 123.846 337.126 129.917 376.842 139.498C396.704 144.29 412.731 149.953 423.769 156.192C434.849 162.455 440.723 169.193 440.678 176.072Z" stroke="url(#paint11_linear_3010_7128)"/>
<path opacity="0.5" d="M439.994 257.633C439.949 264.512 433.986 271.196 422.825 277.356C411.706 283.493 395.606 289.008 375.682 293.616C335.842 302.83 280.825 308.394 220.08 308.114C159.334 307.833 104.394 301.762 64.6772 292.181C44.815 287.389 28.788 281.726 17.7503 275.487C6.67073 269.224 0.796711 262.486 0.841916 255.607C0.88712 248.728 6.84935 242.044 18.0105 235.883C29.1295 229.746 45.2301 224.232 65.1541 219.624C104.994 210.409 160.011 204.846 220.756 205.126C281.502 205.406 336.442 211.477 376.159 221.059C396.021 225.85 412.048 231.513 423.086 237.752C434.165 244.015 440.039 250.754 439.994 257.633Z" stroke="url(#paint12_linear_3010_7128)"/>
<g filter="url(#filter7_d_3010_7128)">
<path d="M307.651 288.079C309.937 287.517 310.587 284.577 308.75 283.104L258.591 242.876C256.741 241.392 253.995 242.694 253.973 245.066L253.386 309.361C253.364 311.716 256.052 313.073 257.934 311.658L272.428 300.759C273.865 299.678 275.932 300.187 276.702 301.812L287.241 324.033C287.913 325.451 289.608 326.055 291.025 325.383L297.343 322.386C298.761 321.714 299.365 320.02 298.692 318.602L288.154 296.382C287.384 294.757 288.297 292.834 290.043 292.405L307.651 288.079Z" fill="url(#paint13_radial_3010_7128)"/>
<path d="M307.651 288.079C309.937 287.517 310.587 284.577 308.75 283.104L258.591 242.876C256.741 241.392 253.995 242.694 253.973 245.066L253.386 309.361C253.364 311.716 256.052 313.073 257.934 311.658L272.428 300.759C273.865 299.678 275.932 300.187 276.702 301.812L287.241 324.033C287.913 325.451 289.608 326.055 291.025 325.383L297.343 322.386C298.761 321.714 299.365 320.02 298.692 318.602L288.154 296.382C287.384 294.757 288.297 292.834 290.043 292.405L307.651 288.079Z" stroke="#F4FBFF" stroke-width="0.49017"/>
</g>
<path fill-rule="evenodd" clip-rule="evenodd" d="M140.515 246.493L148.798 245.795C148.551 243.423 148.155 239.865 147.982 239.538C147.731 239.062 147.386 238.639 146.967 238.294C146.547 237.949 146.062 237.688 145.539 237.526C145.015 237.364 144.464 237.304 143.916 237.351C143.368 237.397 142.834 237.548 142.345 237.795C141.856 238.042 141.421 238.381 141.065 238.791C140.71 239.202 140.44 239.676 140.272 240.187C140.157 240.539 140.361 244.113 140.515 246.493ZM152.261 245.503L153.827 245.371C154.928 245.279 155.896 246.096 155.988 247.196L157.316 262.955C157.409 264.055 156.592 265.023 155.491 265.116L137.151 266.661C136.05 266.754 135.083 265.936 134.99 264.836L133.662 249.078C133.57 247.977 134.387 247.009 135.487 246.917L137.052 246.785C136.905 244.104 136.727 239.838 136.95 239.16C137.258 238.223 137.752 237.353 138.404 236.6C139.057 235.848 139.854 235.227 140.75 234.774C141.647 234.321 142.625 234.044 143.63 233.959C144.634 233.875 145.646 233.984 146.605 234.281C147.565 234.577 148.455 235.056 149.223 235.689C149.992 236.322 150.625 237.097 151.086 237.969C151.419 238.6 151.957 242.836 152.261 245.503ZM146.888 255.898C146.951 256.644 146.375 257.302 145.603 257.367C144.83 257.432 144.152 256.88 144.089 256.134C144.026 255.388 144.602 254.73 145.375 254.665C146.148 254.6 146.825 255.152 146.888 255.898Z" fill="url(#paint14_linear_3010_7128)"/>
<g filter="url(#filter8_d_3010_7128)">
<circle cx="38.4388" cy="111.439" r="20.344" fill="#052233"/>
<circle cx="38.4388" cy="111.439" r="20.344" fill="url(#paint15_linear_3010_7128)" fill-opacity="0.8"/>
<circle cx="38.4388" cy="111.439" r="20.344" stroke="#8CFF00"/>
</g>
<path d="M44.8433 108.16C44.3723 108.368 43.8664 108.509 43.3345 108.573C43.8833 108.245 44.2939 107.728 44.4896 107.119C43.974 107.425 43.4097 107.641 42.8212 107.756C42.4255 107.334 41.9013 107.054 41.33 106.96C40.7588 106.865 40.1725 106.963 39.6621 107.236C39.1517 107.509 38.7459 107.943 38.5075 108.471C38.2691 108.998 38.2116 109.59 38.3438 110.153C37.299 110.101 36.277 109.829 35.3439 109.356C34.4109 108.883 33.5877 108.219 32.9279 107.408C32.7023 107.797 32.5725 108.248 32.5725 108.729C32.5723 109.161 32.6788 109.587 32.8827 109.969C33.0866 110.35 33.3815 110.676 33.7412 110.916C33.324 110.903 32.916 110.79 32.5511 110.587V110.621C32.5511 111.228 32.7609 111.816 33.1451 112.286C33.5293 112.755 34.0642 113.077 34.6589 113.198C34.2719 113.302 33.8661 113.318 33.4722 113.243C33.64 113.765 33.9668 114.221 34.407 114.548C34.8472 114.876 35.3786 115.057 35.9269 115.067C34.9961 115.797 33.8466 116.194 32.6633 116.192C32.4537 116.192 32.2443 116.18 32.0361 116.155C33.2372 116.928 34.6354 117.338 36.0634 117.336C40.8972 117.336 43.5398 113.332 43.5398 109.86C43.5398 109.747 43.537 109.633 43.5319 109.521C44.0459 109.149 44.4896 108.689 44.8422 108.161L44.8433 108.16V108.16Z" fill="#8CFF00"/>
<g filter="url(#filter9_d_3010_7128)">
<circle cx="358.975" cy="216.019" r="16.9998" fill="#052233"/>
<circle cx="358.975" cy="216.019" r="16.9998" fill="url(#paint16_linear_3010_7128)" fill-opacity="0.8"/>
<circle cx="358.975" cy="216.019" r="16.9998" stroke="#8CFF00"/>
</g>
<path fill-rule="evenodd" clip-rule="evenodd" d="M358.976 210.524C355.863 210.524 353.342 213.046 353.342 216.158C353.342 218.651 354.954 220.757 357.194 221.503C357.476 221.552 357.581 221.383 357.581 221.236C357.581 221.102 357.574 220.658 357.574 220.186C356.159 220.447 355.792 219.841 355.68 219.524C355.616 219.362 355.342 218.862 355.102 218.729C354.905 218.623 354.623 218.362 355.095 218.355C355.539 218.348 355.856 218.764 355.961 218.933C356.469 219.785 357.278 219.545 357.602 219.398C357.652 219.031 357.799 218.785 357.961 218.644C356.708 218.503 355.398 218.017 355.398 215.862C355.398 215.25 355.616 214.743 355.976 214.348C355.919 214.207 355.722 213.63 356.032 212.855C356.032 212.855 356.504 212.707 357.581 213.433C358.032 213.306 358.511 213.243 358.99 213.243C359.468 213.243 359.947 213.306 360.398 213.433C361.476 212.7 361.947 212.855 361.947 212.855C362.257 213.63 362.06 214.207 362.004 214.348C362.363 214.743 362.581 215.243 362.581 215.862C362.581 218.024 361.264 218.503 360.011 218.644C360.215 218.82 360.391 219.158 360.391 219.686C360.391 220.44 360.384 221.045 360.384 221.236C360.384 221.383 360.49 221.56 360.771 221.503C361.89 221.126 362.862 220.407 363.55 219.448C364.238 218.489 364.609 217.339 364.609 216.158C364.609 213.046 362.088 210.524 358.976 210.524Z" fill="#8CFF00"/>
<defs>
<filter id="filter0_bf_3010_7128" x="105.277" y="50.7615" width="198.686" height="228.35" filterUnits="userSpaceOnUse" color-interpolation-filters="sRGB">
<feFlood flood-opacity="0" result="BackgroundImageFix"/>
<feGaussianBlur in="BackgroundImageFix" stdDeviation="2.61569"/>
<feComposite in2="SourceAlpha" operator="in" result="effect1_backgroundBlur_3010_7128"/>
<feBlend mode="normal" in="SourceGraphic" in2="effect1_backgroundBlur_3010_7128" result="shape"/>
<feGaussianBlur stdDeviation="0.568709" result="effect2_foregroundBlur_3010_7128"/>
</filter>
<filter id="filter1_f_3010_7128" x="259.393" y="40.5331" width="30.0749" height="31.6928" filterUnits="userSpaceOnUse" color-interpolation-filters="sRGB">
<feFlood flood-opacity="0" result="BackgroundImageFix"/>
<feBlend mode="normal" in="SourceGraphic" in2="BackgroundImageFix" result="shape"/>
<feGaussianBlur stdDeviation="0.172774" result="effect1_foregroundBlur_3010_7128"/>
</filter>
<filter id="filter2_f_3010_7128" x="244.868" y="26.013" width="60.728" height="60.728" filterUnits="userSpaceOnUse" color-interpolation-filters="sRGB">
<feFlood flood-opacity="0" result="BackgroundImageFix"/>
<feBlend mode="normal" in="SourceGraphic" in2="BackgroundImageFix" result="shape"/>
<feGaussianBlur stdDeviation="0.44713" result="effect1_foregroundBlur_3010_7128"/>
</filter>
<filter id="filter3_f_3010_7128" x="232.59" y="13.7352" width="85.285" height="85.2855" filterUnits="userSpaceOnUse" color-interpolation-filters="sRGB">
<feFlood flood-opacity="0" result="BackgroundImageFix"/>
<feBlend mode="normal" in="SourceGraphic" in2="BackgroundImageFix" result="shape"/>
<feGaussianBlur stdDeviation="0.89426" result="effect1_foregroundBlur_3010_7128"/>
</filter>
<filter id="filter4_f_3010_7128" x="280.526" y="29.1826" width="5.93012" height="5.92988" filterUnits="userSpaceOnUse" color-interpolation-filters="sRGB">
<feFlood flood-opacity="0" result="BackgroundImageFix"/>
<feBlend mode="normal" in="SourceGraphic" in2="BackgroundImageFix" result="shape"/>
<feGaussianBlur stdDeviation="0.44713" result="effect1_foregroundBlur_3010_7128"/>
</filter>
<filter id="filter5_f_3010_7128" x="182.198" y="163.588" width="41.3926" height="24.1606" filterUnits="userSpaceOnUse" color-interpolation-filters="sRGB">
<feFlood flood-opacity="0" result="BackgroundImageFix"/>
<feBlend mode="normal" in="SourceGraphic" in2="BackgroundImageFix" result="shape"/>
<feGaussianBlur stdDeviation="0.445553" result="effect1_foregroundBlur_3010_7128"/>
</filter>
<filter id="filter6_f_3010_7128" x="166.549" y="148.927" width="26.3026" height="27.2545" filterUnits="userSpaceOnUse" color-interpolation-filters="sRGB">
<feFlood flood-opacity="0" result="BackgroundImageFix"/>
<feBlend mode="normal" in="SourceGraphic" in2="BackgroundImageFix" result="shape"/>
<feGaussianBlur stdDeviation="0.670141" result="effect1_foregroundBlur_3010_7128"/>
</filter>
<filter id="filter7_d_3010_7128" x="246.141" y="235" width="70.9199" height="97.9021" filterUnits="userSpaceOnUse" color-interpolation-filters="sRGB">
<feFlood flood-opacity="0" result="BackgroundImageFix"/>
<feColorMatrix in="SourceAlpha" type="matrix" values="0 0 0 0 0 0 0 0 0 0 0 0 0 0 0 0 0 0 127 0" result="hardAlpha"/>
<feOffset/>
<feGaussianBlur stdDeviation="3.5"/>
<feComposite in2="hardAlpha" operator="out"/>
<feColorMatrix type="matrix" values="0 0 0 0 0.54902 0 0 0 0 1 0 0 0 0 0 0 0 0 1 0"/>
<feBlend mode="normal" in2="BackgroundImageFix" result="effect1_dropShadow_3010_7128"/>
<feBlend mode="normal" in="SourceGraphic" in2="effect1_dropShadow_3010_7128" result="shape"/>
</filter>
<filter id="filter8_d_3010_7128" x="13.5947" y="86.5945" width="49.6885" height="49.688" filterUnits="userSpaceOnUse" color-interpolation-filters="sRGB">
<feFlood flood-opacity="0" result="BackgroundImageFix"/>
<feColorMatrix in="SourceAlpha" type="matrix" values="0 0 0 0 0 0 0 0 0 0 0 0 0 0 0 0 0 0 127 0" result="hardAlpha"/>
<feOffset/>
<feGaussianBlur stdDeviation="2"/>
<feComposite in2="hardAlpha" operator="out"/>
<feColorMatrix type="matrix" values="0 0 0 0 0.54902 0 0 0 0 1 0 0 0 0 0 0 0 0 1 0"/>
<feBlend mode="normal" in2="BackgroundImageFix" result="effect1_dropShadow_3010_7128"/>
<feBlend mode="normal" in="SourceGraphic" in2="effect1_dropShadow_3010_7128" result="shape"/>
</filter>
<filter id="filter9_d_3010_7128" x="337.476" y="194.519" width="43" height="42.9995" filterUnits="userSpaceOnUse" color-interpolation-filters="sRGB">
<feFlood flood-opacity="0" result="BackgroundImageFix"/>
<feColorMatrix in="SourceAlpha" type="matrix" values="0 0 0 0 0 0 0 0 0 0 0 0 0 0 0 0 0 0 127 0" result="hardAlpha"/>
<feOffset/>
<feGaussianBlur stdDeviation="2"/>
<feComposite in2="hardAlpha" operator="out"/>
<feColorMatrix type="matrix" values="0 0 0 0 0.54902 0 0 0 0 1 0 0 0 0 0 0 0 0 1 0"/>
<feBlend mode="normal" in2="BackgroundImageFix" result="effect1_dropShadow_3010_7128"/>
<feBlend mode="normal" in="SourceGraphic" in2="effect1_dropShadow_3010_7128" result="shape"/>
</filter>
<linearGradient id="paint0_linear_3010_7128" x1="142.293" y1="51.1072" x2="204.621" y2="273.738" gradientUnits="userSpaceOnUse">
<stop stop-color="#093954"/>
<stop offset="1" stop-color="#C4C4C4" stop-opacity="0"/>
</linearGradient>
<linearGradient id="paint1_linear_3010_7128" x1="276.017" y1="40.7398" x2="268.344" y2="70.2625" gradientUnits="userSpaceOnUse">
<stop stop-color="#054F77"/>
<stop offset="0.971875" stop-color="#8CFF00"/>
</linearGradient>
<linearGradient id="paint2_linear_3010_7128" x1="248.791" y1="42.6982" x2="293.811" y2="79.2528" gradientUnits="userSpaceOnUse">
<stop stop-color="#054F77"/>
<stop offset="0.971875" stop-color="#8CFF00"/>
</linearGradient>
<linearGradient id="paint3_linear_3010_7128" x1="245.16" y1="84.6428" x2="313.706" y2="42.6332" gradientUnits="userSpaceOnUse">
<stop stop-color="#054F77"/>
<stop offset="0.971875" stop-color="#8CFF00"/>
</linearGradient>
<linearGradient id="paint4_linear_3010_7128" x1="283.491" y1="30.0775" x2="283.491" y2="37.38" gradientUnits="userSpaceOnUse">
<stop stop-color="#054F77"/>
<stop offset="1" stop-color="#8CFF00"/>
</linearGradient>
<linearGradient id="paint5_linear_3010_7128" x1="210.218" y1="186.313" x2="187.053" y2="166.968" gradientUnits="userSpaceOnUse">
<stop stop-color="#F4FBFF"/>
<stop offset="1" stop-color="#83DDDD" stop-opacity="0.92"/>
</linearGradient>
<linearGradient id="paint6_linear_3010_7128" x1="220.945" y1="163.455" x2="196.099" y2="191.192" gradientUnits="userSpaceOnUse">
<stop stop-color="#141F45"/>
<stop offset="1" stop-color="#054F77"/>
</linearGradient>
<radialGradient id="paint7_radial_3010_7128" cx="0" cy="0" r="1" gradientUnits="userSpaceOnUse" gradientTransform="translate(192.077 172.812) rotate(-163.318) scale(36.5977)">
<stop stop-color="#054F77"/>
<stop offset="1" stop-color="#141F45"/>
</radialGradient>
<radialGradient id="paint8_radial_3010_7128" cx="0" cy="0" r="1" gradientUnits="userSpaceOnUse" gradientTransform="translate(192.077 172.812) rotate(-163.318) scale(36.5977)">
<stop stop-color="#054F77"/>
<stop offset="1" stop-color="#141F45"/>
</radialGradient>
<radialGradient id="paint9_radial_3010_7128" cx="0" cy="0" r="1" gradientUnits="userSpaceOnUse" gradientTransform="translate(192.077 172.812) rotate(-163.318) scale(36.5977)">
<stop stop-color="#054F77"/>
<stop offset="1" stop-color="#8CFF00"/>
</radialGradient>
<linearGradient id="paint10_linear_3010_7128" x1="87.2734" y1="196.269" x2="74.1528" y2="49.4565" gradientUnits="userSpaceOnUse">
<stop stop-color="#054F77"/>
<stop offset="1" stop-color="#F4FBFF" stop-opacity="0"/>
</linearGradient>
<linearGradient id="paint11_linear_3010_7128" x1="89.9914" y1="261.298" x2="98.6163" y2="117.815" gradientUnits="userSpaceOnUse">
<stop stop-color="#054F77"/>
<stop offset="1" stop-color="#F4FBFF" stop-opacity="0"/>
</linearGradient>
<linearGradient id="paint12_linear_3010_7128" x1="100.967" y1="338.059" x2="101.438" y2="203.127" gradientUnits="userSpaceOnUse">
<stop stop-color="#054F77"/>
<stop offset="1" stop-color="#F4FBFF" stop-opacity="0"/>
</linearGradient>
<radialGradient id="paint13_radial_3010_7128" cx="0" cy="0" r="1" gradientUnits="userSpaceOnUse" gradientTransform="translate(270.194 241.151) rotate(75.6593) scale(100.804 78.5688)">
<stop stop-color="#054F77"/>
<stop offset="1" stop-color="#8CFF00"/>
</radialGradient>
<linearGradient id="paint14_linear_3010_7128" x1="152.414" y1="243.716" x2="135.836" y2="258.74" gradientUnits="userSpaceOnUse">
<stop stop-color="#141F45"/>
<stop offset="1" stop-color="#054F77"/>
</linearGradient>
<linearGradient id="paint15_linear_3010_7128" x1="26.2363" y1="93.5907" x2="46.9759" y2="132.957" gradientUnits="userSpaceOnUse">
<stop stop-color="#1D2F39"/>
<stop offset="1" stop-color="#255775"/>
</linearGradient>
<linearGradient id="paint16_linear_3010_7128" x1="348.779" y1="201.105" x2="366.109" y2="234" gradientUnits="userSpaceOnUse">
<stop stop-color="#1D2F39"/>
<stop offset="1" stop-color="#255775"/>
</linearGradient>
</defs>
</svg>
