<svg width="443" height="336" viewBox="0 0 443 336" fill="none" xmlns="http://www.w3.org/2000/svg">
<path opacity="0.5" d="M299.294 56.0435H127.452L111.42 131.691H283.417L299.294 56.0435Z" fill="white"/>
<path opacity="0.5" d="M298.985 205.47H127.922L112.201 273.646H285.132L298.985 205.47Z" fill="white"/>
<path opacity="0.3" d="M283.42 131.689H112.201L127.922 205.469H298.985L283.42 131.689Z" fill="white"/>
<g opacity="0.5" filter="url(#filter0_bf_3010_7277)">
<path fill-rule="evenodd" clip-rule="evenodd" d="M299.294 56.0435H127.452L111.42 131.691H112.201L127.922 205.469H298.985L283.42 131.689H283.417L299.294 56.0435ZM298.985 205.47H127.922L112.201 273.646H285.132L298.985 205.47Z" fill="url(#paint0_linear_3010_7277)"/>
<path d="M127.452 56.0435L127.313 56.014L127.337 55.9013H127.452V56.0435ZM299.294 56.0435V55.9013H299.469L299.433 56.0727L299.294 56.0435ZM111.42 131.691V131.833H111.245L111.281 131.662L111.42 131.691ZM112.201 131.691V131.549H112.316L112.34 131.661L112.201 131.691ZM127.922 205.469V205.611H127.807L127.783 205.499L127.922 205.469ZM298.985 205.469L299.124 205.44L299.16 205.611H298.985V205.469ZM283.42 131.689V131.547H283.535L283.559 131.66L283.42 131.689ZM283.417 131.689V131.832H283.242L283.278 131.66L283.417 131.689ZM127.922 205.47L127.783 205.438L127.809 205.328H127.922V205.47ZM298.985 205.47V205.328H299.159L299.124 205.498L298.985 205.47ZM112.201 273.646V273.789H112.022L112.062 273.614L112.201 273.646ZM285.132 273.646L285.271 273.675L285.248 273.789H285.132V273.646ZM127.452 55.9013H299.294V56.1856H127.452V55.9013ZM111.281 131.662L127.313 56.014L127.591 56.0729L111.559 131.721L111.281 131.662ZM112.201 131.833H111.42V131.549H112.201V131.833ZM112.34 131.661L128.061 205.44L127.783 205.499L112.062 131.721L112.34 131.661ZM127.922 205.327H298.985V205.611H127.922V205.327ZM298.846 205.499L283.28 131.719L283.559 131.66L299.124 205.44L298.846 205.499ZM283.42 131.832H283.417V131.547H283.42V131.832ZM299.433 56.0727L283.557 131.719L283.278 131.66L299.155 56.0143L299.433 56.0727ZM127.922 205.328H298.985V205.612H127.922V205.328ZM112.062 273.614L127.783 205.438L128.06 205.502L112.339 273.678L112.062 273.614ZM285.132 273.789H112.201V273.504H285.132V273.789ZM299.124 205.498L285.271 273.675L284.992 273.618L298.846 205.442L299.124 205.498Z" fill="#8CFF00"/>
</g>
<g filter="url(#filter1_f_3010_7277)">
<path d="M289.858 63.1836C288.361 66.1982 285.923 68.6436 282.913 70.1502C279.903 71.6568 276.484 72.1427 273.174 71.5344C269.863 70.9262 266.841 69.257 264.563 66.7789C262.285 64.3009 260.876 61.1487 260.548 57.7988C260.22 54.4489 260.991 51.0833 262.745 48.2105C264.499 45.3378 267.141 43.1141 270.271 41.8755C273.4 40.6368 276.848 40.4506 280.093 41.3449C283.338 42.2392 286.204 44.1654 288.257 46.8325L285.545 48.9204C283.945 46.8423 281.712 45.3414 279.184 44.6445C276.655 43.9477 273.969 44.0928 271.53 45.058C269.091 46.0231 267.033 47.7558 265.666 49.9942C264.3 52.2326 263.698 54.8551 263.954 57.4654C264.209 60.0756 265.308 62.5318 267.083 64.4627C268.858 66.3936 271.213 67.6942 273.792 68.1681C276.372 68.6421 279.036 68.2634 281.381 67.0895C283.726 65.9156 285.626 64.0102 286.792 61.6612L289.858 63.1836Z" fill="url(#paint1_linear_3010_7277)"/>
</g>
<g filter="url(#filter2_f_3010_7277)">
<path d="M294.068 33.0289C299.615 37.3452 303.436 43.5015 304.842 50.3872C306.249 57.2729 305.149 64.4346 301.74 70.5803C298.331 76.7261 292.838 81.4512 286.251 83.9033C279.665 86.3554 272.419 86.3731 265.821 83.953C259.223 81.533 253.707 76.8346 250.268 70.7055C246.829 64.5764 245.694 57.4201 247.067 50.5277C248.441 43.6352 252.232 37.4604 257.757 33.1172C263.282 28.774 270.178 26.5483 277.199 26.8417L276.952 32.752C271.34 32.5175 265.829 34.2964 261.413 37.7678C256.996 41.2392 253.966 46.1745 252.869 51.6835C251.771 57.1924 252.679 62.9122 255.427 67.811C258.176 72.7098 262.585 76.4651 267.858 78.3993C273.132 80.3336 278.923 80.3195 284.187 78.3596C289.452 76.3997 293.842 72.6231 296.567 67.711C299.291 62.7988 300.171 57.0747 299.047 51.5712C297.922 46.0676 294.868 41.1471 290.435 37.6972L294.068 33.0289Z" fill="url(#paint2_linear_3010_7277)"/>
<path d="M294.068 33.0289C299.615 37.3452 303.436 43.5015 304.842 50.3872C306.249 57.2729 305.149 64.4346 301.74 70.5803C298.331 76.7261 292.838 81.4512 286.251 83.9033C279.665 86.3554 272.419 86.3731 265.821 83.953C259.223 81.533 253.707 76.8346 250.268 70.7055C246.829 64.5764 245.694 57.4201 247.067 50.5277C248.441 43.6352 252.232 37.4604 257.757 33.1172C263.282 28.774 270.178 26.5483 277.199 26.8417L276.952 32.752C271.34 32.5175 265.829 34.2964 261.413 37.7678C256.996 41.2392 253.966 46.1745 252.869 51.6835C251.771 57.1924 252.679 62.9122 255.427 67.811C258.176 72.7098 262.585 76.4651 267.858 78.3993C273.132 80.3336 278.923 80.3195 284.187 78.3596C289.452 76.3997 293.842 72.6231 296.567 67.711C299.291 62.7988 300.171 57.0747 299.047 51.5712C297.922 46.0676 294.868 41.1471 290.435 37.6972L294.068 33.0289Z" fill="white" fill-opacity="0.2"/>
</g>
<g filter="url(#filter3_f_3010_7277)">
<path d="M262.224 17.814C270.578 14.8294 279.677 14.6452 288.145 17.2892C296.613 19.9332 303.991 25.2617 309.162 32.4695C314.334 39.6773 317.019 48.3727 316.812 57.2415C316.605 66.1104 313.516 74.6708 308.013 81.6291C302.51 88.5873 294.892 93.5653 286.31 95.8108C277.727 98.0563 268.647 97.4471 260.442 94.0755C252.236 90.7038 245.351 84.7529 240.827 77.1219C236.303 69.491 234.385 60.5948 235.364 51.7777L242.814 52.605C242.015 59.8044 243.58 67.0683 247.275 73.2991C250.969 79.5299 256.591 84.389 263.291 87.142C269.991 89.8951 277.405 90.3924 284.412 88.559C291.42 86.7255 297.641 82.6609 302.134 76.9793C306.627 71.2977 309.149 64.308 309.318 57.0664C309.488 49.8248 307.295 42.7248 303.072 36.8395C298.849 30.9542 292.825 26.6034 285.911 24.4445C278.997 22.2856 271.567 22.436 264.746 24.873L262.224 17.814Z" fill="url(#paint3_linear_3010_7277)"/>
<path d="M262.224 17.814C270.578 14.8294 279.677 14.6452 288.145 17.2892C296.613 19.9332 303.991 25.2617 309.162 32.4695C314.334 39.6773 317.019 48.3727 316.812 57.2415C316.605 66.1104 313.516 74.6708 308.013 81.6291C302.51 88.5873 294.892 93.5653 286.31 95.8108C277.727 98.0563 268.647 97.4471 260.442 94.0755C252.236 90.7038 245.351 84.7529 240.827 77.1219C236.303 69.491 234.385 60.5948 235.364 51.7777L242.814 52.605C242.015 59.8044 243.58 67.0683 247.275 73.2991C250.969 79.5299 256.591 84.389 263.291 87.142C269.991 89.8951 277.405 90.3924 284.412 88.559C291.42 86.7255 297.641 82.6609 302.134 76.9793C306.627 71.2977 309.149 64.308 309.318 57.0664C309.488 49.8248 307.295 42.7248 303.072 36.8395C298.849 30.9542 292.825 26.6034 285.911 24.4445C278.997 22.2856 271.567 22.436 264.746 24.873L262.224 17.814Z" fill="white" fill-opacity="0.2"/>
</g>
<g filter="url(#filter4_f_3010_7277)">
<circle cx="284.227" cy="32.0565" r="2.07011" transform="rotate(-22.7554 284.227 32.0565)" fill="url(#paint4_linear_3010_7277)"/>
</g>
<g filter="url(#filter5_f_3010_7277)">
<path d="M208.362 176.736L199.488 164.69C199.187 164.281 198.573 164.288 198.282 164.705L183.959 185.179C183.617 185.668 183.962 186.34 184.559 186.347L222.682 186.766C223.283 186.773 223.642 186.1 223.303 185.604L215.398 174.052C215.175 173.725 214.735 173.631 214.398 173.838L209.348 176.929C209.019 177.13 208.591 177.047 208.362 176.736Z" fill="url(#paint5_linear_3010_7277)"/>
</g>
<path d="M223.623 149.608L188.017 148.504C185.147 148.415 182.742 150.63 182.654 153.446L181.659 185.526C181.572 188.34 183.835 190.697 186.705 190.786L222.311 191.89C225.181 191.98 227.583 189.767 227.671 186.953L228.666 154.873C228.753 152.057 226.493 149.697 223.623 149.608ZM212.331 156.856C215.106 156.942 217.289 159.219 217.204 161.939C217.12 164.66 214.8 166.797 212.025 166.711C209.249 166.625 207.067 164.348 207.151 161.627C207.236 158.907 209.554 156.77 212.331 156.856ZM220.825 187.124L204.653 186.623L189.201 186.143C187.812 186.1 187.225 185.096 187.888 183.901L197.034 167.419C197.697 166.224 198.891 166.152 199.701 167.259L208.031 178.641C208.841 179.748 210.312 179.885 211.318 178.947L213.506 176.907C214.511 175.969 215.944 176.133 216.705 177.272L221.961 185.137C222.721 186.278 222.214 187.167 220.825 187.124Z" fill="url(#paint6_linear_3010_7277)"/>
<g filter="url(#filter6_f_3010_7277)">
<path d="M190.85 157.658C192.142 158.13 192.44 159.823 191.385 160.707L175.394 174.107C174.34 174.99 172.724 174.401 172.486 173.046L168.877 152.498C168.639 151.143 169.957 150.038 171.25 150.51L190.85 157.658Z" fill="url(#paint7_radial_3010_7277)"/>
<path d="M190.85 157.658C192.142 158.13 192.44 159.823 191.385 160.707L175.394 174.107C174.34 174.99 172.724 174.401 172.486 173.046L168.877 152.498C168.639 151.143 169.957 150.038 171.25 150.51L190.85 157.658Z" stroke="#8CFF00" stroke-width="0.44676"/>
</g>
<path d="M191.204 157.787C192.339 158.201 192.6 159.689 191.674 160.465L175.105 174.349C174.179 175.125 172.761 174.607 172.552 173.417L168.812 152.126C168.603 150.936 169.76 149.967 170.895 150.38L191.204 157.787Z" fill="url(#paint8_radial_3010_7277)"/>
<path d="M191.204 157.787C192.339 158.201 192.6 159.689 191.674 160.465L175.105 174.349C174.179 175.125 172.761 174.607 172.552 173.417L168.812 152.126C168.603 150.936 169.76 149.967 170.895 150.38L191.204 157.787Z" fill="url(#paint9_radial_3010_7277)"/>
<path d="M191.204 157.787C192.339 158.201 192.6 159.689 191.674 160.465L175.105 174.349C174.179 175.125 172.761 174.607 172.552 173.417L168.812 152.126C168.603 150.936 169.76 149.967 170.895 150.38L191.204 157.787Z" stroke="#F4FBFF" stroke-width="0.0893521"/>
<path opacity="0.5" d="M440.73 90.8131C440.685 97.692 434.723 104.376 423.562 110.536C412.443 116.673 396.342 122.188 376.418 126.796C336.578 136.01 281.561 141.574 220.816 141.294C160.07 141.014 105.13 134.942 65.4136 125.361C45.5513 120.569 29.5243 114.906 18.4866 108.667C7.40706 102.404 1.53304 95.6657 1.57824 88.7868C1.62345 81.9078 7.58567 75.2237 18.7469 69.0635C29.8659 62.9266 45.9664 57.4118 65.8904 52.8037C105.73 43.5895 160.747 38.0257 221.493 38.306C282.238 38.5863 337.178 44.6574 376.895 54.2388C396.757 59.0304 412.784 64.6934 423.822 70.9326C434.901 77.1954 440.775 83.9341 440.73 90.8131Z" stroke="url(#paint10_linear_3010_7277)"/>
<path opacity="0.5" d="M441.414 175.981C441.369 182.86 435.406 189.544 424.245 195.704C413.126 201.841 397.026 207.356 377.102 211.964C337.262 221.178 282.245 226.742 221.499 226.462C160.754 226.182 105.814 220.11 66.0972 210.529C46.2349 205.737 30.2079 200.074 19.1702 193.835C8.09065 187.572 2.21663 180.834 2.26184 173.955C2.30704 167.076 8.26927 160.392 19.4305 154.231C30.5495 148.095 46.65 142.58 66.574 137.972C106.414 128.757 161.431 123.194 222.176 123.474C282.922 123.754 337.862 129.825 377.578 139.407C397.441 144.198 413.468 149.861 424.505 156.101C435.585 162.363 441.459 169.102 441.414 175.981Z" stroke="url(#paint11_linear_3010_7277)"/>
<path opacity="0.5" d="M440.73 257.542C440.685 264.421 434.723 271.105 423.562 277.265C412.443 283.402 396.342 288.917 376.418 293.525C336.578 302.739 281.561 308.303 220.816 308.022C160.07 307.742 105.13 301.671 65.4136 292.09C45.5513 287.298 29.5243 281.635 18.4866 275.396C7.40706 269.133 1.53304 262.394 1.57824 255.515C1.62345 248.636 7.58567 241.952 18.7469 235.792C29.8659 229.655 45.9664 224.14 65.8904 219.532C105.73 210.318 160.747 204.754 221.493 205.034C282.238 205.315 337.178 211.386 376.895 220.967C396.757 225.759 412.784 231.422 423.822 237.661C434.901 243.924 440.775 250.663 440.73 257.542Z" stroke="url(#paint12_linear_3010_7277)"/>
<g filter="url(#filter7_f_3010_7277)">
<path d="M308.386 287.988C310.673 287.426 311.323 284.486 309.486 283.012L259.327 242.784C257.477 241.3 254.73 242.603 254.709 244.975L254.122 309.27C254.1 311.624 256.788 312.982 258.67 311.566L273.164 300.667C274.601 299.587 276.668 300.096 277.438 301.72L287.977 323.941C288.649 325.359 290.343 325.963 291.761 325.291L298.079 322.295C299.496 321.622 300.101 319.928 299.428 318.51L288.89 296.29C288.119 294.665 289.033 292.743 290.779 292.314L308.386 287.988Z" stroke="#8CFF00" stroke-width="2"/>
</g>
<path d="M308.386 287.988C310.673 287.426 311.323 284.486 309.486 283.012L259.327 242.784C257.477 241.3 254.73 242.603 254.709 244.975L254.122 309.27C254.1 311.624 256.788 312.982 258.67 311.566L273.164 300.667C274.601 299.587 276.668 300.096 277.438 301.72L287.977 323.941C288.649 325.359 290.343 325.963 291.761 325.291L298.079 322.295C299.496 321.622 300.101 319.928 299.428 318.51L288.89 296.29C288.119 294.665 289.033 292.743 290.779 292.314L308.386 287.988Z" fill="url(#paint13_radial_3010_7277)" stroke="#F4FBFF" stroke-width="0.49017"/>
<path fill-rule="evenodd" clip-rule="evenodd" d="M141.252 246.402L149.534 245.704C149.288 243.332 148.891 239.773 148.719 239.447C148.467 238.97 148.122 238.548 147.703 238.203C147.284 237.857 146.798 237.596 146.275 237.434C145.751 237.273 145.2 237.213 144.652 237.259C144.104 237.305 143.57 237.456 143.081 237.704C142.592 237.951 142.157 238.289 141.802 238.7C141.446 239.11 141.176 239.585 141.008 240.096C140.893 240.447 141.097 244.022 141.252 246.402ZM152.998 245.412L154.564 245.28C155.664 245.187 156.632 246.004 156.725 247.105L158.052 262.863C158.145 263.964 157.328 264.931 156.227 265.024L137.887 266.569C136.787 266.662 135.819 265.845 135.726 264.744L134.399 248.986C134.306 247.886 135.123 246.918 136.224 246.825L137.788 246.694C137.641 244.012 137.464 239.747 137.686 239.069C137.995 238.132 138.489 237.262 139.141 236.509C139.793 235.756 140.59 235.136 141.486 234.683C142.383 234.23 143.362 233.953 144.366 233.868C145.371 233.783 146.382 233.893 147.342 234.189C148.301 234.486 149.191 234.965 149.96 235.597C150.728 236.23 151.361 237.005 151.822 237.878C152.155 238.509 152.694 242.744 152.998 245.412ZM147.625 255.807C147.687 256.553 147.112 257.211 146.339 257.276C145.566 257.341 144.889 256.789 144.826 256.043C144.763 255.297 145.338 254.639 146.111 254.574C146.884 254.509 147.562 255.061 147.625 255.807Z" fill="url(#paint14_linear_3010_7277)"/>
<g filter="url(#filter8_f_3010_7277)">
<circle cx="39.1756" cy="111.347" r="20.344" stroke="#8CFF00" stroke-width="2"/>
</g>
<g filter="url(#filter9_f_3010_7277)">
<circle cx="359.712" cy="215.928" r="16.9998" stroke="#8CFF00" stroke-width="2"/>
</g>
<circle cx="39.1756" cy="111.347" r="20.344" fill="#052233"/>
<circle cx="39.1756" cy="111.347" r="20.344" fill="url(#paint15_linear_3010_7277)" fill-opacity="0.8"/>
<circle cx="39.1756" cy="111.347" r="20.344" stroke="#8CFF00"/>
<path d="M45.5797 108.068C45.1088 108.277 44.6028 108.418 44.0709 108.482C44.6197 108.154 45.0303 107.637 45.2261 107.028C44.7105 107.334 44.1461 107.55 43.5576 107.665C43.1619 107.243 42.6377 106.963 42.0665 106.868C41.4953 106.774 40.909 106.871 40.3986 107.145C39.8882 107.418 39.4823 107.852 39.2439 108.38C39.0056 108.907 38.948 109.499 39.0803 110.062C38.0355 110.01 37.0134 109.738 36.0804 109.265C35.1473 108.792 34.3242 108.128 33.6643 107.317C33.4387 107.706 33.309 108.157 33.309 108.638C33.3087 109.07 33.4153 109.496 33.6191 109.878C33.823 110.259 34.1179 110.585 34.4777 110.825C34.0604 110.812 33.6524 110.699 33.2876 110.496V110.53C33.2875 111.137 33.4974 111.725 33.8816 112.194C34.2658 112.664 34.8006 112.986 35.3954 113.107C35.0083 113.211 34.6025 113.227 34.2086 113.152C34.3764 113.674 34.7033 114.13 35.1435 114.457C35.5836 114.784 36.1151 114.966 36.6634 114.976C35.7326 115.706 34.5831 116.103 33.3998 116.101C33.1902 116.101 32.9808 116.089 32.7726 116.064C33.9737 116.837 35.3719 117.246 36.7998 117.245C41.6337 117.245 44.2762 113.241 44.2762 109.769C44.2762 109.656 44.2734 109.542 44.2683 109.43C44.7823 109.058 45.226 108.597 45.5786 108.07L45.5797 108.068Z" fill="#8CFF00"/>
<circle cx="359.712" cy="215.928" r="16.9998" fill="#052233"/>
<circle cx="359.712" cy="215.928" r="16.9998" fill="url(#paint16_linear_3010_7277)" fill-opacity="0.8"/>
<circle cx="359.712" cy="215.928" r="16.9998" stroke="#8CFF00"/>
<path fill-rule="evenodd" clip-rule="evenodd" d="M359.712 210.433C356.599 210.433 354.078 212.954 354.078 216.066C354.078 218.559 355.691 220.665 357.93 221.411C358.212 221.461 358.318 221.292 358.318 221.144C358.318 221.01 358.31 220.566 358.31 220.094C356.895 220.355 356.529 219.749 356.416 219.433C356.353 219.271 356.078 218.771 355.839 218.637C355.641 218.531 355.36 218.271 355.832 218.264C356.275 218.256 356.592 218.672 356.698 218.841C357.205 219.693 358.015 219.454 358.339 219.306C358.388 218.94 358.536 218.693 358.698 218.552C357.444 218.411 356.134 217.926 356.134 215.771C356.134 215.158 356.353 214.651 356.712 214.257C356.656 214.116 356.458 213.538 356.768 212.764C356.768 212.764 357.24 212.616 358.318 213.341C358.768 213.214 359.247 213.151 359.726 213.151C360.205 213.151 360.684 213.214 361.134 213.341C362.212 212.609 362.684 212.764 362.684 212.764C362.994 213.538 362.796 214.116 362.74 214.257C363.099 214.651 363.317 215.151 363.317 215.771C363.317 217.933 362.001 218.411 360.747 218.552C360.951 218.728 361.127 219.066 361.127 219.594C361.127 220.348 361.12 220.954 361.12 221.144C361.12 221.292 361.226 221.468 361.508 221.411C362.626 221.034 363.598 220.315 364.286 219.356C364.975 218.397 365.345 217.247 365.346 216.066C365.346 212.954 362.825 210.433 359.712 210.433Z" fill="#8CFF00"/>
<defs>
<filter id="filter0_bf_3010_7277" x="106.013" y="50.67" width="198.687" height="228.35" filterUnits="userSpaceOnUse" color-interpolation-filters="sRGB">
<feFlood flood-opacity="0" result="BackgroundImageFix"/>
<feGaussianBlur in="BackgroundImageFix" stdDeviation="2.61569"/>
<feComposite in2="SourceAlpha" operator="in" result="effect1_backgroundBlur_3010_7277"/>
<feBlend mode="normal" in="SourceGraphic" in2="effect1_backgroundBlur_3010_7277" result="shape"/>
<feGaussianBlur stdDeviation="0.568709" result="effect2_foregroundBlur_3010_7277"/>
</filter>
<filter id="filter1_f_3010_7277" x="260.128" y="40.442" width="30.075" height="31.6931" filterUnits="userSpaceOnUse" color-interpolation-filters="sRGB">
<feFlood flood-opacity="0" result="BackgroundImageFix"/>
<feBlend mode="normal" in="SourceGraphic" in2="BackgroundImageFix" result="shape"/>
<feGaussianBlur stdDeviation="0.172774" result="effect1_foregroundBlur_3010_7277"/>
</filter>
<filter id="filter2_f_3010_7277" x="245.605" y="25.9217" width="60.728" height="60.728" filterUnits="userSpaceOnUse" color-interpolation-filters="sRGB">
<feFlood flood-opacity="0" result="BackgroundImageFix"/>
<feBlend mode="normal" in="SourceGraphic" in2="BackgroundImageFix" result="shape"/>
<feGaussianBlur stdDeviation="0.44713" result="effect1_foregroundBlur_3010_7277"/>
</filter>
<filter id="filter3_f_3010_7277" x="233.326" y="13.6441" width="85.2857" height="85.2855" filterUnits="userSpaceOnUse" color-interpolation-filters="sRGB">
<feFlood flood-opacity="0" result="BackgroundImageFix"/>
<feBlend mode="normal" in="SourceGraphic" in2="BackgroundImageFix" result="shape"/>
<feGaussianBlur stdDeviation="0.89426" result="effect1_foregroundBlur_3010_7277"/>
</filter>
<filter id="filter4_f_3010_7277" x="281.262" y="29.0916" width="5.92988" height="5.92963" filterUnits="userSpaceOnUse" color-interpolation-filters="sRGB">
<feFlood flood-opacity="0" result="BackgroundImageFix"/>
<feBlend mode="normal" in="SourceGraphic" in2="BackgroundImageFix" result="shape"/>
<feGaussianBlur stdDeviation="0.44713" result="effect1_foregroundBlur_3010_7277"/>
</filter>
<filter id="filter5_f_3010_7277" x="182.933" y="163.497" width="41.3926" height="24.1606" filterUnits="userSpaceOnUse" color-interpolation-filters="sRGB">
<feFlood flood-opacity="0" result="BackgroundImageFix"/>
<feBlend mode="normal" in="SourceGraphic" in2="BackgroundImageFix" result="shape"/>
<feGaussianBlur stdDeviation="0.445553" result="effect1_foregroundBlur_3010_7277"/>
</filter>
<filter id="filter6_f_3010_7277" x="167.285" y="148.835" width="26.3034" height="27.2548" filterUnits="userSpaceOnUse" color-interpolation-filters="sRGB">
<feFlood flood-opacity="0" result="BackgroundImageFix"/>
<feBlend mode="normal" in="SourceGraphic" in2="BackgroundImageFix" result="shape"/>
<feGaussianBlur stdDeviation="0.670141" result="effect1_foregroundBlur_3010_7277"/>
</filter>
<filter id="filter7_f_3010_7277" x="248.122" y="236.152" width="68.4303" height="95.4136" filterUnits="userSpaceOnUse" color-interpolation-filters="sRGB">
<feFlood flood-opacity="0" result="BackgroundImageFix"/>
<feBlend mode="normal" in="SourceGraphic" in2="BackgroundImageFix" result="shape"/>
<feGaussianBlur stdDeviation="2.5" result="effect1_foregroundBlur_3010_7277"/>
</filter>
<filter id="filter8_f_3010_7277" x="12.8315" y="85.0034" width="52.6881" height="52.688" filterUnits="userSpaceOnUse" color-interpolation-filters="sRGB">
<feFlood flood-opacity="0" result="BackgroundImageFix"/>
<feBlend mode="normal" in="SourceGraphic" in2="BackgroundImageFix" result="shape"/>
<feGaussianBlur stdDeviation="2.5" result="effect1_foregroundBlur_3010_7277"/>
</filter>
<filter id="filter9_f_3010_7277" x="338.712" y="194.928" width="41.9995" height="41.9995" filterUnits="userSpaceOnUse" color-interpolation-filters="sRGB">
<feFlood flood-opacity="0" result="BackgroundImageFix"/>
<feBlend mode="normal" in="SourceGraphic" in2="BackgroundImageFix" result="shape"/>
<feGaussianBlur stdDeviation="1.5" result="effect1_foregroundBlur_3010_7277"/>
</filter>
<linearGradient id="paint0_linear_3010_7277" x1="143.029" y1="51.0157" x2="205.357" y2="273.646" gradientUnits="userSpaceOnUse">
<stop stop-color="#093954"/>
<stop offset="1" stop-color="#C4C4C4" stop-opacity="0"/>
</linearGradient>
<linearGradient id="paint1_linear_3010_7277" x1="276.752" y1="40.649" x2="269.08" y2="70.1717" gradientUnits="userSpaceOnUse">
<stop stop-color="#054F77"/>
<stop offset="0.971875" stop-color="#8CFF00"/>
</linearGradient>
<linearGradient id="paint2_linear_3010_7277" x1="249.527" y1="42.6069" x2="294.547" y2="79.1615" gradientUnits="userSpaceOnUse">
<stop stop-color="#054F77"/>
<stop offset="0.971875" stop-color="#8CFF00"/>
</linearGradient>
<linearGradient id="paint3_linear_3010_7277" x1="245.896" y1="84.5518" x2="314.442" y2="42.5421" gradientUnits="userSpaceOnUse">
<stop stop-color="#054F77"/>
<stop offset="0.971875" stop-color="#8CFF00"/>
</linearGradient>
<linearGradient id="paint4_linear_3010_7277" x1="284.227" y1="29.9864" x2="284.227" y2="37.2889" gradientUnits="userSpaceOnUse">
<stop stop-color="#054F77"/>
<stop offset="1" stop-color="#8CFF00"/>
</linearGradient>
<linearGradient id="paint5_linear_3010_7277" x1="210.954" y1="186.221" x2="187.789" y2="166.877" gradientUnits="userSpaceOnUse">
<stop stop-color="#F4FBFF"/>
<stop offset="1" stop-color="#83DDDD" stop-opacity="0.92"/>
</linearGradient>
<linearGradient id="paint6_linear_3010_7277" x1="221.681" y1="163.363" x2="196.834" y2="191.1" gradientUnits="userSpaceOnUse">
<stop stop-color="#141F45"/>
<stop offset="1" stop-color="#054F77"/>
</linearGradient>
<radialGradient id="paint7_radial_3010_7277" cx="0" cy="0" r="1" gradientUnits="userSpaceOnUse" gradientTransform="translate(192.813 172.721) rotate(-163.318) scale(36.5977)">
<stop stop-color="#054F77"/>
<stop offset="1" stop-color="#141F45"/>
</radialGradient>
<radialGradient id="paint8_radial_3010_7277" cx="0" cy="0" r="1" gradientUnits="userSpaceOnUse" gradientTransform="translate(192.813 172.721) rotate(-163.318) scale(36.5977)">
<stop stop-color="#054F77"/>
<stop offset="1" stop-color="#141F45"/>
</radialGradient>
<radialGradient id="paint9_radial_3010_7277" cx="0" cy="0" r="1" gradientUnits="userSpaceOnUse" gradientTransform="translate(192.813 172.721) rotate(-163.318) scale(36.5977)">
<stop stop-color="#054F77"/>
<stop offset="1" stop-color="#8CFF00"/>
</radialGradient>
<linearGradient id="paint10_linear_3010_7277" x1="88.0097" y1="196.178" x2="74.8891" y2="49.3652" gradientUnits="userSpaceOnUse">
<stop stop-color="#054F77"/>
<stop offset="1" stop-color="#F4FBFF" stop-opacity="0"/>
</linearGradient>
<linearGradient id="paint11_linear_3010_7277" x1="90.7278" y1="261.207" x2="99.3526" y2="117.724" gradientUnits="userSpaceOnUse">
<stop stop-color="#054F77"/>
<stop offset="1" stop-color="#F4FBFF" stop-opacity="0"/>
</linearGradient>
<linearGradient id="paint12_linear_3010_7277" x1="101.704" y1="337.968" x2="102.174" y2="203.036" gradientUnits="userSpaceOnUse">
<stop stop-color="#054F77"/>
<stop offset="1" stop-color="#F4FBFF" stop-opacity="0"/>
</linearGradient>
<radialGradient id="paint13_radial_3010_7277" cx="0" cy="0" r="1" gradientUnits="userSpaceOnUse" gradientTransform="translate(270.93 241.06) rotate(75.6593) scale(100.804 78.5688)">
<stop stop-color="#054F77"/>
<stop offset="1" stop-color="#8CFF00"/>
</radialGradient>
<linearGradient id="paint14_linear_3010_7277" x1="153.15" y1="243.624" x2="136.572" y2="258.649" gradientUnits="userSpaceOnUse">
<stop stop-color="#141F45"/>
<stop offset="1" stop-color="#054F77"/>
</linearGradient>
<linearGradient id="paint15_linear_3010_7277" x1="26.9731" y1="93.4997" x2="47.7128" y2="132.865" gradientUnits="userSpaceOnUse">
<stop stop-color="#1D2F39"/>
<stop offset="1" stop-color="#255775"/>
</linearGradient>
<linearGradient id="paint16_linear_3010_7277" x1="349.515" y1="201.014" x2="366.845" y2="233.908" gradientUnits="userSpaceOnUse">
<stop stop-color="#1D2F39"/>
<stop offset="1" stop-color="#255775"/>
</linearGradient>
</defs>
</svg>
