<svg width="680" height="394" viewBox="0 0 680 394" fill="none" xmlns="http://www.w3.org/2000/svg">
<rect x="122.768" y="14.5" width="538.77" height="340.967" rx="17.5" fill="url(#paint0_linear_3010_7005)" stroke="#F4FBFF"/>
<g filter="url(#filter0_d_3010_7005)">
<path d="M140.268 14.5H644.037C653.702 14.5 661.537 22.335 661.537 32V47.2133H122.768V32C122.768 22.335 130.603 14.5 140.268 14.5Z" stroke="#F4FBFF" shape-rendering="crispEdges"/>
</g>
<mask id="mask0_3010_7005" style="mask-type:alpha" maskUnits="userSpaceOnUse" x="0" y="47" width="438" height="309">
<rect x="0.0371094" y="47.7134" width="437.075" height="308.254" fill="url(#paint1_linear_3010_7005)"/>
</mask>
<g mask="url(#mask0_3010_7005)">
<g filter="url(#filter1_b_3010_7005)">
<rect x="40.1514" y="72.9873" width="447" height="52" rx="26" fill="url(#paint2_linear_3010_7005)"/>
<g clip-path="url(#clip0_3010_7005)">
<path d="M92.5585 93.2148C91.8761 93.5172 91.143 93.7215 90.3723 93.8139C91.1675 93.338 91.7625 92.5891 92.0461 91.7069C91.299 92.1507 90.4813 92.463 89.6285 92.6304C89.0551 92.0181 88.2956 91.6123 87.4679 91.476C86.6402 91.3396 85.7906 91.4803 85.051 91.8763C84.3115 92.2722 83.7234 92.9012 83.378 93.6657C83.0326 94.4301 82.9492 95.2872 83.1408 96.1039C81.6269 96.0279 80.1459 95.6344 78.794 94.949C77.442 94.2636 76.2492 93.3015 75.2931 92.1253C74.9662 92.6893 74.7782 93.3431 74.7782 94.0394C74.7779 94.6663 74.9322 95.2836 75.2276 95.8365C75.5231 96.3893 75.9504 96.8608 76.4717 97.2089C75.8671 97.1897 75.2759 97.0263 74.7472 96.7324V96.7815C74.7471 97.6607 75.0512 98.5128 75.6079 99.1933C76.1646 99.8738 76.9396 100.341 77.8014 100.515C77.2406 100.667 76.6526 100.689 76.0818 100.58C76.325 101.337 76.7986 101.998 77.4364 102.472C78.0742 102.946 78.8442 103.209 79.6387 103.223C78.29 104.282 76.6244 104.856 74.9098 104.854C74.6061 104.854 74.3026 104.836 74.001 104.801C75.7414 105.92 77.7674 106.514 79.8365 106.511C86.8407 106.511 90.6698 100.71 90.6698 95.6789C90.6698 95.5155 90.6657 95.3504 90.6583 95.1869C91.4031 94.6483 92.046 93.9813 92.5569 93.2172L92.5585 93.2148V93.2148Z" fill="#8CFF00"/>
</g>
<path d="M103.505 104.987V94.2331H99.8791V92.7268H108.969V94.2331H105.361V104.987H103.505ZM111.413 104.987L108.856 96.2998H110.712L112.394 102.85L114.285 96.2998H116.352L118.244 102.85L119.925 96.2998H121.782L119.225 104.987H117.315L115.319 98.1564L113.322 104.987H111.413ZM124.362 94.6534C124.012 94.6534 123.72 94.5483 123.486 94.3382C123.265 94.1163 123.154 93.8419 123.154 93.5149C123.154 93.188 123.265 92.9194 123.486 92.7093C123.72 92.4874 124.012 92.3765 124.362 92.3765C124.712 92.3765 124.999 92.4874 125.22 92.7093C125.454 92.9194 125.571 93.188 125.571 93.5149C125.571 93.8419 125.454 94.1163 125.22 94.3382C124.999 94.5483 124.712 94.6534 124.362 94.6534ZM123.434 104.987V96.2998H125.29V104.987H123.434ZM131.384 104.987C130.532 104.987 129.855 104.783 129.353 104.374C128.851 103.954 128.6 103.212 128.6 102.15V97.8587H127.111V96.2998H128.6L128.827 94.0929H130.456V96.2998H132.908V97.8587H130.456V102.15C130.456 102.629 130.555 102.961 130.754 103.148C130.964 103.323 131.32 103.411 131.822 103.411H132.821V104.987H131.384ZM138.466 104.987C137.613 104.987 136.936 104.783 136.434 104.374C135.932 103.954 135.681 103.212 135.681 102.15V97.8587H134.192V96.2998H135.681L135.909 94.0929H137.537V96.2998H139.99V97.8587H137.537V102.15C137.537 102.629 137.637 102.961 137.835 103.148C138.045 103.323 138.401 103.411 138.904 103.411H139.902V104.987H138.466ZM145.745 105.197C144.893 105.197 144.134 105.011 143.468 104.637C142.814 104.252 142.3 103.72 141.927 103.043C141.553 102.366 141.366 101.578 141.366 100.679C141.366 99.7678 141.547 98.968 141.909 98.279C142.283 97.5901 142.797 97.053 143.451 96.6677C144.116 96.2823 144.887 96.0897 145.763 96.0897C146.615 96.0897 147.356 96.2823 147.987 96.6677C148.617 97.0413 149.108 97.5434 149.458 98.1739C149.808 98.8045 149.984 99.4993 149.984 100.258C149.984 100.375 149.978 100.503 149.966 100.644C149.966 100.772 149.96 100.918 149.949 101.081H143.188C143.246 101.922 143.521 102.564 144.011 103.008C144.513 103.44 145.091 103.656 145.745 103.656C146.27 103.656 146.708 103.539 147.059 103.306C147.421 103.061 147.689 102.734 147.864 102.325H149.721C149.487 103.142 149.02 103.825 148.32 104.374C147.631 104.923 146.773 105.197 145.745 105.197ZM145.745 97.6135C145.126 97.6135 144.577 97.8003 144.099 98.1739C143.62 98.5359 143.328 99.0847 143.223 99.8204H148.127C148.092 99.1431 147.853 98.606 147.409 98.209C146.965 97.812 146.411 97.6135 145.745 97.6135ZM151.91 104.987V96.2998H153.574L153.732 97.9463C154.035 97.3741 154.456 96.9245 154.993 96.5976C155.541 96.259 156.201 96.0897 156.972 96.0897V98.0338H156.464C155.95 98.0338 155.489 98.1214 155.08 98.2966C154.683 98.46 154.362 98.7461 154.117 99.1548C153.883 99.5518 153.767 100.106 153.767 100.819V104.987H151.91Z" fill="#F4FBFF"/>
<rect x="40.1514" y="72.9873" width="447" height="52" rx="26" stroke="#8CFF00" stroke-width="0.973058"/>
</g>
<g filter="url(#filter2_b_3010_7005)">
<rect x="59.1367" y="141.327" width="436" height="51" rx="25.5" fill="url(#paint3_linear_3010_7005)"/>
<g clip-path="url(#clip1_3010_7005)">
<mask id="mask1_3010_7005" style="mask-type:alpha" maskUnits="userSpaceOnUse" x="92" y="157" width="20" height="20">
<path d="M92.2207 157.02H111.836V176.635H92.2207V157.02Z" fill="white"/>
</mask>
<g mask="url(#mask1_3010_7005)">
<path fill-rule="evenodd" clip-rule="evenodd" d="M102.028 157.02C96.6096 157.02 92.2207 161.409 92.2207 166.827C92.2207 171.167 95.0281 174.833 98.9266 176.132C99.417 176.218 99.6009 175.924 99.6009 175.666C99.6009 175.434 99.5886 174.661 99.5886 173.84C97.1245 174.293 96.487 173.239 96.2908 172.687C96.1805 172.405 95.7024 171.535 95.2856 171.302C94.9423 171.118 94.4519 170.665 95.2733 170.652C96.0457 170.64 96.5973 171.363 96.7812 171.658C97.6639 173.141 99.0737 172.724 99.6377 172.467C99.7235 171.829 99.9809 171.4 100.263 171.155C98.0807 170.91 95.8005 170.064 95.8005 166.312C95.8005 165.246 96.1805 164.363 96.8057 163.677C96.7077 163.431 96.3644 162.426 96.9038 161.078C96.9038 161.078 97.7252 160.82 99.6009 162.083C100.386 161.862 101.219 161.752 102.053 161.752C102.886 161.752 103.72 161.862 104.505 162.083C106.38 160.808 107.202 161.078 107.202 161.078C107.741 162.426 107.398 163.431 107.3 163.677C107.925 164.363 108.305 165.234 108.305 166.312C108.305 170.076 106.013 170.91 103.83 171.155C104.186 171.461 104.492 172.05 104.492 172.969C104.492 174.281 104.48 175.335 104.48 175.666C104.48 175.924 104.664 176.23 105.154 176.132C107.101 175.475 108.793 174.224 109.992 172.554C111.19 170.885 111.835 168.882 111.836 166.827C111.836 161.409 107.447 157.02 102.028 157.02Z" fill="#8CFF00"/>
</g>
</g>
<path d="M124.942 173.038C123.786 173.038 122.776 172.775 121.912 172.249C121.048 171.724 120.377 170.988 119.898 170.042C119.419 169.097 119.18 167.993 119.18 166.732C119.18 165.483 119.425 164.379 119.915 163.422C120.406 162.464 121.101 161.717 122 161.18C122.91 160.631 123.985 160.357 125.222 160.357C126.624 160.357 127.791 160.695 128.725 161.373C129.66 162.05 130.267 162.984 130.547 164.175H128.445C128.258 163.521 127.891 163.007 127.342 162.634C126.793 162.26 126.086 162.073 125.222 162.073C123.938 162.073 122.928 162.488 122.192 163.317C121.457 164.146 121.089 165.29 121.089 166.75C121.089 168.209 121.451 169.348 122.175 170.165C122.899 170.982 123.862 171.391 125.065 171.391C126.279 171.391 127.19 171.047 127.797 170.358C128.416 169.669 128.778 168.752 128.883 167.608H125.555V166.172H130.757V172.827H129.058L128.901 171.023C128.492 171.666 127.978 172.162 127.359 172.512C126.74 172.862 125.935 173.038 124.942 173.038ZM133.991 162.494C133.641 162.494 133.349 162.388 133.116 162.178C132.894 161.956 132.783 161.682 132.783 161.355C132.783 161.028 132.894 160.76 133.116 160.549C133.349 160.327 133.641 160.217 133.991 160.217C134.342 160.217 134.628 160.327 134.85 160.549C135.083 160.76 135.2 161.028 135.2 161.355C135.2 161.682 135.083 161.956 134.85 162.178C134.628 162.388 134.342 162.494 133.991 162.494ZM133.063 172.827V164.14H134.92V172.827H133.063ZM141.014 172.827C140.161 172.827 139.484 172.623 138.982 172.214C138.48 171.794 138.229 171.053 138.229 169.99V165.699H136.74V164.14H138.229L138.456 161.933H140.085V164.14H142.537V165.699H140.085V169.99C140.085 170.469 140.185 170.801 140.383 170.988C140.593 171.163 140.949 171.251 141.451 171.251H142.45V172.827H141.014ZM144.452 172.827V160.217H146.308V165.541C146.6 165.039 147.003 164.648 147.517 164.368C148.042 164.076 148.62 163.93 149.251 163.93C150.29 163.93 151.107 164.257 151.703 164.911C152.298 165.564 152.596 166.539 152.596 167.836V172.827H150.757V168.028C150.757 166.347 150.086 165.506 148.743 165.506C148.042 165.506 147.458 165.751 146.991 166.242C146.536 166.732 146.308 167.433 146.308 168.344V172.827H144.452ZM157.988 173.038C156.937 173.038 156.108 172.711 155.501 172.057C154.905 171.403 154.608 170.428 154.608 169.132V164.14H156.464V168.939C156.464 170.62 157.153 171.461 158.531 171.461C159.22 171.461 159.786 171.216 160.23 170.726C160.674 170.235 160.896 169.535 160.896 168.624V164.14H162.752V172.827H161.106L160.966 171.304C160.697 171.841 160.3 172.267 159.775 172.582C159.261 172.886 158.665 173.038 157.988 173.038ZM170.001 173.038C169.323 173.038 168.722 172.903 168.197 172.635C167.683 172.366 167.274 171.987 166.971 171.496L166.778 172.827H165.114V160.217H166.971V165.489C167.251 165.08 167.636 164.718 168.127 164.403C168.617 164.087 169.248 163.93 170.018 163.93C170.859 163.93 171.6 164.128 172.243 164.525C172.885 164.922 173.387 165.465 173.749 166.154C174.123 166.843 174.309 167.625 174.309 168.501C174.309 169.377 174.123 170.159 173.749 170.848C173.387 171.525 172.885 172.063 172.243 172.46C171.6 172.845 170.853 173.038 170.001 173.038ZM169.685 171.426C170.479 171.426 171.133 171.158 171.647 170.62C172.161 170.072 172.418 169.359 172.418 168.484C172.418 167.912 172.301 167.404 172.068 166.96C171.834 166.516 171.513 166.172 171.104 165.926C170.695 165.67 170.223 165.541 169.685 165.541C168.891 165.541 168.238 165.816 167.724 166.364C167.222 166.913 166.971 167.62 166.971 168.484C166.971 169.359 167.222 170.072 167.724 170.62C168.238 171.158 168.891 171.426 169.685 171.426Z" fill="#F4FBFF"/>
<rect x="59.1367" y="141.327" width="436" height="51" rx="25.5" stroke="#8CFF00" stroke-width="0.973058"/>
</g>
<g filter="url(#filter3_b_3010_7005)">
<rect x="77.8467" y="208.412" width="428" height="52" rx="26" fill="url(#paint4_linear_3010_7005)"/>
<g clip-path="url(#clip2_3010_7005)">
<mask id="mask2_3010_7005" style="mask-type:alpha" maskUnits="userSpaceOnUse" x="110" y="224" width="21" height="21">
<path d="M110.931 224.605H130.546V244.22H110.931V224.605Z" fill="white"/>
</mask>
<g mask="url(#mask2_3010_7005)">
<path d="M130.137 229.923C130.026 229.527 129.809 229.168 129.511 228.885C129.204 228.593 128.827 228.384 128.417 228.278C126.882 227.874 120.733 227.874 120.733 227.874C118.169 227.845 115.606 227.973 113.058 228.258C112.648 228.372 112.273 228.585 111.965 228.879C111.662 229.17 111.443 229.529 111.329 229.922C111.054 231.403 110.921 232.906 110.93 234.412C110.92 235.917 111.054 237.42 111.329 238.903C111.441 239.294 111.659 239.651 111.962 239.94C112.266 240.228 112.643 240.437 113.058 240.547C114.614 240.951 120.733 240.951 120.733 240.951C123.3 240.98 125.866 240.852 128.417 240.567C128.827 240.461 129.204 240.252 129.511 239.96C129.809 239.677 130.025 239.318 130.136 238.922C130.418 237.442 130.555 235.938 130.545 234.431C130.567 232.918 130.43 231.407 130.137 229.922V229.923ZM118.778 237.211V231.615L123.894 234.413L118.778 237.211Z" fill="#8CFF00"/>
</g>
</g>
<path d="M141.445 240.412V235.893L137.382 228.152H139.484L142.374 234.072L145.246 228.152H147.33L143.302 235.893V240.412H141.445ZM151.318 240.623C150.489 240.623 149.742 240.436 149.076 240.062C148.422 239.677 147.903 239.145 147.517 238.468C147.132 237.779 146.939 236.979 146.939 236.069C146.939 235.158 147.132 234.364 147.517 233.687C147.914 232.998 148.446 232.466 149.111 232.093C149.777 231.707 150.518 231.515 151.335 231.515C152.165 231.515 152.906 231.707 153.56 232.093C154.225 232.466 154.751 232.998 155.136 233.687C155.533 234.364 155.732 235.158 155.732 236.069C155.732 236.979 155.533 237.779 155.136 238.468C154.751 239.145 154.225 239.677 153.56 240.062C152.894 240.436 152.147 240.623 151.318 240.623ZM151.318 239.029C151.762 239.029 152.17 238.918 152.544 238.696C152.929 238.474 153.239 238.147 153.472 237.715C153.706 237.271 153.823 236.723 153.823 236.069C153.823 235.415 153.706 234.872 153.472 234.44C153.25 233.996 152.947 233.663 152.562 233.441C152.188 233.22 151.779 233.109 151.335 233.109C150.892 233.109 150.477 233.22 150.092 233.441C149.718 233.663 149.415 233.996 149.181 234.44C148.948 234.872 148.831 235.415 148.831 236.069C148.831 236.723 148.948 237.271 149.181 237.715C149.415 238.147 149.718 238.474 150.092 238.696C150.466 238.918 150.874 239.029 151.318 239.029ZM160.945 240.623C159.894 240.623 159.065 240.296 158.458 239.642C157.862 238.988 157.564 238.013 157.564 236.717V231.725H159.421V236.524C159.421 238.205 160.11 239.046 161.488 239.046C162.177 239.046 162.743 238.801 163.187 238.311C163.63 237.82 163.852 237.12 163.852 236.209V231.725H165.709V240.412H164.063L163.922 238.889C163.654 239.426 163.257 239.852 162.731 240.167C162.218 240.471 161.622 240.623 160.945 240.623ZM171.013 240.412V229.658H167.388V228.152H176.478V229.658H172.87V240.412H171.013ZM180.478 240.623C179.427 240.623 178.598 240.296 177.991 239.642C177.396 238.988 177.098 238.013 177.098 236.717V231.725H178.954V236.524C178.954 238.205 179.643 239.046 181.021 239.046C181.71 239.046 182.276 238.801 182.72 238.311C183.164 237.82 183.386 237.12 183.386 236.209V231.725H185.242V240.412H183.596L183.456 238.889C183.187 239.426 182.79 239.852 182.265 240.167C181.751 240.471 181.155 240.623 180.478 240.623ZM192.491 240.623C191.814 240.623 191.212 240.488 190.687 240.22C190.173 239.951 189.764 239.572 189.461 239.081L189.268 240.412H187.604V227.802H189.461V233.074C189.741 232.665 190.126 232.303 190.617 231.988C191.107 231.672 191.738 231.515 192.508 231.515C193.349 231.515 194.091 231.713 194.733 232.11C195.375 232.507 195.877 233.05 196.239 233.739C196.613 234.428 196.799 235.21 196.799 236.086C196.799 236.962 196.613 237.744 196.239 238.433C195.877 239.11 195.375 239.648 194.733 240.045C194.091 240.43 193.343 240.623 192.491 240.623ZM192.176 239.011C192.97 239.011 193.623 238.743 194.137 238.205C194.651 237.657 194.908 236.944 194.908 236.069C194.908 235.496 194.791 234.989 194.558 234.545C194.324 234.101 194.003 233.757 193.594 233.511C193.186 233.255 192.713 233.126 192.176 233.126C191.382 233.126 190.728 233.4 190.214 233.949C189.712 234.498 189.461 235.205 189.461 236.069C189.461 236.944 189.712 237.657 190.214 238.205C190.728 238.743 191.382 239.011 192.176 239.011ZM202.871 240.623C202.019 240.623 201.26 240.436 200.594 240.062C199.94 239.677 199.426 239.145 199.053 238.468C198.679 237.791 198.492 237.003 198.492 236.104C198.492 235.193 198.673 234.393 199.035 233.704C199.409 233.015 199.923 232.478 200.577 232.093C201.242 231.707 202.013 231.515 202.889 231.515C203.741 231.515 204.482 231.707 205.113 232.093C205.744 232.466 206.234 232.968 206.584 233.599C206.935 234.23 207.11 234.924 207.11 235.683C207.11 235.8 207.104 235.929 207.092 236.069C207.092 236.197 207.086 236.343 207.075 236.506H200.314C200.372 237.347 200.647 237.989 201.137 238.433C201.639 238.865 202.217 239.081 202.871 239.081C203.397 239.081 203.834 238.964 204.185 238.731C204.547 238.486 204.815 238.159 204.99 237.75H206.847C206.613 238.567 206.146 239.251 205.446 239.799C204.757 240.348 203.899 240.623 202.871 240.623ZM202.871 233.039C202.252 233.039 201.703 233.225 201.225 233.599C200.746 233.961 200.454 234.51 200.349 235.245H205.253C205.218 234.568 204.979 234.031 204.535 233.634C204.091 233.237 203.537 233.039 202.871 233.039Z" fill="#F4FBFF"/>
<rect x="77.8467" y="208.412" width="428" height="52" rx="26" stroke="#8CFF00" stroke-width="0.973058"/>
</g>
<g filter="url(#filter4_b_3010_7005)">
<rect x="104.037" y="276.1" width="387" height="52" rx="26" fill="url(#paint5_linear_3010_7005)"/>
<path d="M157.121 294.1H141.121C140.021 294.1 139.131 295 139.131 296.1L139.121 308.1C139.121 309.2 140.021 310.1 141.121 310.1H157.121C158.221 310.1 159.121 309.2 159.121 308.1V296.1C159.121 295 158.221 294.1 157.121 294.1ZM141.121 299.1H151.621V302.6H141.121V299.1ZM141.121 304.6H151.621V308.1H142.121C141.571 308.1 141.121 307.65 141.121 307.1V304.6ZM156.121 308.1H153.621V299.1H157.121V307.1C157.121 307.65 156.671 308.1 156.121 308.1Z" fill="#8CFF00"/>
<path d="M171.407 308.117L168.097 295.839H170.094L172.528 305.998L175.331 295.839H177.38L180.095 305.998L182.529 295.839H184.526L181.163 308.1H178.991L176.312 298.484L173.544 308.1L171.407 308.117ZM189.317 308.31C188.464 308.31 187.705 308.123 187.04 307.749C186.386 307.364 185.872 306.833 185.498 306.155C185.125 305.478 184.938 304.69 184.938 303.791C184.938 302.88 185.119 302.08 185.481 301.391C185.854 300.702 186.368 300.165 187.022 299.78C187.688 299.395 188.458 299.202 189.334 299.202C190.186 299.202 190.928 299.395 191.558 299.78C192.189 300.154 192.679 300.656 193.03 301.286C193.38 301.917 193.555 302.612 193.555 303.371C193.555 303.487 193.549 303.616 193.538 303.756C193.538 303.884 193.532 304.03 193.52 304.194H186.759C186.818 305.034 187.092 305.677 187.583 306.12C188.085 306.552 188.663 306.768 189.317 306.768C189.842 306.768 190.28 306.652 190.63 306.418C190.992 306.173 191.261 305.846 191.436 305.437H193.292C193.059 306.255 192.592 306.938 191.891 307.487C191.202 308.035 190.344 308.31 189.317 308.31ZM189.317 300.726C188.698 300.726 188.149 300.913 187.67 301.286C187.191 301.648 186.899 302.197 186.794 302.933H191.699C191.664 302.255 191.424 301.718 190.98 301.321C190.537 300.924 189.982 300.726 189.317 300.726ZM200.368 308.31C199.691 308.31 199.09 308.176 198.564 307.907C198.05 307.638 197.642 307.259 197.338 306.768L197.145 308.1H195.482V295.489H197.338V300.761C197.618 300.352 198.004 299.99 198.494 299.675C198.985 299.36 199.615 299.202 200.386 299.202C201.227 299.202 201.968 299.4 202.61 299.797C203.252 300.194 203.755 300.737 204.116 301.426C204.49 302.115 204.677 302.898 204.677 303.773C204.677 304.649 204.49 305.431 204.116 306.12C203.755 306.798 203.252 307.335 202.61 307.732C201.968 308.117 201.221 308.31 200.368 308.31ZM200.053 306.698C200.847 306.698 201.501 306.43 202.015 305.893C202.528 305.344 202.785 304.632 202.785 303.756C202.785 303.184 202.669 302.676 202.435 302.232C202.202 301.788 201.88 301.444 201.472 301.199C201.063 300.942 200.59 300.813 200.053 300.813C199.259 300.813 198.605 301.088 198.091 301.637C197.589 302.185 197.338 302.892 197.338 303.756C197.338 304.632 197.589 305.344 198.091 305.893C198.605 306.43 199.259 306.698 200.053 306.698ZM210.153 308.31C209.055 308.31 208.15 308.041 207.438 307.504C206.726 306.967 206.317 306.255 206.212 305.367L208.086 305.367C208.18 305.764 208.402 306.109 208.752 306.401C209.102 306.681 209.563 306.821 210.136 306.821C210.696 306.821 211.105 306.704 211.362 306.471C211.618 306.237 211.747 305.969 211.747 305.665C211.747 305.221 211.566 304.924 211.204 304.772C210.854 304.608 210.363 304.462 209.733 304.334C209.242 304.229 208.752 304.089 208.261 303.914C207.783 303.738 207.38 303.493 207.053 303.178C206.738 302.851 206.58 302.413 206.58 301.864C206.58 301.105 206.872 300.475 207.456 299.973C208.04 299.459 208.857 299.202 209.908 299.202C210.877 299.202 211.659 299.435 212.255 299.903C212.862 300.37 213.218 301.029 213.323 301.882H211.537C211.478 301.508 211.303 301.216 211.011 301.006C210.731 300.796 210.352 300.691 209.873 300.691C209.406 300.691 209.044 300.79 208.787 300.988C208.53 301.175 208.402 301.421 208.402 301.724C208.402 302.028 208.577 302.267 208.927 302.442C209.289 302.617 209.762 302.775 210.346 302.915C210.93 303.044 211.467 303.195 211.957 303.371C212.459 303.534 212.862 303.779 213.166 304.106C213.469 304.433 213.621 304.912 213.621 305.542C213.633 306.336 213.323 306.996 212.693 307.522C212.074 308.047 211.227 308.31 210.153 308.31ZM216.699 297.766C216.348 297.766 216.057 297.661 215.823 297.45C215.601 297.229 215.49 296.954 215.49 296.627C215.49 296.3 215.601 296.032 215.823 295.822C216.057 295.6 216.348 295.489 216.699 295.489C217.049 295.489 217.335 295.6 217.557 295.822C217.79 296.032 217.907 296.3 217.907 296.627C217.907 296.954 217.79 297.229 217.557 297.45C217.335 297.661 217.049 297.766 216.699 297.766ZM215.77 308.1V299.412H217.627V308.1H215.77ZM223.721 308.1C222.869 308.1 222.191 307.895 221.689 307.487C221.187 307.066 220.936 306.325 220.936 305.262V300.971H219.447V299.412H220.936L221.164 297.205H222.793V299.412H225.245V300.971H222.793V305.262C222.793 305.741 222.892 306.074 223.09 306.261C223.301 306.436 223.657 306.523 224.159 306.523H225.157V308.1H223.721ZM231 308.31C230.148 308.31 229.389 308.123 228.723 307.749C228.069 307.364 227.556 306.833 227.182 306.155C226.808 305.478 226.622 304.69 226.622 303.791C226.622 302.88 226.803 302.08 227.165 301.391C227.538 300.702 228.052 300.165 228.706 299.78C229.371 299.395 230.142 299.202 231.018 299.202C231.87 299.202 232.612 299.395 233.242 299.78C233.873 300.154 234.363 300.656 234.714 301.286C235.064 301.917 235.239 302.612 235.239 303.371C235.239 303.487 235.233 303.616 235.221 303.756C235.221 303.884 235.216 304.03 235.204 304.194H228.443C228.501 305.034 228.776 305.677 229.266 306.12C229.768 306.552 230.346 306.768 231 306.768C231.526 306.768 231.964 306.652 232.314 306.418C232.676 306.173 232.944 305.846 233.12 305.437H234.976C234.743 306.255 234.276 306.938 233.575 307.487C232.886 308.035 232.028 308.31 231 308.31ZM231 300.726C230.381 300.726 229.833 300.913 229.354 301.286C228.875 301.648 228.583 302.197 228.478 302.933H233.382C233.347 302.255 233.108 301.718 232.664 301.321C232.221 300.924 231.666 300.726 231 300.726ZM245.537 308.31C244.696 308.31 243.955 308.111 243.312 307.714C242.67 307.317 242.168 306.774 241.806 306.085C241.444 305.396 241.263 304.614 241.263 303.738C241.263 302.863 241.444 302.086 241.806 301.409C242.168 300.72 242.67 300.183 243.312 299.797C243.966 299.4 244.713 299.202 245.554 299.202C246.243 299.202 246.844 299.336 247.358 299.605C247.884 299.873 248.292 300.253 248.584 300.743V295.489H250.441V308.1H248.777L248.584 306.751C248.304 307.16 247.919 307.522 247.428 307.837C246.938 308.152 246.307 308.31 245.537 308.31ZM245.869 306.698C246.664 306.698 247.312 306.424 247.814 305.875C248.327 305.326 248.584 304.62 248.584 303.756C248.584 302.88 248.327 302.174 247.814 301.637C247.312 301.088 246.664 300.813 245.869 300.813C245.075 300.813 244.422 301.088 243.908 301.637C243.394 302.174 243.137 302.88 243.137 303.756C243.137 304.328 243.254 304.836 243.487 305.28C243.721 305.723 244.042 306.074 244.451 306.331C244.871 306.576 245.344 306.698 245.869 306.698ZM256.845 308.31C256.016 308.31 255.269 308.123 254.603 307.749C253.949 307.364 253.43 306.833 253.045 306.155C252.659 305.467 252.467 304.667 252.467 303.756C252.467 302.845 252.659 302.051 253.045 301.374C253.442 300.685 253.973 300.154 254.638 299.78C255.304 299.395 256.045 299.202 256.863 299.202C257.692 299.202 258.433 299.395 259.087 299.78C259.753 300.154 260.278 300.685 260.664 301.374C261.061 302.051 261.259 302.845 261.259 303.756C261.259 304.667 261.061 305.467 260.664 306.155C260.278 306.833 259.753 307.364 259.087 307.749C258.422 308.123 257.674 308.31 256.845 308.31ZM256.845 306.716C257.289 306.716 257.698 306.605 258.071 306.383C258.457 306.161 258.766 305.834 259 305.402C259.233 304.959 259.35 304.41 259.35 303.756C259.35 303.102 259.233 302.559 259 302.127C258.778 301.683 258.474 301.35 258.089 301.129C257.715 300.907 257.306 300.796 256.863 300.796C256.419 300.796 256.005 300.907 255.619 301.129C255.246 301.35 254.942 301.683 254.708 302.127C254.475 302.559 254.358 303.102 254.358 303.756C254.358 304.41 254.475 304.959 254.708 305.402C254.942 305.834 255.246 306.161 255.619 306.383C255.993 306.605 256.402 306.716 256.845 306.716ZM263.267 308.1V299.412H264.913L265.071 300.638C265.351 300.194 265.719 299.844 266.174 299.587C266.641 299.33 267.179 299.202 267.786 299.202C269.164 299.202 270.121 299.745 270.658 300.831C270.973 300.329 271.394 299.932 271.919 299.64C272.456 299.348 273.034 299.202 273.653 299.202C274.739 299.202 275.592 299.529 276.21 300.183C276.829 300.837 277.139 301.812 277.139 303.108V308.1H275.282V303.3C275.282 301.619 274.64 300.778 273.356 300.778C272.702 300.778 272.165 301.024 271.744 301.514C271.335 302.004 271.131 302.705 271.131 303.616V308.1H269.275V303.3C269.275 301.619 268.626 300.778 267.33 300.778C266.688 300.778 266.157 301.024 265.736 301.514C265.328 302.004 265.123 302.705 265.123 303.616V308.1H263.267ZM282.253 308.31C281.518 308.31 280.911 308.187 280.432 307.942C279.953 307.697 279.597 307.376 279.363 306.979C279.13 306.57 279.013 306.126 279.013 305.648C279.013 304.807 279.34 304.141 279.994 303.651C280.648 303.16 281.582 302.915 282.796 302.915H285.073V302.758C285.073 302.08 284.887 301.572 284.513 301.234C284.151 300.895 283.678 300.726 283.094 300.726C282.58 300.726 282.131 300.854 281.746 301.111C281.372 301.356 281.144 301.724 281.062 302.215H279.206C279.264 301.584 279.474 301.047 279.836 300.603C280.21 300.148 280.677 299.803 281.238 299.57C281.81 299.325 282.434 299.202 283.112 299.202C284.326 299.202 285.266 299.523 285.932 300.165C286.597 300.796 286.93 301.66 286.93 302.758V308.1H285.319L285.161 306.611C284.916 307.09 284.56 307.492 284.093 307.819C283.625 308.146 283.012 308.31 282.253 308.31ZM282.621 306.803C283.123 306.803 283.544 306.687 283.882 306.453C284.233 306.208 284.501 305.887 284.688 305.49C284.887 305.093 285.009 304.655 285.056 304.176H282.989C282.253 304.176 281.728 304.305 281.413 304.562C281.109 304.818 280.957 305.14 280.957 305.525C280.957 305.922 281.103 306.237 281.395 306.471C281.699 306.693 282.107 306.803 282.621 306.803ZM290.146 297.766C289.795 297.766 289.503 297.661 289.27 297.45C289.048 297.229 288.937 296.954 288.937 296.627C288.937 296.3 289.048 296.032 289.27 295.822C289.503 295.6 289.795 295.489 290.146 295.489C290.496 295.489 290.782 295.6 291.004 295.822C291.237 296.032 291.354 296.3 291.354 296.627C291.354 296.954 291.237 297.229 291.004 297.45C290.782 297.661 290.496 297.766 290.146 297.766ZM289.217 308.1V299.412H291.074V308.1H289.217ZM293.525 308.1V299.412H295.171L295.311 300.936C295.58 300.399 295.971 299.978 296.485 299.675C297.01 299.36 297.612 299.202 298.289 299.202C299.34 299.202 300.163 299.529 300.759 300.183C301.366 300.837 301.669 301.812 301.669 303.108V308.1H299.83V303.3C299.83 301.619 299.141 300.778 297.763 300.778C297.075 300.778 296.502 301.024 296.047 301.514C295.603 302.004 295.381 302.705 295.381 303.616V308.1H293.525Z" fill="#F4FBFF"/>
<rect x="104.037" y="276.1" width="387" height="52" rx="26" stroke="#8CFF00" stroke-width="0.973058"/>
</g>
</g>
<g filter="url(#filter5_b_3010_7005)">
<rect x="333.67" y="292.774" width="221.684" height="51.346" rx="25.673" transform="rotate(13.1328 333.67 292.774)" fill="url(#paint6_linear_3010_7005)"/>
<rect x="333.67" y="292.774" width="221.684" height="51.346" rx="25.673" transform="rotate(13.1328 333.67 292.774)" fill="#8CFF00"/>
<path d="M371.569 334.355C370.718 334.157 370.01 333.836 369.443 333.393C368.891 332.941 368.503 332.402 368.278 331.776C368.054 331.15 368.026 330.474 368.195 329.748C368.381 328.954 368.767 328.297 369.355 327.776C369.954 327.259 370.734 326.914 371.694 326.744C371.427 326.251 371.256 325.805 371.182 325.405C371.108 325.005 371.121 324.589 371.221 324.158C371.404 323.376 371.838 322.796 372.524 322.418C373.213 322.029 374.062 321.952 375.071 322.187C375.729 322.34 376.267 322.598 376.685 322.958C377.103 323.319 377.388 323.738 377.539 324.216C377.691 324.693 377.699 325.197 377.563 325.728L375.811 325.319C375.928 324.868 375.867 324.489 375.628 324.182C375.4 323.878 375.099 323.682 374.725 323.595C374.282 323.492 373.902 323.534 373.583 323.723C373.266 323.9 373.065 324.176 372.977 324.55C372.901 324.879 372.916 325.223 373.023 325.583C373.142 325.946 373.348 326.37 373.641 326.857L376.349 331.238C376.733 330.873 377.158 330.434 377.625 329.921L378.262 329.191L380.133 329.627L379.162 330.71C378.486 331.509 377.849 332.162 377.253 332.668L379.287 335.941L377.076 335.425L375.968 333.642C375.243 334.082 374.527 334.358 373.82 334.468C373.113 334.578 372.362 334.54 371.569 334.355ZM369.971 330.054C369.823 330.69 369.927 331.27 370.283 331.795C370.65 332.323 371.207 332.674 371.956 332.849C372.511 332.979 373.038 333 373.537 332.913C374.038 332.815 374.557 332.589 375.094 332.236L372.499 328.062C371.778 328.18 371.204 328.411 370.777 328.754C370.364 329.088 370.096 329.522 369.971 330.054ZM384.95 337.262L386.918 328.825L388.517 329.198L388.392 330.425C388.765 330.057 389.202 329.8 389.702 329.654C390.214 329.51 390.765 329.507 391.354 329.645C392.692 329.957 393.499 330.701 393.775 331.878C394.195 331.461 394.693 331.171 395.269 331.007C395.857 330.845 396.451 330.834 397.052 330.974C398.107 331.22 398.861 331.731 399.313 332.506C399.766 333.281 399.846 334.298 399.552 335.557L398.421 340.405L396.618 339.984L397.706 335.324C398.087 333.691 397.653 332.729 396.406 332.438C395.771 332.29 395.194 332.406 394.674 332.787C394.166 333.171 393.809 333.805 393.603 334.689L392.587 339.044L390.784 338.623L391.871 333.962C392.252 332.329 391.814 331.366 390.555 331.073C389.931 330.927 389.36 331.045 388.84 331.426C388.332 331.809 387.975 332.444 387.769 333.328L386.753 337.682L384.95 337.262ZM404.429 342.022C403.624 341.834 402.941 341.483 402.379 340.969C401.831 340.447 401.447 339.813 401.226 339.068C401.008 338.312 401.002 337.492 401.209 336.607C401.415 335.723 401.782 334.995 402.31 334.425C402.851 333.846 403.488 333.45 404.219 333.238C404.952 333.015 405.716 332.996 406.51 333.181C407.315 333.369 407.991 333.724 408.539 334.246C409.101 334.76 409.491 335.395 409.709 336.151C409.941 336.899 409.954 337.715 409.747 338.599C409.541 339.484 409.167 340.216 408.625 340.795C408.098 341.365 407.467 341.762 406.733 341.985C406.002 342.197 405.234 342.21 404.429 342.022ZM404.79 340.474C405.221 340.574 405.643 340.559 406.056 340.428C406.481 340.3 406.855 340.053 407.18 339.686C407.507 339.308 407.745 338.802 407.893 338.167C408.041 337.532 408.051 336.978 407.922 336.506C407.807 336.024 407.588 335.632 407.264 335.33C406.951 335.03 406.58 334.829 406.149 334.729C405.718 334.628 405.29 334.642 404.866 334.77C404.452 334.901 404.082 335.155 403.755 335.533C403.43 335.9 403.194 336.401 403.046 337.036C402.898 337.671 402.887 338.23 403.013 338.714C403.142 339.186 403.362 339.573 403.675 339.873C403.988 340.173 404.359 340.373 404.79 340.474ZM410.713 343.273L412.681 334.836L414.297 335.213L414.077 336.848C414.502 336.361 415.012 336.019 415.608 335.824C416.217 335.619 416.896 335.604 417.645 335.779L417.204 337.667L416.711 337.552C416.212 337.435 415.744 337.416 415.308 337.493C414.885 337.562 414.508 337.767 414.178 338.108C413.861 338.441 413.622 338.953 413.46 339.645L412.516 343.693L410.713 343.273ZM420.841 345.851C420.013 345.658 419.318 345.304 418.756 344.79C418.209 344.268 417.83 343.636 417.621 342.893C417.411 342.151 417.408 341.343 417.612 340.47C417.818 339.586 418.175 338.85 418.683 338.263C419.202 337.679 419.823 337.273 420.545 337.047C421.279 336.824 422.071 336.811 422.921 337.01C423.749 337.203 424.425 337.558 424.95 338.075C425.478 338.581 425.841 339.18 426.038 339.871C426.235 340.563 426.248 341.277 426.076 342.014C426.049 342.128 426.015 342.251 425.972 342.385C425.942 342.509 425.904 342.65 425.855 342.806L419.29 341.274C419.156 342.104 419.277 342.79 419.653 343.332C420.042 343.865 420.555 344.206 421.19 344.354C421.7 344.473 422.152 344.459 422.545 344.311C422.952 344.155 423.287 343.899 423.549 343.541L425.352 343.962C424.94 344.703 424.332 345.26 423.527 345.635C422.734 346.011 421.838 346.083 420.841 345.851ZM422.559 338.486C421.958 338.345 421.383 338.402 420.833 338.657C420.286 338.9 419.878 339.367 419.609 340.057L424.372 341.168C424.492 340.503 424.381 339.927 424.04 339.441C423.699 338.955 423.205 338.636 422.559 338.486ZM434.699 348.869C433.871 348.676 433.259 348.324 432.864 347.813C432.472 347.291 432.396 346.514 432.637 345.482L433.609 341.315L432.164 340.978L432.517 339.464L433.963 339.801L434.684 337.709L436.266 338.079L435.766 340.222L438.147 340.777L437.794 342.291L435.412 341.736L434.44 345.903C434.332 346.368 434.353 346.713 434.503 346.94C434.667 347.158 434.993 347.323 435.481 347.437L436.451 347.663L436.093 349.194L434.699 348.869ZM441.72 350.722C440.915 350.534 440.232 350.183 439.67 349.67C439.122 349.147 438.738 348.514 438.517 347.769C438.299 347.012 438.293 346.192 438.5 345.308C438.706 344.423 439.073 343.696 439.601 343.125C440.142 342.546 440.779 342.151 441.51 341.939C442.243 341.715 443.007 341.696 443.801 341.881C444.606 342.069 445.282 342.424 445.83 342.947C446.392 343.46 446.782 344.095 447 344.852C447.232 345.599 447.245 346.415 447.038 347.3C446.832 348.184 446.458 348.916 445.916 349.495C445.389 350.065 444.758 350.462 444.024 350.686C443.293 350.898 442.525 350.91 441.72 350.722ZM442.081 349.174C442.512 349.275 442.934 349.26 443.347 349.129C443.772 349.001 444.146 348.753 444.471 348.387C444.798 348.009 445.036 347.502 445.184 346.867C445.332 346.232 445.342 345.678 445.213 345.206C445.098 344.725 444.879 344.333 444.555 344.03C444.242 343.73 443.87 343.53 443.44 343.429C443.009 343.329 442.581 343.342 442.157 343.47C441.743 343.601 441.373 343.856 441.046 344.234C440.721 344.6 440.485 345.101 440.337 345.736C440.188 346.371 440.177 346.931 440.304 347.414C440.433 347.887 440.653 348.273 440.966 348.573C441.279 348.873 441.65 349.074 442.081 349.174ZM456.239 354.11C455.411 353.916 454.712 353.556 454.142 353.028C453.583 352.503 453.193 351.868 452.972 351.123C452.765 350.37 452.764 349.556 452.967 348.683C453.171 347.81 453.531 347.087 454.048 346.514C454.578 345.932 455.21 345.53 455.943 345.306C456.688 345.085 457.475 345.072 458.303 345.265C459.346 345.508 460.156 345.984 460.732 346.692C461.319 347.403 461.606 348.247 461.593 349.225L459.705 348.784C459.7 348.293 459.536 347.872 459.211 347.521C458.886 347.17 458.463 346.934 457.942 346.813C457.499 346.709 457.065 346.727 456.637 346.867C456.213 346.995 455.837 347.248 455.51 347.626C455.185 347.993 454.95 348.488 454.804 349.112C454.659 349.735 454.649 350.289 454.776 350.773C454.905 351.245 455.13 351.639 455.451 351.953C455.772 352.267 456.154 352.475 456.596 352.579C457.118 352.7 457.602 352.676 458.048 352.505C458.495 352.334 458.83 352.024 459.055 351.574L460.943 352.014C460.538 352.877 459.914 353.502 459.07 353.891C458.226 354.28 457.282 354.353 456.239 354.11ZM466.138 356.419C465.333 356.231 464.649 355.88 464.088 355.367C463.54 354.844 463.156 354.211 462.935 353.466C462.717 352.709 462.711 351.889 462.917 351.004C463.124 350.12 463.491 349.393 464.018 348.822C464.56 348.243 465.196 347.847 465.927 347.635C466.661 347.412 467.425 347.393 468.218 347.578C469.024 347.766 469.7 348.121 470.248 348.643C470.809 349.157 471.199 349.792 471.417 350.548C471.649 351.296 471.662 352.112 471.456 352.997C471.25 353.881 470.876 354.613 470.334 355.192C469.806 355.762 469.176 356.159 468.442 356.383C467.711 356.595 466.943 356.607 466.138 356.419ZM466.499 354.871C466.93 354.972 467.352 354.957 467.765 354.826C468.189 354.698 468.564 354.45 468.889 354.084C469.216 353.706 469.454 353.199 469.602 352.564C469.75 351.929 469.76 351.375 469.631 350.903C469.516 350.422 469.296 350.03 468.973 349.727C468.66 349.427 468.288 349.226 467.857 349.126C467.426 349.025 466.999 349.039 466.574 349.167C466.161 349.298 465.791 349.553 465.464 349.931C465.139 350.297 464.902 350.798 464.754 351.433C464.606 352.068 464.595 352.627 464.721 353.111C464.85 353.584 465.071 353.97 465.384 354.27C465.696 354.57 466.068 354.771 466.499 354.871ZM472.422 357.67L474.39 349.233L475.989 349.606L475.864 350.833C476.237 350.465 476.673 350.208 477.174 350.062C477.686 349.918 478.236 349.915 478.826 350.053C480.164 350.365 480.971 351.109 481.246 352.286C481.666 351.87 482.165 351.579 482.741 351.415C483.329 351.253 483.923 351.242 484.524 351.382C485.579 351.628 486.332 352.139 486.785 352.914C487.238 353.69 487.318 354.707 487.024 355.965L485.893 360.813L484.09 360.392L485.177 355.732C485.558 354.099 485.125 353.137 483.878 352.846C483.243 352.698 482.666 352.814 482.146 353.195C481.638 353.579 481.281 354.213 481.075 355.097L480.059 359.452L478.256 359.031L479.343 354.37C479.724 352.738 479.285 351.774 478.027 351.481C477.403 351.335 476.831 351.453 476.312 351.834C475.804 352.218 475.447 352.852 475.24 353.736L474.225 358.091L472.422 357.67ZM491.901 362.43C491.073 362.237 490.378 361.883 489.817 361.37C489.269 360.847 488.89 360.215 488.681 359.473C488.472 358.73 488.469 357.922 488.672 357.049C488.879 356.165 489.236 355.429 489.743 354.842C490.262 354.258 490.883 353.852 491.605 353.626C492.339 353.403 493.131 353.391 493.982 353.589C494.809 353.782 495.486 354.137 496.011 354.654C496.538 355.16 496.901 355.759 497.098 356.45C497.296 357.142 497.308 357.856 497.136 358.594C497.11 358.707 497.075 358.83 497.032 358.964C497.003 359.089 496.964 359.229 496.916 359.385L490.35 357.853C490.216 358.683 490.337 359.369 490.713 359.911C491.103 360.444 491.615 360.785 492.25 360.933C492.76 361.052 493.212 361.038 493.605 360.89C494.012 360.734 494.347 360.478 494.61 360.12L496.413 360.541C496.001 361.282 495.393 361.84 494.588 362.214C493.794 362.591 492.899 362.663 491.901 362.43ZM493.619 355.065C493.018 354.925 492.443 354.982 491.893 355.236C491.346 355.479 490.939 355.946 490.67 356.636L495.433 357.748C495.552 357.082 495.441 356.506 495.1 356.02C494.759 355.534 494.266 355.216 493.619 355.065ZM499.131 360.189L500.884 351.756L502.823 352.208L500.662 360.546L499.131 360.189ZM499.102 364.002C498.751 363.92 498.487 363.745 498.31 363.477C498.148 363.2 498.102 362.908 498.174 362.602C498.248 362.284 498.418 362.043 498.683 361.878C498.963 361.704 499.279 361.658 499.63 361.74C499.959 361.817 500.205 361.994 500.367 362.271C500.544 362.539 500.595 362.832 500.521 363.15C500.45 363.456 500.274 363.696 499.994 363.87C499.729 364.035 499.431 364.079 499.102 364.002Z" fill="#052233"/>
<rect x="333.67" y="292.774" width="221.684" height="51.346" rx="25.673" transform="rotate(13.1328 333.67 292.774)" stroke="#8CFF00" stroke-width="0.97034"/>
</g>
<rect x="606.71" y="31.1067" width="5.6725" height="5.67241" stroke="#F4FBFF" stroke-width="0.5"/>
<rect x="605.248" y="32.731" width="5.6725" height="5.67241" stroke="#F4FBFF" stroke-width="0.5"/>
<line x1="584.363" y1="34.5051" x2="591.998" y2="34.5051" stroke="#F4FBFF" stroke-width="0.5"/>
<path d="M631.5 31.9985L625.986 37.5117M631.146 37.5118L625.633 31.9986" stroke="#F4FBFF" stroke-width="0.5"/>
<path fill-rule="evenodd" clip-rule="evenodd" d="M522.038 223.486H522.042C548.176 223.484 569.362 202.297 569.362 176.162C569.362 150.025 548.174 128.837 522.037 128.837C495.901 128.837 474.713 150.025 474.713 176.162C474.713 202.298 495.901 223.486 522.038 223.486ZM535.729 209.013C531.92 217.48 526.967 221.99 522.045 221.995H522.038C517.113 221.995 512.157 217.484 508.347 209.013C506.716 205.387 505.348 201.139 504.324 196.433C516.622 195.129 527.484 195.038 539.779 196.305C538.752 201.062 537.374 205.354 535.729 209.013ZM502.244 176.329C502.254 182.978 502.89 189.281 504.019 194.966C516.528 193.63 527.565 193.537 540.082 194.837C541.195 189.187 541.821 182.928 541.832 176.329H502.244ZM527.988 221.612C533.86 217.818 538.684 208.554 541.27 196.465C547.487 197.154 554.092 198.186 561.445 199.578C554.414 211.386 542.226 219.766 527.988 221.612ZM541.57 194.998C547.928 195.707 554.689 196.771 562.229 198.209C565.8 191.713 567.842 184.258 567.87 176.329H543.323C543.313 182.962 542.689 189.274 541.57 194.998ZM481.85 198.218C489.399 196.888 496.166 195.852 502.531 195.13C501.396 189.371 500.762 183.013 500.752 176.329H476.205C476.233 184.262 478.277 191.72 481.85 198.218ZM502.833 196.596C496.611 197.298 490 198.303 482.639 199.593C489.671 211.393 501.855 219.767 516.087 221.612C510.237 217.832 505.426 208.621 502.833 196.596ZM541.823 174.837H502.252C502.337 168.04 503.075 161.626 504.323 155.892C516.463 157.089 527.257 157.073 539.739 155.832C540.994 161.581 541.738 168.017 541.823 174.837ZM539.404 154.367C527.165 155.572 516.559 155.589 504.657 154.426C505.638 150.301 506.886 146.556 508.347 143.31C512.157 134.839 517.113 130.329 522.038 130.329C526.963 130.329 531.918 134.839 535.729 143.31C537.182 146.541 538.425 150.265 539.404 154.367ZM540.901 154.214C538.239 142.932 533.591 134.331 527.988 130.712C541.7 132.49 553.51 140.327 560.645 151.451C553.417 152.657 546.949 153.578 540.901 154.214ZM541.231 155.679C547.411 155.024 554.023 154.075 561.425 152.832L561.397 152.665C565.296 159.182 567.622 166.747 567.851 174.837H543.315C543.23 167.988 542.491 161.503 541.231 155.679ZM503.16 154.275C505.819 142.963 510.475 134.338 516.087 130.712C502.374 132.489 490.562 140.328 483.428 151.453C490.623 152.695 497.074 153.636 503.16 154.275ZM502.83 155.739C496.613 155.082 490.016 154.112 482.645 152.831L482.673 152.672C478.777 159.187 476.453 166.75 476.223 174.837H500.76C500.844 168.012 501.579 161.548 502.83 155.739Z" fill="#83DDDD"/>
<rect x="522.037" y="117.924" width="56.874" height="22.0788" rx="11.0394" fill="#F4FBFF"/>
<path d="M542.311 130.963C541.882 130.963 541.525 130.827 541.239 130.555C540.968 130.27 540.832 129.934 540.832 129.548C540.832 129.148 540.968 128.812 541.239 128.541C541.525 128.255 541.882 128.112 542.311 128.112C542.739 128.112 543.089 128.255 543.361 128.541C543.632 128.812 543.768 129.148 543.768 129.548C543.768 129.934 543.632 130.27 543.361 130.555C543.089 130.827 542.739 130.963 542.311 130.963ZM550.278 130.963C549.85 130.963 549.493 130.827 549.207 130.555C548.935 130.27 548.8 129.934 548.8 129.548C548.8 129.148 548.935 128.812 549.207 128.541C549.493 128.255 549.85 128.112 550.278 128.112C550.707 128.112 551.057 128.255 551.328 128.541C551.6 128.812 551.736 129.148 551.736 129.548C551.736 129.934 551.6 130.27 551.328 130.555C551.057 130.827 550.707 130.963 550.278 130.963ZM558.246 130.963C557.817 130.963 557.46 130.827 557.175 130.555C556.903 130.27 556.767 129.934 556.767 129.548C556.767 129.148 556.903 128.812 557.175 128.541C557.46 128.255 557.817 128.112 558.246 128.112C558.675 128.112 559.025 128.255 559.296 128.541C559.568 128.812 559.703 129.148 559.703 129.548C559.703 129.934 559.568 130.27 559.296 130.555C559.025 130.827 558.675 130.963 558.246 130.963Z" fill="#052233"/>
<ellipse opacity="0.5" cx="525.164" cy="238.075" rx="81.2964" ry="9.34668" fill="url(#paint7_radial_3010_7005)"/>
<defs>
<filter id="filter0_d_3010_7005" x="115.268" y="0" width="563.77" height="57.7134" filterUnits="userSpaceOnUse" color-interpolation-filters="sRGB">
<feFlood flood-opacity="0" result="BackgroundImageFix"/>
<feColorMatrix in="SourceAlpha" type="matrix" values="0 0 0 0 0 0 0 0 0 0 0 0 0 0 0 0 0 0 127 0" result="hardAlpha"/>
<feOffset dx="5" dy="-2"/>
<feGaussianBlur stdDeviation="6"/>
<feComposite in2="hardAlpha" operator="out"/>
<feColorMatrix type="matrix" values="0 0 0 0 0.0196078 0 0 0 0 0.133333 0 0 0 0 0.2 0 0 0 0.3 0"/>
<feBlend mode="normal" in2="BackgroundImageFix" result="effect1_dropShadow_3010_7005"/>
<feBlend mode="normal" in="SourceGraphic" in2="effect1_dropShadow_3010_7005" result="shape"/>
</filter>
<filter id="filter1_b_3010_7005" x="31.8806" y="64.7163" width="463.542" height="68.5421" filterUnits="userSpaceOnUse" color-interpolation-filters="sRGB">
<feFlood flood-opacity="0" result="BackgroundImageFix"/>
<feGaussianBlur in="BackgroundImageFix" stdDeviation="3.89223"/>
<feComposite in2="SourceAlpha" operator="in" result="effect1_backgroundBlur_3010_7005"/>
<feBlend mode="normal" in="SourceGraphic" in2="effect1_backgroundBlur_3010_7005" result="shape"/>
</filter>
<filter id="filter2_b_3010_7005" x="50.8659" y="133.056" width="452.542" height="67.5421" filterUnits="userSpaceOnUse" color-interpolation-filters="sRGB">
<feFlood flood-opacity="0" result="BackgroundImageFix"/>
<feGaussianBlur in="BackgroundImageFix" stdDeviation="3.89223"/>
<feComposite in2="SourceAlpha" operator="in" result="effect1_backgroundBlur_3010_7005"/>
<feBlend mode="normal" in="SourceGraphic" in2="effect1_backgroundBlur_3010_7005" result="shape"/>
</filter>
<filter id="filter3_b_3010_7005" x="69.5759" y="200.141" width="444.542" height="68.5421" filterUnits="userSpaceOnUse" color-interpolation-filters="sRGB">
<feFlood flood-opacity="0" result="BackgroundImageFix"/>
<feGaussianBlur in="BackgroundImageFix" stdDeviation="3.89223"/>
<feComposite in2="SourceAlpha" operator="in" result="effect1_backgroundBlur_3010_7005"/>
<feBlend mode="normal" in="SourceGraphic" in2="effect1_backgroundBlur_3010_7005" result="shape"/>
</filter>
<filter id="filter4_b_3010_7005" x="95.7663" y="267.829" width="403.542" height="68.5421" filterUnits="userSpaceOnUse" color-interpolation-filters="sRGB">
<feFlood flood-opacity="0" result="BackgroundImageFix"/>
<feGaussianBlur in="BackgroundImageFix" stdDeviation="3.89223"/>
<feComposite in2="SourceAlpha" operator="in" result="effect1_backgroundBlur_3010_7005"/>
<feBlend mode="normal" in="SourceGraphic" in2="effect1_backgroundBlur_3010_7005" result="shape"/>
</filter>
<filter id="filter5_b_3010_7005" x="314.241" y="285.011" width="243.077" height="115.897" filterUnits="userSpaceOnUse" color-interpolation-filters="sRGB">
<feFlood flood-opacity="0" result="BackgroundImageFix"/>
<feGaussianBlur in="BackgroundImageFix" stdDeviation="3.88136"/>
<feComposite in2="SourceAlpha" operator="in" result="effect1_backgroundBlur_3010_7005"/>
<feBlend mode="normal" in="SourceGraphic" in2="effect1_backgroundBlur_3010_7005" result="shape"/>
</filter>
<linearGradient id="paint0_linear_3010_7005" x1="648.227" y1="320.741" x2="135.919" y2="320.741" gradientUnits="userSpaceOnUse">
<stop stop-color="#072435"/>
<stop offset="0.523958" stop-color="#103042"/>
<stop offset="1" stop-color="#112D3E"/>
</linearGradient>
<linearGradient id="paint1_linear_3010_7005" x1="233.258" y1="285.029" x2="422.943" y2="285.029" gradientUnits="userSpaceOnUse">
<stop/>
<stop offset="1" stop-opacity="0"/>
</linearGradient>
<linearGradient id="paint2_linear_3010_7005" x1="56.3077" y1="105.564" x2="480.166" y2="121.528" gradientUnits="userSpaceOnUse">
<stop stop-color="#12303A"/>
<stop offset="0.503125" stop-color="#1B4036"/>
<stop offset="1" stop-color="#112F39"/>
</linearGradient>
<linearGradient id="paint3_linear_3010_7005" x1="74.8955" y1="173.277" x2="488.329" y2="188.764" gradientUnits="userSpaceOnUse">
<stop stop-color="#12303A"/>
<stop offset="0.503125" stop-color="#1B4036"/>
<stop offset="1" stop-color="#112F39"/>
</linearGradient>
<linearGradient id="paint4_linear_3010_7005" x1="93.3163" y1="240.989" x2="499.206" y2="255.627" gradientUnits="userSpaceOnUse">
<stop stop-color="#12303A"/>
<stop offset="0.503125" stop-color="#1B4036"/>
<stop offset="1" stop-color="#112F39"/>
</linearGradient>
<linearGradient id="paint5_linear_3010_7005" x1="118.025" y1="308.676" x2="485.119" y2="320.646" gradientUnits="userSpaceOnUse">
<stop stop-color="#12303A"/>
<stop offset="0.503125" stop-color="#1B4036"/>
<stop offset="1" stop-color="#112F39"/>
</linearGradient>
<linearGradient id="paint6_linear_3010_7005" x1="341.682" y1="324.94" x2="552.112" y2="328.921" gradientUnits="userSpaceOnUse">
<stop stop-color="#12303A"/>
<stop offset="0.503125" stop-color="#1B4036"/>
<stop offset="1" stop-color="#112F39"/>
</linearGradient>
<radialGradient id="paint7_radial_3010_7005" cx="0" cy="0" r="1" gradientUnits="userSpaceOnUse" gradientTransform="translate(525.164 238.075) rotate(90) scale(9.34668 87.7739)">
<stop stop-color="#F4FBFF"/>
<stop offset="0.265625" stop-color="#83DDDD" stop-opacity="0.92"/>
<stop offset="1" stop-color="#387283" stop-opacity="0"/>
</radialGradient>
<clipPath id="clip0_3010_7005">
<rect width="19.6152" height="19.6152" fill="white" transform="translate(73.2354 89.1797)"/>
</clipPath>
<clipPath id="clip1_3010_7005">
<rect width="19.6152" height="19.6152" fill="white" transform="translate(92.2207 157.02)"/>
</clipPath>
<clipPath id="clip2_3010_7005">
<rect width="19.6152" height="19.6152" fill="white" transform="translate(110.931 224.605)"/>
</clipPath>
</defs>
</svg>
