<svg width="376" height="364" viewBox="0 0 376 364" fill="none" xmlns="http://www.w3.org/2000/svg">
<g filter="url(#filter0_f_1323_3474)">
<path d="M346.01 182.124C346.01 223.201 331.015 262.839 303.886 293.476C276.757 324.112 239.394 343.6 198.927 348.222C158.46 352.844 117.723 342.276 84.4885 318.535C51.2544 294.793 27.8507 259.541 18.7437 219.504C9.63673 179.468 15.4641 137.451 35.1137 101.472C54.7633 65.4932 86.8593 38.0711 125.277 24.4389C163.694 10.8068 205.743 11.9191 243.4 27.5636C281.056 43.2081 311.683 72.2894 329.435 109.258" stroke="#8CFF00" stroke-width="7.2682"/>
</g>
<g filter="url(#filter1_f_1323_3474)">
<path d="M140.733 45.4172C172.091 36.189 205.651 38.213 235.695 51.1441C265.739 64.0753 290.409 87.1136 305.5 116.334C320.591 145.554 325.17 179.147 318.457 211.391C311.744 243.634 294.154 272.533 268.685 293.162C243.215 313.791 211.441 324.875 178.778 324.524C146.114 324.174 114.582 312.411 89.5529 291.241C64.524 270.07 47.5474 240.801 41.5158 208.42C35.4841 176.04 40.7706 142.552 56.4744 113.663" stroke="#83DDDD" stroke-width="7.2682"/>
</g>
<g filter="url(#filter2_f_1323_3474)">
<path d="M65.7295 182.125C65.7295 155.096 75.1245 128.924 92.2797 108.16C109.435 87.3969 133.265 73.3569 159.623 68.4833C185.981 63.6096 213.199 68.2108 236.541 81.4862C259.883 94.7617 277.871 115.871 287.377 141.142C296.883 166.412 297.303 194.244 288.566 219.795C279.829 245.346 262.486 266.999 239.557 280.986C216.627 294.973 189.56 300.409 163.067 296.348C136.574 292.287 112.331 278.987 94.5564 258.76" stroke="#8CFF00" stroke-width="7.2682"/>
</g>
<g filter="url(#filter3_f_1323_3474)">
<path d="M95.9375 182.124C95.9375 159.563 104.823 137.927 120.64 121.974C136.457 106.021 157.909 97.0586 180.277 97.0586C202.645 97.0586 224.097 106.021 239.913 121.974C255.73 137.927 264.616 159.563 264.616 182.124C264.616 204.685 255.73 226.322 239.913 242.275C224.097 258.228 202.645 267.19 180.277 267.19C157.909 267.19 136.457 258.228 120.64 242.275C104.823 226.322 95.9375 204.685 95.9375 182.124L95.9375 182.124Z" stroke="#83DDDD" stroke-width="7.2682"/>
</g>
<g filter="url(#filter4_f_1323_3474)">
<path d="M156.069 186.42L177.437 208.536L210.458 153.258" stroke="#8CFF00" stroke-width="19.0428" stroke-linecap="round" stroke-linejoin="round"/>
</g>
<g filter="url(#filter5_f_1323_3474)">
<path d="M156.069 186.42L177.437 208.536L210.458 153.258" stroke="#F4FBFF" stroke-width="3.6341" stroke-linecap="round" stroke-linejoin="round"/>
</g>
<g opacity="0.8" filter="url(#filter6_f_1323_3474)">
<circle cx="96.1405" cy="72.3098" r="9.67098" transform="rotate(-24.4965 96.1405 72.3098)" fill="url(#paint0_linear_1323_3474)"/>
<circle cx="96.1405" cy="72.3098" r="9.67098" transform="rotate(-24.4965 96.1405 72.3098)" fill="url(#paint1_radial_1323_3474)"/>
</g>
<g opacity="0.8" filter="url(#filter7_f_1323_3474)">
<circle cx="353.817" cy="145.452" r="15.7597" transform="rotate(-24.4965 353.817 145.452)" fill="url(#paint2_linear_1323_3474)"/>
<circle cx="353.817" cy="145.452" r="15.7597" transform="rotate(-24.4965 353.817 145.452)" fill="url(#paint3_radial_1323_3474)"/>
</g>
<g opacity="0.8" filter="url(#filter8_f_1323_3474)">
<circle cx="78.5399" cy="228.576" r="9.67098" transform="rotate(-24.4965 78.5399 228.576)" fill="url(#paint4_linear_1323_3474)"/>
<circle cx="78.5399" cy="228.576" r="9.67098" transform="rotate(-24.4965 78.5399 228.576)" fill="url(#paint5_radial_1323_3474)"/>
</g>
<path d="M346.01 182.124C346.01 223.201 331.015 262.839 303.886 293.476C276.757 324.112 239.394 343.6 198.927 348.222C158.46 352.844 117.723 342.276 84.4885 318.535C51.2544 294.793 27.8507 259.541 18.7437 219.504C9.63673 179.468 15.4641 137.451 35.1137 101.472C54.7633 65.4932 86.8593 38.0711 125.277 24.4389C163.694 10.8068 205.743 11.9191 243.4 27.5636C281.056 43.2081 311.683 72.2894 329.435 109.258" stroke="#F4FBFF" stroke-width="0.908525"/>
<path d="M140.733 45.4172C172.091 36.189 205.651 38.213 235.695 51.1441C265.739 64.0753 290.409 87.1136 305.5 116.334C320.591 145.554 325.17 179.147 318.457 211.391C311.744 243.634 294.154 272.533 268.685 293.162C243.215 313.791 211.441 324.875 178.778 324.524C146.114 324.174 114.582 312.411 89.5529 291.241C64.524 270.07 47.5474 240.801 41.5158 208.42C35.4841 176.04 40.7706 142.552 56.4744 113.663" stroke="#F4FBFF" stroke-width="0.908525"/>
<path d="M65.7295 182.125C65.7295 155.096 75.1245 128.924 92.2797 108.16C109.435 87.3969 133.265 73.3569 159.623 68.4833C185.981 63.6096 213.199 68.2108 236.541 81.4862C259.883 94.7617 277.871 115.871 287.377 141.142C296.883 166.412 297.303 194.244 288.566 219.795C279.829 245.346 262.486 266.999 239.557 280.986C216.627 294.973 189.56 300.409 163.067 296.348C136.574 292.287 112.331 278.987 94.5564 258.76" stroke="#F4FBFF" stroke-width="0.908525"/>
<g filter="url(#filter9_b_1323_3474)">
<path d="M95.9375 182.124C95.9375 159.563 104.823 137.927 120.64 121.974C136.457 106.021 157.909 97.0586 180.277 97.0586C202.645 97.0586 224.097 106.021 239.913 121.974C255.73 137.927 264.616 159.563 264.616 182.124C264.616 204.685 255.73 226.322 239.913 242.275C224.097 258.228 202.645 267.19 180.277 267.19C157.909 267.19 136.457 258.228 120.64 242.275C104.823 226.322 95.9375 204.685 95.9375 182.124L95.9375 182.124Z" stroke="#F4FBFF" stroke-width="0.908525"/>
</g>
<defs>
<filter id="filter0_f_1323_3474" x="0.00981331" y="0.428637" width="360.537" height="363.392" filterUnits="userSpaceOnUse" color-interpolation-filters="sRGB">
<feFlood flood-opacity="0" result="BackgroundImageFix"/>
<feBlend mode="normal" in="SourceGraphic" in2="BackgroundImageFix" result="shape"/>
<feGaussianBlur stdDeviation="5.45115" result="effect1_foregroundBlur_1323_3474"/>
</filter>
<filter id="filter1_f_1323_3474" x="24.5508" y="25.1806" width="311.457" height="313.888" filterUnits="userSpaceOnUse" color-interpolation-filters="sRGB">
<feFlood flood-opacity="0" result="BackgroundImageFix"/>
<feBlend mode="normal" in="SourceGraphic" in2="BackgroundImageFix" result="shape"/>
<feGaussianBlur stdDeviation="5.45115" result="effect1_foregroundBlur_1323_3474"/>
</filter>
<filter id="filter2_f_1323_3474" x="51.1934" y="52.0528" width="258.169" height="260.143" filterUnits="userSpaceOnUse" color-interpolation-filters="sRGB">
<feFlood flood-opacity="0" result="BackgroundImageFix"/>
<feBlend mode="normal" in="SourceGraphic" in2="BackgroundImageFix" result="shape"/>
<feGaussianBlur stdDeviation="5.45115" result="effect1_foregroundBlur_1323_3474"/>
</filter>
<filter id="filter3_f_1323_3474" x="81.4014" y="82.5222" width="197.751" height="199.204" filterUnits="userSpaceOnUse" color-interpolation-filters="sRGB">
<feFlood flood-opacity="0" result="BackgroundImageFix"/>
<feBlend mode="normal" in="SourceGraphic" in2="BackgroundImageFix" result="shape"/>
<feGaussianBlur stdDeviation="5.45115" result="effect1_foregroundBlur_1323_3474"/>
</filter>
<filter id="filter4_f_1323_3474" x="130.678" y="127.866" width="105.173" height="106.06" filterUnits="userSpaceOnUse" color-interpolation-filters="sRGB">
<feFlood flood-opacity="0" result="BackgroundImageFix"/>
<feBlend mode="normal" in="SourceGraphic" in2="BackgroundImageFix" result="shape"/>
<feGaussianBlur stdDeviation="7.93449" result="effect1_foregroundBlur_1323_3474"/>
</filter>
<filter id="filter5_f_1323_3474" x="151.078" y="148.267" width="64.371" height="65.2594" filterUnits="userSpaceOnUse" color-interpolation-filters="sRGB">
<feFlood flood-opacity="0" result="BackgroundImageFix"/>
<feBlend mode="normal" in="SourceGraphic" in2="BackgroundImageFix" result="shape"/>
<feGaussianBlur stdDeviation="1.5869" result="effect1_foregroundBlur_1323_3474"/>
</filter>
<filter id="filter6_f_1323_3474" x="81.0156" y="57.1853" width="30.249" height="30.249" filterUnits="userSpaceOnUse" color-interpolation-filters="sRGB">
<feFlood flood-opacity="0" result="BackgroundImageFix"/>
<feBlend mode="normal" in="SourceGraphic" in2="BackgroundImageFix" result="shape"/>
<feGaussianBlur stdDeviation="2.72557" result="effect1_foregroundBlur_1323_3474"/>
</filter>
<filter id="filter7_f_1323_3474" x="332.603" y="124.237" width="42.4292" height="42.4294" filterUnits="userSpaceOnUse" color-interpolation-filters="sRGB">
<feFlood flood-opacity="0" result="BackgroundImageFix"/>
<feBlend mode="normal" in="SourceGraphic" in2="BackgroundImageFix" result="shape"/>
<feGaussianBlur stdDeviation="2.72557" result="effect1_foregroundBlur_1323_3474"/>
</filter>
<filter id="filter8_f_1323_3474" x="63.4151" y="213.452" width="30.249" height="30.249" filterUnits="userSpaceOnUse" color-interpolation-filters="sRGB">
<feFlood flood-opacity="0" result="BackgroundImageFix"/>
<feBlend mode="normal" in="SourceGraphic" in2="BackgroundImageFix" result="shape"/>
<feGaussianBlur stdDeviation="2.72557" result="effect1_foregroundBlur_1323_3474"/>
</filter>
<filter id="filter9_b_1323_3474" x="82.7641" y="83.885" width="195.026" height="196.479" filterUnits="userSpaceOnUse" color-interpolation-filters="sRGB">
<feFlood flood-opacity="0" result="BackgroundImageFix"/>
<feGaussianBlur in="BackgroundImage" stdDeviation="6.35967"/>
<feComposite in2="SourceAlpha" operator="in" result="effect1_backgroundBlur_1323_3474"/>
<feBlend mode="normal" in="SourceGraphic" in2="effect1_backgroundBlur_1323_3474" result="shape"/>
</filter>
<linearGradient id="paint0_linear_1323_3474" x1="96.1405" y1="62.6388" x2="96.1405" y2="96.7541" gradientUnits="userSpaceOnUse">
<stop stop-color="#054F77"/>
<stop offset="1" stop-color="#8CFF00"/>
</linearGradient>
<radialGradient id="paint1_radial_1323_3474" cx="0" cy="0" r="1" gradientUnits="userSpaceOnUse" gradientTransform="translate(94.6671 66.3526) rotate(83.0538) scale(11.8124)">
<stop stop-color="#8CFF00"/>
<stop offset="1" stop-color="#054F77"/>
</radialGradient>
<linearGradient id="paint2_linear_1323_3474" x1="353.817" y1="129.692" x2="353.817" y2="185.286" gradientUnits="userSpaceOnUse">
<stop stop-color="#054F77"/>
<stop offset="1" stop-color="#8CFF00"/>
</linearGradient>
<radialGradient id="paint3_radial_1323_3474" cx="0" cy="0" r="1" gradientUnits="userSpaceOnUse" gradientTransform="translate(351.416 135.744) rotate(83.0538) scale(19.2493)">
<stop stop-color="#8CFF00"/>
<stop offset="1" stop-color="#054F77"/>
</radialGradient>
<linearGradient id="paint4_linear_1323_3474" x1="78.5399" y1="218.905" x2="78.5399" y2="253.02" gradientUnits="userSpaceOnUse">
<stop stop-color="#054F77"/>
<stop offset="1" stop-color="#8CFF00"/>
</linearGradient>
<radialGradient id="paint5_radial_1323_3474" cx="0" cy="0" r="1" gradientUnits="userSpaceOnUse" gradientTransform="translate(77.0665 222.619) rotate(83.0538) scale(11.8124)">
<stop stop-color="#8CFF00"/>
<stop offset="1" stop-color="#054F77"/>
</radialGradient>
</defs>
</svg>
