<svg width="61" height="49" viewBox="0 0 61 49" fill="none" xmlns="http://www.w3.org/2000/svg">
<path d="M60.0859 5.8043C57.8795 6.78201 55.5092 7.44263 53.0173 7.74123C55.5885 6.20276 57.512 3.7814 58.4291 0.928936C56.0135 2.36377 53.3697 3.37374 50.6127 3.91493C48.7587 1.93536 46.303 0.62327 43.6268 0.182368C40.9507 -0.258534 38.2039 0.196419 35.8128 1.4766C33.4217 2.75677 31.5202 4.79055 30.4034 7.26216C29.2867 9.73378 29.0172 12.505 29.6367 15.1454C24.742 14.8997 19.9537 13.6275 15.5825 11.4114C11.2113 9.19528 7.35496 6.08483 4.26369 2.28188C3.2067 4.10519 2.59893 6.21917 2.59893 8.47056C2.59775 10.4973 3.09686 12.493 4.05197 14.2806C5.00708 16.0683 6.38866 17.5925 8.07413 18.7181C6.11943 18.6559 4.20786 18.1277 2.49852 17.1775V17.3361C2.49832 20.1787 3.4816 22.9338 5.28152 25.134C7.08145 27.3342 9.58714 28.8438 12.3734 29.4069C10.5601 29.8976 8.65901 29.9699 6.81367 29.6183C7.5998 32.0642 9.13111 34.203 11.1932 35.7354C13.2553 37.2678 15.745 38.1169 18.3137 38.164C13.9532 41.5871 8.56798 43.4439 3.02437 43.4358C2.04237 43.436 1.06121 43.3787 0.0859375 43.264C5.71302 46.882 12.2634 48.8022 18.9532 48.7947C41.5992 48.7947 53.9792 30.0384 53.9792 13.7714C53.9792 13.2429 53.966 12.7091 53.9422 12.1806C56.3503 10.4391 58.4289 8.28266 60.0807 5.81223L60.0859 5.8043V5.8043Z" fill="#8CFF00"/>
</svg>
