<svg width="286" height="243" viewBox="0 0 286 243" fill="none" xmlns="http://www.w3.org/2000/svg">
<g clip-path="url(#clip0_2436_4000)">
<g filter="url(#filter0_d_2436_4000)">
<path d="M99.0921 19.562C98.9935 16.7774 101.701 14.7476 104.346 15.623L262.029 67.8059C263.667 68.3478 264.772 69.8784 264.772 71.6033V189.674C264.772 192.556 261.818 194.492 259.176 193.342L105.146 126.278C103.734 125.663 102.8 124.292 102.746 122.752L99.0921 19.562Z" fill="url(#paint0_linear_2436_4000)" fill-opacity="0.8" shape-rendering="crispEdges"/>
<path d="M104.032 16.5724L261.715 68.7552C262.943 69.1617 263.772 70.3096 263.772 71.6033V189.674C263.772 191.836 261.556 193.288 259.575 192.425L105.546 125.361C104.486 124.9 103.786 123.872 103.745 122.717L100.091 19.5266C100.018 17.4381 102.048 15.9158 104.032 16.5724Z" stroke="url(#paint1_linear_2436_4000)" stroke-width="2" shape-rendering="crispEdges"/>
</g>
<g filter="url(#filter1_f_2436_4000)">
<path d="M177.468 102.296L172.403 94.7606C172.119 94.339 171.506 94.3201 171.197 94.7235L161.888 106.881C161.525 107.355 161.841 108.042 162.437 108.074L186.081 109.353C186.681 109.386 187.069 108.729 186.752 108.219L182.359 101.167C182.15 100.831 181.715 100.718 181.369 100.91L178.445 102.531C178.108 102.718 177.684 102.616 177.468 102.296Z" fill="url(#paint2_linear_2436_4000)"/>
</g>
<path d="M188.226 85.3762L165.231 83.6705C163.377 83.533 161.76 84.8983 161.625 86.7176L160.088 107.436C159.953 109.253 161.351 110.84 163.205 110.978L186.2 112.684C188.054 112.821 189.669 111.457 189.804 109.64L191.341 88.9218C191.476 87.1026 190.08 85.5137 188.226 85.3762ZM180.722 89.749C182.514 89.8819 183.862 91.415 183.732 93.1721C183.602 94.9292 182.042 96.2466 180.25 96.1136C178.457 95.9806 177.109 94.4476 177.239 92.6905C177.37 90.9334 178.929 89.616 180.722 89.749ZM185.372 109.56L174.927 108.785L164.948 108.045C164.051 107.978 163.699 107.313 164.162 106.558L170.535 96.1541C170.997 95.3996 171.772 95.3867 172.265 96.125L177.334 103.717C177.827 104.456 178.775 104.586 179.452 104.007L180.923 102.748C181.599 102.17 182.521 102.316 182.982 103.074L186.162 108.306C186.622 109.065 186.269 109.626 185.372 109.56Z" fill="url(#paint3_linear_2436_4000)"/>
<g filter="url(#filter2_f_2436_4000)">
<path d="M165.799 89.2516C167.07 89.7782 167.294 91.483 166.203 92.3204L157.22 99.2117C156.129 100.049 154.54 99.3909 154.361 98.027L152.884 86.8025C152.704 85.4386 154.069 84.3919 155.34 84.9184L165.799 89.2516Z" fill="url(#paint4_radial_2436_4000)"/>
<path d="M165.799 89.2516C167.07 89.7782 167.294 91.483 166.203 92.3204L157.22 99.2117C156.129 100.049 154.54 99.3909 154.361 98.027L152.884 86.8025C152.704 85.4386 154.069 84.3919 155.34 84.9184L165.799 89.2516Z" stroke="#8CFF00" stroke-width="0.44676"/>
</g>
<path d="M166.147 89.3959C167.263 89.8583 167.46 91.3556 166.502 92.091L156.921 99.4411C155.963 100.177 154.568 99.5985 154.41 98.4007L152.835 86.4288C152.677 85.231 153.875 84.3118 154.991 84.7742L166.147 89.3959Z" fill="url(#paint5_radial_2436_4000)"/>
<path d="M166.147 89.3959C167.263 89.8583 167.46 91.3556 166.502 92.091L156.921 99.4411C155.963 100.177 154.568 99.5985 154.41 98.4007L152.835 86.4288C152.677 85.231 153.875 84.3118 154.991 84.7742L166.147 89.3959Z" fill="url(#paint6_radial_2436_4000)"/>
<path d="M166.147 89.3959C167.263 89.8583 167.46 91.3556 166.502 92.091L156.921 99.4411C155.963 100.177 154.568 99.5985 154.41 98.4007L152.835 86.4288C152.677 85.231 153.875 84.3118 154.991 84.7742L166.147 89.3959Z" stroke="#F4FBFF" stroke-width="0.0893521"/>
<path d="M-0.229835 107.317L155.384 88.0629L187.659 85.314C191.349 93.2577 191.434 99.1347 187.659 112.365L84.0512 261.582L-0.229835 107.317Z" fill="url(#paint7_linear_2436_4000)"/>
<g filter="url(#filter3_d_2436_4000)">
<path d="M104.478 129.312C100.56 132.412 94.8591 128.665 92.3482 125.815C89.8372 122.964 88.5925 118.751 88.2046 116.54C87.8167 114.329 88.0137 106.35 92.8231 106.35C102.338 106.906 109.931 117.794 104.478 129.312Z" fill="url(#paint8_linear_2436_4000)"/>
<path d="M104.478 129.312C100.56 132.412 94.8591 128.665 92.3482 125.815C89.8372 122.964 88.5925 118.751 88.2046 116.54C87.8167 114.329 88.0137 106.35 92.8231 106.35C102.338 106.906 109.931 117.794 104.478 129.312Z" fill="url(#paint9_linear_2436_4000)" fill-opacity="0.3"/>
<path d="M103.986 129.661C111.915 111.469 93.2047 103.143 89.8096 107.896C91.2007 105.949 94.1757 104.882 96.4065 104.802C102.992 104.566 113.021 114.168 108.623 125.244C107.898 126.255 104.272 129.661 103.986 129.661Z" fill="url(#paint10_linear_2436_4000)"/>
<path d="M103.986 129.661C111.915 111.469 93.2047 103.143 89.8096 107.896C91.2007 105.949 94.1757 104.882 96.4065 104.802C102.992 104.566 113.021 114.168 108.623 125.244C107.898 126.255 104.272 129.661 103.986 129.661Z" fill="url(#paint11_linear_2436_4000)" fill-opacity="0.5"/>
</g>
<g filter="url(#filter4_d_2436_4000)">
<path d="M95.7802 123.654V123.754H95.8802H96.777H96.877V123.654V122.771C97.381 122.72 97.8299 122.587 98.2219 122.37L98.2225 122.37C98.6458 122.132 98.9749 121.822 99.2067 121.439C99.4479 121.054 99.5675 120.617 99.5675 120.131C99.5675 119.398 99.3326 118.814 98.8548 118.39C98.3924 117.98 97.7304 117.67 96.877 117.455V114.394C97.3296 114.479 97.659 114.663 97.8772 114.94L97.8772 114.94L97.878 114.941C98.1231 115.243 98.2401 115.546 98.2401 115.851V115.951H98.3401H99.2625H99.3625V115.851C99.3625 115.185 99.1258 114.617 98.6542 114.154C98.2086 113.7 97.6135 113.431 96.877 113.341V112.405V112.305H96.777H95.8802H95.7802V112.405V113.353C95.0221 113.441 94.426 113.692 94.003 114.115C93.5668 114.551 93.3459 115.068 93.3459 115.659C93.3459 116.287 93.5322 116.823 93.9081 117.262L93.9081 117.262L93.9089 117.263C94.2846 117.691 94.914 118.02 95.7802 118.26V121.702C95.2679 121.6 94.8866 121.382 94.626 121.055C94.3411 120.697 94.1993 120.292 94.1993 119.836V119.736H94.0993H93.1641H93.0641V119.836C93.0641 120.62 93.3159 121.281 93.8218 121.814C94.3103 122.328 94.9657 122.636 95.7802 122.743V123.654ZM98.0749 119.187L98.0749 119.187L98.0772 119.189C98.3197 119.432 98.445 119.759 98.445 120.182C98.445 120.564 98.3028 120.907 98.0112 121.215L98.0103 121.216C97.751 121.497 97.3769 121.677 96.877 121.747V118.549C97.4588 118.735 97.8531 118.95 98.0749 119.187ZM94.7528 116.505C94.5634 116.268 94.4684 115.991 94.4684 115.672C94.4684 115.306 94.598 115.019 94.8559 114.8C95.0968 114.596 95.4035 114.455 95.7802 114.382V117.117C95.2712 116.92 94.9338 116.714 94.7528 116.505Z" stroke="#F4FBFF" stroke-width="0.2" shape-rendering="crispEdges"/>
</g>
<g filter="url(#filter5_d_2436_4000)">
<path d="M96.8586 185.995C89.7735 191.599 79.4646 184.825 74.9241 179.67C70.3837 174.516 68.133 166.896 67.4315 162.899C66.7301 158.901 67.0863 144.472 75.7829 144.472C92.9883 145.479 106.719 165.167 96.8586 185.995Z" fill="url(#paint12_linear_2436_4000)"/>
<path d="M96.8586 185.995C89.7735 191.599 79.4646 184.825 74.9241 179.67C70.3837 174.516 68.133 166.896 67.4315 162.899C66.7301 158.901 67.0863 144.472 75.7829 144.472C92.9883 145.479 106.719 165.167 96.8586 185.995Z" fill="url(#paint13_linear_2436_4000)" fill-opacity="0.3"/>
<path d="M95.9676 186.625C110.306 153.73 76.4727 138.675 70.3335 147.27C72.8489 143.748 78.2286 141.819 82.2624 141.674C94.1713 141.248 112.306 158.609 104.353 178.638C103.042 180.467 96.4848 186.625 95.9676 186.625Z" fill="url(#paint14_linear_2436_4000)"/>
<path d="M95.9676 186.625C110.306 153.73 76.4727 138.675 70.3335 147.27C72.8489 143.748 78.2286 141.819 82.2624 141.674C94.1713 141.248 112.306 158.609 104.353 178.638C103.042 180.467 96.4848 186.625 95.9676 186.625Z" fill="url(#paint15_linear_2436_4000)" fill-opacity="0.5"/>
</g>
<g filter="url(#filter6_d_2436_4000)">
<path d="M81.2108 175.763V175.863H81.3108H82.9325H83.0325V175.763V174.094C83.9643 174.008 84.7894 173.768 85.5061 173.371L85.5067 173.371C86.2614 172.947 86.8459 172.395 87.2572 171.715C87.6847 171.033 87.8976 170.258 87.8976 169.392C87.8976 168.087 87.4798 167.053 86.6361 166.305C85.8022 165.566 84.5981 165.005 83.0325 164.617V158.921C83.9138 159.069 84.5603 159.417 84.9854 159.955L84.9854 159.955L84.9862 159.956C85.4384 160.514 85.6589 161.079 85.6589 161.654V161.754H85.7589H87.4269H87.5269V161.654C87.5269 160.469 87.1072 159.463 86.2697 158.641C85.4649 157.821 84.383 157.338 83.0325 157.186V155.422V155.322H82.9325H81.3108H81.2108V155.422V157.208C79.8181 157.359 78.7351 157.81 77.9736 158.572C77.1991 159.346 76.8091 160.259 76.8091 161.307C76.8091 162.424 77.1404 163.375 77.8062 164.152L77.8069 164.153C78.4798 164.919 79.6202 165.514 81.2108 165.947V172.331C80.2218 172.153 79.4818 171.745 78.9797 171.113C78.4532 170.451 78.1906 169.701 78.1906 168.859V168.759H78.0906H76.3994H76.2994V168.859C76.2994 170.257 76.748 171.433 77.6474 172.38C78.5295 173.308 79.7201 173.861 81.2108 174.045V175.763ZM85.3384 167.63L85.3384 167.63L85.3407 167.632C85.7972 168.089 86.0295 168.703 86.0295 169.484C86.0295 170.198 85.7631 170.838 85.2229 171.408L85.222 171.409C84.7213 171.953 83.9955 172.288 83.0325 172.407V166.422C84.1467 166.768 84.9098 167.173 85.3384 167.63ZM79.2101 162.887C78.855 162.443 78.6771 161.925 78.6771 161.33C78.6771 160.647 78.9206 160.104 79.4063 159.692C79.8749 159.294 80.4748 159.029 81.2108 158.899V164.059C80.2245 163.689 79.5633 163.296 79.2101 162.887Z" stroke="#F4FBFF" stroke-width="0.2" shape-rendering="crispEdges"/>
</g>
<g filter="url(#filter7_d_2436_4000)">
<path d="M136.661 144.888C134.227 146.813 130.686 144.486 129.126 142.715C127.566 140.945 126.793 138.327 126.552 136.954C126.311 135.581 126.434 130.625 129.421 130.625C135.331 130.97 140.048 137.733 136.661 144.888Z" fill="url(#paint16_linear_2436_4000)"/>
<path d="M136.661 144.888C134.227 146.813 130.686 144.486 129.126 142.715C127.566 140.945 126.793 138.327 126.552 136.954C126.311 135.581 126.434 130.625 129.421 130.625C135.331 130.97 140.048 137.733 136.661 144.888Z" fill="url(#paint17_linear_2436_4000)" fill-opacity="0.3"/>
<path d="M136.355 145.104C141.28 133.805 129.658 128.633 127.549 131.585C128.413 130.376 130.261 129.713 131.647 129.663C135.738 129.517 141.967 135.481 139.235 142.361C138.785 142.989 136.533 145.104 136.355 145.104Z" fill="url(#paint18_linear_2436_4000)"/>
<path d="M136.355 145.104C141.28 133.805 129.658 128.633 127.549 131.585C128.413 130.376 130.261 129.713 131.647 129.663C135.738 129.517 141.967 135.481 139.235 142.361C138.785 142.989 136.533 145.104 136.355 145.104Z" fill="url(#paint19_linear_2436_4000)" fill-opacity="0.5"/>
</g>
<g filter="url(#filter8_d_2436_4000)">
<path d="M131.22 141.373V141.473H131.32H131.877H131.977V141.373V140.859C132.281 140.824 132.553 140.742 132.793 140.609L132.793 140.609C133.061 140.458 133.271 140.261 133.418 140.017C133.572 139.772 133.648 139.493 133.648 139.185C133.648 138.721 133.499 138.347 133.193 138.075C132.905 137.82 132.497 137.627 131.977 137.493V135.667C132.228 135.722 132.409 135.83 132.531 135.984L132.531 135.984L132.531 135.985C132.68 136.167 132.748 136.347 132.748 136.526V136.626H132.848H133.421H133.521V136.526C133.521 136.102 133.37 135.74 133.07 135.445C132.793 135.163 132.426 134.994 131.977 134.934V134.386V134.286H131.877H131.32H131.22V134.386V134.941C130.759 135 130.391 135.157 130.127 135.421C129.849 135.699 129.708 136.029 129.708 136.407C129.708 136.805 129.826 137.147 130.066 137.427L130.066 137.427L130.067 137.428C130.303 137.697 130.693 137.902 131.22 138.051V140.114C130.932 140.049 130.718 139.92 130.571 139.735C130.399 139.519 130.314 139.276 130.314 139.001V138.901H130.214H129.633H129.533V139.001C129.533 139.497 129.692 139.918 130.014 140.256C130.318 140.576 130.722 140.769 131.22 140.84V141.373ZM132.656 138.624L132.656 138.624L132.658 138.627C132.8 138.769 132.875 138.962 132.875 139.216C132.875 139.443 132.791 139.647 132.616 139.832L132.616 139.832L132.615 139.833C132.469 139.992 132.259 140.098 131.977 140.145V138.255C132.309 138.365 132.53 138.491 132.656 138.624ZM130.649 136.908C130.537 136.768 130.481 136.605 130.481 136.415C130.481 136.198 130.557 136.031 130.708 135.902C130.842 135.789 131.012 135.707 131.22 135.66V137.257C130.936 137.142 130.749 137.024 130.649 136.908Z" stroke="#F4FBFF" stroke-width="0.2" shape-rendering="crispEdges"/>
</g>
<g filter="url(#filter9_d_2436_4000)">
<path d="M140.429 114.406C138.7 115.774 136.184 114.121 135.075 112.862C133.967 111.604 133.418 109.744 133.247 108.769C133.075 107.793 133.162 104.271 135.285 104.271C139.485 104.517 142.836 109.322 140.429 114.406Z" fill="url(#paint20_linear_2436_4000)"/>
<path d="M140.429 114.406C138.7 115.774 136.184 114.121 135.075 112.862C133.967 111.604 133.418 109.744 133.247 108.769C133.075 107.793 133.162 104.271 135.285 104.271C139.485 104.517 142.836 109.322 140.429 114.406Z" fill="url(#paint21_linear_2436_4000)" fill-opacity="0.3"/>
<path d="M140.212 114.56C143.712 106.531 135.454 102.856 133.955 104.954C134.569 104.094 135.882 103.623 136.867 103.588C139.774 103.484 144.2 107.722 142.259 112.611C141.939 113.057 140.338 114.56 140.212 114.56Z" fill="url(#paint22_linear_2436_4000)"/>
<path d="M140.212 114.56C143.712 106.531 135.454 102.856 133.955 104.954C134.569 104.094 135.882 103.623 136.867 103.588C139.774 103.484 144.2 107.722 142.259 112.611C141.939 113.057 140.338 114.56 140.212 114.56Z" fill="url(#paint23_linear_2436_4000)" fill-opacity="0.5"/>
</g>
<g filter="url(#filter10_d_2436_4000)">
<path d="M136.534 111.909V112.009H136.634H137.03H137.13V111.909V111.569C137.339 111.543 137.528 111.484 137.695 111.391L137.696 111.391C137.89 111.282 138.042 111.138 138.15 110.96C138.263 110.781 138.318 110.578 138.318 110.354C138.318 110.018 138.209 109.743 137.984 109.544C137.779 109.362 137.492 109.225 137.13 109.129V107.891C137.285 107.931 137.396 108.001 137.472 108.097L137.472 108.097L137.473 108.098C137.575 108.224 137.62 108.346 137.62 108.465V108.565H137.72H138.127H138.227V108.465C138.227 108.156 138.117 107.891 137.898 107.676C137.701 107.476 137.443 107.355 137.13 107.308V106.944V106.844H137.03H136.634H136.534V106.944V107.313C136.214 107.358 135.955 107.471 135.766 107.659C135.564 107.862 135.46 108.103 135.46 108.38C135.46 108.669 135.546 108.919 135.722 109.124L135.722 109.124L135.722 109.125C135.892 109.318 136.168 109.464 136.534 109.57V110.977C136.353 110.93 136.218 110.845 136.125 110.727C136.007 110.579 135.948 110.412 135.948 110.224V110.124H135.848H135.436H135.336V110.224C135.336 110.583 135.451 110.889 135.685 111.135C135.901 111.362 136.187 111.501 136.534 111.555V111.909ZM137.562 109.975L137.562 109.975L137.565 109.978C137.659 110.072 137.711 110.202 137.711 110.376C137.711 110.529 137.654 110.667 137.534 110.794L137.534 110.794L137.533 110.795C137.441 110.896 137.309 110.966 137.13 111.001V109.733C137.342 109.808 137.483 109.891 137.562 109.975ZM136.18 108.718C136.105 108.623 136.067 108.514 136.067 108.386C136.067 108.24 136.118 108.129 136.218 108.044C136.302 107.973 136.407 107.919 136.534 107.886V108.941C136.357 108.865 136.242 108.79 136.18 108.718Z" stroke="#F4FBFF" stroke-width="0.2" shape-rendering="crispEdges"/>
</g>
</g>
<defs>
<filter id="filter0_d_2436_4000" x="92.0894" y="1.41724" width="189.683" height="202.261" filterUnits="userSpaceOnUse" color-interpolation-filters="sRGB">
<feFlood flood-opacity="0" result="BackgroundImageFix"/>
<feColorMatrix in="SourceAlpha" type="matrix" values="0 0 0 0 0 0 0 0 0 0 0 0 0 0 0 0 0 0 127 0" result="hardAlpha"/>
<feOffset dx="5" dy="-2"/>
<feGaussianBlur stdDeviation="6"/>
<feComposite in2="hardAlpha" operator="out"/>
<feColorMatrix type="matrix" values="0 0 0 0 0.0196078 0 0 0 0 0.133333 0 0 0 0 0.2 0 0 0 0.3 0"/>
<feBlend mode="normal" in2="BackgroundImageFix" result="effect1_dropShadow_2436_4000"/>
<feBlend mode="normal" in="SourceGraphic" in2="effect1_dropShadow_2436_4000" result="shape"/>
</filter>
<filter id="filter1_f_2436_4000" x="160.842" y="93.5413" width="26.914" height="16.7041" filterUnits="userSpaceOnUse" color-interpolation-filters="sRGB">
<feFlood flood-opacity="0" result="BackgroundImageFix"/>
<feBlend mode="normal" in="SourceGraphic" in2="BackgroundImageFix" result="shape"/>
<feGaussianBlur stdDeviation="0.445553" result="effect1_foregroundBlur_2436_4000"/>
</filter>
<filter id="filter2_f_2436_4000" x="151.304" y="83.2156" width="17.1615" height="17.9313" filterUnits="userSpaceOnUse" color-interpolation-filters="sRGB">
<feFlood flood-opacity="0" result="BackgroundImageFix"/>
<feBlend mode="normal" in="SourceGraphic" in2="BackgroundImageFix" result="shape"/>
<feGaussianBlur stdDeviation="0.670141" result="effect1_foregroundBlur_2436_4000"/>
</filter>
<filter id="filter3_d_2436_4000" x="87.0742" y="99.7979" width="31.6289" height="35.6804" filterUnits="userSpaceOnUse" color-interpolation-filters="sRGB">
<feFlood flood-opacity="0" result="BackgroundImageFix"/>
<feColorMatrix in="SourceAlpha" type="matrix" values="0 0 0 0 0 0 0 0 0 0 0 0 0 0 0 0 0 0 127 0" result="hardAlpha"/>
<feOffset dx="4"/>
<feGaussianBlur stdDeviation="2.5"/>
<feComposite in2="hardAlpha" operator="out"/>
<feColorMatrix type="matrix" values="0 0 0 0 0.514222 0 0 0 0 0.866667 0 0 0 0 0.866667 0 0 0 0.92 0"/>
<feBlend mode="normal" in2="BackgroundImageFix" result="effect1_dropShadow_2436_4000"/>
<feBlend mode="normal" in="SourceGraphic" in2="effect1_dropShadow_2436_4000" result="shape"/>
</filter>
<filter id="filter4_d_2436_4000" x="88.9639" y="112.205" width="14.7036" height="19.6487" filterUnits="userSpaceOnUse" color-interpolation-filters="sRGB">
<feFlood flood-opacity="0" result="BackgroundImageFix"/>
<feColorMatrix in="SourceAlpha" type="matrix" values="0 0 0 0 0 0 0 0 0 0 0 0 0 0 0 0 0 0 127 0" result="hardAlpha"/>
<feOffset dy="4"/>
<feGaussianBlur stdDeviation="2"/>
<feComposite in2="hardAlpha" operator="out"/>
<feColorMatrix type="matrix" values="0 0 0 0 0 0 0 0 0 0 0 0 0 0 0 0 0 0 0.25 0"/>
<feBlend mode="normal" in2="BackgroundImageFix" result="effect1_dropShadow_2436_4000"/>
<feBlend mode="normal" in="SourceGraphic" in2="effect1_dropShadow_2436_4000" result="shape"/>
</filter>
<filter id="filter5_d_2436_4000" x="66.1958" y="136.667" width="49.1104" height="56.4363" filterUnits="userSpaceOnUse" color-interpolation-filters="sRGB">
<feFlood flood-opacity="0" result="BackgroundImageFix"/>
<feColorMatrix in="SourceAlpha" type="matrix" values="0 0 0 0 0 0 0 0 0 0 0 0 0 0 0 0 0 0 127 0" result="hardAlpha"/>
<feOffset dx="4"/>
<feGaussianBlur stdDeviation="2.5"/>
<feComposite in2="hardAlpha" operator="out"/>
<feColorMatrix type="matrix" values="0 0 0 0 0.514222 0 0 0 0 0.866667 0 0 0 0 0.866667 0 0 0 0.92 0"/>
<feBlend mode="normal" in2="BackgroundImageFix" result="effect1_dropShadow_2436_4000"/>
<feBlend mode="normal" in="SourceGraphic" in2="effect1_dropShadow_2436_4000" result="shape"/>
</filter>
<filter id="filter6_d_2436_4000" x="72.1992" y="155.222" width="19.7983" height="28.7405" filterUnits="userSpaceOnUse" color-interpolation-filters="sRGB">
<feFlood flood-opacity="0" result="BackgroundImageFix"/>
<feColorMatrix in="SourceAlpha" type="matrix" values="0 0 0 0 0 0 0 0 0 0 0 0 0 0 0 0 0 0 127 0" result="hardAlpha"/>
<feOffset dy="4"/>
<feGaussianBlur stdDeviation="2"/>
<feComposite in2="hardAlpha" operator="out"/>
<feColorMatrix type="matrix" values="0 0 0 0 0 0 0 0 0 0 0 0 0 0 0 0 0 0 0.25 0"/>
<feBlend mode="normal" in2="BackgroundImageFix" result="effect1_dropShadow_2436_4000"/>
<feBlend mode="normal" in="SourceGraphic" in2="effect1_dropShadow_2436_4000" result="shape"/>
</filter>
<filter id="filter7_d_2436_4000" x="125.471" y="124.661" width="23.4351" height="25.9514" filterUnits="userSpaceOnUse" color-interpolation-filters="sRGB">
<feFlood flood-opacity="0" result="BackgroundImageFix"/>
<feColorMatrix in="SourceAlpha" type="matrix" values="0 0 0 0 0 0 0 0 0 0 0 0 0 0 0 0 0 0 127 0" result="hardAlpha"/>
<feOffset dx="4"/>
<feGaussianBlur stdDeviation="2.5"/>
<feComposite in2="hardAlpha" operator="out"/>
<feColorMatrix type="matrix" values="0 0 0 0 0.514222 0 0 0 0 0.866667 0 0 0 0 0.866667 0 0 0 0.92 0"/>
<feBlend mode="normal" in2="BackgroundImageFix" result="effect1_dropShadow_2436_4000"/>
<feBlend mode="normal" in="SourceGraphic" in2="effect1_dropShadow_2436_4000" result="shape"/>
</filter>
<filter id="filter8_d_2436_4000" x="125.433" y="134.186" width="12.3154" height="15.3872" filterUnits="userSpaceOnUse" color-interpolation-filters="sRGB">
<feFlood flood-opacity="0" result="BackgroundImageFix"/>
<feColorMatrix in="SourceAlpha" type="matrix" values="0 0 0 0 0 0 0 0 0 0 0 0 0 0 0 0 0 0 127 0" result="hardAlpha"/>
<feOffset dy="4"/>
<feGaussianBlur stdDeviation="2"/>
<feComposite in2="hardAlpha" operator="out"/>
<feColorMatrix type="matrix" values="0 0 0 0 0 0 0 0 0 0 0 0 0 0 0 0 0 0 0.25 0"/>
<feBlend mode="normal" in2="BackgroundImageFix" result="effect1_dropShadow_2436_4000"/>
<feBlend mode="normal" in="SourceGraphic" in2="effect1_dropShadow_2436_4000" result="shape"/>
</filter>
<filter id="filter9_d_2436_4000" x="132.189" y="98.5862" width="19.5469" height="21.3347" filterUnits="userSpaceOnUse" color-interpolation-filters="sRGB">
<feFlood flood-opacity="0" result="BackgroundImageFix"/>
<feColorMatrix in="SourceAlpha" type="matrix" values="0 0 0 0 0 0 0 0 0 0 0 0 0 0 0 0 0 0 127 0" result="hardAlpha"/>
<feOffset dx="4"/>
<feGaussianBlur stdDeviation="2.5"/>
<feComposite in2="hardAlpha" operator="out"/>
<feColorMatrix type="matrix" values="0 0 0 0 0.514222 0 0 0 0 0.866667 0 0 0 0 0.866667 0 0 0 0.92 0"/>
<feBlend mode="normal" in2="BackgroundImageFix" result="effect1_dropShadow_2436_4000"/>
<feBlend mode="normal" in="SourceGraphic" in2="effect1_dropShadow_2436_4000" result="shape"/>
</filter>
<filter id="filter10_d_2436_4000" x="131.235" y="106.744" width="11.1826" height="13.365" filterUnits="userSpaceOnUse" color-interpolation-filters="sRGB">
<feFlood flood-opacity="0" result="BackgroundImageFix"/>
<feColorMatrix in="SourceAlpha" type="matrix" values="0 0 0 0 0 0 0 0 0 0 0 0 0 0 0 0 0 0 127 0" result="hardAlpha"/>
<feOffset dy="4"/>
<feGaussianBlur stdDeviation="2"/>
<feComposite in2="hardAlpha" operator="out"/>
<feColorMatrix type="matrix" values="0 0 0 0 0 0 0 0 0 0 0 0 0 0 0 0 0 0 0.25 0"/>
<feBlend mode="normal" in2="BackgroundImageFix" result="effect1_dropShadow_2436_4000"/>
<feBlend mode="normal" in="SourceGraphic" in2="effect1_dropShadow_2436_4000" result="shape"/>
</filter>
<linearGradient id="paint0_linear_2436_4000" x1="264.772" y1="67.5438" x2="102.816" y2="140.994" gradientUnits="userSpaceOnUse">
<stop stop-color="#093954"/>
<stop offset="1" stop-color="#F4FBFF" stop-opacity="0.42"/>
</linearGradient>
<linearGradient id="paint1_linear_2436_4000" x1="264.772" y1="76.7995" x2="123.864" y2="156.736" gradientUnits="userSpaceOnUse">
<stop stop-color="#093954"/>
<stop offset="1" stop-color="#054F77" stop-opacity="0"/>
</linearGradient>
<linearGradient id="paint2_linear_2436_4000" x1="179.014" y1="108.701" x2="164.572" y2="95.5462" gradientUnits="userSpaceOnUse">
<stop stop-color="#F4FBFF"/>
<stop offset="1" stop-color="#83DDDD" stop-opacity="0.92"/>
</linearGradient>
<linearGradient id="paint3_linear_2436_4000" x1="186.587" y1="94.2177" x2="169.746" y2="111.463" gradientUnits="userSpaceOnUse">
<stop stop-color="#141F45"/>
<stop offset="1" stop-color="#054F77"/>
</linearGradient>
<radialGradient id="paint4_radial_2436_4000" cx="0" cy="0" r="1" gradientUnits="userSpaceOnUse" gradientTransform="translate(167.658 99.4651) rotate(-160.852) scale(23.6896)">
<stop stop-color="#054F77"/>
<stop offset="1" stop-color="#141F45"/>
</radialGradient>
<radialGradient id="paint5_radial_2436_4000" cx="0" cy="0" r="1" gradientUnits="userSpaceOnUse" gradientTransform="translate(167.658 99.4651) rotate(-160.852) scale(23.6896)">
<stop stop-color="#054F77"/>
<stop offset="1" stop-color="#141F45"/>
</radialGradient>
<radialGradient id="paint6_radial_2436_4000" cx="0" cy="0" r="1" gradientUnits="userSpaceOnUse" gradientTransform="translate(167.658 99.4651) rotate(-160.852) scale(23.6896)">
<stop stop-color="#054F77"/>
<stop offset="1" stop-color="#8CFF00"/>
</radialGradient>
<linearGradient id="paint7_linear_2436_4000" x1="165.92" y1="85.314" x2="57.8311" y2="173.448" gradientUnits="userSpaceOnUse">
<stop stop-color="#054F77" stop-opacity="0"/>
<stop offset="0.119029" stop-color="#79CDC6" stop-opacity="0.48"/>
<stop offset="0.510784" stop-color="#83DDDD" stop-opacity="0.61"/>
<stop offset="1" stop-color="#054F77" stop-opacity="0"/>
</linearGradient>
<linearGradient id="paint8_linear_2436_4000" x1="92.9859" y1="106.888" x2="98.1984" y2="131.19" gradientUnits="userSpaceOnUse">
<stop stop-color="#054F77"/>
<stop offset="1" stop-color="#093954"/>
</linearGradient>
<linearGradient id="paint9_linear_2436_4000" x1="98.3612" y1="113.354" x2="98.3612" y2="129.887" gradientUnits="userSpaceOnUse">
<stop stop-color="#83DDDD" stop-opacity="0"/>
<stop offset="1" stop-color="#8CFF00"/>
</linearGradient>
<linearGradient id="paint10_linear_2436_4000" x1="95.5955" y1="104.214" x2="100.89" y2="130.492" gradientUnits="userSpaceOnUse">
<stop stop-color="#054F77"/>
<stop offset="1" stop-color="#093954"/>
</linearGradient>
<linearGradient id="paint11_linear_2436_4000" x1="107.809" y1="123.046" x2="97.7096" y2="117.194" gradientUnits="userSpaceOnUse">
<stop stop-color="#8CFF00"/>
<stop offset="1" stop-color="#83DDDD" stop-opacity="0"/>
</linearGradient>
<linearGradient id="paint12_linear_2436_4000" x1="76.0774" y1="145.446" x2="85.5027" y2="189.39" gradientUnits="userSpaceOnUse">
<stop stop-color="#054F77"/>
<stop offset="1" stop-color="#093954"/>
</linearGradient>
<linearGradient id="paint13_linear_2436_4000" x1="85.7973" y1="157.138" x2="85.7973" y2="187.034" gradientUnits="userSpaceOnUse">
<stop stop-color="#83DDDD" stop-opacity="0"/>
<stop offset="1" stop-color="#8CFF00"/>
</linearGradient>
<linearGradient id="paint14_linear_2436_4000" x1="80.7959" y1="140.611" x2="90.3704" y2="188.128" gradientUnits="userSpaceOnUse">
<stop stop-color="#054F77"/>
<stop offset="1" stop-color="#093954"/>
</linearGradient>
<linearGradient id="paint15_linear_2436_4000" x1="102.88" y1="174.663" x2="84.6187" y2="164.082" gradientUnits="userSpaceOnUse">
<stop stop-color="#8CFF00"/>
<stop offset="1" stop-color="#83DDDD" stop-opacity="0"/>
</linearGradient>
<linearGradient id="paint16_linear_2436_4000" x1="129.522" y1="130.959" x2="132.76" y2="146.054" gradientUnits="userSpaceOnUse">
<stop stop-color="#054F77"/>
<stop offset="1" stop-color="#093954"/>
</linearGradient>
<linearGradient id="paint17_linear_2436_4000" x1="132.861" y1="134.975" x2="132.861" y2="145.245" gradientUnits="userSpaceOnUse">
<stop stop-color="#83DDDD" stop-opacity="0"/>
<stop offset="1" stop-color="#8CFF00"/>
</linearGradient>
<linearGradient id="paint18_linear_2436_4000" x1="131.143" y1="129.298" x2="134.432" y2="145.621" gradientUnits="userSpaceOnUse">
<stop stop-color="#054F77"/>
<stop offset="1" stop-color="#093954"/>
</linearGradient>
<linearGradient id="paint19_linear_2436_4000" x1="138.73" y1="140.995" x2="132.456" y2="137.361" gradientUnits="userSpaceOnUse">
<stop stop-color="#8CFF00"/>
<stop offset="1" stop-color="#83DDDD" stop-opacity="0"/>
</linearGradient>
<linearGradient id="paint20_linear_2436_4000" x1="135.357" y1="104.509" x2="137.658" y2="115.235" gradientUnits="userSpaceOnUse">
<stop stop-color="#054F77"/>
<stop offset="1" stop-color="#093954"/>
</linearGradient>
<linearGradient id="paint21_linear_2436_4000" x1="137.729" y1="107.362" x2="137.729" y2="114.66" gradientUnits="userSpaceOnUse">
<stop stop-color="#83DDDD" stop-opacity="0"/>
<stop offset="1" stop-color="#8CFF00"/>
</linearGradient>
<linearGradient id="paint22_linear_2436_4000" x1="136.509" y1="103.329" x2="138.846" y2="114.927" gradientUnits="userSpaceOnUse">
<stop stop-color="#054F77"/>
<stop offset="1" stop-color="#093954"/>
</linearGradient>
<linearGradient id="paint23_linear_2436_4000" x1="141.899" y1="111.64" x2="137.442" y2="109.058" gradientUnits="userSpaceOnUse">
<stop stop-color="#8CFF00"/>
<stop offset="1" stop-color="#83DDDD" stop-opacity="0"/>
</linearGradient>
<clipPath id="clip0_2436_4000">
<rect width="286" height="243" fill="white"/>
</clipPath>
</defs>
</svg>
