<svg width="194" height="353" viewBox="0 0 194 353" fill="none" xmlns="http://www.w3.org/2000/svg">
<g clip-path="url(#clip0_2441_4706)">
<path d="M155.186 239.926L155.186 171.323C155.186 169.534 154.112 167.924 152.475 167.209L92.5752 141.539L92.5752 213.093L155.186 239.926ZM92.5752 213.093L25.4927 239.926L25.4927 171.323C25.4919 170.447 25.7483 169.591 26.2301 168.859C26.7119 168.128 27.3978 167.554 28.2028 167.209L92.5752 141.539L92.5752 213.093Z" fill="url(#paint0_linear_2441_4706)"/>
<path d="M48.0584 193.048L3.96997 48.1862L179.536 42.6753L134.294 193.048L179.536 333.974H3.96997L48.0584 193.048Z" fill="url(#paint1_linear_2441_4706)"/>
<g opacity="0.5" filter="url(#filter0_f_2441_4706)">
<circle cx="62.4003" cy="259.09" r="5.423" transform="rotate(-22.7554 62.4003 259.09)" fill="url(#paint2_linear_2441_4706)"/>
</g>
<g opacity="0.5" filter="url(#filter1_f_2441_4706)">
<circle cx="80.7902" cy="291.187" r="3.14924" transform="rotate(-22.7554 80.7902 291.187)" fill="url(#paint3_linear_2441_4706)"/>
</g>
<g opacity="0.5" filter="url(#filter2_f_2441_4706)">
<circle cx="105.135" cy="164.404" r="3.14924" transform="rotate(-22.7554 105.135 164.404)" fill="url(#paint4_linear_2441_4706)"/>
</g>
<g opacity="0.5" filter="url(#filter3_f_2441_4706)">
<circle cx="40.2228" cy="86.4809" r="3.14924" transform="rotate(-22.7554 40.2228 86.4809)" fill="url(#paint5_linear_2441_4706)"/>
</g>
<path opacity="0.5" d="M122.227 228.169C121.884 228.169 121.579 228.073 121.314 227.882C121.053 227.69 120.849 227.418 120.701 227.066C120.557 226.714 120.486 226.294 120.486 225.807C120.486 225.32 120.557 224.901 120.701 224.549C120.849 224.196 121.053 223.925 121.314 223.733C121.579 223.542 121.884 223.446 122.227 223.446C122.575 223.446 122.88 223.542 123.14 223.733C123.401 223.925 123.604 224.196 123.747 224.549C123.895 224.901 123.969 225.32 123.969 225.807C123.969 226.294 123.895 226.714 123.747 227.066C123.604 227.418 123.401 227.69 123.14 227.882C122.88 228.073 122.575 228.169 122.227 228.169ZM121.047 225.807C121.047 226.103 121.077 226.371 121.138 226.61C121.203 226.845 121.292 227.042 121.405 227.203L122.671 224.066C122.536 223.992 122.388 223.955 122.227 223.955C121.997 223.955 121.792 224.031 121.614 224.183C121.436 224.331 121.297 224.544 121.197 224.822C121.097 225.096 121.047 225.425 121.047 225.807ZM122.227 227.666C122.458 227.666 122.662 227.592 122.84 227.445C123.019 227.292 123.158 227.077 123.258 226.799C123.358 226.521 123.408 226.19 123.408 225.807C123.408 225.512 123.375 225.246 123.31 225.012C123.249 224.772 123.162 224.572 123.049 224.412L121.777 227.555C121.916 227.629 122.066 227.666 122.227 227.666ZM120.727 238.09V237.595H121.908V234.17L120.792 234.385V233.968L122.09 233.524H122.456V237.595H123.701V238.09H120.727ZM122.227 249.169C121.884 249.169 121.579 249.073 121.314 248.882C121.053 248.69 120.849 248.418 120.701 248.066C120.557 247.714 120.486 247.294 120.486 246.807C120.486 246.32 120.557 245.901 120.701 245.549C120.849 245.196 121.053 244.925 121.314 244.733C121.579 244.542 121.884 244.446 122.227 244.446C122.575 244.446 122.88 244.542 123.14 244.733C123.401 244.925 123.604 245.196 123.747 245.549C123.895 245.901 123.969 246.32 123.969 246.807C123.969 247.294 123.895 247.714 123.747 248.066C123.604 248.418 123.401 248.69 123.14 248.882C122.88 249.073 122.575 249.169 122.227 249.169ZM121.047 246.807C121.047 247.103 121.077 247.371 121.138 247.61C121.203 247.845 121.292 248.042 121.405 248.203L122.671 245.066C122.536 244.992 122.388 244.955 122.227 244.955C121.997 244.955 121.792 245.031 121.614 245.183C121.436 245.331 121.297 245.544 121.197 245.822C121.097 246.096 121.047 246.425 121.047 246.807ZM122.227 248.666C122.458 248.666 122.662 248.592 122.84 248.445C123.019 248.292 123.158 248.077 123.258 247.799C123.358 247.521 123.408 247.19 123.408 246.807C123.408 246.512 123.375 246.246 123.31 246.012C123.249 245.772 123.162 245.572 123.049 245.412L121.777 248.555C121.916 248.629 122.066 248.666 122.227 248.666ZM120.727 259.09V258.595H121.908V255.17L120.792 255.385V254.968L122.09 254.524H122.456V258.595H123.701V259.09H120.727ZM122.227 269.169C121.884 269.169 121.579 269.073 121.314 268.882C121.053 268.69 120.849 268.418 120.701 268.066C120.557 267.714 120.486 267.294 120.486 266.807C120.486 266.32 120.557 265.901 120.701 265.549C120.849 265.196 121.053 264.925 121.314 264.733C121.579 264.542 121.884 264.446 122.227 264.446C122.575 264.446 122.88 264.542 123.14 264.733C123.401 264.925 123.604 265.196 123.747 265.549C123.895 265.901 123.969 266.32 123.969 266.807C123.969 267.294 123.895 267.714 123.747 268.066C123.604 268.418 123.401 268.69 123.14 268.882C122.88 269.073 122.575 269.169 122.227 269.169ZM121.047 266.807C121.047 267.103 121.077 267.371 121.138 267.61C121.203 267.845 121.292 268.042 121.405 268.203L122.671 265.066C122.536 264.992 122.388 264.955 122.227 264.955C121.997 264.955 121.792 265.031 121.614 265.183C121.436 265.331 121.297 265.544 121.197 265.822C121.097 266.096 121.047 266.425 121.047 266.807ZM122.227 268.666C122.458 268.666 122.662 268.592 122.84 268.445C123.019 268.292 123.158 268.077 123.258 267.799C123.358 267.521 123.408 267.19 123.408 266.807C123.408 266.512 123.375 266.246 123.31 266.012C123.249 265.772 123.162 265.572 123.049 265.412L121.777 268.555C121.916 268.629 122.066 268.666 122.227 268.666ZM120.727 279.09V278.595H121.908V275.17L120.792 275.385V274.968L122.09 274.524H122.456V278.595H123.701V279.09H120.727ZM122.227 289.169C121.884 289.169 121.579 289.073 121.314 288.882C121.053 288.69 120.849 288.418 120.701 288.066C120.557 287.714 120.486 287.294 120.486 286.807C120.486 286.32 120.557 285.901 120.701 285.549C120.849 285.196 121.053 284.925 121.314 284.733C121.579 284.542 121.884 284.446 122.227 284.446C122.575 284.446 122.88 284.542 123.14 284.733C123.401 284.925 123.604 285.196 123.747 285.549C123.895 285.901 123.969 286.32 123.969 286.807C123.969 287.294 123.895 287.714 123.747 288.066C123.604 288.418 123.401 288.69 123.14 288.882C122.88 289.073 122.575 289.169 122.227 289.169ZM121.047 286.807C121.047 287.103 121.077 287.371 121.138 287.61C121.203 287.845 121.292 288.042 121.405 288.203L122.671 285.066C122.536 284.992 122.388 284.955 122.227 284.955C121.997 284.955 121.792 285.031 121.614 285.183C121.436 285.331 121.297 285.544 121.197 285.822C121.097 286.096 121.047 286.425 121.047 286.807ZM122.227 288.666C122.458 288.666 122.662 288.592 122.84 288.445C123.019 288.292 123.158 288.077 123.258 287.799C123.358 287.521 123.408 287.19 123.408 286.807C123.408 286.512 123.375 286.246 123.31 286.012C123.249 285.772 123.162 285.572 123.049 285.412L121.777 288.555C121.916 288.629 122.066 288.666 122.227 288.666ZM120.727 299.09V298.595H121.908V295.17L120.792 295.385V294.968L122.09 294.524H122.456V298.595H123.701V299.09H120.727Z" fill="#8CFF00"/>
<path opacity="0.5" d="M70.2272 156.169C69.8837 156.169 69.5793 156.073 69.3141 155.882C69.0532 155.69 68.8488 155.418 68.7009 155.066C68.5574 154.714 68.4857 154.294 68.4857 153.807C68.4857 153.32 68.5574 152.901 68.7009 152.549C68.8488 152.196 69.0532 151.925 69.3141 151.733C69.5793 151.542 69.8837 151.446 70.2272 151.446C70.5751 151.446 70.8795 151.542 71.1404 151.733C71.4013 151.925 71.6035 152.196 71.747 152.549C71.8949 152.901 71.9688 153.32 71.9688 153.807C71.9688 154.294 71.8949 154.714 71.747 155.066C71.6035 155.418 71.4013 155.69 71.1404 155.882C70.8795 156.073 70.5751 156.169 70.2272 156.169ZM69.0466 153.807C69.0466 154.103 69.0771 154.371 69.138 154.61C69.2032 154.845 69.2923 155.042 69.4054 155.203L70.6708 152.066C70.536 151.992 70.3881 151.955 70.2272 151.955C69.9968 151.955 69.7924 152.031 69.6141 152.183C69.4358 152.331 69.2967 152.544 69.1967 152.822C69.0966 153.096 69.0466 153.425 69.0466 153.807ZM70.2272 155.666C70.4577 155.666 70.6621 155.592 70.8404 155.445C71.0187 155.292 71.1578 155.077 71.2578 154.799C71.3578 154.521 71.4078 154.19 71.4078 153.807C71.4078 153.512 71.3752 153.246 71.31 153.012C71.2491 152.772 71.1622 152.572 71.0491 152.412L69.7772 155.555C69.9163 155.629 70.0663 155.666 70.2272 155.666ZM68.727 166.09V165.595H69.9076V162.17L68.7923 162.385V161.968L70.0903 161.524H70.4555V165.595H71.7014V166.09H68.727ZM70.2272 177.169C69.8837 177.169 69.5793 177.073 69.3141 176.882C69.0532 176.69 68.8488 176.418 68.7009 176.066C68.5574 175.714 68.4857 175.294 68.4857 174.807C68.4857 174.32 68.5574 173.901 68.7009 173.549C68.8488 173.196 69.0532 172.925 69.3141 172.733C69.5793 172.542 69.8837 172.446 70.2272 172.446C70.5751 172.446 70.8795 172.542 71.1404 172.733C71.4013 172.925 71.6035 173.196 71.747 173.549C71.8949 173.901 71.9688 174.32 71.9688 174.807C71.9688 175.294 71.8949 175.714 71.747 176.066C71.6035 176.418 71.4013 176.69 71.1404 176.882C70.8795 177.073 70.5751 177.169 70.2272 177.169ZM69.0466 174.807C69.0466 175.103 69.0771 175.371 69.138 175.61C69.2032 175.845 69.2923 176.042 69.4054 176.203L70.6708 173.066C70.536 172.992 70.3881 172.955 70.2272 172.955C69.9968 172.955 69.7924 173.031 69.6141 173.183C69.4358 173.331 69.2967 173.544 69.1967 173.822C69.0966 174.096 69.0466 174.425 69.0466 174.807ZM70.2272 176.666C70.4577 176.666 70.6621 176.592 70.8404 176.445C71.0187 176.292 71.1578 176.077 71.2578 175.799C71.3578 175.521 71.4078 175.19 71.4078 174.807C71.4078 174.512 71.3752 174.246 71.31 174.012C71.2491 173.772 71.1622 173.572 71.0491 173.412L69.7772 176.555C69.9163 176.629 70.0663 176.666 70.2272 176.666ZM68.727 187.09V186.595H69.9076V183.17L68.7923 183.385V182.968L70.0903 182.524H70.4555V186.595H71.7014V187.09H68.727ZM70.2272 197.169C69.8837 197.169 69.5793 197.073 69.3141 196.882C69.0532 196.69 68.8488 196.418 68.7009 196.066C68.5574 195.714 68.4857 195.294 68.4857 194.807C68.4857 194.32 68.5574 193.901 68.7009 193.549C68.8488 193.196 69.0532 192.925 69.3141 192.733C69.5793 192.542 69.8837 192.446 70.2272 192.446C70.5751 192.446 70.8795 192.542 71.1404 192.733C71.4013 192.925 71.6035 193.196 71.747 193.549C71.8949 193.901 71.9688 194.32 71.9688 194.807C71.9688 195.294 71.8949 195.714 71.747 196.066C71.6035 196.418 71.4013 196.69 71.1404 196.882C70.8795 197.073 70.5751 197.169 70.2272 197.169ZM69.0466 194.807C69.0466 195.103 69.0771 195.371 69.138 195.61C69.2032 195.845 69.2923 196.042 69.4054 196.203L70.6708 193.066C70.536 192.992 70.3881 192.955 70.2272 192.955C69.9968 192.955 69.7924 193.031 69.6141 193.183C69.4358 193.331 69.2967 193.544 69.1967 193.822C69.0966 194.096 69.0466 194.425 69.0466 194.807ZM70.2272 196.666C70.4577 196.666 70.6621 196.592 70.8404 196.445C71.0187 196.292 71.1578 196.077 71.2578 195.799C71.3578 195.521 71.4078 195.19 71.4078 194.807C71.4078 194.512 71.3752 194.246 71.31 194.012C71.2491 193.772 71.1622 193.572 71.0491 193.412L69.7772 196.555C69.9163 196.629 70.0663 196.666 70.2272 196.666ZM68.727 207.09V206.595H69.9076V203.17L68.7923 203.385V202.968L70.0903 202.524H70.4555V206.595H71.7014V207.09H68.727ZM70.2272 217.169C69.8837 217.169 69.5793 217.073 69.3141 216.882C69.0532 216.69 68.8488 216.418 68.7009 216.066C68.5574 215.714 68.4857 215.294 68.4857 214.807C68.4857 214.32 68.5574 213.901 68.7009 213.549C68.8488 213.196 69.0532 212.925 69.3141 212.733C69.5793 212.542 69.8837 212.446 70.2272 212.446C70.5751 212.446 70.8795 212.542 71.1404 212.733C71.4013 212.925 71.6035 213.196 71.747 213.549C71.8949 213.901 71.9688 214.32 71.9688 214.807C71.9688 215.294 71.8949 215.714 71.747 216.066C71.6035 216.418 71.4013 216.69 71.1404 216.882C70.8795 217.073 70.5751 217.169 70.2272 217.169ZM69.0466 214.807C69.0466 215.103 69.0771 215.371 69.138 215.61C69.2032 215.845 69.2923 216.042 69.4054 216.203L70.6708 213.066C70.536 212.992 70.3881 212.955 70.2272 212.955C69.9968 212.955 69.7924 213.031 69.6141 213.183C69.4358 213.331 69.2967 213.544 69.1967 213.822C69.0966 214.096 69.0466 214.425 69.0466 214.807ZM70.2272 216.666C70.4577 216.666 70.6621 216.592 70.8404 216.445C71.0187 216.292 71.1578 216.077 71.2578 215.799C71.3578 215.521 71.4078 215.19 71.4078 214.807C71.4078 214.512 71.3752 214.246 71.31 214.012C71.2491 213.772 71.1622 213.572 71.0491 213.412L69.7772 216.555C69.9163 216.629 70.0663 216.666 70.2272 216.666ZM68.727 227.09V226.595H69.9076V223.17L68.7923 223.385V222.968L70.0903 222.524H70.4555V226.595H71.7014V227.09H68.727Z" fill="#8CFF00"/>
<path d="M155.19 170.028L155.19 238.631C155.19 240.42 154.117 242.03 152.48 242.746L92.5796 268.416L92.5796 196.861L155.19 170.028ZM92.5796 196.861L25.4971 170.028L25.4971 238.631C25.4963 239.507 25.7527 240.364 26.2345 241.095C26.7163 241.827 27.4022 242.401 28.2072 242.746L92.5796 268.416L92.5796 196.861Z" fill="#054F77"/>
<path d="M155.19 170.028L155.19 238.631C155.19 240.42 154.117 242.03 152.48 242.746L92.5796 268.416L92.5796 196.861L155.19 170.028ZM92.5796 196.861L25.4971 170.028L25.4971 238.631C25.4963 239.507 25.7527 240.364 26.2345 241.095C26.7163 241.827 27.4022 242.401 28.2072 242.746L92.5796 268.416L92.5796 196.861Z" fill="url(#paint6_linear_2441_4706)"/>
<path d="M92.522 196.852L92.5208 268.39" stroke="#F4FBFF" stroke-opacity="0.14" stroke-width="1.3277"/>
<path opacity="0.5" d="M140.757 25.2417H58.59L50.924 61.4132H133.166L140.757 25.2417Z" fill="white"/>
<path opacity="0.5" d="M140.61 96.6914H58.8145L51.2973 129.29H133.986L140.61 96.6914Z" fill="white"/>
<path opacity="0.3" d="M133.167 61.4126H51.2973L58.8145 96.691H140.61L133.167 61.4126Z" fill="white"/>
<g opacity="0.5" filter="url(#filter4_bf_2441_4706)">
<path fill-rule="evenodd" clip-rule="evenodd" d="M140.757 25.2417H58.59L50.924 61.4132H51.2975L58.8145 96.6908H140.61L133.167 61.4124H133.166L140.757 25.2417ZM140.61 96.6912H58.8145L51.2974 129.29H133.986L140.61 96.6912Z" fill="url(#paint7_linear_2441_4706)"/>
<path d="M58.59 25.2417L58.4509 25.2122L58.4748 25.0995H58.59V25.2417ZM140.757 25.2417V25.0995H140.932L140.896 25.2709L140.757 25.2417ZM50.924 61.4132V61.5554H50.7486L50.785 61.3837L50.924 61.4132ZM51.2975 61.4132V61.271H51.4126L51.4366 61.3835L51.2975 61.4132ZM58.8145 96.6908V96.8329H58.6994L58.6754 96.7204L58.8145 96.6908ZM140.61 96.6908L140.749 96.6614L140.785 96.8329H140.61V96.6908ZM133.167 61.4124V61.2702H133.282L133.306 61.3831L133.167 61.4124ZM133.166 61.4124V61.5546H132.991L133.027 61.3832L133.166 61.4124ZM58.8145 96.6912L58.6759 96.6593L58.7014 96.549H58.8145V96.6912ZM140.61 96.6912V96.549H140.784L140.749 96.7195L140.61 96.6912ZM51.2974 129.29V129.432H51.1187L51.1588 129.258L51.2974 129.29ZM133.986 129.29L134.125 129.319L134.102 129.432H133.986V129.29ZM58.59 25.0995H140.757V25.3839H58.59V25.0995ZM50.785 61.3837L58.4509 25.2122L58.7291 25.2712L51.0631 61.4426L50.785 61.3837ZM51.2975 61.5554H50.924V61.271H51.2975V61.5554ZM51.4366 61.3835L58.9535 96.6611L58.6754 96.7204L51.1585 61.4428L51.4366 61.3835ZM58.8145 96.5486H140.61V96.8329H58.8145V96.5486ZM140.471 96.7201L133.028 61.4418L133.306 61.3831L140.749 96.6614L140.471 96.7201ZM133.167 61.5546H133.166V61.2702H133.167V61.5546ZM140.896 25.2709L133.305 61.4416L133.027 61.3832L140.618 25.2125L140.896 25.2709ZM58.8145 96.549H140.61V96.8334H58.8145V96.549ZM51.1588 129.258L58.6759 96.6593L58.953 96.7231L51.4359 129.322L51.1588 129.258ZM133.986 129.432H51.2974V129.148H133.986V129.432ZM140.749 96.7195L134.125 129.319L133.846 129.262L140.47 96.6629L140.749 96.7195Z" fill="#8CFF00"/>
</g>
<g filter="url(#filter5_f_2441_4706)">
<path d="M136.242 28.6553C135.526 30.0968 134.361 31.2661 132.921 31.9865C131.482 32.7068 129.848 32.9392 128.265 32.6484C126.682 32.3575 125.236 31.5594 124.147 30.3745C123.058 29.1896 122.384 27.6823 122.227 26.0806C122.07 24.4788 122.439 22.8695 123.278 21.4958C124.117 20.1222 125.38 19.0589 126.876 18.4667C128.373 17.8744 130.022 17.7854 131.573 18.213C133.125 18.6406 134.495 19.5616 135.477 20.8369L134.18 21.8353C133.415 20.8416 132.347 20.1239 131.138 19.7907C129.929 19.4575 128.645 19.5269 127.479 19.9884C126.313 20.4499 125.328 21.2784 124.675 22.3487C124.021 23.419 123.734 24.673 123.856 25.9211C123.978 27.1692 124.503 28.3437 125.352 29.2669C126.201 30.1902 127.327 30.8121 128.56 31.0387C129.794 31.2653 131.067 31.0843 132.189 30.523C133.31 29.9617 134.219 29.0506 134.776 27.9274L136.242 28.6553Z" fill="url(#paint8_linear_2441_4706)"/>
</g>
<g filter="url(#filter6_f_2441_4706)">
<path d="M138.255 14.2371C140.907 16.301 142.734 19.2447 143.407 22.5371C144.079 25.8296 143.553 29.254 141.923 32.1927C140.293 35.1313 137.667 37.3907 134.517 38.5632C131.368 39.7357 127.903 39.7441 124.748 38.5869C121.594 37.4298 118.956 35.1832 117.312 32.2525C115.667 29.3218 115.125 25.9 115.781 22.6043C116.438 19.3086 118.251 16.3561 120.892 14.2794C123.534 12.2026 126.831 11.1384 130.189 11.2787L130.071 14.1047C127.387 13.9926 124.752 14.8432 122.64 16.5031C120.529 18.163 119.08 20.5228 118.555 23.157C118.03 25.7911 118.464 28.5261 119.778 30.8685C121.093 33.2109 123.201 35.0065 125.722 35.9314C128.244 36.8563 131.013 36.8495 133.53 35.9124C136.047 34.9753 138.147 33.1694 139.45 30.8207C140.752 28.4719 141.173 25.7348 140.635 23.1033C140.098 20.4717 138.638 18.1189 136.518 16.4693L138.255 14.2371Z" fill="url(#paint9_linear_2441_4706)"/>
<path d="M138.255 14.2371C140.907 16.301 142.734 19.2447 143.407 22.5371C144.079 25.8296 143.553 29.254 141.923 32.1927C140.293 35.1313 137.667 37.3907 134.517 38.5632C131.368 39.7357 127.903 39.7441 124.748 38.5869C121.594 37.4298 118.956 35.1832 117.312 32.2525C115.667 29.3218 115.125 25.9 115.781 22.6043C116.438 19.3086 118.251 16.3561 120.892 14.2794C123.534 12.2026 126.831 11.1384 130.189 11.2787L130.071 14.1047C127.387 13.9926 124.752 14.8432 122.64 16.5031C120.529 18.163 119.08 20.5228 118.555 23.157C118.03 25.7911 118.464 28.5261 119.778 30.8685C121.093 33.2109 123.201 35.0065 125.722 35.9314C128.244 36.8563 131.013 36.8495 133.53 35.9124C136.047 34.9753 138.147 33.1694 139.45 30.8207C140.752 28.4719 141.173 25.7348 140.635 23.1033C140.098 20.4717 138.638 18.1189 136.518 16.4693L138.255 14.2371Z" fill="white" fill-opacity="0.2"/>
</g>
<g filter="url(#filter7_f_2441_4706)">
<path d="M123.03 6.96187C127.024 5.53476 131.375 5.44668 135.424 6.71093C139.473 7.97517 143.001 10.523 145.474 13.9695C147.946 17.416 149.23 21.5737 149.131 25.8144C149.032 30.0551 147.555 34.1484 144.924 37.4755C142.293 40.8027 138.65 43.183 134.546 44.2566C130.443 45.3303 126.101 45.0391 122.177 43.4269C118.254 41.8147 114.962 38.9692 112.798 35.3204C110.635 31.6716 109.718 27.4178 110.186 23.2019L113.749 23.5975C113.366 27.0399 114.115 30.5132 115.881 33.4925C117.648 36.4718 120.336 38.7952 123.54 40.1116C126.743 41.428 130.288 41.6658 133.639 40.7891C136.99 39.9124 139.964 37.9689 142.113 35.2522C144.261 32.5355 145.467 29.1933 145.548 25.7307C145.629 22.268 144.581 18.8732 142.561 16.059C140.542 13.2449 137.662 11.1645 134.356 10.1323C131.049 9.09998 127.497 9.17191 124.235 10.3372L123.03 6.96187Z" fill="url(#paint10_linear_2441_4706)"/>
<path d="M123.03 6.96187C127.024 5.53476 131.375 5.44668 135.424 6.71093C139.473 7.97517 143.001 10.523 145.474 13.9695C147.946 17.416 149.23 21.5737 149.131 25.8144C149.032 30.0551 147.555 34.1484 144.924 37.4755C142.293 40.8027 138.65 43.183 134.546 44.2566C130.443 45.3303 126.101 45.0391 122.177 43.4269C118.254 41.8147 114.962 38.9692 112.798 35.3204C110.635 31.6716 109.718 27.4178 110.186 23.2019L113.749 23.5975C113.366 27.0399 114.115 30.5132 115.881 33.4925C117.648 36.4718 120.336 38.7952 123.54 40.1116C126.743 41.428 130.288 41.6658 133.639 40.7891C136.99 39.9124 139.964 37.9689 142.113 35.2522C144.261 32.5355 145.467 29.1933 145.548 25.7307C145.629 22.268 144.581 18.8732 142.561 16.059C140.542 13.2449 137.662 11.1645 134.356 10.1323C131.049 9.09998 127.497 9.17191 124.235 10.3372L123.03 6.96187Z" fill="white" fill-opacity="0.2"/>
</g>
<g filter="url(#filter8_f_2441_4706)">
<circle cx="133.551" cy="13.7721" r="0.989841" transform="rotate(-22.7554 133.551 13.7721)" fill="url(#paint11_linear_2441_4706)"/>
</g>
<g filter="url(#filter9_f_2441_4706)">
<path d="M97.0665 82.6653L93.3545 77.6262C93.0532 77.2172 92.4393 77.2247 92.1481 77.6409L86.0297 86.3869C85.6875 86.8761 86.0331 87.5486 86.63 87.5551L103.38 87.7392C103.981 87.7458 104.34 87.0733 104.001 86.5774L100.85 81.972C100.627 81.6456 100.187 81.5515 99.8493 81.758L98.0521 82.8582C97.7233 83.0595 97.2952 82.9757 97.0665 82.6653Z" fill="url(#paint12_linear_2441_4706)"/>
</g>
<path d="M104.573 69.9802L87.5481 69.4522C86.1758 69.4096 85.0259 70.4687 84.9841 71.8156L84.5084 87.1549C84.4667 88.5002 85.5488 89.6273 86.9211 89.6699L103.946 90.1979C105.319 90.2405 106.467 89.1825 106.509 87.8372L106.985 72.4979C107.027 71.151 105.946 70.0228 104.573 69.9802ZM99.174 73.4458C100.501 73.487 101.545 74.5756 101.504 75.8765C101.464 77.1774 100.355 78.1992 99.0279 78.1581C97.7004 78.1169 96.6572 77.0284 96.6975 75.7274C96.7379 74.4265 97.8465 73.4047 99.174 73.4458ZM103.236 87.9188L95.5029 87.679L88.1143 87.4498C87.4505 87.4292 87.1695 86.9493 87.4868 86.3777L91.8598 78.4967C92.1767 77.9252 92.7479 77.891 93.1353 78.4203L97.118 83.8624C97.5053 84.3917 98.209 84.4575 98.69 84.009L99.7359 83.0332C100.217 82.5847 100.902 82.6633 101.266 83.208L103.779 86.9687C104.142 87.5141 103.9 87.9394 103.236 87.9188Z" fill="url(#paint13_linear_2441_4706)"/>
<g filter="url(#filter10_f_2441_4706)">
<path d="M87.3851 73.2758C88.6775 73.7472 88.975 75.4408 87.9206 76.3244L82.7504 80.6568C81.696 81.5403 80.0805 80.9511 79.8425 79.5962L78.6756 72.9526C78.4377 71.5976 79.7557 70.4932 81.0481 70.9645L87.3851 73.2758Z" fill="url(#paint14_radial_2441_4706)"/>
<path d="M87.3851 73.2758C88.6775 73.7472 88.975 75.4408 87.9206 76.3244L82.7504 80.6568C81.696 81.5403 80.0805 80.9511 79.8425 79.5962L78.6756 72.9526C78.4377 71.5976 79.7557 70.4932 81.0481 70.9645L87.3851 73.2758Z" stroke="#8CFF00" stroke-width="0.44676"/>
</g>
<path d="M87.7392 73.405C88.8742 73.8189 89.1355 75.3063 88.2095 76.0823L82.4615 80.8989C81.5355 81.6748 80.1168 81.1574 79.9078 79.9675L78.6104 72.5813C78.4014 71.3914 79.5589 70.4214 80.6939 70.8354L87.7392 73.405Z" fill="url(#paint15_radial_2441_4706)"/>
<path d="M87.7392 73.405C88.8742 73.8189 89.1355 75.3063 88.2095 76.0823L82.4615 80.8989C81.5355 81.6748 80.1168 81.1574 79.9078 79.9675L78.6104 72.5813C78.4014 71.3914 79.5589 70.4214 80.6939 70.8354L87.7392 73.405Z" fill="url(#paint16_radial_2441_4706)"/>
<path d="M87.7392 73.405C88.8742 73.8189 89.1355 75.3063 88.2095 76.0823L82.4615 80.8989C81.5355 81.6748 80.1168 81.1574 79.9078 79.9675L78.6104 72.5813C78.4014 71.3914 79.5589 70.4214 80.6939 70.8354L87.7392 73.405Z" stroke="#F4FBFF" stroke-width="0.0893521"/>
<path d="M29.9893 42.266L37.5358 36.2021H98.2071" stroke="url(#paint17_linear_2441_4706)" stroke-width="0.284354"/>
<path d="M31.8599 46.3577L39.4064 40.2939H101.295" stroke="url(#paint18_linear_2441_4706)" stroke-width="0.284354"/>
<path d="M144.494 107.794L136.947 101.73H76.2761" stroke="url(#paint19_linear_2441_4706)" stroke-width="0.284354"/>
<path d="M142.62 111.887L135.074 105.823H73.1848" stroke="url(#paint20_linear_2441_4706)" stroke-width="0.284354"/>
<circle cx="54.4563" cy="220.012" r="15.7467" transform="rotate(-10.5143 54.4563 220.012)" fill="url(#paint21_radial_2441_4706)"/>
<circle cx="54.4563" cy="220.012" r="15.7467" transform="rotate(-10.5143 54.4563 220.012)" fill="url(#paint22_radial_2441_4706)" fill-opacity="0.5"/>
<path d="M47.0594 220.019L50.8571 225.32L59.4961 214.747" stroke="white" stroke-width="2" stroke-linecap="round" stroke-linejoin="round"/>
</g>
<defs>
<filter id="filter0_f_2441_4706" x="55.2664" y="251.957" width="14.2677" height="14.2675" filterUnits="userSpaceOnUse" color-interpolation-filters="sRGB">
<feFlood flood-opacity="0" result="BackgroundImageFix"/>
<feBlend mode="normal" in="SourceGraphic" in2="BackgroundImageFix" result="shape"/>
<feGaussianBlur stdDeviation="0.854708" result="effect1_foregroundBlur_2441_4706"/>
</filter>
<filter id="filter1_f_2441_4706" x="75.9307" y="286.328" width="9.71888" height="9.71864" filterUnits="userSpaceOnUse" color-interpolation-filters="sRGB">
<feFlood flood-opacity="0" result="BackgroundImageFix"/>
<feBlend mode="normal" in="SourceGraphic" in2="BackgroundImageFix" result="shape"/>
<feGaussianBlur stdDeviation="0.854708" result="effect1_foregroundBlur_2441_4706"/>
</filter>
<filter id="filter2_f_2441_4706" x="100.275" y="159.545" width="9.71888" height="9.71864" filterUnits="userSpaceOnUse" color-interpolation-filters="sRGB">
<feFlood flood-opacity="0" result="BackgroundImageFix"/>
<feBlend mode="normal" in="SourceGraphic" in2="BackgroundImageFix" result="shape"/>
<feGaussianBlur stdDeviation="0.854708" result="effect1_foregroundBlur_2441_4706"/>
</filter>
<filter id="filter3_f_2441_4706" x="35.3633" y="81.6216" width="9.71888" height="9.71864" filterUnits="userSpaceOnUse" color-interpolation-filters="sRGB">
<feFlood flood-opacity="0" result="BackgroundImageFix"/>
<feBlend mode="normal" in="SourceGraphic" in2="BackgroundImageFix" result="shape"/>
<feGaussianBlur stdDeviation="0.854708" result="effect1_foregroundBlur_2441_4706"/>
</filter>
<filter id="filter4_bf_2441_4706" x="45.5172" y="19.8682" width="100.647" height="114.795" filterUnits="userSpaceOnUse" color-interpolation-filters="sRGB">
<feFlood flood-opacity="0" result="BackgroundImageFix"/>
<feGaussianBlur in="BackgroundImage" stdDeviation="2.61569"/>
<feComposite in2="SourceAlpha" operator="in" result="effect1_backgroundBlur_2441_4706"/>
<feBlend mode="normal" in="SourceGraphic" in2="effect1_backgroundBlur_2441_4706" result="shape"/>
<feGaussianBlur stdDeviation="0.568709" result="effect2_foregroundBlur_2441_4706"/>
</filter>
<filter id="filter5_f_2441_4706" x="121.846" y="17.6012" width="14.7414" height="15.5148" filterUnits="userSpaceOnUse" color-interpolation-filters="sRGB">
<feFlood flood-opacity="0" result="BackgroundImageFix"/>
<feBlend mode="normal" in="SourceGraphic" in2="BackgroundImageFix" result="shape"/>
<feGaussianBlur stdDeviation="0.172774" result="effect1_foregroundBlur_2441_4706"/>
</filter>
<filter id="filter6_f_2441_4706" x="114.615" y="10.3723" width="29.9709" height="29.9706" filterUnits="userSpaceOnUse" color-interpolation-filters="sRGB">
<feFlood flood-opacity="0" result="BackgroundImageFix"/>
<feBlend mode="normal" in="SourceGraphic" in2="BackgroundImageFix" result="shape"/>
<feGaussianBlur stdDeviation="0.44713" result="effect1_foregroundBlur_2441_4706"/>
</filter>
<filter id="filter7_f_2441_4706" x="108.278" y="4.03472" width="42.6466" height="42.6464" filterUnits="userSpaceOnUse" color-interpolation-filters="sRGB">
<feFlood flood-opacity="0" result="BackgroundImageFix"/>
<feBlend mode="normal" in="SourceGraphic" in2="BackgroundImageFix" result="shape"/>
<feGaussianBlur stdDeviation="0.89426" result="effect1_foregroundBlur_2441_4706"/>
</filter>
<filter id="filter8_f_2441_4706" x="131.667" y="11.888" width="3.7685" height="3.7685" filterUnits="userSpaceOnUse" color-interpolation-filters="sRGB">
<feFlood flood-opacity="0" result="BackgroundImageFix"/>
<feBlend mode="normal" in="SourceGraphic" in2="BackgroundImageFix" result="shape"/>
<feGaussianBlur stdDeviation="0.44713" result="effect1_foregroundBlur_2441_4706"/>
</filter>
<filter id="filter9_f_2441_4706" x="85.0032" y="76.4331" width="20.02" height="12.1972" filterUnits="userSpaceOnUse" color-interpolation-filters="sRGB">
<feFlood flood-opacity="0" result="BackgroundImageFix"/>
<feBlend mode="normal" in="SourceGraphic" in2="BackgroundImageFix" result="shape"/>
<feGaussianBlur stdDeviation="0.445553" result="effect1_foregroundBlur_2441_4706"/>
</filter>
<filter id="filter10_f_2441_4706" x="77.0838" y="69.2901" width="13.0402" height="13.3495" filterUnits="userSpaceOnUse" color-interpolation-filters="sRGB">
<feFlood flood-opacity="0" result="BackgroundImageFix"/>
<feBlend mode="normal" in="SourceGraphic" in2="BackgroundImageFix" result="shape"/>
<feGaussianBlur stdDeviation="0.670141" result="effect1_foregroundBlur_2441_4706"/>
</filter>
<linearGradient id="paint0_linear_2441_4706" x1="90.3391" y1="136.457" x2="90.3391" y2="190.732" gradientUnits="userSpaceOnUse">
<stop stop-color="#063C5B"/>
<stop offset="1" stop-color="#052233"/>
</linearGradient>
<linearGradient id="paint1_linear_2441_4706" x1="109.332" y1="71.0717" x2="91.1254" y2="327.773" gradientUnits="userSpaceOnUse">
<stop stop-color="#B3DBF0" stop-opacity="0"/>
<stop offset="0.496682" stop-color="#83DDDD" stop-opacity="0.92"/>
<stop offset="1" stop-color="#B3DBF0" stop-opacity="0"/>
</linearGradient>
<linearGradient id="paint2_linear_2441_4706" x1="62.4003" y1="253.667" x2="62.4003" y2="272.797" gradientUnits="userSpaceOnUse">
<stop stop-color="#054F77"/>
<stop offset="1" stop-color="#8CFF00"/>
</linearGradient>
<linearGradient id="paint3_linear_2441_4706" x1="80.7902" y1="288.038" x2="80.7902" y2="299.147" gradientUnits="userSpaceOnUse">
<stop stop-color="#054F77"/>
<stop offset="1" stop-color="#8CFF00"/>
</linearGradient>
<linearGradient id="paint4_linear_2441_4706" x1="105.135" y1="161.255" x2="105.135" y2="172.364" gradientUnits="userSpaceOnUse">
<stop stop-color="#054F77"/>
<stop offset="1" stop-color="#8CFF00"/>
</linearGradient>
<linearGradient id="paint5_linear_2441_4706" x1="40.2228" y1="83.3317" x2="40.2228" y2="94.4409" gradientUnits="userSpaceOnUse">
<stop stop-color="#054F77"/>
<stop offset="1" stop-color="#8CFF00"/>
</linearGradient>
<linearGradient id="paint6_linear_2441_4706" x1="10.9416" y1="219.222" x2="124.794" y2="219.222" gradientUnits="userSpaceOnUse">
<stop stop-color="#8CFF00"/>
<stop offset="1" stop-color="#F4FBFF" stop-opacity="0.68"/>
</linearGradient>
<linearGradient id="paint7_linear_2441_4706" x1="66.0381" y1="22.8376" x2="95.8407" y2="129.29" gradientUnits="userSpaceOnUse">
<stop stop-color="#093954"/>
<stop offset="1" stop-color="#C4C4C4" stop-opacity="0"/>
</linearGradient>
<linearGradient id="paint8_linear_2441_4706" x1="129.976" y1="17.8802" x2="126.307" y2="31.9967" gradientUnits="userSpaceOnUse">
<stop stop-color="#054F77"/>
<stop offset="0.971875" stop-color="#8CFF00"/>
</linearGradient>
<linearGradient id="paint9_linear_2441_4706" x1="116.957" y1="18.817" x2="138.484" y2="36.2958" gradientUnits="userSpaceOnUse">
<stop stop-color="#054F77"/>
<stop offset="0.971875" stop-color="#8CFF00"/>
</linearGradient>
<linearGradient id="paint10_linear_2441_4706" x1="115.222" y1="38.873" x2="147.998" y2="18.7858" gradientUnits="userSpaceOnUse">
<stop stop-color="#054F77"/>
<stop offset="0.971875" stop-color="#8CFF00"/>
</linearGradient>
<linearGradient id="paint11_linear_2441_4706" x1="133.551" y1="12.7823" x2="133.551" y2="16.274" gradientUnits="userSpaceOnUse">
<stop stop-color="#054F77"/>
<stop offset="1" stop-color="#8CFF00"/>
</linearGradient>
<linearGradient id="paint12_linear_2441_4706" x1="98.5165" y1="87.4869" x2="87.44" y2="78.2372" gradientUnits="userSpaceOnUse">
<stop stop-color="#F4FBFF"/>
<stop offset="1" stop-color="#83DDDD" stop-opacity="0.92"/>
</linearGradient>
<linearGradient id="paint13_linear_2441_4706" x1="103.645" y1="76.5574" x2="91.7643" y2="89.8201" gradientUnits="userSpaceOnUse">
<stop stop-color="#141F45"/>
<stop offset="1" stop-color="#054F77"/>
</linearGradient>
<radialGradient id="paint14_radial_2441_4706" cx="0" cy="0" r="1" gradientUnits="userSpaceOnUse" gradientTransform="translate(89.8414 81.0315) rotate(-163.318) scale(17.4995)">
<stop stop-color="#054F77"/>
<stop offset="1" stop-color="#141F45"/>
</radialGradient>
<radialGradient id="paint15_radial_2441_4706" cx="0" cy="0" r="1" gradientUnits="userSpaceOnUse" gradientTransform="translate(89.8414 81.0315) rotate(-163.318) scale(17.4995)">
<stop stop-color="#054F77"/>
<stop offset="1" stop-color="#141F45"/>
</radialGradient>
<radialGradient id="paint16_radial_2441_4706" cx="0" cy="0" r="1" gradientUnits="userSpaceOnUse" gradientTransform="translate(89.8414 81.0315) rotate(-163.318) scale(17.4995)">
<stop stop-color="#054F77"/>
<stop offset="1" stop-color="#8CFF00"/>
</radialGradient>
<linearGradient id="paint17_linear_2441_4706" x1="80.6997" y1="36.2021" x2="42.0795" y2="44.9136" gradientUnits="userSpaceOnUse">
<stop stop-color="#054F77"/>
<stop offset="1" stop-color="#8CFF00"/>
</linearGradient>
<linearGradient id="paint18_linear_2441_4706" x1="83.7875" y1="40.2939" x2="45.1673" y2="49.0054" gradientUnits="userSpaceOnUse">
<stop stop-color="#054F77"/>
<stop offset="1" stop-color="#8CFF00"/>
</linearGradient>
<linearGradient id="paint19_linear_2441_4706" x1="93.7835" y1="101.73" x2="132.404" y2="110.442" gradientUnits="userSpaceOnUse">
<stop stop-color="#054F77"/>
<stop offset="1" stop-color="#8CFF00"/>
</linearGradient>
<linearGradient id="paint20_linear_2441_4706" x1="90.6928" y1="105.823" x2="129.313" y2="114.535" gradientUnits="userSpaceOnUse">
<stop stop-color="#054F77"/>
<stop offset="1" stop-color="#8CFF00"/>
</linearGradient>
<radialGradient id="paint21_radial_2441_4706" cx="0" cy="0" r="1" gradientUnits="userSpaceOnUse" gradientTransform="translate(59.8908 242.133) rotate(-120.444) scale(51.7928 69.7684)">
<stop stop-color="#A2E180"/>
<stop offset="1" stop-color="#093954"/>
</radialGradient>
<radialGradient id="paint22_radial_2441_4706" cx="0" cy="0" r="1" gradientUnits="userSpaceOnUse" gradientTransform="translate(56.0922 220.316) rotate(83.1101) scale(25.7966)">
<stop stop-color="#8CFF00" stop-opacity="0.22"/>
<stop offset="1" stop-color="#093954"/>
</radialGradient>
<clipPath id="clip0_2441_4706">
<rect width="194" height="352" fill="white" transform="translate(0 0.474609)"/>
</clipPath>
</defs>
</svg>
