<svg width="194" height="352" viewBox="0 0 194 352" fill="none" xmlns="http://www.w3.org/2000/svg">
<g clip-path="url(#clip0_2439_4064)">
<path d="M155.186 239.452L155.186 170.849C155.186 169.06 154.112 167.45 152.475 166.734L92.5752 141.064L92.5752 212.619L155.186 239.452ZM92.5752 212.619L25.4927 239.452L25.4927 170.849C25.4919 169.973 25.7483 169.116 26.2301 168.385C26.7119 167.653 27.3978 167.079 28.2028 166.734L92.5752 141.064L92.5752 212.619Z" fill="url(#paint0_linear_2439_4064)"/>
<path d="M48.0582 192.574L3.96973 47.7116L179.536 42.2007L134.294 192.574L179.536 333.499H3.96973L48.0582 192.574Z" fill="url(#paint1_linear_2439_4064)"/>
<g opacity="0.5" filter="url(#filter0_f_2439_4064)">
<circle cx="62.4003" cy="258.616" r="5.423" transform="rotate(-22.7554 62.4003 258.616)" fill="url(#paint2_linear_2439_4064)"/>
</g>
<g opacity="0.5" filter="url(#filter1_f_2439_4064)">
<circle cx="80.7902" cy="290.713" r="3.14924" transform="rotate(-22.7554 80.7902 290.713)" fill="url(#paint3_linear_2439_4064)"/>
</g>
<g opacity="0.5" filter="url(#filter2_f_2439_4064)">
<circle cx="105.135" cy="163.93" r="3.14924" transform="rotate(-22.7554 105.135 163.93)" fill="url(#paint4_linear_2439_4064)"/>
</g>
<g opacity="0.5" filter="url(#filter3_f_2439_4064)">
<circle cx="40.2228" cy="86.0066" r="3.14924" transform="rotate(-22.7554 40.2228 86.0066)" fill="url(#paint5_linear_2439_4064)"/>
</g>
<path opacity="0.5" d="M122.227 227.694C121.884 227.694 121.579 227.599 121.314 227.407C121.053 227.216 120.849 226.944 120.701 226.592C120.557 226.24 120.486 225.82 120.486 225.333C120.486 224.846 120.557 224.426 120.701 224.074C120.849 223.722 121.053 223.45 121.314 223.259C121.579 223.067 121.884 222.972 122.227 222.972C122.575 222.972 122.88 223.067 123.14 223.259C123.401 223.45 123.604 223.722 123.747 224.074C123.895 224.426 123.969 224.846 123.969 225.333C123.969 225.82 123.895 226.24 123.747 226.592C123.604 226.944 123.401 227.216 123.14 227.407C122.88 227.599 122.575 227.694 122.227 227.694ZM121.047 225.333C121.047 225.629 121.077 225.896 121.138 226.135C121.203 226.37 121.292 226.568 121.405 226.729L122.671 223.591C122.536 223.518 122.388 223.481 122.227 223.481C121.997 223.481 121.792 223.557 121.614 223.709C121.436 223.857 121.297 224.07 121.197 224.348C121.097 224.622 121.047 224.95 121.047 225.333ZM122.227 227.192C122.458 227.192 122.662 227.118 122.84 226.97C123.019 226.818 123.158 226.603 123.258 226.324C123.358 226.046 123.408 225.716 123.408 225.333C123.408 225.037 123.375 224.772 123.31 224.537C123.249 224.298 123.162 224.098 123.049 223.937L121.777 227.081C121.916 227.155 122.066 227.192 122.227 227.192ZM120.727 237.616V237.12H121.908V233.696L120.792 233.911V233.494L122.09 233.05H122.456V237.12H123.701V237.616H120.727ZM122.227 248.694C121.884 248.694 121.579 248.599 121.314 248.407C121.053 248.216 120.849 247.944 120.701 247.592C120.557 247.24 120.486 246.82 120.486 246.333C120.486 245.846 120.557 245.426 120.701 245.074C120.849 244.722 121.053 244.45 121.314 244.259C121.579 244.067 121.884 243.972 122.227 243.972C122.575 243.972 122.88 244.067 123.14 244.259C123.401 244.45 123.604 244.722 123.747 245.074C123.895 245.426 123.969 245.846 123.969 246.333C123.969 246.82 123.895 247.24 123.747 247.592C123.604 247.944 123.401 248.216 123.14 248.407C122.88 248.599 122.575 248.694 122.227 248.694ZM121.047 246.333C121.047 246.629 121.077 246.896 121.138 247.135C121.203 247.37 121.292 247.568 121.405 247.729L122.671 244.591C122.536 244.518 122.388 244.481 122.227 244.481C121.997 244.481 121.792 244.557 121.614 244.709C121.436 244.857 121.297 245.07 121.197 245.348C121.097 245.622 121.047 245.95 121.047 246.333ZM122.227 248.192C122.458 248.192 122.662 248.118 122.84 247.97C123.019 247.818 123.158 247.603 123.258 247.324C123.358 247.046 123.408 246.716 123.408 246.333C123.408 246.037 123.375 245.772 123.31 245.537C123.249 245.298 123.162 245.098 123.049 244.937L121.777 248.081C121.916 248.155 122.066 248.192 122.227 248.192ZM120.727 258.616V258.12H121.908V254.696L120.792 254.911V254.494L122.09 254.05H122.456V258.12H123.701V258.616H120.727ZM122.227 268.694C121.884 268.694 121.579 268.599 121.314 268.407C121.053 268.216 120.849 267.944 120.701 267.592C120.557 267.24 120.486 266.82 120.486 266.333C120.486 265.846 120.557 265.426 120.701 265.074C120.849 264.722 121.053 264.45 121.314 264.259C121.579 264.067 121.884 263.972 122.227 263.972C122.575 263.972 122.88 264.067 123.14 264.259C123.401 264.45 123.604 264.722 123.747 265.074C123.895 265.426 123.969 265.846 123.969 266.333C123.969 266.82 123.895 267.24 123.747 267.592C123.604 267.944 123.401 268.216 123.14 268.407C122.88 268.599 122.575 268.694 122.227 268.694ZM121.047 266.333C121.047 266.629 121.077 266.896 121.138 267.135C121.203 267.37 121.292 267.568 121.405 267.729L122.671 264.591C122.536 264.518 122.388 264.481 122.227 264.481C121.997 264.481 121.792 264.557 121.614 264.709C121.436 264.857 121.297 265.07 121.197 265.348C121.097 265.622 121.047 265.95 121.047 266.333ZM122.227 268.192C122.458 268.192 122.662 268.118 122.84 267.97C123.019 267.818 123.158 267.603 123.258 267.324C123.358 267.046 123.408 266.716 123.408 266.333C123.408 266.037 123.375 265.772 123.31 265.537C123.249 265.298 123.162 265.098 123.049 264.937L121.777 268.081C121.916 268.155 122.066 268.192 122.227 268.192ZM120.727 278.616V278.12H121.908V274.696L120.792 274.911V274.494L122.09 274.05H122.456V278.12H123.701V278.616H120.727ZM122.227 288.694C121.884 288.694 121.579 288.599 121.314 288.407C121.053 288.216 120.849 287.944 120.701 287.592C120.557 287.24 120.486 286.82 120.486 286.333C120.486 285.846 120.557 285.426 120.701 285.074C120.849 284.722 121.053 284.45 121.314 284.259C121.579 284.067 121.884 283.972 122.227 283.972C122.575 283.972 122.88 284.067 123.14 284.259C123.401 284.45 123.604 284.722 123.747 285.074C123.895 285.426 123.969 285.846 123.969 286.333C123.969 286.82 123.895 287.24 123.747 287.592C123.604 287.944 123.401 288.216 123.14 288.407C122.88 288.599 122.575 288.694 122.227 288.694ZM121.047 286.333C121.047 286.629 121.077 286.896 121.138 287.135C121.203 287.37 121.292 287.568 121.405 287.729L122.671 284.591C122.536 284.518 122.388 284.481 122.227 284.481C121.997 284.481 121.792 284.557 121.614 284.709C121.436 284.857 121.297 285.07 121.197 285.348C121.097 285.622 121.047 285.95 121.047 286.333ZM122.227 288.192C122.458 288.192 122.662 288.118 122.84 287.97C123.019 287.818 123.158 287.603 123.258 287.324C123.358 287.046 123.408 286.716 123.408 286.333C123.408 286.037 123.375 285.772 123.31 285.537C123.249 285.298 123.162 285.098 123.049 284.937L121.777 288.081C121.916 288.155 122.066 288.192 122.227 288.192ZM120.727 298.616V298.12H121.908V294.696L120.792 294.911V294.494L122.09 294.05H122.456V298.12H123.701V298.616H120.727Z" fill="#8CFF00"/>
<path opacity="0.5" d="M70.2272 155.694C69.8837 155.694 69.5793 155.598 69.3141 155.407C69.0532 155.216 68.8488 154.944 68.7009 154.592C68.5574 154.239 68.4857 153.82 68.4857 153.333C68.4857 152.846 68.5574 152.426 68.7009 152.074C68.8488 151.722 69.0532 151.45 69.3141 151.259C69.5793 151.067 69.8837 150.972 70.2272 150.972C70.5751 150.972 70.8795 151.067 71.1404 151.259C71.4013 151.45 71.6035 151.722 71.747 152.074C71.8949 152.426 71.9688 152.846 71.9688 153.333C71.9688 153.82 71.8949 154.239 71.747 154.592C71.6035 154.944 71.4013 155.216 71.1404 155.407C70.8795 155.598 70.5751 155.694 70.2272 155.694ZM69.0466 153.333C69.0466 153.628 69.0771 153.896 69.138 154.135C69.2032 154.37 69.2923 154.568 69.4054 154.729L70.6708 151.591C70.536 151.517 70.3881 151.48 70.2272 151.48C69.9968 151.48 69.7924 151.556 69.6141 151.709C69.4358 151.856 69.2967 152.07 69.1967 152.348C69.0966 152.622 69.0466 152.95 69.0466 153.333ZM70.2272 155.192C70.4577 155.192 70.6621 155.118 70.8404 154.97C71.0187 154.818 71.1578 154.603 71.2578 154.324C71.3578 154.046 71.4078 153.715 71.4078 153.333C71.4078 153.037 71.3752 152.772 71.31 152.537C71.2491 152.298 71.1622 152.098 71.0491 151.937L69.7772 155.081C69.9163 155.155 70.0663 155.192 70.2272 155.192ZM68.727 165.616V165.12H69.9076V161.696L68.7923 161.911V161.493L70.0903 161.05H70.4555V165.12H71.7014V165.616H68.727ZM70.2272 176.694C69.8837 176.694 69.5793 176.598 69.3141 176.407C69.0532 176.216 68.8488 175.944 68.7009 175.592C68.5574 175.239 68.4857 174.82 68.4857 174.333C68.4857 173.846 68.5574 173.426 68.7009 173.074C68.8488 172.722 69.0532 172.45 69.3141 172.259C69.5793 172.067 69.8837 171.972 70.2272 171.972C70.5751 171.972 70.8795 172.067 71.1404 172.259C71.4013 172.45 71.6035 172.722 71.747 173.074C71.8949 173.426 71.9688 173.846 71.9688 174.333C71.9688 174.82 71.8949 175.239 71.747 175.592C71.6035 175.944 71.4013 176.216 71.1404 176.407C70.8795 176.598 70.5751 176.694 70.2272 176.694ZM69.0466 174.333C69.0466 174.628 69.0771 174.896 69.138 175.135C69.2032 175.37 69.2923 175.568 69.4054 175.729L70.6708 172.591C70.536 172.517 70.3881 172.48 70.2272 172.48C69.9968 172.48 69.7924 172.556 69.6141 172.709C69.4358 172.856 69.2967 173.07 69.1967 173.348C69.0966 173.622 69.0466 173.95 69.0466 174.333ZM70.2272 176.192C70.4577 176.192 70.6621 176.118 70.8404 175.97C71.0187 175.818 71.1578 175.603 71.2578 175.324C71.3578 175.046 71.4078 174.715 71.4078 174.333C71.4078 174.037 71.3752 173.772 71.31 173.537C71.2491 173.298 71.1622 173.098 71.0491 172.937L69.7772 176.081C69.9163 176.155 70.0663 176.192 70.2272 176.192ZM68.727 186.616V186.12H69.9076V182.696L68.7923 182.911V182.493L70.0903 182.05H70.4555V186.12H71.7014V186.616H68.727ZM70.2272 196.694C69.8837 196.694 69.5793 196.598 69.3141 196.407C69.0532 196.216 68.8488 195.944 68.7009 195.592C68.5574 195.239 68.4857 194.82 68.4857 194.333C68.4857 193.846 68.5574 193.426 68.7009 193.074C68.8488 192.722 69.0532 192.45 69.3141 192.259C69.5793 192.067 69.8837 191.972 70.2272 191.972C70.5751 191.972 70.8795 192.067 71.1404 192.259C71.4013 192.45 71.6035 192.722 71.747 193.074C71.8949 193.426 71.9688 193.846 71.9688 194.333C71.9688 194.82 71.8949 195.239 71.747 195.592C71.6035 195.944 71.4013 196.216 71.1404 196.407C70.8795 196.598 70.5751 196.694 70.2272 196.694ZM69.0466 194.333C69.0466 194.628 69.0771 194.896 69.138 195.135C69.2032 195.37 69.2923 195.568 69.4054 195.729L70.6708 192.591C70.536 192.517 70.3881 192.48 70.2272 192.48C69.9968 192.48 69.7924 192.556 69.6141 192.709C69.4358 192.856 69.2967 193.07 69.1967 193.348C69.0966 193.622 69.0466 193.95 69.0466 194.333ZM70.2272 196.192C70.4577 196.192 70.6621 196.118 70.8404 195.97C71.0187 195.818 71.1578 195.603 71.2578 195.324C71.3578 195.046 71.4078 194.715 71.4078 194.333C71.4078 194.037 71.3752 193.772 71.31 193.537C71.2491 193.298 71.1622 193.098 71.0491 192.937L69.7772 196.081C69.9163 196.155 70.0663 196.192 70.2272 196.192ZM68.727 206.616V206.12H69.9076V202.696L68.7923 202.911V202.493L70.0903 202.05H70.4555V206.12H71.7014V206.616H68.727ZM70.2272 216.694C69.8837 216.694 69.5793 216.598 69.3141 216.407C69.0532 216.216 68.8488 215.944 68.7009 215.592C68.5574 215.239 68.4857 214.82 68.4857 214.333C68.4857 213.846 68.5574 213.426 68.7009 213.074C68.8488 212.722 69.0532 212.45 69.3141 212.259C69.5793 212.067 69.8837 211.972 70.2272 211.972C70.5751 211.972 70.8795 212.067 71.1404 212.259C71.4013 212.45 71.6035 212.722 71.747 213.074C71.8949 213.426 71.9688 213.846 71.9688 214.333C71.9688 214.82 71.8949 215.239 71.747 215.592C71.6035 215.944 71.4013 216.216 71.1404 216.407C70.8795 216.598 70.5751 216.694 70.2272 216.694ZM69.0466 214.333C69.0466 214.628 69.0771 214.896 69.138 215.135C69.2032 215.37 69.2923 215.568 69.4054 215.729L70.6708 212.591C70.536 212.517 70.3881 212.48 70.2272 212.48C69.9968 212.48 69.7924 212.556 69.6141 212.709C69.4358 212.856 69.2967 213.07 69.1967 213.348C69.0966 213.622 69.0466 213.95 69.0466 214.333ZM70.2272 216.192C70.4577 216.192 70.6621 216.118 70.8404 215.97C71.0187 215.818 71.1578 215.603 71.2578 215.324C71.3578 215.046 71.4078 214.715 71.4078 214.333C71.4078 214.037 71.3752 213.772 71.31 213.537C71.2491 213.298 71.1622 213.098 71.0491 212.937L69.7772 216.081C69.9163 216.155 70.0663 216.192 70.2272 216.192ZM68.727 226.616V226.12H69.9076V222.696L68.7923 222.911V222.493L70.0903 222.05H70.4555V226.12H71.7014V226.616H68.727Z" fill="#8CFF00"/>
<path d="M155.19 169.554L155.19 238.157C155.19 239.946 154.117 241.556 152.48 242.271L92.5796 267.942L92.5796 196.387L155.19 169.554ZM92.5796 196.387L25.4971 169.554L25.4971 238.157C25.4963 239.033 25.7527 239.89 26.2345 240.621C26.7163 241.352 27.4022 241.926 28.2072 242.271L92.5796 267.942L92.5796 196.387Z" fill="#054F77"/>
<path d="M155.19 169.554L155.19 238.157C155.19 239.946 154.117 241.556 152.48 242.271L92.5796 267.942L92.5796 196.387L155.19 169.554ZM92.5796 196.387L25.4971 169.554L25.4971 238.157C25.4963 239.033 25.7527 239.89 26.2345 240.621C26.7163 241.352 27.4022 241.926 28.2072 242.271L92.5796 267.942L92.5796 196.387Z" fill="url(#paint6_linear_2439_4064)"/>
<path d="M92.522 196.377L92.5208 267.916" stroke="#F4FBFF" stroke-opacity="0.14" stroke-width="1.3277"/>
<path opacity="0.5" d="M140.757 24.7671H58.59L50.924 60.9386H133.166L140.757 24.7671Z" fill="white"/>
<path opacity="0.5" d="M140.61 96.2166H58.8147L51.2976 128.816H133.986L140.61 96.2166Z" fill="white"/>
<path opacity="0.3" d="M133.167 60.9377H51.2976L58.8147 96.2161H140.61L133.167 60.9377Z" fill="white"/>
<g opacity="0.5" filter="url(#filter4_bf_2439_4064)">
<path fill-rule="evenodd" clip-rule="evenodd" d="M140.757 24.7671H58.59L50.924 60.9386H51.2975L58.8145 96.2162H140.61L133.167 60.9378H133.166L140.757 24.7671ZM140.61 96.2166H58.8145L51.2974 128.816H133.986L140.61 96.2166Z" fill="url(#paint7_linear_2439_4064)"/>
<path d="M58.59 24.7671L58.4509 24.7376L58.4748 24.6249H58.59V24.7671ZM140.757 24.7671V24.6249H140.932L140.896 24.7963L140.757 24.7671ZM50.924 60.9386V61.0807H50.7486L50.785 60.9091L50.924 60.9386ZM51.2975 60.9386V60.7964H51.4126L51.4366 60.9089L51.2975 60.9386ZM58.8145 96.2162V96.3583H58.6994L58.6754 96.2458L58.8145 96.2162ZM140.61 96.2162L140.749 96.1868L140.785 96.3583H140.61V96.2162ZM133.167 60.9378V60.7956H133.282L133.306 60.9084L133.167 60.9378ZM133.166 60.9378V61.08H132.991L133.027 60.9086L133.166 60.9378ZM58.8145 96.2166L58.6759 96.1846L58.7014 96.0744H58.8145V96.2166ZM140.61 96.2166V96.0744H140.784L140.749 96.2449L140.61 96.2166ZM51.2974 128.816V128.958H51.1187L51.1588 128.784L51.2974 128.816ZM133.986 128.816L134.125 128.844L134.102 128.958H133.986V128.816ZM58.59 24.6249H140.757V24.9093H58.59V24.6249ZM50.785 60.9091L58.4509 24.7376L58.7291 24.7966L51.0631 60.968L50.785 60.9091ZM51.2975 61.0807H50.924V60.7964H51.2975V61.0807ZM51.4366 60.9089L58.9535 96.1865L58.6754 96.2458L51.1585 60.9682L51.4366 60.9089ZM58.8145 96.074H140.61V96.3583H58.8145V96.074ZM140.471 96.2455L133.028 60.9671L133.306 60.9084L140.749 96.1868L140.471 96.2455ZM133.167 61.08H133.166V60.7956H133.167V61.08ZM140.896 24.7963L133.305 60.967L133.027 60.9086L140.618 24.7379L140.896 24.7963ZM58.8145 96.0744H140.61V96.3588H58.8145V96.0744ZM51.1588 128.784L58.6759 96.1846L58.953 96.2485L51.4359 128.848L51.1588 128.784ZM133.986 128.958H51.2974V128.673H133.986V128.958ZM140.749 96.2449L134.125 128.844L133.846 128.787L140.47 96.1883L140.749 96.2449Z" fill="#8CFF00"/>
</g>
<g filter="url(#filter5_f_2439_4064)">
<path d="M136.242 28.181C135.526 29.6224 134.36 30.7917 132.921 31.5121C131.482 32.2325 129.847 32.4648 128.264 32.174C126.681 31.8832 125.236 31.085 124.147 29.9001C123.058 28.7152 122.384 27.208 122.227 25.6062C122.07 24.0044 122.439 22.3951 123.278 21.0215C124.117 19.6479 125.38 18.5846 126.876 17.9923C128.373 17.4001 130.021 17.311 131.573 17.7386C133.124 18.1662 134.495 19.0873 135.477 20.3626L134.18 21.3609C133.415 20.3672 132.347 19.6496 131.138 19.3164C129.929 18.9832 128.644 19.0526 127.478 19.514C126.312 19.9755 125.328 20.804 124.675 21.8744C124.021 22.9447 123.734 24.1986 123.856 25.4468C123.978 26.6949 124.503 27.8693 125.352 28.7926C126.2 29.7158 127.327 30.3378 128.56 30.5644C129.793 30.791 131.067 30.6099 132.189 30.0486C133.31 29.4873 134.218 28.5762 134.776 27.453L136.242 28.181Z" fill="url(#paint8_linear_2439_4064)"/>
</g>
<g filter="url(#filter6_f_2439_4064)">
<path d="M138.255 13.7623C140.907 15.8262 142.734 18.7698 143.406 22.0623C144.079 25.3547 143.553 28.7792 141.923 31.7178C140.293 34.6565 137.666 36.9158 134.517 38.0883C131.368 39.2608 127.903 39.2692 124.748 38.1121C121.593 36.9549 118.956 34.7083 117.311 31.7777C115.667 28.847 115.124 25.4252 115.781 22.1295C116.438 18.8338 118.25 15.8813 120.892 13.8045C123.534 11.7278 126.831 10.6635 130.189 10.8038L130.071 13.6299C127.387 13.5178 124.752 14.3684 122.64 16.0282C120.529 17.6881 119.08 20.048 118.555 22.6821C118.03 25.3163 118.464 28.0512 119.778 30.3936C121.092 32.736 123.201 34.5316 125.722 35.4565C128.244 36.3814 131.013 36.3747 133.53 35.4375C136.047 34.5004 138.147 32.6946 139.449 30.3458C140.752 27.997 141.173 25.26 140.635 22.6284C140.098 19.9969 138.637 17.6441 136.518 15.9945L138.255 13.7623Z" fill="url(#paint9_linear_2439_4064)"/>
<path d="M138.255 13.7623C140.907 15.8262 142.734 18.7698 143.406 22.0623C144.079 25.3547 143.553 28.7792 141.923 31.7178C140.293 34.6565 137.666 36.9158 134.517 38.0883C131.368 39.2608 127.903 39.2692 124.748 38.1121C121.593 36.9549 118.956 34.7083 117.311 31.7777C115.667 28.847 115.124 25.4252 115.781 22.1295C116.438 18.8338 118.25 15.8813 120.892 13.8045C123.534 11.7278 126.831 10.6635 130.189 10.8038L130.071 13.6299C127.387 13.5178 124.752 14.3684 122.64 16.0282C120.529 17.6881 119.08 20.048 118.555 22.6821C118.03 25.3163 118.464 28.0512 119.778 30.3936C121.092 32.736 123.201 34.5316 125.722 35.4565C128.244 36.3814 131.013 36.3747 133.53 35.4375C136.047 34.5004 138.147 32.6946 139.449 30.3458C140.752 27.997 141.173 25.26 140.635 22.6284C140.098 19.9969 138.637 17.6441 136.518 15.9945L138.255 13.7623Z" fill="white" fill-opacity="0.2"/>
</g>
<g filter="url(#filter7_f_2439_4064)">
<path d="M123.03 6.48726C127.024 5.06015 131.375 4.97207 135.424 6.23632C139.473 7.50056 143.001 10.0484 145.474 13.4949C147.946 16.9414 149.23 21.0991 149.131 25.3398C149.032 29.5805 147.555 33.6738 144.924 37.0009C142.293 40.3281 138.65 42.7083 134.546 43.782C130.443 44.8557 126.101 44.5644 122.177 42.9523C118.254 41.3401 114.962 38.4946 112.798 34.8458C110.635 31.197 109.718 26.9432 110.186 22.7272L113.749 23.1228C113.366 26.5653 114.115 30.0386 115.881 33.0179C117.648 35.9972 120.336 38.3206 123.54 39.637C126.743 40.9534 130.288 41.1912 133.639 40.3145C136.99 39.4378 139.964 37.4943 142.113 34.7776C144.261 32.0609 145.467 28.7187 145.548 25.2561C145.629 21.7934 144.581 18.3985 142.561 15.5844C140.542 12.7703 137.662 10.6899 134.356 9.65766C131.049 8.62537 127.497 8.6973 124.235 9.86256L123.03 6.48726Z" fill="url(#paint10_linear_2439_4064)"/>
<path d="M123.03 6.48726C127.024 5.06015 131.375 4.97207 135.424 6.23632C139.473 7.50056 143.001 10.0484 145.474 13.4949C147.946 16.9414 149.23 21.0991 149.131 25.3398C149.032 29.5805 147.555 33.6738 144.924 37.0009C142.293 40.3281 138.65 42.7083 134.546 43.782C130.443 44.8557 126.101 44.5644 122.177 42.9523C118.254 41.3401 114.962 38.4946 112.798 34.8458C110.635 31.197 109.718 26.9432 110.186 22.7272L113.749 23.1228C113.366 26.5653 114.115 30.0386 115.881 33.0179C117.648 35.9972 120.336 38.3206 123.54 39.637C126.743 40.9534 130.288 41.1912 133.639 40.3145C136.99 39.4378 139.964 37.4943 142.113 34.7776C144.261 32.0609 145.467 28.7187 145.548 25.2561C145.629 21.7934 144.581 18.3985 142.561 15.5844C140.542 12.7703 137.662 10.6899 134.356 9.65766C131.049 8.62537 127.497 8.6973 124.235 9.86256L123.03 6.48726Z" fill="white" fill-opacity="0.2"/>
</g>
<g filter="url(#filter8_f_2439_4064)">
<circle cx="133.551" cy="13.2973" r="0.989841" transform="rotate(-22.7554 133.551 13.2973)" fill="url(#paint11_linear_2439_4064)"/>
</g>
<g filter="url(#filter9_f_2439_4064)">
<path d="M97.066 82.1909L93.354 77.1518C93.0527 76.7428 92.4389 76.7503 92.1476 77.1666L86.0292 85.9126C85.687 86.4017 86.0326 87.0742 86.6295 87.0808L103.38 87.2649C103.98 87.2715 104.34 86.5989 104.001 86.103L100.849 81.4976C100.626 81.1712 100.186 81.0771 99.8488 81.2836L98.0516 82.3838C97.7228 82.5851 97.2947 82.5013 97.066 82.1909Z" fill="url(#paint12_linear_2439_4064)"/>
</g>
<path d="M104.573 69.5056L87.5479 68.9776C86.1756 68.935 85.0257 69.994 84.9839 71.341L84.5081 86.6803C84.4664 88.0256 85.5485 89.1527 86.9209 89.1953L103.946 89.7233C105.318 89.7659 106.467 88.7079 106.509 87.3626L106.985 72.0233C107.026 70.6764 105.945 69.5481 104.573 69.5056ZM99.1738 72.9712C100.501 73.0124 101.544 74.101 101.504 75.4019C101.464 76.7028 100.355 77.7246 99.0276 77.6835C97.7001 77.6423 96.657 76.5538 96.6973 75.2528C96.7377 73.9519 97.8463 72.9301 99.1738 72.9712ZM103.236 87.4442L95.5026 87.2044L88.1141 86.9752C87.4503 86.9546 87.1693 86.4747 87.4865 85.9031L91.8596 78.0221C92.1765 77.4506 92.7477 77.4164 93.135 77.9457L97.1178 83.3878C97.5051 83.9171 98.2088 83.9829 98.6898 83.5344L99.7356 82.5586C100.216 82.1101 100.901 82.1887 101.265 82.7334L103.779 86.494C104.142 87.0395 103.899 87.4648 103.236 87.4442Z" fill="url(#paint13_linear_2439_4064)"/>
<g filter="url(#filter10_f_2439_4064)">
<path d="M87.3846 72.8012C88.677 73.2726 88.9745 74.9662 87.9201 75.8498L82.7499 80.1822C81.6955 81.0657 80.08 80.4765 79.8421 79.1216L78.6752 72.4779C78.4372 71.123 79.7552 70.0186 81.0476 70.4899L87.3846 72.8012Z" fill="url(#paint14_radial_2439_4064)"/>
<path d="M87.3846 72.8012C88.677 73.2726 88.9745 74.9662 87.9201 75.8498L82.7499 80.1822C81.6955 81.0657 80.08 80.4765 79.8421 79.1216L78.6752 72.4779C78.4372 71.123 79.7552 70.0186 81.0476 70.4899L87.3846 72.8012Z" stroke="#8CFF00" stroke-width="0.44676"/>
</g>
<path d="M87.7387 72.9304C88.8737 73.3443 89.135 74.8317 88.209 75.6077L82.461 80.4243C81.535 81.2002 80.1163 80.6828 79.9073 79.4929L78.61 72.1067C78.401 70.9168 79.5585 69.9468 80.6935 70.3608L87.7387 72.9304Z" fill="url(#paint15_radial_2439_4064)"/>
<path d="M87.7387 72.9304C88.8737 73.3443 89.135 74.8317 88.209 75.6077L82.461 80.4243C81.535 81.2002 80.1163 80.6828 79.9073 79.4929L78.61 72.1067C78.401 70.9168 79.5585 69.9468 80.6935 70.3608L87.7387 72.9304Z" fill="url(#paint16_radial_2439_4064)"/>
<path d="M87.7387 72.9304C88.8737 73.3443 89.135 74.8317 88.209 75.6077L82.461 80.4243C81.535 81.2002 80.1163 80.6828 79.9073 79.4929L78.61 72.1067C78.401 70.9168 79.5585 69.9468 80.6935 70.3608L87.7387 72.9304Z" stroke="#F4FBFF" stroke-width="0.0893521"/>
<path d="M29.9893 41.7913L37.5358 35.7275H98.2071" stroke="url(#paint17_linear_2439_4064)" stroke-width="0.284354"/>
<path d="M31.8599 45.8834L39.4064 39.8196H101.295" stroke="url(#paint18_linear_2439_4064)" stroke-width="0.284354"/>
<path d="M144.494 107.32L136.947 101.256H76.2758" stroke="url(#paint19_linear_2439_4064)" stroke-width="0.284354"/>
<path d="M142.621 111.413L135.074 105.349H73.185" stroke="url(#paint20_linear_2439_4064)" stroke-width="0.284354"/>
<g filter="url(#filter11_i_2439_4064)">
<circle cx="54.4563" cy="219.538" r="15.7467" transform="rotate(-10.5143 54.4563 219.538)" fill="#054F77" fill-opacity="0.39"/>
</g>
<path d="M47.0594 219.545L50.8571 224.846L59.4961 214.273" stroke="#8CFF00" stroke-width="2" stroke-linecap="round" stroke-linejoin="round"/>
</g>
<defs>
<filter id="filter0_f_2439_4064" x="55.2667" y="251.482" width="14.2675" height="14.2677" filterUnits="userSpaceOnUse" color-interpolation-filters="sRGB">
<feFlood flood-opacity="0" result="BackgroundImageFix"/>
<feBlend mode="normal" in="SourceGraphic" in2="BackgroundImageFix" result="shape"/>
<feGaussianBlur stdDeviation="0.854708" result="effect1_foregroundBlur_2439_4064"/>
</filter>
<filter id="filter1_f_2439_4064" x="75.9307" y="285.853" width="9.71913" height="9.71888" filterUnits="userSpaceOnUse" color-interpolation-filters="sRGB">
<feFlood flood-opacity="0" result="BackgroundImageFix"/>
<feBlend mode="normal" in="SourceGraphic" in2="BackgroundImageFix" result="shape"/>
<feGaussianBlur stdDeviation="0.854708" result="effect1_foregroundBlur_2439_4064"/>
</filter>
<filter id="filter2_f_2439_4064" x="100.275" y="159.07" width="9.71913" height="9.71888" filterUnits="userSpaceOnUse" color-interpolation-filters="sRGB">
<feFlood flood-opacity="0" result="BackgroundImageFix"/>
<feBlend mode="normal" in="SourceGraphic" in2="BackgroundImageFix" result="shape"/>
<feGaussianBlur stdDeviation="0.854708" result="effect1_foregroundBlur_2439_4064"/>
</filter>
<filter id="filter3_f_2439_4064" x="35.3633" y="81.147" width="9.71913" height="9.71888" filterUnits="userSpaceOnUse" color-interpolation-filters="sRGB">
<feFlood flood-opacity="0" result="BackgroundImageFix"/>
<feBlend mode="normal" in="SourceGraphic" in2="BackgroundImageFix" result="shape"/>
<feGaussianBlur stdDeviation="0.854708" result="effect1_foregroundBlur_2439_4064"/>
</filter>
<filter id="filter4_bf_2439_4064" x="45.5172" y="19.3936" width="100.647" height="114.796" filterUnits="userSpaceOnUse" color-interpolation-filters="sRGB">
<feFlood flood-opacity="0" result="BackgroundImageFix"/>
<feGaussianBlur in="BackgroundImage" stdDeviation="2.61569"/>
<feComposite in2="SourceAlpha" operator="in" result="effect1_backgroundBlur_2439_4064"/>
<feBlend mode="normal" in="SourceGraphic" in2="effect1_backgroundBlur_2439_4064" result="shape"/>
<feGaussianBlur stdDeviation="0.568709" result="effect2_foregroundBlur_2439_4064"/>
</filter>
<filter id="filter5_f_2439_4064" x="121.846" y="17.1266" width="14.7409" height="15.5148" filterUnits="userSpaceOnUse" color-interpolation-filters="sRGB">
<feFlood flood-opacity="0" result="BackgroundImageFix"/>
<feBlend mode="normal" in="SourceGraphic" in2="BackgroundImageFix" result="shape"/>
<feGaussianBlur stdDeviation="0.172774" result="effect1_foregroundBlur_2439_4064"/>
</filter>
<filter id="filter6_f_2439_4064" x="114.615" y="9.89724" width="29.9711" height="29.9709" filterUnits="userSpaceOnUse" color-interpolation-filters="sRGB">
<feFlood flood-opacity="0" result="BackgroundImageFix"/>
<feBlend mode="normal" in="SourceGraphic" in2="BackgroundImageFix" result="shape"/>
<feGaussianBlur stdDeviation="0.44713" result="effect1_foregroundBlur_2439_4064"/>
</filter>
<filter id="filter7_f_2439_4064" x="108.278" y="3.56011" width="42.6469" height="42.6466" filterUnits="userSpaceOnUse" color-interpolation-filters="sRGB">
<feFlood flood-opacity="0" result="BackgroundImageFix"/>
<feBlend mode="normal" in="SourceGraphic" in2="BackgroundImageFix" result="shape"/>
<feGaussianBlur stdDeviation="0.89426" result="effect1_foregroundBlur_2439_4064"/>
</filter>
<filter id="filter8_f_2439_4064" x="131.667" y="11.4129" width="3.7685" height="3.76874" filterUnits="userSpaceOnUse" color-interpolation-filters="sRGB">
<feFlood flood-opacity="0" result="BackgroundImageFix"/>
<feBlend mode="normal" in="SourceGraphic" in2="BackgroundImageFix" result="shape"/>
<feGaussianBlur stdDeviation="0.44713" result="effect1_foregroundBlur_2439_4064"/>
</filter>
<filter id="filter9_f_2439_4064" x="85.0029" y="75.9585" width="20.02" height="12.1975" filterUnits="userSpaceOnUse" color-interpolation-filters="sRGB">
<feFlood flood-opacity="0" result="BackgroundImageFix"/>
<feBlend mode="normal" in="SourceGraphic" in2="BackgroundImageFix" result="shape"/>
<feGaussianBlur stdDeviation="0.445553" result="effect1_foregroundBlur_2439_4064"/>
</filter>
<filter id="filter10_f_2439_4064" x="77.0835" y="68.8152" width="13.0399" height="13.35" filterUnits="userSpaceOnUse" color-interpolation-filters="sRGB">
<feFlood flood-opacity="0" result="BackgroundImageFix"/>
<feBlend mode="normal" in="SourceGraphic" in2="BackgroundImageFix" result="shape"/>
<feGaussianBlur stdDeviation="0.670141" result="effect1_foregroundBlur_2439_4064"/>
</filter>
<filter id="filter11_i_2439_4064" x="38.707" y="203.788" width="32.4985" height="32.4988" filterUnits="userSpaceOnUse" color-interpolation-filters="sRGB">
<feFlood flood-opacity="0" result="BackgroundImageFix"/>
<feBlend mode="normal" in="SourceGraphic" in2="BackgroundImageFix" result="shape"/>
<feColorMatrix in="SourceAlpha" type="matrix" values="0 0 0 0 0 0 0 0 0 0 0 0 0 0 0 0 0 0 127 0" result="hardAlpha"/>
<feOffset dx="1" dy="1"/>
<feGaussianBlur stdDeviation="2"/>
<feComposite in2="hardAlpha" operator="arithmetic" k2="-1" k3="1"/>
<feColorMatrix type="matrix" values="0 0 0 0 0.0352941 0 0 0 0 0.223529 0 0 0 0 0.329412 0 0 0 0.5 0"/>
<feBlend mode="normal" in2="shape" result="effect1_innerShadow_2439_4064"/>
</filter>
<linearGradient id="paint0_linear_2439_4064" x1="90.3391" y1="135.982" x2="90.3391" y2="190.258" gradientUnits="userSpaceOnUse">
<stop stop-color="#063C5B"/>
<stop offset="1" stop-color="#052233"/>
</linearGradient>
<linearGradient id="paint1_linear_2439_4064" x1="109.332" y1="70.5971" x2="91.1252" y2="327.299" gradientUnits="userSpaceOnUse">
<stop stop-color="#B3DBF0" stop-opacity="0"/>
<stop offset="0.496682" stop-color="#83DDDD" stop-opacity="0.92"/>
<stop offset="1" stop-color="#B3DBF0" stop-opacity="0"/>
</linearGradient>
<linearGradient id="paint2_linear_2439_4064" x1="62.4003" y1="253.193" x2="62.4003" y2="272.323" gradientUnits="userSpaceOnUse">
<stop stop-color="#054F77"/>
<stop offset="1" stop-color="#8CFF00"/>
</linearGradient>
<linearGradient id="paint3_linear_2439_4064" x1="80.7902" y1="287.563" x2="80.7902" y2="298.673" gradientUnits="userSpaceOnUse">
<stop stop-color="#054F77"/>
<stop offset="1" stop-color="#8CFF00"/>
</linearGradient>
<linearGradient id="paint4_linear_2439_4064" x1="105.135" y1="160.781" x2="105.135" y2="171.89" gradientUnits="userSpaceOnUse">
<stop stop-color="#054F77"/>
<stop offset="1" stop-color="#8CFF00"/>
</linearGradient>
<linearGradient id="paint5_linear_2439_4064" x1="40.2228" y1="82.8573" x2="40.2228" y2="93.9665" gradientUnits="userSpaceOnUse">
<stop stop-color="#054F77"/>
<stop offset="1" stop-color="#8CFF00"/>
</linearGradient>
<linearGradient id="paint6_linear_2439_4064" x1="10.9416" y1="218.748" x2="124.794" y2="218.748" gradientUnits="userSpaceOnUse">
<stop stop-color="#8CFF00"/>
<stop offset="1" stop-color="#F4FBFF" stop-opacity="0.68"/>
</linearGradient>
<linearGradient id="paint7_linear_2439_4064" x1="66.0381" y1="22.363" x2="95.8407" y2="128.816" gradientUnits="userSpaceOnUse">
<stop stop-color="#093954"/>
<stop offset="1" stop-color="#C4C4C4" stop-opacity="0"/>
</linearGradient>
<linearGradient id="paint8_linear_2439_4064" x1="129.975" y1="17.4059" x2="126.307" y2="31.5224" gradientUnits="userSpaceOnUse">
<stop stop-color="#054F77"/>
<stop offset="0.971875" stop-color="#8CFF00"/>
</linearGradient>
<linearGradient id="paint9_linear_2439_4064" x1="116.957" y1="18.3421" x2="138.484" y2="35.821" gradientUnits="userSpaceOnUse">
<stop stop-color="#054F77"/>
<stop offset="0.971875" stop-color="#8CFF00"/>
</linearGradient>
<linearGradient id="paint10_linear_2439_4064" x1="115.222" y1="38.3984" x2="147.998" y2="18.3112" gradientUnits="userSpaceOnUse">
<stop stop-color="#054F77"/>
<stop offset="0.971875" stop-color="#8CFF00"/>
</linearGradient>
<linearGradient id="paint11_linear_2439_4064" x1="133.551" y1="12.3074" x2="133.551" y2="15.7992" gradientUnits="userSpaceOnUse">
<stop stop-color="#054F77"/>
<stop offset="1" stop-color="#8CFF00"/>
</linearGradient>
<linearGradient id="paint12_linear_2439_4064" x1="98.516" y1="87.0125" x2="87.4395" y2="77.7628" gradientUnits="userSpaceOnUse">
<stop stop-color="#F4FBFF"/>
<stop offset="1" stop-color="#83DDDD" stop-opacity="0.92"/>
</linearGradient>
<linearGradient id="paint13_linear_2439_4064" x1="103.645" y1="76.0828" x2="91.7641" y2="89.3455" gradientUnits="userSpaceOnUse">
<stop stop-color="#141F45"/>
<stop offset="1" stop-color="#054F77"/>
</linearGradient>
<radialGradient id="paint14_radial_2439_4064" cx="0" cy="0" r="1" gradientUnits="userSpaceOnUse" gradientTransform="translate(89.8409 80.5569) rotate(-163.318) scale(17.4995)">
<stop stop-color="#054F77"/>
<stop offset="1" stop-color="#141F45"/>
</radialGradient>
<radialGradient id="paint15_radial_2439_4064" cx="0" cy="0" r="1" gradientUnits="userSpaceOnUse" gradientTransform="translate(89.8409 80.5569) rotate(-163.318) scale(17.4995)">
<stop stop-color="#054F77"/>
<stop offset="1" stop-color="#141F45"/>
</radialGradient>
<radialGradient id="paint16_radial_2439_4064" cx="0" cy="0" r="1" gradientUnits="userSpaceOnUse" gradientTransform="translate(89.8409 80.5569) rotate(-163.318) scale(17.4995)">
<stop stop-color="#054F77"/>
<stop offset="1" stop-color="#8CFF00"/>
</radialGradient>
<linearGradient id="paint17_linear_2439_4064" x1="80.6997" y1="35.7275" x2="42.0795" y2="44.439" gradientUnits="userSpaceOnUse">
<stop stop-color="#054F77"/>
<stop offset="1" stop-color="#8CFF00"/>
</linearGradient>
<linearGradient id="paint18_linear_2439_4064" x1="83.7875" y1="39.8196" x2="45.1673" y2="48.531" gradientUnits="userSpaceOnUse">
<stop stop-color="#054F77"/>
<stop offset="1" stop-color="#8CFF00"/>
</linearGradient>
<linearGradient id="paint19_linear_2439_4064" x1="93.7832" y1="101.256" x2="132.403" y2="109.967" gradientUnits="userSpaceOnUse">
<stop stop-color="#054F77"/>
<stop offset="1" stop-color="#8CFF00"/>
</linearGradient>
<linearGradient id="paint20_linear_2439_4064" x1="90.693" y1="105.349" x2="129.313" y2="114.06" gradientUnits="userSpaceOnUse">
<stop stop-color="#054F77"/>
<stop offset="1" stop-color="#8CFF00"/>
</linearGradient>
<clipPath id="clip0_2439_4064">
<rect width="194" height="352" fill="white"/>
</clipPath>
</defs>
</svg>
