<svg width="354" height="302" viewBox="0 0 354 302" fill="none" xmlns="http://www.w3.org/2000/svg">
<g clip-path="url(#clip0_2489_3829)">
<path d="M193.264 197.495L233.325 213.819L220.925 228.425L179.91 206.946L193.264 197.495Z" fill="#054F77"/>
<g filter="url(#filter0_d_2489_3829)">
<path d="M197.71 187.97L214.509 194.995V218.486L197.71 209.816V187.97Z" fill="url(#paint0_linear_2489_3829)"/>
</g>
<g filter="url(#filter1_d_2489_3829)">
<path d="M216.825 193.292L214.438 195.051L214.492 218.476L216.825 215.114V193.292Z" fill="url(#paint1_linear_2489_3829)"/>
</g>
<path d="M129.044 156.325L124.198 22.4662C124.136 20.7415 125.814 19.4845 127.451 20.0295L323.872 85.4004C324.882 85.7368 325.564 86.6824 325.564 87.7476V236.444C325.564 238.211 323.765 239.408 322.135 238.726L130.56 158.517C129.671 158.144 129.078 157.289 129.044 156.325Z" fill="url(#paint2_linear_2489_3829)" fill-opacity="0.8" stroke="url(#paint3_linear_2489_3829)" stroke-width="2.47378"/>
<g filter="url(#filter2_f_2489_3829)">
<path d="M219.509 127.035L213.244 117.715C212.893 117.193 212.134 117.17 211.752 117.669L200.238 132.707C199.789 133.293 200.18 134.143 200.917 134.183L230.163 135.764C230.905 135.804 231.385 134.992 230.992 134.362L225.559 125.638C225.3 125.223 224.761 125.083 224.334 125.321L220.717 127.326C220.3 127.557 219.775 127.431 219.509 127.035Z" fill="url(#paint4_linear_2489_3829)"/>
</g>
<path d="M232.815 106.108L204.372 103.998C202.08 103.828 200.08 105.516 199.913 107.767L198.012 133.393C197.845 135.641 199.574 137.604 201.867 137.774L230.31 139.884C232.602 140.054 234.6 138.367 234.767 136.119L236.668 110.493C236.835 108.243 235.108 106.278 232.815 106.108ZM223.533 111.516C225.75 111.681 227.418 113.577 227.257 115.75C227.095 117.924 225.166 119.553 222.949 119.389C220.732 119.224 219.065 117.328 219.226 115.155C219.387 112.981 221.316 111.352 223.533 111.516ZM229.286 136.02L216.366 135.062L204.023 134.146C202.914 134.064 202.478 133.241 203.05 132.307L210.934 119.439C211.505 118.505 212.463 118.489 213.073 119.403L219.343 128.794C219.953 129.707 221.126 129.868 221.963 129.152L223.782 127.595C224.619 126.879 225.759 127.06 226.329 127.998L230.263 134.47C230.831 135.408 230.395 136.102 229.286 136.02Z" fill="url(#paint5_linear_2489_3829)"/>
<g filter="url(#filter3_f_2489_3829)">
<path d="M205.075 110.901C206.647 111.552 206.924 113.661 205.574 114.697L194.464 123.221C193.114 124.256 191.149 123.442 190.927 121.755L189.101 107.872C188.879 106.185 190.566 104.89 192.138 105.541L205.075 110.901Z" fill="url(#paint6_radial_2489_3829)"/>
<path d="M205.075 110.901C206.647 111.552 206.924 113.661 205.574 114.697L194.464 123.221C193.114 124.256 191.149 123.442 190.927 121.755L189.101 107.872C188.879 106.185 190.566 104.89 192.138 105.541L205.075 110.901Z" stroke="#8CFF00" stroke-width="0.552594"/>
</g>
<path d="M205.506 111.08C206.886 111.652 207.13 113.503 205.944 114.413L194.094 123.504C192.909 124.414 191.183 123.699 190.988 122.218L189.04 107.41C188.845 105.928 190.327 104.791 191.707 105.363L205.506 111.08Z" fill="url(#paint7_radial_2489_3829)"/>
<path d="M205.506 111.08C206.886 111.652 207.13 113.503 205.944 114.413L194.094 123.504C192.909 124.414 191.183 123.699 190.988 122.218L189.04 107.41C188.845 105.928 190.327 104.791 191.707 105.363L205.506 111.08Z" fill="url(#paint8_radial_2489_3829)"/>
<path d="M205.506 111.08C206.886 111.652 207.13 113.503 205.944 114.413L194.094 123.504C192.909 124.414 191.183 123.699 190.988 122.218L189.04 107.41C188.845 105.928 190.327 104.791 191.707 105.363L205.506 111.08Z" stroke="#F4FBFF" stroke-width="0.110519"/>
<path d="M-0.284488 133.246L192.192 109.431L232.114 106.031C236.677 115.856 236.783 123.126 232.114 139.49L103.962 324.055L-0.284488 133.246Z" fill="url(#paint9_linear_2489_3829)"/>
<ellipse cx="104.537" cy="205.327" rx="25.0468" ry="27.7878" transform="rotate(-7.09518 104.537 205.327)" fill="url(#paint10_linear_2489_3829)"/>
<ellipse cx="104.537" cy="205.327" rx="25.0468" ry="27.7878" transform="rotate(-7.09518 104.537 205.327)" fill="url(#paint11_linear_2489_3829)" fill-opacity="0.5"/>
<ellipse cx="101.609" cy="205.715" rx="22.0941" ry="26.8476" transform="rotate(-7.09518 101.609 205.715)" fill="#D9D9D9"/>
<ellipse cx="101.609" cy="205.715" rx="22.0941" ry="26.8476" transform="rotate(-7.09518 101.609 205.715)" fill="url(#paint12_linear_2489_3829)"/>
<ellipse cx="101.609" cy="205.715" rx="22.0941" ry="26.8476" transform="rotate(-7.09518 101.609 205.715)" fill="url(#paint13_linear_2489_3829)" fill-opacity="0.3"/>
<g filter="url(#filter4_d_2489_3829)">
<path d="M100.818 219.195L100.526 216.85C98.5339 216.874 96.8917 216.356 95.5993 215.295C94.3069 214.235 93.5497 212.812 93.3276 211.028L95.5227 210.755C95.6624 211.877 96.138 212.836 96.9495 213.631C97.7609 214.426 98.8719 214.847 100.283 214.895L99.2196 206.356C97.0449 206.056 95.4653 205.469 94.4811 204.594C93.5168 203.717 92.9461 202.566 92.769 201.143C92.6043 199.82 92.9519 198.606 93.812 197.501C94.672 196.397 96.0129 195.64 97.8348 195.23L97.5316 192.794L99.6365 192.532L99.9359 194.938C101.743 194.896 103.233 195.341 104.408 196.274C105.6 197.184 106.29 198.391 106.477 199.895L104.312 200.164C104.215 199.382 103.819 198.658 103.125 197.991C102.429 197.304 101.448 196.948 100.183 196.922L101.134 204.56L101.228 204.579C103.315 204.828 104.948 205.357 106.128 206.167C107.308 206.977 108.001 208.214 108.208 209.878C108.345 210.981 108.197 211.997 107.763 212.926C107.349 213.853 106.695 214.647 105.8 215.308C104.923 215.946 103.869 216.393 102.638 216.648L102.923 218.933L100.818 219.195ZM94.9378 200.903C95.0376 201.705 95.3655 202.377 95.9214 202.919C96.495 203.438 97.5045 203.861 98.9501 204.19L98.0743 197.154C97.0518 197.444 96.2448 197.911 95.6531 198.555C95.0614 199.198 94.823 199.981 94.9378 200.903ZM106.058 210.268C105.928 209.226 105.514 208.432 104.815 207.888C104.134 207.322 102.993 206.904 101.392 206.635L102.399 214.724C103.724 214.416 104.691 213.838 105.297 212.989C105.924 212.137 106.178 211.23 106.058 210.268Z" fill="#F4FBFF"/>
</g>
<ellipse cx="122.867" cy="146.793" rx="13.4624" ry="14.9357" transform="rotate(-7.09518 122.867 146.793)" fill="url(#paint14_linear_2489_3829)"/>
<ellipse cx="122.867" cy="146.793" rx="13.4624" ry="14.9357" transform="rotate(-7.09518 122.867 146.793)" fill="url(#paint15_linear_2489_3829)" fill-opacity="0.5"/>
<ellipse cx="121.294" cy="147.002" rx="11.8754" ry="14.4303" transform="rotate(-7.09518 121.294 147.002)" fill="#D9D9D9"/>
<ellipse cx="121.294" cy="147.002" rx="11.8754" ry="14.4303" transform="rotate(-7.09518 121.294 147.002)" fill="url(#paint16_linear_2489_3829)"/>
<ellipse cx="121.294" cy="147.002" rx="11.8754" ry="14.4303" transform="rotate(-7.09518 121.294 147.002)" fill="url(#paint17_linear_2489_3829)" fill-opacity="0.3"/>
<g filter="url(#filter5_d_2489_3829)">
<path d="M120.868 154.247L120.711 152.986C119.64 152.999 118.758 152.721 118.063 152.151C117.368 151.581 116.961 150.816 116.842 149.857L118.022 149.71C118.097 150.314 118.353 150.829 118.789 151.256C119.225 151.683 119.822 151.91 120.58 151.936L120.009 147.346C118.84 147.185 117.991 146.869 117.462 146.399C116.944 145.927 116.637 145.309 116.542 144.544C116.453 143.833 116.64 143.18 117.102 142.587C117.565 141.993 118.285 141.586 119.265 141.366L119.102 140.057L120.233 139.916L120.394 141.209C121.365 141.186 122.166 141.426 122.798 141.927C123.438 142.416 123.809 143.065 123.91 143.873L122.746 144.018C122.694 143.598 122.481 143.208 122.108 142.85C121.734 142.481 121.207 142.289 120.527 142.275L121.038 146.381L121.088 146.391C122.21 146.525 123.088 146.809 123.722 147.245C124.356 147.68 124.729 148.345 124.84 149.239C124.914 149.832 124.834 150.378 124.601 150.877C124.379 151.376 124.027 151.802 123.546 152.158C123.074 152.501 122.508 152.741 121.846 152.878L121.999 154.106L120.868 154.247ZM117.708 144.415C117.761 144.846 117.937 145.207 118.236 145.498C118.545 145.777 119.087 146.005 119.864 146.182L119.393 142.4C118.844 142.556 118.41 142.807 118.092 143.153C117.774 143.499 117.646 143.92 117.708 144.415ZM123.685 149.449C123.615 148.888 123.392 148.462 123.017 148.17C122.65 147.865 122.037 147.64 121.177 147.496L121.718 151.844C122.43 151.678 122.95 151.367 123.276 150.911C123.613 150.453 123.749 149.966 123.685 149.449Z" fill="#F4FBFF"/>
</g>
<ellipse cx="163.65" cy="171.36" rx="9.02346" ry="10.011" transform="rotate(-7.09518 163.65 171.36)" fill="url(#paint18_linear_2489_3829)"/>
<ellipse cx="163.65" cy="171.36" rx="9.02346" ry="10.011" transform="rotate(-7.09518 163.65 171.36)" fill="url(#paint19_linear_2489_3829)" fill-opacity="0.5"/>
<ellipse cx="162.596" cy="171.5" rx="7.95972" ry="9.67224" transform="rotate(-7.09518 162.596 171.5)" fill="#D9D9D9"/>
<ellipse cx="162.596" cy="171.5" rx="7.95972" ry="9.67224" transform="rotate(-7.09518 162.596 171.5)" fill="url(#paint20_linear_2489_3829)"/>
<ellipse cx="162.596" cy="171.5" rx="7.95972" ry="9.67224" transform="rotate(-7.09518 162.596 171.5)" fill="url(#paint21_linear_2489_3829)" fill-opacity="0.3"/>
<g filter="url(#filter6_d_2489_3829)">
<path d="M162.311 176.356L162.205 175.511C161.488 175.52 160.896 175.333 160.431 174.951C159.965 174.569 159.692 174.056 159.612 173.414L160.403 173.315C160.453 173.72 160.625 174.065 160.917 174.351C161.209 174.638 161.61 174.789 162.118 174.807L161.735 171.73C160.951 171.622 160.382 171.411 160.028 171.096C159.68 170.78 159.475 170.365 159.411 169.852C159.352 169.376 159.477 168.938 159.787 168.54C160.096 168.143 160.58 167.87 161.236 167.722L161.127 166.845L161.885 166.75L161.993 167.617C162.644 167.602 163.181 167.762 163.604 168.098C164.034 168.426 164.282 168.861 164.349 169.403L163.569 169.5C163.534 169.218 163.392 168.957 163.142 168.717C162.891 168.469 162.538 168.341 162.082 168.332L162.424 171.083L162.458 171.09C163.21 171.18 163.799 171.371 164.224 171.663C164.649 171.954 164.898 172.4 164.973 172.999C165.023 173.397 164.969 173.763 164.813 174.097C164.664 174.431 164.428 174.717 164.105 174.956C163.789 175.186 163.41 175.346 162.966 175.438L163.069 176.262L162.311 176.356ZM160.192 169.766C160.228 170.055 160.346 170.297 160.547 170.492C160.753 170.679 161.117 170.832 161.638 170.95L161.322 168.415C160.954 168.52 160.663 168.688 160.45 168.92C160.237 169.152 160.151 169.434 160.192 169.766ZM164.199 173.14C164.152 172.764 164.003 172.478 163.751 172.282C163.505 172.078 163.094 171.928 162.517 171.831L162.88 174.745C163.358 174.634 163.706 174.426 163.924 174.12C164.15 173.813 164.242 173.486 164.199 173.14Z" fill="#F4FBFF"/>
</g>
<ellipse cx="170.961" cy="134.953" rx="7.4201" ry="8.23214" transform="rotate(-7.09518 170.961 134.953)" fill="url(#paint22_linear_2489_3829)"/>
<ellipse cx="170.961" cy="134.953" rx="7.4201" ry="8.23214" transform="rotate(-7.09518 170.961 134.953)" fill="url(#paint23_linear_2489_3829)" fill-opacity="0.5"/>
<ellipse cx="170.094" cy="135.067" rx="6.54538" ry="7.95361" transform="rotate(-7.09518 170.094 135.067)" fill="#D9D9D9"/>
<ellipse cx="170.094" cy="135.067" rx="6.54538" ry="7.95361" transform="rotate(-7.09518 170.094 135.067)" fill="url(#paint24_linear_2489_3829)"/>
<ellipse cx="170.094" cy="135.067" rx="6.54538" ry="7.95361" transform="rotate(-7.09518 170.094 135.067)" fill="url(#paint25_linear_2489_3829)" fill-opacity="0.3"/>
<g filter="url(#filter7_d_2489_3829)">
<path d="M169.859 139.06L169.772 138.365C169.182 138.372 168.696 138.219 168.313 137.905C167.93 137.59 167.705 137.169 167.64 136.641L168.29 136.56C168.331 136.892 168.472 137.176 168.713 137.412C168.953 137.647 169.282 137.772 169.7 137.786L169.385 135.256C168.741 135.168 168.273 134.994 167.981 134.734C167.696 134.475 167.527 134.134 167.474 133.712C167.425 133.32 167.528 132.961 167.783 132.633C168.038 132.306 168.435 132.082 168.975 131.96L168.885 131.239L169.509 131.161L169.597 131.874C170.133 131.861 170.574 131.993 170.922 132.27C171.275 132.539 171.48 132.897 171.535 133.342L170.894 133.422C170.865 133.19 170.748 132.976 170.542 132.778C170.336 132.575 170.045 132.469 169.671 132.462L169.952 134.724L169.98 134.73C170.598 134.804 171.082 134.961 171.432 135.201C171.781 135.441 171.987 135.807 172.048 136.3C172.089 136.627 172.045 136.928 171.916 137.203C171.794 137.477 171.6 137.713 171.335 137.908C171.075 138.098 170.762 138.23 170.398 138.305L170.482 138.983L169.859 139.06ZM168.117 133.641C168.146 133.879 168.243 134.078 168.408 134.238C168.578 134.392 168.877 134.517 169.305 134.615L169.046 132.53C168.743 132.616 168.504 132.755 168.329 132.945C168.153 133.136 168.083 133.368 168.117 133.641ZM171.411 136.415C171.373 136.107 171.25 135.872 171.043 135.71C170.841 135.542 170.503 135.419 170.029 135.339L170.327 137.735C170.72 137.644 171.006 137.473 171.186 137.221C171.371 136.969 171.447 136.7 171.411 136.415Z" fill="#F4FBFF"/>
</g>
<path d="M179.922 206.912L220.863 228.354V230.123L179.922 208.69V206.912Z" fill="#093954"/>
<path d="M233.34 213.803L220.863 228.354V230.123L233.34 215.54V213.803Z" fill="#093954"/>
</g>
<defs>
<filter id="filter0_d_2489_3829" x="193.71" y="187.97" width="24.7988" height="38.5157" filterUnits="userSpaceOnUse" color-interpolation-filters="sRGB">
<feFlood flood-opacity="0" result="BackgroundImageFix"/>
<feColorMatrix in="SourceAlpha" type="matrix" values="0 0 0 0 0 0 0 0 0 0 0 0 0 0 0 0 0 0 127 0" result="hardAlpha"/>
<feOffset dy="4"/>
<feGaussianBlur stdDeviation="2"/>
<feComposite in2="hardAlpha" operator="out"/>
<feColorMatrix type="matrix" values="0 0 0 0 0 0 0 0 0 0 0 0 0 0 0 0 0 0 0.25 0"/>
<feBlend mode="normal" in2="BackgroundImageFix" result="effect1_dropShadow_2489_3829"/>
<feBlend mode="normal" in="SourceGraphic" in2="effect1_dropShadow_2489_3829" result="shape"/>
</filter>
<filter id="filter1_d_2489_3829" x="210.438" y="193.292" width="10.3872" height="33.1841" filterUnits="userSpaceOnUse" color-interpolation-filters="sRGB">
<feFlood flood-opacity="0" result="BackgroundImageFix"/>
<feColorMatrix in="SourceAlpha" type="matrix" values="0 0 0 0 0 0 0 0 0 0 0 0 0 0 0 0 0 0 127 0" result="hardAlpha"/>
<feOffset dy="4"/>
<feGaussianBlur stdDeviation="2"/>
<feComposite in2="hardAlpha" operator="out"/>
<feColorMatrix type="matrix" values="0 0 0 0 0 0 0 0 0 0 0 0 0 0 0 0 0 0 0.25 0"/>
<feBlend mode="normal" in2="BackgroundImageFix" result="effect1_dropShadow_2489_3829"/>
<feBlend mode="normal" in="SourceGraphic" in2="effect1_dropShadow_2489_3829" result="shape"/>
</filter>
<filter id="filter2_f_2489_3829" x="198.945" y="116.207" width="33.2898" height="20.6613" filterUnits="userSpaceOnUse" color-interpolation-filters="sRGB">
<feFlood flood-opacity="0" result="BackgroundImageFix"/>
<feBlend mode="normal" in="SourceGraphic" in2="BackgroundImageFix" result="shape"/>
<feGaussianBlur stdDeviation="0.5511" result="effect1_foregroundBlur_2489_3829"/>
</filter>
<filter id="filter3_f_2489_3829" x="187.147" y="103.435" width="21.2267" height="22.1788" filterUnits="userSpaceOnUse" color-interpolation-filters="sRGB">
<feFlood flood-opacity="0" result="BackgroundImageFix"/>
<feBlend mode="normal" in="SourceGraphic" in2="BackgroundImageFix" result="shape"/>
<feGaussianBlur stdDeviation="0.828891" result="effect1_foregroundBlur_2489_3829"/>
</filter>
<filter id="filter4_d_2489_3829" x="87.7819" y="192.532" width="25.4235" height="36.5587" filterUnits="userSpaceOnUse" color-interpolation-filters="sRGB">
<feFlood flood-opacity="0" result="BackgroundImageFix"/>
<feColorMatrix in="SourceAlpha" type="matrix" values="0 0 0 0 0 0 0 0 0 0 0 0 0 0 0 0 0 0 127 0" result="hardAlpha"/>
<feOffset dy="4.94757"/>
<feGaussianBlur stdDeviation="2.47378"/>
<feComposite in2="hardAlpha" operator="out"/>
<feColorMatrix type="matrix" values="0 0 0 0 0 0 0 0 0 0 0 0 0 0 0 0 0 0 0.25 0"/>
<feBlend mode="normal" in2="BackgroundImageFix" result="effect1_dropShadow_2489_3829"/>
<feBlend mode="normal" in="SourceGraphic" in2="effect1_dropShadow_2489_3829" result="shape"/>
</filter>
<filter id="filter5_d_2489_3829" x="111.573" y="139.916" width="18.2413" height="24.2264" filterUnits="userSpaceOnUse" color-interpolation-filters="sRGB">
<feFlood flood-opacity="0" result="BackgroundImageFix"/>
<feColorMatrix in="SourceAlpha" type="matrix" values="0 0 0 0 0 0 0 0 0 0 0 0 0 0 0 0 0 0 127 0" result="hardAlpha"/>
<feOffset dy="4.94757"/>
<feGaussianBlur stdDeviation="2.47378"/>
<feComposite in2="hardAlpha" operator="out"/>
<feColorMatrix type="matrix" values="0 0 0 0 0 0 0 0 0 0 0 0 0 0 0 0 0 0 0.25 0"/>
<feBlend mode="normal" in2="BackgroundImageFix" result="effect1_dropShadow_2489_3829"/>
<feBlend mode="normal" in="SourceGraphic" in2="effect1_dropShadow_2489_3829" result="shape"/>
</filter>
<filter id="filter6_d_2489_3829" x="154.449" y="166.75" width="15.4894" height="19.5011" filterUnits="userSpaceOnUse" color-interpolation-filters="sRGB">
<feFlood flood-opacity="0" result="BackgroundImageFix"/>
<feColorMatrix in="SourceAlpha" type="matrix" values="0 0 0 0 0 0 0 0 0 0 0 0 0 0 0 0 0 0 127 0" result="hardAlpha"/>
<feOffset dy="4.94757"/>
<feGaussianBlur stdDeviation="2.47378"/>
<feComposite in2="hardAlpha" operator="out"/>
<feColorMatrix type="matrix" values="0 0 0 0 0 0 0 0 0 0 0 0 0 0 0 0 0 0 0.25 0"/>
<feBlend mode="normal" in2="BackgroundImageFix" result="effect1_dropShadow_2489_3829"/>
<feBlend mode="normal" in="SourceGraphic" in2="effect1_dropShadow_2489_3829" result="shape"/>
</filter>
<filter id="filter7_d_2489_3829" x="162.515" y="131.161" width="14.4952" height="17.7943" filterUnits="userSpaceOnUse" color-interpolation-filters="sRGB">
<feFlood flood-opacity="0" result="BackgroundImageFix"/>
<feColorMatrix in="SourceAlpha" type="matrix" values="0 0 0 0 0 0 0 0 0 0 0 0 0 0 0 0 0 0 127 0" result="hardAlpha"/>
<feOffset dy="4.94757"/>
<feGaussianBlur stdDeviation="2.47378"/>
<feComposite in2="hardAlpha" operator="out"/>
<feColorMatrix type="matrix" values="0 0 0 0 0 0 0 0 0 0 0 0 0 0 0 0 0 0 0.25 0"/>
<feBlend mode="normal" in2="BackgroundImageFix" result="effect1_dropShadow_2489_3829"/>
<feBlend mode="normal" in="SourceGraphic" in2="effect1_dropShadow_2489_3829" result="shape"/>
</filter>
<linearGradient id="paint0_linear_2489_3829" x1="206.109" y1="188.846" x2="206.109" y2="218.486" gradientUnits="userSpaceOnUse">
<stop stop-color="#093954"/>
<stop offset="1" stop-color="#054F77"/>
</linearGradient>
<linearGradient id="paint1_linear_2489_3829" x1="214.509" y1="204.349" x2="216.448" y2="223.389" gradientUnits="userSpaceOnUse">
<stop stop-color="#093954"/>
<stop offset="1" stop-color="#054F77"/>
</linearGradient>
<linearGradient id="paint2_linear_2489_3829" x1="326.801" y1="83.5584" x2="127.284" y2="173.623" gradientUnits="userSpaceOnUse">
<stop stop-color="#093954"/>
<stop offset="1" stop-color="#F4FBFF" stop-opacity="0.42"/>
</linearGradient>
<linearGradient id="paint3_linear_2489_3829" x1="326.801" y1="94.9959" x2="153.096" y2="193.08" gradientUnits="userSpaceOnUse">
<stop stop-color="#093954"/>
<stop offset="1" stop-color="#054F77" stop-opacity="0"/>
</linearGradient>
<linearGradient id="paint4_linear_2489_3829" x1="221.421" y1="134.958" x2="203.558" y2="118.687" gradientUnits="userSpaceOnUse">
<stop stop-color="#F4FBFF"/>
<stop offset="1" stop-color="#83DDDD" stop-opacity="0.92"/>
</linearGradient>
<linearGradient id="paint5_linear_2489_3829" x1="230.788" y1="117.043" x2="209.958" y2="138.374" gradientUnits="userSpaceOnUse">
<stop stop-color="#141F45"/>
<stop offset="1" stop-color="#054F77"/>
</linearGradient>
<radialGradient id="paint6_radial_2489_3829" cx="0" cy="0" r="1" gradientUnits="userSpaceOnUse" gradientTransform="translate(207.374 123.534) rotate(-160.852) scale(29.3015)">
<stop stop-color="#054F77"/>
<stop offset="1" stop-color="#141F45"/>
</radialGradient>
<radialGradient id="paint7_radial_2489_3829" cx="0" cy="0" r="1" gradientUnits="userSpaceOnUse" gradientTransform="translate(207.374 123.534) rotate(-160.852) scale(29.3015)">
<stop stop-color="#054F77"/>
<stop offset="1" stop-color="#141F45"/>
</radialGradient>
<radialGradient id="paint8_radial_2489_3829" cx="0" cy="0" r="1" gradientUnits="userSpaceOnUse" gradientTransform="translate(207.374 123.534) rotate(-160.852) scale(29.3015)">
<stop stop-color="#054F77"/>
<stop offset="1" stop-color="#8CFF00"/>
</radialGradient>
<linearGradient id="paint9_linear_2489_3829" x1="205.225" y1="106.031" x2="71.5306" y2="215.043" gradientUnits="userSpaceOnUse">
<stop stop-color="#054F77" stop-opacity="0"/>
<stop offset="0.119029" stop-color="#79CDC6" stop-opacity="0.48"/>
<stop offset="0.510784" stop-color="#83DDDD" stop-opacity="0.61"/>
<stop offset="1" stop-color="#054F77" stop-opacity="0"/>
</linearGradient>
<linearGradient id="paint10_linear_2489_3829" x1="94.0594" y1="176.235" x2="104.654" y2="235.464" gradientUnits="userSpaceOnUse">
<stop stop-color="#054F77"/>
<stop offset="1" stop-color="#093954"/>
</linearGradient>
<linearGradient id="paint11_linear_2489_3829" x1="124.813" y1="218.328" x2="100.994" y2="202.781" gradientUnits="userSpaceOnUse">
<stop stop-color="#8CFF00"/>
<stop offset="1" stop-color="#83DDDD" stop-opacity="0"/>
</linearGradient>
<linearGradient id="paint12_linear_2489_3829" x1="91.4197" y1="180.066" x2="102.144" y2="234.523" gradientUnits="userSpaceOnUse">
<stop stop-color="#054F77"/>
<stop offset="1" stop-color="#093954"/>
</linearGradient>
<linearGradient id="paint13_linear_2489_3829" x1="104.448" y1="194.454" x2="104.448" y2="231.247" gradientUnits="userSpaceOnUse">
<stop stop-color="#83DDDD" stop-opacity="0"/>
<stop offset="1" stop-color="#8CFF00"/>
</linearGradient>
<linearGradient id="paint14_linear_2489_3829" x1="117.236" y1="131.156" x2="122.93" y2="162.991" gradientUnits="userSpaceOnUse">
<stop stop-color="#054F77"/>
<stop offset="1" stop-color="#093954"/>
</linearGradient>
<linearGradient id="paint15_linear_2489_3829" x1="133.765" y1="153.781" x2="120.963" y2="145.425" gradientUnits="userSpaceOnUse">
<stop stop-color="#8CFF00"/>
<stop offset="1" stop-color="#83DDDD" stop-opacity="0"/>
</linearGradient>
<linearGradient id="paint16_linear_2489_3829" x1="115.818" y1="133.216" x2="121.582" y2="162.486" gradientUnits="userSpaceOnUse">
<stop stop-color="#054F77"/>
<stop offset="1" stop-color="#093954"/>
</linearGradient>
<linearGradient id="paint17_linear_2489_3829" x1="122.82" y1="140.949" x2="122.82" y2="160.725" gradientUnits="userSpaceOnUse">
<stop stop-color="#83DDDD" stop-opacity="0"/>
<stop offset="1" stop-color="#8CFF00"/>
</linearGradient>
<linearGradient id="paint18_linear_2489_3829" x1="159.876" y1="160.879" x2="163.692" y2="182.217" gradientUnits="userSpaceOnUse">
<stop stop-color="#054F77"/>
<stop offset="1" stop-color="#093954"/>
</linearGradient>
<linearGradient id="paint19_linear_2489_3829" x1="170.955" y1="176.044" x2="162.374" y2="170.443" gradientUnits="userSpaceOnUse">
<stop stop-color="#8CFF00"/>
<stop offset="1" stop-color="#83DDDD" stop-opacity="0"/>
</linearGradient>
<linearGradient id="paint20_linear_2489_3829" x1="158.925" y1="162.26" x2="162.789" y2="181.878" gradientUnits="userSpaceOnUse">
<stop stop-color="#054F77"/>
<stop offset="1" stop-color="#093954"/>
</linearGradient>
<linearGradient id="paint21_linear_2489_3829" x1="163.619" y1="167.443" x2="163.619" y2="180.698" gradientUnits="userSpaceOnUse">
<stop stop-color="#83DDDD" stop-opacity="0"/>
<stop offset="1" stop-color="#8CFF00"/>
</linearGradient>
<linearGradient id="paint22_linear_2489_3829" x1="167.857" y1="126.334" x2="170.995" y2="143.881" gradientUnits="userSpaceOnUse">
<stop stop-color="#054F77"/>
<stop offset="1" stop-color="#093954"/>
</linearGradient>
<linearGradient id="paint23_linear_2489_3829" x1="176.968" y1="138.804" x2="169.911" y2="134.198" gradientUnits="userSpaceOnUse">
<stop stop-color="#8CFF00"/>
<stop offset="1" stop-color="#83DDDD" stop-opacity="0"/>
</linearGradient>
<linearGradient id="paint24_linear_2489_3829" x1="167.075" y1="127.469" x2="170.252" y2="143.601" gradientUnits="userSpaceOnUse">
<stop stop-color="#054F77"/>
<stop offset="1" stop-color="#093954"/>
</linearGradient>
<linearGradient id="paint25_linear_2489_3829" x1="170.935" y1="131.731" x2="170.935" y2="142.631" gradientUnits="userSpaceOnUse">
<stop stop-color="#83DDDD" stop-opacity="0"/>
<stop offset="1" stop-color="#8CFF00"/>
</linearGradient>
<clipPath id="clip0_2489_3829">
<rect width="353.751" height="300.565" fill="white" transform="translate(0 0.506836)"/>
</clipPath>
</defs>
</svg>
