<svg width="248" height="287" viewBox="0 0 248 287" fill="none" xmlns="http://www.w3.org/2000/svg">
<g clip-path="url(#clip0_2436_3860)">
<g opacity="0.8">
<line x1="49.8094" y1="117.883" x2="49.8094" y2="75.7126" stroke="#F4FBFF" stroke-width="0.915369"/>
<line x1="174.986" y1="117.883" x2="174.986" y2="72.8123" stroke="#F4FBFF" stroke-width="0.915369"/>
<line x1="112.134" y1="161.242" x2="112.134" y2="114.668" stroke="#F4FBFF" stroke-width="0.915369"/>
<line x1="112.134" y1="87.4287" x2="112.134" y2="42.6271" stroke="#F4FBFF" stroke-width="0.915369"/>
<path d="M93.6372 161.242L60.6018 142.039" stroke="#F4FBFF" stroke-width="0.915369"/>
<path d="M175.116 137.972L128.363 157.996" stroke="#F4FBFF" stroke-width="0.915369"/>
<path d="M93.6294 49.2667L55.0049 67.0489" stroke="#F4FBFF" stroke-width="0.915369"/>
<path d="M168.077 67.5533L130.253 49.1998" stroke="#F4FBFF" stroke-width="0.915369"/>
<path d="M67.8247 146.07L67.8247 126.415C67.8247 125.903 67.5172 125.442 67.0483 125.237L49.8873 117.882L49.8873 138.382L67.8247 146.07ZM49.8873 138.382L30.6686 146.07L30.6686 126.415C30.6684 126.164 30.7418 125.919 30.8799 125.709C31.0179 125.5 31.2144 125.335 31.445 125.237L49.8873 117.882L49.8873 138.382Z" fill="white"/>
<path d="M67.8247 146.07L67.8247 126.415C67.8247 125.903 67.5172 125.442 67.0483 125.237L49.8873 117.882L49.8873 138.382L67.8247 146.07ZM49.8873 138.382L30.6686 146.07L30.6686 126.415C30.6684 126.164 30.7418 125.919 30.8799 125.709C31.0179 125.5 31.2144 125.335 31.445 125.237L49.8873 117.882L49.8873 138.382Z" fill="url(#paint0_linear_2436_3860)" fill-opacity="0.6"/>
<path d="M67.8247 126.044V145.699C67.8247 146.211 67.5172 146.672 67.0483 146.877L49.8873 154.232V133.732L67.8247 126.044ZM49.8873 133.732L30.6686 126.044V145.699C30.6684 145.95 30.7418 146.195 30.8799 146.405C31.0179 146.614 31.2144 146.779 31.445 146.877L49.8873 154.232V133.732Z" fill="white" fill-opacity="0.2"/>
<path d="M67.8247 126.044V145.699C67.8247 146.211 67.5172 146.672 67.0483 146.877L49.8873 154.232V133.732L67.8247 126.044ZM49.8873 133.732L30.6686 126.044V145.699C30.6684 145.95 30.7418 146.195 30.8799 146.405C31.0179 146.614 31.2144 146.779 31.445 146.877L49.8873 154.232V133.732Z" fill="url(#paint1_linear_2436_3860)" fill-opacity="0.5"/>
<path d="M67.8247 89.8064L67.8247 70.1521C67.8247 69.6396 67.5172 69.1783 67.0483 68.9733L49.8873 61.619L49.8873 82.1189L67.8247 89.8064ZM49.8873 82.1189L30.6686 89.8064L30.6686 70.1521C30.6684 69.9012 30.7418 69.6557 30.8799 69.4462C31.0179 69.2366 31.2144 69.0722 31.445 68.9733L49.8873 61.619L49.8873 82.1189Z" fill="white"/>
<path d="M67.8247 89.8064L67.8247 70.1521C67.8247 69.6396 67.5172 69.1783 67.0483 68.9733L49.8873 61.619L49.8873 82.1189L67.8247 89.8064ZM49.8873 82.1189L30.6686 89.8064L30.6686 70.1521C30.6684 69.9012 30.7418 69.6557 30.8799 69.4462C31.0179 69.2366 31.2144 69.0722 31.445 68.9733L49.8873 61.619L49.8873 82.1189Z" fill="url(#paint2_linear_2436_3860)" fill-opacity="0.6"/>
<path d="M67.8247 69.7812V89.4356C67.8247 89.9481 67.5172 90.4093 67.0483 90.6143L49.8873 97.9687V77.4687L67.8247 69.7812ZM49.8873 77.4687L30.6686 69.7812V89.4356C30.6684 89.6865 30.7418 89.9319 30.8799 90.1415C31.0179 90.351 31.2144 90.5154 31.445 90.6143L49.8873 97.9687V77.4687Z" fill="white" fill-opacity="0.2"/>
<path d="M67.8247 69.7812V89.4356C67.8247 89.9481 67.5172 90.4093 67.0483 90.6143L49.8873 97.9687V77.4687L67.8247 69.7812ZM49.8873 77.4687L30.6686 69.7812V89.4356C30.6684 89.6865 30.7418 89.9319 30.8799 90.1415C31.0179 90.351 31.2144 90.5154 31.445 90.6143L49.8873 97.9687V77.4687Z" fill="url(#paint3_linear_2436_3860)" fill-opacity="0.5"/>
<path d="M192.676 146.07L192.676 126.415C192.676 125.903 192.368 125.442 191.899 125.237L174.738 117.882L174.738 138.382L192.676 146.07ZM174.738 138.382L155.52 146.07L155.52 126.415C155.519 126.164 155.593 125.919 155.731 125.709C155.869 125.5 156.065 125.335 156.296 125.237L174.738 117.882L174.738 138.382Z" fill="white"/>
<path d="M192.676 146.07L192.676 126.415C192.676 125.903 192.368 125.442 191.899 125.237L174.738 117.882L174.738 138.382L192.676 146.07ZM174.738 138.382L155.52 146.07L155.52 126.415C155.519 126.164 155.593 125.919 155.731 125.709C155.869 125.5 156.065 125.335 156.296 125.237L174.738 117.882L174.738 138.382Z" fill="url(#paint4_linear_2436_3860)" fill-opacity="0.6"/>
<path d="M192.676 126.044V145.699C192.676 146.211 192.368 146.672 191.899 146.877L174.738 154.232V133.732L192.676 126.044ZM174.738 133.732L155.52 126.044V145.699C155.519 145.95 155.593 146.195 155.731 146.405C155.869 146.614 156.065 146.779 156.296 146.877L174.738 154.232V133.732Z" fill="white" fill-opacity="0.2"/>
<path d="M192.676 126.044V145.699C192.676 146.211 192.368 146.672 191.899 146.877L174.738 154.232V133.732L192.676 126.044ZM174.738 133.732L155.52 126.044V145.699C155.519 145.95 155.593 146.195 155.731 146.405C155.869 146.614 156.065 146.779 156.296 146.877L174.738 154.232V133.732Z" fill="url(#paint5_linear_2436_3860)" fill-opacity="0.5"/>
<path d="M192.676 89.8064L192.676 70.1521C192.676 69.6396 192.369 69.1783 191.9 68.9733L174.739 61.619L174.739 82.1189L192.676 89.8064ZM174.739 82.1189L155.52 89.8064L155.52 70.1521C155.52 69.9012 155.593 69.6557 155.731 69.4462C155.869 69.2366 156.066 69.0722 156.297 68.9733L174.739 61.619L174.739 82.1189Z" fill="white"/>
<path d="M192.676 89.8064L192.676 70.1521C192.676 69.6396 192.369 69.1783 191.9 68.9733L174.739 61.619L174.739 82.1189L192.676 89.8064ZM174.739 82.1189L155.52 89.8064L155.52 70.1521C155.52 69.9012 155.593 69.6557 155.731 69.4462C155.869 69.2366 156.066 69.0722 156.297 68.9733L174.739 61.619L174.739 82.1189Z" fill="url(#paint6_linear_2436_3860)" fill-opacity="0.6"/>
<path d="M192.676 69.7812V89.4356C192.676 89.9481 192.369 90.4093 191.9 90.6143L174.739 97.9687V77.4687L192.676 69.7812ZM174.739 77.4687L155.52 69.7812V89.4356C155.52 89.6865 155.593 89.9319 155.731 90.1415C155.869 90.351 156.066 90.5154 156.297 90.6143L174.739 97.9687V77.4687Z" fill="white" fill-opacity="0.2"/>
<path d="M192.676 69.7812V89.4356C192.676 89.9481 192.369 90.4093 191.9 90.6143L174.739 97.9687V77.4687L192.676 69.7812ZM174.739 77.4687L155.52 69.7812V89.4356C155.52 89.6865 155.593 89.9319 155.731 90.1415C155.869 90.351 156.066 90.5154 156.297 90.6143L174.739 97.9687V77.4687Z" fill="url(#paint7_linear_2436_3860)" fill-opacity="0.5"/>
<path d="M130.251 174.257L130.251 154.603C130.251 154.091 129.943 153.629 129.475 153.424L112.314 146.07L112.314 166.57L130.251 174.257ZM112.314 166.57L93.0949 174.257L93.0949 154.603C93.0946 154.352 93.1681 154.107 93.3061 153.897C93.4442 153.688 93.6407 153.523 93.8713 153.424L112.314 146.07L112.314 166.57Z" fill="white"/>
<path d="M130.251 174.257L130.251 154.603C130.251 154.091 129.943 153.629 129.475 153.424L112.314 146.07L112.314 166.57L130.251 174.257ZM112.314 166.57L93.0949 174.257L93.0949 154.603C93.0946 154.352 93.1681 154.107 93.3061 153.897C93.4442 153.688 93.6407 153.523 93.8713 153.424L112.314 146.07L112.314 166.57Z" fill="url(#paint8_linear_2436_3860)" fill-opacity="0.6"/>
<path d="M130.251 154.232V173.886C130.251 174.399 129.943 174.86 129.475 175.065L112.314 182.42V161.92L130.251 154.232ZM112.314 161.92L93.0949 154.232V173.886C93.0946 174.137 93.1681 174.383 93.3061 174.592C93.4442 174.802 93.6407 174.966 93.8713 175.065L112.314 182.42V161.92Z" fill="white" fill-opacity="0.2"/>
<path d="M130.251 154.232V173.886C130.251 174.399 129.943 174.86 129.475 175.065L112.314 182.42V161.92L130.251 154.232ZM112.314 161.92L93.0949 154.232V173.886C93.0946 174.137 93.1681 174.383 93.3061 174.592C93.4442 174.802 93.6407 174.966 93.8713 175.065L112.314 182.42V161.92Z" fill="url(#paint9_linear_2436_3860)" fill-opacity="0.5"/>
<path d="M130.251 61.5078L130.251 41.8535C130.251 41.341 129.943 40.8798 129.475 40.6748L112.314 33.3204L112.314 53.8203L130.251 61.5078ZM112.314 53.8203L93.0949 61.5078L93.0949 41.8535C93.0946 41.6026 93.1681 41.3571 93.3061 41.1476C93.4442 40.938 93.6407 40.7736 93.8713 40.6748L112.314 33.3204L112.314 53.8203Z" fill="white"/>
<path d="M130.251 61.5078L130.251 41.8535C130.251 41.341 129.943 40.8798 129.475 40.6748L112.314 33.3204L112.314 53.8203L130.251 61.5078ZM112.314 53.8203L93.0949 61.5078L93.0949 41.8535C93.0946 41.6026 93.1681 41.3571 93.3061 41.1476C93.4442 40.938 93.6407 40.7736 93.8713 40.6748L112.314 33.3204L112.314 53.8203Z" fill="url(#paint10_linear_2436_3860)" fill-opacity="0.6"/>
<path d="M130.251 41.4828V61.1371C130.251 61.6496 129.943 62.1108 129.475 62.3158L112.314 69.6702V49.1703L130.251 41.4828ZM112.314 49.1703L93.0949 41.4828V61.1371C93.0946 61.388 93.1681 61.6335 93.3061 61.843C93.4442 62.0526 93.6407 62.217 93.8713 62.3158L112.314 69.6702V49.1703Z" fill="white" fill-opacity="0.2"/>
<path d="M130.251 41.4828V61.1371C130.251 61.6496 129.943 62.1108 129.475 62.3158L112.314 69.6702V49.1703L130.251 41.4828ZM112.314 49.1703L93.0949 41.4828V61.1371C93.0946 61.388 93.1681 61.6335 93.3061 61.843C93.4442 62.0526 93.6407 62.217 93.8713 62.3158L112.314 69.6702V49.1703Z" fill="url(#paint11_linear_2436_3860)" fill-opacity="0.5"/>
</g>
<g opacity="0.4">
<line x1="166.287" y1="250.28" x2="166.287" y2="226.129" stroke="#F4FBFF" stroke-width="0.915369"/>
<line x1="237.977" y1="250.28" x2="237.977" y2="224.468" stroke="#F4FBFF" stroke-width="0.915369"/>
<line x1="201.981" y1="275.113" x2="201.981" y2="212.229" stroke="#F4FBFF" stroke-width="0.915369"/>
<path d="M191.583 275.113L172.664 264.115" stroke="#F4FBFF" stroke-width="0.915369"/>
<path d="M238.248 261.786L211.472 273.254" stroke="#F4FBFF" stroke-width="0.915369"/>
<path d="M191.579 210.982L169.458 221.167" stroke="#F4FBFF" stroke-width="0.915369"/>
<path d="M234.217 221.456L212.554 210.944" stroke="#F4FBFF" stroke-width="0.915369"/>
<path d="M176.8 266.424L176.8 255.167C176.8 254.874 176.624 254.609 176.356 254.492L166.527 250.28L166.527 262.021L176.8 266.424ZM166.527 262.021L155.52 266.424L155.52 255.167C155.52 255.023 155.562 254.883 155.641 254.763C155.72 254.643 155.833 254.549 155.965 254.492L166.527 250.28L166.527 262.021Z" fill="white"/>
<path d="M176.8 266.424L176.8 255.167C176.8 254.874 176.624 254.609 176.356 254.492L166.527 250.28L166.527 262.021L176.8 266.424ZM166.527 262.021L155.52 266.424L155.52 255.167C155.52 255.023 155.562 254.883 155.641 254.763C155.72 254.643 155.833 254.549 155.965 254.492L166.527 250.28L166.527 262.021Z" fill="url(#paint12_linear_2436_3860)" fill-opacity="0.6"/>
<path d="M176.8 254.955V266.211C176.8 266.505 176.624 266.769 176.356 266.886L166.527 271.098V259.358L176.8 254.955ZM166.527 259.358L155.52 254.955V266.211C155.52 266.355 155.562 266.496 155.641 266.616C155.72 266.736 155.833 266.83 155.965 266.886L166.527 271.098V259.358Z" fill="white" fill-opacity="0.2"/>
<path d="M176.8 254.955V266.211C176.8 266.505 176.624 266.769 176.356 266.886L166.527 271.098V259.358L176.8 254.955ZM166.527 259.358L155.52 254.955V266.211C155.52 266.355 155.562 266.496 155.641 266.616C155.72 266.736 155.833 266.83 155.965 266.886L166.527 271.098V259.358Z" fill="url(#paint13_linear_2436_3860)" fill-opacity="0.5"/>
<path d="M176.8 234.2L176.8 222.944C176.8 222.651 176.624 222.386 176.356 222.269L166.527 218.057L166.527 229.798L176.8 234.2ZM166.527 229.798L155.52 234.2L155.52 222.944C155.52 222.8 155.562 222.66 155.641 222.54C155.72 222.42 155.833 222.326 155.965 222.269L166.527 218.057L166.527 229.798Z" fill="white"/>
<path d="M176.8 234.2L176.8 222.944C176.8 222.651 176.624 222.386 176.356 222.269L166.527 218.057L166.527 229.798L176.8 234.2ZM166.527 229.798L155.52 234.2L155.52 222.944C155.52 222.8 155.562 222.66 155.641 222.54C155.72 222.42 155.833 222.326 155.965 222.269L166.527 218.057L166.527 229.798Z" fill="url(#paint14_linear_2436_3860)" fill-opacity="0.6"/>
<path d="M176.8 222.732V233.988C176.8 234.282 176.624 234.546 176.356 234.663L166.527 238.875V227.134L176.8 222.732ZM166.527 227.134L155.52 222.732V233.988C155.52 234.132 155.562 234.272 155.641 234.392C155.72 234.512 155.833 234.607 155.965 234.663L166.527 238.875V227.134Z" fill="white" fill-opacity="0.2"/>
<path d="M176.8 222.732V233.988C176.8 234.282 176.624 234.546 176.356 234.663L166.527 238.875V227.134L176.8 222.732ZM166.527 227.134L155.52 222.732V233.988C155.52 234.132 155.562 234.272 155.641 234.392C155.72 234.512 155.833 234.607 155.965 234.663L166.527 238.875V227.134Z" fill="url(#paint15_linear_2436_3860)" fill-opacity="0.5"/>
<path d="M248.305 266.424L248.305 255.167C248.305 254.874 248.129 254.609 247.86 254.492L238.032 250.28L238.032 262.021L248.305 266.424ZM238.032 262.021L227.025 266.424L227.025 255.167C227.025 255.023 227.067 254.883 227.146 254.763C227.225 254.643 227.338 254.549 227.47 254.492L238.032 250.28L238.032 262.021Z" fill="white"/>
<path d="M248.305 266.424L248.305 255.167C248.305 254.874 248.129 254.609 247.86 254.492L238.032 250.28L238.032 262.021L248.305 266.424ZM238.032 262.021L227.025 266.424L227.025 255.167C227.025 255.023 227.067 254.883 227.146 254.763C227.225 254.643 227.338 254.549 227.47 254.492L238.032 250.28L238.032 262.021Z" fill="url(#paint16_linear_2436_3860)" fill-opacity="0.6"/>
<path d="M248.305 254.955V266.211C248.305 266.505 248.129 266.769 247.86 266.886L238.032 271.098V259.358L248.305 254.955ZM238.032 259.358L227.025 254.955V266.211C227.025 266.355 227.067 266.496 227.146 266.616C227.225 266.736 227.338 266.83 227.47 266.886L238.032 271.098V259.358Z" fill="white" fill-opacity="0.2"/>
<path d="M248.305 254.955V266.211C248.305 266.505 248.129 266.769 247.86 266.886L238.032 271.098V259.358L248.305 254.955ZM238.032 259.358L227.025 254.955V266.211C227.025 266.355 227.067 266.496 227.146 266.616C227.225 266.736 227.338 266.83 227.47 266.886L238.032 271.098V259.358Z" fill="url(#paint17_linear_2436_3860)" fill-opacity="0.5"/>
<path d="M248.305 234.2L248.305 222.944C248.305 222.651 248.129 222.386 247.86 222.269L238.032 218.057L238.032 229.798L248.305 234.2ZM238.032 229.798L227.025 234.2L227.025 222.944C227.025 222.8 227.067 222.66 227.146 222.54C227.225 222.42 227.338 222.326 227.47 222.269L238.032 218.057L238.032 229.798Z" fill="white"/>
<path d="M248.305 234.2L248.305 222.944C248.305 222.651 248.129 222.386 247.86 222.269L238.032 218.057L238.032 229.798L248.305 234.2ZM238.032 229.798L227.025 234.2L227.025 222.944C227.025 222.8 227.067 222.66 227.146 222.54C227.225 222.42 227.338 222.326 227.47 222.269L238.032 218.057L238.032 229.798Z" fill="url(#paint18_linear_2436_3860)" fill-opacity="0.6"/>
<path d="M248.305 222.732V233.988C248.305 234.282 248.129 234.546 247.86 234.663L238.032 238.875V227.134L248.305 222.732ZM238.032 227.134L227.025 222.732V233.988C227.025 234.132 227.067 234.272 227.146 234.392C227.225 234.512 227.338 234.607 227.47 234.663L238.032 238.875V227.134Z" fill="white" fill-opacity="0.2"/>
<path d="M248.305 222.732V233.988C248.305 234.282 248.129 234.546 247.86 234.663L238.032 238.875V227.134L248.305 222.732ZM238.032 227.134L227.025 222.732V233.988C227.025 234.132 227.067 234.272 227.146 234.392C227.225 234.512 227.338 234.607 227.47 234.663L238.032 238.875V227.134Z" fill="url(#paint19_linear_2436_3860)" fill-opacity="0.5"/>
<path d="M212.553 250.28L212.553 239.024C212.553 238.73 212.377 238.466 212.109 238.349L202.28 234.137L202.28 245.878L212.553 250.28ZM202.28 245.878L191.273 250.28L191.273 239.024C191.273 238.88 191.315 238.74 191.394 238.62C191.473 238.5 191.586 238.405 191.718 238.349L202.28 234.137L202.28 245.878Z" fill="white"/>
<path d="M212.553 250.28L212.553 239.024C212.553 238.73 212.377 238.466 212.109 238.349L202.28 234.137L202.28 245.878L212.553 250.28ZM202.28 245.878L191.273 250.28L191.273 239.024C191.273 238.88 191.315 238.74 191.394 238.62C191.473 238.5 191.586 238.405 191.718 238.349L202.28 234.137L202.28 245.878Z" fill="url(#paint20_linear_2436_3860)" fill-opacity="0.6"/>
<path d="M212.553 238.812V250.068C212.553 250.361 212.377 250.626 212.109 250.743L202.28 254.955V243.214L212.553 238.812ZM202.28 243.214L191.273 238.812V250.068C191.273 250.212 191.315 250.352 191.394 250.472C191.473 250.592 191.586 250.686 191.718 250.743L202.28 254.955V243.214Z" fill="white" fill-opacity="0.2"/>
<path d="M212.553 238.812V250.068C212.553 250.361 212.377 250.626 212.109 250.743L202.28 254.955V243.214L212.553 238.812ZM202.28 243.214L191.273 238.812V250.068C191.273 250.212 191.315 250.352 191.394 250.472C191.473 250.592 191.586 250.686 191.718 250.743L202.28 254.955V243.214Z" fill="url(#paint21_linear_2436_3860)" fill-opacity="0.5"/>
<path d="M212.553 282.567L212.553 271.311C212.553 271.017 212.377 270.753 212.109 270.636L202.28 266.424L202.28 278.164L212.553 282.567ZM202.28 278.164L191.273 282.567L191.273 271.311C191.273 271.167 191.315 271.026 191.394 270.906C191.473 270.786 191.586 270.692 191.718 270.636L202.28 266.424L202.28 278.164Z" fill="white"/>
<path d="M212.553 282.567L212.553 271.311C212.553 271.017 212.377 270.753 212.109 270.636L202.28 266.424L202.28 278.164L212.553 282.567ZM202.28 278.164L191.273 282.567L191.273 271.311C191.273 271.167 191.315 271.026 191.394 270.906C191.473 270.786 191.586 270.692 191.718 270.636L202.28 266.424L202.28 278.164Z" fill="url(#paint22_linear_2436_3860)" fill-opacity="0.6"/>
<path d="M212.553 271.098V282.355C212.553 282.648 212.377 282.912 212.109 283.03L202.28 287.242V275.501L212.553 271.098ZM202.28 275.501L191.273 271.098V282.355C191.273 282.498 191.315 282.639 191.394 282.759C191.473 282.879 191.586 282.973 191.718 283.03L202.28 287.242V275.501Z" fill="white" fill-opacity="0.2"/>
<path d="M212.553 271.098V282.355C212.553 282.648 212.377 282.912 212.109 283.03L202.28 287.242V275.501L212.553 271.098ZM202.28 275.501L191.273 271.098V282.355C191.273 282.498 191.315 282.639 191.394 282.759C191.473 282.879 191.586 282.973 191.718 283.03L202.28 287.242V275.501Z" fill="url(#paint23_linear_2436_3860)" fill-opacity="0.5"/>
<path d="M212.553 217.993L212.553 206.737C212.553 206.443 212.377 206.179 212.109 206.062L202.28 201.85L202.28 213.591L212.553 217.993ZM202.28 213.591L191.273 217.993L191.273 206.737C191.273 206.593 191.315 206.453 191.394 206.333C191.473 206.213 191.586 206.119 191.718 206.062L202.28 201.85L202.28 213.591Z" fill="white"/>
<path d="M212.553 217.993L212.553 206.737C212.553 206.443 212.377 206.179 212.109 206.062L202.28 201.85L202.28 213.591L212.553 217.993ZM202.28 213.591L191.273 217.993L191.273 206.737C191.273 206.593 191.315 206.453 191.394 206.333C191.473 206.213 191.586 206.119 191.718 206.062L202.28 201.85L202.28 213.591Z" fill="url(#paint24_linear_2436_3860)" fill-opacity="0.6"/>
<path d="M212.553 206.525V217.781C212.553 218.075 212.377 218.339 212.109 218.456L202.28 222.668V210.927L212.553 206.525ZM202.28 210.927L191.273 206.525V217.781C191.273 217.925 191.315 218.065 191.394 218.185C191.473 218.305 191.586 218.4 191.718 218.456L202.28 222.668V210.927Z" fill="white" fill-opacity="0.2"/>
<path d="M212.553 206.525V217.781C212.553 218.075 212.377 218.339 212.109 218.456L202.28 222.668V210.927L212.553 206.525ZM202.28 210.927L191.273 206.525V217.781C191.273 217.925 191.315 218.065 191.394 218.185C191.473 218.305 191.586 218.4 191.718 218.456L202.28 222.668V210.927Z" fill="url(#paint25_linear_2436_3860)" fill-opacity="0.5"/>
</g>
<circle cx="113.645" cy="13.0486" r="12.9493" fill="url(#paint26_radial_2436_3860)"/>
<mask id="mask0_2436_3860" style="mask-type:alpha" maskUnits="userSpaceOnUse" x="100" y="0" width="27" height="26">
<circle cx="113.645" cy="13.0486" r="12.9493" fill="#D9D9D9"/>
</mask>
<g mask="url(#mask0_2436_3860)">
<g filter="url(#filter0_i_2436_3860)">
<path d="M113.646 14.6299C116.301 14.6299 118.304 12.627 118.304 9.97195C118.304 7.3169 116.301 5.31396 113.646 5.31396C110.991 5.31396 108.988 7.3169 108.988 9.97195C108.988 12.627 110.991 14.6299 113.646 14.6299ZM114.977 15.8916H112.315C108.646 15.8916 105.661 18.8767 105.661 22.5458V26.5538H121.631V22.5458C121.631 18.8767 118.646 15.8916 114.977 15.8916Z" fill="#F4FBFF"/>
</g>
</g>
<circle cx="214.568" cy="55.5764" r="12.9493" fill="url(#paint27_radial_2436_3860)"/>
<mask id="mask1_2436_3860" style="mask-type:alpha" maskUnits="userSpaceOnUse" x="201" y="42" width="27" height="27">
<circle cx="214.568" cy="55.5764" r="12.9493" fill="#D9D9D9"/>
</mask>
<g mask="url(#mask1_2436_3860)">
<g filter="url(#filter1_i_2436_3860)">
<path d="M214.568 57.1578C217.223 57.1578 219.226 55.1548 219.226 52.4998C219.226 49.8447 217.223 47.8418 214.568 47.8418C211.913 47.8418 209.91 49.8447 209.91 52.4998C209.91 55.1548 211.913 57.1578 214.568 57.1578ZM215.898 58.4194H213.237C209.568 58.4194 206.583 61.4045 206.583 65.0737V69.0817H222.553V65.0737C222.553 61.4045 219.568 58.4194 215.898 58.4194Z" fill="#F4FBFF"/>
</g>
</g>
<circle cx="214.568" cy="157.996" r="12.9493" fill="url(#paint28_radial_2436_3860)"/>
<mask id="mask2_2436_3860" style="mask-type:alpha" maskUnits="userSpaceOnUse" x="201" y="145" width="27" height="26">
<circle cx="214.568" cy="157.996" r="12.9493" fill="#D9D9D9"/>
</mask>
<g mask="url(#mask2_2436_3860)">
<g filter="url(#filter2_i_2436_3860)">
<path d="M214.568 159.577C217.223 159.577 219.226 157.575 219.226 154.919C219.226 152.264 217.223 150.261 214.568 150.261C211.913 150.261 209.91 152.264 209.91 154.919C209.91 157.575 211.913 159.577 214.568 159.577ZM215.898 160.839H213.237C209.568 160.839 206.583 163.824 206.583 167.493V171.501H222.553V167.493C222.553 163.824 219.568 160.839 215.898 160.839Z" fill="#F4FBFF"/>
</g>
</g>
<circle cx="12.7217" cy="55.5764" r="12.9493" fill="url(#paint29_radial_2436_3860)"/>
<mask id="mask3_2436_3860" style="mask-type:alpha" maskUnits="userSpaceOnUse" x="-1" y="42" width="27" height="27">
<circle cx="12.7217" cy="55.5764" r="12.9493" fill="#D9D9D9"/>
</mask>
<g mask="url(#mask3_2436_3860)">
<g filter="url(#filter3_i_2436_3860)">
<path d="M12.7219 57.1578C15.377 57.1578 17.3799 55.1548 17.3799 52.4998C17.3799 49.8447 15.377 47.8418 12.7219 47.8418C10.0669 47.8418 8.06395 49.8447 8.06395 52.4998C8.06395 55.1548 10.0669 57.1578 12.7219 57.1578ZM14.0528 58.4194H11.3911C7.72192 58.4194 4.73682 61.4045 4.73682 65.0737V69.0817H20.707V65.0737C20.707 61.4045 17.7219 58.4194 14.0528 58.4194Z" fill="#F4FBFF"/>
</g>
</g>
<circle cx="12.7217" cy="157.996" r="12.9493" fill="url(#paint30_radial_2436_3860)"/>
<mask id="mask4_2436_3860" style="mask-type:alpha" maskUnits="userSpaceOnUse" x="-1" y="145" width="27" height="26">
<circle cx="12.7217" cy="157.996" r="12.9493" fill="#D9D9D9"/>
</mask>
<g mask="url(#mask4_2436_3860)">
<g filter="url(#filter4_i_2436_3860)">
<path d="M12.7219 159.577C15.377 159.577 17.3799 157.575 17.3799 154.919C17.3799 152.264 15.377 150.261 12.7219 150.261C10.0669 150.261 8.06395 152.264 8.06395 154.919C8.06395 157.575 10.0669 159.577 12.7219 159.577ZM14.0528 160.839H11.3911C7.72192 160.839 4.73682 163.824 4.73682 167.493V171.501H20.707V167.493C20.707 163.824 17.7219 160.839 14.0528 160.839Z" fill="#F4FBFF"/>
</g>
</g>
<circle cx="113.645" cy="202.691" r="12.9493" fill="url(#paint31_radial_2436_3860)"/>
<mask id="mask5_2436_3860" style="mask-type:alpha" maskUnits="userSpaceOnUse" x="100" y="189" width="27" height="27">
<circle cx="113.645" cy="202.691" r="12.9493" fill="#D9D9D9"/>
</mask>
<g mask="url(#mask5_2436_3860)">
<g filter="url(#filter5_i_2436_3860)">
<path d="M113.646 204.273C116.301 204.273 118.304 202.27 118.304 199.615C118.304 196.959 116.301 194.957 113.646 194.957C110.991 194.957 108.988 196.959 108.988 199.615C108.988 202.27 110.991 204.273 113.646 204.273ZM114.977 205.534H112.315C108.646 205.534 105.661 208.519 105.661 212.188V216.196H121.631V212.188C121.631 208.519 118.646 205.534 114.977 205.534Z" fill="#F4FBFF"/>
</g>
</g>
<g filter="url(#filter6_d_2436_3860)">
<path fill-rule="evenodd" clip-rule="evenodd" d="M107.687 99.8668H117.096C117.044 97.0708 116.935 92.8736 116.772 92.4748C116.533 91.8938 116.184 91.3658 115.744 90.9211C115.304 90.4765 114.781 90.1237 114.206 89.8831C113.631 89.6424 113.014 89.5185 112.392 89.5185C111.769 89.5185 111.153 89.6424 110.578 89.8831C110.003 90.1237 109.48 90.4765 109.04 90.9211C108.6 91.3658 108.25 91.8938 108.012 92.4748C107.849 92.8736 107.74 97.0708 107.687 99.8668ZM121.031 99.8668H123.073C124.177 99.8668 125.073 100.762 125.073 101.867V121.102C125.073 122.206 124.177 123.102 123.073 123.102H101.709C100.605 123.102 99.7095 122.206 99.7095 121.102V101.867C99.7095 100.762 100.605 99.8668 101.709 99.8668H103.752C103.842 96.7194 104.047 91.7177 104.363 90.9476C104.799 89.8824 105.439 88.9146 106.246 88.0993C107.054 87.284 108.012 86.6374 109.066 86.1961C110.12 85.7549 111.251 85.5278 112.392 85.5278C113.533 85.5278 114.663 85.7549 115.718 86.1961C116.772 86.6374 117.73 87.284 118.537 88.0993C119.344 88.9146 119.984 89.8824 120.421 90.9476C120.737 91.7178 120.942 96.7194 121.031 99.8668ZM113.981 111.484C113.981 112.362 113.269 113.074 112.391 113.074C111.513 113.074 110.801 112.362 110.801 111.484C110.801 110.606 111.513 109.894 112.391 109.894C113.269 109.894 113.981 110.606 113.981 111.484Z" fill="url(#paint32_linear_2436_3860)"/>
</g>
</g>
<defs>
<filter id="filter0_i_2436_3860" x="105.661" y="4.31396" width="15.9702" height="22.2399" filterUnits="userSpaceOnUse" color-interpolation-filters="sRGB">
<feFlood flood-opacity="0" result="BackgroundImageFix"/>
<feBlend mode="normal" in="SourceGraphic" in2="BackgroundImageFix" result="shape"/>
<feColorMatrix in="SourceAlpha" type="matrix" values="0 0 0 0 0 0 0 0 0 0 0 0 0 0 0 0 0 0 127 0" result="hardAlpha"/>
<feOffset dy="-1"/>
<feGaussianBlur stdDeviation="1"/>
<feComposite in2="hardAlpha" operator="arithmetic" k2="-1" k3="1"/>
<feColorMatrix type="matrix" values="0 0 0 0 0.0352941 0 0 0 0 0.223529 0 0 0 0 0.329412 0 0 0 0.3 0"/>
<feBlend mode="normal" in2="shape" result="effect1_innerShadow_2436_3860"/>
</filter>
<filter id="filter1_i_2436_3860" x="206.583" y="46.8418" width="15.9702" height="22.2399" filterUnits="userSpaceOnUse" color-interpolation-filters="sRGB">
<feFlood flood-opacity="0" result="BackgroundImageFix"/>
<feBlend mode="normal" in="SourceGraphic" in2="BackgroundImageFix" result="shape"/>
<feColorMatrix in="SourceAlpha" type="matrix" values="0 0 0 0 0 0 0 0 0 0 0 0 0 0 0 0 0 0 127 0" result="hardAlpha"/>
<feOffset dy="-1"/>
<feGaussianBlur stdDeviation="1"/>
<feComposite in2="hardAlpha" operator="arithmetic" k2="-1" k3="1"/>
<feColorMatrix type="matrix" values="0 0 0 0 0.0352941 0 0 0 0 0.223529 0 0 0 0 0.329412 0 0 0 0.3 0"/>
<feBlend mode="normal" in2="shape" result="effect1_innerShadow_2436_3860"/>
</filter>
<filter id="filter2_i_2436_3860" x="206.583" y="149.261" width="15.9702" height="22.24" filterUnits="userSpaceOnUse" color-interpolation-filters="sRGB">
<feFlood flood-opacity="0" result="BackgroundImageFix"/>
<feBlend mode="normal" in="SourceGraphic" in2="BackgroundImageFix" result="shape"/>
<feColorMatrix in="SourceAlpha" type="matrix" values="0 0 0 0 0 0 0 0 0 0 0 0 0 0 0 0 0 0 127 0" result="hardAlpha"/>
<feOffset dy="-1"/>
<feGaussianBlur stdDeviation="1"/>
<feComposite in2="hardAlpha" operator="arithmetic" k2="-1" k3="1"/>
<feColorMatrix type="matrix" values="0 0 0 0 0.0352941 0 0 0 0 0.223529 0 0 0 0 0.329412 0 0 0 0.3 0"/>
<feBlend mode="normal" in2="shape" result="effect1_innerShadow_2436_3860"/>
</filter>
<filter id="filter3_i_2436_3860" x="4.73682" y="46.8418" width="15.9702" height="22.2399" filterUnits="userSpaceOnUse" color-interpolation-filters="sRGB">
<feFlood flood-opacity="0" result="BackgroundImageFix"/>
<feBlend mode="normal" in="SourceGraphic" in2="BackgroundImageFix" result="shape"/>
<feColorMatrix in="SourceAlpha" type="matrix" values="0 0 0 0 0 0 0 0 0 0 0 0 0 0 0 0 0 0 127 0" result="hardAlpha"/>
<feOffset dy="-1"/>
<feGaussianBlur stdDeviation="1"/>
<feComposite in2="hardAlpha" operator="arithmetic" k2="-1" k3="1"/>
<feColorMatrix type="matrix" values="0 0 0 0 0.0352941 0 0 0 0 0.223529 0 0 0 0 0.329412 0 0 0 0.3 0"/>
<feBlend mode="normal" in2="shape" result="effect1_innerShadow_2436_3860"/>
</filter>
<filter id="filter4_i_2436_3860" x="4.73682" y="149.261" width="15.9702" height="22.24" filterUnits="userSpaceOnUse" color-interpolation-filters="sRGB">
<feFlood flood-opacity="0" result="BackgroundImageFix"/>
<feBlend mode="normal" in="SourceGraphic" in2="BackgroundImageFix" result="shape"/>
<feColorMatrix in="SourceAlpha" type="matrix" values="0 0 0 0 0 0 0 0 0 0 0 0 0 0 0 0 0 0 127 0" result="hardAlpha"/>
<feOffset dy="-1"/>
<feGaussianBlur stdDeviation="1"/>
<feComposite in2="hardAlpha" operator="arithmetic" k2="-1" k3="1"/>
<feColorMatrix type="matrix" values="0 0 0 0 0.0352941 0 0 0 0 0.223529 0 0 0 0 0.329412 0 0 0 0.3 0"/>
<feBlend mode="normal" in2="shape" result="effect1_innerShadow_2436_3860"/>
</filter>
<filter id="filter5_i_2436_3860" x="105.661" y="193.957" width="15.9702" height="22.24" filterUnits="userSpaceOnUse" color-interpolation-filters="sRGB">
<feFlood flood-opacity="0" result="BackgroundImageFix"/>
<feBlend mode="normal" in="SourceGraphic" in2="BackgroundImageFix" result="shape"/>
<feColorMatrix in="SourceAlpha" type="matrix" values="0 0 0 0 0 0 0 0 0 0 0 0 0 0 0 0 0 0 127 0" result="hardAlpha"/>
<feOffset dy="-1"/>
<feGaussianBlur stdDeviation="1"/>
<feComposite in2="hardAlpha" operator="arithmetic" k2="-1" k3="1"/>
<feColorMatrix type="matrix" values="0 0 0 0 0.0352941 0 0 0 0 0.223529 0 0 0 0 0.329412 0 0 0 0.3 0"/>
<feBlend mode="normal" in2="shape" result="effect1_innerShadow_2436_3860"/>
</filter>
<filter id="filter6_d_2436_3860" x="94.7095" y="81.5278" width="35.3633" height="47.5737" filterUnits="userSpaceOnUse" color-interpolation-filters="sRGB">
<feFlood flood-opacity="0" result="BackgroundImageFix"/>
<feColorMatrix in="SourceAlpha" type="matrix" values="0 0 0 0 0 0 0 0 0 0 0 0 0 0 0 0 0 0 127 0" result="hardAlpha"/>
<feOffset dy="1"/>
<feGaussianBlur stdDeviation="2.5"/>
<feComposite in2="hardAlpha" operator="out"/>
<feColorMatrix type="matrix" values="0 0 0 0 0 0 0 0 0 0 0 0 0 0 0 0 0 0 0.15 0"/>
<feBlend mode="normal" in2="BackgroundImageFix" result="effect1_dropShadow_2436_3860"/>
<feBlend mode="normal" in="SourceGraphic" in2="effect1_dropShadow_2436_3860" result="shape"/>
</filter>
<linearGradient id="paint0_linear_2436_3860" x1="49.2466" y1="116.426" x2="49.2466" y2="131.976" gradientUnits="userSpaceOnUse">
<stop stop-color="#054F77"/>
<stop offset="1" stop-color="#8CFF00"/>
</linearGradient>
<linearGradient id="paint1_linear_2436_3860" x1="24.1956" y1="140.138" x2="50.4379" y2="140.138" gradientUnits="userSpaceOnUse">
<stop stop-color="#8CFF00"/>
<stop offset="1" stop-color="#E7FFC9"/>
</linearGradient>
<linearGradient id="paint2_linear_2436_3860" x1="49.2466" y1="60.1631" x2="49.2466" y2="75.7127" gradientUnits="userSpaceOnUse">
<stop stop-color="#054F77"/>
<stop offset="1" stop-color="#8CFF00"/>
</linearGradient>
<linearGradient id="paint3_linear_2436_3860" x1="24.1956" y1="83.875" x2="50.4379" y2="83.875" gradientUnits="userSpaceOnUse">
<stop stop-color="#8CFF00"/>
<stop offset="1" stop-color="#E7FFC9"/>
</linearGradient>
<linearGradient id="paint4_linear_2436_3860" x1="174.098" y1="116.426" x2="174.098" y2="131.976" gradientUnits="userSpaceOnUse">
<stop stop-color="#054F77"/>
<stop offset="1" stop-color="#8CFF00"/>
</linearGradient>
<linearGradient id="paint5_linear_2436_3860" x1="149.047" y1="140.138" x2="175.289" y2="140.138" gradientUnits="userSpaceOnUse">
<stop stop-color="#8CFF00"/>
<stop offset="1" stop-color="#E7FFC9"/>
</linearGradient>
<linearGradient id="paint6_linear_2436_3860" x1="174.098" y1="60.1631" x2="174.098" y2="75.7127" gradientUnits="userSpaceOnUse">
<stop stop-color="#054F77"/>
<stop offset="1" stop-color="#8CFF00"/>
</linearGradient>
<linearGradient id="paint7_linear_2436_3860" x1="149.047" y1="83.875" x2="175.289" y2="83.875" gradientUnits="userSpaceOnUse">
<stop stop-color="#8CFF00"/>
<stop offset="1" stop-color="#E7FFC9"/>
</linearGradient>
<linearGradient id="paint8_linear_2436_3860" x1="111.673" y1="144.614" x2="111.673" y2="160.164" gradientUnits="userSpaceOnUse">
<stop stop-color="#054F77"/>
<stop offset="1" stop-color="#8CFF00"/>
</linearGradient>
<linearGradient id="paint9_linear_2436_3860" x1="86.6218" y1="168.326" x2="112.864" y2="168.326" gradientUnits="userSpaceOnUse">
<stop stop-color="#8CFF00"/>
<stop offset="1" stop-color="#E7FFC9"/>
</linearGradient>
<linearGradient id="paint10_linear_2436_3860" x1="111.673" y1="31.8645" x2="111.673" y2="47.4141" gradientUnits="userSpaceOnUse">
<stop stop-color="#054F77"/>
<stop offset="1" stop-color="#8CFF00"/>
</linearGradient>
<linearGradient id="paint11_linear_2436_3860" x1="86.6218" y1="55.5765" x2="112.864" y2="55.5765" gradientUnits="userSpaceOnUse">
<stop stop-color="#8CFF00"/>
<stop offset="1" stop-color="#E7FFC9"/>
</linearGradient>
<linearGradient id="paint12_linear_2436_3860" x1="166.16" y1="249.446" x2="166.16" y2="258.352" gradientUnits="userSpaceOnUse">
<stop stop-color="#054F77"/>
<stop offset="1" stop-color="#8CFF00"/>
</linearGradient>
<linearGradient id="paint13_linear_2436_3860" x1="151.813" y1="263.027" x2="166.843" y2="263.027" gradientUnits="userSpaceOnUse">
<stop stop-color="#8CFF00"/>
<stop offset="1" stop-color="#E7FFC9"/>
</linearGradient>
<linearGradient id="paint14_linear_2436_3860" x1="166.16" y1="217.223" x2="166.16" y2="226.129" gradientUnits="userSpaceOnUse">
<stop stop-color="#054F77"/>
<stop offset="1" stop-color="#8CFF00"/>
</linearGradient>
<linearGradient id="paint15_linear_2436_3860" x1="151.813" y1="230.803" x2="166.843" y2="230.803" gradientUnits="userSpaceOnUse">
<stop stop-color="#8CFF00"/>
<stop offset="1" stop-color="#E7FFC9"/>
</linearGradient>
<linearGradient id="paint16_linear_2436_3860" x1="237.665" y1="249.446" x2="237.665" y2="258.352" gradientUnits="userSpaceOnUse">
<stop stop-color="#054F77"/>
<stop offset="1" stop-color="#8CFF00"/>
</linearGradient>
<linearGradient id="paint17_linear_2436_3860" x1="223.318" y1="263.027" x2="238.347" y2="263.027" gradientUnits="userSpaceOnUse">
<stop stop-color="#8CFF00"/>
<stop offset="1" stop-color="#E7FFC9"/>
</linearGradient>
<linearGradient id="paint18_linear_2436_3860" x1="237.665" y1="217.223" x2="237.665" y2="226.129" gradientUnits="userSpaceOnUse">
<stop stop-color="#054F77"/>
<stop offset="1" stop-color="#8CFF00"/>
</linearGradient>
<linearGradient id="paint19_linear_2436_3860" x1="223.318" y1="230.803" x2="238.347" y2="230.803" gradientUnits="userSpaceOnUse">
<stop stop-color="#8CFF00"/>
<stop offset="1" stop-color="#E7FFC9"/>
</linearGradient>
<linearGradient id="paint20_linear_2436_3860" x1="201.913" y1="233.303" x2="201.913" y2="242.209" gradientUnits="userSpaceOnUse">
<stop stop-color="#054F77"/>
<stop offset="1" stop-color="#8CFF00"/>
</linearGradient>
<linearGradient id="paint21_linear_2436_3860" x1="187.566" y1="246.883" x2="202.595" y2="246.883" gradientUnits="userSpaceOnUse">
<stop stop-color="#8CFF00"/>
<stop offset="1" stop-color="#E7FFC9"/>
</linearGradient>
<linearGradient id="paint22_linear_2436_3860" x1="201.913" y1="265.59" x2="201.913" y2="274.495" gradientUnits="userSpaceOnUse">
<stop stop-color="#054F77"/>
<stop offset="1" stop-color="#8CFF00"/>
</linearGradient>
<linearGradient id="paint23_linear_2436_3860" x1="187.566" y1="279.17" x2="202.595" y2="279.17" gradientUnits="userSpaceOnUse">
<stop stop-color="#8CFF00"/>
<stop offset="1" stop-color="#E7FFC9"/>
</linearGradient>
<linearGradient id="paint24_linear_2436_3860" x1="201.913" y1="201.016" x2="201.913" y2="209.922" gradientUnits="userSpaceOnUse">
<stop stop-color="#054F77"/>
<stop offset="1" stop-color="#8CFF00"/>
</linearGradient>
<linearGradient id="paint25_linear_2436_3860" x1="187.566" y1="214.596" x2="202.595" y2="214.596" gradientUnits="userSpaceOnUse">
<stop stop-color="#8CFF00"/>
<stop offset="1" stop-color="#E7FFC9"/>
</linearGradient>
<radialGradient id="paint26_radial_2436_3860" cx="0" cy="0" r="1" gradientUnits="userSpaceOnUse" gradientTransform="translate(107.583 0.0993645) rotate(71.4769) scale(25.1714)">
<stop stop-color="#054F77"/>
<stop offset="1" stop-color="#052233"/>
</radialGradient>
<radialGradient id="paint27_radial_2436_3860" cx="0" cy="0" r="1" gradientUnits="userSpaceOnUse" gradientTransform="translate(208.506 42.6271) rotate(71.4769) scale(25.1714)">
<stop stop-color="#054F77"/>
<stop offset="1" stop-color="#052233"/>
</radialGradient>
<radialGradient id="paint28_radial_2436_3860" cx="0" cy="0" r="1" gradientUnits="userSpaceOnUse" gradientTransform="translate(208.506 145.047) rotate(71.4769) scale(25.1714)">
<stop stop-color="#054F77"/>
<stop offset="1" stop-color="#052233"/>
</radialGradient>
<radialGradient id="paint29_radial_2436_3860" cx="0" cy="0" r="1" gradientUnits="userSpaceOnUse" gradientTransform="translate(6.65983 42.6271) rotate(71.4769) scale(25.1714)">
<stop stop-color="#054F77"/>
<stop offset="1" stop-color="#052233"/>
</radialGradient>
<radialGradient id="paint30_radial_2436_3860" cx="0" cy="0" r="1" gradientUnits="userSpaceOnUse" gradientTransform="translate(6.65983 145.047) rotate(71.4769) scale(25.1714)">
<stop stop-color="#054F77"/>
<stop offset="1" stop-color="#052233"/>
</radialGradient>
<radialGradient id="paint31_radial_2436_3860" cx="0" cy="0" r="1" gradientUnits="userSpaceOnUse" gradientTransform="translate(107.583 189.742) rotate(71.4769) scale(25.1714)">
<stop stop-color="#054F77"/>
<stop offset="1" stop-color="#052233"/>
</radialGradient>
<linearGradient id="paint32_linear_2436_3860" x1="103.042" y1="128.751" x2="120.24" y2="90.3844" gradientUnits="userSpaceOnUse">
<stop stop-color="#F4FBFF"/>
<stop offset="1" stop-color="#9BE85F"/>
</linearGradient>
<clipPath id="clip0_2436_3860">
<rect width="248" height="287" fill="white"/>
</clipPath>
</defs>
</svg>
